<?xml version="1.0" encoding="UTF-8" standalone="no"?>
<!-- Created with Inkscape (http://www.inkscape.org/) -->
<svg
   xmlns:dc="http://purl.org/dc/elements/1.1/"
   xmlns:cc="http://web.resource.org/cc/"
   xmlns:rdf="http://www.w3.org/1999/02/22-rdf-syntax-ns#"
   xmlns:svg="http://www.w3.org/2000/svg"
   xmlns="http://www.w3.org/2000/svg"
   xmlns:xlink="http://www.w3.org/1999/xlink"
   xmlns:sodipodi="http://inkscape.sourceforge.net/DTD/sodipodi-0.dtd"
   xmlns:inkscape="http://www.inkscape.org/namespaces/inkscape"
   width="22"
   height="22"
   id="svg2"
   sodipodi:version="0.32"
   inkscape:version="0.43+devel"
   sodipodi:docbase="/home/silvestre/Neu/22x22/devices"
   sodipodi:docname="media-dvdrw.svg"
   version="1.0">
  <defs
     id="defs4">
    <linearGradient
       id="linearGradient6989"
       inkscape:collect="always">
      <stop
         id="stop6991"
         offset="0"
         style="stop-color:white;stop-opacity:1" />
      <stop
         id="stop6993"
         offset="1"
         style="stop-color:#f7f7f7;stop-opacity:1" />
    </linearGradient>
    <linearGradient
       inkscape:collect="always"
       id="linearGradient5005">
      <stop
         style="stop-color:#8c3c3c;stop-opacity:1"
         offset="0"
         id="stop5007" />
      <stop
         style="stop-color:#ad5b5b;stop-opacity:1"
         offset="1"
         id="stop5009" />
    </linearGradient>
    <linearGradient
       id="linearGradient4999">
      <stop
         id="stop5001"
         offset="0"
         style="stop-color:#ffafaf;stop-opacity:1" />
      <stop
         id="stop5003"
         offset="1"
         style="stop-color:#e35f5f;stop-opacity:1" />
    </linearGradient>
    <linearGradient
       id="linearGradient5974"
       inkscape:collect="always">
      <stop
         id="stop5976"
         offset="0"
         style="stop-color:#a45a5a;stop-opacity:0.627451" />
      <stop
         id="stop5978"
         offset="1"
         style="stop-color:#a45a5a;stop-opacity:0" />
    </linearGradient>
    <linearGradient
       inkscape:collect="always"
       id="linearGradient4836">
      <stop
         style="stop-color:white;stop-opacity:1;"
         offset="0"
         id="stop4838" />
      <stop
         style="stop-color:white;stop-opacity:0.58823532"
         offset="1"
         id="stop4840" />
    </linearGradient>
    <linearGradient
       id="linearGradient8655">
      <stop
         style="stop-color:#000000;stop-opacity:0.30208334;"
         offset="0.0000000"
         id="stop8657" />
      <stop
         style="stop-color:#000000;stop-opacity:0;"
         offset="1"
         id="stop8659" />
    </linearGradient>
    <linearGradient
       id="linearGradient7917">
      <stop
         style="stop-color:#000000;stop-opacity:0.16666669;"
         offset="0.0000000"
         id="stop7919" />
      <stop
         style="stop-color:#000000;stop-opacity:0;"
         offset="1"
         id="stop7921" />
    </linearGradient>
    <linearGradient
       id="linearGradient5703">
      <stop
         id="stop5705"
         offset="0.0000000"
         style="stop-color:#ffffff;stop-opacity:0.83333325;" />
      <stop
         id="stop5707"
         offset="1"
         style="stop-color:#ffffff;stop-opacity:0.0000000" />
    </linearGradient>
    <linearGradient
       id="linearGradient5691">
      <stop
         style="stop-color:#ffffff;stop-opacity:0.83333325;"
         offset="0.0000000"
         id="stop5693" />
      <stop
         style="stop-color:#ffffff;stop-opacity:0.0000000"
         offset="1"
         id="stop5695" />
    </linearGradient>
    <linearGradient
       inkscape:collect="always"
       xlink:href="#linearGradient5703"
       id="linearGradient5723"
       gradientUnits="userSpaceOnUse"
       x1="59.902058"
       y1="95.622185"
       x2="33.750458"
       y2="78.300934"
       gradientTransform="matrix(0.197024,0,0,0.187438,-0.53412,-1.115955)" />
    <linearGradient
       inkscape:collect="always"
       xlink:href="#linearGradient4999"
       id="linearGradient6461"
       x1="21.100939"
       y1="33.477123"
       x2="54.294334"
       y2="75.682442"
       gradientUnits="userSpaceOnUse"
       gradientTransform="matrix(0.229416,0,0,0.213131,-0.65296,-2.7902)" />
    <radialGradient
       inkscape:collect="always"
       xlink:href="#linearGradient7917"
       id="radialGradient7923"
       cx="51.231888"
       cy="110.19082"
       fx="51.231888"
       fy="110.19082"
       r="48.06039"
       gradientTransform="matrix(1,0,0,0.228426,3.823982e-16,85.02033)"
       gradientUnits="userSpaceOnUse" />
    <linearGradient
       inkscape:collect="always"
       xlink:href="#linearGradient8655"
       id="linearGradient8661"
       x1="59.867424"
       y1="177.41431"
       x2="86.77282"
       y2="84.96209"
       gradientUnits="userSpaceOnUse"
       gradientTransform="matrix(0.170693,0,0,0.20942,1.210666,-2.911821)" />
    <linearGradient
       inkscape:collect="always"
       xlink:href="#linearGradient5974"
       id="linearGradient4834"
       x1="100.05664"
       y1="65.067497"
       x2="24.326601"
       y2="65.067497"
       gradientUnits="userSpaceOnUse"
       gradientTransform="matrix(0.223195,0,0,0.204583,-0.689763,-2.237213)" />
    <linearGradient
       inkscape:collect="always"
       xlink:href="#linearGradient4836"
       id="linearGradient4842"
       x1="38.183765"
       y1="21.226875"
       x2="59.657269"
       y2="101.36707"
       gradientUnits="userSpaceOnUse"
       gradientTransform="matrix(0.220132,0,0,0.206635,-0.651097,-2.473192)" />
    <linearGradient
       inkscape:collect="always"
       xlink:href="#linearGradient5005"
       id="linearGradient5724"
       x1="99.25"
       y1="65.5"
       x2="43.49057"
       y2="65.5"
       gradientUnits="userSpaceOnUse"
       gradientTransform="matrix(0.229416,0,0,0.213131,-1.111792,-2.7902)" />
    <linearGradient
       inkscape:collect="always"
       xlink:href="#linearGradient5691"
       id="linearGradient5701"
       gradientUnits="userSpaceOnUse"
       gradientTransform="matrix(0.197024,0,0,0.197851,-0.534119,-1.289064)"
       x1="31.114616"
       y1="33.89996"
       x2="48.388142"
       y2="61.223637" />
    <linearGradient
       inkscape:collect="always"
       xlink:href="#linearGradient6989"
       id="linearGradient5241"
       gradientUnits="userSpaceOnUse"
       gradientTransform="matrix(0.509226,0,0,0.483727,5.197456,14.39932)"
       x1="-4.6596999"
       y1="5.7520499"
       x2="-4.6596999"
       y2="19.754282" />
  </defs>
  <sodipodi:namedview
     id="base"
     pagecolor="#ffffff"
     bordercolor="#666666"
     borderopacity="1.0"
     inkscape:pageopacity="0.0"
     inkscape:pageshadow="2"
     inkscape:zoom="1"
     inkscape:cx="11"
     inkscape:cy="11"
     inkscape:document-units="px"
     inkscape:current-layer="g5234"
     showguides="true"
     inkscape:guide-bbox="true"
     inkscape:window-width="843"
     inkscape:window-height="556"
     inkscape:window-x="171"
     inkscape:window-y="185"
     showborder="false"
     width="22px"
     height="22px"
     inkscape:showpageshadow="false"
     showgrid="false" />
  <metadata
     id="metadata7">
    <rdf:RDF>
      <cc:Work
         rdf:about="">
        <dc:format>image/svg+xml</dc:format>
        <dc:type
           rdf:resource="http://purl.org/dc/dcmitype/StillImage" />
      </cc:Work>
    </rdf:RDF>
  </metadata>
  <g
     inkscape:label="Layer 1"
     inkscape:groupmode="layer"
     id="layer1">
    <path
       sodipodi:nodetypes="csssccsssc"
       style="opacity:1;color:black;fill:url(#linearGradient8661);fill-opacity:1;fill-rule:evenodd;stroke:none;stroke-width:1.66170299;stroke-linecap:round;stroke-linejoin:round;marker:none;marker-start:none;marker-mid:none;marker-end:none;stroke-miterlimit:4;stroke-dasharray:none;stroke-dashoffset:0;stroke-opacity:1;visibility:visible;display:inline;overflow:visible"
       d="M 16.498789,14.883533 C 12.193422,14.813847 7.234085,16.150951 5.4274735,17.868509 C 3.6208618,19.586067 5.6467178,21.037842 9.9520847,21.107523 C 14.257451,21.17721 19.218455,19.838523 21.025066,18.120965 C 22.831678,16.403407 20.804156,14.953219 16.498789,14.883533 z M 12.964847,17.583111 C 13.521156,17.592112 13.785026,17.778072 13.551588,18.000001 C 13.318151,18.221934 12.676796,18.39485 12.120487,18.385849 C 11.564177,18.376843 11.301974,18.1893 11.535412,17.967372 C 11.768849,17.745438 12.408538,17.574105 12.964847,17.583111 z "
       id="path7925" />
    <path
       sodipodi:type="arc"
       style="opacity:1;color:black;fill:url(#radialGradient7923);fill-opacity:1;fill-rule:evenodd;stroke:none;stroke-width:3;stroke-linecap:round;stroke-linejoin:round;marker:none;marker-start:none;marker-mid:none;marker-end:none;stroke-miterlimit:4;stroke-dasharray:none;stroke-dashoffset:0;stroke-opacity:0.78400005;visibility:visible;display:inline;overflow:visible"
       id="path7189"
       sodipodi:cx="51.231888"
       sodipodi:cy="110.19082"
       sodipodi:rx="48.06039"
       sodipodi:ry="10.978262"
       d="M 99.292278 110.19082 A 48.06039 10.978262 0 1 1  3.1714973,110.19082 A 48.06039 10.978262 0 1 1  99.292278 110.19082 z"
       transform="matrix(0.185279,0,0,0.202647,-0.273091,-2.554551)" />
    <path
       style="opacity:1;color:black;fill:url(#linearGradient6461);fill-opacity:1;fill-rule:evenodd;stroke:url(#linearGradient5724);stroke-width:0.99999964;stroke-linecap:round;stroke-linejoin:round;marker:none;marker-start:none;marker-mid:none;marker-end:none;stroke-miterlimit:4;stroke-dasharray:none;stroke-dashoffset:0;stroke-opacity:1;visibility:visible;display:inline;overflow:visible"
       d="M 11.018568,0.50000004 C 5.2320209,0.50000004 0.53713373,5.2023104 0.53713373,10.996673 C 0.53713373,16.791035 5.2320213,21.500006 11.018568,21.500006 C 16.805112,21.500006 21.5,16.79104 21.5,10.996673 C 21.5,5.2023093 16.805112,0.50000004 11.018568,0.50000004 z M 10.108073,7.333495 C 12.131675,7.333495 13.778726,8.9855047 13.778726,11.023314 C 13.778728,13.061126 12.131675,14.713133 10.108073,14.713133 C 8.0844724,14.713133 6.4445904,13.061126 6.4445904,11.023314 C 6.4445899,8.9855047 8.0844729,7.333495 10.108073,7.333495 z "
       id="path1308" />
    <path
       style="fill:url(#linearGradient5701);fill-opacity:1;fill-rule:evenodd;stroke:none;stroke-width:0.25pt;stroke-linecap:butt;stroke-linejoin:miter;stroke-opacity:1"
       d="M 9.551052,2.0001991 C 9.1680645,1.9971642 8.7712338,2.0288522 8.368907,2.0929411 C 8.4836863,4.8692122 8.59892,7.6449251 8.7136994,10.421196 C 8.9443069,10.426075 9.1491776,10.522473 9.3170857,10.668508 C 11.211173,8.5024592 13.105913,6.3364178 15,4.1703684 C 14.37073,3.5208953 12.231963,2.0214364 9.551052,2.0001991 z M 7.9502307,12.232762 C 6.300849,14.11897 4.6493819,16.00383 3,17.890038 C 4.9544766,19.987225 6.9079733,20.930062 9.1508466,21 C 9.0347878,18.192777 8.9159561,15.386218 8.7998972,12.579001 C 8.7637054,12.583271 8.7324612,12.603729 8.6952285,12.603729 C 8.3952159,12.603729 8.135168,12.45869 7.9502307,12.232762 z "
       id="path4955" />
    <path
       style="fill:url(#linearGradient5723);fill-opacity:1;fill-rule:evenodd;stroke:none;stroke-width:0.25pt;stroke-linecap:butt;stroke-linejoin:miter;stroke-opacity:1"
       d="M 9.551052,2.0001886 C 9.168065,1.9973143 8.771234,2.0273337 8.368907,2.08805 C 8.483687,4.7182012 8.598921,7.3478245 8.7137,9.977976 C 8.944307,9.9825985 9.149178,10.073922 9.317086,10.212271 C 11.211173,8.1602247 13.105913,6.1081857 15,4.0561375 C 14.370731,3.4408485 12.231963,2.0203076 9.551052,2.0001886 z M 7.950231,11.694193 C 6.300849,13.481129 4.649383,15.26679 3,17.053721 C 4.954476,19.040531 6.907973,19.933741 9.150847,20 C 9.034788,17.340529 8.915956,14.681684 8.799898,12.022213 C 8.763706,12.02626 8.732461,12.04564 8.695229,12.04564 C 8.395216,12.04564 8.135168,11.908236 7.950231,11.694193 z "
       id="path5701" />
    <path
       sodipodi:nodetypes="csssccsssc"
       style="opacity:1;color:black;fill:#f2f2f2;fill-opacity:0.41199999;fill-rule:evenodd;stroke:#e3e3e3;stroke-width:0.53548676;stroke-linecap:round;stroke-linejoin:round;marker:none;marker-start:none;marker-mid:none;marker-end:none;stroke-miterlimit:4;stroke-dasharray:none;stroke-dashoffset:0;stroke-opacity:0.64800002;visibility:visible;display:inline;overflow:visible"
       d="M 9.9970866,7.2677409 C 7.9373777,7.2677409 6.2677443,8.9373754 6.2677443,10.997085 C 6.2677443,13.056797 7.9373777,14.732255 9.9970866,14.732255 C 12.056794,14.732255 13.732255,13.056797 13.732256,10.997085 C 13.732256,8.9373754 12.056794,7.2677409 9.9970866,7.2677409 z M 9.9970866,9.3888055 C 10.884889,9.3888055 11.605365,10.109283 11.605365,10.997085 C 11.605365,11.884888 10.884889,12.605367 9.9970866,12.605367 C 9.1092847,12.605367 8.3888075,11.884888 8.3888075,10.997085 C 8.388807,10.109283 9.1092854,9.3888055 9.9970866,9.3888055 z "
       id="path2055" />
    <path
       style="opacity:1;color:black;fill:none;fill-opacity:1;fill-rule:evenodd;stroke:url(#linearGradient4834);stroke-width:1.00000036;stroke-linecap:round;stroke-linejoin:round;marker:none;marker-start:none;marker-mid:none;marker-end:none;stroke-miterlimit:4;stroke-dasharray:none;stroke-dashoffset:0;stroke-opacity:1;visibility:visible;display:inline;overflow:visible"
       d="M 11.000006,1.5000003 C 5.7552816,1.5000003 1.5,5.7544691 1.5,10.996986 C 1.5,16.239501 5.7552821,20.499998 11.000006,20.499998 C 16.244728,20.499998 20.50001,16.239501 20.50001,10.996986 C 20.500011,5.7544691 16.244729,1.5000003 11.000006,1.5000003 z "
       id="path4818"
       sodipodi:nodetypes="csssc" />
    <path
       style="opacity:1;color:black;fill:none;fill-opacity:1;fill-rule:evenodd;stroke:url(#linearGradient4842);stroke-width:1.00000024;stroke-linecap:round;stroke-linejoin:round;marker:none;marker-start:none;marker-mid:none;marker-end:none;stroke-miterlimit:4;stroke-dasharray:none;stroke-dashoffset:0;stroke-opacity:1;visibility:visible;display:inline;overflow:visible"
       d="M 10.5,1.5000012 C 5.5313173,1.5000012 1.5000007,5.7544714 1.5000007,10.996991 C 1.5000007,16.239509 5.5313173,20.500008 10.5,20.500008 C 15.468681,20.500008 19.499998,16.239509 19.499998,10.996991 C 19.499999,5.7544714 15.468681,1.5000012 10.5,1.5000012 z "
       id="path3330"
       sodipodi:nodetypes="csssc" />
    <g
       id="g5234"
       transform="matrix(0.543193,0,0,0.61557,9.506563,-8.23355)">
      <g
         id="g636"
         style="font-size:12px;fill:#505050;fill-opacity:1;stroke:none"
         transform="matrix(0.918068,0,0,0.962673,-13.53911,9.223962)">
        <path
           sodipodi:nodetypes="cscscccccccscccccccsccccccccccccccccccccccccccccccccccccscccccscccccccsccccccccccccccsccccsccccccsccscscccccccccccsscccsc"
           style="fill:#505050;fill-opacity:1"
           id="path623"
           d="M 39.8,9.9 C 39.6,9.2 39.2,8.5 38.6,7.9 C 37.7,7 36.4,6.4 34.7,6.1 C 34.3,6.1 34,6 33.6,6 C 33.3,6 33,6 32.7,6 L 32.5,6 L 30.3,6 L 28.1,6 L 27.5,6 C 27,6 26.6,6 26.1,6 C 26.1,6 26,6 26,6 C 25.7,6 25.4,6 25,6.1 C 24.5,6.2 24.3,6.6 24.2,6.7 L 24.2,6.7 C 24.2,6.7 24,6.9 24,6.9 L 23.9,7 L 22.5,8.7 L 22.1,9.2 C 21.8,9.6 21.4,10 21.1,10.4 C 21.1,10.4 21,10.5 21,10.6 C 20.9,10.3 20.8,10 20.7,9.8 L 20.5,9 C 20.3,8.6 20.2,8.1 20.1,7.7 L 20,7.6 C 19.9,7.4 19.9,7.1 19.7,6.9 C 19.7,6.9 19.7,6.9 19.7,6.9 L 19.7,6.9 C 19.4,6.2 18.9,6 18.7,6 C 18.7,6 18.4,6 18.4,6 L 18.4,6 C 18.3,6 5,6 5,6 C 5,6 4.9,6 4.8,6 C 4.8,6 4.8,6 4.7,6 C 4.7,6 4.6,6 4.6,6 C 4.6,6 4.5,6 4.5,6 C 4.5,6 4.4,6 4.4,6.1 C 4.4,6.1 4.4,6.1 4.3,6.1 C 4.3,6.1 4.2,6.2 4.2,6.2 C 4.2,6.2 4.2,6.2 4.1,6.2 C 4.1,6.2 4,6.3 4,6.3 C 4,6.3 4,6.3 4,6.3 C 4,6.4 3.9,6.4 3.9,6.5 C 3.9,6.5 3.9,6.5 3.9,6.6 C 3.9,6.6 3.9,6.7 3.9,6.7 L 3.6,8.4 L 3.6,8.5 C 3.6,8.6 3.5,8.9 3.5,9.1 C 3.5,9.1 3.5,9.2 3.6,9.2 C 3.4,9.4 3.3,9.5 3.3,9.8 L 3.3,9.7 C 3.3,9.7 3.2,10.2 3.2,10.2 L 2.4,13.4 L 2.1,14.5 L 2,14.8 L 1.8,15.5 L 1.8,15.6 C 1.8,15.8 1.7,16 1.7,16.3 C 1.7,16.9 2.2,17.448693 2.8,17.448693 L 5.5,17.448693 L 7.3,17.448693 L 7.6,17.448693 C 8.4,17.448693 9.1,17.448693 9.8,17.248693 C 11.2,17.048693 12.6,16.5 13.7,15.8 C 14.8,15.1 15.6,14.4 16.2,13.6 C 16.2,13.7 17,16 17,16 L 17.2,16.6 C 17.4,17.1 17.5,17.6 17.7,18.1 L 17.7,18.1 L 17.8,18.5 L 17.8,18.6 C 17.9,19.2 18.4,19.5 18.9,19.5 C 19.3,19.5 19.7,19.1 19.9,18.8 L 19.8,19 L 19.9,18.9 C 20.2,18.5 20.5,18.2 20.8,17.8 L 21.2,17.3 L 22.7,15.6 L 23.5,14.7 L 24.4,13.7 C 24.4,13.7 24.7,13.4 24.8,13.3 C 24.7,13.6 24.6,14 24.6,14 C 24.6,14 24.3,15.1 24.3,15.1 C 24.3,15.1 24.2,15.4 24.2,15.4 C 24.1,15.7 24.1,16 24,16.3 C 24,16.3 24,16.4 24,16.4 C 24,16.7 24.1,16.831019 24.3,17.031019 C 24.5,17.231019 24.8,17.431019 25.1,17.431019 L 28.4,17.431019 L 29,17.431019 C 30.3,17.431019 31.5,17.5 32.9,17.2 C 33.6,17 34.3,16.8 35,16.5 C 35.7,16.2 36.4,15.8 36.9,15.4 C 38.1,14.6 39,13.5 39.3,12.2 C 39.5,11.5 39.5,10.7 39.3,10 L 39.8,9.9 z M 8.5,12.3 C 8.5,12.3 8.9,10.4 9,10.2 C 9.3,10.2 9.5,10.2 9.7,10.2 C 9.9,10.2 11.1,10.4 11.2,11 C 11.2,11 11.2,11.1 11.2,11.1 C 11.2,11.7 10.7,12.2 10.2,12.5 C 10,12.6 9.8,12.7 9.6,12.7 C 9.3,12.9 9,13 8.8,13 C 8.6,13 8.5,13 8.3,13.1 C 8.4,12.7 8.5,12.3 8.5,12.3 L 8.5,12.3 z M 31.5,13.1 C 31.4,13.1 31.2,13.1 31,13.1 C 31,13 31.1,12.9 31.1,12.7 L 31.2,12.2 L 31.3,11.8 L 31.5,11.1 L 31.6,10.9 C 31.7,10.7 31.7,10.4 31.8,10.2 C 32.3,10.2 32.7,10.3 33.2,10.4 C 33.6,10.5 33.8,10.6 33.9,10.8 C 34,10.9 34,11 34,11.2 C 34,11.2 34,11.2 34,11.2 C 34,11.7 33.6,12.2 33,12.6 C 32.8,12.7 32.6,12.8 32.3,12.9 C 32,13 31.7,13 31.5,13.1 z " />
        <path
           style="fill:#505050;fill-opacity:1"
           id="path624"
           d="M 19.2,19.4 C 19.2,19.4 19.2,19.4 19.2,19.4 C 19.2,19.4 19.2,19.4 19.2,19.4 z " />
        <path
           style="fill:#505050;fill-opacity:1"
           id="path625"
           d="M 19.2,19.4 C 19.2,19.4 19.2,19.4 19.2,19.4 C 19.2,19.4 19.2,19.4 19.2,19.4 C 19.2,19.4 19.2,19.4 19.2,19.4 z " />
      </g>
      <path
         id="path626"
         style="font-size:12px;fill:url(#linearGradient5241);fill-opacity:1;stroke:none"
         d="M -8.9603168,16.040611 C -6.3001338,16.040611 -3.5482238,16.040611 -0.8880448,16.040611 C 0.4879092,16.040611 1.7721372,16.040611 3.1480882,16.040611 C 3.2398196,16.040611 3.3315526,16.040611 3.3315526,16.040611 C 3.4232836,16.040611 3.4232836,16.131982 3.5150166,16.223352 C 3.6067426,16.497464 3.6984756,16.680205 3.7902066,16.954317 C 3.9736656,17.59391 4.2488576,18.142134 4.4323166,18.690357 C 4.6157756,19.329951 4.7992396,19.878173 4.9826986,20.517769 C 5.0744296,20.791879 5.1661626,21.065991 5.1661626,21.340103 C 5.1661626,21.340103 5.1661626,21.431473 5.2578886,21.431473 C 5.2578886,21.340103 5.2578886,21.340103 5.3496216,21.248733 C 5.4413486,21.157361 5.4413486,20.974621 5.5330806,20.88325 C 5.7165446,20.700508 5.9000036,20.426398 5.9917356,20.243657 C 6.1751946,19.969544 6.3586526,19.786803 6.5421166,19.512692 C 6.9090356,18.964469 7.3676906,18.507616 7.8263406,18.050763 C 8.2849966,17.59391 8.6519136,17.045687 9.1105686,16.588835 C 9.2022956,16.497464 9.2940236,16.406093 9.3857556,16.223352 C 9.4774866,16.131982 9.5692196,16.040611 9.6609506,16.040611 C 9.8444096,15.94924 10.119602,16.040611 10.30306,16.040611 C 10.945175,16.040611 11.587284,16.040611 12.137671,16.040611 C 12.779779,16.040611 13.513626,16.040611 14.155735,16.040611 C 14.797849,16.040611 15.53169,16.040611 16.173805,16.040611 C 16.540727,16.040611 16.815918,16.040611 17.182837,16.040611 C 17.458033,16.040611 17.824951,16.131982 18.100141,16.131982 C 19.200905,16.314723 20.30167,16.680205 21.127244,17.50254 C 21.494166,17.868022 21.861089,18.324875 21.952816,18.873098 C 22.044548,19.329951 22.044548,19.878173 21.952816,20.335027 C 21.677625,21.340103 20.943784,22.162437 20.118211,22.710661 C 19.567828,23.076144 19.147407,23.446613 18.558792,23.624366 C 17.961535,23.804729 17.342135,23.904836 16.769043,23.938216 C 15.464383,24.014207 14.155735,24.011579 12.963243,24.011579 C 11.954207,24.011579 10.945175,24.011579 9.9361426,24.011579 C 9.9361426,23.737468 10.027869,23.371987 10.119602,23.097875 C 10.211328,22.732394 10.30306,22.802032 10.394792,22.43655 C 10.578251,21.796956 10.669984,21.157361 10.853443,20.517769 C 10.945175,20.152286 11.036902,19.786803 11.128633,19.421321 C 11.128633,19.23858 11.220366,19.055839 11.220366,18.873098 C 11.220366,18.781728 11.312097,18.598987 11.312097,18.598987 C 11.312097,18.598987 11.403825,18.598987 11.495551,18.507616 C 11.587284,18.507616 11.679015,18.507616 11.770748,18.507616 C 12.045939,18.507616 12.229403,18.507616 12.504589,18.507616 C 13.146702,18.507616 13.880544,18.507616 14.522659,18.507616 C 14.522659,18.781728 14.43093,19.147209 14.339199,19.421321 C 14.247466,19.786803 14.155735,20.060915 14.064008,20.426398 C 13.880544,21.065991 13.697085,21.796956 13.605358,22.43655 C 14.247466,22.43655 14.797849,22.43655 15.439958,22.345178 C 15.715154,22.345178 16.082072,22.253809 16.357264,22.071067 C 16.632454,21.979697 16.907645,21.888326 17.182837,21.705585 C 17.916682,21.248733 18.558792,20.517769 18.558792,19.604063 C 18.558792,19.23858 18.46706,18.873098 18.191873,18.507616 C 17.916682,18.142134 17.458033,17.959392 16.999377,17.776652 C 15.898613,17.50254 14.706118,17.59391 13.513626,17.59391 C 13.146702,17.59391 12.871512,17.59391 12.504589,17.59391 C 12.32113,17.59391 12.229403,17.59391 12.045939,17.59391 C 11.862479,17.59391 11.679015,17.59391 11.495551,17.59391 C 11.403825,17.59391 11.220366,17.776652 11.220366,17.868022 C 11.128633,17.959392 10.945175,18.142134 10.853443,18.233504 C 10.669984,18.507616 10.394792,18.690357 10.211328,18.964469 C 9.2940236,19.969544 8.4684506,20.974621 7.5511496,21.979697 C 6.8173096,22.802032 6.1751946,23.532996 5.4413486,24.355329 C 4.9826986,24.812183 4.5240486,25.269037 4.1571256,25.817258 C 4.1571256,25.90863 4.0653936,25.90863 4.0653936,26.000002 C 4.0653936,26.000002 4.0653936,26.000002 4.0653936,26.000002 C 4.0653936,26.000002 3.9736656,26.000002 3.9736656,26.000002 C 3.9736656,25.90863 3.9736656,25.817258 3.8819346,25.817258 C 3.7902066,25.63452 3.7902066,25.543149 3.6984756,25.360405 C 3.4232836,24.720812 3.2398196,24.081218 3.0563612,23.532996 C 2.5977102,22.253809 2.1390602,20.974621 1.6804062,19.695433 C 1.4969472,19.329951 1.4052142,18.873098 1.2217552,18.507616 C 1.1300232,18.324875 1.1300232,18.142134 1.0382912,17.959392 C 1.0382912,17.868022 0.9465592,17.59391 0.7631062,17.59391 C 0.7631062,17.776652 0.8548322,17.959392 0.8548322,18.142134 C 0.9465592,18.416245 0.9465592,18.598987 0.9465592,18.873098 C 1.0382912,19.421321 0.9465592,20.060915 0.6713732,20.609138 C 0.2127192,21.614214 -0.7045868,22.43655 -1.6218868,22.984773 C -3.4176178,24.280296 -5.8414838,24.011579 -6.4835988,24.011579 C -7.1257068,24.011579 -7.7678228,24.011579 -8.5016628,24.011579 C -9.1437818,24.011579 -9.8776228,24.011579 -10.519733,24.011579 C -10.703192,24.011579 -10.886656,24.011579 -10.978387,24.011579 C -10.978387,23.828841 -10.886656,23.737468 -10.886656,23.554729 C -10.794923,23.280616 -10.703192,23.258884 -10.703192,22.984773 C -10.428005,21.705585 -10.061082,20.335027 -9.7858908,19.055839 C -9.7858908,18.873098 -9.6941588,18.781728 -9.6941588,18.598987 C -9.6941588,18.507616 -9.6941588,18.507616 -9.6024318,18.507616 C -9.6024318,18.507616 -9.5106998,18.507616 -9.5106998,18.507616 C -9.4189678,18.507616 -9.3272358,18.507616 -9.2355098,18.507616 C -8.8685858,18.507616 -8.5933948,18.507616 -8.2264768,18.507616 C -7.5843628,18.507616 -6.9422488,18.507616 -6.3001338,18.507616 C -6.5753258,19.878173 -6.9422488,21.157361 -7.2174398,22.52792 C -6.5753258,22.52792 -5.9332168,22.52792 -5.2911028,22.43655 C -5.0159108,22.345178 -4.6489888,22.253809 -4.3737968,22.162437 C -4.0986068,22.071067 -3.9151478,21.979697 -3.6399558,21.888326 C -2.8143838,21.431473 -2.0805418,20.517769 -2.2640008,19.512692 C -2.3557268,18.416245 -3.5482238,18.050763 -4.5572608,17.868022 C -5.1076438,17.868022 -5.7497528,17.868022 -6.3001338,17.868022 C -6.9422488,17.868022 -7.6760888,17.868022 -8.3182038,17.868022 C -8.5933948,17.868022 -8.8685858,17.868022 -9.0520508,17.868022 C -9.1437818,17.868022 -9.1437818,17.868022 -9.2355098,17.868022 C -9.2355098,17.868022 -9.4189678,17.868022 -9.4189678,17.868022 C -9.4189678,17.776652 -9.3272358,17.59391 -9.3272358,17.50254 C -9.2355098,17.045687 -9.0520508,16.497464 -8.9603168,16.040611"
         sodipodi:nodetypes="csscccccccsscsssccssssscsccsssscccccsccsscccccccsscsssscccccccccccccsccccccsssccccsccsscccscccssscccc" />
    </g>
  </g>
</svg>
