<?xml version="1.0" encoding="iso-8859-1"?>
<!-- Generator: Adobe Illustrator 15.1.0, SVG Export Plug-In . SVG Version: 6.00 Build 0)  -->
<!DOCTYPE svg PUBLIC "-//W3C//DTD SVG 1.0//EN" "http://www.w3.org/TR/2001/REC-SVG-20010904/DTD/svg10.dtd">
<svg version="1.0" id="Ebene_1" xmlns="http://www.w3.org/2000/svg" xmlns:xlink="http://www.w3.org/1999/xlink" x="0px" y="0px"
	 width="841.891px" height="595.279px" viewBox="0 0 841.891 595.279" style="enable-background:new 0 0 841.891 595.279;"
	 xml:space="preserve">
<g>
	<path d="M255.204,280.699c0-3.008,0.425-5.688,1.277-8.044c0.852-2.354,2.003-4.333,3.457-5.938
		c1.453-1.603,3.145-2.829,5.073-3.684c1.928-0.851,3.971-1.277,6.126-1.277c2.153,0,4.195,0.428,6.125,1.277
		c1.929,0.854,3.619,2.081,5.073,3.684c1.453,1.604,2.604,3.583,3.458,5.938c0.852,2.355,1.277,5.036,1.277,8.044
		c0,2.956-0.427,5.599-1.277,7.929c-0.854,2.331-2.005,4.298-3.458,5.9c-1.454,1.604-3.146,2.832-5.073,3.686
		c-1.93,0.851-3.973,1.276-6.125,1.276c-2.155,0-4.198-0.427-6.126-1.276c-1.93-0.854-3.62-2.081-5.073-3.686
		c-1.454-1.604-2.605-3.569-3.457-5.9C255.628,286.298,255.204,283.656,255.204,280.699z M257.608,280.699
		c0,2.506,0.351,4.772,1.053,6.802c0.7,2.029,1.652,3.783,2.855,5.262s2.631,2.619,4.283,3.42c1.654,0.802,3.433,1.201,5.338,1.201
		c1.903,0,3.683-0.398,5.336-1.201c1.653-0.801,3.082-1.94,4.283-3.42c1.203-1.479,2.154-3.231,2.855-5.262
		c0.701-2.028,1.053-4.296,1.053-6.802c0-2.455-0.352-4.724-1.053-6.804c-0.702-2.079-1.653-3.857-2.855-5.336
		c-1.201-1.479-2.63-2.631-4.283-3.458c-1.653-0.828-3.434-1.24-5.336-1.24c-1.905,0-3.684,0.412-5.338,1.24
		c-1.652,0.827-3.08,1.979-4.283,3.458s-2.155,3.257-2.855,5.336C257.958,275.976,257.608,278.245,257.608,280.699z"/>
	<path d="M296.843,301.745v13.527h-2.255V262.66h1.954l0.301,4.66h0.15c1.804-1.453,3.771-2.742,5.9-3.87
		c2.129-1.129,4.32-1.691,6.576-1.691c4.859,0,8.479,1.667,10.86,4.998c2.379,3.333,3.569,7.779,3.569,13.343
		c0,3.059-0.426,5.787-1.276,8.192c-0.854,2.404-2.007,4.435-3.458,6.087c-1.454,1.654-3.146,2.92-5.073,3.797
		c-1.93,0.877-3.973,1.314-6.126,1.314c-1.754,0-3.559-0.389-5.41-1.166c-1.855-0.776-3.759-1.892-5.713-3.345V301.745
		L296.843,301.745z M296.843,292.424c2.204,1.806,4.271,3.082,6.201,3.834c1.93,0.75,3.62,1.127,5.074,1.127
		c1.953,0,3.745-0.426,5.374-1.277c1.627-0.853,3.044-2.041,4.246-3.569c1.203-1.528,2.13-3.355,2.781-5.486
		c0.649-2.132,0.978-4.447,0.978-6.953c0-2.305-0.213-4.446-0.64-6.428c-0.427-1.979-1.128-3.692-2.104-5.147
		c-0.978-1.452-2.243-2.592-3.796-3.419c-1.555-0.828-3.433-1.24-5.638-1.24c-1.904,0-3.872,0.539-5.899,1.615
		c-2.029,1.078-4.224,2.645-6.577,4.698V292.424z"/>
	<path d="M329.764,280.699c0-2.906,0.438-5.537,1.313-7.893c0.877-2.354,2.029-4.347,3.458-5.977
		c1.428-1.627,3.067-2.88,4.923-3.757c1.854-0.877,3.782-1.315,5.788-1.315c4.158,0,7.451,1.417,9.884,4.247
		c2.431,2.832,3.646,6.929,3.646,12.289c0,0.4,0,0.79,0,1.165s-0.051,0.789-0.149,1.24h-26.458c0,2.404,0.338,4.621,1.016,6.65
		c0.676,2.029,1.628,3.796,2.855,5.299c1.227,1.503,2.706,2.668,4.436,3.494c1.729,0.828,3.67,1.239,5.824,1.239
		c2.055,0,3.883-0.3,5.487-0.9c1.604-0.602,3.082-1.401,4.436-2.404l1.052,1.954c-1.354,0.854-2.869,1.642-4.547,2.367
		c-1.681,0.725-3.871,1.09-6.577,1.09c-2.255,0-4.373-0.427-6.353-1.276c-1.979-0.854-3.721-2.093-5.224-3.722
		c-1.504-1.63-2.682-3.596-3.532-5.901C330.189,286.287,329.764,283.656,329.764,280.699z M356.521,278.745
		c0-5.012-1.027-8.744-3.081-11.2c-2.055-2.455-4.786-3.683-8.192-3.683c-1.604,0-3.157,0.352-4.661,1.053
		c-1.504,0.7-2.845,1.69-4.021,2.968c-1.177,1.278-2.153,2.832-2.932,4.66c-0.776,1.829-1.266,3.896-1.466,6.201L356.521,278.745
		L356.521,278.745z"/>
	<path d="M366.594,262.66h1.953l0.302,5.713h0.149c1.903-1.903,3.833-3.482,5.788-4.735c1.953-1.251,4.184-1.878,6.688-1.878
		c3.708,0,6.438,1.102,8.191,3.307c1.753,2.206,2.631,5.663,2.631,10.372v23.15h-2.255V275.74c0-4.01-0.676-6.99-2.029-8.944
		c-1.353-1.954-3.583-2.931-6.688-2.931c-2.256,0-4.322,0.6-6.201,1.803s-3.973,3.006-6.275,5.411v27.511h-2.256v-35.93H366.594z"/>
</g>
<g>
	<path d="M468.022,260.041h-13.456v-9.32h38.036v9.32h-13.454v39.689h-11.126V260.041z"/>
	<path d="M510.192,260.041h-13.454v-9.32h38.036v9.32h-13.456v39.689h-11.126V260.041z"/>
	<path d="M539.434,250.719h11.051v49.011h-11.051V250.719z"/>
	<path d="M556.724,275.526c0-4.06,0.626-7.68,1.879-10.862c1.251-3.183,2.943-5.875,5.074-8.08c2.129-2.206,4.607-3.884,7.44-5.038
		c2.83-1.151,5.824-1.729,8.981-1.729c3.058,0,5.827,0.639,8.308,1.916c2.479,1.279,4.546,2.771,6.202,4.474l-6.091,6.841
		c-1.253-1.151-2.52-2.054-3.795-2.707c-1.277-0.649-2.771-0.978-4.475-0.978s-3.295,0.364-4.771,1.092
		c-1.479,0.728-2.771,1.768-3.871,3.119c-1.104,1.354-1.968,3.007-2.593,4.961c-0.629,1.956-0.94,4.159-0.94,6.615
		c0,5.062,1.076,8.982,3.231,11.764c2.154,2.781,5.037,4.173,8.646,4.173c2.006,0,3.761-0.4,5.263-1.202
		c1.505-0.802,2.855-1.854,4.061-3.157l6.089,6.689c-2.056,2.405-4.396,4.21-7.027,5.412c-2.633,1.201-5.478,1.806-8.531,1.806
		c-3.158,0-6.143-0.539-8.944-1.616c-2.808-1.076-5.263-2.668-7.367-4.772c-2.104-2.104-3.759-4.724-4.961-7.855
		C557.324,283.257,556.724,279.635,556.724,275.526z"/>
</g>
<g>
	<polygon style="fill:#288CEA;" points="431.976,289.567 429.225,290.587 424.188,305.565 431.976,308.452 457.439,299.011 	"/>
</g>
<g>
	<polygon style="fill:#288CEA;" points="441.568,253.872 435.294,272.533 441.682,290.682 456.452,296.161 	"/>
</g>
<polygon style="fill:#288CEA;" points="418.104,316.356 440.196,250.643 422.63,250.643 402.478,310.535 "/>
</svg>
