<?xml version="1.0" encoding="utf-8"?>
<!-- Generator: Adobe Illustrator 16.0.0, SVG Export Plug-In . SVG Version: 6.00 Build 0)  -->
<!DOCTYPE svg PUBLIC "-//W3C//DTD SVG 1.1//EN" "http://www.w3.org/Graphics/SVG/1.1/DTD/svg11.dtd">
<svg version="1.1" id="Ebene_1" xmlns="http://www.w3.org/2000/svg" xmlns:xlink="http://www.w3.org/1999/xlink" x="0px" y="0px"
	 width="841.89px" height="595.276px" viewBox="0 0 841.89 595.276" enable-background="new 0 0 841.89 595.276"
	 xml:space="preserve">
<g>
	<defs>
		<rect id="SVGID_1_" y="0" width="841.89" height="595.276"/>
	</defs>
	<clipPath id="SVGID_2_">
		<use xlink:href="#SVGID_1_"  overflow="visible"/>
	</clipPath>
	<path clip-path="url(#SVGID_2_)" fill="#4085C6" d="M720.263,465.805l-443.85-80.068l220.416-29.955L720.263,465.805z
		 M741.479,472.021L548.222,77.323c-2.078-4.246-6.265-4.842-9.444-1.344l-153.239,168.79h15.577L539.379,92.464l-25.95,152.305
		h3.97l25.808-151.463L724.47,463.514l-225.215-110.9l1.021-6.065h-3.97l-0.922,5.48l-219.038,29.767l29.836-35.247h-15.018
		c-11.376,13.392-30.692,35.558-35.681,41.67c-3.418,4.188,0.469,6.022,2.454,6.367c30.378,5.285,477.338,85.647,477.338,85.647
		C741.014,481.268,744.043,477.258,741.479,472.021"/>
	<path clip-path="url(#SVGID_2_)" fill="#706F6F" d="M603.759,253.239c-4.568-1.436-10.573-2.35-17.36-2.35
		c-35.502,0-53.384,29.76-53.384,58.345c0,12.922,5.09,31.587,34.196,31.587c6.396,0,14.228-0.914,20.231-2.219l1.958-22.45
		c-4.438,1.565-9.528,2.479-15.01,2.479c-10.442,0-14.228-5.221-14.228-14.228c0-10.703,4.829-31.456,24.669-31.456
		c4.178,0,8.745,0.783,12.4,2.088L603.759,253.239z M533.406,251.542h-23.886l-16.707,88.104h23.886L533.406,251.542z
		 M503.127,251.542h-61.085l-3.916,20.884h18.665L444,339.646h23.756l12.792-67.22h18.665L503.127,251.542z M438.911,251.542
		h-61.086l-3.915,20.884h18.665l-12.792,67.22h23.756l12.791-67.22h18.665L438.911,251.542z M340.767,306.232h-15.01l4.699-9.659
		c2.872-5.874,5.482-11.617,7.44-16.707h0.261c0.13,5.482,0.653,10.181,1.305,15.271L340.767,306.232z M370.266,339.646
		l-12.791-88.104h-27.28l-44.9,88.104h24.147l7.048-14.358h26.627l1.827,14.358H370.266z"/>
</g>
<g>
	<path fill="#656667" d="M117.808,314.205c-13.802,0-18.316-6.164-18.316-15.713c0-19.271,13.802-29.514,27.344-29.514
		c13.629,0,18.143,6.858,18.143,16.06C144.978,302.659,132.044,314.205,117.808,314.205z M124.405,282.694
		c-5.99,0-8.681,8.16-8.681,13.455c0,2.257,0.868,4.253,3.906,4.253c6.511,0,9.028-7.899,9.028-13.281
		C128.658,284.169,127.617,282.694,124.405,282.694z"/>
	<path fill="#656667" d="M167.551,314.205c-0.607,0-1.215,0-2.604-0.174l-3.646,19.358h-15.539l9.81-51.217v-0.26
		c-1.997-0.347-4.861-0.695-7.292-0.868l1.91-10.33c7.205-0.781,15.018-1.042,22.31-0.781c-0.607,2.778-1.389,5.382-2.604,8.247
		h0.173c4.08-6.077,9.202-9.288,15.191-9.288c7.118,0,10.851,4.601,10.851,14.063C196.11,299.795,186.562,314.205,167.551,314.205z
		 M178.402,282.607c-3.299,0-9.289,9.722-10.677,16.927l-0.347,1.823c0.868,0.261,1.736,0.434,2.951,0.434
		c5.903,0,9.723-9.201,9.723-15.799C180.051,283.735,179.704,282.607,178.402,282.607z"/>
	<path fill="#656667" d="M213.996,297.538c0,0.521,0,0.869,0,1.042c0,2.344,1.128,3.386,5.816,3.386
		c4.167,0,8.768-0.955,13.108-2.604v11.893c-5.642,1.91-12.066,2.952-17.882,2.952c-12.587,0-16.406-6.337-16.406-15.539
		c0-19.878,13.281-29.688,25.348-29.688c13.021,0,15.886,6.337,15.886,11.632C239.865,292.416,228.667,297.277,213.996,297.538z
		 M222.33,280.523c-3.819,0-5.903,3.906-6.944,7.292c5.295-0.087,9.462-1.302,9.462-5.122
		C224.847,281.392,224.066,280.523,222.33,280.523z"/>
	<path fill="#656667" d="M283.877,313.163h-15.539l5.035-26.303c0.608-3.212,0.261-4.253-0.868-4.253
		c-2.691,0-8.941,8.681-10.678,17.708l-2.43,12.848h-15.539l5.99-31.077v-0.173c-1.997-0.347-4.861-0.695-7.292-0.868l1.91-10.33
		c7.205-0.781,15.018-1.042,22.31-0.781c-0.434,2.17-1.128,5.035-2.604,8.247h0.173c3.819-5.556,8.594-9.288,15.625-9.288
		c8.854,0,11.111,6.337,9.635,13.976L283.877,313.163z"/>
</g>
</svg>
