<?xml version="1.0" encoding="UTF-8" standalone="no"?>
<!-- Created with Inkscape (http://www.inkscape.org/) -->
<svg
   xmlns:dc="http://purl.org/dc/elements/1.1/"
   xmlns:cc="http://web.resource.org/cc/"
   xmlns:rdf="http://www.w3.org/1999/02/22-rdf-syntax-ns#"
   xmlns:svg="http://www.w3.org/2000/svg"
   xmlns="http://www.w3.org/2000/svg"
   xmlns:xlink="http://www.w3.org/1999/xlink"
   xmlns:sodipodi="http://inkscape.sourceforge.net/DTD/sodipodi-0.dtd"
   xmlns:inkscape="http://www.inkscape.org/namespaces/inkscape"
   width="22"
   height="22"
   id="svg2"
   sodipodi:version="0.32"
   inkscape:version="0.43+devel"
   version="1.0"
   sodipodi:docbase="/home/silvestre/Desktop/Neu/22x22/places"
   sodipodi:docname="network-server.svg">
  <defs
     id="defs4">
    <linearGradient
       inkscape:collect="always"
       id="linearGradient5021">
      <stop
         style="stop-color:#a8ffbe;stop-opacity:1"
         offset="0"
         id="stop5023" />
      <stop
         style="stop-color:#00bf2d;stop-opacity:1"
         offset="1"
         id="stop5025" />
    </linearGradient>
    <radialGradient
       r="52.75"
       fy="115"
       fx="61.75"
       cy="115"
       cx="61.75"
       gradientTransform="matrix(1,9.727302e-18,-5.522105e-18,0.199052,1.287939e-13,92.109)"
       gradientUnits="userSpaceOnUse"
       id="radialGradient3642"
       xlink:href="#linearGradient3632"
       inkscape:collect="always" />
    <radialGradient
       gradientUnits="userSpaceOnUse"
       gradientTransform="matrix(1,5.305814e-18,7.614141e-19,0.199052,-2.787749e-14,92.109)"
       r="52.75"
       fy="115"
       fx="61.75"
       cy="115"
       cx="61.75"
       id="radialGradient3638"
       xlink:href="#linearGradient3632"
       inkscape:collect="always" />
    <radialGradient
       inkscape:collect="always"
       xlink:href="#linearGradient7555"
       id="radialGradient7561"
       cx="24.25"
       cy="99.249969"
       fx="24.25"
       fy="99.249969"
       r="40.25"
       gradientTransform="matrix(1,0,0,0.217391,0,95.67391)"
       gradientUnits="userSpaceOnUse" />
    <linearGradient
       inkscape:collect="always"
       xlink:href="#linearGradient7529"
       id="linearGradient7553"
       gradientUnits="userSpaceOnUse"
       x1="39.8125"
       y1="71.043076"
       x2="39.8125"
       y2="75.246735" />
    <linearGradient
       inkscape:collect="always"
       xlink:href="#linearGradient5983"
       id="linearGradient7551"
       gradientUnits="userSpaceOnUse"
       x1="6.34375"
       y1="72.25"
       x2="45.65625"
       y2="72.25" />
    <linearGradient
       inkscape:collect="always"
       xlink:href="#linearGradient7529"
       id="linearGradient7535"
       x1="39.8125"
       y1="71.043076"
       x2="39.8125"
       y2="75.246735"
       gradientUnits="userSpaceOnUse" />
    <linearGradient
       inkscape:collect="always"
       xlink:href="#linearGradient5983"
       id="linearGradient5989"
       x1="6.34375"
       y1="72.25"
       x2="45.65625"
       y2="72.25"
       gradientUnits="userSpaceOnUse" />
    <linearGradient
       id="WhiteTransparent">
      <stop
         id="stopWhiteFull"
         offset="0"
         style="stop-color:#ffffff;stop-opacity:1;" />
      <stop
         id="stopWhiteTransparent"
         offset="1"
         style="stop-color:#ffffff;stop-opacity:0;" />
    </linearGradient>
    <linearGradient
       id="TransparentWhite">
      <stop
         id="stopwhitefull"
         offset="0"
         style="stop-color:#ffffff;stop-opacity:0;" />
      <stop
         id="stopwhitetransparent"
         offset="1"
         style="stop-color:#ffffff;stop-opacity:1;" />
    </linearGradient>
    <linearGradient
       id="linearGradient3057">
      <stop
         id="stop3058"
         offset="0.0000000"
         style="stop-color:#000000;stop-opacity:0.19191919;" />
      <stop
         id="stop3059"
         offset="0.34210527"
         style="stop-color:#000000;stop-opacity:0.14141414;" />
      <stop
         id="stop3060"
         offset="1.0000000"
         style="stop-color:#ffffff;stop-opacity:0.0000000;" />
    </linearGradient>
    <linearGradient
       id="linearGradient2363">
      <stop
         id="stop2364"
         offset="0.0000000"
         style="stop-color:#ffffff;stop-opacity:0.0000000;" />
      <stop
         id="stop2365"
         offset="1.0000000"
         style="stop-color:#ffffff;stop-opacity:1.0000000;" />
    </linearGradient>
    <linearGradient
       id="linearGradient2372">
      <stop
         id="stop2373"
         offset="0.0000000"
         style="stop-color:#000000;stop-opacity:0.47058824;" />
      <stop
         id="stop2374"
         offset="1.0000000"
         style="stop-color:#000000;stop-opacity:0.0000000;" />
    </linearGradient>
    <linearGradient
       id="linearGradient2347">
      <stop
         id="stop2348"
         offset="0.0000000"
         style="stop-color:#ffffff;stop-opacity:0.0000000;" />
      <stop
         id="stop2349"
         offset="1.0000000"
         style="stop-color:#ffffff;stop-opacity:0.47058824;" />
    </linearGradient>
    <linearGradient
       id="linearGradient2341">
      <stop
         id="stop2342"
         offset="0.0000000"
         style="stop-color:#ffffff;stop-opacity:0.15686275;" />
      <stop
         id="stop2343"
         offset="1.0000000"
         style="stop-color:#ffffff;stop-opacity:1.0000000;" />
    </linearGradient>
    <linearGradient
       inkscape:collect="always"
       id="linearGradient5983">
      <stop
         style="stop-color:#ffffff;stop-opacity:1;"
         offset="0"
         id="stop5985" />
      <stop
         style="stop-color:#ffffff;stop-opacity:0;"
         offset="1"
         id="stop5987" />
    </linearGradient>
    <linearGradient
       inkscape:collect="always"
       id="linearGradient7529">
      <stop
         style="stop-color:#ffffff;stop-opacity:1;"
         offset="0"
         id="stop7531" />
      <stop
         style="stop-color:#ffffff;stop-opacity:0;"
         offset="1"
         id="stop7533" />
    </linearGradient>
    <linearGradient
       id="linearGradient7555">
      <stop
         style="stop-color:#2e2e2e;stop-opacity:0.46875000;"
         offset="0.0000000"
         id="stop7557" />
      <stop
         style="stop-color:#2e2e2e;stop-opacity:0;"
         offset="1"
         id="stop7559" />
    </linearGradient>
    <linearGradient
       id="linearGradient2843"
       inkscape:collect="always">
      <stop
         id="stop2845"
         offset="0"
         style="stop-color:#000000;stop-opacity:0.41600001" />
      <stop
         id="stop2847"
         offset="1"
         style="stop-color:#000000;stop-opacity:0;" />
    </linearGradient>
    <linearGradient
       id="linearGradient2859"
       inkscape:collect="always">
      <stop
         id="stop2861"
         offset="0"
         style="stop-color:#000000;stop-opacity:0.50400001" />
      <stop
         id="stop2863"
         offset="1"
         style="stop-color:#000000;stop-opacity:0;" />
    </linearGradient>
    <linearGradient
       id="linearGradient3614"
       inkscape:collect="always">
      <stop
         id="stop3616"
         offset="0"
         style="stop-color:none" />
      <stop
         id="stop3618"
         offset="1"
         style="stop-color:#000000;stop-opacity:0;" />
    </linearGradient>
    <linearGradient
       id="linearGradient3632">
      <stop
         id="stop3634"
         offset="0.0000000"
         style="stop-color:#000000;stop-opacity:0.20833331;" />
      <stop
         id="stop3636"
         offset="1"
         style="stop-color:#000000;stop-opacity:0;" />
    </linearGradient>
    <linearGradient
       id="linearGradient4856"
       inkscape:collect="always">
      <stop
         id="stop4858"
         offset="0"
         style="stop-color:white;stop-opacity:1;" />
      <stop
         id="stop4860"
         offset="1"
         style="stop-color:white;stop-opacity:0;" />
    </linearGradient>
    <linearGradient
       id="linearGradient4866"
       inkscape:collect="always">
      <stop
         id="stop4868"
         offset="0"
         style="stop-color:white;stop-opacity:1;" />
      <stop
         id="stop4870"
         offset="1"
         style="stop-color:white;stop-opacity:0.13733906" />
    </linearGradient>
    <linearGradient
       id="linearGradient4876"
       inkscape:collect="always">
      <stop
         id="stop4878"
         offset="0"
         style="stop-color:white;stop-opacity:1;" />
      <stop
         id="stop4880"
         offset="1"
         style="stop-color:white;stop-opacity:0.18431373" />
    </linearGradient>
    <linearGradient
       inkscape:collect="always"
       xlink:href="#linearGradient4876"
       id="linearGradient4102"
       gradientUnits="userSpaceOnUse"
       x1="70"
       y1="15.494845"
       x2="70"
       y2="117.00493"
       gradientTransform="matrix(0.171974,0,0,0.171695,0.289831,-0.330789)" />
    <linearGradient
       inkscape:collect="always"
       xlink:href="#linearGradient4866"
       id="linearGradient4105"
       gradientUnits="userSpaceOnUse"
       x1="17"
       y1="46.5"
       x2="83.661568"
       y2="96.052254"
       gradientTransform="matrix(0.181818,0,0,0.178217,-4.546e-2,-0.351484)" />
    <radialGradient
       inkscape:collect="always"
       xlink:href="#linearGradient4856"
       id="radialGradient4108"
       gradientUnits="userSpaceOnUse"
       gradientTransform="matrix(0.171974,0,0,0.194406,9.841711e-2,-1.085486)"
       cx="25.749996"
       cy="50.161213"
       fx="25.749996"
       fy="50.161213"
       r="45.483643" />
    <linearGradient
       inkscape:collect="always"
       xlink:href="#linearGradient2843"
       id="linearGradient4118"
       gradientUnits="userSpaceOnUse"
       gradientTransform="matrix(0.158028,0,0,0.203355,-0.164872,0.251072)"
       x1="103.24915"
       y1="61.550186"
       x2="103.24915"
       y2="36.552097" />
    <linearGradient
       inkscape:collect="always"
       xlink:href="#linearGradient2859"
       id="linearGradient4121"
       gradientUnits="userSpaceOnUse"
       gradientTransform="matrix(0.158564,0,0,0.194595,-0.207813,-0.439565)"
       x1="98.625023"
       y1="46.334446"
       x2="98.625023"
       y2="22.25" />
    <linearGradient
       inkscape:collect="always"
       xlink:href="#linearGradient2843"
       id="linearGradient4124"
       gradientUnits="userSpaceOnUse"
       gradientTransform="matrix(0.215284,0,0,0.182693,-5.653297,-1.014419)"
       x1="132.25"
       y1="68.625"
       x2="76"
       y2="68.625" />
    <linearGradient
       inkscape:collect="always"
       xlink:href="#linearGradient3614"
       id="linearGradient4128"
       gradientUnits="userSpaceOnUse"
       x1="103.09375"
       y1="128.5"
       x2="112.5"
       y2="104.75"
       gradientTransform="matrix(0.171974,0,0,0.171695,9.841711e-2,0.424794)" />
    <radialGradient
       inkscape:collect="always"
       xlink:href="#linearGradient5021"
       id="radialGradient5027"
       cx="109"
       cy="65.75"
       fx="109"
       fy="64.321823"
       r="3"
       gradientTransform="matrix(1,0,0,1.416667,-1.886512e-15,-27.39583)"
       gradientUnits="userSpaceOnUse" />
  </defs>
  <sodipodi:namedview
     id="base"
     pagecolor="#ffffff"
     bordercolor="#666666"
     borderopacity="1.0"
     inkscape:pageopacity="0.0"
     inkscape:pageshadow="2"
     inkscape:zoom="1"
     inkscape:cx="11"
     inkscape:cy="11"
     inkscape:document-units="px"
     inkscape:current-layer="layer1"
     width="22px"
     height="22px"
     inkscape:showpageshadow="false"
     showgrid="false"
     showborder="false"
     inkscape:window-width="843"
     inkscape:window-height="556"
     inkscape:window-x="140"
     inkscape:window-y="130" />
  <metadata
     id="metadata7">
    <rdf:RDF>
      <cc:Work
         rdf:about="">
        <dc:format>image/svg+xml</dc:format>
        <dc:type
           rdf:resource="http://purl.org/dc/dcmitype/StillImage" />
      </cc:Work>
    </rdf:RDF>
  </metadata>
  <g
     inkscape:label="Capa 1"
     inkscape:groupmode="layer"
     id="layer1">
    <path
       sodipodi:type="arc"
       style="color:black;fill:url(#radialGradient3638);fill-opacity:1;fill-rule:evenodd;stroke:none;stroke-width:1;stroke-linecap:round;stroke-linejoin:round;marker:none;marker-start:none;marker-mid:none;marker-end:none;stroke-miterlimit:4;stroke-dasharray:none;stroke-dashoffset:0;stroke-opacity:0.57599996;visibility:visible;display:inline;overflow:visible"
       id="path3622"
       sodipodi:cx="61.75"
       sodipodi:cy="115"
       sodipodi:rx="52.75"
       sodipodi:ry="10.5"
       d="M 114.5 115 A 52.75 10.5 0 1 1  9,115 A 52.75 10.5 0 1 1  114.5 115 z"
       transform="matrix(0.171866,6.074636e-3,-6.084505e-3,0.171588,0.546823,6.205417e-2)" />
    <path
       sodipodi:type="arc"
       style="color:black;fill:url(#radialGradient3642);fill-opacity:1;fill-rule:evenodd;stroke:none;stroke-width:1;stroke-linecap:round;stroke-linejoin:round;marker:none;marker-start:none;marker-mid:none;marker-end:none;stroke-miterlimit:4;stroke-dasharray:none;stroke-dashoffset:0;stroke-opacity:0.57599996;visibility:visible;display:inline;overflow:visible"
       id="path3640"
       sodipodi:cx="61.75"
       sodipodi:cy="115"
       sodipodi:rx="52.75"
       sodipodi:ry="10.5"
       d="M 114.5 115 A 52.75 10.5 0 1 1  9,115 A 52.75 10.5 0 1 1  114.5 115 z"
       transform="matrix(0.12704,4.49025e-3,-4.497545e-3,0.126834,-0.43612,4.314104)" />
    <path
       style="fill:url(#linearGradient4128);fill-opacity:1;fill-rule:evenodd;stroke:none;stroke-width:0.25pt;stroke-linecap:butt;stroke-linejoin:miter;stroke-opacity:1"
       d="M 18.069714,20.513135 L 21.810151,19.354192 L 17.854746,16.993383 L 18.069714,20.513135 z "
       id="path2886" />
    <path
       style="color:black;fill:#dbdbdb;fill-opacity:1;fill-rule:evenodd;stroke:#9e9e9e;stroke-width:1.0000006;stroke-linecap:round;stroke-linejoin:round;marker:none;marker-start:none;marker-mid:none;marker-end:none;stroke-miterlimit:4;stroke-dasharray:none;stroke-dashoffset:0;stroke-opacity:1;visibility:visible;display:inline;overflow:visible"
       d="M 13.029771,1.4999999 C 13.008949,1.4999999 13.049888,1.5204497 13.029771,1.5233644 L 13.029771,1.5058414 L 1.5000014,3.9299058 L 1.5000014,18.883171 L 13.029771,21.494152 L 13.029771,21.470787 C 13.054236,21.475149 13.004219,21.499993 13.029771,21.499993 L 19.01787,20.752329 C 19.286587,20.752329 19.500015,20.502236 19.500015,20.191583 L 19.500015,2.8084114 C 19.500015,2.4977566 19.286587,2.2476636 19.01787,2.2476636 L 13.029771,1.4999999 z "
       id="rect1383"
       sodipodi:nodetypes="ccccccccccccc" />
    <path
       style="fill:url(#linearGradient4124);fill-opacity:1;fill-rule:evenodd;stroke:none;stroke-width:0.25pt;stroke-linecap:butt;stroke-linejoin:miter;stroke-opacity:1"
       d="M 12.006728,2 L 12,21 L 19,20.247779 L 18.996734,2.7536058 L 12.006728,2 z "
       id="path2841"
       sodipodi:nodetypes="ccccc" />
    <path
       style="fill:url(#linearGradient4121);fill-opacity:1;fill-rule:evenodd;stroke:#797979;stroke-width:0.38180578;stroke-linecap:butt;stroke-linejoin:miter;stroke-miterlimit:4;stroke-dasharray:none;stroke-opacity:1"
       d="M 13.190898,3.9874713 L 13.190898,6.5658518 L 17.670351,6.8090954 L 17.642318,4.4764021 L 13.190898,3.9874713 z "
       id="path2851"
       sodipodi:nodetypes="ccccc" />
    <path
       style="fill:url(#linearGradient4118);fill-opacity:1;fill-rule:evenodd;stroke:#797979;stroke-width:0.38180599;stroke-linecap:butt;stroke-linejoin:miter;stroke-miterlimit:4;stroke-dasharray:none;stroke-opacity:1"
       d="M 13.190903,8.1909019 L 17.650612,8.3942568 L 17.670366,10.809097 L 13.190903,10.809097 L 13.190903,8.1909019 z "
       id="path2853"
       sodipodi:nodetypes="ccccc" />
    <path
       sodipodi:type="arc"
       style="color:black;fill:url(#radialGradient5027);fill-opacity:1;fill-rule:evenodd;stroke:#399712;stroke-width:2.22193885;stroke-linecap:round;stroke-linejoin:round;marker:none;marker-start:none;marker-mid:none;marker-end:none;stroke-miterlimit:4;stroke-dasharray:none;stroke-dashoffset:0;stroke-opacity:1;visibility:visible;display:inline;overflow:visible"
       id="path2872"
       sodipodi:cx="109"
       sodipodi:cy="65.75"
       sodipodi:rx="2.5"
       sodipodi:ry="3.75"
       d="M 111.5 65.75 A 2.5 3.75 0 1 1  106.5,65.75 A 2.5 3.75 0 1 1  111.5 65.75 z"
       transform="matrix(0.171974,0,0,0.171695,-2.124328,1.423579)" />
    <g
       id="g5005"
       transform="matrix(0.450423,0,0,0.449692,3.347335e-2,0.545814)">
      <path
         id="path2882"
         d="M 29.005156,38.5 L 38.359403,37.812427"
         style="fill:none;fill-opacity:0.50400002;fill-rule:evenodd;stroke:white;stroke-width:2.22193885;stroke-linecap:butt;stroke-linejoin:miter;stroke-miterlimit:4;stroke-dasharray:none;stroke-opacity:0.57599996" />
      <path
         id="path2884"
         d="M 28.981293,37.5 L 38.33554,36.812426"
         style="fill:none;fill-opacity:0.50400002;fill-rule:evenodd;stroke:black;stroke-width:2.22193885;stroke-linecap:butt;stroke-linejoin:miter;stroke-miterlimit:4;stroke-dasharray:none;stroke-opacity:0.41999996" />
    </g>
    <path
       style="color:black;fill:url(#radialGradient4108);fill-opacity:1;fill-rule:evenodd;stroke:none;stroke-width:3;stroke-linecap:round;stroke-linejoin:round;marker:none;marker-start:none;marker-mid:none;marker-end:none;stroke-miterlimit:4;stroke-dasharray:none;stroke-dashoffset:0;stroke-opacity:1;visibility:visible;display:inline;overflow:visible"
       d="M 12.314558,3.0002262 C 12.296461,3.0002262 12.332041,3.0183082 12.314558,3.0208852 L 12.314558,3.0053912 L 2.2939,5.1488222 L 2.2939,18.370955 L 12.314558,20.679665 L 12.314558,20.659005 C 12.33582,20.662861 12.29235,20.68483 12.314558,20.68483 L 12.314558,3.0002262 z "
       id="path4854"
       sodipodi:nodetypes="ccccccccc" />
    <path
       style="color:black;fill:none;fill-opacity:1;fill-rule:evenodd;stroke:url(#linearGradient4105);stroke-width:1;stroke-linecap:round;stroke-linejoin:round;marker:none;marker-start:none;marker-mid:none;marker-end:none;stroke-miterlimit:4;stroke-dasharray:none;stroke-dashoffset:0;stroke-opacity:1;visibility:visible;display:inline;overflow:visible"
       d="M 12.748682,2.5000007 C 12.730174,2.5000007 12.766564,2.518405 12.748682,2.5210284 L 12.748682,2.5052576 L 2.500001,4.6869165 L 2.500001,18.144856 L 12.748682,20.494739 L 12.748682,20.473713 C 12.770429,20.477635 12.725969,20.499998 12.748682,20.499998 L 18.071436,19.8271 C 18.310295,19.8271 18.500008,19.602017 18.500008,19.322426 L 18.500008,3.6775705 C 18.500008,3.3979822 18.310295,3.1728979 18.071436,3.1728979 L 12.748682,2.5000007 z "
       id="path4864"
       sodipodi:nodetypes="ccccccccccccc" />
    <path
       style="fill:none;fill-opacity:1;fill-rule:evenodd;stroke:url(#linearGradient4102);stroke-width:0.99999994;stroke-linecap:round;stroke-linejoin:round;stroke-miterlimit:4;stroke-dasharray:none;stroke-opacity:1"
       d="M 12.5,2.5880322 L 12.5,19.5"
       id="path4874" />
    <path
       id="path5768"
       d="M 3.5808933,14.369666 C 3.343569,14.348234 3.1509578,14.579574 3.150958,14.884752 C 3.150958,15.18993 3.343569,15.453523 3.5808933,15.474954 C 3.8182177,15.496385 4.0108285,15.270412 4.0108287,14.965234 C 4.0108287,14.660056 3.8182178,14.391098 3.5808933,14.369666 z M 5.1609057,14.47161 C 4.9044421,14.44845 4.698725,14.695382 4.698725,15.024254 C 4.698725,15.353126 4.9044421,15.639585 5.1609057,15.662745 C 5.4173692,15.685906 5.6284608,15.438973 5.6284603,15.110102 C 5.6284603,14.78123 5.4173692,14.49477 5.1609057,14.47161 z M 7.0257503,14.568189 C 6.7382814,14.542229 6.5044534,14.823328 6.5044534,15.190584 C 6.5044534,15.55784 6.7382814,15.872866 7.0257503,15.898826 C 7.3132191,15.924787 7.5470467,15.649053 7.5470467,15.281797 C 7.5470467,14.914541 7.3132191,14.594149 7.0257503,14.568189 z M 8.9067173,14.69696 C 8.6001095,14.669272 8.3531756,14.965964 8.3531756,15.356913 C 8.3531756,15.747863 8.6001095,16.085757 8.9067173,16.113445 C 9.2133251,16.141134 9.465633,15.844441 9.4656335,15.453492 C 9.4656335,15.062542 9.2133255,14.724648 8.9067173,14.69696 z M 10.954284,14.852559 C 10.633896,14.823626 10.373871,15.131329 10.373871,15.53934 C 10.373871,15.947349 10.633896,16.299131 10.954284,16.328064 C 11.274672,16.356997 11.534697,16.049294 11.534697,15.641283 C 11.534697,15.233274 11.274672,14.881491 10.954284,14.852559 z "
       style="opacity:0.81171546;fill:white;fill-opacity:1;stroke:none;stroke-width:1.18953109;stroke-linecap:round;stroke-linejoin:round;stroke-miterlimit:4;stroke-dasharray:none;stroke-dashoffset:0;stroke-opacity:1" />
    <path
       style="opacity:0.81171546;fill:#6b6b6b;fill-opacity:1;stroke:none;stroke-width:1.18953109;stroke-linecap:round;stroke-linejoin:round;stroke-miterlimit:4;stroke-dasharray:none;stroke-dashoffset:0;stroke-opacity:1"
       d="M 3.4519127,14.240895 C 3.2145884,14.219463 3.0219772,14.450803 3.0219774,14.75598 C 3.0219774,15.061158 3.2145884,15.324751 3.4519127,15.346182 C 3.6892371,15.367614 3.8818479,15.14164 3.8818481,14.836463 C 3.8818481,14.531284 3.6892372,14.262326 3.4519127,14.240895 z M 5.0319253,14.342839 C 4.7754617,14.319679 4.5697446,14.566611 4.5697446,14.895482 C 4.5697446,15.224355 4.7754617,15.510814 5.0319253,15.533974 C 5.2883884,15.557134 5.4994799,15.310202 5.4994799,14.98133 C 5.4994799,14.652458 5.2883884,14.365999 5.0319253,14.342839 z M 6.8967694,14.439417 C 6.6093006,14.413457 6.375473,14.694556 6.375473,15.061812 C 6.375473,15.429068 6.6093006,15.744095 6.8967694,15.770055 C 7.1842383,15.796015 7.4180658,15.520281 7.4180663,15.153025 C 7.4180663,14.785769 7.1842383,14.465377 6.8967694,14.439417 z M 8.7777369,14.568189 C 8.4711287,14.5405 8.2241948,14.837192 8.2241952,15.228142 C 8.2241952,15.619092 8.4711287,15.956986 8.7777369,15.984674 C 9.0843447,16.012362 9.3366526,15.71567 9.3366526,15.32472 C 9.3366526,14.933771 9.0843447,14.595877 8.7777369,14.568189 z M 10.825304,14.723787 C 10.504916,14.694855 10.244891,15.002558 10.244891,15.410568 C 10.244891,15.818578 10.504916,16.17036 10.825304,16.199293 C 11.145692,16.228226 11.405716,15.920522 11.405716,15.512512 C 11.405716,15.104503 11.145692,14.75272 10.825304,14.723787 z "
       id="path4886" />
    <path
       id="path5770"
       d="M 3.5808933,16.309041 C 3.343569,16.26607 3.1509578,16.479928 3.150958,16.785105 C 3.150958,17.090283 3.343569,17.371358 3.5808933,17.414329 C 3.8182177,17.4573 4.0108285,17.248809 4.0108287,16.94363 C 4.0108287,16.638453 3.8182178,16.352013 3.5808933,16.309041 z M 5.1609057,16.55439 C 4.9044421,16.507953 4.698725,16.736214 4.698725,17.065085 C 4.698725,17.393958 4.9044421,17.699088 5.1609057,17.745525 C 5.4173692,17.791962 5.6284608,17.564189 5.6284603,17.235317 C 5.6284603,16.906445 5.4173692,16.600827 5.1609057,16.55439 z M 7.0257503,16.820224 C 6.7382814,16.768173 6.5044534,17.02805 6.5044534,17.395306 C 6.5044534,17.762562 6.7382814,18.098812 7.0257503,18.150863 C 7.3132191,18.202914 7.5470467,17.948403 7.5470467,17.581146 C 7.5470467,17.21389 7.3132191,16.872276 7.0257503,16.820224 z M 8.9067173,17.119715 C 8.6001095,17.064199 8.3531756,17.338479 8.3531756,17.729428 C 8.3531756,18.120378 8.6001095,18.480686 8.9067173,18.536202 C 9.2133251,18.591718 9.465633,18.317926 9.4656335,17.926976 C 9.4656335,17.536026 9.2133255,17.175232 8.9067173,17.119715 z M 10.954284,17.461155 C 10.633896,17.403143 10.373871,17.687246 10.373871,18.095256 C 10.373871,18.503265 10.633896,18.87865 10.954284,18.93666 C 11.274672,18.994672 11.534697,18.710569 11.534697,18.302559 C 11.534697,17.894549 11.274672,17.519166 10.954284,17.461155 z "
       style="opacity:0.81171546;fill:white;fill-opacity:1;stroke:none;stroke-width:1.18953109;stroke-linecap:round;stroke-linejoin:round;stroke-miterlimit:4;stroke-dasharray:none;stroke-dashoffset:0;stroke-opacity:1" />
    <path
       style="opacity:0.81171546;fill:#6b6b6b;fill-opacity:1;stroke:none;stroke-width:1.18953109;stroke-linecap:round;stroke-linejoin:round;stroke-miterlimit:4;stroke-dasharray:none;stroke-dashoffset:0;stroke-opacity:1"
       d="M 3.4519127,16.168563 C 3.2145884,16.125592 3.0219772,16.33945 3.0219774,16.644627 C 3.0219774,16.949805 3.2145884,17.23088 3.4519127,17.273851 C 3.6892371,17.316822 3.8818479,17.108331 3.8818481,16.803153 C 3.8818481,16.497975 3.6892372,16.211535 3.4519127,16.168563 z M 5.0319253,16.413912 C 4.7754617,16.367475 4.5697446,16.595736 4.5697446,16.924607 C 4.5697446,17.25348 4.7754617,17.55861 5.0319253,17.605047 C 5.2883884,17.651484 5.4994799,17.423711 5.4994799,17.094839 C 5.4994799,16.765968 5.2883884,16.460349 5.0319253,16.413912 z M 6.8967694,16.679747 C 6.6093006,16.627695 6.375473,16.887572 6.375473,17.254828 C 6.375473,17.622085 6.6093006,17.958332 6.8967694,18.010385 C 7.1842383,18.062436 7.4180658,17.807924 7.4180663,17.440669 C 7.4180663,17.073413 7.1842383,16.731798 6.8967694,16.679747 z M 8.7777369,16.979238 C 8.4711287,16.923721 8.2241948,17.198001 8.2241952,17.588951 C 8.2241952,17.979901 8.4711287,18.340207 8.7777369,18.395722 C 9.0843447,18.45124 9.3366526,18.177448 9.3366526,17.786498 C 9.3366526,17.395548 9.0843447,17.034754 8.7777369,16.979238 z M 10.825304,17.320677 C 10.504916,17.262665 10.244891,17.546769 10.244891,17.954778 C 10.244891,18.362788 10.504916,18.738172 10.825304,18.796183 C 11.145692,18.854193 11.405716,18.570091 11.405716,18.162081 C 11.405716,17.754072 11.145692,17.378689 10.825304,17.320677 z "
       id="path5772" />
    <g
       id="g5009"
       transform="matrix(0.450423,0,0,0.449692,3.347335e-2,1.716764)">
      <path
         id="path5011"
         d="M 29.005156,38.5 L 38.359403,37.812427"
         style="fill:none;fill-opacity:0.50400002;fill-rule:evenodd;stroke:white;stroke-width:2.22193885;stroke-linecap:butt;stroke-linejoin:miter;stroke-miterlimit:4;stroke-dasharray:none;stroke-opacity:0.57599996" />
      <path
         id="path5013"
         d="M 28.981293,37.5 L 38.33554,36.812426"
         style="fill:none;fill-opacity:0.50400002;fill-rule:evenodd;stroke:black;stroke-width:2.22193885;stroke-linecap:butt;stroke-linejoin:miter;stroke-miterlimit:4;stroke-dasharray:none;stroke-opacity:0.41999996" />
    </g>
    <g
       id="g5015"
       transform="matrix(0.450423,0,0,0.449692,3.347335e-2,-0.625146)">
      <path
         id="path5017"
         d="M 29.005156,38.5 L 38.359403,37.812427"
         style="fill:none;fill-opacity:0.50400002;fill-rule:evenodd;stroke:white;stroke-width:2.22193885;stroke-linecap:butt;stroke-linejoin:miter;stroke-miterlimit:4;stroke-dasharray:none;stroke-opacity:0.57599996" />
      <path
         id="path5019"
         d="M 28.981293,37.5 L 38.33554,36.812426"
         style="fill:none;fill-opacity:0.50400002;fill-rule:evenodd;stroke:black;stroke-width:2.22193885;stroke-linecap:butt;stroke-linejoin:miter;stroke-miterlimit:4;stroke-dasharray:none;stroke-opacity:0.41999996" />
    </g>
  </g>
</svg>
