<?xml version="1.0" encoding="UTF-8" standalone="no"?>
<!-- Created with Inkscape (http://www.inkscape.org/) -->
<svg
   xmlns:dc="http://purl.org/dc/elements/1.1/"
   xmlns:cc="http://web.resource.org/cc/"
   xmlns:rdf="http://www.w3.org/1999/02/22-rdf-syntax-ns#"
   xmlns:svg="http://www.w3.org/2000/svg"
   xmlns="http://www.w3.org/2000/svg"
   xmlns:xlink="http://www.w3.org/1999/xlink"
   xmlns:sodipodi="http://inkscape.sourceforge.net/DTD/sodipodi-0.dtd"
   xmlns:inkscape="http://www.inkscape.org/namespaces/inkscape"
   width="22"
   height="22"
   id="svg2"
   sodipodi:version="0.32"
   inkscape:version="0.43+devel"
   sodipodi:docbase="/home/silvestre/Neu/22x22/places/SVGs"
   sodipodi:docname="start-here.svg"
   version="1.0">
  <defs
     id="defs4">
    <linearGradient
       inkscape:collect="always"
       id="linearGradient11894">
      <stop
         style="stop-color:white;stop-opacity:1;"
         offset="0"
         id="stop11896" />
      <stop
         style="stop-color:white;stop-opacity:0;"
         offset="1"
         id="stop11898" />
    </linearGradient>
    <linearGradient
       inkscape:collect="always"
       id="linearGradient11880">
      <stop
         style="stop-color:white;stop-opacity:0.69527894"
         offset="0"
         id="stop11882" />
      <stop
         style="stop-color:white;stop-opacity:0;"
         offset="1"
         id="stop11884" />
    </linearGradient>
    <linearGradient
       inkscape:collect="always"
       id="linearGradient11869">
      <stop
         style="stop-color:black;stop-opacity:1;"
         offset="0"
         id="stop11871" />
      <stop
         style="stop-color:black;stop-opacity:0;"
         offset="1"
         id="stop11873" />
    </linearGradient>
    <linearGradient
       inkscape:collect="always"
       id="linearGradient10986">
      <stop
         style="stop-color:white;stop-opacity:1;"
         offset="0"
         id="stop10988" />
      <stop
         style="stop-color:white;stop-opacity:0;"
         offset="1"
         id="stop10990" />
    </linearGradient>
    <linearGradient
       inkscape:collect="always"
       id="linearGradient10976">
      <stop
         style="stop-color:white;stop-opacity:1;"
         offset="0"
         id="stop10978" />
      <stop
         style="stop-color:white;stop-opacity:0.33333334"
         offset="1"
         id="stop10980" />
    </linearGradient>
    <linearGradient
       inkscape:collect="always"
       xlink:href="#linearGradient10976"
       id="linearGradient10982"
       x1="24.552778"
       y1="5.1584506"
       x2="4.5404706"
       y2="40.95953"
       gradientUnits="userSpaceOnUse"
       gradientTransform="matrix(0.428954,0,0,0.41531,0.698776,1.188118)" />
    <linearGradient
       inkscape:collect="always"
       xlink:href="#linearGradient10986"
       id="linearGradient10992"
       x1="34.471455"
       y1="0.92720371"
       x2="17.501123"
       y2="21.255095"
       gradientUnits="userSpaceOnUse"
       gradientTransform="matrix(0.441116,0,0,0.348047,0.840354,1.003267)" />
    <radialGradient
       inkscape:collect="always"
       xlink:href="#linearGradient11869"
       id="radialGradient11875"
       cx="22.627417"
       cy="45.25996"
       fx="15.627968"
       fy="60.975437"
       r="19.445436"
       gradientTransform="matrix(1,0,0,0.195455,9.00864e-16,36.4137)"
       gradientUnits="userSpaceOnUse" />
    <linearGradient
       inkscape:collect="always"
       xlink:href="#linearGradient11880"
       id="linearGradient11886"
       x1="13.385923"
       y1="16.393206"
       x2="17.6196"
       y2="30.509481"
       gradientUnits="userSpaceOnUse"
       gradientTransform="matrix(0.44573,0,0,0.473403,0.289314,-0.52125)" />
    <linearGradient
       inkscape:collect="always"
       xlink:href="#linearGradient11894"
       id="linearGradient11900"
       x1="28.019848"
       y1="4.1434674"
       x2="33.148129"
       y2="8.2855434"
       gradientUnits="userSpaceOnUse" />
    <linearGradient
       inkscape:collect="always"
       xlink:href="#linearGradient11894"
       id="linearGradient11904"
       gradientUnits="userSpaceOnUse"
       x1="28.019848"
       y1="4.1434674"
       x2="33.148129"
       y2="8.2855434" />
    <linearGradient
       inkscape:collect="always"
       xlink:href="#linearGradient11894"
       id="linearGradient11908"
       gradientUnits="userSpaceOnUse"
       x1="28.019848"
       y1="4.1434674"
       x2="33.148129"
       y2="8.2855434" />
    <linearGradient
       inkscape:collect="always"
       xlink:href="#linearGradient11894"
       id="linearGradient11912"
       gradientUnits="userSpaceOnUse"
       x1="28.019848"
       y1="4.1434674"
       x2="33.148129"
       y2="8.2855434" />
  </defs>
  <sodipodi:namedview
     id="base"
     pagecolor="#ffffff"
     bordercolor="#666666"
     borderopacity="1.0"
     inkscape:pageopacity="0.0"
     inkscape:pageshadow="2"
     inkscape:zoom="1"
     inkscape:cx="11"
     inkscape:cy="11"
     inkscape:document-units="px"
     inkscape:current-layer="layer1"
     showguides="true"
     inkscape:guide-bbox="true"
     inkscape:window-width="843"
     inkscape:window-height="556"
     inkscape:window-x="90"
     inkscape:window-y="80"
     inkscape:showpageshadow="false"
     width="22px"
     height="22px"
     showgrid="false"
     showborder="false" />
  <metadata
     id="metadata7">
    <rdf:RDF>
      <cc:Work
         rdf:about="">
        <dc:format>image/svg+xml</dc:format>
        <dc:type
           rdf:resource="http://purl.org/dc/dcmitype/StillImage" />
      </cc:Work>
    </rdf:RDF>
  </metadata>
  <g
     inkscape:label="Layer 1"
     inkscape:groupmode="layer"
     id="layer1">
    <path
       sodipodi:type="arc"
       style="opacity:0.41004184;fill:url(#radialGradient11875);fill-opacity:1;stroke:none;stroke-width:1;stroke-linecap:round;stroke-linejoin:round;stroke-miterlimit:4;stroke-dasharray:none;stroke-dashoffset:0;stroke-opacity:0.33333333"
       id="path10994"
       sodipodi:cx="22.627417"
       sodipodi:cy="45.25996"
       sodipodi:rx="19.445436"
       sodipodi:ry="3.800699"
       d="M 42.072853 45.25996 A 19.445436 3.800699 0 1 1  3.1819801,45.25996 A 19.445436 3.800699 0 1 1  42.072853 45.25996 z"
       transform="matrix(0.401136,0,0,0.529018,3.024475,-4.2306)" />
    <path
       style="fill:#1c5e82;fill-opacity:1;stroke:#0b3f69;stroke-width:0.99999982;stroke-miterlimit:4;stroke-dasharray:none;stroke-opacity:1"
       d="M 15.113792,0.499978 C 14.068878,0.542914 13.446342,0.881058 12.658465,1.768856 C 11.355088,3.237533 10.933692,6.146209 12.181843,6.621266 C 13.929962,7.286615 16.885188,5.868607 18.594579,3.944074 C 19.34967,2.937546 19.722777,2.159507 19.360064,1.448151 C 18.781039,0.312562 16.557446,0.52796 15.113792,0.499978 z M 8.1377745,1.406319 C 7.4863264,1.844959 7.1908142,2.371694 7.1700868,3.28872 C 7.1481902,4.257432 7.3471061,4.968725 7.8055833,5.436032 C 8.2241577,5.862668 8.5102619,5.8695 9.4376536,5.910175 C 10.203822,5.943779 11.139952,4.497676 11.185269,2.995902 C 11.211102,2.139804 11.192771,1.814345 10.997508,1.503925 C 10.480098,0.68137 9.0175849,0.813917 8.1377745,1.406319 z M 3.4437668,3.930131 C 3.2423189,4.519312 3.667757,5.855147 3.9781616,6.300561 C 4.4456966,6.971449 4.767426,6.87665 5.4513578,6.872253 C 6.4453214,6.865864 6.8557167,4.019451 6.0001957,3.149283 C 5.1660545,2.300861 3.8466446,2.751821 3.4437668,3.930131 z M 0.5262605,6.607322 C 0.51973371,6.763861 0.51281438,6.944819 0.56958981,7.137183 C 0.71914455,7.714276 1.0616352,8.447555 1.4680503,8.718214 C 1.8156903,8.949733 1.9763271,9.023379 2.3386206,9.017811 C 2.5309208,9.014754 2.7247938,8.944936 2.894431,8.800875 C 3.8134326,8.020431 3.0137758,5.824625 2.1314368,5.589432 C 1.9370525,5.537617 1.8429782,5.510762 1.6528223,5.533657 C 1.3830974,5.566132 0.56316776,5.72214 0.5262605,6.607322 z M 9.2932226,7.680988 C 5.3540848,7.865191 2.1140023,10.132796 1.7828103,13.035372 C 1.4071785,16.327412 4.4354004,20.402699 7.9500142,21.317935 C 10.738456,21.888507 13.293196,21.110728 15.229337,19.086941 C 16.256841,17.760425 16.47612,16.722847 15.821504,16.312143 C 14.260876,15.943201 11.77402,15.650809 10.520886,16.842004 C 10.439567,16.990386 10.368864,17.346253 10.362012,17.636795 C 10.349145,18.182475 10.078963,18.557866 9.6976295,18.738349 C 9.4916537,18.66722 9.278205,18.571202 9.0765761,18.431587 C 8.7574816,18.210632 8.3847627,17.807523 8.2533193,17.53919 C 8.0423397,17.108496 8.0449546,16.999249 8.2388762,16.604961 C 8.5354862,16.001886 9.4344225,15.363702 11.647448,14.178756 C 14.897581,12.438499 16.018441,11.312594 15.908163,9.911981 C 15.135269,7.281967 11.668862,7.649043 9.2932226,7.680988 z "
       id="path5721"
       sodipodi:nodetypes="cssssccsssssscssssccsssssscsssssscsssssc" />
    <path
       style="fill:#167fb8;fill-opacity:1;stroke:none;stroke-width:0.99999958;stroke-miterlimit:4;stroke-dasharray:none;stroke-opacity:1"
       d="M 7.7379565,20.904853 C 4.5367348,20.027367 1.8482805,16.308732 2.1904179,13.152471 C 2.5121886,10.184087 5.8114419,8.0454551 9.7187494,8.1464601 C 12.025307,8.2060871 13.176942,8.6018281 13.267265,9.9770411 C 13.35546,11.319886 12.459366,12.394483 9.8600578,14.062963 C 8.0901821,15.199037 7.3747432,15.8101 7.1375274,16.388301 C 6.9824375,16.766328 6.9381373,16.986896 7.1068697,17.399826 C 7.2119915,17.657093 7.575964,18.433788 7.9694909,18.691851 C 9.0135711,19.376528 10.050257,19.412011 10.428726,17.930596 C 10.497683,17.660683 10.511369,17.266609 10.574742,17.119248 C 10.769659,16.666011 12.994767,16.239117 13.336402,16.501955 C 13.855621,16.901416 13.546351,17.49637 12.7246,18.768173 C 11.553259,20.58103 9.6038513,21.416314 7.7379565,20.904853 z M 1.9001831,8.5261141 C 1.4052748,8.1820681 1.0440976,7.3937361 0.96568518,6.7998011 C 0.8816263,6.1630901 1.3481692,5.7168301 1.9311109,5.9694321 C 2.5733348,6.2477241 3.0185878,7.8890081 2.551473,8.4250171 C 2.3726591,8.6302041 2.1239288,8.6816551 1.9001831,8.5261141 z M 4.1156702,6.0177741 C 3.8282497,5.5939891 3.6003404,4.7760481 3.7144535,4.1925511 C 3.8285661,3.6090541 4.142422,3.2565661 4.5918676,3.2037691 C 4.9570765,3.1608691 5.3868948,3.3581151 5.5302068,3.5325761 C 6.2375148,4.3936281 5.7333518,6.4005171 4.9268743,6.4735771 C 4.6275496,6.5006941 4.403092,6.4415601 4.1156702,6.0177741 z M 11.934929,6.1840681 C 11.380557,5.8346881 11.366754,3.5269501 12.339584,2.3673071 C 12.897417,1.7023531 13.686185,1.0326141 14.263306,0.95065812 C 15.520791,0.77208512 15.830991,1.2790881 16.035643,1.8513331 C 16.244001,2.4339381 16.026814,3.2837441 15.422926,4.2487581 C 14.256466,6.1127681 12.778901,6.7159631 11.934929,6.1840681 z M 7.8675578,5.1508971 C 7.5040472,4.6564481 7.3275221,4.3625201 7.2885243,3.4343701 C 7.2612937,2.7862751 7.4635981,2.1190251 8.0210922,1.8122531 C 8.601159,1.4930611 9.028167,1.5474421 9.339455,1.9033861 C 9.5880244,2.1876161 9.5752711,2.4368561 9.4968565,3.3379661 C 9.372139,4.7711431 8.9684164,5.5149751 8.3551994,5.4986831 C 8.2275182,5.4952931 8.0752787,5.3707221 7.8675578,5.1508971 z "
       id="path5565"
       sodipodi:nodetypes="csssssssssssccssssczssszcssssscsssssc" />
    <path
       style="fill:none;fill-opacity:1;stroke:url(#linearGradient10982);stroke-width:1.00000024;stroke-miterlimit:4;stroke-dasharray:none;stroke-opacity:1"
       d="M 7.8670789,20.362157 C 4.7863399,19.546531 2.1990699,16.090049 2.5283302,13.156296 C 2.8379906,10.397175 6.0130716,8.4093098 9.7733216,8.503195 C 11.993069,8.5586184 13.101361,8.9264613 13.188283,10.204725 C 13.27316,11.452904 12.41079,12.451744 9.9093117,14.0026 C 8.206048,15.058586 7.5175356,15.626569 7.2892479,16.164009 C 7.139995,16.515387 7.097362,16.720406 7.259744,17.104225 C 7.3609094,17.343354 7.7111832,18.065295 8.0898992,18.305165 C 9.0946838,18.941574 10.092353,18.974556 10.456577,17.597576 C 10.522939,17.346692 10.536109,16.980399 10.597097,16.843426 C 10.784678,16.422142 12.926041,16.025342 13.254819,16.269651 C 13.754497,16.64095 13.456866,17.193962 12.666043,18.376108 C 11.538786,20.061163 9.662748,20.837562 7.8670789,20.362157 z "
       id="path10101"
       sodipodi:nodetypes="csssssssssssc" />
    <path
       style="fill:none;fill-opacity:1;stroke:url(#linearGradient10992);stroke-width:1.00000024;stroke-miterlimit:4;stroke-dasharray:none;stroke-opacity:1"
       d="M 2.4345514,7.4293436 C 1.9447656,7.1613451 1.5873266,6.5472641 1.5097258,6.0846115 C 1.426537,5.5886375 1.888251,5.2410173 2.4651591,5.4377854 C 3.1007357,5.6545641 3.5413801,6.9330618 3.0791001,7.3505929 C 2.902137,7.5104257 2.6559812,7.5505041 2.4345514,7.4293436 z M 4.3353301,5.6505082 C 4.0508845,5.3203953 4.1171113,4.5081837 4.2300433,4.053662 C 4.3429749,3.5991396 4.6535822,3.3245643 5.0983758,3.2834374 C 5.4598047,3.25002 5.5272716,3.703334 5.5893371,3.8896988 C 5.7641252,4.4145373 5.7903795,6.1237166 4.9922492,6.1806275 C 4.6960228,6.2017506 4.619777,5.9806212 4.3353301,5.6505082 z M 12.365433,5.6049785 C 11.747875,5.2566893 11.635541,3.9602856 12.862394,2.5013477 C 13.502064,1.7406723 14.098564,1.5921898 14.669711,1.5283493 C 15.914181,1.3892478 16.22117,1.7841836 16.423704,2.2299412 C 16.629905,2.6837688 16.414967,3.3457357 15.817329,4.0974451 C 14.662942,5.5494386 13.168069,6.0576463 12.365433,5.6049785 z M 8.3401614,4.8001774 C 7.9804133,4.4150199 7.8348929,4.2152391 7.7962988,3.4922452 C 7.76935,2.9874034 7.9403828,2.4384629 8.4921067,2.1994994 C 9.0661695,1.9508603 9.4012247,1.9640441 9.7092907,2.2413108 C 9.9552868,2.462715 9.9426658,2.6568641 9.865063,3.3587948 C 9.7416363,4.4751852 9.4296256,5.0837801 8.8227557,5.0710893 C 8.6963961,5.0684486 8.5457323,4.9714126 8.3401614,4.8001774 z "
       id="path10984"
       sodipodi:nodetypes="cssssczssszcssssscsssssc" />
    <path
       style="opacity:1;fill:url(#linearGradient11886);fill-opacity:1;stroke:none;stroke-width:1;stroke-linecap:round;stroke-linejoin:round;stroke-miterlimit:4;stroke-dashoffset:0;stroke-opacity:0.33333333"
       d="M 12.706147,9.395124 C 13.138453,10.744817 11.321249,12.48771 8.6498866,13.285511 C 5.9785256,14.083313 3.4596065,13.635402 3.0273002,12.285709 C 2.5949939,10.936018 4.4121983,9.1931243 7.0835598,8.3953222 C 9.7549213,7.5975211 12.27384,8.0454324 12.706147,9.395124 z "
       id="path11877" />
    <path
       sodipodi:type="arc"
       style="opacity:1;fill:url(#linearGradient11900);fill-opacity:1;stroke:none;stroke-width:1;stroke-linecap:round;stroke-linejoin:round;stroke-miterlimit:4;stroke-dasharray:none;stroke-dashoffset:0;stroke-opacity:0.33333333"
       id="path11892"
       sodipodi:cx="30.935923"
       sodipodi:cy="6.8552241"
       sodipodi:rx="2.2980971"
       sodipodi:ry="2.1655145"
       d="M 33.23402 6.8552241 A 2.2980971 2.1655145 0 1 1  28.637825,6.8552241 A 2.2980971 2.1655145 0 1 1  33.23402 6.8552241 z"
       transform="matrix(0.441843,0.442914,-0.547044,0.54837,4.411085,-14.72713)" />
    <path
       sodipodi:type="arc"
       style="opacity:1;fill:url(#linearGradient11904);fill-opacity:1;stroke:none;stroke-width:1;stroke-linecap:round;stroke-linejoin:round;stroke-miterlimit:4;stroke-dasharray:none;stroke-dashoffset:0;stroke-opacity:0.33333333"
       id="path11902"
       sodipodi:cx="30.935923"
       sodipodi:cy="6.8552241"
       sodipodi:rx="2.2980971"
       sodipodi:ry="2.1655145"
       d="M 33.23402 6.8552241 A 2.2980971 2.1655145 0 1 1  28.637825,6.8552241 A 2.2980971 2.1655145 0 1 1  33.23402 6.8552241 z"
       transform="matrix(0.252483,0.253094,-0.312598,0.313354,2.64459,-7.22976)" />
    <path
       sodipodi:type="arc"
       style="opacity:1;fill:url(#linearGradient11908);fill-opacity:1;stroke:none;stroke-width:1;stroke-linecap:round;stroke-linejoin:round;stroke-miterlimit:4;stroke-dasharray:none;stroke-dashoffset:0;stroke-opacity:0.33333333"
       id="path11906"
       sodipodi:cx="30.935923"
       sodipodi:cy="6.8552241"
       sodipodi:rx="2.2980971"
       sodipodi:ry="2.1655145"
       d="M 33.23402 6.8552241 A 2.2980971 2.1655145 0 1 1  28.637825,6.8552241 A 2.2980971 2.1655145 0 1 1  33.23402 6.8552241 z"
       transform="matrix(0.252483,0.253094,-0.312598,0.313354,-0.92125,-5.67995)" />
    <path
       sodipodi:type="arc"
       style="opacity:1;fill:url(#linearGradient11912);fill-opacity:1;stroke:none;stroke-width:1;stroke-linecap:round;stroke-linejoin:round;stroke-miterlimit:4;stroke-dasharray:none;stroke-dashoffset:0;stroke-opacity:0.33333333"
       id="path11910"
       sodipodi:cx="30.935923"
       sodipodi:cy="6.8552241"
       sodipodi:rx="2.2980971"
       sodipodi:ry="2.1655145"
       d="M 33.23402 6.8552241 A 2.2980971 2.1655145 0 1 1  28.637825,6.8552241 A 2.2980971 2.1655145 0 1 1  33.23402 6.8552241 z"
       transform="matrix(0.224532,0.222041,-0.277992,0.274908,-3.315221,-2.11206)" />
  </g>
</svg>
