<?xml version="1.0" encoding="UTF-8" standalone="no"?>
<!-- Created with Inkscape (http://www.inkscape.org/) -->
<svg
   xmlns:dc="http://purl.org/dc/elements/1.1/"
   xmlns:cc="http://web.resource.org/cc/"
   xmlns:rdf="http://www.w3.org/1999/02/22-rdf-syntax-ns#"
   xmlns:svg="http://www.w3.org/2000/svg"
   xmlns="http://www.w3.org/2000/svg"
   xmlns:xlink="http://www.w3.org/1999/xlink"
   xmlns:sodipodi="http://inkscape.sourceforge.net/DTD/sodipodi-0.dtd"
   xmlns:inkscape="http://www.inkscape.org/namespaces/inkscape"
   width="22"
   height="22"
   id="svg3947"
   sodipodi:version="0.32"
   inkscape:version="0.43+devel"
   sodipodi:docbase="/home/silvestre/Desktop/Neu/22x22/places"
   sodipodi:docname="user-desktop.svg"
   version="1.0">
  <defs
     id="defs3949">
    <linearGradient
       id="linearGradient8389"
       inkscape:collect="always">
      <stop
         id="stop8391"
         offset="0"
         style="stop-color:black;stop-opacity:0.13725491" />
      <stop
         id="stop8393"
         offset="1"
         style="stop-color:#000000;stop-opacity:0;" />
    </linearGradient>
    <linearGradient
       inkscape:collect="always"
       id="linearGradient8365">
      <stop
         style="stop-color:#000000;stop-opacity:0.18000001"
         offset="0"
         id="stop8367" />
      <stop
         style="stop-color:#000000;stop-opacity:0;"
         offset="1"
         id="stop8369" />
    </linearGradient>
    <linearGradient
       inkscape:collect="always"
       id="linearGradient7601">
      <stop
         style="stop-color:#ffffff;stop-opacity:0.56000000"
         offset="0"
         id="stop7603" />
      <stop
         style="stop-color:#ffffff;stop-opacity:0;"
         offset="1"
         id="stop7605" />
    </linearGradient>
    <linearGradient
       id="linearGradient6137">
      <stop
         style="stop-color:#ffca53;stop-opacity:1.0000000;"
         offset="0.0000000"
         id="stop6139" />
      <stop
         style="stop-color:#dfb348;stop-opacity:1.0000000;"
         offset="1.0000000"
         id="stop6141" />
    </linearGradient>
    <linearGradient
       inkscape:collect="always"
       xlink:href="#linearGradient6137"
       id="linearGradient6143"
       x1="70.398491"
       y1="55.110344"
       x2="102.74317"
       y2="58.450184"
       gradientUnits="userSpaceOnUse"
       gradientTransform="matrix(0.175215,0,0,0.308723,4.482744e-2,-7.669479)" />
    <linearGradient
       inkscape:collect="always"
       xlink:href="#linearGradient7601"
       id="linearGradient7607"
       x1="58.781189"
       y1="33.482525"
       x2="57.111267"
       y2="59.700268"
       gradientUnits="userSpaceOnUse"
       gradientTransform="matrix(0.17431,0,0,0.267398,0.209803,-5.950784)" />
    <radialGradient
       inkscape:collect="always"
       xlink:href="#linearGradient8389"
       id="radialGradient8371"
       cx="63.456963"
       cy="110.63283"
       fx="63.456963"
       fy="110.63283"
       r="60.117123"
       gradientTransform="matrix(0.17252,-1.136264e-9,1.735944e-10,4.406077e-2,0.552381,14.00424)"
       gradientUnits="userSpaceOnUse" />
    <radialGradient
       inkscape:collect="always"
       xlink:href="#linearGradient8365"
       id="radialGradient8375"
       gradientUnits="userSpaceOnUse"
       gradientTransform="matrix(0.9,-4.584638e-9,9.056027e-10,0.177778,6.345696,90.96477)"
       cx="63.456963"
       cy="110.63283"
       fx="63.456963"
       fy="110.63283"
       r="60.117123" />
    <radialGradient
       inkscape:collect="always"
       xlink:href="#linearGradient8365"
       id="radialGradient4853"
       gradientUnits="userSpaceOnUse"
       gradientTransform="matrix(0.9,-4.584638e-9,9.056027e-10,0.177778,6.345696,90.96477)"
       cx="63.456963"
       cy="110.63283"
       fx="63.456963"
       fy="110.63283"
       r="60.117123" />
    <radialGradient
       inkscape:collect="always"
       xlink:href="#linearGradient8365"
       id="radialGradient4865"
       gradientUnits="userSpaceOnUse"
       gradientTransform="matrix(0.9,-4.584638e-9,9.056027e-10,0.177778,6.345696,90.96477)"
       cx="63.456963"
       cy="110.63283"
       fx="63.456963"
       fy="110.63283"
       r="60.117123" />
    <radialGradient
       inkscape:collect="always"
       xlink:href="#linearGradient8365"
       id="radialGradient4877"
       gradientUnits="userSpaceOnUse"
       gradientTransform="matrix(0.9,-4.584638e-9,9.056027e-10,0.177778,6.345696,90.96477)"
       cx="63.456963"
       cy="110.63283"
       fx="63.456963"
       fy="110.63283"
       r="60.117123" />
    <radialGradient
       inkscape:collect="always"
       xlink:href="#linearGradient8365"
       id="radialGradient4841"
       gradientUnits="userSpaceOnUse"
       gradientTransform="matrix(0.9,-4.584638e-9,9.056027e-10,0.177778,6.345696,90.96477)"
       cx="63.456963"
       cy="110.63283"
       fx="63.456963"
       fy="110.63283"
       r="60.117123" />
    <radialGradient
       inkscape:collect="always"
       xlink:href="#linearGradient8365"
       id="radialGradient4854"
       gradientUnits="userSpaceOnUse"
       gradientTransform="matrix(0.9,-4.584638e-9,9.056027e-10,0.177778,6.345696,90.96477)"
       cx="63.456963"
       cy="110.63283"
       fx="63.456963"
       fy="110.63283"
       r="60.117123" />
    <radialGradient
       inkscape:collect="always"
       xlink:href="#linearGradient8365"
       id="radialGradient4866"
       gradientUnits="userSpaceOnUse"
       gradientTransform="matrix(0.9,-4.584638e-9,9.056027e-10,0.177778,6.345696,90.96477)"
       cx="63.456963"
       cy="110.63283"
       fx="63.456963"
       fy="110.63283"
       r="60.117123" />
  </defs>
  <sodipodi:namedview
     id="base"
     pagecolor="#ffffff"
     bordercolor="#666666"
     borderopacity="1.0"
     inkscape:pageopacity="0.0"
     inkscape:pageshadow="2"
     inkscape:zoom="1"
     inkscape:cx="7.2700146"
     inkscape:cy="5.7601864"
     inkscape:document-units="px"
     inkscape:current-layer="layer1"
     showguides="true"
     inkscape:guide-bbox="true"
     inkscape:window-width="843"
     inkscape:window-height="556"
     inkscape:window-x="0"
     inkscape:window-y="22"
     inkscape:showpageshadow="false"
     showgrid="false"
     width="22px"
     height="22px"
     showborder="false" />
  <metadata
     id="metadata3952">
    <rdf:RDF>
      <cc:Work
         rdf:about="">
        <dc:format>image/svg+xml</dc:format>
        <dc:type
           rdf:resource="http://purl.org/dc/dcmitype/StillImage" />
      </cc:Work>
    </rdf:RDF>
  </metadata>
  <g
     inkscape:label="Layer 1"
     inkscape:groupmode="layer"
     id="layer1">
    <g
       id="g4856"
       transform="matrix(0.468085,0,0,0.462808,4.456434,-0.399416)">
      <path
         transform="matrix(7.445791e-2,0,0,0.178505,3.608469,20.98591)"
         d="M 123.57409 110.63283 A 60.117123 12.691393 0 1 1  3.3398399,110.63283 A 60.117123 12.691393 0 1 1  123.57409 110.63283 z"
         sodipodi:ry="12.691393"
         sodipodi:rx="60.117123"
         sodipodi:cy="110.63283"
         sodipodi:cx="63.456963"
         id="path4858"
         style="opacity:1;color:black;fill:url(#radialGradient4866);fill-opacity:1;fill-rule:evenodd;stroke:none;stroke-width:2;stroke-linecap:round;stroke-linejoin:round;marker:none;marker-start:none;marker-mid:none;marker-end:none;stroke-miterlimit:4;stroke-dasharray:none;stroke-dashoffset:0;stroke-opacity:1;visibility:visible;display:inline;overflow:visible"
         sodipodi:type="arc" />
      <g
         transform="matrix(-0.602546,0,0,0.393459,17.97781,-5.995508)"
         id="g4860">
        <path
           style="color:black;fill:#a14e01;fill-opacity:1;fill-rule:evenodd;stroke:none;stroke-width:2;stroke-linecap:round;stroke-linejoin:round;marker:none;marker-start:none;marker-mid:none;marker-end:none;stroke-miterlimit:4;stroke-dashoffset:0;stroke-opacity:1;visibility:visible;display:inline;overflow:visible"
           d="M 15.17083,63.527676 L 16.999607,63.527676 C 18.594599,63.527676 19.878654,64.331059 19.878654,65.328986 L 19.878654,116.96575 C 19.878654,117.96367 18.594599,118.76706 16.999607,118.76706 L 15.17083,118.76706 C 13.575837,118.76706 12.291783,117.96367 12.291783,116.96575 L 12.291783,65.328986 C 12.291783,64.331059 13.575837,63.527676 15.17083,63.527676 z "
           id="path4862" />
        <path
           style="color:black;fill:black;fill-opacity:0.31600001;fill-rule:evenodd;stroke:none;stroke-width:2;stroke-linecap:round;stroke-linejoin:round;marker:none;marker-start:none;marker-mid:none;marker-end:none;stroke-miterlimit:4;stroke-dashoffset:0;stroke-opacity:1;visibility:visible;display:inline;overflow:visible"
           d="M 14.148992,63.527676 C 15.177882,63.527676 16.006193,64.331059 16.006193,65.328986 L 16.006193,116.96575 C 16.006193,117.96367 15.177882,118.76706 14.148992,118.76706 C 13.120103,118.76706 12.291792,117.96367 12.291792,116.96575 L 12.291792,65.328986 C 12.291792,64.331059 13.120103,63.527676 14.148992,63.527676 z "
           id="path4864" />
      </g>
    </g>
    <g
       id="g4843"
       transform="matrix(0.468085,0,0,0.462808,14.93263,-0.399416)">
      <path
         transform="matrix(7.445791e-2,0,0,0.178505,3.608469,20.98591)"
         d="M 123.57409 110.63283 A 60.117123 12.691393 0 1 1  3.3398399,110.63283 A 60.117123 12.691393 0 1 1  123.57409 110.63283 z"
         sodipodi:ry="12.691393"
         sodipodi:rx="60.117123"
         sodipodi:cy="110.63283"
         sodipodi:cx="63.456963"
         id="path4845"
         style="opacity:1;color:black;fill:url(#radialGradient4854);fill-opacity:1;fill-rule:evenodd;stroke:none;stroke-width:2;stroke-linecap:round;stroke-linejoin:round;marker:none;marker-start:none;marker-mid:none;marker-end:none;stroke-miterlimit:4;stroke-dasharray:none;stroke-dashoffset:0;stroke-opacity:1;visibility:visible;display:inline;overflow:visible"
         sodipodi:type="arc" />
      <g
         transform="matrix(-0.602546,0,0,0.393459,17.97781,-5.995508)"
         id="g4847">
        <path
           style="color:black;fill:#a14e01;fill-opacity:1;fill-rule:evenodd;stroke:none;stroke-width:2;stroke-linecap:round;stroke-linejoin:round;marker:none;marker-start:none;marker-mid:none;marker-end:none;stroke-miterlimit:4;stroke-dashoffset:0;stroke-opacity:1;visibility:visible;display:inline;overflow:visible"
           d="M 15.17083,63.527676 L 16.999607,63.527676 C 18.594599,63.527676 19.878654,64.331059 19.878654,65.328986 L 19.878654,116.96575 C 19.878654,117.96367 18.594599,118.76706 16.999607,118.76706 L 15.17083,118.76706 C 13.575837,118.76706 12.291783,117.96367 12.291783,116.96575 L 12.291783,65.328986 C 12.291783,64.331059 13.575837,63.527676 15.17083,63.527676 z "
           id="path4849" />
        <path
           style="color:black;fill:black;fill-opacity:0.31600001;fill-rule:evenodd;stroke:none;stroke-width:2;stroke-linecap:round;stroke-linejoin:round;marker:none;marker-start:none;marker-mid:none;marker-end:none;stroke-miterlimit:4;stroke-dashoffset:0;stroke-opacity:1;visibility:visible;display:inline;overflow:visible"
           d="M 14.148992,63.527676 C 15.177882,63.527676 16.006193,64.331059 16.006193,65.328986 L 16.006193,116.96575 C 16.006193,117.96367 15.177882,118.76706 14.148992,118.76706 C 13.120103,118.76706 12.291792,117.96367 12.291792,116.96575 L 12.291792,65.328986 C 12.291792,64.331059 13.120103,63.527676 14.148992,63.527676 z "
           id="path4851" />
      </g>
    </g>
    <g
       id="g4831"
       transform="matrix(0.468085,0,0,0.462808,9.681835,2.123566)">
      <path
         transform="matrix(7.445791e-2,0,0,0.178505,3.608469,20.98591)"
         d="M 123.57409 110.63283 A 60.117123 12.691393 0 1 1  3.3398399,110.63283 A 60.117123 12.691393 0 1 1  123.57409 110.63283 z"
         sodipodi:ry="12.691393"
         sodipodi:rx="60.117123"
         sodipodi:cy="110.63283"
         sodipodi:cx="63.456963"
         id="path4833"
         style="opacity:1;color:black;fill:url(#radialGradient4841);fill-opacity:1;fill-rule:evenodd;stroke:none;stroke-width:2;stroke-linecap:round;stroke-linejoin:round;marker:none;marker-start:none;marker-mid:none;marker-end:none;stroke-miterlimit:4;stroke-dasharray:none;stroke-dashoffset:0;stroke-opacity:1;visibility:visible;display:inline;overflow:visible"
         sodipodi:type="arc" />
      <g
         transform="matrix(-0.602546,0,0,0.393459,17.97781,-5.995508)"
         id="g4835">
        <path
           style="color:black;fill:#a14e01;fill-opacity:1;fill-rule:evenodd;stroke:none;stroke-width:2;stroke-linecap:round;stroke-linejoin:round;marker:none;marker-start:none;marker-mid:none;marker-end:none;stroke-miterlimit:4;stroke-dashoffset:0;stroke-opacity:1;visibility:visible;display:inline;overflow:visible"
           d="M 15.17083,63.527676 L 16.999607,63.527676 C 18.594599,63.527676 19.878654,64.331059 19.878654,65.328986 L 19.878654,116.96575 C 19.878654,117.96367 18.594599,118.76706 16.999607,118.76706 L 15.17083,118.76706 C 13.575837,118.76706 12.291783,117.96367 12.291783,116.96575 L 12.291783,65.328986 C 12.291783,64.331059 13.575837,63.527676 15.17083,63.527676 z "
           id="path4837" />
        <path
           style="color:black;fill:black;fill-opacity:0.31600001;fill-rule:evenodd;stroke:none;stroke-width:2;stroke-linecap:round;stroke-linejoin:round;marker:none;marker-start:none;marker-mid:none;marker-end:none;stroke-miterlimit:4;stroke-dashoffset:0;stroke-opacity:1;visibility:visible;display:inline;overflow:visible"
           d="M 14.148992,63.527676 C 15.177882,63.527676 16.006193,64.331059 16.006193,65.328986 L 16.006193,116.96575 C 16.006193,117.96367 15.177882,118.76706 14.148992,118.76706 C 13.120103,118.76706 12.291792,117.96367 12.291792,116.96575 L 12.291792,65.328986 C 12.291792,64.331059 13.120103,63.527676 14.148992,63.527676 z "
           id="path4839" />
      </g>
    </g>
    <path
       style="color:black;fill:url(#radialGradient8371);fill-opacity:1;fill-rule:evenodd;stroke:none;stroke-width:2;stroke-linecap:round;stroke-linejoin:round;marker:none;marker-start:none;marker-mid:none;marker-end:none;stroke-miterlimit:4;stroke-dashoffset:0;stroke-opacity:1;visibility:visible;display:inline;overflow:visible"
       d="M 23.02381,18.878789 C 23.02381,20.615079 17.861142,22.024242 11.5,22.024242 C 5.1388569,22.024242 -0.023809521,20.615079 -0.023809521,18.878789 C -0.023809521,17.142498 5.1388569,15.733333 11.5,15.733333 C 17.861142,15.733333 23.02381,17.142498 23.02381,18.878789 z "
       id="path8363" />
    <g
       id="g4837"
       transform="matrix(0.468085,0,0,0.462808,-0.781661,2.123566)">
      <path
         transform="matrix(7.445791e-2,0,0,0.178505,3.608469,20.98591)"
         d="M 123.57409 110.63283 A 60.117123 12.691393 0 1 1  3.3398399,110.63283 A 60.117123 12.691393 0 1 1  123.57409 110.63283 z"
         sodipodi:ry="12.691393"
         sodipodi:rx="60.117123"
         sodipodi:cy="110.63283"
         sodipodi:cx="63.456963"
         id="path8373"
         style="opacity:1;color:black;fill:url(#radialGradient8375);fill-opacity:1;fill-rule:evenodd;stroke:none;stroke-width:2;stroke-linecap:round;stroke-linejoin:round;marker:none;marker-start:none;marker-mid:none;marker-end:none;stroke-miterlimit:4;stroke-dasharray:none;stroke-dashoffset:0;stroke-opacity:1;visibility:visible;display:inline;overflow:visible"
         sodipodi:type="arc" />
      <g
         transform="matrix(-0.602546,0,0,0.393459,17.97781,-5.995508)"
         id="g8339">
        <path
           style="color:black;fill:#a14e01;fill-opacity:1;fill-rule:evenodd;stroke:none;stroke-width:2;stroke-linecap:round;stroke-linejoin:round;marker:none;marker-start:none;marker-mid:none;marker-end:none;stroke-miterlimit:4;stroke-dashoffset:0;stroke-opacity:1;visibility:visible;display:inline;overflow:visible"
           d="M 15.17083,63.527676 L 16.999607,63.527676 C 18.594599,63.527676 19.878654,64.331059 19.878654,65.328986 L 19.878654,116.96575 C 19.878654,117.96367 18.594599,118.76706 16.999607,118.76706 L 15.17083,118.76706 C 13.575837,118.76706 12.291783,117.96367 12.291783,116.96575 L 12.291783,65.328986 C 12.291783,64.331059 13.575837,63.527676 15.17083,63.527676 z "
           id="rect7609" />
        <path
           style="color:black;fill:black;fill-opacity:0.31600001;fill-rule:evenodd;stroke:none;stroke-width:2;stroke-linecap:round;stroke-linejoin:round;marker:none;marker-start:none;marker-mid:none;marker-end:none;stroke-miterlimit:4;stroke-dashoffset:0;stroke-opacity:1;visibility:visible;display:inline;overflow:visible"
           d="M 14.148992,63.527676 C 15.177882,63.527676 16.006193,64.331059 16.006193,65.328986 L 16.006193,116.96575 C 16.006193,117.96367 15.177882,118.76706 14.148992,118.76706 C 13.120103,118.76706 12.291792,117.96367 12.291792,116.96575 L 12.291792,65.328986 C 12.291792,64.331059 13.120103,63.527676 14.148992,63.527676 z "
           id="rect8337" />
      </g>
    </g>
    <path
       style="fill:url(#linearGradient6143);fill-opacity:1;fill-rule:evenodd;stroke:#c05e04;stroke-width:1.00000048;stroke-linecap:round;stroke-linejoin:round;stroke-miterlimit:4;stroke-dasharray:none;stroke-opacity:1"
       d="M 0.50000007,11.838903 L 0.50000007,14.500005 L 16.229756,14.500005 L 21.500006,7.1679774 L 21.500006,4.5000034 L 5.8793121,4.5000034 L 0.50000007,11.838903 z "
       id="path3955"
       sodipodi:nodetypes="ccccccc" />
    <path
       style="fill:black;fill-opacity:0.23599997;fill-rule:evenodd;stroke:none;stroke-width:0.25pt;stroke-linecap:butt;stroke-linejoin:miter;stroke-opacity:1"
       d="M 16,14 L 21,7.0074394 L 21,5 L 16,12.027938 L 16,14 z "
       id="path4683"
       sodipodi:nodetypes="ccccc" />
    <path
       style="fill:white;fill-opacity:0.30400002;fill-rule:evenodd;stroke:none;stroke-width:0.25pt;stroke-linecap:butt;stroke-linejoin:miter;stroke-opacity:1"
       d="M 1.0014526,14 L 16,14 L 16,12 L 1,12 L 1.0014526,14 z "
       id="path6145"
       sodipodi:nodetypes="ccccc" />
    <path
       style="fill:url(#linearGradient7607);fill-opacity:1;fill-rule:evenodd;stroke:none;stroke-width:0.25pt;stroke-linecap:butt;stroke-linejoin:miter;stroke-opacity:1"
       d="M 2,11.79692 L 6.1027145,5 L 21,5 L 16.360695,12 C 12.596002,6.3588112 6.9872477,9.4005327 2,11.79692 z "
       id="path6873"
       sodipodi:nodetypes="ccccc" />
  </g>
</svg>
