<?xml version="1.0" encoding="UTF-8" standalone="no"?>
<!-- Created with Inkscape (http://www.inkscape.org/) -->
<svg
   xmlns:dc="http://purl.org/dc/elements/1.1/"
   xmlns:cc="http://web.resource.org/cc/"
   xmlns:rdf="http://www.w3.org/1999/02/22-rdf-syntax-ns#"
   xmlns:svg="http://www.w3.org/2000/svg"
   xmlns="http://www.w3.org/2000/svg"
   xmlns:xlink="http://www.w3.org/1999/xlink"
   xmlns:sodipodi="http://inkscape.sourceforge.net/DTD/sodipodi-0.dtd"
   xmlns:inkscape="http://www.inkscape.org/namespaces/inkscape"
   width="22"
   height="22"
   id="svg3917"
   sodipodi:version="0.32"
   inkscape:version="0.43+devel"
   sodipodi:docbase="/home/silvestre/Desktop/Neu/22x22/apps"
   sodipodi:docname="evolution.svg"
   inkscape:export-filename="/home/silvestre/Desktop/Neu/scalable/apps/evolution.png"
   inkscape:export-xdpi="90"
   inkscape:export-ydpi="90"
   version="1.0">
  <defs
     id="defs3919">
    <linearGradient
       id="linearGradient4934">
      <stop
         id="stop4938"
         offset="0"
         style="stop-color:#f9f9f9;stop-opacity:1" />
      <stop
         style="stop-color:#c3c3c3;stop-opacity:1"
         offset="1"
         id="stop4940" />
    </linearGradient>
    <linearGradient
       inkscape:collect="always"
       id="linearGradient8448">
      <stop
         style="stop-color:white;stop-opacity:1;"
         offset="0"
         id="stop8450" />
      <stop
         style="stop-color:#cecece;stop-opacity:1"
         offset="1"
         id="stop8452" />
    </linearGradient>
    <linearGradient
       id="linearGradient7493"
       inkscape:collect="always">
      <stop
         id="stop7495"
         offset="0"
         style="stop-color:#9a9a9a;stop-opacity:0.81568629" />
      <stop
         id="stop7497"
         offset="1"
         style="stop-color:#686868;stop-opacity:0;" />
    </linearGradient>
    <linearGradient
       inkscape:collect="always"
       id="linearGradient7463">
      <stop
         style="stop-color:white;stop-opacity:1;"
         offset="0"
         id="stop7465" />
      <stop
         style="stop-color:white;stop-opacity:0;"
         offset="1"
         id="stop7467" />
    </linearGradient>
    <linearGradient
       inkscape:collect="always"
       id="linearGradient6569">
      <stop
         style="stop-color:#fcfcfc;stop-opacity:1;"
         offset="0"
         id="stop6571" />
      <stop
         style="stop-color:#c4c4c4;stop-opacity:1"
         offset="1"
         id="stop6573" />
    </linearGradient>
    <linearGradient
       inkscape:collect="always"
       id="linearGradient6557">
      <stop
         style="stop-color:#e6e6e6;stop-opacity:1;"
         offset="0"
         id="stop6559" />
      <stop
         style="stop-color:#cacaca;stop-opacity:1"
         offset="1"
         id="stop6561" />
    </linearGradient>
    <linearGradient
       inkscape:collect="always"
       id="linearGradient6549">
      <stop
         style="stop-color:#f5f5f5;stop-opacity:1;"
         offset="0"
         id="stop6551" />
      <stop
         style="stop-color:#e6e6e6;stop-opacity:1"
         offset="1"
         id="stop6553" />
    </linearGradient>
    <linearGradient
       inkscape:collect="always"
       xlink:href="#linearGradient7493"
       id="linearGradient7538"
       gradientUnits="userSpaceOnUse"
       x1="12.639534"
       y1="34.123028"
       x2="6.4523492"
       y2="39.603107" />
    <linearGradient
       inkscape:collect="always"
       xlink:href="#linearGradient7463"
       id="linearGradient7540"
       gradientUnits="userSpaceOnUse"
       x1="12.948893"
       y1="35.404659"
       x2="7.601398"
       y2="40.486992" />
    <linearGradient
       inkscape:collect="always"
       xlink:href="#linearGradient7493"
       id="linearGradient7542"
       gradientUnits="userSpaceOnUse"
       x1="12.639534"
       y1="34.123028"
       x2="6.4523492"
       y2="39.603107" />
    <linearGradient
       inkscape:collect="always"
       xlink:href="#linearGradient7463"
       id="linearGradient7544"
       gradientUnits="userSpaceOnUse"
       x1="12.948893"
       y1="35.404659"
       x2="7.601398"
       y2="40.486992" />
    <linearGradient
       inkscape:collect="always"
       xlink:href="#linearGradient6549"
       id="linearGradient7555"
       gradientUnits="userSpaceOnUse"
       x1="13.75"
       y1="33.625"
       x2="13.75"
       y2="44.502872"
       gradientTransform="matrix(0.404761,0,0,0.428572,0.488096,1.000007)" />
    <linearGradient
       inkscape:collect="always"
       xlink:href="#linearGradient6557"
       id="linearGradient7561"
       gradientUnits="userSpaceOnUse"
       gradientTransform="matrix(0.499999,0,0,0.474433,-0.75,-8.66594e-2)"
       x1="21.655146"
       y1="7.9600782"
       x2="21.655146"
       y2="20.101498" />
    <linearGradient
       inkscape:collect="always"
       xlink:href="#linearGradient8448"
       id="linearGradient8454"
       x1="33.872341"
       y1="13.361703"
       x2="33.872341"
       y2="25.492441"
       gradientUnits="userSpaceOnUse"
       gradientTransform="matrix(0.475033,0,0,0.464519,-0.376519,7.094632e-2)" />
    <linearGradient
       inkscape:collect="always"
       xlink:href="#linearGradient6569"
       id="linearGradient8456"
       gradientUnits="userSpaceOnUse"
       gradientTransform="matrix(0.387766,-0.11635,0.109131,0.456078,0.100008,-0.425779)"
       x1="16.202868"
       y1="30.872061"
       x2="14.022277"
       y2="38.620178" />
    <linearGradient
       gradientUnits="userSpaceOnUse"
       y2="21.705061"
       x2="83.525612"
       y1="367.82727"
       x1="29.183714"
       id="linearGradient6540"
       xlink:href="#linearGradient6534"
       inkscape:collect="always" />
    <radialGradient
       gradientUnits="userSpaceOnUse"
       gradientTransform="matrix(0.91358,2.206993e-7,-4.100829e-8,0.169753,4.848958,95.59596)"
       r="54.105412"
       fy="136.4689"
       fx="56.109314"
       cy="115.14162"
       cx="56.109314"
       id="radialGradient6525"
       xlink:href="#linearGradient6519"
       inkscape:collect="always" />
    <linearGradient
       id="linearGradient4308">
      <stop
         id="stop4310"
         offset="0.0000000"
         style="stop-color:#ffffff;stop-opacity:0.22916669;" />
      <stop
         id="stop4312"
         offset="1"
         style="stop-color:#ffffff;stop-opacity:0;" />
    </linearGradient>
    <linearGradient
       id="linearGradient5044"
       inkscape:collect="always">
      <stop
         id="stop5046"
         offset="0"
         style="stop-color:#ffffff;stop-opacity:1;" />
      <stop
         id="stop5048"
         offset="1"
         style="stop-color:#ffffff;stop-opacity:0;" />
    </linearGradient>
    <linearGradient
       id="linearGradient6519"
       inkscape:collect="always">
      <stop
         id="stop6521"
         offset="0"
         style="stop-color:black;stop-opacity:0.39215687" />
      <stop
         id="stop6523"
         offset="1"
         style="stop-color:#000000;stop-opacity:0;" />
    </linearGradient>
    <linearGradient
       id="linearGradient6534"
       inkscape:collect="always">
      <stop
         id="stop6536"
         offset="0"
         style="stop-color:#000000;stop-opacity:0.39600000" />
      <stop
         id="stop6538"
         offset="1"
         style="stop-color:#000000;stop-opacity:0;" />
    </linearGradient>
    <linearGradient
       id="linearGradient4206"
       inkscape:collect="always">
      <stop
         id="stop4208"
         offset="0"
         style="stop-color:#ffffff;stop-opacity:1;" />
      <stop
         id="stop4210"
         offset="1"
         style="stop-color:#ffffff;stop-opacity:0.36909872" />
    </linearGradient>
    <linearGradient
       inkscape:collect="always"
       xlink:href="#linearGradient4206"
       id="linearGradient5825"
       gradientUnits="userSpaceOnUse"
       x1="59.64286"
       y1="14.832381"
       x2="59.64286"
       y2="121.82737"
       gradientTransform="matrix(7.086824e-2,0,0,7.08682e-2,0.730126,11.47908)" />
    <linearGradient
       inkscape:collect="always"
       xlink:href="#linearGradient5044"
       id="linearGradient5827"
       gradientUnits="userSpaceOnUse"
       gradientTransform="matrix(7.566514e-2,0,0,8.674645e-2,0.28259,11.28629)"
       x1="70.848709"
       y1="-18.184502"
       x2="67.070114"
       y2="69.195572" />
    <radialGradient
       inkscape:collect="always"
       xlink:href="#linearGradient4308"
       id="radialGradient5829"
       gradientUnits="userSpaceOnUse"
       gradientTransform="matrix(7.910036e-2,-2.014655e-2,2.115911e-2,7.506041e-2,-2.80364,13.44287)"
       cx="83.842957"
       cy="105.0536"
       fx="83.842957"
       fy="105.0536"
       r="56.442806" />
    <radialGradient
       inkscape:collect="always"
       xlink:href="#linearGradient4934"
       id="radialGradient5831"
       gradientUnits="userSpaceOnUse"
       gradientTransform="matrix(9.913012e-2,4.730943e-17,-4.98557e-17,9.913016e-2,-1.017666,9.591328)"
       cx="77.420738"
       cy="82.518806"
       fx="77.420738"
       fy="82.518806"
       r="56.442806" />
  </defs>
  <sodipodi:namedview
     id="base"
     pagecolor="#ffffff"
     bordercolor="#666666"
     borderopacity="1.0"
     inkscape:pageopacity="0.0"
     inkscape:pageshadow="2"
     inkscape:zoom="1"
     inkscape:cx="11"
     inkscape:cy="11"
     inkscape:current-layer="layer1"
     showgrid="false"
     inkscape:grid-bbox="true"
     inkscape:document-units="px"
     inkscape:window-width="823"
     inkscape:window-height="536"
     inkscape:window-x="130"
     inkscape:window-y="87"
     inkscape:showpageshadow="false"
     showborder="false"
     width="22px"
     height="22px" />
  <metadata
     id="metadata3922">
    <rdf:RDF>
      <cc:Work
         rdf:about="">
        <dc:format>image/svg+xml</dc:format>
        <dc:type
           rdf:resource="http://purl.org/dc/dcmitype/StillImage" />
      </cc:Work>
    </rdf:RDF>
  </metadata>
  <g
     id="layer1"
     inkscape:label="Layer 1"
     inkscape:groupmode="layer">
    <path
       style="fill:url(#linearGradient7561);fill-opacity:1;stroke:#a0a0a0;stroke-width:1.00000095;stroke-linecap:round;stroke-linejoin:round;stroke-miterlimit:4;stroke-dashoffset:0;stroke-opacity:1"
       d="M 0.5000003,8.2159059 C 0.5000003,8.2159059 8.400147,0.50000083 11.000001,0.50000083 C 13.688192,0.50000083 21.499999,8.2159059 21.499999,8.2159059 L 21.499999,20.677476 L 20.046067,21.500009 L 0.5000003,19.976799 L 0.5000003,8.2159059 z "
       id="path5674"
       sodipodi:nodetypes="czccccc" />
    <path
       style="fill:url(#linearGradient8456);fill-opacity:1;stroke:#a0a0a0;stroke-width:1.0000006;stroke-linecap:round;stroke-linejoin:round;stroke-miterlimit:4;stroke-dashoffset:0;stroke-opacity:1"
       d="M 1.5000011,9.4987628 L 14.826941,5.5 L 17.500009,16.67126 L 4.173069,19.499994 L 1.5000011,9.4987628 z "
       id="rect6567"
       sodipodi:nodetypes="ccccc" />
    <path
       style="fill:url(#linearGradient7555);fill-opacity:1;stroke:#a0a0a0;stroke-width:1.00000083;stroke-linecap:round;stroke-linejoin:round;stroke-miterlimit:4;stroke-dashoffset:0;stroke-opacity:1"
       d="M 1.5000003,8.7877805 C 1.5000003,8.467034 2.2324593,8.3683145 2.6238598,8.7877805 C 4.2899549,10.574754 5.6463484,13.880766 6.9252118,14.662551 C 8.5453373,15.652954 11.304376,15.567628 12.784924,14.662551 C 14.14717,13.829793 15.487283,10.804429 17.367518,8.7877805 C 17.73591,8.3929723 18.499995,8.4153367 18.499995,8.7877805 L 18.499995,20.499998 L 1.5000003,19.150455 L 1.5000003,8.7877805 z "
       id="rect3925"
       sodipodi:nodetypes="ccssccccc" />
    <path
       style="fill:none;fill-opacity:1;stroke:white;stroke-width:1.00000095;stroke-linecap:round;stroke-linejoin:round;stroke-miterlimit:4;stroke-dasharray:none;stroke-dashoffset:0;stroke-opacity:1"
       d="M 1.5000011,8.7233277 C 1.5000011,8.4008157 1.8074608,8.4175715 2.1988616,8.8393466 C 3.8649589,10.636153 5.3276043,14.366426 6.6064689,15.152513 C 8.2265967,16.148365 11.623139,16.062572 13.103689,15.152513 C 14.465937,14.315174 15.938866,11.070126 17.819102,9.0423803 C 18.187495,8.6453989 18.500017,8.3488334 18.500017,8.7233277 L 18.500017,20.499995 L 1.5000011,19.07814 L 1.5000011,8.7233277 z "
       id="path6565"
       sodipodi:nodetypes="ccssccccc" />
    <path
       style="fill:none;fill-opacity:1;stroke:white;stroke-width:1.00000048;stroke-linecap:round;stroke-linejoin:round;stroke-miterlimit:4;stroke-dashoffset:0;stroke-opacity:1"
       d="M 1.5000007,8.432511 C 1.5093369,8.5220769 7.9994775,2.1703147 10.315471,1.4999995 C 12.491628,1.4999995 18.500007,8.432511 18.500007,8.432511 L 18.500007,20.402163 L 1.5000007,19.02183 L 1.5000007,8.432511 z "
       id="path6582"
       sodipodi:nodetypes="cccccc" />
    <g
       id="g7479"
       transform="matrix(0.424432,0,0,0.456522,0.33553,8.69405e-2)">
      <path
         id="path6586"
         d="M 6,41 L 15,32"
         style="fill:none;fill-opacity:1;fill-rule:evenodd;stroke:url(#linearGradient7538);stroke-width:2.27177334px;stroke-linecap:butt;stroke-linejoin:miter;stroke-opacity:1" />
      <path
         id="path6588"
         d="M 6.9419417,41.5 L 15.941942,32.5"
         style="fill:none;fill-opacity:1;fill-rule:evenodd;stroke:url(#linearGradient7540);stroke-width:2.27177334px;stroke-linecap:butt;stroke-linejoin:miter;stroke-opacity:1" />
    </g>
    <g
       id="g7483"
       transform="matrix(-0.424432,0,0,0.456522,20.79031,8.69405e-2)">
      <path
         id="path7485"
         d="M 6,41 L 15,32"
         style="fill:none;fill-opacity:1;fill-rule:evenodd;stroke:url(#linearGradient7542);stroke-width:2.27177334px;stroke-linecap:butt;stroke-linejoin:miter;stroke-opacity:1" />
      <path
         id="path7487"
         d="M 6.9419417,41.5 L 15.941942,32.5"
         style="fill:none;fill-opacity:1;fill-rule:evenodd;stroke:url(#linearGradient7544);stroke-width:2.27177334px;stroke-linecap:butt;stroke-linejoin:miter;stroke-opacity:1" />
    </g>
    <path
       style="opacity:1;fill:url(#linearGradient8454);fill-opacity:1;stroke:none;stroke-width:1.00000036;stroke-linecap:round;stroke-linejoin:round;stroke-miterlimit:4;stroke-dashoffset:0;stroke-opacity:1"
       d="M 11.024292,0.9999825 C 10.744087,0.9999825 10.391503,1.0938098 10,1.2612749 C 10.112299,1.2366255 10.215155,1.2322421 10.311741,1.2322421 C 12.683279,1.2322421 18.996775,8.4758339 18.996775,8.4758339 L 18.996775,20.954529 L 19.151986,21 L 21,20.262693 L 21,8.3451887 C 21,8.3451887 13.578255,0.9999825 11.024292,0.9999825 z "
       id="path7564"
       sodipodi:nodetypes="ccscccccc" />
    <path
       sodipodi:type="arc"
       style="color:black;fill:url(#linearGradient6540);fill-opacity:1;fill-rule:evenodd;stroke:none;stroke-width:3;stroke-linecap:round;stroke-linejoin:round;marker:none;marker-start:none;marker-mid:none;marker-end:none;stroke-miterlimit:4;stroke-dasharray:none;stroke-dashoffset:0;stroke-opacity:1;visibility:visible;display:inline;overflow:visible"
       id="path6532"
       sodipodi:cx="67.306274"
       sodipodi:cy="70.848709"
       sodipodi:rx="56.442806"
       sodipodi:ry="56.442806"
       d="M 123.74908 70.848709 A 56.442806 56.442806 0 1 1  10.863468,70.848709 A 56.442806 56.442806 0 1 1  123.74908 70.848709 z"
       transform="matrix(7.828182e-2,0,-2.118142e-2,2.398172e-2,2.419529,18.27048)" />
    <path
       sodipodi:type="arc"
       style="color:black;fill:url(#radialGradient6525);fill-opacity:1;fill-rule:evenodd;stroke:none;stroke-width:3;stroke-linecap:round;stroke-linejoin:round;marker:none;marker-start:none;marker-mid:none;marker-end:none;stroke-miterlimit:4;stroke-dasharray:none;stroke-dashoffset:0;stroke-opacity:1;visibility:visible;display:inline;overflow:visible"
       id="path5065"
       sodipodi:cx="56.109314"
       sodipodi:cy="115.14162"
       sodipodi:rx="54.105412"
       sodipodi:ry="9.1845608"
       d="M 110.21473 115.14162 A 54.105412 9.1845608 0 1 1  2.0039024,115.14162 A 54.105412 9.1845608 0 1 1  110.21473 115.14162 z"
       transform="matrix(8.485614e-2,0,0,0.122815,0.10183,6.73088)" />
    <path
       style="color:black;fill:url(#radialGradient5831);fill-opacity:1;fill-rule:evenodd;stroke:#8c8c8c;stroke-width:0.99999976;stroke-linecap:round;stroke-linejoin:round;marker:none;marker-start:none;marker-mid:none;marker-end:none;stroke-miterlimit:4;stroke-dashoffset:0;stroke-opacity:1;visibility:visible;display:inline;overflow:visible"
       d="M 10.499999,16.500003 C 10.499999,19.260001 8.2599997,21.500001 5.4999994,21.500001 C 2.7400002,21.500001 0.50000094,19.260001 0.50000094,16.500003 C 0.50000094,13.740005 2.7400002,11.500006 5.4999994,11.500006 C 8.2599997,11.500006 10.499999,13.740005 10.499999,16.500003 z "
       id="path1359" />
    <path
       style="color:black;fill:url(#radialGradient5829);fill-opacity:1;fill-rule:evenodd;stroke:none;stroke-width:3;stroke-linecap:round;stroke-linejoin:round;marker:none;marker-start:none;marker-mid:none;marker-end:none;stroke-miterlimit:4;stroke-dashoffset:0;stroke-opacity:1;visibility:visible;display:inline;overflow:visible"
       d="M 9.397163,16.749998 C 9.397163,19.144005 7.451042,21.086968 5.053143,21.086968 C 2.655244,21.086968 0.709123,19.144005 0.709123,16.749998 C 0.709123,14.35599 2.655244,12.413028 5.053143,12.413028 C 7.451042,12.413028 9.397163,14.35599 9.397163,16.749998 z "
       id="path2854" />
    <path
       style="opacity:0.68619247;color:black;fill:url(#linearGradient5827);fill-opacity:1;fill-rule:evenodd;stroke:none;stroke-width:3;stroke-linecap:round;stroke-linejoin:round;marker:none;marker-start:none;marker-mid:none;marker-end:none;stroke-miterlimit:4;stroke-dashoffset:0;stroke-opacity:1;visibility:visible;display:inline;overflow:visible"
       d="M 8.484636,15.014776 C 8.484636,16.450942 6.951586,17.616526 5.062649,17.616526 C 3.173712,17.616526 1.640662,16.450942 1.640662,15.014776 C 1.640662,13.892298 3.317757,12.413028 5.062649,12.413028 C 7.013372,12.413028 8.484636,13.957378 8.484636,15.014776 z "
       id="path4316" />
    <path
       style="color:black;fill:none;fill-opacity:1;fill-rule:evenodd;stroke:url(#linearGradient5825);stroke-width:0.99999571;stroke-linecap:round;stroke-linejoin:round;marker:none;marker-start:none;marker-mid:none;marker-end:none;stroke-miterlimit:4;stroke-dashoffset:0;stroke-opacity:0.79399139;visibility:visible;display:inline;overflow:visible"
       d="M 9.5000035,16.500007 C 9.5000035,18.708006 7.7080017,20.500007 5.5000004,20.500007 C 3.2919992,20.500007 1.4999983,18.708006 1.4999983,16.500007 C 1.4999983,14.292007 3.2919992,12.500006 5.5000004,12.500006 C 7.7080017,12.500006 9.5000035,14.292007 9.5000035,16.500007 z "
       id="path3331" />
    <path
       style="opacity:0.68619247;fill:#474747;fill-opacity:0.83690989;stroke:none;stroke-width:1;stroke-linecap:round;stroke-linejoin:round;stroke-miterlimit:4;stroke-dasharray:none;stroke-dashoffset:0;stroke-opacity:1"
       d="M 5.010274,13 L 5.010274,13.986364 L 6.020976,13.986364 L 6.020976,13 L 5.010274,13 z M 3.9497717,13.35 L 3.5342465,13.604546 L 3.7579909,13.986364 L 4.2054794,13.763636 L 3.9497717,13.35 z M 7.0182649,13.35 L 6.7945206,13.763636 L 7.2420091,14.018182 L 7.4657535,13.604546 L 7.0182649,13.35 z M 2.5753425,14.527273 L 2.3515982,14.972727 L 2.7351598,15.195454 L 2.9908676,14.75 L 2.5753425,14.527273 z M 8.3926941,14.527273 L 7.9771689,14.75 L 8.2328767,15.195454 L 8.6164383,14.972727 L 8.3926941,14.527273 z M 2,15.995454 L 2,17.035227 L 2.9589042,17.035227 L 2.9589042,15.995454 L 2,15.995454 z M 8.0410958,15.995454 L 8.0410958,17.035227 L 9,17.035227 L 9,15.995454 L 8.0410958,15.995454 z M 2.7351598,17.772727 L 2.3196348,18.027273 L 2.5753425,18.440909 L 2.9589042,18.218182 L 2.7351598,17.772727 z M 8.2328767,17.772727 L 8.0091324,18.218182 L 8.3926941,18.440909 L 8.6484018,18.027273 L 8.2328767,17.772727 z M 7.2420091,18.981818 L 6.7945206,19.236364 L 7.0182649,19.65 L 7.4657535,19.395454 L 7.2420091,18.981818 z M 3.7579909,19.013636 L 3.5342465,19.395454 L 3.9497717,19.65 L 4.2054794,19.236364 L 3.7579909,19.013636 z M 5.010274,19.045454 L 5.010274,20 L 6.020976,20 L 6.020976,19.045454 L 5.010274,19.045454 z "
       id="rect5821"
       sodipodi:nodetypes="cccccccccccccccccccccccccccccccccccccccccccccccccccccccccccc" />
    <path
       style="opacity:0.96610879;fill:#414141;fill-opacity:1;stroke:none;stroke-width:1;stroke-linecap:round;stroke-linejoin:round;stroke-miterlimit:4;stroke-dashoffset:0;stroke-opacity:1"
       d="M 5.0949082,14.962635 L 5.0949082,16.888587 L 3.8125,18.459239 L 4.5185178,19 L 5.8333339,17.245244 L 6,17.016983 L 6,14.962635 L 5.0949082,14.962635 z "
       id="rect5849"
       sodipodi:nodetypes="cccccccc" />
  </g>
</svg>
