<?xml version="1.0" encoding="UTF-8" standalone="no"?>
<!-- Created with Inkscape (http://www.inkscape.org/) -->
<svg
   xmlns:dc="http://purl.org/dc/elements/1.1/"
   xmlns:cc="http://web.resource.org/cc/"
   xmlns:rdf="http://www.w3.org/1999/02/22-rdf-syntax-ns#"
   xmlns:svg="http://www.w3.org/2000/svg"
   xmlns="http://www.w3.org/2000/svg"
   xmlns:xlink="http://www.w3.org/1999/xlink"
   xmlns:sodipodi="http://inkscape.sourceforge.net/DTD/sodipodi-0.dtd"
   xmlns:inkscape="http://www.inkscape.org/namespaces/inkscape"
   width="22"
   height="22"
   id="svg6492"
   sodipodi:version="0.32"
   inkscape:version="0.43+devel"
   sodipodi:docbase="/home/silvestre/Desktop/Neu/22x22/apps"
   sodipodi:docname="inkscape.svg"
   version="1.0">
  <defs
     id="defs6494">
    <linearGradient
       id="linearGradient5702">
      <stop
         id="stop5704"
         offset="0"
         style="stop-color:#a53114;stop-opacity:1;" />
      <stop
         id="stop5706"
         offset="1"
         style="stop-color:#87250e;stop-opacity:1;" />
    </linearGradient>
    <linearGradient
       inkscape:collect="always"
       id="linearGradient5726">
      <stop
         style="stop-color:black;stop-opacity:0.34334764"
         offset="0"
         id="stop5728" />
      <stop
         style="stop-color:black;stop-opacity:0;"
         offset="1"
         id="stop5730" />
    </linearGradient>
    <linearGradient
       inkscape:collect="always"
       id="linearGradient4831">
      <stop
         style="stop-color:white;stop-opacity:1;"
         offset="0"
         id="stop4833" />
      <stop
         style="stop-color:white;stop-opacity:0.47639486"
         offset="1"
         id="stop4835" />
    </linearGradient>
    <linearGradient
       id="linearGradient12367">
      <stop
         style="stop-color:#000000;stop-opacity:0.30208334;"
         offset="0.0000000"
         id="stop12369" />
      <stop
         style="stop-color:#000000;stop-opacity:0;"
         offset="1"
         id="stop12371" />
    </linearGradient>
    <linearGradient
       inkscape:collect="always"
       id="linearGradient11631">
      <stop
         style="stop-color:#000000;stop-opacity:0.31600001"
         offset="0"
         id="stop11633" />
      <stop
         style="stop-color:#000000;stop-opacity:0;"
         offset="1"
         id="stop11635" />
    </linearGradient>
    <linearGradient
       id="linearGradient8691">
      <stop
         style="stop-color:#e52d00;stop-opacity:1;"
         offset="0"
         id="stop8693" />
      <stop
         style="stop-color:#bf2500;stop-opacity:1.0000000;"
         offset="1.0000000"
         id="stop8695" />
    </linearGradient>
    <linearGradient
       inkscape:collect="always"
       id="linearGradient7957">
      <stop
         style="stop-color:#ffffff;stop-opacity:1;"
         offset="0"
         id="stop7959" />
      <stop
         style="stop-color:#ffffff;stop-opacity:0;"
         offset="1"
         id="stop7961" />
    </linearGradient>
    <linearGradient
       inkscape:collect="always"
       xlink:href="#linearGradient7957"
       id="linearGradient7963"
       x1="37.406208"
       y1="3.1771064"
       x2="44.75386"
       y2="49.288692"
       gradientUnits="userSpaceOnUse" />
    <linearGradient
       inkscape:collect="always"
       xlink:href="#linearGradient8691"
       id="linearGradient8697"
       x1="44.419872"
       y1="47.50985"
       x2="53.103458"
       y2="101.61526"
       gradientUnits="userSpaceOnUse"
       gradientTransform="matrix(0.179976,0,0,0.185686,-0.668854,-1.907005)" />
    <linearGradient
       inkscape:collect="always"
       xlink:href="#linearGradient11631"
       id="linearGradient11637"
       x1="76.482338"
       y1="158.39255"
       x2="77.484291"
       y2="83.702858"
       gradientUnits="userSpaceOnUse"
       gradientTransform="matrix(0.186344,8.521533e-3,-7.616657e-3,0.208482,0.105927,-4.259054)" />
    <radialGradient
       inkscape:collect="always"
       xlink:href="#linearGradient12367"
       id="radialGradient12373"
       cx="55.608337"
       cy="112.13576"
       fx="55.608337"
       fy="112.13576"
       r="46.590771"
       gradientTransform="matrix(1,0,0,0.247312,-8.734329e-16,84.40326)"
       gradientUnits="userSpaceOnUse" />
    <linearGradient
       inkscape:collect="always"
       xlink:href="#linearGradient4831"
       id="linearGradient4837"
       x1="13.693345"
       y1="2.9121568"
       x2="24.474291"
       y2="43.147198"
       gradientUnits="userSpaceOnUse"
       gradientTransform="matrix(0.416996,0,0,0.439024,1.051661,0.402445)" />
    <linearGradient
       inkscape:collect="always"
       xlink:href="#linearGradient5726"
       id="linearGradient5732"
       x1="20.938927"
       y1="44.018185"
       x2="20.938927"
       y2="38.781044"
       gradientUnits="userSpaceOnUse"
       gradientTransform="matrix(0.442906,0,0,0.477612,0.564014,-1.014922)" />
    <linearGradient
       inkscape:collect="always"
       xlink:href="#linearGradient5702"
       id="linearGradient4827"
       gradientUnits="userSpaceOnUse"
       gradientTransform="matrix(0.220292,0,0,0.197227,-1.766522,-2.768448)"
       x1="44.419872"
       y1="47.50985"
       x2="53.103458"
       y2="101.61526" />
  </defs>
  <sodipodi:namedview
     id="base"
     pagecolor="#ffffff"
     bordercolor="#666666"
     borderopacity="1.0"
     inkscape:pageopacity="0.0"
     inkscape:pageshadow="2"
     inkscape:zoom="1"
     inkscape:cx="11"
     inkscape:cy="11"
     inkscape:document-units="px"
     inkscape:current-layer="layer1"
     showguides="true"
     inkscape:guide-bbox="true"
     inkscape:window-width="823"
     inkscape:window-height="536"
     inkscape:window-x="143"
     inkscape:window-y="95"
     showgrid="false"
     inkscape:showpageshadow="false"
     width="22px"
     height="22px"
     showborder="false" />
  <metadata
     id="metadata6497">
    <rdf:RDF>
      <cc:Work
         rdf:about="">
        <dc:format>image/svg+xml</dc:format>
        <dc:type
           rdf:resource="http://purl.org/dc/dcmitype/StillImage" />
      </cc:Work>
    </rdf:RDF>
  </metadata>
  <g
     inkscape:label="Layer 1"
     inkscape:groupmode="layer"
     id="layer1">
    <path
       style="color:black;fill:url(#linearGradient11637);fill-opacity:1;fill-rule:evenodd;stroke:none;stroke-width:2.79169869;stroke-linecap:round;stroke-linejoin:round;marker:none;marker-start:none;marker-mid:none;marker-end:none;stroke-miterlimit:4;stroke-dashoffset:0;stroke-opacity:1;visibility:visible;display:inline;overflow:visible"
       d="M 9.4945667,14.963509 C 11.65162,14.2538 14.723084,13.889054 17.802143,14.029862 C 20.881203,14.170667 22.594786,14.763296 21.810804,15.526731 C 21.026826,16.290165 17.297574,16.65179 15.145721,17.423851 C 13.018118,18.18722 16.956929,19.405927 15.346702,20.049991 C 13.736476,20.694049 10.082266,21.113564 7.0032077,20.972754 C 3.9241488,20.83195 2.7933137,20.184549 3.0304666,19.486765 C 3.2676222,18.788981 8.0429921,17.814708 9.0063464,17.179361 C 9.9246693,16.573712 7.3375142,15.673219 9.4945667,14.963509 z "
       id="path10903"
       sodipodi:nodetypes="czzzzzzzz" />
    <path
       style="color:black;fill:url(#linearGradient4827);fill-opacity:1;fill-rule:evenodd;stroke:#a80000;stroke-width:1.00000095;stroke-linecap:round;stroke-linejoin:round;marker:none;marker-start:none;marker-mid:none;marker-end:none;stroke-miterlimit:4;stroke-dasharray:none;stroke-dashoffset:0;stroke-opacity:1;visibility:visible;display:inline;overflow:visible"
       d="M 8.4037648,0.50000038 C 5.0917225,0.50000038 2.6249007,1.8580359 1.6461547,4.0319783 C 1.5849832,4.1678502 1.5532453,4.3037046 1.5293926,4.4389552 C 1.4854955,4.6654367 1.4910968,4.8978893 1.5439878,5.1220953 C 1.9275077,6.9060337 4.7700653,8.5990036 4.8425189,10.049422 C 4.933791,11.876572 1.7760849,15.091341 2.6970142,16.997098 C 3.6179439,18.902852 5.8214856,20.500007 9.1335283,20.500006 C 9.2567918,20.500006 9.3762363,20.489778 9.4984101,20.485472 C 9.6287013,20.489722 9.7589051,20.500006 9.8924824,20.500006 C 13.532496,20.500006 17.161466,18.804767 17.379856,16.241284 C 17.597972,13.68102 11.413644,12.2623 12.359083,9.9476774 C 13.315297,7.6066704 16.795472,6.7357211 16.22683,4.0319783 C 15.683745,1.4497639 12.729757,0.50000038 9.0897426,0.50000038 C 8.9660517,0.50000038 8.8463753,0.51141986 8.7248608,0.5145355 C 8.6177516,0.51158953 8.5122505,0.50000038 8.4037648,0.50000038 z "
       id="path3952" />
    <path
       sodipodi:type="arc"
       style="opacity:1;color:black;fill:url(#radialGradient12373);fill-opacity:1;fill-rule:evenodd;stroke:none;stroke-width:1;stroke-linecap:round;stroke-linejoin:round;marker:none;marker-start:none;marker-mid:none;marker-end:none;stroke-miterlimit:4;stroke-dasharray:none;stroke-dashoffset:0;stroke-opacity:1;visibility:visible;display:inline;overflow:visible"
       id="path11639"
       sodipodi:cx="55.608337"
       sodipodi:cy="112.13576"
       sodipodi:rx="46.590771"
       sodipodi:ry="11.522449"
       d="M 102.19911 112.13576 A 46.590771 11.522449 0 1 1  9.0175667,112.13576 A 46.590771 11.522449 0 1 1  102.19911 112.13576 z"
       transform="matrix(0.203903,0,0,0.216966,-1.838711,-4.829671)" />
    <path
       style="color:black;fill:url(#linearGradient8697);fill-opacity:1;fill-rule:evenodd;stroke:none;stroke-width:0.99999976;stroke-linecap:round;stroke-linejoin:round;marker:none;marker-start:none;marker-mid:none;marker-end:none;stroke-miterlimit:4;stroke-dasharray:none;stroke-dashoffset:0;stroke-opacity:1;visibility:visible;display:inline;overflow:visible"
       d="M 2.1360121,4.4961267 C 3.0148109,2.4493825 5.2284937,1.1702102 8.2023184,1.1702102 C 11.176143,1.1702102 13.597474,2.4723363 14.031312,4.4961267 C 14.465149,6.5199171 11.65633,7.8673428 10.87512,10.071377 C 10.102713,12.25057 15.454514,14.880271 14.968763,16.697474 C 14.483015,18.514674 11.827826,20 8.854001,20 C 5.8801761,20 3.9003512,18.491721 3.0734646,16.697474 C 2.2465784,14.903222 5.0815599,11.883435 4.9996083,10.163191 C 4.921487,8.5233616 1.2572134,6.542872 2.1360121,4.4961267 z "
       id="rect6500"
       sodipodi:nodetypes="czzzzzzzz" />
    <path
       style="color:black;fill:none;fill-opacity:1;fill-rule:evenodd;stroke:url(#linearGradient4837);stroke-width:1.00000203;stroke-linecap:round;stroke-linejoin:round;marker:none;marker-start:none;marker-mid:none;marker-end:none;stroke-miterlimit:4;stroke-dasharray:none;stroke-dashoffset:0;stroke-opacity:0.84549357;visibility:visible;display:inline;overflow:visible"
       d="M 2.5493916,4.6793554 C 3.0495597,2.7439711 5.4474993,1.5000025 8.2344076,1.5000025 C 11.021316,1.5000025 13.290458,2.7447473 13.697026,4.6793554 C 14.103597,6.6139626 11.222563,7.6595025 10.601382,10.008919 C 9.9827536,12.34868 14.925545,14.82584 14.470327,16.562965 C 14.015108,18.300086 11.632039,19.500015 8.8451301,19.500015 C 6.0582205,19.500015 4.1191604,17.772574 3.4279216,16.343023 C 2.7226435,14.884437 5.4785367,12.333772 5.4785367,10.246144 C 5.4785367,8.1602587 2.0517507,6.6049621 2.5493916,4.6793554 z "
       id="path4821"
       sodipodi:nodetypes="czzzzzzzz" />
    <path
       sodipodi:type="arc"
       style="opacity:1;color:black;fill:url(#linearGradient7963);fill-opacity:1;fill-rule:evenodd;stroke:none;stroke-width:4;stroke-linecap:round;stroke-linejoin:round;marker:none;marker-start:none;marker-mid:none;marker-end:none;stroke-miterlimit:4;stroke-dasharray:none;stroke-dashoffset:0;stroke-opacity:1;visibility:visible;display:inline;overflow:visible"
       id="path7229"
       sodipodi:cx="47.425732"
       sodipodi:cy="36.655373"
       sodipodi:rx="29.724577"
       sodipodi:ry="14.528305"
       d="M 77.150309 36.655373 A 29.724577 14.528305 0 1 1  17.701155,36.655373 A 29.724577 14.528305 0 1 1  77.150309 36.655373 z"
       transform="matrix(0.193866,0,0,0.215983,-0.956867,-3.779069)" />
    <path
       style="fill:none;fill-opacity:0.75;fill-rule:evenodd;stroke:#005bff;stroke-width:1.00000095;stroke-linecap:round;stroke-linejoin:miter;stroke-miterlimit:4;stroke-dasharray:none;stroke-opacity:1"
       d="M 14.318334,1.0216062 L 15.351765,9.8256392"
       id="path9439" />
    <path
       style="fill:none;fill-opacity:0.75;fill-rule:evenodd;stroke:#005bff;stroke-width:1.00000095;stroke-linecap:round;stroke-linejoin:miter;stroke-miterlimit:4;stroke-dasharray:none;stroke-opacity:1"
       d="M 1.76504,11.615287 L 3.1268571,20.689334"
       id="path10167" />
    <rect
       style="opacity:1;color:black;fill:#499aff;fill-opacity:1;fill-rule:evenodd;stroke:#004dae;stroke-width:1.00000119;stroke-linecap:round;stroke-linejoin:round;marker:none;marker-start:none;marker-mid:none;marker-end:none;stroke-miterlimit:4;stroke-dasharray:none;stroke-dashoffset:0;stroke-opacity:1;visibility:visible;display:inline;overflow:visible"
       id="rect9437"
       width="2.0896869"
       height="1.999995"
       x="1.4103125"
       y="14.500001" />
    <path
       sodipodi:type="arc"
       style="opacity:1;color:black;fill:#499aff;fill-opacity:1;fill-rule:evenodd;stroke:#005bff;stroke-width:4.21656704;stroke-linecap:round;stroke-linejoin:round;marker:none;marker-start:none;marker-mid:none;marker-end:none;stroke-miterlimit:4;stroke-dasharray:none;stroke-dashoffset:0;stroke-opacity:1;visibility:visible;display:inline;overflow:visible"
       id="path10899"
       sodipodi:cx="73.60173"
       sodipodi:cy="12.065799"
       sodipodi:rx="4.216548"
       sodipodi:ry="4.216548"
       d="M 77.818278 12.065799 A 4.216548 4.216548 0 1 1  69.385182,12.065799 A 4.216548 4.216548 0 1 1  77.818278 12.065799 z"
       transform="matrix(0.237159,0,0,0.237161,-15.95531,7.638464)" />
    <path
       sodipodi:type="arc"
       style="opacity:1;color:black;fill:#499aff;fill-opacity:1;fill-rule:evenodd;stroke:#005bff;stroke-width:4.21653652;stroke-linecap:round;stroke-linejoin:round;marker:none;marker-start:none;marker-mid:none;marker-end:none;stroke-miterlimit:4;stroke-dasharray:none;stroke-dashoffset:0;stroke-opacity:1;visibility:visible;display:inline;overflow:visible"
       id="path4815"
       sodipodi:cx="73.60173"
       sodipodi:cy="12.065799"
       sodipodi:rx="4.216548"
       sodipodi:ry="4.216548"
       d="M 77.818278 12.065799 A 4.216548 4.216548 0 1 1  69.385182,12.065799 A 4.216548 4.216548 0 1 1  77.818278 12.065799 z"
       transform="matrix(0.237162,0,0,0.237161,-13.95554,17.63846)"
       inkscape:transform-center-y="0.29223179"
       inkscape:transform-center-x="2.8389257e-05" />
    <path
       sodipodi:type="arc"
       style="opacity:1;color:black;fill:#499aff;fill-opacity:1;fill-rule:evenodd;stroke:#005bff;stroke-width:4.21654463;stroke-linecap:round;stroke-linejoin:round;marker:none;marker-start:none;marker-mid:none;marker-end:none;stroke-miterlimit:4;stroke-dasharray:none;stroke-dashoffset:0;stroke-opacity:1;visibility:visible;display:inline;overflow:visible"
       id="path4817"
       sodipodi:cx="73.60173"
       sodipodi:cy="12.065799"
       sodipodi:rx="4.216548"
       sodipodi:ry="4.216548"
       d="M 77.818278 12.065799 A 4.216548 4.216548 0 1 1  69.385182,12.065799 A 4.216548 4.216548 0 1 1  77.818278 12.065799 z"
       transform="matrix(0.237161,0,0,0.237161,-1.955454,6.638464)" />
    <path
       sodipodi:type="arc"
       style="opacity:1;color:black;fill:#499aff;fill-opacity:1;fill-rule:evenodd;stroke:#005bff;stroke-width:4.21650887;stroke-linecap:round;stroke-linejoin:round;marker:none;marker-start:none;marker-mid:none;marker-end:none;stroke-miterlimit:4;stroke-dasharray:none;stroke-dashoffset:0;stroke-opacity:1;visibility:visible;display:inline;overflow:visible"
       id="path4819"
       sodipodi:cx="73.60173"
       sodipodi:cy="12.065799"
       sodipodi:rx="4.216548"
       sodipodi:ry="4.216548"
       d="M 77.818278 12.065799 A 4.216548 4.216548 0 1 1  69.385182,12.065799 A 4.216548 4.216548 0 1 1  77.818278 12.065799 z"
       transform="matrix(0.237165,0,0,0.237161,-2.95573,-1.361543)" />
    <path
       style="opacity:0.5;fill:url(#linearGradient5732);fill-opacity:1;stroke:none;stroke-width:1;stroke-linecap:round;stroke-linejoin:round;stroke-miterlimit:4;stroke-dashoffset:0;stroke-opacity:0.47639483"
       d="M 14.058824,15 C 13.114525,16.116387 11.287485,17.203776 9.2006917,17.522388 C 6.553907,17.926501 4.067259,16.821865 3.1522492,15.552238 C 3.0523335,15.769457 3,16.005018 3,16.253732 C 3,17.820558 5.7269798,20 8.9792384,20 C 12.157535,20 14.999999,18.179083 15,16.731344 C 15,16.09932 14.646911,15.500452 14.058824,15 z "
       id="path4839" />
    <rect
       style="opacity:1;color:black;fill:#499aff;fill-opacity:1;fill-rule:evenodd;stroke:#004dae;stroke-width:1.00000143;stroke-linecap:round;stroke-linejoin:round;marker:none;marker-start:none;marker-mid:none;marker-end:none;stroke-miterlimit:4;stroke-dasharray:none;stroke-dashoffset:0;stroke-opacity:1;visibility:visible;display:inline;overflow:visible"
       id="rect4825"
       width="1.9999942"
       height="2.0000005"
       x="13.500001"
       y="4.499999" />
  </g>
</svg>
