<?xml version="1.0" encoding="UTF-8" standalone="no"?>
<!-- Created with Inkscape (http://www.inkscape.org/) -->
<svg
   xmlns:dc="http://purl.org/dc/elements/1.1/"
   xmlns:cc="http://web.resource.org/cc/"
   xmlns:rdf="http://www.w3.org/1999/02/22-rdf-syntax-ns#"
   xmlns:svg="http://www.w3.org/2000/svg"
   xmlns="http://www.w3.org/2000/svg"
   xmlns:xlink="http://www.w3.org/1999/xlink"
   xmlns:sodipodi="http://inkscape.sourceforge.net/DTD/sodipodi-0.dtd"
   xmlns:inkscape="http://www.inkscape.org/namespaces/inkscape"
   width="22"
   height="22"
   id="svg2"
   sodipodi:version="0.32"
   inkscape:version="0.43+devel"
   version="1.0"
   sodipodi:docbase="/home/silvestre/Desktop/Neu/22x22/apps"
   sodipodi:docname="help-browser.svg">
  <defs
     id="defs4">
    <linearGradient
       inkscape:collect="always"
       id="linearGradient7752">
      <stop
         style="stop-color:#000000;stop-opacity:0.36909872"
         offset="0"
         id="stop7754" />
      <stop
         style="stop-color:#000000;stop-opacity:0;"
         offset="1"
         id="stop7756" />
    </linearGradient>
    <linearGradient
       inkscape:collect="always"
       id="linearGradient5996">
      <stop
         style="stop-color:#000000;stop-opacity:0.19313304"
         offset="0"
         id="stop5998" />
      <stop
         style="stop-color:#000000;stop-opacity:0;"
         offset="1"
         id="stop6000" />
    </linearGradient>
    <linearGradient
       inkscape:collect="always"
       id="linearGradient5104">
      <stop
         style="stop-color:#000000;stop-opacity:1;"
         offset="0"
         id="stop5106" />
      <stop
         style="stop-color:#000000;stop-opacity:0;"
         offset="1"
         id="stop5108" />
    </linearGradient>
    <linearGradient
       inkscape:collect="always"
       id="linearGradient4197">
      <stop
         style="stop-color:#ffffff;stop-opacity:1;"
         offset="0"
         id="stop4199" />
      <stop
         style="stop-color:#ffffff;stop-opacity:0;"
         offset="1"
         id="stop4201" />
    </linearGradient>
    <linearGradient
       inkscape:collect="always"
       id="linearGradient4187">
      <stop
         style="stop-color:#ffffff;stop-opacity:1;"
         offset="0"
         id="stop4189" />
      <stop
         style="stop-color:#ffffff;stop-opacity:0.27843139"
         offset="1"
         id="stop4191" />
    </linearGradient>
    <linearGradient
       id="linearGradient4176">
      <stop
         style="stop-color:#51a0f8;stop-opacity:1;"
         offset="0"
         id="stop4178" />
      <stop
         style="stop-color:#0263d0;stop-opacity:1;"
         offset="1"
         id="stop4180" />
    </linearGradient>
    <linearGradient
       inkscape:collect="always"
       xlink:href="#linearGradient4187"
       id="linearGradient4193"
       x1="75.787148"
       y1="3.4719357"
       x2="57.994637"
       y2="98.832764"
       gradientUnits="userSpaceOnUse"
       gradientTransform="matrix(0.169323,0,0,0.189243,9.303167e-2,-2.150614)" />
    <radialGradient
       inkscape:collect="always"
       xlink:href="#linearGradient4197"
       id="radialGradient4203"
       cx="62.970509"
       cy="48.729244"
       fx="62.970509"
       fy="33.755856"
       r="32.085793"
       gradientTransform="matrix(0.188385,0,0,0.142001,-1.752385,0.970951)"
       gradientUnits="userSpaceOnUse" />
    <radialGradient
       inkscape:collect="always"
       xlink:href="#linearGradient4176"
       id="radialGradient4227"
       gradientUnits="userSpaceOnUse"
       cx="67.655052"
       cy="76.752853"
       fx="67.655052"
       fy="76.752853"
       r="49.918098"
       gradientTransform="matrix(0.216237,0,0,0.216238,-1.206714,-2.097177)" />
    <radialGradient
       inkscape:collect="always"
       xlink:href="#linearGradient5104"
       id="radialGradient5113"
       gradientUnits="userSpaceOnUse"
       gradientTransform="matrix(0.152665,0,0,3.374028e-2,1.255219,16.21353)"
       cx="52.5"
       cy="114"
       fx="50.669872"
       fy="145.41862"
       r="57.5" />
    <linearGradient
       inkscape:collect="always"
       xlink:href="#linearGradient5996"
       id="linearGradient6002"
       x1="17.101027"
       y1="141.30928"
       x2="111.17001"
       y2="86.99852"
       gradientUnits="userSpaceOnUse"
       gradientTransform="matrix(0.165627,0,0,0.165265,0.409078,0.889231)" />
    <linearGradient
       inkscape:collect="always"
       xlink:href="#linearGradient7752"
       id="linearGradient7758"
       x1="113.84499"
       y1="63.299728"
       x2="36.392986"
       y2="63.299728"
       gradientUnits="userSpaceOnUse"
       gradientTransform="matrix(0.189755,0,0,0.179283,0.473264,-1.458477)" />
  </defs>
  <sodipodi:namedview
     id="base"
     pagecolor="#ffffff"
     bordercolor="#666666"
     borderopacity="1.0"
     inkscape:pageopacity="0.0"
     inkscape:pageshadow="2"
     inkscape:zoom="1"
     inkscape:cx="11"
     inkscape:cy="11"
     inkscape:document-units="px"
     inkscape:current-layer="layer1"
     inkscape:window-width="823"
     inkscape:window-height="536"
     inkscape:window-x="70"
     inkscape:window-y="123"
     inkscape:showpageshadow="false"
     width="22px"
     height="22px"
     showgrid="false"
     showborder="false" />
  <metadata
     id="metadata7">
    <rdf:RDF>
      <cc:Work
         rdf:about="">
        <dc:format>image/svg+xml</dc:format>
        <dc:type
           rdf:resource="http://purl.org/dc/dcmitype/StillImage" />
      </cc:Work>
    </rdf:RDF>
  </metadata>
  <g
     inkscape:label="Capa 1"
     inkscape:groupmode="layer"
     id="layer1">
    <path
       style="fill:url(#linearGradient6002);fill-opacity:1;stroke:none;stroke-width:3.00000095;stroke-linecap:round;stroke-linejoin:miter;stroke-miterlimit:4;stroke-dashoffset:0;stroke-opacity:1"
       d="M 21.133468,19.232058 C 19.738151,20.433431 14.849869,21.408453 10.222128,21.408453 C 5.5943884,21.408453 2.9709757,20.433431 4.3662942,19.232058 C 5.7616145,18.03069 10.649894,17.055663 15.277634,17.055663 C 19.905375,17.055663 22.528789,18.03069 21.133468,19.232058 z "
       id="path5119" />
    <path
       style="opacity:0.43096236;fill:url(#radialGradient5113);fill-opacity:1;stroke:none;stroke-width:2;stroke-linecap:round;stroke-linejoin:miter;stroke-miterlimit:4;stroke-dashoffset:0;stroke-opacity:1"
       d="M 18.048409,20.059935 C 18.048409,21.130851 14.115749,22 9.2701504,22 C 4.4245518,22 0.49189203,21.130851 0.49189203,20.059935 C 0.49189203,18.989018 4.4245518,18.11987 9.2701504,18.11987 C 14.115749,18.11987 18.048409,18.989018 18.048409,20.059935 z "
       id="path4229" />
    <path
       style="fill:url(#radialGradient4227);fill-opacity:1;stroke:#04448c;stroke-width:1.00000143;stroke-linecap:round;stroke-linejoin:miter;stroke-miterlimit:4;stroke-dasharray:none;stroke-dashoffset:0;stroke-opacity:1"
       d="M 21.500013,11.000005 C 21.500013,16.796005 16.796009,21.500003 11.000006,21.500003 C 5.2040031,21.500003 0.50000099,16.796005 0.50000099,11.000005 C 0.50000099,5.2040013 5.2040031,0.50000084 11.000006,0.50000084 C 16.796009,0.50000084 21.500013,5.2040013 21.500013,11.000005 z "
       id="path3305" />
    <path
       style="fill:none;fill-opacity:1;stroke:url(#linearGradient7758);stroke-width:1.99999976;stroke-linecap:round;stroke-linejoin:miter;stroke-miterlimit:4;stroke-dasharray:none;stroke-dashoffset:0;stroke-opacity:1"
       d="M 19.999995,10.999997 C 19.999995,15.967993 15.967996,19.999992 10.999998,19.999992 C 6.0319993,19.999992 2.0000003,15.967993 2.0000003,10.999997 C 2.0000003,6.0319967 6.0319993,1.9999983 10.999998,1.9999983 C 15.967996,1.9999983 19.999995,6.0319967 19.999995,10.999997 z "
       id="path6877" />
    <path
       style="fill:none;fill-opacity:1;stroke:url(#linearGradient4193);stroke-width:1;stroke-linecap:round;stroke-linejoin:miter;stroke-miterlimit:4;stroke-dasharray:none;stroke-dashoffset:0;stroke-opacity:1"
       d="M 18.499996,10.999998 C 18.499996,16.243997 14.691997,20.499995 9.9999981,20.499995 C 5.3079988,20.499995 1.4999996,16.243997 1.4999996,10.999998 C 1.4999996,5.7559982 5.3079988,1.5000001 9.9999981,1.5000001 C 14.691997,1.5000001 18.499996,5.7559982 18.499996,10.999998 z "
       id="path4185" />
    <path
       style="opacity:0.5690377;fill:url(#radialGradient4203);fill-opacity:1;stroke:none;stroke-width:2;stroke-linecap:round;stroke-linejoin:miter;stroke-miterlimit:4;stroke-dashoffset:0;stroke-opacity:0.27843137"
       d="M 16.15486,7.890569 C 16.15486,10.405608 13.446923,12.446799 10.110356,12.446799 C 6.7737909,12.446799 4.0658532,10.405608 4.0658532,7.890569 C 4.0658532,5.375531 6.7737909,3.334342 10.110356,3.334342 C 13.446923,3.334342 16.15486,5.375531 16.15486,7.890569 z "
       id="path4195" />
    <path
       style="font-size:8px;font-style:normal;font-variant:normal;font-weight:bold;font-stretch:normal;text-align:start;line-height:125%;writing-mode:lr-tb;text-anchor:start;fill:white;fill-opacity:1;stroke:none;stroke-width:1px;stroke-linecap:butt;stroke-linejoin:miter;stroke-opacity:1;font-family:Bitstream Vera Sans"
       d="M 10.679556,12.586358 L 8.2585121,12.488764 L 8.2585121,12.171112 C 8.2585108,11.816733 8.3322821,11.600999 8.4798277,11.328726 C 8.6273677,11.052142 8.9381008,10.702076 9.4120283,10.278539 L 9.8412438,9.902546 C 10.096088,9.6778222 10.281632,9.4660538 10.397883,9.2672506 C 10.518595,9.068456 10.578954,8.8696527 10.578958,8.6708447 C 10.578954,8.3683304 10.471649,8.132795 10.257047,7.9642395 C 10.042436,7.7913769 9.7428795,7.7049409 9.3583765,7.7049342 C 8.9962242,7.7049409 8.605013,7.9248054 8.1847426,8.0717379 C 7.7644668,8.2143623 7.3263098,8.5746853 6.8702706,8.8599141 L 6.8702706,6.9707612 C 7.4112587,6.7892569 7.9053026,6.3624918 8.3524042,6.2760482 C 8.7995001,6.1896216 9.2309508,6.0000095 9.6467558,6 C 10.737674,6.0000095 11.569278,6.2160973 12.141569,6.6482633 C 12.713851,7.0761261 12.999994,7.7027797 13,8.528226 C 12.999994,8.9517665 12.91281,9.3320798 12.738447,9.6691727 C 12.564072,10.001955 12.266751,10.360657 11.846484,10.74529 L 11.417269,11.114798 C 11.113237,11.382754 10.914278,11.598839 10.820392,11.763063 C 10.726497,11.922972 10.679551,12.100165 10.679556,12.29464 L 10.679556,12.586358 M 8.2585121,13.545791 L 10.679556,13.643388 L 10.679556,16 L 8.2585121,15.560815 L 8.2585121,13.545791"
       id="text5082"
       sodipodi:nodetypes="cccccccscscccsscsccccccccccc" />
    <path
       style="fill:none;fill-opacity:1;stroke:white;stroke-width:1.99999988;stroke-linecap:round;stroke-linejoin:miter;stroke-miterlimit:4;stroke-dasharray:none;stroke-dashoffset:0;stroke-opacity:0.91845494"
       d="M 15.999994,11 C 15.999994,14.864004 13.311996,18.000006 9.9999971,18.000006 C 6.6879984,18.000006 3.9999998,14.864004 3.9999998,11 C 3.9999998,7.1360028 6.6879984,4.0000011 9.9999971,4.0000011 C 13.311996,4.0000011 15.999994,7.1360028 15.999994,11 z "
       id="path3333" />
  </g>
</svg>
