<?xml version="1.0" encoding="UTF-8" standalone="no"?>
<!-- Created with Inkscape (http://www.inkscape.org/) -->
<svg
   xmlns:dc="http://purl.org/dc/elements/1.1/"
   xmlns:cc="http://web.resource.org/cc/"
   xmlns:rdf="http://www.w3.org/1999/02/22-rdf-syntax-ns#"
   xmlns:svg="http://www.w3.org/2000/svg"
   xmlns="http://www.w3.org/2000/svg"
   xmlns:xlink="http://www.w3.org/1999/xlink"
   xmlns:sodipodi="http://inkscape.sourceforge.net/DTD/sodipodi-0.dtd"
   xmlns:inkscape="http://www.inkscape.org/namespaces/inkscape"
   width="22"
   height="22"
   id="svg5055"
   sodipodi:version="0.32"
   inkscape:version="0.43+devel"
   sodipodi:docbase="/home/silvestre/Desktop/Neu/22x22/apps"
   sodipodi:docname="gnome-settings-font.svg"
   version="1.0">
  <defs
     id="defs3">
    <linearGradient
       inkscape:collect="always"
       id="linearGradient6553">
      <stop
         style="stop-color:black;stop-opacity:0.31330472"
         offset="0"
         id="stop6555" />
      <stop
         style="stop-color:black;stop-opacity:0;"
         offset="1"
         id="stop6557" />
    </linearGradient>
    <linearGradient
       id="linearGradient6766">
      <stop
         style="stop-color:#bfbfbf;stop-opacity:1;"
         offset="0"
         id="stop6768" />
      <stop
         id="stop6774"
         offset="0.5"
         style="stop-color:#575757;stop-opacity:1;" />
      <stop
         style="stop-color:black;stop-opacity:1"
         offset="1"
         id="stop6770" />
    </linearGradient>
    <linearGradient
       inkscape:collect="always"
       id="linearGradient5001">
      <stop
         style="stop-color:#f0f0f0;stop-opacity:1"
         offset="0"
         id="stop5003" />
      <stop
         style="stop-color:#dadada;stop-opacity:1"
         offset="1"
         id="stop5005" />
    </linearGradient>
    <linearGradient
       inkscape:collect="always"
       xlink:href="#linearGradient5001"
       id="linearGradient5007"
       x1="79.578094"
       y1="-0.63259059"
       x2="79.578094"
       y2="32.894043"
       gradientUnits="userSpaceOnUse"
       gradientTransform="matrix(0.488453,0,0,0.488223,21.11074,-19.32159)" />
    <linearGradient
       inkscape:collect="always"
       xlink:href="#linearGradient6766"
       id="linearGradient6772"
       x1="66.174919"
       y1="-16.689276"
       x2="66.174919"
       y2="16.576611"
       gradientUnits="userSpaceOnUse"
       gradientTransform="matrix(0.421053,0,0,0.512301,24.93428,-19.83286)" />
    <linearGradient
       inkscape:collect="always"
       xlink:href="#linearGradient6553"
       id="linearGradient6559"
       x1="109.1167"
       y1="3.4664507"
       x2="100.93536"
       y2="3.4664507"
       gradientUnits="userSpaceOnUse"
       gradientTransform="matrix(0.48837,0,0,0.47619,20.74334,-19.32169)" />
  </defs>
  <sodipodi:namedview
     id="base"
     pagecolor="#ffffff"
     bordercolor="#666666"
     borderopacity="1.0"
     inkscape:pageopacity="0.0"
     inkscape:pageshadow="2"
     inkscape:zoom="1"
     inkscape:cx="11"
     inkscape:cy="11"
     inkscape:document-units="px"
     inkscape:current-layer="g2106"
     inkscape:window-width="823"
     inkscape:window-height="536"
     inkscape:window-x="33"
     inkscape:window-y="45"
     inkscape:showpageshadow="false"
     width="22px"
     height="22px"
     showgrid="false"
     showborder="false" />
  <metadata
     id="metadata4">
    <rdf:RDF>
      <cc:Work
         rdf:about="">
        <dc:format>image/svg+xml</dc:format>
        <dc:type
           rdf:resource="http://purl.org/dc/dcmitype/StillImage" />
      </cc:Work>
    </rdf:RDF>
  </metadata>
  <g
     inkscape:label="Layer 1"
     inkscape:groupmode="layer"
     id="layer1">
    <g
       transform="matrix(0.684082,0,0,0.684082,-29.64407,24.41546)"
       id="g2106">
      <path
         style="fill:url(#linearGradient5007);fill-opacity:1;stroke:#b4b4b4;stroke-width:1.45190561;stroke-linecap:round;stroke-linejoin:round;stroke-miterlimit:4;stroke-dashoffset:0;stroke-opacity:1"
         d="M 45.036937,-33.446384 L 70.90816,-34.964876 L 73.7911,-33.689344 C 74.395419,-33.452786 74.768005,-33.253848 74.768005,-32.712898 L 74.768005,-6.3410887 C 74.768005,-5.800137 74.363859,-5.5538886 73.7911,-5.3646425 L 70.718826,-4.2569011 L 45.036937,-6.3972162 C 44.495732,-6.3972162 44.060032,-6.8327117 44.060032,-7.3736625 L 44.060032,-32.469938 C 44.060032,-33.01089 44.495732,-33.446384 45.036937,-33.446384 z "
         id="rect4126"
         sodipodi:nodetypes="ccccccccccc" />
      <path
         style="fill:none;fill-opacity:1;stroke:white;stroke-width:1.38591015;stroke-linecap:round;stroke-linejoin:round;stroke-miterlimit:4;stroke-dashoffset:0;stroke-opacity:1"
         d="M 45.721613,-32.110637 L 70.272508,-33.536068 L 73.106425,-32.28387 C 73.235377,-32.28387 73.339195,-32.180044 73.339195,-32.051074 L 73.339195,-7.0306352 C 73.339195,-6.9016663 73.235377,-6.7978391 73.106425,-6.7978391 L 70.145082,-5.6857196 L 45.721613,-7.779492 C 45.592659,-7.779492 45.488843,-7.8833192 45.488843,-8.012288 L 45.488843,-31.877841 C 45.488843,-32.006811 45.592659,-32.110637 45.721613,-32.110637 z "
         id="rect5016"
         sodipodi:nodetypes="ccccccccccc" />
      <path
         style="font-size:133.99008179px;font-style:normal;font-variant:normal;font-weight:bold;font-stretch:normal;line-height:100%;writing-mode:lr-tb;text-anchor:start;fill:url(#linearGradient6772);fill-opacity:1;stroke:none;stroke-width:1.28486145;stroke-linecap:round;stroke-linejoin:round;stroke-miterlimit:4;stroke-dasharray:none;stroke-opacity:1;font-family:Luxi Sans"
         d="M 46.257715,-11.131407 L 51.528734,-28.381773 L 54.357087,-28.381773 L 59.609742,-11.131407 L 56.71711,-11.131407 L 55.330482,-15.735388 L 49.710508,-15.735388 L 48.323882,-11.131407 L 46.257715,-11.131407 M 50.408413,-18.031553 L 54.632576,-18.031553 L 52.520494,-24.90839 L 50.408413,-18.031553 M 69.582428,-13.10121 L 69.646724,-11.166371 C 69.052884,-10.948798 68.541692,-10.840016 68.113166,-10.840016 C 67.041814,-10.840016 66.328603,-11.395601 65.973534,-12.506772 L 65.854157,-12.506772 C 65.162367,-11.395601 64.311413,-10.840016 63.301292,-10.840016 C 62.425847,-10.840016 61.712638,-11.185799 61.161662,-11.877367 C 60.610684,-12.561163 60.335196,-13.458646 60.335198,-14.569824 C 60.335196,-17.48373 61.933029,-18.940687 65.128702,-18.940694 L 65.854157,-18.940694 L 65.854157,-20.10626 C 65.854149,-21.434994 65.321538,-22.099365 64.25632,-22.099376 C 63.356385,-22.099365 62.346261,-21.718614 61.225944,-20.957122 L 61.225944,-23.334875 C 62.370749,-23.925415 63.536985,-24.220692 64.724652,-24.220705 C 67.21629,-24.220692 68.462105,-22.888064 68.462113,-20.222815 L 68.462113,-14.558169 C 68.462105,-13.555781 68.710046,-13.054587 69.205932,-13.054587 C 69.32224,-13.054587 69.447739,-13.070127 69.582428,-13.10121 M 65.854157,-14.360022 L 65.854157,-16.959233 L 65.211349,-16.959233 C 63.699216,-16.959227 62.943155,-16.267659 62.943158,-14.884525 C 62.943155,-14.394984 63.071714,-13.990924 63.328843,-13.672338 C 63.57984,-13.345979 63.901241,-13.182799 64.293052,-13.182799 C 64.893002,-13.182799 65.413367,-13.575205 65.854157,-14.360022"
         id="text1538" />
      <path
         style="fill:none;fill-opacity:0.75;fill-rule:evenodd;stroke:white;stroke-width:1.46181321px;stroke-linecap:butt;stroke-linejoin:miter;stroke-opacity:0.80257509"
         d="M 70.37763,-34.280191 L 70.37763,-5.7236706"
         id="path4802" />
      <path
         style="opacity:0.87029269;fill:url(#linearGradient6559);fill-opacity:1;stroke:none;stroke-width:1;stroke-linecap:round;stroke-linejoin:miter;stroke-miterlimit:4;stroke-dashoffset:0;stroke-opacity:0.80257509"
         d="M 70.462633,-34.229025 L 74.032159,-32.721608 L 74.032159,-6.2848363 L 70.462633,-4.992764 L 70.462633,-34.229025 z "
         id="rect5677"
         sodipodi:nodetypes="ccccc" />
    </g>
  </g>
</svg>
