<?xml version="1.0" encoding="UTF-8" standalone="no"?>
<!-- Created with Inkscape (http://www.inkscape.org/) -->
<svg
   xmlns:dc="http://purl.org/dc/elements/1.1/"
   xmlns:cc="http://web.resource.org/cc/"
   xmlns:rdf="http://www.w3.org/1999/02/22-rdf-syntax-ns#"
   xmlns:svg="http://www.w3.org/2000/svg"
   xmlns="http://www.w3.org/2000/svg"
   xmlns:xlink="http://www.w3.org/1999/xlink"
   xmlns:sodipodi="http://inkscape.sourceforge.net/DTD/sodipodi-0.dtd"
   xmlns:inkscape="http://www.inkscape.org/namespaces/inkscape"
   width="22"
   height="22"
   id="svg14"
   sodipodi:version="0.32"
   inkscape:version="0.43+devel"
   sodipodi:docbase="/home/silvestre/Desktop/Neu/22x22/apps"
   sodipodi:docname="preferences-desktop-assistive-technology.svg"
   version="1.0">
  <defs
     id="defs3">
    <linearGradient
       inkscape:collect="always"
       id="linearGradient2843">
      <stop
         style="stop-color:white;stop-opacity:0.79607844"
         offset="0"
         id="stop2845" />
      <stop
         style="stop-color:white;stop-opacity:0;"
         offset="1"
         id="stop2847" />
    </linearGradient>
    <linearGradient
       inkscape:collect="always"
       id="linearGradient2838">
      <stop
         style="stop-color:white;stop-opacity:1;"
         offset="0"
         id="stop2840" />
      <stop
         style="stop-color:white;stop-opacity:0;"
         offset="1"
         id="stop2842" />
    </linearGradient>
    <linearGradient
       id="linearGradient3579">
      <stop
         style="stop-color:#000000;stop-opacity:0.18750000;"
         offset="0.0000000"
         id="stop3581" />
      <stop
         style="stop-color:#000000;stop-opacity:0;"
         offset="1"
         id="stop3583" />
    </linearGradient>
    <linearGradient
       inkscape:collect="always"
       id="linearGradient3569">
      <stop
         style="stop-color:#000000;stop-opacity:1;"
         offset="0"
         id="stop3571" />
      <stop
         style="stop-color:#000000;stop-opacity:0;"
         offset="1"
         id="stop3573" />
    </linearGradient>
    <linearGradient
       inkscape:collect="always"
       id="linearGradient3549">
      <stop
         style="stop-color:#ffffff;stop-opacity:0.68674695"
         offset="0"
         id="stop3551" />
      <stop
         style="stop-color:#ffffff;stop-opacity:0;"
         offset="1"
         id="stop3553" />
    </linearGradient>
    <linearGradient
       inkscape:collect="always"
       id="linearGradient2813">
      <stop
         style="stop-color:#000000;stop-opacity:0.73092371"
         offset="0"
         id="stop2815" />
      <stop
         style="stop-color:#000000;stop-opacity:0;"
         offset="1"
         id="stop2817" />
    </linearGradient>
    <linearGradient
       inkscape:collect="always"
       xlink:href="#linearGradient3569"
       id="linearGradient3575"
       x1="90.686348"
       y1="164.369"
       x2="106.27306"
       y2="103.91144"
       gradientUnits="userSpaceOnUse"
       gradientTransform="matrix(0.198486,4.976619e-2,0,0.275655,-3.312499,-16.05384)" />
    <radialGradient
       inkscape:collect="always"
       xlink:href="#linearGradient3579"
       id="radialGradient3585"
       cx="54.317345"
       cy="112.41328"
       fx="54.317345"
       fy="112.41328"
       r="47.704796"
       gradientTransform="matrix(1,0,0,0.29703,-8.517492e-16,79.02319)"
       gradientUnits="userSpaceOnUse" />
    <radialGradient
       inkscape:collect="always"
       xlink:href="#linearGradient3579"
       id="radialGradient3589"
       gradientUnits="userSpaceOnUse"
       gradientTransform="matrix(1,0,0,0.29703,-6.025999e-16,79.02319)"
       cx="54.317345"
       cy="112.41328"
       fx="54.317345"
       fy="112.41328"
       r="47.704796" />
    <linearGradient
       inkscape:collect="always"
       xlink:href="#linearGradient2843"
       id="linearGradient2849"
       x1="83.318726"
       y1="-0.056119706"
       x2="93.686676"
       y2="122.31063"
       gradientUnits="userSpaceOnUse"
       gradientTransform="matrix(0.235294,0,0,0.170338,-4.676463,0.400113)" />
    <linearGradient
       inkscape:collect="always"
       xlink:href="#linearGradient3549"
       id="linearGradient4825"
       gradientUnits="userSpaceOnUse"
       x1="47.7048"
       y1="5.1955714"
       x2="54.317345"
       y2="82.184502"
       gradientTransform="matrix(0.16988,0,0,0.168551,-2.055954,0.323007)" />
    <linearGradient
       inkscape:collect="always"
       xlink:href="#linearGradient2813"
       id="linearGradient4828"
       gradientUnits="userSpaceOnUse"
       x1="145.00369"
       y1="70.376381"
       x2="89.741699"
       y2="69.431732"
       gradientTransform="matrix(0.294628,0,0,0.172802,-14.23183,-0.44971)" />
    <linearGradient
       inkscape:collect="always"
       xlink:href="#linearGradient2838"
       id="linearGradient4831"
       gradientUnits="userSpaceOnUse"
       gradientTransform="matrix(0.171086,0,0,0.169375,0.318181,0.420004)"
       x1="33.654625"
       y1="11.391578"
       x2="71.740967"
       y2="141.5607" />
    <linearGradient
       inkscape:collect="always"
       id="linearGradient2049">
      <stop
         style="stop-color:#ffffff;stop-opacity:1;"
         offset="0"
         id="stop2051" />
      <stop
         style="stop-color:#ffffff;stop-opacity:0;"
         offset="1"
         id="stop2053" />
    </linearGradient>
    <linearGradient
       inkscape:collect="always"
       id="linearGradient4234">
      <stop
         style="stop-color:#e0e0e0;stop-opacity:1.0000000"
         offset="0"
         id="stop4236" />
      <stop
         style="stop-color:#c4c4c4;stop-opacity:1.0000000"
         offset="1"
         id="stop4238" />
    </linearGradient>
    <linearGradient
       id="linearGradient6647"
       inkscape:collect="always">
      <stop
         id="stop6649"
         offset="0"
         style="stop-color:white;stop-opacity:1;" />
      <stop
         id="stop6651"
         offset="1"
         style="stop-color:white;stop-opacity:0.45064378" />
    </linearGradient>
    <linearGradient
       inkscape:collect="always"
       xlink:href="#linearGradient6647"
       id="linearGradient4981"
       gradientUnits="userSpaceOnUse"
       x1="38.311138"
       y1="29.974993"
       x2="26.017185"
       y2="26.680838"
       gradientTransform="matrix(0.449354,0,0,0.423445,19.96202,0.666042)" />
    <linearGradient
       inkscape:collect="always"
       xlink:href="#linearGradient2049"
       id="linearGradient4984"
       gradientUnits="userSpaceOnUse"
       gradientTransform="matrix(0.1577,0,0,0.171739,21.84973,0.370182)"
       x1="72.151817"
       y1="38.213421"
       x2="72.151817"
       y2="75.248329" />
    <linearGradient
       inkscape:collect="always"
       xlink:href="#linearGradient4234"
       id="linearGradient4987"
       gradientUnits="userSpaceOnUse"
       gradientTransform="matrix(0.218355,0,0,0.208683,24.75256,4.33825)"
       x1="34.81287"
       y1="16.950554"
       x2="34.81287"
       y2="50.46096" />
    <linearGradient
       inkscape:collect="always"
       xlink:href="#linearGradient4234"
       id="linearGradient6590"
       gradientUnits="userSpaceOnUse"
       gradientTransform="matrix(0.218355,0,0,0.208683,24.75256,4.33825)"
       x1="34.81287"
       y1="16.950554"
       x2="34.81287"
       y2="50.46096" />
    <linearGradient
       inkscape:collect="always"
       xlink:href="#linearGradient2049"
       id="linearGradient6592"
       gradientUnits="userSpaceOnUse"
       gradientTransform="matrix(0.1577,0,0,0.171739,21.84973,0.370182)"
       x1="72.151817"
       y1="38.213421"
       x2="72.151817"
       y2="75.248329" />
    <linearGradient
       inkscape:collect="always"
       xlink:href="#linearGradient6647"
       id="linearGradient6594"
       gradientUnits="userSpaceOnUse"
       gradientTransform="matrix(0.449354,0,0,0.423445,19.96202,0.666042)"
       x1="38.311138"
       y1="29.974993"
       x2="26.017185"
       y2="26.680838" />
  </defs>
  <sodipodi:namedview
     id="base"
     pagecolor="#ffffff"
     bordercolor="#666666"
     borderopacity="1.0"
     inkscape:pageopacity="0.0"
     inkscape:pageshadow="2"
     inkscape:zoom="1"
     inkscape:cx="11"
     inkscape:cy="11"
     inkscape:document-units="px"
     inkscape:current-layer="layer1"
     inkscape:window-width="823"
     inkscape:window-height="536"
     inkscape:window-x="0"
     inkscape:window-y="22"
     inkscape:showpageshadow="false"
     width="22px"
     height="22px"
     showgrid="false"
     showborder="false" />
  <metadata
     id="metadata4">
    <rdf:RDF>
      <cc:Work
         rdf:about="">
        <dc:format>image/svg+xml</dc:format>
        <dc:type
           rdf:resource="http://purl.org/dc/dcmitype/StillImage" />
      </cc:Work>
    </rdf:RDF>
  </metadata>
  <g
     inkscape:label="Layer 1"
     inkscape:groupmode="layer"
     id="layer1">
    <path
       sodipodi:type="arc"
       style="opacity:1;color:black;fill:url(#radialGradient3589);fill-opacity:1;fill-rule:evenodd;stroke:none;stroke-width:3;stroke-linecap:round;stroke-linejoin:round;marker:none;marker-start:none;marker-mid:none;marker-end:none;stroke-miterlimit:4;stroke-dasharray:none;stroke-dashoffset:0;stroke-opacity:1;visibility:visible;display:inline;overflow:visible"
       id="path3587"
       sodipodi:cx="54.317345"
       sodipodi:cy="112.41328"
       sodipodi:rx="47.704796"
       sodipodi:ry="14.169742"
       d="M 102.02214 112.41328 A 47.704796 14.169742 0 1 1  6.6125488,112.41328 A 47.704796 14.169742 0 1 1  102.02214 112.41328 z"
       transform="matrix(0.133559,0,0,0.108918,-0.543425,6.305867)" />
    <path
       sodipodi:type="arc"
       style="opacity:1;color:black;fill:url(#radialGradient3585);fill-opacity:1;fill-rule:evenodd;stroke:none;stroke-width:3;stroke-linecap:round;stroke-linejoin:round;marker:none;marker-start:none;marker-mid:none;marker-end:none;stroke-miterlimit:4;stroke-dasharray:none;stroke-dashoffset:0;stroke-opacity:1;visibility:visible;display:inline;overflow:visible"
       id="path3577"
       sodipodi:cx="54.317345"
       sodipodi:cy="112.41328"
       sodipodi:rx="47.704796"
       sodipodi:ry="14.169742"
       d="M 102.02214 112.41328 A 47.704796 14.169742 0 1 1  6.6125488,112.41328 A 47.704796 14.169742 0 1 1  102.02214 112.41328 z"
       transform="matrix(0.167805,0,0,0.136846,1.449359,4.393197)" />
    <path
       style="fill:url(#linearGradient3575);fill-opacity:1;fill-rule:evenodd;stroke:none;stroke-width:0.25pt;stroke-linecap:butt;stroke-linejoin:miter;stroke-opacity:1"
       d="M 16.562499,22 L 22,20.759354 L 16,16 L 16.562499,22 z "
       id="path3567" />
    <path
       style="fill:#009ed3;fill-opacity:1;fill-rule:evenodd;stroke:#0075b8;stroke-width:0.99999964;stroke-linecap:round;stroke-linejoin:round;stroke-miterlimit:4;stroke-dasharray:none;stroke-opacity:1"
       d="M 19.5,20.825951 L 19.5,1.334741 L 15.424816,0.49999982 L 1.4999913,3.7727789 L 1.4999913,17.879907 L 15.424816,21.493744 L 19.5,20.825951 z "
       id="path2083"
       sodipodi:nodetypes="ccccccc" />
    <path
       style="fill:url(#linearGradient4828);fill-opacity:1;fill-rule:evenodd;stroke:none;stroke-width:0.25pt;stroke-linecap:butt;stroke-linejoin:miter;stroke-opacity:1"
       d="M 14.553419,1 L 14.58821,21 L 18.998855,20.399264 L 19,1.7434943 L 14.553419,1 z "
       id="path2811"
       sodipodi:nodetypes="ccccc" />
    <path
       style="fill:none;fill-opacity:1;fill-rule:evenodd;stroke:url(#linearGradient2849);stroke-width:0.99999905;stroke-linecap:butt;stroke-linejoin:miter;stroke-miterlimit:4;stroke-dasharray:none;stroke-opacity:1"
       d="M 15.5,1.4999986 L 18.5,2.1387665 L 18.5,19.903822 L 15.5,20.500005 L 15.5,1.4999986 z "
       id="path1968"
       sodipodi:nodetypes="ccccc" />
    <path
       style="fill:url(#linearGradient4825);fill-opacity:1;fill-rule:evenodd;stroke:none;stroke-width:0.25pt;stroke-linecap:butt;stroke-linejoin:miter;stroke-opacity:1"
       d="M 2.1164494,4.8608136 L 2.1164494,12.662661 C 6.0748829,9.0669106 10.755463,8.6555886 14.473181,14.175263 L 14.553419,1.7559966 L 2.1164494,4.8608136 z "
       id="path2821"
       sodipodi:nodetypes="ccccc" />
    <path
       id="path579"
       style="font-size:12px;fill:white;fill-opacity:1;stroke:white;stroke-width:0.70000017;stroke-miterlimit:4;stroke-dasharray:none;stroke-opacity:1"
       d="M 10.650001,14.080409 C 10.650001,14.080409 10.219996,13.601658 9.8356518,13.786751 C 9.8356518,13.786751 9.2716835,11.216006 9.0814415,11.233145 L 7.1930544,10.9032 L 7.1239671,9.9325211 L 8.6974554,10.207446 L 8.7121243,9.6549033 L 6.9497248,9.3469711 L 6.9904309,8.4543671 C 7.2735022,8.3806361 7.4910165,8.0122633 7.5039129,7.5264681 C 7.5193719,6.9441593 7.2360235,6.4201766 6.8709739,6.3563943 C 6.5059956,6.2926235 6.1975728,6.7132103 6.1821136,7.2955192 C 6.1706884,7.725898 6.3229052,8.1228709 6.5500066,8.3273791 C 6.5334217,8.7484606 6.519852,9.3193677 6.5334762,9.8813406 C 5.8697997,10.219379 5.3837139,11.166097 5.3516836,12.372622 C 5.3086014,13.995442 6.0979947,15.45453 7.1147965,15.63219 C 8.131599,15.809851 8.9908865,14.638823 9.0339685,13.016004 C 9.0380836,12.86098 9.0335667,12.708014 9.0227258,12.557048 C 9.2648913,13.231304 9.6201126,14.354923 9.5806544,15.053929 L 10.650001,14.080409 z M 7.1256025,15.230574 C 6.2491372,15.077436 5.5664632,13.81505 5.6035848,12.41675 C 5.6299795,11.422494 6.0157762,10.63148 6.5499793,10.30774 C 6.5792177,10.851737 6.6419153,11.346367 6.7625431,11.635448 L 8.6789826,11.970295 C 8.7513793,12.286951 8.7913179,12.623357 8.782057,12.97222 C 8.7448679,14.370392 8.001851,15.383677 7.1256025,15.230574 z " />
    <path
       style="fill:none;fill-opacity:1;fill-rule:evenodd;stroke:url(#linearGradient4831);stroke-width:0.99999911;stroke-linecap:butt;stroke-linejoin:miter;stroke-miterlimit:4;stroke-dasharray:none;stroke-opacity:1"
       d="M 2.4999985,17.161082 L 2.4999985,4.441421 L 14.499998,1.4999991 L 14.499998,20.499993 L 2.4999985,17.161082 z "
       id="path1963" />
    <path
       style="fill:none;fill-opacity:1;fill-rule:evenodd;stroke:white;stroke-width:0.99999994;stroke-linecap:butt;stroke-linejoin:miter;stroke-miterlimit:4;stroke-dasharray:none;stroke-opacity:1"
       d="M 3.4999995,15.474125 L 3.4999995,6.3601487 L 12.500001,4.4999989 L 12.500001,17.500004 L 3.4999995,15.474125 z "
       id="path3948"
       sodipodi:nodetypes="ccccc" />
    <g
       id="g6584"
       transform="translate(-19.99999,0)">
      <path
         sodipodi:nodetypes="ccccccccccccccccccccccccccccccccccsscsc"
         id="path2041"
         d="M 34.96937,5.5112539 L 33.194457,7.4796948 L 31.838601,6.668726 L 32.307,7.0264805 L 31.009955,6.0388774 L 29.200912,7.1550043 L 29.453493,10.165164 L 26.873049,10.821311 L 26.511237,12.810047 L 28.736704,14.460562 L 27.111978,16.855159 L 28.470465,18.613908 L 28.481899,18.605412 L 29.931354,19.500043 L 31.501469,18.904777 L 32.115857,20.386178 L 32.138245,20.380203 L 33.583574,21.272317 L 36.08893,21.488779 L 37.003687,18.654494 L 39.590961,19.337698 L 40.792441,17.436901 L 39.41347,14.852899 L 41.488751,12.979157 L 40.9358,10.719845 L 39.473145,9.8185312 L 39.474911,9.8337084 L 38.314391,9.6645995 L 38.328045,7.3105858 L 36.860332,6.4294643 L 36.860332,6.4244488 L 34.96937,5.5112539 z M 34.737266,11.660098 C 34.778666,11.660098 34.812525,11.68437 34.853316,11.687156 C 35.127124,12.085556 35.317524,12.569683 35.317524,13.114446 C 35.317524,14.403787 34.398962,15.448165 33.269552,15.448165 C 33.225839,15.448165 33.189718,15.424188 33.146673,15.421109 C 32.871643,15.0241 32.682465,14.545343 32.682465,14.000585 C 32.682465,12.71124 33.607851,11.660098 34.737266,11.660098 z "
         style="color:black;fill:#8f8f8f;fill-opacity:1;fill-rule:evenodd;stroke:#595959;stroke-width:1.02248383;stroke-linecap:round;stroke-linejoin:round;marker:none;marker-start:none;marker-mid:none;marker-end:none;stroke-miterlimit:4;stroke-dasharray:none;stroke-dashoffset:0;stroke-opacity:1;visibility:visible;display:inline;overflow:visible" />
      <path
         sodipodi:nodetypes="cccccccccccccccccccccccssss"
         id="path2043"
         d="M 35.138538,6 L 33.309075,7.9515915 L 31.325736,6.4934073 L 29.587459,7.5288173 L 29.832528,10.321288 L 27.347657,10.929982 L 27,12.770956 L 29.137223,14.302106 L 27.577901,16.525866 L 28.883031,18.157421 L 31.299513,17.272617 L 32.393769,19.801528 L 34.807981,20 L 35.685662,17.370687 L 38.170538,18.004485 L 39.327487,16.241149 L 38.005261,13.844017 L 40,12.105782 L 39.469971,10.009862 L 36.9452,9.6521744 L 36.956597,6.8471543 L 35.138538,6 z M 33.50285,10.882117 C 34.933877,10.882117 35.670174,11.857241 35.670174,13.05334 C 35.670174,14.24944 34.589168,15.383006 33.50285,15.383006 C 32.416533,15.383006 31.530908,14.24944 31.530908,13.05334 C 31.530908,11.857241 32.416533,10.882117 33.50285,10.882117 z "
         style="color:black;fill:url(#linearGradient6590);fill-opacity:1;fill-rule:evenodd;stroke:none;stroke-width:1.86331141;stroke-linecap:round;stroke-linejoin:round;marker:none;marker-start:none;marker-mid:none;marker-end:none;stroke-miterlimit:4;stroke-dashoffset:0;stroke-opacity:1;visibility:visible;display:inline;overflow:visible" />
      <path
         style="color:black;fill:url(#linearGradient6592);fill-opacity:1;fill-rule:evenodd;stroke:none;stroke-width:1.86331141;stroke-linecap:round;stroke-linejoin:round;marker:none;marker-start:none;marker-mid:none;marker-end:none;stroke-miterlimit:4;stroke-dashoffset:0;stroke-opacity:1;visibility:visible;display:inline;overflow:visible"
         d="M 35.51047,6 L 33.820124,8.0555017 L 31.991787,6.5205839 L 30.385214,7.6100535 L 30.611911,10.545716 L 28.320327,11.189737 L 28,13.121801 L 28.202055,13.288173 C 29.383266,12.523523 30.948583,12.018391 32.691579,11.855226 C 33.023542,11.417423 33.484633,11.136069 34.002462,11.136069 C 34.706707,11.136069 35.211082,11.440677 35.544971,11.903528 C 36.965183,12.103105 38.233467,12.550292 39.255849,13.164735 L 40,12.424111 L 39.507186,10.218338 L 37.176181,9.8426595 L 37.190963,6.8908964 L 35.51047,6 z "
         id="path1317" />
      <path
         sodipodi:nodetypes="cccccccccccccccccccccccssss"
         id="path5772"
         d="M 35.011897,6.4837987 L 33.340703,8.3516149 L 31.334514,6.9469141 L 29.901498,7.7746065 L 30.245213,10.431679 L 27.732152,11.147156 L 27.48379,12.622842 L 29.55728,14.204146 L 27.985534,16.327422 L 29.12855,17.822775 L 31.310011,16.920216 L 32.408964,19.329909 L 34.664784,19.516195 L 35.484888,17.048298 L 37.806739,17.643188 L 38.887785,15.988107 L 37.652305,13.738142 L 39.516175,12.10662 L 39.05916,10.247486 L 36.700034,9.9117575 L 36.710684,7.2429058 L 35.011897,6.4837987 z M 33.445281,10.958078 C 34.782421,10.958078 35.470413,11.873337 35.470413,12.996005 C 35.470413,14.118671 34.460329,15.182648 33.445281,15.182648 C 32.430232,15.182648 31.602711,14.118671 31.602711,12.996005 C 31.602711,11.873337 32.430232,10.958078 33.445281,10.958078 z "
         style="color:black;fill:none;fill-opacity:1;fill-rule:evenodd;stroke:url(#linearGradient6594);stroke-width:0.96759921;stroke-linecap:round;stroke-linejoin:round;marker:none;marker-start:none;marker-mid:none;marker-end:none;stroke-miterlimit:4;stroke-dasharray:none;stroke-dashoffset:0;stroke-opacity:1;visibility:visible;display:inline;overflow:visible" />
    </g>
  </g>
</svg>
