<?xml version="1.0" encoding="UTF-8" standalone="no"?>
<!-- Created with Inkscape (http://www.inkscape.org/) -->
<svg
   xmlns:dc="http://purl.org/dc/elements/1.1/"
   xmlns:cc="http://web.resource.org/cc/"
   xmlns:rdf="http://www.w3.org/1999/02/22-rdf-syntax-ns#"
   xmlns:svg="http://www.w3.org/2000/svg"
   xmlns="http://www.w3.org/2000/svg"
   xmlns:xlink="http://www.w3.org/1999/xlink"
   xmlns:sodipodi="http://inkscape.sourceforge.net/DTD/sodipodi-0.dtd"
   xmlns:inkscape="http://www.inkscape.org/namespaces/inkscape"
   width="22"
   height="22"
   id="svg2"
   sodipodi:version="0.32"
   inkscape:version="0.43+devel"
   sodipodi:docbase="/home/silvestre/Desktop/Neu/22x22/apps"
   sodipodi:docname="sound-juicer.svg"
   version="1.0">
  <defs
     id="defs4">
    <linearGradient
       id="linearGradient5974"
       inkscape:collect="always">
      <stop
         id="stop5976"
         offset="0"
         style="stop-color:#7f7f7f;stop-opacity:0.627451" />
      <stop
         id="stop5978"
         offset="1"
         style="stop-color:#7f7f7f;stop-opacity:0" />
    </linearGradient>
    <linearGradient
       id="linearGradient5968"
       inkscape:collect="always">
      <stop
         id="stop5970"
         offset="0"
         style="stop-color:#8e8e8e;stop-opacity:1" />
      <stop
         id="stop5972"
         offset="1"
         style="stop-color:#a0a0a0;stop-opacity:1" />
    </linearGradient>
    <linearGradient
       inkscape:collect="always"
       id="linearGradient4836">
      <stop
         style="stop-color:white;stop-opacity:1;"
         offset="0"
         id="stop4838" />
      <stop
         style="stop-color:white;stop-opacity:0.58823532"
         offset="1"
         id="stop4840" />
    </linearGradient>
    <linearGradient
       id="linearGradient8655">
      <stop
         style="stop-color:#000000;stop-opacity:0.30208334;"
         offset="0.0000000"
         id="stop8657" />
      <stop
         style="stop-color:#000000;stop-opacity:0;"
         offset="1"
         id="stop8659" />
    </linearGradient>
    <linearGradient
       id="linearGradient7917">
      <stop
         style="stop-color:#000000;stop-opacity:0.16666669;"
         offset="0.0000000"
         id="stop7919" />
      <stop
         style="stop-color:#000000;stop-opacity:0;"
         offset="1"
         id="stop7921" />
    </linearGradient>
    <linearGradient
       id="linearGradient6455">
      <stop
         style="stop-color:#f1f1f1;stop-opacity:1;"
         offset="0"
         id="stop6457" />
      <stop
         style="stop-color:#cecece;stop-opacity:1;"
         offset="1"
         id="stop6459" />
    </linearGradient>
    <linearGradient
       id="linearGradient5703">
      <stop
         id="stop5705"
         offset="0.0000000"
         style="stop-color:#ffffff;stop-opacity:0.83333325;" />
      <stop
         id="stop5707"
         offset="1"
         style="stop-color:#ffffff;stop-opacity:0.0000000" />
    </linearGradient>
    <linearGradient
       id="linearGradient5691">
      <stop
         style="stop-color:#ffffff;stop-opacity:0.83333325;"
         offset="0.0000000"
         id="stop5693" />
      <stop
         style="stop-color:#ffffff;stop-opacity:0.0000000"
         offset="1"
         id="stop5695" />
    </linearGradient>
    <linearGradient
       inkscape:collect="always"
       xlink:href="#linearGradient5691"
       id="linearGradient5697"
       x1="31.114616"
       y1="33.89996"
       x2="48.388142"
       y2="61.223637"
       gradientUnits="userSpaceOnUse"
       gradientTransform="matrix(0.187986,0,0,0.194739,-0.286853,-1.274374)" />
    <linearGradient
       inkscape:collect="always"
       xlink:href="#linearGradient5703"
       id="linearGradient5723"
       gradientUnits="userSpaceOnUse"
       x1="59.902058"
       y1="95.622185"
       x2="33.750458"
       y2="78.300934"
       gradientTransform="matrix(0.196698,0,0,0.208264,19.47171,-2.462171)" />
    <linearGradient
       inkscape:collect="always"
       xlink:href="#linearGradient6455"
       id="linearGradient6461"
       x1="21.100939"
       y1="33.477123"
       x2="54.294334"
       y2="75.682442"
       gradientUnits="userSpaceOnUse"
       gradientTransform="matrix(0.207934,0,0,0.213131,-0.57866,-2.790199)" />
    <radialGradient
       inkscape:collect="always"
       xlink:href="#linearGradient7917"
       id="radialGradient7923"
       cx="51.231888"
       cy="110.19082"
       fx="51.231888"
       fy="110.19082"
       r="48.06039"
       gradientTransform="matrix(1,0,0,0.228426,2.190089e-16,85.02033)"
       gradientUnits="userSpaceOnUse" />
    <linearGradient
       inkscape:collect="always"
       xlink:href="#linearGradient8655"
       id="linearGradient8661"
       x1="59.867424"
       y1="177.41431"
       x2="86.77282"
       y2="84.96209"
       gradientUnits="userSpaceOnUse"
       gradientTransform="matrix(0.170814,0,0,0.209572,1.17401,-2.930024)" />
    <linearGradient
       inkscape:collect="always"
       xlink:href="#linearGradient5974"
       id="linearGradient4834"
       x1="82.111969"
       y1="65.067497"
       x2="71.079094"
       y2="65.067497"
       gradientUnits="userSpaceOnUse"
       gradientTransform="matrix(0.197692,0,0,0.193817,6.043824e-2,-1.540513)" />
    <linearGradient
       inkscape:collect="always"
       xlink:href="#linearGradient4836"
       id="linearGradient4842"
       x1="38.183765"
       y1="21.226875"
       x2="59.657269"
       y2="101.36707"
       gradientUnits="userSpaceOnUse"
       gradientTransform="matrix(0.194826,0,0,0.206634,-0.403806,-2.473194)" />
    <linearGradient
       inkscape:collect="always"
       xlink:href="#linearGradient5968"
       id="linearGradient5724"
       x1="99.25"
       y1="65.5"
       x2="43.49057"
       y2="65.5"
       gradientUnits="userSpaceOnUse"
       gradientTransform="matrix(0.207934,0,0,0.213131,-0.99453,-2.790199)" />
    <linearGradient
       id="linearGradient2447">
      <stop
         style="stop-color:#ffffff;stop-opacity:1.0000000;"
         offset="0.0000000"
         id="stop2449" />
      <stop
         style="stop-color:#ffffff;stop-opacity:0.0000000;"
         offset="1.0000000"
         id="stop2451" />
    </linearGradient>
    <linearGradient
       id="linearGradient2423">
      <stop
         id="stop2425"
         offset="0.0000000"
         style="stop-color:#ffffff;stop-opacity:1.0000000;" />
      <stop
         id="stop2427"
         offset="1.0000000"
         style="stop-color:#ffffff;stop-opacity:0.0000000;" />
    </linearGradient>
    <linearGradient
       id="linearGradient2403">
      <stop
         id="stop2405"
         offset="0.0000000"
         style="stop-color:#aadf00;stop-opacity:1.0000000;" />
      <stop
         id="stop2409"
         offset="1.0000000"
         style="stop-color:#4dc721;stop-opacity:1.0000000;" />
    </linearGradient>
    <linearGradient
       id="linearGradient2383">
      <stop
         style="stop-color:#ffffff;stop-opacity:1.0000000;"
         offset="0.0000000"
         id="stop2385" />
      <stop
         style="stop-color:#ffffff;stop-opacity:0.0000000;"
         offset="1.0000000"
         id="stop2389" />
    </linearGradient>
    <linearGradient
       inkscape:collect="always"
       xlink:href="#linearGradient2423"
       id="linearGradient5084"
       gradientUnits="userSpaceOnUse"
       gradientTransform="matrix(0.140173,0,0,0.122207,15.24623,-5.524941e-2)"
       x1="147.57317"
       y1="108.61332"
       x2="161.74821"
       y2="84.142044" />
    <linearGradient
       inkscape:collect="always"
       xlink:href="#linearGradient2447"
       id="linearGradient5087"
       gradientUnits="userSpaceOnUse"
       gradientTransform="matrix(0.121026,0,0,0.125867,12.49092,0.583768)"
       x1="147.57317"
       y1="108.61332"
       x2="161.74821"
       y2="84.142044" />
    <linearGradient
       inkscape:collect="always"
       xlink:href="#linearGradient2383"
       id="linearGradient5090"
       gradientUnits="userSpaceOnUse"
       gradientTransform="matrix(0.177913,0,0,9.691561e-2,12.13079,0.209342)"
       x1="130.02267"
       y1="21.914911"
       x2="131.3519"
       y2="46.183224" />
    <linearGradient
       inkscape:collect="always"
       xlink:href="#linearGradient2403"
       id="linearGradient5093"
       gradientUnits="userSpaceOnUse"
       gradientTransform="matrix(0.102645,0,0,0.125381,14.354,1.304984)"
       x1="206.98412"
       y1="15.598222"
       x2="177.10718"
       y2="81.863159" />
    <linearGradient
       id="linearGradient2773">
      <stop
         style="stop-color:#ffffff;stop-opacity:0;"
         offset="0"
         id="stop2775" />
      <stop
         id="stop1465"
         offset="0.83333331"
         style="stop-color:#ffffff;stop-opacity:0;" />
      <stop
         style="stop-color:#ffffff;stop-opacity:1;"
         offset="1"
         id="stop2777" />
    </linearGradient>
    <linearGradient
       inkscape:collect="always"
       id="linearGradient2763">
      <stop
         style="stop-color:#f57900;stop-opacity:1;"
         offset="0"
         id="stop2765" />
      <stop
         style="stop-color:#f57900;stop-opacity:0;"
         offset="1"
         id="stop2767" />
    </linearGradient>
    <linearGradient
       inkscape:collect="always"
       id="linearGradient2662">
      <stop
         style="stop-color:#ffffff;stop-opacity:1;"
         offset="0"
         id="stop2664" />
      <stop
         style="stop-color:#ffffff;stop-opacity:0;"
         offset="1"
         id="stop2666" />
    </linearGradient>
    <linearGradient
       inkscape:collect="always"
       id="linearGradient2654">
      <stop
         style="stop-color:#ffffff;stop-opacity:1;"
         offset="0"
         id="stop2656" />
      <stop
         style="stop-color:#ffffff;stop-opacity:0;"
         offset="1"
         id="stop2658" />
    </linearGradient>
    <linearGradient
       inkscape:collect="always"
       id="linearGradient2646">
      <stop
         style="stop-color:#fcaf3e;stop-opacity:1;"
         offset="0"
         id="stop2648" />
      <stop
         style="stop-color:#fcaf3e;stop-opacity:0;"
         offset="1"
         id="stop2650" />
    </linearGradient>
    <linearGradient
       inkscape:collect="always"
       id="linearGradient2530">
      <stop
         style="stop-color:#fed393;stop-opacity:1;"
         offset="0"
         id="stop2532" />
      <stop
         style="stop-color:#fed393;stop-opacity:0;"
         offset="1"
         id="stop2534" />
    </linearGradient>
    <linearGradient
       id="linearGradient2522">
      <stop
         style="stop-color:#bb5300;stop-opacity:1;"
         offset="0"
         id="stop2524" />
      <stop
         style="stop-color:#ce5c00;stop-opacity:0;"
         offset="1"
         id="stop2526" />
    </linearGradient>
    <linearGradient
       inkscape:collect="always"
       xlink:href="#linearGradient2646"
       id="linearGradient2652"
       x1="21.436686"
       y1="13.453218"
       x2="21.436686"
       y2="25.460827"
       gradientUnits="userSpaceOnUse"
       gradientTransform="matrix(0.965926,-0.258819,0.258819,0.965926,-5.531581,7.180463)" />
    <linearGradient
       inkscape:collect="always"
       xlink:href="#linearGradient2662"
       id="linearGradient2668"
       x1="19.659914"
       y1="19.958755"
       x2="19.659914"
       y2="23.501108"
       gradientUnits="userSpaceOnUse"
       gradientTransform="matrix(0.965926,-0.258819,0.258819,0.965926,-5.531581,7.180463)" />
    <linearGradient
       inkscape:collect="always"
       xlink:href="#linearGradient2530"
       id="linearGradient4367"
       gradientUnits="userSpaceOnUse"
       gradientTransform="matrix(0.997609,3.888502e-4,3.888654e-4,0.997258,0.27439,-0.98496)"
       x1="23.289394"
       y1="18.364347"
       x2="23.560387"
       y2="20.904043" />
    <linearGradient
       inkscape:collect="always"
       xlink:href="#linearGradient2522"
       id="linearGradient4369"
       gradientUnits="userSpaceOnUse"
       gradientTransform="matrix(0.997609,3.888502e-4,3.888654e-4,0.997258,0.27439,-0.98496)"
       x1="25.068272"
       y1="24.253113"
       x2="25.001196"
       y2="29.901463" />
    <linearGradient
       inkscape:collect="always"
       xlink:href="#linearGradient2646"
       id="linearGradient4371"
       gradientUnits="userSpaceOnUse"
       gradientTransform="matrix(0.866026,-0.5,0.5,0.866026,-9.016237,15.54794)"
       x1="28.685675"
       y1="13.20891"
       x2="24.875528"
       y2="20.703079" />
    <linearGradient
       inkscape:collect="always"
       xlink:href="#linearGradient2662"
       id="linearGradient4373"
       gradientUnits="userSpaceOnUse"
       gradientTransform="matrix(0.866026,-0.5,0.5,0.866026,-9.016237,15.54794)"
       x1="25.592447"
       y1="16.583702"
       x2="25.085266"
       y2="19.677641" />
    <linearGradient
       inkscape:collect="always"
       xlink:href="#linearGradient2646"
       id="linearGradient4375"
       gradientUnits="userSpaceOnUse"
       gradientTransform="matrix(0.866026,-0.5,0.5,0.866026,-9.016237,15.54794)"
       x1="21.436686"
       y1="13.453218"
       x2="21.436686"
       y2="25.460827" />
    <linearGradient
       inkscape:collect="always"
       xlink:href="#linearGradient2662"
       id="linearGradient4377"
       gradientUnits="userSpaceOnUse"
       gradientTransform="matrix(0.866026,-0.5,0.5,0.866026,-9.016237,15.54794)"
       x1="19.659914"
       y1="19.958755"
       x2="19.659914"
       y2="23.501108" />
    <linearGradient
       inkscape:collect="always"
       xlink:href="#linearGradient2646"
       id="linearGradient4379"
       gradientUnits="userSpaceOnUse"
       gradientTransform="matrix(0.866026,-0.5,0.5,0.866026,-9.016237,15.54794)"
       x1="32.415615"
       y1="15.366133"
       x2="27.183016"
       y2="22.061451" />
    <linearGradient
       inkscape:collect="always"
       xlink:href="#linearGradient2662"
       id="linearGradient4381"
       gradientUnits="userSpaceOnUse"
       gradientTransform="matrix(0.866026,-0.5,0.5,0.866026,-9.016237,15.54794)"
       x1="30.893356"
       y1="19.400782"
       x2="28.31155"
       y2="21.643337" />
    <linearGradient
       inkscape:collect="always"
       xlink:href="#linearGradient2646"
       id="linearGradient4383"
       gradientUnits="userSpaceOnUse"
       gradientTransform="matrix(0.866026,-0.5,0.5,0.866026,-9.016237,15.54794)"
       x1="21.436686"
       y1="13.453218"
       x2="21.436686"
       y2="25.460827" />
    <linearGradient
       inkscape:collect="always"
       xlink:href="#linearGradient2662"
       id="linearGradient4385"
       gradientUnits="userSpaceOnUse"
       gradientTransform="matrix(0.866026,-0.5,0.5,0.866026,-9.016237,15.54794)"
       x1="19.659914"
       y1="19.958755"
       x2="19.659914"
       y2="23.501108" />
    <linearGradient
       inkscape:collect="always"
       xlink:href="#linearGradient2646"
       id="linearGradient4387"
       gradientUnits="userSpaceOnUse"
       gradientTransform="matrix(0.866026,-0.5,0.5,0.866026,-9.016237,15.54794)"
       x1="35.611439"
       y1="19.649118"
       x2="30.817972"
       y2="25.035822" />
    <linearGradient
       inkscape:collect="always"
       xlink:href="#linearGradient2662"
       id="linearGradient4389"
       gradientUnits="userSpaceOnUse"
       gradientTransform="matrix(0.866026,-0.5,0.5,0.866026,-9.016237,15.54794)"
       x1="32.68705"
       y1="19.639395"
       x2="30.000105"
       y2="23.002033" />
    <linearGradient
       inkscape:collect="always"
       xlink:href="#linearGradient2646"
       id="linearGradient4391"
       gradientUnits="userSpaceOnUse"
       gradientTransform="matrix(0.866026,-0.5,0.5,0.866026,-9.016237,15.54794)"
       x1="21.436686"
       y1="13.453218"
       x2="21.143581"
       y2="22.364006" />
    <linearGradient
       inkscape:collect="always"
       xlink:href="#linearGradient2662"
       id="linearGradient4393"
       gradientUnits="userSpaceOnUse"
       gradientTransform="matrix(0.866026,-0.5,0.5,0.866026,-9.016237,15.54794)"
       x1="19.659914"
       y1="19.958755"
       x2="19.975048"
       y2="22.18712" />
    <linearGradient
       inkscape:collect="always"
       xlink:href="#linearGradient2646"
       id="linearGradient4395"
       gradientUnits="userSpaceOnUse"
       gradientTransform="matrix(0.866026,-0.5,0.5,0.866026,-9.016237,15.54794)"
       x1="21.436686"
       y1="13.453218"
       x2="21.436686"
       y2="25.460827" />
    <linearGradient
       inkscape:collect="always"
       xlink:href="#linearGradient2662"
       id="linearGradient4397"
       gradientUnits="userSpaceOnUse"
       gradientTransform="matrix(0.866026,-0.5,0.5,0.866026,-9.016237,15.54794)"
       x1="19.659914"
       y1="19.958755"
       x2="19.659914"
       y2="23.501108" />
    <linearGradient
       inkscape:collect="always"
       xlink:href="#linearGradient2646"
       id="linearGradient4399"
       gradientUnits="userSpaceOnUse"
       gradientTransform="matrix(0.866026,-0.5,0.5,0.866026,-9.016237,15.54794)"
       x1="20.261574"
       y1="15.122634"
       x2="22.749992"
       y2="21.351147" />
    <linearGradient
       inkscape:collect="always"
       xlink:href="#linearGradient2662"
       id="linearGradient4401"
       gradientUnits="userSpaceOnUse"
       gradientTransform="matrix(0.866026,-0.5,0.5,0.866026,-9.016237,15.54794)"
       x1="19.788017"
       y1="18.636177"
       x2="20.919437"
       y2="20.150311" />
    <linearGradient
       inkscape:collect="always"
       xlink:href="#linearGradient2654"
       id="linearGradient4403"
       gradientUnits="userSpaceOnUse"
       x1="18.037781"
       y1="21.326878"
       x2="17.778023"
       y2="31.255089" />
    <linearGradient
       inkscape:collect="always"
       xlink:href="#linearGradient2763"
       id="linearGradient4405"
       gradientUnits="userSpaceOnUse"
       x1="24.219482"
       y1="18.1894"
       x2="24.157726"
       y2="20.032583" />
    <radialGradient
       inkscape:collect="always"
       xlink:href="#linearGradient2773"
       id="radialGradient4407"
       gradientUnits="userSpaceOnUse"
       gradientTransform="matrix(0.350177,-0.56658,0.535266,0.330821,1.104526,36.3957)"
       cx="33.555569"
       cy="21.553221"
       fx="33.555569"
       fy="21.553221"
       r="8.3309488" />
    <linearGradient
       inkscape:collect="always"
       xlink:href="#linearGradient2403"
       id="linearGradient4040"
       gradientUnits="userSpaceOnUse"
       gradientTransform="matrix(0.102645,0,0,0.125381,14.354,1.304984)"
       x1="206.98412"
       y1="15.598222"
       x2="177.10718"
       y2="81.863159" />
    <linearGradient
       inkscape:collect="always"
       xlink:href="#linearGradient2383"
       id="linearGradient4042"
       gradientUnits="userSpaceOnUse"
       gradientTransform="matrix(0.177913,0,0,9.691561e-2,12.13079,0.209342)"
       x1="130.02267"
       y1="21.914911"
       x2="131.3519"
       y2="46.183224" />
    <linearGradient
       inkscape:collect="always"
       xlink:href="#linearGradient2447"
       id="linearGradient4044"
       gradientUnits="userSpaceOnUse"
       gradientTransform="matrix(0.121026,0,0,0.125867,12.49092,0.583768)"
       x1="147.57317"
       y1="108.61332"
       x2="161.74821"
       y2="84.142044" />
    <linearGradient
       inkscape:collect="always"
       xlink:href="#linearGradient2423"
       id="linearGradient4046"
       gradientUnits="userSpaceOnUse"
       gradientTransform="matrix(0.140173,0,0,0.122207,15.24623,-5.524941e-2)"
       x1="147.57317"
       y1="108.61332"
       x2="161.74821"
       y2="84.142044" />
  </defs>
  <sodipodi:namedview
     id="base"
     pagecolor="#ffffff"
     bordercolor="#666666"
     borderopacity="1.0"
     inkscape:pageopacity="0.0"
     inkscape:pageshadow="2"
     inkscape:zoom="1"
     inkscape:cx="11"
     inkscape:cy="11"
     inkscape:document-units="px"
     inkscape:current-layer="layer1"
     showguides="true"
     inkscape:guide-bbox="true"
     inkscape:window-width="823"
     inkscape:window-height="536"
     inkscape:window-x="160"
     inkscape:window-y="148"
     showborder="false"
     width="22px"
     height="22px"
     inkscape:showpageshadow="false"
     showgrid="false" />
  <metadata
     id="metadata7">
    <rdf:RDF>
      <cc:Work
         rdf:about="">
        <dc:format>image/svg+xml</dc:format>
        <dc:type
           rdf:resource="http://purl.org/dc/dcmitype/StillImage" />
      </cc:Work>
    </rdf:RDF>
  </metadata>
  <g
     inkscape:label="Layer 1"
     inkscape:groupmode="layer"
     id="layer1">
    <path
       sodipodi:nodetypes="csssccsssc"
       style="opacity:1;color:black;fill:url(#linearGradient8661);fill-opacity:1;fill-rule:evenodd;stroke:none;stroke-width:1.66170299;stroke-linecap:round;stroke-linejoin:round;marker:none;marker-start:none;marker-mid:none;marker-end:none;stroke-miterlimit:4;stroke-dasharray:none;stroke-dashoffset:0;stroke-opacity:1;visibility:visible;display:inline;overflow:visible"
       d="M 16.47301,14.878291 C 12.16458,14.808553 7.201715,16.146631 5.3938182,17.865439 C 3.5859212,19.584247 5.6132184,21.037079 9.9216484,21.10681 C 14.230077,21.176548 19.194611,19.836887 21.002508,18.118079 C 22.810404,16.399271 20.781441,14.948027 16.47301,14.878291 z M 12.936554,17.579833 C 13.493259,17.588841 13.757317,17.774936 13.523713,17.997026 C 13.290109,18.219121 12.648298,18.392163 12.091594,18.383156 C 11.534888,18.374143 11.272498,18.186464 11.506101,17.964374 C 11.739705,17.742279 12.379849,17.57082 12.936554,17.579833 z "
       id="path7925" />
    <path
       sodipodi:type="arc"
       style="opacity:1;color:black;fill:url(#radialGradient7923);fill-opacity:1;fill-rule:evenodd;stroke:none;stroke-width:3;stroke-linecap:round;stroke-linejoin:round;marker:none;marker-start:none;marker-mid:none;marker-end:none;stroke-miterlimit:4;stroke-dasharray:none;stroke-dashoffset:0;stroke-opacity:0.78400005;visibility:visible;display:inline;overflow:visible"
       id="path7189"
       sodipodi:cx="51.231888"
       sodipodi:cy="110.19082"
       sodipodi:rx="48.06039"
       sodipodi:ry="10.978262"
       d="M 99.292278 110.19082 A 48.06039 10.978262 0 1 1  3.1714973,110.19082 A 48.06039 10.978262 0 1 1  99.292278 110.19082 z"
       transform="matrix(0.18541,0,0,0.202795,-0.310802,-2.572484)" />
    <path
       style="opacity:1;color:black;fill:url(#linearGradient6461);fill-opacity:1;fill-rule:evenodd;stroke:url(#linearGradient5724);stroke-width:0.99999934;stroke-linecap:round;stroke-linejoin:round;marker:none;marker-start:none;marker-mid:none;marker-end:none;stroke-miterlimit:4;stroke-dasharray:none;stroke-dashoffset:0;stroke-opacity:1;visibility:visible;display:inline;overflow:visible"
       d="M 9.999999,0.50000035 C 4.755278,0.50000035 0.499999,5.2023125 0.499999,10.99668 C 0.499999,16.791046 4.755279,21.50002 9.999999,21.50002 C 15.244717,21.50002 19.499997,16.791051 19.499997,10.99668 C 19.499998,5.2023125 15.244717,0.50000035 9.999999,0.50000035 z M 9.174759,7.3334993 C 11.00888,7.3334993 12.501707,8.9855101 12.501707,11.023322 C 12.501708,13.061135 11.00888,14.713143 9.174759,14.713143 C 7.340639,14.713143 5.854308,13.061135 5.854308,11.023322 C 5.854308,8.9855112 7.34064,7.3334993 9.174759,7.3334993 z "
       id="path1308" />
    <g
       id="layer4"
       inkscape:label="Arancia"
       style="display:inline"
       transform="matrix(0.452319,0,0,0.501655,-0.16547,-0.377133)">
      <g
         id="g2300"
         transform="matrix(0.850643,-0.525743,0.525743,0.850643,-11.28786,14.5586)">
        <path
           id="path2292"
           d="M 45.485011,24.650406 C 45.489502,36.169162 36.087252,45.514052 24.497845,45.509535 C 12.908437,45.505018 3.4988962,36.152795 3.4944046,24.634039 C 3.489913,13.115282 12.892164,3.770392 24.481571,3.7749093 C 36.070978,3.7794267 45.480519,13.131649 45.485011,24.650406 z "
           style="color:black;fill:url(#linearGradient4367);fill-opacity:1;fill-rule:nonzero;stroke:url(#linearGradient4369);stroke-width:2.09930086;stroke-linecap:square;stroke-linejoin:miter;marker:none;marker-start:none;marker-mid:none;marker-end:none;stroke-miterlimit:4;stroke-dasharray:none;stroke-dashoffset:0;stroke-opacity:1;visibility:visible;display:inline;overflow:visible" />
        <g
           transform="matrix(0.965926,0.258819,-0.258819,0.965926,7.201537,-5.504116)"
           style="fill:url(#linearGradient2652);fill-opacity:1;stroke:url(#linearGradient2668);stroke-width:2.0581708"
           id="g2636">
          <path
             style="color:black;fill:url(#linearGradient4371);fill-opacity:1;fill-rule:nonzero;stroke:url(#linearGradient4373);stroke-width:1.0290854;stroke-linecap:square;stroke-linejoin:miter;marker:none;marker-start:none;marker-mid:none;marker-end:none;stroke-miterlimit:4;stroke-dasharray:none;stroke-dashoffset:0;stroke-opacity:1;visibility:visible;display:inline;overflow:visible"
             d="M 13.34375,13.34375 C 14.897134,15.437441 21.190617,20.852925 24.5,24.5 L 24.527344,7.7190722 C 24.527344,6.3878355 22.928837,6.0533433 20.335423,6.0533433 C 17.829889,6.0533433 16.600241,6.6909795 14.358797,8.6972031 C 12.328775,10.514191 12.054759,11.606415 13.34375,13.34375 z "
             id="path2298"
             sodipodi:nodetypes="ccczzs" />
          <path
             sodipodi:nodetypes="ccczzs"
             id="use2349"
             d="M 36.21175,35.65625 C 34.658366,33.562559 28.364883,28.147075 25.0555,24.5 L 25.028156,41.280928 C 25.028156,42.612164 26.626663,42.946657 29.220077,42.946657 C 31.725611,42.946657 32.955259,42.309021 35.196703,40.302797 C 37.226725,38.485809 37.500741,37.393585 36.21175,35.65625 z "
             style="color:black;fill:url(#linearGradient4375);fill-opacity:1;fill-rule:nonzero;stroke:url(#linearGradient4377);stroke-width:1.0290854;stroke-linecap:square;stroke-linejoin:miter;marker:none;marker-start:none;marker-mid:none;marker-end:none;stroke-miterlimit:4;stroke-dasharray:none;stroke-dashoffset:0;stroke-opacity:1;visibility:visible;display:inline;overflow:visible" />
          <path
             style="color:black;fill:url(#linearGradient4379);fill-opacity:1;fill-rule:nonzero;stroke:url(#linearGradient4381);stroke-width:1.0290854;stroke-linecap:square;stroke-linejoin:miter;marker:none;marker-start:none;marker-mid:none;marker-end:none;stroke-miterlimit:4;stroke-dasharray:none;stroke-dashoffset:0;stroke-opacity:1;visibility:visible;display:inline;overflow:visible"
             d="M 24.58135,8.5262881 L 24.58135,24.303613 L 35.77629,13.147343 C 36.717617,12.206016 36.012089,10.650914 34.178268,8.8170923 C 32.406587,7.0454117 31.086217,6.626796 28.082662,6.46047 C 25.362414,6.3098322 24.58135,6.9905478 24.58135,8.5262881 z "
             id="path2360"
             sodipodi:nodetypes="ccczzs" />
          <path
             sodipodi:nodetypes="ccczzs"
             id="use2362"
             d="M 24.974148,40.473736 C 25.356203,37.894864 24.735364,29.615371 24.974148,24.696411 L 13.088901,36.542987 C 12.147575,37.484314 13.041368,38.851152 14.875189,40.684973 C 16.64687,42.456653 17.967239,42.875269 20.970795,43.041595 C 23.691043,43.192233 24.657121,42.613672 24.974148,40.473736 z "
             style="color:black;fill:url(#linearGradient4383);fill-opacity:1;fill-rule:nonzero;stroke:url(#linearGradient4385);stroke-width:1.02908587;stroke-linecap:square;stroke-linejoin:miter;marker:none;marker-start:none;marker-mid:none;marker-end:none;stroke-miterlimit:4;stroke-dasharray:none;stroke-dashoffset:0;stroke-opacity:1;visibility:visible;display:inline;overflow:visible" />
          <path
             style="color:black;fill:url(#linearGradient4387);fill-opacity:1;fill-rule:nonzero;stroke:url(#linearGradient4389);stroke-width:1.0290854;stroke-linecap:square;stroke-linejoin:miter;marker:none;marker-start:none;marker-mid:none;marker-end:none;stroke-miterlimit:4;stroke-dasharray:none;stroke-dashoffset:0;stroke-opacity:1;visibility:visible;display:inline;overflow:visible"
             d="M 35.93401,13.066004 L 24.77776,24.222254 L 40.582448,24.249598 C 41.913684,24.249598 42.514424,22.651091 42.514424,20.057677 C 42.514424,17.552143 41.876788,16.322495 39.870564,14.081051 C 38.053576,12.051029 37.019942,11.980072 35.93401,13.066004 z "
             id="path2366"
             sodipodi:nodetypes="ccczzs" />
          <path
             sodipodi:nodetypes="ccczzs"
             id="use2368"
             d="M 13.62151,35.934004 C 15.715201,34.38062 21.130685,28.087137 24.77776,24.777754 L 7.996832,24.75041 C 6.665596,24.75041 6.331103,26.348917 6.331103,28.942331 C 6.331103,31.447865 6.968739,32.677513 8.974963,34.918957 C 10.791951,36.948979 11.884175,37.222995 13.62151,35.934004 z "
             style="color:black;fill:url(#linearGradient4391);fill-opacity:1;fill-rule:nonzero;stroke:url(#linearGradient4393);stroke-width:1.0290854;stroke-linecap:square;stroke-linejoin:miter;marker:none;marker-start:none;marker-mid:none;marker-end:none;stroke-miterlimit:4;stroke-dasharray:none;stroke-dashoffset:0;stroke-opacity:1;visibility:visible;display:inline;overflow:visible" />
          <path
             style="color:black;fill:url(#linearGradient4395);fill-opacity:1;fill-rule:nonzero;stroke:url(#linearGradient4397);stroke-width:1.0290854;stroke-linecap:square;stroke-linejoin:miter;marker:none;marker-start:none;marker-mid:none;marker-end:none;stroke-miterlimit:4;stroke-dasharray:none;stroke-dashoffset:0;stroke-opacity:1;visibility:visible;display:inline;overflow:visible"
             d="M 40.751472,24.30361 L 24.974147,24.30361 L 36.130417,35.49855 C 37.071744,36.439877 38.626846,35.734349 40.460668,33.900528 C 42.232348,32.128847 42.650964,30.808477 42.81729,27.804922 C 42.967928,25.084674 42.287212,24.30361 40.751472,24.30361 z "
             id="path2378"
             sodipodi:nodetypes="ccczzs" />
          <path
             sodipodi:nodetypes="ccczzs"
             id="use2380"
             d="M 8.8040241,24.696408 C 11.382896,25.078463 19.662389,24.457624 24.581349,24.696408 L 12.734773,12.811161 C 11.793446,11.869835 10.426608,12.763628 8.5927872,14.597449 C 6.8211066,16.36913 6.4024908,17.689499 6.2361651,20.693055 C 6.0855272,23.413303 6.6640878,24.379381 8.8040241,24.696408 z "
             style="color:black;fill:url(#linearGradient4399);fill-opacity:1;fill-rule:nonzero;stroke:url(#linearGradient4401);stroke-width:1.02908587;stroke-linecap:square;stroke-linejoin:miter;marker:none;marker-start:none;marker-mid:none;marker-end:none;stroke-miterlimit:4;stroke-dasharray:none;stroke-dashoffset:0;stroke-opacity:1;visibility:visible;display:inline;overflow:visible" />
        </g>
        <path
           sodipodi:nodetypes="cccccccccccccscccccccccc"
           id="path2384"
           d="M 24.782615,6.0633182 C 21.970362,5.6754195 19.097379,6.5102769 16.901947,8.2046397 C 16.657332,8.7131169 16.325147,10.354052 16.359542,10.363716 C 16.30599,10.367405 15.241199,9.9828914 14.618537,9.6269847 C 10.972225,10.252347 8.2051779,13.497188 7.5829475,17.054339 C 6.7457134,18.353718 8.4380358,20.237011 8.6590975,20.551129 C 6.9457366,21.211628 5.992152,22.868082 5.7386025,24.498967 C 5.005193,27.498186 6.4723856,30.526981 8.360898,32.787766 C 9.114817,33.184205 11.334116,32.616281 9.9177825,33.865612 C 9.6198062,36.494854 11.554867,38.768429 13.50637,40.267363 C 15.304126,41.272793 17.820518,42.599165 19.791102,41.438254 C 20.300255,40.67791 21.165665,40.310357 20.862821,41.612976 C 22.162406,43.523817 24.778956,43.734466 26.887856,43.819257 C 29.201385,43.626807 33.016067,42.130099 33.048289,40.965875 L 33.121704,38.313331 L 34.583344,38.787513 C 38.682376,38.336297 41.594477,34.319526 41.742555,30.373587 C 41.861658,29.068433 39.861471,28.415249 41.68847,27.703853 C 43.634121,25.456989 43.716653,22.119691 42.613639,19.465076 C 42.109573,18.131094 41.58526,16.847192 40.42702,15.917807 C 38.242298,15.985608 39.209032,13.695119 38.129288,12.100397 C 36.996828,9.7778907 34.593634,8.6459837 32.298061,7.8039398 C 31.182521,6.9360527 29.284178,8.1442425 29.045417,8.223029 C 28.872246,6.0112781 26.371319,6.6142457 24.782615,6.0633182 z "
           style="color:black;fill:none;fill-opacity:1;fill-rule:nonzero;stroke:url(#linearGradient4403);stroke-width:4.11634159;stroke-linecap:square;stroke-linejoin:miter;marker:none;marker-start:none;marker-mid:none;marker-end:none;stroke-miterlimit:4;stroke-dasharray:none;stroke-dashoffset:0;stroke-opacity:1;visibility:visible;display:inline;overflow:visible" />
        <path
           transform="matrix(0.999539,-3.037338e-2,3.037338e-2,0.999539,-0.735408,0.757723)"
           style="opacity:0.7;color:black;fill:url(#linearGradient4405);fill-opacity:1;fill-rule:nonzero;stroke:none;stroke-width:0.5;stroke-linecap:square;stroke-linejoin:miter;marker:none;marker-start:none;marker-mid:none;marker-end:none;stroke-miterlimit:4;stroke-dashoffset:0;stroke-opacity:1;visibility:visible;display:inline;overflow:visible"
           d="M 12.577264,12.496149 C 13.532239,11.373447 21.852046,23.893134 22.988615,22.954707 C 24.128451,22.013583 14.510505,12.817657 15.664001,11.893325 C 16.81419,10.971642 22.036236,23.387632 23.329864,22.681261 C 24.627211,21.972859 17.648557,10.905342 18.956138,10.216015 C 20.259972,9.5286631 22.312765,22.926123 23.716697,22.477337 C 25.124665,22.027262 20.060006,8.6379323 21.474414,8.2085231 C 22.884768,7.7803446 22.671637,22.525288 24.135132,22.350308 C 25.602833,22.174826 23.145678,8.4311989 24.615791,8.2772281 C 26.081692,8.1236985 23.099883,22.199613 24.570046,22.304764 C 26.044434,22.410217 25.782491,8.4740419 27.255177,8.6010744 C 28.723642,8.7277428 23.582024,21.96087 25.005719,22.34235 C 26.433506,22.724928 29.627219,9.938092 31.049251,10.341536 C 32.467207,10.743825 24.100635,21.817687 25.426406,22.46171 C 26.755988,23.107584 32.423589,9.7973387 33.74357,10.462614 C 35.059769,11.125982 24.636971,21.775239 25.816902,22.658527 C 27.000224,23.544354 34.841202,11.808353 36.011425,12.711414 C 37.178295,13.611886 25.171649,21.83506 26.163093,22.92569 C 27.157387,24.019454 36.360005,14.148428 37.338175,15.256636 C 38.313542,16.361667 25.685343,21.994989 26.452467,23.253542 C 27.221797,24.515712 38.026618,17.27584 38.777382,18.54914 C 39.525995,19.818792 26.159486,22.249245 26.674566,23.630233 C 27.191125,25.015191 40.453481,19.429991 40.949704,20.822364 C 41.444504,22.210747 26.576944,22.588639 26.821361,24.04215 C 27.066481,25.499839 41.24621,22.455074 41.469957,23.916197 C 41.693063,25.373131 26.922626,23.000903 26.887548,24.474404 C 26.852368,25.95214 41.033391,25.086911 40.976575,26.563974 C 40.919923,28.036803 27.18404,23.471138 26.870734,24.911373 C 26.556527,26.355746 40.645025,28.18993 40.309701,29.629547 C 39.975337,31.065039 27.351738,23.982349 26.771527,25.337262 C 26.189649,26.69607 39.676428,31.163373 39.074714,32.513515 C 38.474724,33.859786 27.419657,24.516058 26.593513,25.736681 C 25.764994,26.960812 38.162607,33.899775 37.31625,35.111642 C 36.47232,36.320036 27.385345,25.052976 26.343125,26.095192 C 25.29791,27.140403 36.158275,36.300234 35.097866,37.330027 C 34.040496,38.356869 27.250039,25.573698 26.029414,26.399838 C 24.805279,27.228353 33.735874,38.277991 32.499738,39.08849 C 31.267145,39.896667 27.018632,26.059403 25.663717,26.639608 C 24.304907,27.221482 30.982956,39.761565 29.615771,40.323477 C 28.252504,40.88378 26.699486,26.492536 25.259251,26.805837 C 23.814876,27.120039 27.999018,40.697335 26.550197,40.990352 C 25.105529,41.282529 26.304137,26.857444 24.830636,26.892517 C 23.3529,26.927691 24.891909,41.051481 23.413816,41.065012 C 21.93996,41.078504 25.846873,27.140936 24.393363,26.896514 C 22.935674,26.651389 21.773926,40.811203 20.319984,40.544758 C 18.870209,40.279077 25.344221,27.332768 23.963235,26.817684 C 22.578279,26.301119 18.757763,39.985185 17.38052,39.448395 C 16.007224,38.913143 24.814348,27.426006 23.555798,26.658876 C 22.293631,25.889542 15.95243,38.603282 14.701664,37.815547 C 13.454483,37.03007 24.276405,27.417279 23.185779,26.425831 C 22.092019,25.431533 13.45932,36.715439 12.380237,35.70523 C 11.304247,34.697917 23.749836,27.306904 22.866551,26.12697 C 21.980728,24.943645 11.368541,34.389887 10.500141,33.193716 C 9.6342307,32.000974 23.25367,27.09887 22.609652,25.773096 C 21.963783,24.443512 9.7556582,31.710678 9.1293285,30.371779 C 8.5047939,29.036716 22.805842,26.800695 22.424366,25.376999 C 22.041794,23.94921 8.678966,28.774646 8.3173434,27.341409 C 7.9567571,25.912279 22.422536,26.423156 22.317391,24.952993 C 22.211943,23.478605 8.5961009,26.176511 8.5122553,24.700736 C 8.42865,23.229191 22.117607,25.979899 22.292592,24.516405 C 22.46808,23.048705 9.203933,23.39175 9.4008948,21.926777 C 9.5972921,20.466002 21.902075,25.486944 22.350866,24.083014 C 22.800947,22.675047 9.8579191,19.579854 10.32857,18.17863 C 10.797871,16.781422 21.783731,24.962108 22.490107,23.668482 C 23.198514,22.371138 9.8037348,16.275932 10.531063,14.989101 C 11.256307,13.705958 21.766851,24.42436 22.705282,23.287794 C 23.646411,22.147961 11.619545,13.622078 12.577264,12.496149 z "
           id="path2736"
           sodipodi:nodetypes="csssssssssssssssssssssssssssssssssssssssssssssssssssssssssssssssssc" />
        <path
           style="color:black;fill:url(#radialGradient4407);fill-opacity:1;fill-rule:nonzero;stroke:none;stroke-width:0.5;stroke-linecap:square;stroke-linejoin:miter;marker:none;marker-start:none;marker-mid:none;marker-end:none;stroke-miterlimit:4;stroke-dashoffset:0;stroke-opacity:1;visibility:visible;display:inline;overflow:visible"
           d="M 24.157201,21.636534 L 26.972524,15.433966 L 26.26055,22.313586 L 32.388741,19.934901 L 27.269094,24.279626 L 21.514109,24.748427 L 15.372459,22.191176 L 22.191161,22.645079 L 19.465425,16.008496 L 24.157201,21.636534 z "
           id="path2771"
           sodipodi:nodetypes="cccccccccc" />
      </g>
    </g>
    <path
       style="fill:url(#linearGradient5697);fill-opacity:1;fill-rule:evenodd;stroke:none;stroke-width:0.25pt;stroke-linecap:butt;stroke-linejoin:miter;stroke-opacity:1"
       d="M 9.3356817,1.9631533 C 8.970263,1.9601663 8.5916361,1.9913563 8.2077652,2.0544363 C 8.3172793,4.7870463 8.4272269,7.5191063 8.536741,10.251715 C 8.7567698,10.256517 8.9522425,10.351398 9.1124481,10.495138 C 10.919648,8.3631543 12.72747,6.2311773 14.53467,4.0991923 C 13.934267,3.4599333 11.89361,1.9840563 9.3356817,1.9631533 z M 7.8082948,12.034791 C 6.2345751,13.891335 4.6588657,15.746552 3.0851459,17.603096 C 4.9499648,19.667301 6.8138488,20.59531 8.9538349,20.664148 C 8.8431,17.901074 8.7297195,15.138653 8.6189846,12.375584 C 8.5844531,12.379788 8.5546421,12.399924 8.5191174,12.399924 C 8.2328672,12.399924 7.9847485,12.257166 7.8082948,12.034791 z "
       id="path4955" />
    <path
       style="fill:url(#linearGradient5723);fill-opacity:1;fill-rule:evenodd;stroke:none;stroke-width:0.25pt;stroke-linecap:butt;stroke-linejoin:miter;stroke-opacity:1"
       d="M 29.540251,1.0002095 C 29.157895,0.9970159 28.761719,1.0303712 28.360055,1.0978331 C 28.474646,4.0202238 28.589689,6.9420273 28.704279,9.8644177 C 28.934507,9.8695528 29.13904,9.9710247 29.306671,10.124747 C 31.197635,7.8446936 33.089252,5.5646508 34.980215,3.2845979 C 34.351984,2.6009421 32.216742,1.0225635 29.540251,1.0002095 z M 27.942069,11.771326 C 26.295407,13.75681 24.646663,15.740879 23,17.726358 C 24.951254,19.933923 26.90153,20.926379 29.140705,21 C 29.024838,18.045033 28.906202,15.09076 28.790335,12.135793 C 28.754203,12.140289 28.72301,12.161822 28.685839,12.161822 C 28.386321,12.161822 28.126702,12.009151 27.942069,11.771326 z "
       id="path5701" />
    <path
       sodipodi:nodetypes="csssccsssc"
       style="opacity:1;color:black;fill:#f2f2f2;fill-opacity:0.41199999;fill-rule:evenodd;stroke:#e3e3e3;stroke-width:0.53548688;stroke-linecap:round;stroke-linejoin:round;marker:none;marker-start:none;marker-mid:none;marker-end:none;stroke-miterlimit:4;stroke-dasharray:none;stroke-dashoffset:0;stroke-opacity:0.64800002;visibility:visible;display:inline;overflow:visible"
       d="M 8.9978658,7.8454357 C 7.4900232,7.8454357 6.2677416,9.2566405 6.2677416,10.997543 C 6.2677416,12.738448 7.4900232,14.154577 8.9978658,14.154577 C 10.505708,14.154577 11.732255,12.738448 11.732256,10.997543 C 11.732256,9.2566405 10.505708,7.8454357 8.9978658,7.8454357 z M 8.9978658,9.6381971 C 9.6477953,9.6381971 10.175232,10.247158 10.175232,10.997543 C 10.175232,11.74793 9.6477953,12.356891 8.9978658,12.356891 C 8.3479365,12.356891 7.8204996,11.74793 7.8204996,10.997543 C 7.8204992,10.247158 8.3479368,9.6381971 8.9978658,9.6381971 z "
       id="path2055" />
    <path
       style="opacity:1;color:black;fill:none;fill-opacity:1;fill-rule:evenodd;stroke:url(#linearGradient4834);stroke-width:1.9999994;stroke-linecap:round;stroke-linejoin:round;marker:none;marker-start:none;marker-mid:none;marker-end:none;stroke-miterlimit:4;stroke-dasharray:none;stroke-dashoffset:0;stroke-opacity:1;visibility:visible;display:inline;overflow:visible"
       d="M 10.41453,2.0000002 C 5.7690707,2.0000002 1.999999,6.0305515 1.999999,10.99715 C 1.999999,15.963745 5.7690712,20.000007 10.41453,20.000007 C 15.059989,20.000007 18.829061,15.963745 18.829061,10.99715 C 18.829062,6.0305515 15.05999,2.0000002 10.41453,2.0000002 z "
       id="path4818"
       sodipodi:nodetypes="csssc" />
    <path
       style="opacity:1;color:black;fill:none;fill-opacity:1;fill-rule:evenodd;stroke:url(#linearGradient4842);stroke-width:0.99999923;stroke-linecap:round;stroke-linejoin:round;marker:none;marker-start:none;marker-mid:none;marker-end:none;stroke-miterlimit:4;stroke-dasharray:none;stroke-dashoffset:0;stroke-opacity:1;visibility:visible;display:inline;overflow:visible"
       d="M 9.465349,1.4999986 C 5.0678717,1.4999986 1.4999992,5.7544674 1.4999992,10.996985 C 1.4999992,16.239499 5.0678717,20.499998 9.465349,20.499998 C 13.862826,20.499998 17.4307,16.239499 17.4307,10.996985 C 17.4307,5.7544674 13.862826,1.4999986 9.465349,1.4999986 z "
       id="path3330"
       sodipodi:nodetypes="csssc" />
    <g
       id="g4034"
       transform="translate(-19.00001,-4.039536e-8)">
      <path
         sodipodi:nodetypes="ccccsssscccccssssccccc"
         id="path1139"
         style="fill:url(#linearGradient4040);fill-opacity:1;stroke:#3cb30c;stroke-width:1.00000012;stroke-linejoin:round;stroke-miterlimit:4;stroke-dasharray:none;stroke-dashoffset:0;stroke-opacity:1"
         d="M 39.50001,1.5000001 L 31.539003,2.8640627 L 31.539003,6.212643 L 31.539003,10.310371 C 30.964038,10.155699 31.044685,10.14357 30.801849,10.14357 C 29.901906,10.14357 29.500017,10.419054 29.500017,11.717081 C 29.500017,12.70091 30.230974,13.499999 31.130917,13.499999 C 32.030863,13.499999 33.49798,13.362177 33.49798,11.717081 C 33.49798,11.681567 33.489686,11.648295 33.487809,11.613293 L 33.504762,11.613293 L 33.504762,6.0161882 L 37.532984,5.0450342 L 37.532984,9.3563356 C 37.325918,9.252183 37.07673,9.1932414 36.833986,9.1932414 C 35.934042,9.1932414 35.206475,9.4188997 35.206475,10.763046 C 35.206475,11.746876 35.934042,12.545965 36.833986,12.545965 C 37.783298,12.545965 39.121855,12.702728 39.493227,10.763046 C 39.499974,10.727806 39.484971,10.694615 39.483056,10.659258 L 39.50001,10.659258 L 39.50001,4.8485794 L 39.50001,1.807655 L 39.50001,1.5000001 z " />
      <path
         sodipodi:nodetypes="ccccc"
         id="path1778"
         style="fill:url(#linearGradient4042);fill-opacity:1;fill-rule:evenodd;stroke:none;stroke-width:0.25pt;stroke-linecap:butt;stroke-linejoin:miter;stroke-opacity:1"
         d="M 32,5.8776463 L 32.053847,3.3159848 L 39,2 L 38.946154,4.2515359 L 32,5.8776463 z " />
      <path
         id="path2409"
         style="fill:url(#linearGradient4044);fill-opacity:1;stroke:none;stroke-width:3.59371519;stroke-linejoin:round;stroke-miterlimit:4;stroke-dashoffset:0;stroke-opacity:1"
         d="M 33,11.418182 C 33,12.201019 32.66182,13 31.581817,13 C 30.82909,13 30,12.201019 30,11.418182 C 30,10.635345 30.72,10 31.472726,10 C 32.225456,10 33,10.635345 33,11.418182 z " />
      <path
         id="path3036"
         style="fill:url(#linearGradient4046);fill-opacity:1;stroke:none;stroke-width:3.59371519;stroke-linejoin:round;stroke-miterlimit:4;stroke-dashoffset:0;stroke-opacity:1"
         d="M 39,10.464171 C 39,11.224248 38.608316,12 37.35745,12 C 36.485637,12 35.525379,11.224248 35.525379,10.464171 C 35.525379,9.704094 36.359288,9.0872203 37.231102,9.0872203 C 38.102917,9.0872203 39,9.704094 39,10.464171 z " />
    </g>
  </g>
</svg>
