<?xml version="1.0" encoding="UTF-8" standalone="no"?>
<!-- Created with Inkscape (http://www.inkscape.org/) -->
<svg
   xmlns:dc="http://purl.org/dc/elements/1.1/"
   xmlns:cc="http://web.resource.org/cc/"
   xmlns:rdf="http://www.w3.org/1999/02/22-rdf-syntax-ns#"
   xmlns:svg="http://www.w3.org/2000/svg"
   xmlns="http://www.w3.org/2000/svg"
   xmlns:xlink="http://www.w3.org/1999/xlink"
   xmlns:sodipodi="http://inkscape.sourceforge.net/DTD/sodipodi-0.dtd"
   xmlns:inkscape="http://www.inkscape.org/namespaces/inkscape"
   width="22"
   height="22"
   id="svg2"
   sodipodi:version="0.32"
   inkscape:version="0.43+devel"
   sodipodi:docbase="/home/silvestre/Desktop/Neu/22x22/apps"
   sodipodi:docname="system-installer.svg"
   version="1.0">
  <defs
     id="defs4">
    <linearGradient
       inkscape:collect="always"
       id="linearGradient5756">
      <stop
         style="stop-color:white;stop-opacity:0.85490197"
         offset="0"
         id="stop5758" />
      <stop
         style="stop-color:white;stop-opacity:0.4509804"
         offset="1"
         id="stop5760" />
    </linearGradient>
    <linearGradient
       inkscape:collect="always"
       id="linearGradient5746">
      <stop
         style="stop-color:white;stop-opacity:0.90987122"
         offset="0"
         id="stop5748" />
      <stop
         style="stop-color:white;stop-opacity:0.60392159"
         offset="1"
         id="stop5750" />
    </linearGradient>
    <linearGradient
       inkscape:collect="always"
       id="linearGradient5736">
      <stop
         style="stop-color:black;stop-opacity:0.60085839"
         offset="0"
         id="stop5738" />
      <stop
         style="stop-color:black;stop-opacity:0;"
         offset="1"
         id="stop5740" />
    </linearGradient>
    <linearGradient
       inkscape:collect="always"
       id="linearGradient5717">
      <stop
         style="stop-color:#6981b3;stop-opacity:1"
         offset="0"
         id="stop5719" />
      <stop
         style="stop-color:#8195bf;stop-opacity:1"
         offset="1"
         id="stop5721" />
    </linearGradient>
    <linearGradient
       inkscape:collect="always"
       id="linearGradient4836">
      <stop
         style="stop-color:white;stop-opacity:1;"
         offset="0"
         id="stop4838" />
      <stop
         style="stop-color:white;stop-opacity:0.58823532"
         offset="1"
         id="stop4840" />
    </linearGradient>
    <linearGradient
       inkscape:collect="always"
       id="linearGradient4828">
      <stop
         style="stop-color:#5a72a4;stop-opacity:0.627451"
         offset="0"
         id="stop4830" />
      <stop
         style="stop-color:#5a72a4;stop-opacity:0;"
         offset="1"
         id="stop4832" />
    </linearGradient>
    <linearGradient
       id="linearGradient8655">
      <stop
         style="stop-color:#000000;stop-opacity:0.30208334;"
         offset="0.0000000"
         id="stop8657" />
      <stop
         style="stop-color:#000000;stop-opacity:0;"
         offset="1"
         id="stop8659" />
    </linearGradient>
    <linearGradient
       id="linearGradient7917">
      <stop
         style="stop-color:#000000;stop-opacity:0.16666669;"
         offset="0.0000000"
         id="stop7919" />
      <stop
         style="stop-color:#000000;stop-opacity:0;"
         offset="1"
         id="stop7921" />
    </linearGradient>
    <linearGradient
       id="linearGradient6455">
      <stop
         style="stop-color:#e2e5ff;stop-opacity:1.0000000;"
         offset="0.0000000"
         id="stop6457" />
      <stop
         style="stop-color:#b5c6e7;stop-opacity:1.0000000;"
         offset="1.0000000"
         id="stop6459" />
    </linearGradient>
    <linearGradient
       id="linearGradient5703">
      <stop
         id="stop5705"
         offset="0.0000000"
         style="stop-color:#ffffff;stop-opacity:0.83333325;" />
      <stop
         id="stop5707"
         offset="1"
         style="stop-color:#ffffff;stop-opacity:0.0000000" />
    </linearGradient>
    <linearGradient
       id="linearGradient5691">
      <stop
         style="stop-color:#ffffff;stop-opacity:0.83333325;"
         offset="0.0000000"
         id="stop5693" />
      <stop
         style="stop-color:#ffffff;stop-opacity:0.0000000"
         offset="1"
         id="stop5695" />
    </linearGradient>
    <radialGradient
       inkscape:collect="always"
       xlink:href="#linearGradient7917"
       id="radialGradient3966"
       gradientUnits="userSpaceOnUse"
       gradientTransform="matrix(1,0,0,0.228426,-1.230246e-14,85.02033)"
       cx="51.231888"
       cy="110.19082"
       fx="51.231888"
       fy="110.19082"
       r="48.06039" />
    <linearGradient
       inkscape:collect="always"
       xlink:href="#linearGradient5736"
       id="linearGradient5742"
       x1="46.266068"
       y1="23.75"
       x2="33.85746"
       y2="23.75"
       gradientUnits="userSpaceOnUse"
       gradientTransform="matrix(0.469455,0,0,0.468975,-0.641164,-0.510776)" />
    <linearGradient
       inkscape:collect="always"
       xlink:href="#linearGradient5746"
       id="linearGradient5752"
       x1="17.67767"
       y1="6.2806997"
       x2="17.67767"
       y2="46.009853"
       gradientUnits="userSpaceOnUse"
       gradientTransform="matrix(0.447369,0,0,0.475,-6.579024e-2,-1.112506)" />
    <linearGradient
       inkscape:collect="always"
       xlink:href="#linearGradient5756"
       id="linearGradient5762"
       x1="34.559845"
       y1="5.9246836"
       x2="34.559845"
       y2="45.264244"
       gradientUnits="userSpaceOnUse"
       gradientTransform="matrix(0.469455,0,0,0.468975,-0.696197,-0.838366)" />
    <linearGradient
       inkscape:collect="always"
       xlink:href="#linearGradient4836"
       id="linearGradient5765"
       gradientUnits="userSpaceOnUse"
       gradientTransform="matrix(0.134526,0,0,0.141381,7.185432,4.781496)"
       x1="38.183765"
       y1="21.226875"
       x2="59.657269"
       y2="101.36707" />
    <linearGradient
       inkscape:collect="always"
       xlink:href="#linearGradient4828"
       id="linearGradient5768"
       gradientUnits="userSpaceOnUse"
       gradientTransform="matrix(0.140414,0,0,0.142206,7.169206,4.902264)"
       x1="100.05664"
       y1="65.067497"
       x2="57.319603"
       y2="65.067497" />
    <linearGradient
       inkscape:collect="always"
       xlink:href="#linearGradient5703"
       id="linearGradient5772"
       gradientUnits="userSpaceOnUse"
       gradientTransform="matrix(0.139374,0,0,0.136544,7.499979,5.617474)"
       x1="59.902058"
       y1="95.622185"
       x2="33.750458"
       y2="78.300934" />
    <linearGradient
       inkscape:collect="always"
       xlink:href="#linearGradient5691"
       id="linearGradient5775"
       gradientUnits="userSpaceOnUse"
       gradientTransform="matrix(0.138238,0,0,0.143371,7.261899,5.176164)"
       x1="31.114616"
       y1="33.89996"
       x2="48.388142"
       y2="61.223637" />
    <linearGradient
       inkscape:collect="always"
       xlink:href="#linearGradient6455"
       id="linearGradient5778"
       gradientUnits="userSpaceOnUse"
       gradientTransform="matrix(0.153215,0,0,0.152236,6.705202,4.149859)"
       x1="21.100939"
       y1="33.477123"
       x2="54.294334"
       y2="75.682442" />
    <linearGradient
       inkscape:collect="always"
       xlink:href="#linearGradient5717"
       id="linearGradient5780"
       gradientUnits="userSpaceOnUse"
       gradientTransform="matrix(0.153215,0,0,0.152236,6.398765,4.149859)"
       x1="99.25"
       y1="65.5"
       x2="43.49057"
       y2="65.5" />
  </defs>
  <sodipodi:namedview
     id="base"
     pagecolor="#ffffff"
     bordercolor="#666666"
     borderopacity="1.0"
     inkscape:pageopacity="0.0"
     inkscape:pageshadow="2"
     inkscape:zoom="1"
     inkscape:cx="7.2223053"
     inkscape:cy="14.657892"
     inkscape:document-units="px"
     inkscape:current-layer="layer1"
     showguides="true"
     inkscape:guide-bbox="true"
     inkscape:window-width="823"
     inkscape:window-height="536"
     inkscape:window-x="47"
     inkscape:window-y="176"
     showborder="false"
     width="22px"
     height="22px"
     inkscape:showpageshadow="false"
     showgrid="false" />
  <metadata
     id="metadata7">
    <rdf:RDF>
      <cc:Work
         rdf:about="">
        <dc:format>image/svg+xml</dc:format>
        <dc:type
           rdf:resource="http://purl.org/dc/dcmitype/StillImage" />
      </cc:Work>
    </rdf:RDF>
  </metadata>
  <g
     inkscape:label="Layer 1"
     inkscape:groupmode="layer"
     id="layer1">
    <path
       style="fill:#d9d3c1;fill-opacity:1;stroke:none;stroke-width:1;stroke-linecap:round;stroke-linejoin:round;stroke-miterlimit:4;stroke-dashoffset:0;stroke-opacity:0.57254902"
       d="M 0.76720137,2.7460408 L 15.793975,1.8340978 L 19.075947,3.2356798 L 19.075947,19.65095 L 15.793975,21.06208 L 0.76720137,20.150137 L 0.76720137,2.7460408 z "
       id="rect3980"
       sodipodi:nodetypes="ccccccc" />
    <path
       style="fill:#b71f1f;fill-opacity:1;stroke:none;stroke-width:1;stroke-linecap:round;stroke-linejoin:round;stroke-miterlimit:4;stroke-dashoffset:0;stroke-opacity:0.57254902"
       d="M 0.76720137,2.7450458 L 15.78664,1.8340978 L 19.075947,3.2363148 L 19.075947,8.8599738 L 15.78664,8.4049928 L 0.76720137,8.8687258 L 0.76720137,2.7450458 z "
       id="path4856"
       sodipodi:nodetypes="ccccccc" />
    <path
       style="fill:none;fill-opacity:1;stroke:#796a43;stroke-width:0.99999923;stroke-linecap:round;stroke-linejoin:round;stroke-miterlimit:4;stroke-dashoffset:0;stroke-opacity:1"
       d="M 0.49999959,1.4959857 L 15.960521,0.49999956 L 19.499998,2.1088736 L 19.499998,19.896322 L 15.975364,21.499998 L 0.49999959,20.504012 L 0.49999959,1.4959857 z "
       id="path5731"
       sodipodi:nodetypes="ccccccc" />
    <path
       style="fill:url(#linearGradient5742);fill-opacity:1;stroke:none;stroke-width:1;stroke-linecap:round;stroke-linejoin:round;stroke-miterlimit:4;stroke-dashoffset:0;stroke-opacity:1"
       d="M 15.789762,1.8340978 L 19.075947,3.2556788 L 19.075947,19.640499 L 15.789762,21.06208 L 15.789762,1.8340978 z "
       id="rect5733"
       sodipodi:nodetypes="ccccc" />
    <path
       style="fill:none;fill-opacity:1;stroke:url(#linearGradient5752);stroke-width:0.99999982;stroke-linecap:round;stroke-linejoin:miter;stroke-miterlimit:4;stroke-dashoffset:0;stroke-opacity:1"
       d="M 1.4999999,2.4011316 L 15.5428,1.5000004 L 18.499995,2.8369 L 18.499995,19.152971 L 15.556081,20.500009 L 1.4999999,19.598881 L 1.4999999,2.4011316 z "
       id="path5744"
       sodipodi:nodetypes="ccccccc" />
    <path
       style="opacity:0.87029269;fill:none;fill-opacity:1;fill-rule:evenodd;stroke:url(#linearGradient5762);stroke-width:0.99999988px;stroke-linecap:butt;stroke-linejoin:miter;stroke-opacity:1"
       d="M 15.5,1.7409999 L 15.5,20.5"
       id="path5754" />
    <path
       sodipodi:type="arc"
       style="color:black;fill:url(#radialGradient3966);fill-opacity:1;fill-rule:evenodd;stroke:none;stroke-width:3;stroke-linecap:round;stroke-linejoin:round;marker:none;marker-start:none;marker-mid:none;marker-end:none;stroke-miterlimit:4;stroke-dasharray:none;stroke-dashoffset:0;stroke-opacity:0.78400005;visibility:visible;display:inline;overflow:visible"
       id="path7189"
       sodipodi:cx="51.231888"
       sodipodi:cy="110.19082"
       sodipodi:rx="48.06039"
       sodipodi:ry="10.978262"
       d="M 99.292278 110.19082 A 48.06039 10.978262 0 1 1  3.1714973,110.19082 A 48.06039 10.978262 0 1 1  99.292278 110.19082 z"
       transform="matrix(0.136344,0,0,0.149302,7.24429,4.220464)" />
    <path
       style="color:black;fill:url(#linearGradient5778);fill-opacity:1;fill-rule:evenodd;stroke:url(#linearGradient5780);stroke-width:0.9999997;stroke-linecap:round;stroke-linejoin:round;marker:none;marker-start:none;marker-mid:none;marker-end:none;stroke-miterlimit:4;stroke-dasharray:none;stroke-dashoffset:0;stroke-opacity:1;visibility:visible;display:inline;overflow:visible"
       d="M 14.500005,6.5000045 C 10.635471,6.5000045 7.4999999,9.8587974 7.4999999,13.997627 C 7.4999999,18.136458 10.635471,21.500008 14.500005,21.500008 C 18.364539,21.500008 21.50001,18.136461 21.50001,13.997627 C 21.500011,9.8587964 18.364539,6.5000045 14.500005,6.5000045 z M 13.891934,11.381071 C 15.243392,11.381071 16.343372,12.561079 16.343372,14.016658 C 16.343373,15.472236 15.243392,16.652243 13.891934,16.652243 C 12.540476,16.652243 11.445283,15.472236 11.445283,14.016658 C 11.445283,12.56108 12.540476,11.381071 13.891934,11.381071 z "
       id="path1308" />
    <path
       style="fill:url(#linearGradient5775);fill-opacity:1;fill-rule:evenodd;stroke:none;stroke-width:0.25pt;stroke-linecap:butt;stroke-linejoin:miter;stroke-opacity:1"
       d="M 14.337967,7.5597078 C 14.069251,7.5575098 13.790823,7.5804718 13.508537,7.6269138 C 13.58907,9.6387238 13.669922,11.650131 13.750455,13.661941 C 13.912256,13.665476 14.055999,13.73533 14.173809,13.841154 C 15.502759,12.271538 16.832166,10.701927 18.161115,9.1323098 C 17.719601,8.6616728 16.218975,7.5750978 14.337967,7.5597078 z M 13.214782,14.974682 C 12.057525,16.341514 10.898805,17.707367 9.741548,19.074198 C 11.112869,20.593913 12.483502,21.277136 14.05717,21.327816 C 13.97574,19.293576 13.892364,17.259818 13.810934,15.225582 C 13.78554,15.228677 13.763618,15.243502 13.737495,15.243502 C 13.526997,15.243502 13.344539,15.1384 13.214782,14.974682 z "
       id="path4955" />
    <path
       style="fill:url(#linearGradient5772);fill-opacity:1;fill-rule:evenodd;stroke:none;stroke-width:0.25pt;stroke-linecap:butt;stroke-linejoin:miter;stroke-opacity:1"
       d="M 14.634189,7.8875168 C 14.363265,7.8854238 14.082548,7.9072918 13.797944,7.9515218 C 13.879139,9.8675318 13.960655,11.783157 14.041849,13.699167 C 14.20498,13.702534 14.349905,13.769062 14.468682,13.869847 C 15.808552,12.374973 17.148884,10.880107 18.488753,9.3852328 C 18.043611,8.9370078 16.530655,7.9021738 14.634189,7.8875168 z M 13.501774,14.949396 C 12.335008,16.25114 11.166767,17.551957 10,18.853698 C 11.382589,20.301047 12.764485,20.951732 14.351085,21 C 14.268985,19.062632 14.184924,17.125719 14.102825,15.188351 C 14.077223,15.191299 14.055121,15.205417 14.028783,15.205417 C 13.816555,15.205417 13.632598,15.10532 13.501774,14.949396 z "
       id="path5701" />
    <path
       sodipodi:nodetypes="csssccsssc"
       style="color:black;fill:#f2f2f2;fill-opacity:0.41199999;fill-rule:evenodd;stroke:#e3e3e3;stroke-width:0.53548658;stroke-linecap:round;stroke-linejoin:round;marker:none;marker-start:none;marker-mid:none;marker-end:none;stroke-miterlimit:4;stroke-dasharray:none;stroke-dashoffset:0;stroke-opacity:0.64800002;visibility:visible;display:inline;overflow:visible"
       d="M 13.971726,11.861501 C 12.728701,11.861501 11.721086,12.943392 11.721086,14.278044 C 11.721086,15.612698 12.728701,16.698364 13.971726,16.698364 C 15.21475,16.698364 16.225881,15.612698 16.225882,14.278044 C 16.225882,12.943392 15.21475,11.861501 13.971726,11.861501 z M 13.971726,13.23591 C 14.507509,13.23591 14.942314,13.702766 14.942314,14.278044 C 14.942314,14.853324 14.507509,15.32018 13.971726,15.32018 C 13.435941,15.32018 13.001137,14.853324 13.001137,14.278044 C 13.001136,13.702766 13.435942,13.23591 13.971726,13.23591 z "
       id="path2055" />
    <path
       style="color:black;fill:none;fill-opacity:1;fill-rule:evenodd;stroke:url(#linearGradient5768);stroke-width:0.99999982;stroke-linecap:round;stroke-linejoin:round;marker:none;marker-start:none;marker-mid:none;marker-end:none;stroke-miterlimit:4;stroke-dasharray:none;stroke-dashoffset:0;stroke-opacity:1;visibility:visible;display:inline;overflow:visible"
       d="M 14.523406,7.4999986 C 11.223878,7.4999986 8.5468203,10.457276 8.5468203,14.101346 C 8.5468203,17.745414 11.223878,20.706883 14.523406,20.706883 C 17.822935,20.706883 20.499994,17.745414 20.499994,14.101346 C 20.499994,10.457276 17.822936,7.4999986 14.523406,7.4999986 z "
       id="path4818"
       sodipodi:nodetypes="csssc" />
    <path
       style="color:black;fill:none;fill-opacity:1;fill-rule:evenodd;stroke:url(#linearGradient5765);stroke-width:0.9999997;stroke-linecap:round;stroke-linejoin:round;marker:none;marker-start:none;marker-mid:none;marker-end:none;stroke-miterlimit:4;stroke-dasharray:none;stroke-dashoffset:0;stroke-opacity:1;visibility:visible;display:inline;overflow:visible"
       d="M 13.999996,7.5000047 C 10.963578,7.5000047 8.4999942,10.410957 8.4999942,13.997943 C 8.4999942,17.584928 10.963578,20.500005 13.999996,20.500005 C 17.036414,20.500005 19.499998,17.584928 19.499998,13.997943 C 19.499998,10.410957 17.036414,7.5000047 13.999996,7.5000047 z "
       id="path3330"
       sodipodi:nodetypes="csssc" />
    <path
       style="font-size:9.50416279px;font-style:normal;font-variant:normal;font-weight:bold;font-stretch:normal;text-align:start;line-height:125%;writing-mode:lr-tb;text-anchor:start;fill:white;fill-opacity:0.92703863;stroke:none;stroke-width:1px;stroke-linecap:butt;stroke-linejoin:miter;stroke-opacity:1;font-family:Bitstream Vera Sans"
       d="M 4.4137167,7.0440894 L 3.0732577,7.1175344 L 2.8617235,7.9527849 L 2,8.0000001 L 3.2313516,3.4114757 L 4.2533958,3.3554778 L 5.4847471,7.8090684 L 4.6230241,7.8562824 L 4.4137167,7.0440894 M 3.2870186,6.2670191 L 4.1977289,6.2171207 L 3.743487,4.4432753 L 3.2870186,6.2670191 M 5.9234027,3.2639767 L 7.3462482,3.1860172 C 7.7693149,3.1628425 8.0936666,3.273263 8.3193056,3.5172809 C 8.5464239,3.7592067 8.6599837,4.1163639 8.6599873,4.5887556 C 8.6599837,5.0631719 8.5464239,5.4347919 8.3193056,5.7036204 C 8.0936666,5.970351 7.7693149,6.1153054 7.3462482,6.1384835 L 6.7806726,6.1694731 L 6.7806726,7.7380637 L 5.9234027,7.7850338 L 5.9234027,3.2639767 M 6.7806726,4.0618656 L 6.7806726,5.3246119 L 7.2549543,5.2986262 C 7.4212112,5.2895189 7.5496161,5.2279768 7.6401695,5.113999 C 7.7307189,4.9980074 7.7759949,4.8390709 7.7759964,4.6371898 C 7.7759949,4.4353158 7.7307189,4.2823499 7.6401695,4.1782932 C 7.5496161,4.0742448 7.4212112,4.0267737 7.2549543,4.0358798 L 6.7806726,4.0618656 M 9.2634159,3.0809749 L 10.686262,3.0030153 C 11.109329,2.9798394 11.433679,3.0902611 11.659318,3.334279 C 11.886436,3.5762049 11.999998,3.9333631 12,4.4057537 C 11.999998,4.8801688 11.886436,5.2517901 11.659318,5.5206174 C 11.433679,5.7873491 11.109329,5.9323035 10.686262,5.9554816 L 10.120686,5.98647 L 10.120686,7.5550619 L 9.2634159,7.6020318 L 9.2634159,3.0809749 M 10.120686,3.8788637 L 10.120686,5.14161 L 10.594968,5.1156243 C 10.761225,5.106517 10.88963,5.044975 10.980182,4.9309971 C 11.070732,4.8150054 11.116008,4.656069 11.11601,4.454188 C 11.116008,4.2523127 11.070732,4.0993491 10.980182,3.9952913 C 10.88963,3.8912429 10.761225,3.8437706 10.594968,3.8528779 L 10.120686,3.8788637"
       id="text5786" />
  </g>
</svg>
