<?xml version="1.0" encoding="UTF-8" standalone="no"?>
<!-- Created with Inkscape (http://www.inkscape.org/) -->
<svg
   xmlns:dc="http://purl.org/dc/elements/1.1/"
   xmlns:cc="http://web.resource.org/cc/"
   xmlns:rdf="http://www.w3.org/1999/02/22-rdf-syntax-ns#"
   xmlns:svg="http://www.w3.org/2000/svg"
   xmlns="http://www.w3.org/2000/svg"
   xmlns:xlink="http://www.w3.org/1999/xlink"
   xmlns:sodipodi="http://inkscape.sourceforge.net/DTD/sodipodi-0.dtd"
   xmlns:inkscape="http://www.inkscape.org/namespaces/inkscape"
   width="48"
   height="48"
   id="svg14"
   sodipodi:version="0.32"
   inkscape:version="0.43+devel"
   sodipodi:docbase="/home/silvestre/Desktop/Neu/extra/scalable/apps"
   sodipodi:docname="kde-logo.svg"
   version="1.0">
  <defs
     id="defs3">
    <linearGradient
       inkscape:collect="always"
       id="linearGradient5716">
      <stop
         style="stop-color:white;stop-opacity:0.68669528"
         offset="0"
         id="stop5718" />
      <stop
         style="stop-color:white;stop-opacity:0;"
         offset="1"
         id="stop5720" />
    </linearGradient>
    <linearGradient
       inkscape:collect="always"
       id="linearGradient5703">
      <stop
         style="stop-color:white;stop-opacity:1;"
         offset="0"
         id="stop5705" />
      <stop
         style="stop-color:white;stop-opacity:0.26180258"
         offset="1"
         id="stop5707" />
    </linearGradient>
    <linearGradient
       inkscape:collect="always"
       id="linearGradient6647">
      <stop
         style="stop-color:white;stop-opacity:1;"
         offset="0"
         id="stop6649" />
      <stop
         style="stop-color:white;stop-opacity:0.45064378"
         offset="1"
         id="stop6651" />
    </linearGradient>
    <linearGradient
       id="linearGradient4234">
      <stop
         id="stop4236"
         offset="0"
         style="stop-color:#c1e3ff;stop-opacity:1;" />
      <stop
         id="stop4238"
         offset="1"
         style="stop-color:#56ace5;stop-opacity:1;" />
    </linearGradient>
    <linearGradient
       id="linearGradient2049"
       inkscape:collect="always">
      <stop
         id="stop2051"
         offset="0"
         style="stop-color:white;stop-opacity:0.527897" />
      <stop
         id="stop2053"
         offset="1"
         style="stop-color:#ffffff;stop-opacity:0;" />
    </linearGradient>
    <linearGradient
       inkscape:collect="always"
       xlink:href="#linearGradient2049"
       id="linearGradient4018"
       gradientUnits="userSpaceOnUse"
       x1="72.151817"
       y1="38.213421"
       x2="72.151817"
       y2="77.304459"
       gradientTransform="matrix(0.419087,0,0,0.456438,-15.39175,-7.340482)" />
    <linearGradient
       inkscape:collect="always"
       xlink:href="#linearGradient4234"
       id="linearGradient4021"
       gradientUnits="userSpaceOnUse"
       x1="34.812870"
       y1="16.950554"
       x2="34.812870"
       y2="50.460960"
       gradientTransform="matrix(0.532424,0,0,0.540662,-4.527492,3.422947)" />
    <linearGradient
       inkscape:collect="always"
       xlink:href="#linearGradient6647"
       id="linearGradient4818"
       gradientUnits="userSpaceOnUse"
       gradientTransform="matrix(1.143421,0,0,1.112502,-17.6429,-6.021362)"
       x1="38.311138"
       y1="29.974993"
       x2="26.017185"
       y2="26.680838" />
    <linearGradient
       inkscape:collect="always"
       xlink:href="#linearGradient5703"
       id="linearGradient5709"
       x1="34.703732"
       y1="5.3881531"
       x2="27.537374"
       y2="19.505774"
       gradientUnits="userSpaceOnUse"
       gradientTransform="matrix(1.213333,0,0,1.210526,-8.226642,-0.526316)" />
    <linearGradient
       inkscape:collect="always"
       xlink:href="#linearGradient5716"
       id="linearGradient5722"
       x1="26.875"
       y1="4"
       x2="26.875"
       y2="12.906633"
       gradientUnits="userSpaceOnUse"
       gradientTransform="matrix(1.203173,0,0,1.185639,-7.876103,-0.371279)" />
  </defs>
  <sodipodi:namedview
     id="base"
     pagecolor="#ffffff"
     bordercolor="#666666"
     borderopacity="1.0"
     inkscape:pageopacity="0.0"
     inkscape:pageshadow="2"
     inkscape:zoom="1"
     inkscape:cx="8.6939831"
     inkscape:cy="18.552632"
     inkscape:document-units="px"
     inkscape:current-layer="layer1"
     inkscape:window-width="843"
     inkscape:window-height="556"
     inkscape:window-x="143"
     inkscape:window-y="107"
     inkscape:showpageshadow="false"
     width="48px"
     height="48px"
     showgrid="false"
     showborder="false"
     showguides="true"
     inkscape:guide-bbox="true" />
  <metadata
     id="metadata4">
    <rdf:RDF>
      <cc:Work
         rdf:about="">
        <dc:format>image/svg+xml</dc:format>
        <dc:type
           rdf:resource="http://purl.org/dc/dcmitype/StillImage" />
      </cc:Work>
    </rdf:RDF>
  </metadata>
  <g
     inkscape:label="Layer 1"
     inkscape:groupmode="layer"
     id="layer1">
    <path
       style="color:black;fill:#2f82b8;fill-opacity:1;fill-rule:evenodd;stroke:#005188;stroke-width:1.02248323;stroke-linecap:round;stroke-linejoin:round;marker:none;marker-start:none;marker-mid:none;marker-end:none;stroke-miterlimit:4;stroke-dasharray:none;stroke-dashoffset:0;stroke-opacity:1;visibility:visible;display:inline;overflow:visible"
       d="M 12.002059,8.5096802 L 7.1084464,11.623315 L 7.7235868,18.926921 L 1.4044237,20.579118 L 0.50967493,25.591715 L 5.96205,29.764213 L 1.9916027,35.78493 L 5.3189494,40.237461 L 5.3469104,40.209457 L 8.897944,42.449724 L 12.728587,40.965548 L 14.238476,44.689992 L 14.294398,44.689992 L 17.845431,46.930259 L 23.968868,47.490325 L 26.20574,40.321471 L 32.524903,42.057678 L 35.488758,37.269107 L 30.479322,28.48737 L 21.617779,28.48737 C 21.190475,30.071292 19.491121,31.573787 17.062527,31.911066 C 16.956535,31.925786 16.860329,32.180276 16.754957,32.1725 C 16.081689,31.171019 15.636522,29.96228 15.636522,28.588073 C 15.636522,27.628353 16.254488,26.730154 16.603596,25.927756 L 16.603596,12.126531 L 12.002059,8.5096802 z "
       id="path2041"
       sodipodi:nodetypes="ccccccccccccccccccccscsccc" />
    <path
       style="color:black;fill:url(#linearGradient4021);fill-opacity:1;fill-rule:evenodd;stroke:none;stroke-width:1.86331141;stroke-linecap:round;stroke-linejoin:round;marker:none;marker-start:none;marker-mid:none;marker-end:none;stroke-miterlimit:4;stroke-dashoffset:0;stroke-opacity:1;visibility:visible;display:inline;overflow:visible"
       d="M 11.955235,9.1546796 L 7.6514886,11.902645 L 8.3231305,19.212222 L 1.8276814,20.986927 L 1.1072696,25.416153 L 6.6613363,29.634715 L 2.6431652,35.760759 L 5.6361408,39.769646 L 11.592414,36.86009 L 14.323961,43.412224 L 19.993623,44 L 22.139866,37.199052 L 28.193374,38.830175 L 31,34.268562 L 27.808151,29.003907 L 21.699611,29.003907 C 20.871828,31.217642 18.840063,32.029226 16.801774,32.029226 C 14.152969,32.029224 12.013999,29.101268 12.013999,26.00237 C 12.014,23.255738 13.86317,20.959846 16.093138,20.473144 L 16.093138,12.393267 L 11.955235,9.1546796 z "
       id="path2043"
       sodipodi:nodetypes="ccccccccccccccccssccc" />
    <path
       style="color:black;fill:url(#linearGradient4018);fill-opacity:1;fill-rule:evenodd;stroke:none;stroke-width:1.86331141;stroke-linecap:round;stroke-linejoin:round;marker:none;marker-start:none;marker-mid:none;marker-end:none;stroke-miterlimit:4;stroke-dashoffset:0;stroke-opacity:1;visibility:visible;display:inline;overflow:visible"
       d="M 11.929836,9.15625 L 7.6980421,11.90228 L 8.3382984,19.200326 L 1.8419853,20.994402 L 0.95259,26.560261 L 1.47855,27 C 4.617601,24.967756 8.777554,23.622578 13.409537,23.188925 C 14.096009,22.283491 15.000247,21.616798 16.011655,21.371335 L 16.011655,12.723128 L 11.929836,9.15625 z "
       id="path1317"
       sodipodi:nodetypes="cccccccccc" />
    <path
       style="color:black;fill:none;fill-opacity:1;fill-rule:evenodd;stroke:url(#linearGradient4818);stroke-width:0.96759975;stroke-linecap:round;stroke-linejoin:round;marker:none;marker-start:none;marker-mid:none;marker-end:none;stroke-miterlimit:4;stroke-dasharray:none;stroke-dashoffset:0;stroke-opacity:1;visibility:visible;display:inline;overflow:visible"
       d="M 11.85122,9.733801 L 8.1250055,12.08691 L 8.9052318,19.514665 L 2.2017815,21.409983 L 1.6400493,25.146347 L 7.3135294,29.535674 L 3.2049519,35.752879 L 5.7523097,39.141655 L 11.827846,36.190406 L 14.582395,42.960257 L 19.782675,43.516186 L 21.858368,37.019361 L 27.757708,38.581888 L 30.516196,34.223258 L 27.593838,29.492976 L 22.067374,29.492976 C 20.811387,32.227177 18.724807,32.539749 16.669136,32.539749 C 14.086258,32.539748 11.621408,29.332749 11.621408,26.383206 C 11.621409,23.716366 13.32129,20.678163 15.560374,20.276835 L 15.560374,12.546908 L 11.85122,9.733801 z "
       id="path5772"
       sodipodi:nodetypes="ccccccccccccccccssccc" />
    <path
       style="font-size:31.31827736px;font-style:normal;font-variant:normal;font-weight:bold;font-stretch:normal;text-align:start;line-height:125%;writing-mode:lr-tb;text-anchor:start;fill:#2f82b8;fill-opacity:1;stroke:#12528b;stroke-width:0.99999869px;stroke-linecap:butt;stroke-linejoin:miter;stroke-opacity:1;font-family:Verdana"
       d="M 20.500029,1.4999993 L 20.500029,25.522684 L 26.097037,25.522684 L 30.052257,25.522684 L 30.052257,20.261361 L 27.900884,17.104235 L 33.932851,26.318179 L 37.067175,27.499997 L 45.500001,27.499997 L 36.731354,12.985794 L 43.120222,4.42485 L 40.388068,1.4999993 L 37.029862,1.4999993 L 33.858223,1.4999993 L 30.026006,7.009363 L 30.026006,3.5891784 L 27.416265,1.4999993 L 20.500029,1.4999993 z "
       id="text4820"
       sodipodi:nodetypes="cccccccccccccccccc" />
    <path
       style="font-size:31.31827736px;font-style:normal;font-variant:normal;font-weight:bold;font-stretch:normal;text-align:start;line-height:125%;writing-mode:lr-tb;text-anchor:start;fill:#56ace5;fill-opacity:1;stroke:url(#linearGradient5709);stroke-width:0.99999887px;stroke-linecap:butt;stroke-linejoin:miter;stroke-opacity:1;font-family:Verdana"
       d="M 39.700027,25.499994 L 34.594638,25.499994 L 28.199264,15.461581 L 26.347826,17.712695 L 26.347826,24.483528 L 21.500013,24.483528 L 21.500013,2.4999991 L 26.347826,2.4999991 L 26.347826,14.424168 L 34.479523,2.4999991 L 39.320314,2.4999991 L 31.699877,13.14271 L 39.700027,25.499994"
       id="path5698"
       sodipodi:nodetypes="ccccccccccccc" />
    <path
       style="font-size:31.31827736px;font-style:normal;font-variant:normal;font-weight:bold;font-stretch:normal;text-align:start;line-height:125%;writing-mode:lr-tb;text-anchor:start;fill:url(#linearGradient5722);fill-opacity:1;stroke:none;stroke-width:0.99999905px;stroke-linecap:butt;stroke-linejoin:miter;stroke-opacity:1;font-family:Verdana"
       d="M 21.000035,1.9999987 L 21.000035,13.41177 C 22.769206,12.525309 24.799019,11.797642 26.978298,11.2628 L 26.978298,1.9999987 L 21.000035,1.9999987 z M 34.084535,1.9999987 L 27.880677,11.040492 C 28.423114,10.924127 28.974703,10.834454 29.535039,10.744083 C 31.211206,10.473751 32.845576,10.306985 34.422927,10.299468 L 40.513988,1.9999987 L 34.084535,1.9999987 z "
       id="path5713" />
  </g>
</svg>
