<?xml version="1.0" encoding="UTF-8" standalone="no"?>
<!-- Created with Inkscape (http://www.inkscape.org/) -->
<svg
   xmlns:dc="http://purl.org/dc/elements/1.1/"
   xmlns:cc="http://web.resource.org/cc/"
   xmlns:rdf="http://www.w3.org/1999/02/22-rdf-syntax-ns#"
   xmlns:svg="http://www.w3.org/2000/svg"
   xmlns="http://www.w3.org/2000/svg"
   xmlns:xlink="http://www.w3.org/1999/xlink"
   xmlns:sodipodi="http://inkscape.sourceforge.net/DTD/sodipodi-0.dtd"
   xmlns:inkscape="http://www.inkscape.org/namespaces/inkscape"
   width="48"
   height="48"
   id="svg2"
   sodipodi:version="0.32"
   inkscape:version="0.43+devel"
   sodipodi:docbase="/home/silvestre/Neu/scalable/actions"
   sodipodi:docname="address-book-new.svg"
   version="1.0">
  <defs
     id="defs4">
    <linearGradient
       id="linearGradient7473">
      <stop
         style="stop-color:white;stop-opacity:1;"
         offset="0"
         id="stop7475" />
      <stop
         id="stop7481"
         offset="0.5"
         style="stop-color:#fffc9d;stop-opacity:0.97254902;" />
      <stop
         style="stop-color:#fff409;stop-opacity:0.67676765;"
         offset="0.75"
         id="stop7483" />
      <stop
         style="stop-color:#fff409;stop-opacity:0;"
         offset="1"
         id="stop7477" />
    </linearGradient>
    <linearGradient
       inkscape:collect="always"
       id="linearGradient2853">
      <stop
         style="stop-color:white;stop-opacity:0.81960785"
         offset="0"
         id="stop2855" />
      <stop
         style="stop-color:white;stop-opacity:0.24705882"
         offset="1"
         id="stop2857" />
    </linearGradient>
    <linearGradient
       id="linearGradient10532">
      <stop
         style="stop-color:#000000;stop-opacity:0.26041666;"
         offset="0.0000000"
         id="stop10534" />
      <stop
         style="stop-color:#000000;stop-opacity:0;"
         offset="1"
         id="stop10536" />
    </linearGradient>
    <linearGradient
       id="linearGradient9796">
      <stop
         style="stop-color:#000000;stop-opacity:0.65625000;"
         offset="0.0000000"
         id="stop9798" />
      <stop
         style="stop-color:#000000;stop-opacity:0;"
         offset="1"
         id="stop9800" />
    </linearGradient>
    <linearGradient
       id="linearGradient8296"
       inkscape:collect="always">
      <stop
         id="stop8298"
         offset="0"
         style="stop-color:#ffffff;stop-opacity:0.62400001" />
      <stop
         id="stop8300"
         offset="1"
         style="stop-color:#ffffff;stop-opacity:0;" />
    </linearGradient>
    <linearGradient
       inkscape:collect="always"
       id="linearGradient5359">
      <stop
         style="stop-color:#3f77b6;stop-opacity:1"
         offset="0"
         id="stop5361" />
      <stop
         style="stop-color:#6494c9;stop-opacity:1"
         offset="1"
         id="stop5363" />
    </linearGradient>
    <linearGradient
       id="linearGradient4625">
      <stop
         style="stop-color:#f4f4ee;stop-opacity:1;"
         offset="0"
         id="stop4627" />
      <stop
         style="stop-color:#b2b2ad;stop-opacity:1.0000000"
         offset="1.0000000"
         id="stop4629" />
    </linearGradient>
    <linearGradient
       inkscape:collect="always"
       xlink:href="#linearGradient9796"
       id="linearGradient9802"
       x1="71.793358"
       y1="154.92252"
       x2="77.933578"
       y2="92.103325"
       gradientUnits="userSpaceOnUse"
       gradientTransform="matrix(0.338872,0,0,0.407428,4.944509,-3.793525)" />
    <radialGradient
       inkscape:collect="always"
       xlink:href="#linearGradient10532"
       id="radialGradient10538"
       cx="53.84502"
       cy="116.42805"
       fx="53.84502"
       fy="116.42805"
       r="47.232471"
       gradientTransform="matrix(1,3.447763e-17,-8.025806e-18,0.225,-1.024164e-15,90.23174)"
       gradientUnits="userSpaceOnUse" />
    <radialGradient
       inkscape:collect="always"
       xlink:href="#linearGradient10532"
       id="radialGradient10542"
       gradientUnits="userSpaceOnUse"
       gradientTransform="matrix(1,6.444904e-17,2.146721e-18,0.225,5.351228e-15,90.23174)"
       cx="53.84502"
       cy="116.42805"
       fx="53.84502"
       fy="116.42805"
       r="47.232471" />
    <linearGradient
       inkscape:collect="always"
       xlink:href="#linearGradient8296"
       id="linearGradient1969"
       gradientUnits="userSpaceOnUse"
       x1="60.785091"
       y1="-20.288902"
       x2="59.11517"
       y2="71.890686"
       gradientTransform="matrix(0.407428,0,0,0.407428,-9.583977,-1.874234)" />
    <linearGradient
       inkscape:collect="always"
       xlink:href="#linearGradient5359"
       id="linearGradient1972"
       gradientUnits="userSpaceOnUse"
       x1="85.963097"
       y1="99.660515"
       x2="45.10701"
       y2="33.062729"
       gradientTransform="matrix(0.409778,0,0,0.403274,-9.758073,-1.738097)" />
    <linearGradient
       inkscape:collect="always"
       xlink:href="#linearGradient4625"
       id="linearGradient1975"
       gradientUnits="userSpaceOnUse"
       gradientTransform="matrix(0.409272,0,0,0.399856,-10.46109,-1.610169)"
       x1="100.60516"
       y1="65.298889"
       x2="108.63469"
       y2="65.298889" />
    <linearGradient
       inkscape:collect="always"
       xlink:href="#linearGradient2853"
       id="linearGradient2859"
       x1="4.7533164"
       y1="6.4509287"
       x2="16.297083"
       y2="104.35699"
       gradientUnits="userSpaceOnUse"
       gradientTransform="matrix(0.420604,0,0,0.413744,-0.841263,-3.796576)" />
    <radialGradient
       inkscape:collect="always"
       xlink:href="#linearGradient7473"
       id="radialGradient7479"
       cx="27.930717"
       cy="18.124739"
       fx="27.930717"
       fy="18.124739"
       r="9.1923885"
       gradientUnits="userSpaceOnUse" />
  </defs>
  <sodipodi:namedview
     id="base"
     pagecolor="#ffffff"
     bordercolor="#666666"
     borderopacity="1.0"
     inkscape:pageopacity="0.0"
     inkscape:pageshadow="2"
     inkscape:zoom="1"
     inkscape:cx="24"
     inkscape:cy="24"
     inkscape:document-units="px"
     inkscape:current-layer="layer1"
     inkscape:window-width="823"
     inkscape:window-height="536"
     inkscape:window-x="148"
     inkscape:window-y="147"
     showborder="false"
     width="48px"
     height="48px"
     showgrid="false"
     inkscape:showpageshadow="false" />
  <metadata
     id="metadata7">
    <rdf:RDF>
      <cc:Work
         rdf:about="">
        <dc:format>image/svg+xml</dc:format>
        <dc:type
           rdf:resource="http://purl.org/dc/dcmitype/StillImage" />
      </cc:Work>
    </rdf:RDF>
  </metadata>
  <g
     inkscape:label="Layer 1"
     inkscape:groupmode="layer"
     id="layer1">
    <path
       sodipodi:type="arc"
       style="opacity:1;color:black;fill:url(#radialGradient10542);fill-opacity:1;fill-rule:evenodd;stroke:none;stroke-width:1;stroke-linecap:round;stroke-linejoin:round;marker:none;marker-start:none;marker-mid:none;marker-end:none;stroke-miterlimit:4;stroke-dasharray:none;stroke-dashoffset:0;stroke-opacity:1;visibility:visible;display:inline;overflow:visible"
       id="path10540"
       sodipodi:cx="53.84502"
       sodipodi:cy="116.42805"
       sodipodi:rx="47.232471"
       sodipodi:ry="10.627306"
       d="M 101.07749 116.42805 A 47.232471 10.627306 0 1 1  6.6125488,116.42805 A 47.232471 10.627306 0 1 1  101.07749 116.42805 z"
       transform="matrix(0.353261,4.405763e-2,-4.895288e-2,0.392512,13.18613,-4.335195)" />
    <path
       sodipodi:type="arc"
       style="opacity:1;color:black;fill:url(#radialGradient10538);fill-opacity:1;fill-rule:evenodd;stroke:none;stroke-width:1;stroke-linecap:round;stroke-linejoin:round;marker:none;marker-start:none;marker-mid:none;marker-end:none;stroke-miterlimit:4;stroke-dasharray:none;stroke-dashoffset:0;stroke-opacity:1;visibility:visible;display:inline;overflow:visible"
       id="path9804"
       sodipodi:cx="53.84502"
       sodipodi:cy="116.42805"
       sodipodi:rx="47.232471"
       sodipodi:ry="10.627306"
       d="M 101.07749 116.42805 A 47.232471 10.627306 0 1 1  6.6125488,116.42805 A 47.232471 10.627306 0 1 1  101.07749 116.42805 z"
       transform="matrix(0.404296,5.042247e-2,-5.602502e-2,0.449217,3.858902,-13.30065)" />
    <path
       style="fill:url(#linearGradient9802);fill-opacity:1;fill-rule:evenodd;stroke:none;stroke-width:0.25pt;stroke-linecap:butt;stroke-linejoin:miter;stroke-opacity:1"
       d="M 34.555163,45.085801 L 48,37.388265 L 30.07355,32 L 29.273263,41.814353 L 34.555163,45.085801 z "
       id="path9068" />
    <path
       style="fill:#638cba;fill-opacity:1;fill-rule:evenodd;stroke:#2d5c91;stroke-width:0.99999994;stroke-linecap:round;stroke-linejoin:round;stroke-miterlimit:4;stroke-dasharray:none;stroke-opacity:1"
       d="M 9.7058024,7.3276909 L 9.7058024,39.344458 L 35.499998,44.726201 L 35.499998,4.4999995 L 9.7058024,7.3276909 z "
       id="path3897" />
    <path
       style="fill:url(#linearGradient1975);fill-opacity:1;fill-rule:evenodd;stroke:none;stroke-width:0.25pt;stroke-linecap:butt;stroke-linejoin:miter;stroke-opacity:1"
       d="M 3.3605059,7.2663438 L 3.3605059,39.278447 L 28.973962,44 L 34,42.961255 L 34,5.84988 L 28.973962,5 L 3.3605059,7.2663438 z "
       id="path1710"
       sodipodi:nodetypes="ccccccc" />
    <path
       style="fill:#5dc82f;fill-opacity:1;stroke:#55912d;stroke-width:1.00000024;stroke-linecap:round;stroke-linejoin:round;stroke-miterlimit:4;stroke-dashoffset:0;stroke-opacity:1"
       d="M 29.49999,23.659772 L 32.499988,24.129442 L 32.499988,32.659772 L 29.49999,32.097272 L 29.49999,23.659772 z "
       id="path6594"
       sodipodi:nodetypes="ccccc" />
    <path
       style="fill:#c82f2f;fill-opacity:1;stroke:#912d2d;stroke-width:1.0000006;stroke-linecap:round;stroke-linejoin:round;stroke-miterlimit:4;stroke-dashoffset:0;stroke-opacity:1"
       d="M 29.5,8.4999997 L 34.499996,7.5277279 L 34.499996,16.5 L 29.5,16.5 L 29.5,8.4999997 z "
       id="rect5716"
       sodipodi:nodetypes="ccccc" />
    <path
       style="fill:#c8c12f;fill-opacity:1;stroke:#91872d;stroke-width:1.00000083;stroke-linecap:round;stroke-linejoin:round;stroke-miterlimit:4;stroke-dashoffset:0;stroke-opacity:1"
       d="M 29.500012,16.347272 L 33.500014,16.379442 L 33.500014,24.597272 L 29.500012,24.347272 L 29.500012,16.347272 z "
       id="path6592"
       sodipodi:nodetypes="ccccc" />
    <path
       style="fill:url(#linearGradient1972);fill-opacity:1;fill-rule:evenodd;stroke:#2e639f;stroke-width:0.99999988;stroke-linecap:round;stroke-linejoin:round;stroke-miterlimit:4;stroke-dasharray:none;stroke-opacity:1"
       d="M 3.4999999,6.4523811 L 3.4999999,39.88096 L 30.500007,45.500001 L 30.500007,3.4999992 L 3.4999999,6.4523811 z "
       id="path2443" />
    <path
       style="fill:url(#linearGradient1969);fill-opacity:1;fill-rule:evenodd;stroke:none;stroke-width:0.25pt;stroke-linecap:butt;stroke-linejoin:miter;stroke-opacity:1;opacity:0.76150628"
       d="M 4.1595403,7.1409529 L 4.1595403,27.143899 C 12.0065,12.039632 22.983171,18.571205 29.741535,30.001456 L 29.741535,4.1473153 L 4.1595403,7.1409529 z "
       id="path7549"
       sodipodi:nodetypes="ccccc" />
    <path
       style="fill:none;fill-opacity:1;fill-rule:evenodd;stroke:url(#linearGradient2859);stroke-width:1.00000012;stroke-linecap:round;stroke-linejoin:round;stroke-miterlimit:4;stroke-dasharray:none;stroke-opacity:1"
       d="M 4.4999999,7.3117926 L 4.4999999,39.148526 L 29.500004,44.500006 L 29.500004,4.5000007 L 4.4999999,7.3117926 z "
       id="path1978" />
    <path
       style="font-size:20.10438156px;font-style:normal;font-variant:normal;font-weight:bold;font-stretch:normal;text-align:start;line-height:125%;writing-mode:lr-tb;text-anchor:start;fill:white;fill-opacity:0.64806867;stroke:none;stroke-width:1px;stroke-linecap:butt;stroke-linejoin:miter;stroke-opacity:1;font-family:Bitstream Vera Sans"
       d="M 14.904977,23.531737 C 14.904971,24.399225 15.052029,25.083337 15.346155,25.584075 C 15.64592,26.084821 16.050331,26.335191 16.55939,26.335189 C 17.062774,26.335191 17.464357,26.084821 17.76414,25.584075 C 18.063904,25.076285 18.213791,24.392172 18.213801,23.531737 C 18.213791,22.678366 18.061077,22.004832 17.755656,21.511137 C 17.455873,21.010402 17.051461,20.76003 16.54242,20.760021 C 16.044675,20.76003 15.64592,21.010402 15.346155,21.511137 C 15.052029,22.004832 14.904971,22.678366 14.904977,23.531737 M 18.383485,26.716035 C 18.213791,27.216779 17.93947,27.608205 17.560521,27.890312 C 17.187209,28.165368 16.748861,28.302897 16.245476,28.302896 C 15.272617,28.302897 14.480763,27.865629 13.86991,26.991091 C 13.2647,26.109505 12.9621,24.963441 12.962104,23.552896 C 12.9621,22.14236 13.267528,20.996295 13.878393,20.114698 C 14.489247,19.23312 15.278274,18.792326 16.245476,18.792316 C 16.748861,18.792326 17.187209,18.93338 17.560521,19.215479 C 17.93947,19.497597 18.213791,19.889021 18.383485,20.389755 L 18.383485,19.003897 L 20.156675,19.003897 L 20.156675,26.335189 C 20.85802,26.201191 21.40949,25.781556 21.811086,25.076281 C 22.212656,24.363962 22.413447,23.454163 22.413462,22.346882 C 22.413447,21.641618 22.331434,20.982191 22.167421,20.368598 C 22.00338,19.747968 21.754511,19.180225 21.420815,18.665367 C 20.883472,17.804949 20.210395,17.141993 19.401584,16.676502 C 18.598407,16.211037 17.727366,15.978297 16.788462,15.978285 C 16.132345,15.978297 15.504517,16.087615 14.904977,16.306236 C 14.305424,16.51783 13.751126,16.831675 13.242081,17.247773 C 12.404973,17.938949 11.751693,18.834642 11.28224,19.934855 C 10.818436,21.028034 10.586536,22.212886 10.586538,23.48942 C 10.586536,24.54028 10.736422,25.527657 11.036199,26.451559 C 11.341625,27.368413 11.779973,28.179474 12.351244,28.884744 C 12.91685,29.575909 13.564474,30.101336 14.294117,30.461025 C 15.029404,30.827764 15.812775,31.011135 16.644231,31.011137 C 17.356891,31.011135 18.06956,30.845396 18.78224,30.51392 C 19.494898,30.182442 20.102929,29.734595 20.606335,29.170379 L 21.514141,30.884187 C 20.807114,31.568298 20.035056,32.090197 19.197964,32.449889 C 18.366506,32.816625 17.520918,32.999997 16.6612,33 C 15.614812,32.999997 14.627822,32.767258 13.700226,32.301783 C 12.772619,31.843352 11.946829,31.173346 11.222851,30.291759 C 10.498866,29.410171 9.9473962,28.391056 9.5684389,27.234409 C 9.1894783,26.070716 8.9999989,24.822387 9,23.48942 C 8.9999989,22.205835 9.1923064,20.982191 9.5769231,19.818486 C 9.9615365,18.654798 10.510178,17.632157 11.222851,16.750556 C 11.935517,15.876033 12.764135,15.198974 13.708711,14.719376 C 14.65893,14.239807 15.643093,14.000014 16.6612,14 C 17.928158,14.000014 19.079175,14.303281 20.114254,14.9098 C 21.149308,15.509294 22.014692,16.376775 22.710408,17.51225 C 23.1346,18.203426 23.454171,18.954539 23.669118,19.76559 C 23.88969,20.569609 23.999985,21.415931 24,22.304566 C 23.999985,24.215855 23.539012,25.700449 22.617083,26.758351 C 21.695122,27.81626 20.394219,28.345213 18.714367,28.345212 L 18.383485,28.345212 L 18.383485,26.716035"
       id="text4838" />
    <path
       sodipodi:type="arc"
       style="opacity:0.94142259;fill:url(#radialGradient7479);fill-opacity:1;stroke:none;stroke-width:1;stroke-linecap:round;stroke-linejoin:round;stroke-miterlimit:4;stroke-dasharray:none;stroke-dashoffset:0;stroke-opacity:1"
       id="path6598"
       sodipodi:cx="27.930717"
       sodipodi:cy="18.124739"
       sodipodi:rx="9.1923885"
       sodipodi:ry="9.1923885"
       d="M 37.123106 18.124739 A 9.1923885 9.1923885 0 1 1  18.738329,18.124739 A 9.1923885 9.1923885 0 1 1  37.123106 18.124739 z"
       transform="matrix(0.979071,0,0,0.979071,-2.34615,-8.745404)" />
  </g>
</svg>
