<?xml version="1.0" encoding="UTF-8" standalone="no"?>
<!-- Created with Inkscape (http://www.inkscape.org/) -->
<svg
   xmlns:dc="http://purl.org/dc/elements/1.1/"
   xmlns:cc="http://web.resource.org/cc/"
   xmlns:rdf="http://www.w3.org/1999/02/22-rdf-syntax-ns#"
   xmlns:svg="http://www.w3.org/2000/svg"
   xmlns="http://www.w3.org/2000/svg"
   xmlns:xlink="http://www.w3.org/1999/xlink"
   xmlns:sodipodi="http://inkscape.sourceforge.net/DTD/sodipodi-0.dtd"
   xmlns:inkscape="http://www.inkscape.org/namespaces/inkscape"
   width="48px"
   height="48px"
   id="svg3917"
   sodipodi:version="0.32"
   inkscape:version="0.43+devel"
   sodipodi:docbase="/home/silvestre/Desktop/Neu/scalable/actions"
   sodipodi:docname="appointment-new.svg"
   inkscape:export-filename="/home/silvestre/Desktop/Neu/scalable/apps/evolution.png"
   inkscape:export-xdpi="90"
   inkscape:export-ydpi="90">
  <defs
     id="defs3919">
    <linearGradient
       inkscape:collect="always"
       id="linearGradient8358">
      <stop
         style="stop-color:#f5c548;stop-opacity:0.73725492"
         offset="0"
         id="stop8360" />
      <stop
         style="stop-color:#ffce3e;stop-opacity:0.71372551"
         offset="1"
         id="stop8362" />
    </linearGradient>
    <linearGradient
       id="linearGradient4934">
      <stop
         id="stop4938"
         offset="0"
         style="stop-color:#f9f9f9;stop-opacity:1" />
      <stop
         style="stop-color:#c3c3c3;stop-opacity:1"
         offset="1"
         id="stop4940" />
    </linearGradient>
    <linearGradient
       gradientUnits="userSpaceOnUse"
       y2="21.705061"
       x2="83.525612"
       y1="367.82727"
       x1="29.183714"
       id="linearGradient6540"
       xlink:href="#linearGradient6534"
       inkscape:collect="always" />
    <radialGradient
       gradientUnits="userSpaceOnUse"
       gradientTransform="matrix(0.91358,2.206993e-7,-4.100829e-8,0.169753,4.848958,95.59596)"
       r="54.105412"
       fy="136.4689"
       fx="56.109314"
       cy="115.14162"
       cx="56.109314"
       id="radialGradient6525"
       xlink:href="#linearGradient6519"
       inkscape:collect="always" />
    <linearGradient
       id="linearGradient4308">
      <stop
         id="stop4310"
         offset="0.0000000"
         style="stop-color:#ffffff;stop-opacity:0.22916669;" />
      <stop
         id="stop4312"
         offset="1"
         style="stop-color:#ffffff;stop-opacity:0;" />
    </linearGradient>
    <linearGradient
       id="linearGradient5044"
       inkscape:collect="always">
      <stop
         id="stop5046"
         offset="0"
         style="stop-color:#ffffff;stop-opacity:1;" />
      <stop
         id="stop5048"
         offset="1"
         style="stop-color:#ffffff;stop-opacity:0;" />
    </linearGradient>
    <linearGradient
       id="linearGradient6519"
       inkscape:collect="always">
      <stop
         id="stop6521"
         offset="0"
         style="stop-color:black;stop-opacity:0.39215687" />
      <stop
         id="stop6523"
         offset="1"
         style="stop-color:#000000;stop-opacity:0;" />
    </linearGradient>
    <linearGradient
       id="linearGradient6534"
       inkscape:collect="always">
      <stop
         id="stop6536"
         offset="0"
         style="stop-color:#000000;stop-opacity:0.39600000" />
      <stop
         id="stop6538"
         offset="1"
         style="stop-color:#000000;stop-opacity:0;" />
    </linearGradient>
    <linearGradient
       id="linearGradient4206"
       inkscape:collect="always">
      <stop
         id="stop4208"
         offset="0"
         style="stop-color:#ffffff;stop-opacity:1;" />
      <stop
         id="stop4210"
         offset="1"
         style="stop-color:#ffffff;stop-opacity:0.36909872" />
    </linearGradient>
    <linearGradient
       inkscape:collect="always"
       xlink:href="#linearGradient4206"
       id="linearGradient5825"
       gradientUnits="userSpaceOnUse"
       x1="59.64286"
       y1="14.832381"
       x2="59.64286"
       y2="121.82737"
       gradientTransform="matrix(0.328065,0,0,0.345482,-2.097786,-0.476988)" />
    <linearGradient
       inkscape:collect="always"
       xlink:href="#linearGradient5044"
       id="linearGradient5827"
       gradientUnits="userSpaceOnUse"
       gradientTransform="matrix(0.356801,0,0,0.39171,-2.564881,-8.788449e-2)"
       x1="67.070114"
       y1="-3.7457006"
       x2="67.070114"
       y2="69.195572" />
    <radialGradient
       inkscape:collect="always"
       xlink:href="#linearGradient4308"
       id="radialGradient5829"
       gradientUnits="userSpaceOnUse"
       gradientTransform="matrix(0.33442,-8.977832e-2,8.94562e-2,0.334489,-12.98936,9.897861)"
       cx="83.842957"
       cy="105.0536"
       fx="83.842957"
       fy="105.0536"
       r="56.442806" />
    <radialGradient
       inkscape:collect="always"
       xlink:href="#linearGradient4934"
       id="radialGradient5831"
       gradientUnits="userSpaceOnUse"
       gradientTransform="matrix(0.406265,1.939687e-16,-2.043241e-16,0.406434,-5.70297,-4.325582)"
       cx="77.420738"
       cy="82.518806"
       fx="77.420738"
       fy="82.518806"
       r="56.442806" />
    <radialGradient
       inkscape:collect="always"
       xlink:href="#linearGradient8358"
       id="radialGradient8385"
       gradientUnits="userSpaceOnUse"
       gradientTransform="matrix(-0.888349,-0.956685,-0.948891,1.021886,61.9953,19.79207)"
       cx="21.4375"
       cy="24.1875"
       fx="21.4375"
       fy="24.1875"
       r="9.6875" />
    <linearGradient
       id="linearGradient7473">
      <stop
         id="stop7475"
         offset="0"
         style="stop-color:white;stop-opacity:1;" />
      <stop
         style="stop-color:#fffc9d;stop-opacity:0.97254902;"
         offset="0.5"
         id="stop7481" />
      <stop
         id="stop7483"
         offset="0.75"
         style="stop-color:#fff409;stop-opacity:0.67676765;" />
      <stop
         id="stop7477"
         offset="1"
         style="stop-color:#fff409;stop-opacity:0;" />
    </linearGradient>
    <radialGradient
       inkscape:collect="always"
       xlink:href="#linearGradient7473"
       id="radialGradient9365"
       gradientUnits="userSpaceOnUse"
       cx="27.930717"
       cy="18.124739"
       fx="27.930717"
       fy="18.124739"
       r="9.1923885" />
  </defs>
  <sodipodi:namedview
     id="base"
     pagecolor="#ffffff"
     bordercolor="#666666"
     borderopacity="1.0"
     inkscape:pageopacity="0.0"
     inkscape:pageshadow="2"
     inkscape:zoom="1"
     inkscape:cx="24"
     inkscape:cy="24"
     inkscape:current-layer="layer1"
     showgrid="false"
     inkscape:grid-bbox="true"
     inkscape:document-units="px"
     inkscape:window-width="823"
     inkscape:window-height="536"
     inkscape:window-x="72"
     inkscape:window-y="111"
     inkscape:showpageshadow="false"
     showborder="false" />
  <metadata
     id="metadata3922">
    <rdf:RDF>
      <cc:Work
         rdf:about="">
        <dc:format>image/svg+xml</dc:format>
        <dc:type
           rdf:resource="http://purl.org/dc/dcmitype/StillImage" />
      </cc:Work>
    </rdf:RDF>
  </metadata>
  <g
     id="layer1"
     inkscape:label="Layer 1"
     inkscape:groupmode="layer">
    <path
       sodipodi:type="arc"
       style="color:black;fill:url(#linearGradient6540);fill-opacity:1;fill-rule:evenodd;stroke:none;stroke-width:3;stroke-linecap:round;stroke-linejoin:round;marker:none;marker-start:none;marker-mid:none;marker-end:none;stroke-miterlimit:4;stroke-dasharray:none;stroke-dashoffset:0;stroke-opacity:1;visibility:visible;display:inline;overflow:visible"
       id="path6532"
       sodipodi:cx="67.306274"
       sodipodi:cy="70.848709"
       sodipodi:rx="56.442806"
       sodipodi:ry="56.442806"
       d="M 123.74908 70.848709 A 56.442806 56.442806 0 1 1  10.863468,70.848709 A 56.442806 56.442806 0 1 1  123.74908 70.848709 z"
       transform="matrix(0.34867,0,-9.434273e-2,0.106868,9.535079,31.41097)" />
    <path
       sodipodi:type="arc"
       style="color:black;fill:url(#radialGradient6525);fill-opacity:1;fill-rule:evenodd;stroke:none;stroke-width:3;stroke-linecap:round;stroke-linejoin:round;marker:none;marker-start:none;marker-mid:none;marker-end:none;stroke-miterlimit:4;stroke-dasharray:none;stroke-dashoffset:0;stroke-opacity:1;visibility:visible;display:inline;overflow:visible"
       id="path5065"
       sodipodi:cx="56.109314"
       sodipodi:cy="115.14162"
       sodipodi:rx="54.105412"
       sodipodi:ry="9.1845608"
       d="M 110.21473 115.14162 A 54.105412 9.1845608 0 1 1  2.0039024,115.14162 A 54.105412 9.1845608 0 1 1  110.21473 115.14162 z"
       transform="matrix(0.377952,0,0,0.547296,-0.78805,-20.01254)" />
    <path
       style="color:black;fill:url(#radialGradient5831);fill-opacity:1;fill-rule:evenodd;stroke:#1871bc;stroke-width:0.99999905;stroke-linecap:round;stroke-linejoin:round;marker:none;marker-start:none;marker-mid:none;marker-end:none;stroke-miterlimit:4;stroke-dashoffset:0;stroke-opacity:1;visibility:visible;display:inline;overflow:visible"
       d="M 41.500013,23.999987 C 41.500013,35.315984 32.319802,44.499978 21.008473,44.499978 C 9.6971422,44.499978 0.51693186,35.315984 0.51693186,23.999987 C 0.51693186,12.683993 9.6971422,3.4999964 21.008473,3.4999964 C 32.319802,3.4999964 41.500013,12.683993 41.500013,23.999987 z "
       id="path1359" />
    <path
       style="color:black;fill:url(#radialGradient5829);fill-opacity:1;fill-rule:evenodd;stroke:none;stroke-width:3;stroke-linecap:round;stroke-linejoin:round;marker:none;marker-start:none;marker-mid:none;marker-end:none;stroke-miterlimit:4;stroke-dashoffset:0;stroke-opacity:1;visibility:visible;display:inline;overflow:visible"
       d="M 38.593015,24.635308 C 38.593015,35.303636 30.36523,43.96199 20.227426,43.96199 C 10.08962,43.96199 1.8618376,35.303636 1.8618376,24.635308 C 1.8618376,13.966978 10.08962,5.3086244 20.227426,5.3086244 C 30.36523,5.3086244 38.593015,13.966978 38.593015,24.635308 z "
       id="path2854" />
    <path
       style="color:black;fill:none;fill-opacity:1;fill-rule:evenodd;stroke:#5192ca;stroke-width:2.99999714;stroke-linecap:round;stroke-linejoin:round;marker:none;marker-start:none;marker-mid:none;marker-end:none;stroke-miterlimit:4;stroke-dasharray:none;stroke-dashoffset:0;stroke-opacity:1;visibility:visible;display:inline;overflow:visible"
       d="M 37.535883,23.999987 C 37.535883,34.211983 29.668879,42.499978 19.975611,42.499978 C 10.28234,42.499978 2.4153385,34.211983 2.4153385,23.999987 C 2.4153385,13.787993 10.28234,5.4999961 19.975611,5.4999961 C 29.668879,5.4999961 37.535883,13.787993 37.535883,23.999987 z "
       id="path5733" />
    <path
       style="color:black;fill:none;fill-opacity:1;fill-rule:evenodd;stroke:url(#linearGradient5825);stroke-width:0.99999481;stroke-linecap:round;stroke-linejoin:round;marker:none;marker-start:none;marker-mid:none;marker-end:none;stroke-miterlimit:4;stroke-dashoffset:0;stroke-opacity:0.79399139;visibility:visible;display:inline;overflow:visible"
       d="M 38.499994,23.999999 C 38.499994,34.764001 30.204408,43.500003 19.983062,43.500003 C 9.7617148,43.500003 1.4661331,34.764001 1.4661331,23.999999 C 1.4661331,13.235999 9.7617148,4.4999982 19.983062,4.4999982 C 30.204408,4.4999982 38.499994,13.235999 38.499994,23.999999 z "
       id="path3331" />
    <path
       style="opacity:0.68619247;fill:#696969;fill-opacity:0.86266097;stroke:none;stroke-width:1;stroke-linecap:round;stroke-linejoin:round;stroke-miterlimit:4;stroke-dasharray:none;stroke-dashoffset:0;stroke-opacity:1"
       d="M 19.166385,9 L 19.166385,13.25 L 21.164856,13.25 L 21.164856,9 L 19.166385,9 z M 6,22.875 L 6,25.000001 L 9.8793814,25.000001 L 9.8793814,22.875 L 6,22.875 z M 30.451859,22.875 L 30.451859,25.000001 L 34.213683,25.000001 L 34.213683,22.875 L 30.451859,22.875 z M 19.166385,35 L 19.166385,39 L 21.164856,39 L 21.164856,35 L 19.166385,35 z "
       id="rect5821"
       sodipodi:nodetypes="cccccccccccccccccccc" />
    <path
       style="opacity:0.68619247;fill:#696969;fill-opacity:1;stroke:none;stroke-width:1;stroke-linecap:round;stroke-linejoin:round;stroke-miterlimit:4;stroke-dasharray:none;stroke-dashoffset:0;stroke-opacity:1"
       d="M 14.449758,12 L 12.894862,12.982863 L 13.756035,14.595767 L 15.310931,13.612903 L 14.449758,12 z M 25.573245,12 L 24.735993,13.612903 L 26.29089,14.595767 L 27.152063,12.982863 L 25.573245,12 z M 9.4023258,16.637097 L 8.4933096,18.350806 L 9.9525196,19.258065 L 10.861536,17.569557 L 9.4023258,16.637097 z M 30.548913,16.6875 L 29.089702,17.61996 L 29.998718,19.308468 L 31.457929,18.40121 L 30.548913,16.6875 z M 29.998718,29.590726 L 29.089702,31.279233 L 30.548913,32.211694 L 31.457929,30.497984 L 29.998718,29.590726 z M 9.9525196,29.641129 L 8.4933096,30.573588 L 9.4023258,32.262097 L 10.861536,31.329637 L 9.9525196,29.641129 z M 13.684271,34.404233 L 12.847018,36.017137 L 14.401916,37 L 15.263089,35.387097 L 13.684271,34.404233 z M 26.338732,34.404233 L 24.783836,35.387097 L 25.645009,37 L 27.199906,36.017137 L 26.338732,34.404233 z "
       id="rect5837" />
    <path
       style="opacity:0.96610879;fill:#414141;fill-opacity:1;stroke:none;stroke-width:1;stroke-linecap:round;stroke-linejoin:round;stroke-miterlimit:4;stroke-dashoffset:0;stroke-opacity:1"
       d="M 29.01564,29.942558 L 21.166329,25.013008 L 11.153591,25.028944 L 11.084617,23 L 20.42026,22.948344 L 21.627402,23.005927 L 30,28.237596 L 29.01564,29.942558 z "
       id="rect5849"
       sodipodi:nodetypes="cccccccc" />
    <path
       style="fill:url(#radialGradient8385);fill-opacity:1;stroke:none;stroke-width:3;stroke-linecap:round;stroke-linejoin:round;stroke-miterlimit:4;stroke-dashoffset:0;stroke-opacity:1"
       d="M 20,9.9999754 C 12.824001,9.9999807 7.0000009,16.271991 7,24 L 19.999997,23.999991 L 20,9.9999754 z "
       id="path7483" />
    <path
       style="color:black;fill:#4082bc;fill-opacity:1;fill-rule:evenodd;stroke:none;stroke-width:0.99999905;stroke-linecap:round;stroke-linejoin:round;marker:none;marker-start:none;marker-mid:none;marker-end:none;stroke-miterlimit:4;stroke-dashoffset:0;stroke-opacity:1;visibility:visible;display:inline;overflow:visible"
       d="M 20.5,4 C 30.754694,4.2823224 39,13.13788 39,24 C 39,34.862123 30.754694,43.717678 20.5,44 C 20.666142,44.004082 20.832881,44 21,44 C 32.039999,44 41,35.040002 41,24 C 41,12.960001 32.039999,4 21,4 C 20.832881,4 20.666142,3.9959175 20.5,4 z "
       id="path8387" />
    <path
       style="opacity:0.68619247;color:black;fill:url(#linearGradient5827);fill-opacity:1;fill-rule:evenodd;stroke:none;stroke-width:3;stroke-linecap:round;stroke-linejoin:round;marker:none;marker-start:none;marker-mid:none;marker-end:none;stroke-miterlimit:4;stroke-dashoffset:0;stroke-opacity:1;visibility:visible;display:inline;overflow:visible"
       d="M 36.112092,16.748391 C 36.112092,23.233503 28.882954,28.496784 19.975619,28.496784 C 11.068285,28.496784 3.8391468,23.233503 3.8391468,16.748391 C 3.8391468,11.679755 11.747535,5 19.975619,5 C 29.174306,5 36.112092,11.973626 36.112092,16.748391 z "
       id="path4316" />
    <path
       sodipodi:type="arc"
       style="opacity:0.94142259;fill:url(#radialGradient9365);fill-opacity:1;stroke:none;stroke-width:1;stroke-linecap:round;stroke-linejoin:round;stroke-miterlimit:4;stroke-dasharray:none;stroke-dashoffset:0;stroke-opacity:1"
       id="path6598"
       sodipodi:cx="27.930717"
       sodipodi:cy="18.124739"
       sodipodi:rx="9.1923885"
       sodipodi:ry="9.1923885"
       d="M 37.123106 18.124739 A 9.1923885 9.1923885 0 1 1  18.738329,18.124739 A 9.1923885 9.1923885 0 1 1  37.123106 18.124739 z"
       transform="matrix(0.979071,0,0,0.979071,9.653846,-6.745407)" />
  </g>
</svg>
