<?xml version="1.0" encoding="UTF-8" standalone="no"?>
<!-- Created with Inkscape (http://www.inkscape.org/) -->
<svg
   xmlns:dc="http://purl.org/dc/elements/1.1/"
   xmlns:cc="http://web.resource.org/cc/"
   xmlns:rdf="http://www.w3.org/1999/02/22-rdf-syntax-ns#"
   xmlns:svg="http://www.w3.org/2000/svg"
   xmlns="http://www.w3.org/2000/svg"
   xmlns:xlink="http://www.w3.org/1999/xlink"
   xmlns:sodipodi="http://inkscape.sourceforge.net/DTD/sodipodi-0.dtd"
   xmlns:inkscape="http://www.inkscape.org/namespaces/inkscape"
   width="48px"
   height="48px"
   id="svg3917"
   sodipodi:version="0.32"
   inkscape:version="0.43+devel"
   sodipodi:docbase="/home/silvestre/Desktop/Neu/scalable/actions"
   sodipodi:docname="contact-new.svg">
  <defs
     id="defs3919">
    <linearGradient
       inkscape:collect="always"
       id="linearGradient13141">
      <stop
         style="stop-color:white;stop-opacity:1;"
         offset="0"
         id="stop13143" />
      <stop
         style="stop-color:white;stop-opacity:0.34117648"
         offset="1"
         id="stop13145" />
    </linearGradient>
    <linearGradient
       inkscape:collect="always"
       id="linearGradient13131">
      <stop
         style="stop-color:white;stop-opacity:1;"
         offset="0"
         id="stop13133" />
      <stop
         style="stop-color:white;stop-opacity:0.58823532"
         offset="1"
         id="stop13135" />
    </linearGradient>
    <linearGradient
       inkscape:collect="always"
       id="linearGradient11375">
      <stop
         style="stop-color:black;stop-opacity:0.51502144"
         offset="0"
         id="stop11377" />
      <stop
         style="stop-color:black;stop-opacity:0;"
         offset="1"
         id="stop11379" />
    </linearGradient>
    <linearGradient
       id="linearGradient9615"
       inkscape:collect="always">
      <stop
         id="stop9617"
         offset="0"
         style="stop-color:#f8f8f8;stop-opacity:1" />
      <stop
         id="stop9619"
         offset="1"
         style="stop-color:#e4e4e4;stop-opacity:1" />
    </linearGradient>
    <linearGradient
       inkscape:collect="always"
       id="linearGradient7854">
      <stop
         style="stop-color:#6e6e6e;stop-opacity:1"
         offset="0"
         id="stop7856" />
      <stop
         style="stop-color:#505050;stop-opacity:1"
         offset="1"
         id="stop7858" />
    </linearGradient>
    <linearGradient
       id="linearGradient4832">
      <stop
         id="stop4834"
         offset="0"
         style="stop-color:#fffdf5;stop-opacity:1;" />
      <stop
         style="stop-color:#ffe16f;stop-opacity:1;"
         offset="0.5"
         id="stop4840" />
      <stop
         id="stop4842"
         offset="0.75"
         style="stop-color:#c4a600;stop-opacity:1;" />
      <stop
         id="stop4836"
         offset="1"
         style="stop-color:#aa9000;stop-opacity:1;" />
    </linearGradient>
    <linearGradient
       id="linearGradient8342"
       inkscape:collect="always">
      <stop
         id="stop8344"
         offset="0"
         style="stop-color:white;stop-opacity:1;" />
      <stop
         id="stop8346"
         offset="1"
         style="stop-color:white;stop-opacity:0;" />
    </linearGradient>
    <linearGradient
       id="linearGradient10098"
       inkscape:collect="always">
      <stop
         id="stop10100"
         offset="0"
         style="stop-color:white;stop-opacity:1;" />
      <stop
         id="stop10102"
         offset="1"
         style="stop-color:white;stop-opacity:0.3004292" />
    </linearGradient>
    <linearGradient
       id="linearGradient12737"
       inkscape:collect="always">
      <stop
         id="stop12739"
         offset="0"
         style="stop-color:white;stop-opacity:1;" />
      <stop
         id="stop12741"
         offset="1"
         style="stop-color:white;stop-opacity:0;" />
    </linearGradient>
    <linearGradient
       id="linearGradient18874"
       inkscape:collect="always">
      <stop
         id="stop18876"
         offset="0"
         style="stop-color:#ddd;stop-opacity:1" />
      <stop
         id="stop18878"
         offset="1"
         style="stop-color:black;stop-opacity:1" />
    </linearGradient>
    <linearGradient
       id="linearGradient21548"
       inkscape:collect="always">
      <stop
         id="stop21550"
         offset="0"
         style="stop-color:white;stop-opacity:1;" />
      <stop
         id="stop21552"
         offset="1"
         style="stop-color:white;stop-opacity:0;" />
    </linearGradient>
    <linearGradient
       id="linearGradient22429"
       inkscape:collect="always">
      <stop
         id="stop22431"
         offset="0"
         style="stop-color:black;stop-opacity:1;" />
      <stop
         id="stop22433"
         offset="1"
         style="stop-color:black;stop-opacity:0;" />
    </linearGradient>
    <linearGradient
       id="linearGradient26840"
       inkscape:collect="always">
      <stop
         id="stop26842"
         offset="0"
         style="stop-color:#dd1a1a;stop-opacity:1" />
      <stop
         id="stop26844"
         offset="1"
         style="stop-color:#971212;stop-opacity:1" />
    </linearGradient>
    <linearGradient
       id="linearGradient4925">
      <stop
         id="stop4927"
         offset="0"
         style="stop-color:white;stop-opacity:1" />
      <stop
         style="stop-color:#f3f3f3;stop-opacity:1;"
         offset="0.5"
         id="stop4933" />
      <stop
         id="stop4929"
         offset="1"
         style="stop-color:#bfbfbf;stop-opacity:1;" />
    </linearGradient>
    <radialGradient
       inkscape:collect="always"
       xlink:href="#linearGradient4832"
       id="radialGradient5161"
       gradientUnits="userSpaceOnUse"
       gradientTransform="matrix(1.166794,1.633432e-16,-1.633432e-16,1.166794,-14.1775,-2.918896)"
       cx="83.051956"
       cy="15.584253"
       fx="83.051956"
       fy="15.584253"
       r="21.75" />
    <linearGradient
       inkscape:collect="always"
       xlink:href="#linearGradient8342"
       id="linearGradient5163"
       gradientUnits="userSpaceOnUse"
       x1="85.622726"
       y1="-5.7974238"
       x2="85.622726"
       y2="45.035698" />
    <linearGradient
       inkscape:collect="always"
       xlink:href="#linearGradient10098"
       id="linearGradient5165"
       gradientUnits="userSpaceOnUse"
       x1="75.860703"
       y1="-0.11439113"
       x2="87.538048"
       y2="43.466064" />
    <linearGradient
       inkscape:collect="always"
       xlink:href="#linearGradient12737"
       id="linearGradient5167"
       gradientUnits="userSpaceOnUse"
       x1="82.341637"
       y1="22.807331"
       x2="75.412285"
       y2="18.754719" />
    <radialGradient
       inkscape:collect="always"
       xlink:href="#linearGradient4925"
       id="radialGradient5169"
       gradientUnits="userSpaceOnUse"
       gradientTransform="matrix(1.25531,2.096951e-16,-4.959457e-16,0.640731,-19.4913,7.401295)"
       cx="76.34375"
       cy="18.108305"
       fx="76.34375"
       fy="18.108305"
       r="6" />
    <radialGradient
       inkscape:collect="always"
       xlink:href="#linearGradient18874"
       id="radialGradient5171"
       gradientUnits="userSpaceOnUse"
       gradientTransform="matrix(1,0,0,1.44898,1.007285e-13,-9.723214)"
       cx="97.03125"
       cy="21.656244"
       fx="97.03125"
       fy="20.5779"
       r="1.53125" />
    <linearGradient
       inkscape:collect="always"
       xlink:href="#linearGradient12737"
       id="linearGradient5173"
       gradientUnits="userSpaceOnUse"
       x1="82.341637"
       y1="22.807331"
       x2="75.412285"
       y2="18.754719" />
    <radialGradient
       inkscape:collect="always"
       xlink:href="#linearGradient4925"
       id="radialGradient5175"
       gradientUnits="userSpaceOnUse"
       gradientTransform="matrix(1.134321,-0.269128,0.271418,0.699749,-15.12345,27.06597)"
       cx="76.159027"
       cy="17.322357"
       fx="76.159027"
       fy="17.322357"
       r="6" />
    <radialGradient
       inkscape:collect="always"
       xlink:href="#linearGradient18874"
       id="radialGradient5177"
       gradientUnits="userSpaceOnUse"
       gradientTransform="matrix(1,-0.759933,0.680865,1.213188,-14.74497,69.12039)"
       cx="97.03125"
       cy="21.656244"
       fx="97.03125"
       fy="20.5779"
       r="1.53125" />
    <linearGradient
       inkscape:collect="always"
       xlink:href="#linearGradient22429"
       id="linearGradient5179"
       gradientUnits="userSpaceOnUse"
       gradientTransform="matrix(0.98655,0,0,1.019267,74.93026,-75.64526)"
       x1="89.283569"
       y1="30.661186"
       x2="89.283569"
       y2="42.931355" />
    <linearGradient
       inkscape:collect="always"
       xlink:href="#linearGradient21548"
       id="linearGradient5181"
       gradientUnits="userSpaceOnUse"
       gradientTransform="matrix(0.98655,0,0,1.019267,74.93026,-75.64526)"
       x1="91"
       y1="41.25"
       x2="88.553329"
       y2="32.118896" />
    <linearGradient
       inkscape:collect="always"
       xlink:href="#linearGradient26840"
       id="linearGradient5183"
       gradientUnits="userSpaceOnUse"
       gradientTransform="matrix(0.854894,0,0,1.189178,86.84086,-83.87492)"
       x1="88.379189"
       y1="39.938652"
       x2="88.379189"
       y2="36.394733" />
    <linearGradient
       inkscape:collect="always"
       xlink:href="#linearGradient7854"
       id="linearGradient7860"
       x1="15.6875"
       y1="31.620987"
       x2="15.6875"
       y2="36.003387"
       gradientUnits="userSpaceOnUse"
       gradientTransform="translate(-2,0)" />
    <linearGradient
       inkscape:collect="always"
       xlink:href="#linearGradient9615"
       id="linearGradient9624"
       gradientUnits="userSpaceOnUse"
       gradientTransform="matrix(1.114249,0,0,1.010411,-2.285623,0.728371)"
       x1="22.124464"
       y1="22.509439"
       x2="22.124464"
       y2="36.63607" />
    <linearGradient
       inkscape:collect="always"
       xlink:href="#linearGradient11375"
       id="linearGradient11381"
       x1="50.348782"
       y1="22.6915"
       x2="43.209671"
       y2="22.6915"
       gradientUnits="userSpaceOnUse" />
    <linearGradient
       inkscape:collect="always"
       xlink:href="#linearGradient13131"
       id="linearGradient13137"
       x1="23.274334"
       y1="7.1232281"
       x2="23.274334"
       y2="46.824097"
       gradientUnits="userSpaceOnUse" />
    <linearGradient
       inkscape:collect="always"
       xlink:href="#linearGradient13141"
       id="linearGradient13147"
       x1="43.356365"
       y1="4.9198756"
       x2="43.356365"
       y2="33.896168"
       gradientUnits="userSpaceOnUse" />
    <linearGradient
       id="linearGradient7473">
      <stop
         id="stop7475"
         offset="0"
         style="stop-color:white;stop-opacity:1;" />
      <stop
         style="stop-color:#fffc9d;stop-opacity:0.97254902;"
         offset="0.5"
         id="stop7481" />
      <stop
         id="stop7483"
         offset="0.75"
         style="stop-color:#fff409;stop-opacity:0.67676765;" />
      <stop
         id="stop7477"
         offset="1"
         style="stop-color:#fff409;stop-opacity:0;" />
    </linearGradient>
    <radialGradient
       inkscape:collect="always"
       xlink:href="#linearGradient7473"
       id="radialGradient13266"
       gradientUnits="userSpaceOnUse"
       cx="27.930717"
       cy="18.124739"
       fx="27.930717"
       fy="18.124739"
       r="9.1923885" />
  </defs>
  <sodipodi:namedview
     id="base"
     pagecolor="#ffffff"
     bordercolor="#666666"
     borderopacity="1.0"
     inkscape:pageopacity="0.0"
     inkscape:pageshadow="2"
     inkscape:zoom="1"
     inkscape:cx="24"
     inkscape:cy="24"
     inkscape:current-layer="layer1"
     showgrid="false"
     inkscape:grid-bbox="true"
     inkscape:document-units="px"
     inkscape:showpageshadow="false"
     showborder="false"
     inkscape:window-width="823"
     inkscape:window-height="536"
     inkscape:window-x="10"
     inkscape:window-y="66" />
  <metadata
     id="metadata3922">
    <rdf:RDF>
      <cc:Work
         rdf:about="">
        <dc:format>image/svg+xml</dc:format>
        <dc:type
           rdf:resource="http://purl.org/dc/dcmitype/StillImage" />
      </cc:Work>
    </rdf:RDF>
  </metadata>
  <g
     id="layer1"
     inkscape:label="Layer 1"
     inkscape:groupmode="layer">
    <path
       style="opacity:1;fill:url(#linearGradient9624);fill-opacity:1;stroke:#969696;stroke-width:0.9999994;stroke-linecap:round;stroke-linejoin:round;stroke-miterlimit:4;stroke-dashoffset:0;stroke-opacity:1"
       d="M 2.6860449,8.3064546 L 44.25222,4.4999975 L 47.499978,6.9103384 L 47.499978,39.870932 L 44.25222,42.499981 L 2.6860449,39.629195 C 1.4749758,39.629195 0.4999996,38.727908 0.4999996,37.608373 L 0.4999996,10.327276 C 0.4999996,9.2077412 1.4749758,8.3064546 2.6860449,8.3064546 z "
       id="rect3925"
       sodipodi:nodetypes="ccccccccc" />
    <g
       transform="matrix(0.302738,0,0,0.303823,-38.9389,33.61183)"
       id="g28659">
      <path
         sodipodi:type="arc"
         style="opacity:1;fill:url(#radialGradient5161);fill-opacity:1;stroke:#8e7d00;stroke-width:3.26920891;stroke-linecap:round;stroke-linejoin:round;stroke-miterlimit:4;stroke-dasharray:none;stroke-dashoffset:0;stroke-opacity:1"
         id="path28661"
         sodipodi:cx="87.875"
         sodipodi:cy="23.625"
         sodipodi:rx="21.25"
         sodipodi:ry="21.25"
         d="M 109.125 23.625 A 21.25 21.25 0 1 1  66.625,23.625 A 21.25 21.25 0 1 1  109.125 23.625 z"
         transform="matrix(1.010391,0,0,1.006783,72.86611,-75.16977)" />
      <path
         sodipodi:type="arc"
         style="opacity:1;fill:url(#linearGradient5163);fill-opacity:1;stroke:none;stroke-width:1;stroke-linecap:round;stroke-linejoin:round;stroke-miterlimit:4;stroke-dasharray:none;stroke-dashoffset:0;stroke-opacity:1"
         id="path28663"
         sodipodi:cx="87.875"
         sodipodi:cy="23.625"
         sodipodi:rx="21.25"
         sodipodi:ry="21.25"
         d="M 109.125 23.625 A 21.25 21.25 0 1 1  66.625,23.625 A 21.25 21.25 0 1 1  109.125 23.625 z"
         transform="matrix(0.771909,0,0,0.494561,93.93568,-72.30754)" />
      <path
         sodipodi:type="arc"
         style="opacity:1;fill:none;fill-opacity:1;stroke:url(#linearGradient5165);stroke-width:3.86362863;stroke-linecap:round;stroke-linejoin:round;stroke-miterlimit:4;stroke-dasharray:none;stroke-dashoffset:0;stroke-opacity:1"
         id="path28665"
         sodipodi:cx="87.875"
         sodipodi:cy="23.625"
         sodipodi:rx="21.25"
         sodipodi:ry="21.25"
         d="M 109.125 23.625 A 21.25 21.25 0 1 1  66.625,23.625 A 21.25 21.25 0 1 1  109.125 23.625 z"
         transform="matrix(0.854942,0,0,0.851889,86.52627,-71.5105)" />
      <g
         id="g28667"
         transform="matrix(1.137951,0,0,1.044462,55.58063,-76.85726)">
        <path
           transform="matrix(1.185096,0,0,2.55102,3.773128,-29.67347)"
           d="M 83.875 19.9375 A 6 3.0625 0 1 1  71.875,19.9375 A 6 3.0625 0 1 1  83.875 19.9375 z"
           sodipodi:ry="3.0625"
           sodipodi:rx="6"
           sodipodi:cy="19.9375"
           sodipodi:cx="77.875"
           id="path28669"
           style="opacity:0.66527201;fill:black;fill-opacity:0.79399139;stroke:url(#linearGradient5167);stroke-width:1.73945773;stroke-linecap:round;stroke-linejoin:round;stroke-miterlimit:4;stroke-dasharray:none;stroke-dashoffset:0;stroke-opacity:1"
           sodipodi:type="arc" />
        <path
           transform="matrix(1.080929,0,0,2.326792,11.88511,-25.20293)"
           style="fill:url(#radialGradient5169);fill-opacity:1;stroke:none;stroke-width:0.57513034;stroke-linecap:round;stroke-linejoin:round;stroke-miterlimit:4;stroke-dashoffset:0;stroke-opacity:1"
           d="M 83.875,19.9375 C 83.875,21.628 81.187,23 77.875,23 C 74.563,23 71.875,21.628 71.875,19.9375 C 71.875,18.247 74.563,16.875 77.875,16.875 C 81.187,16.875 83.875,18.247 83.875,19.9375 z "
           id="path28671" />
        <path
           transform="matrix(1.693537,0,0,1.460974,-69.58096,-9.187924)"
           d="M 98.5625 21.65625 A 1.53125 2.21875 0 1 1  95.5,21.65625 A 1.53125 2.21875 0 1 1  98.5625 21.65625 z"
           sodipodi:ry="2.21875"
           sodipodi:rx="1.53125"
           sodipodi:cy="21.65625"
           sodipodi:cx="97.03125"
           id="path28673"
           style="opacity:1;fill:url(#radialGradient5171);fill-opacity:1;stroke:none;stroke-width:1;stroke-linecap:round;stroke-linejoin:round;stroke-miterlimit:4;stroke-dasharray:none;stroke-dashoffset:0;stroke-opacity:1"
           sodipodi:type="arc" />
      </g>
      <g
         id="g28675"
         transform="matrix(0.819848,0,0,1.743693,79.22553,-91.07357)">
        <path
           transform="matrix(1.185096,0,0,1.515268,-12.91437,-9.335655)"
           style="opacity:0.66527201;fill:black;fill-opacity:0.79399139;stroke:url(#linearGradient5173);stroke-width:2.05793929;stroke-linecap:round;stroke-linejoin:round;stroke-miterlimit:4;stroke-dasharray:none;stroke-dashoffset:0;stroke-opacity:1"
           d="M 83.875,19.9375 C 83.875,21.628 81.187,23 77.875,23 C 76.220509,23 73.617112,22.799384 73.60083,21.885817 C 73.598575,21.75926 73.598253,21.635046 73.599969,21.513043 C 74.130782,21.571138 75.22073,18.599435 74.696801,17.882889 C 74.839131,17.689249 74.997277,17.498679 75.172348,17.309778 C 75.622549,16.824012 76.89588,16.875 77.875,16.875 C 81.187,16.875 83.875,18.247 83.875,19.9375 z "
           id="path28677"
           sodipodi:nodetypes="cssccssc" />
        <path
           style="fill:url(#radialGradient5175);fill-opacity:1;stroke:none;stroke-width:0.57513034;stroke-linecap:round;stroke-linejoin:round;stroke-miterlimit:4;stroke-dashoffset:0;stroke-opacity:1"
           d="M 83.875,19.9375 C 83.875,21.628 81.187,23 77.875,23 C 76.144565,23 73.445601,22.712646 73.489089,21.764069 C 72.913112,20.085941 73.752281,18.315767 75.067938,17.35527 C 75.685082,16.904724 76.861096,16.875 77.875,16.875 C 81.187,16.875 83.875,18.247 83.875,19.9375 z "
           id="path28679"
           sodipodi:nodetypes="cscssc"
           transform="matrix(1.080929,0,0,1.38208,-4.80239,-6.680221)" />
        <path
           transform="matrix(2.018976,0,0,0.97927,-116.1862,0.835945)"
           d="M 98.5625 21.65625 A 1.53125 2.21875 0 1 1  95.5,21.65625 A 1.53125 2.21875 0 1 1  98.5625 21.65625 z"
           sodipodi:ry="2.21875"
           sodipodi:rx="1.53125"
           sodipodi:cy="21.65625"
           sodipodi:cx="97.03125"
           id="path28681"
           style="fill:url(#radialGradient5177);fill-opacity:1;stroke:none;stroke-width:1;stroke-linecap:round;stroke-linejoin:round;stroke-miterlimit:4;stroke-dasharray:none;stroke-dashoffset:0;stroke-opacity:1"
           sodipodi:type="arc" />
      </g>
      <path
         style="fill:url(#linearGradient5179);fill-opacity:1;stroke:url(#linearGradient5181);stroke-width:3.29727483;stroke-linecap:round;stroke-linejoin:round;stroke-miterlimit:4;stroke-dashoffset:0;stroke-opacity:1"
         d="M 173.21535,-40.066457 C 173.21535,-37.341191 168.03596,-33.281959 161.65422,-33.281959 C 155.27246,-33.281959 150.09307,-37.341191 150.09307,-40.066457 C 150.09307,-42.791724 155.27246,-43.156112 161.65422,-43.156112 C 168.03596,-43.156112 173.21535,-42.791724 173.21535,-40.066457 z "
         id="path28683"
         sodipodi:nodetypes="csssc" />
      <path
         style="opacity:1;fill:url(#linearGradient5183);fill-opacity:1;stroke:none;stroke-width:1;stroke-linecap:round;stroke-linejoin:round;stroke-miterlimit:4;stroke-dasharray:none;stroke-dashoffset:0;stroke-opacity:1"
         d="M 158.49162,-41.510452 C 155.9996,-41.510452 154.50479,-39.693272 155.23234,-37.980079 C 156.99476,-33.830058 165.90978,-34.216084 168.00231,-37.311167 C 168.98229,-38.760665 167.07658,-41.510452 163.94156,-41.510452 C 163.10399,-41.510452 161.8135,-40.101148 161.18988,-39.652361 C 160.56625,-40.101148 159.3292,-41.510452 158.49162,-41.510452 z "
         id="path28685"
         sodipodi:nodetypes="cssscc" />
      <path
         style="font-size:16.42194557px;font-style:normal;font-variant:normal;font-weight:bold;font-stretch:normal;text-align:start;line-height:125%;writing-mode:lr-tb;text-anchor:start;fill:#505050;fill-opacity:1;stroke:none;stroke-width:1px;stroke-linecap:butt;stroke-linejoin:miter;stroke-opacity:1;font-family:Bitstream Vera Sans"
         d="M 190.40716,-66.218898 L 193.36438,-66.305715 L 193.36438,-55.021879 C 193.36437,-53.46491 192.9752,-52.289946 192.19685,-51.496981 C 191.42362,-50.70417 190.25098,-50.284687 188.67892,-50.238532 L 188.07979,-50.220943 L 188.07979,-52.656845 L 188.54065,-52.670375 C 189.15515,-52.688416 189.61857,-52.888969 189.93094,-53.272034 C 190.24842,-53.65525 190.40715,-54.209592 190.40716,-54.935062 L 190.40716,-66.218898 M 200.21591,-61.467639 C 199.60653,-61.449741 199.14055,-61.196098 198.81794,-60.706708 C 198.50046,-60.223037 198.34172,-59.531972 198.34172,-58.633512 C 198.34172,-57.735043 198.50046,-57.050508 198.81794,-56.579905 C 199.14055,-56.115029 199.60653,-55.891536 200.21591,-55.909428 C 200.81503,-55.927015 201.27332,-56.177642 201.59082,-56.66131 C 201.9083,-57.150553 202.06704,-57.844409 202.06704,-58.742879 C 202.06704,-59.641339 201.9083,-60.323083 201.59082,-60.788113 C 201.27332,-61.258711 200.81503,-61.48522 200.21591,-61.467639 M 200.21591,-63.610563 C 201.69578,-63.653999 202.85051,-63.252618 203.68007,-62.406418 C 204.51474,-61.560351 204.93208,-60.36721 204.93209,-58.826989 C 204.93208,-57.286758 204.51474,-56.069113 203.68007,-55.174048 C 202.85051,-54.279131 201.69578,-53.80995 200.21591,-53.766504 C 198.73089,-53.722908 197.56848,-54.124063 196.72869,-54.969972 C 195.89402,-55.816029 195.47667,-57.009171 195.47667,-58.549401 C 195.47667,-60.089622 195.89402,-61.307268 196.72869,-62.202342 C 197.56848,-63.09755 198.73089,-63.566957 200.21591,-63.610563 M 215.58575,-60.169362 L 215.58575,-54.460478 L 212.82056,-54.379299 L 212.82056,-55.308458 L 212.82056,-58.732114 C 212.82055,-59.552447 212.80263,-60.115554 212.7668,-60.421437 C 212.73607,-60.727458 212.67974,-60.951815 212.59781,-61.09451 C 212.49027,-61.286666 212.34433,-61.433055 212.15999,-61.533681 C 211.97564,-61.639872 211.76569,-61.689513 211.53014,-61.682605 C 210.95662,-61.665761 210.506,-61.409779 210.17827,-60.914659 C 209.85054,-60.425106 209.68668,-59.753422 209.68668,-58.899606 L 209.68668,-54.287296 L 206.93686,-54.206568 L 206.93686,-67.23153 L 209.68668,-67.312258 L 209.68668,-62.289779 C 210.10146,-62.848839 210.54184,-63.263566 211.00783,-63.533959 C 211.47381,-63.809915 211.98844,-63.956166 212.55172,-63.972712 C 213.54514,-64.001867 214.29788,-63.691924 214.80997,-63.042883 C 215.32714,-62.393976 215.58574,-61.436136 215.58575,-60.169362 M 226.80014,-60.498589 L 226.80014,-54.789705 L 224.03495,-54.708526 L 224.03495,-55.637685 L 224.03495,-59.078083 C 224.03495,-59.887254 224.01702,-60.444781 223.98118,-60.750664 C 223.95045,-61.056684 223.89412,-61.281042 223.8122,-61.423737 C 223.70466,-61.615893 223.55872,-61.762282 223.37438,-61.862908 C 223.19002,-61.969099 222.98008,-62.01874 222.74453,-62.011832 C 222.171,-61.994988 221.72038,-61.739005 221.39266,-61.243886 C 221.06492,-60.754333 220.90106,-60.082649 220.90106,-59.228832 L 220.90106,-54.616523 L 218.15124,-54.535795 L 218.15124,-63.911089 L 220.90106,-63.991817 L 220.90106,-62.619006 C 221.31584,-63.178066 221.75622,-63.592793 222.22221,-63.863186 C 222.68819,-64.139142 223.20282,-64.285393 223.76611,-64.301939 C 224.75952,-64.331094 225.51226,-64.021151 226.02435,-63.37211 C 226.54154,-62.723203 226.80013,-61.765363 226.80014,-60.498589 M 237.91467,-65.1777 L 237.91467,-57.551903 L 238.97466,-57.583022 C 240.18314,-57.618498 241.10486,-57.972018 241.73985,-58.643585 C 242.37993,-59.315294 242.69997,-60.273379 242.69998,-61.517843 C 242.69997,-62.756713 242.38249,-63.690502 241.74753,-64.319211 C 241.11255,-64.947902 240.18826,-65.244437 238.97466,-65.208819 L 237.91467,-65.1777 M 234.95745,-67.526786 L 238.07597,-67.618338 C 239.81701,-67.669438 241.11255,-67.57075 241.9626,-67.322271 C 242.81774,-67.079499 243.55001,-66.643393 244.15938,-66.013952 C 244.69705,-65.466093 245.09647,-64.827688 245.35763,-64.098734 C 245.61878,-63.369762 245.74936,-62.539307 245.74937,-61.607366 C 245.74936,-60.66425 245.61878,-59.817758 245.35763,-59.067884 C 245.09647,-58.323584 244.69705,-57.661727 244.15938,-57.082311 C 243.54489,-56.416928 242.8075,-55.934887 241.94724,-55.636186 C 241.08695,-55.343065 239.79652,-55.171247 238.07597,-55.120736 L 234.95745,-55.029184 L 234.95745,-67.526786 M 251.98642,-62.987495 C 251.37705,-62.969598 250.91106,-62.715954 250.58845,-62.226565 C 250.27097,-61.742893 250.11222,-61.051828 250.11223,-60.153369 C 250.11222,-59.254899 250.27097,-58.570364 250.58845,-58.099761 C 250.91106,-57.634885 251.37705,-57.411393 251.98642,-57.429284 C 252.58554,-57.446871 253.04383,-57.697498 253.36133,-58.181166 C 253.67881,-58.670409 253.83754,-59.364265 253.83755,-60.262735 C 253.83754,-61.161195 253.67881,-61.842939 253.36133,-62.307969 C 253.04383,-62.778567 252.58554,-63.005076 251.98642,-62.987495 M 251.98642,-65.130419 C 253.46629,-65.173855 254.62102,-64.772474 255.45058,-63.926274 C 256.28525,-63.080208 256.70259,-61.887066 256.7026,-60.346846 C 256.70259,-58.806614 256.28525,-57.588969 255.45058,-56.693904 C 254.62102,-55.798987 253.46629,-55.329806 251.98642,-55.28636 C 250.5014,-55.242764 249.33899,-55.643919 248.49921,-56.489828 C 247.66453,-57.335885 247.24718,-58.529027 247.24718,-60.069258 C 247.24718,-61.609478 247.66453,-62.827124 248.49921,-63.722199 C 249.33899,-64.617406 250.5014,-65.086813 251.98642,-65.130419 M 267.35626,-61.689218 L 267.35626,-55.980334 L 264.59107,-55.899155 L 264.59107,-56.828314 L 264.59107,-60.25197 C 264.59106,-61.072303 264.57314,-61.63541 264.53731,-61.941294 C 264.50658,-62.247314 264.45024,-62.471671 264.36832,-62.614366 C 264.26077,-62.806521 264.11483,-62.952911 263.9305,-63.053537 C 263.74614,-63.159728 263.5362,-63.209369 263.30065,-63.202461 C 262.72712,-63.185616 262.2765,-62.929634 261.94877,-62.434515 C 261.62105,-61.944962 261.45718,-61.273278 261.45719,-60.419462 L 261.45719,-55.807152 L 258.70736,-55.726424 L 258.70736,-68.751386 L 261.45719,-68.832114 L 261.45719,-63.809635 C 261.87197,-64.368695 262.31234,-64.783422 262.77834,-65.053816 C 263.24432,-65.329771 263.75895,-65.476022 264.32223,-65.492568 C 265.31564,-65.521723 266.06839,-65.21178 266.58047,-64.56274 C 267.09765,-63.913832 267.35625,-62.955992 267.35626,-61.689218"
         id="text5185" />
      <path
         style="opacity:0.5;fill:black;fill-opacity:0.71244632;stroke:none;stroke-width:1;stroke-linecap:round;stroke-linejoin:round;stroke-miterlimit:4;stroke-dasharray:none;stroke-dashoffset:0;stroke-opacity:1"
         d="M 20,20 L 20,21.03125 L 27,21.03125 L 27,20 L 20,20 z M 30,20 L 30,21.03125 L 44,21.03125 L 44,20 L 30,20 z M 20,22.96875 L 20,24 L 30,24 L 30,22.96875 L 20,22.96875 z M 33,22.96875 L 33,24 L 44,24 L 44,22.96875 L 33,22.96875 z M 20,25.96875 L 20,27 L 27,27 L 27,25.96875 L 20,25.96875 z M 30,25.96875 L 30,27 L 44,27 L 44,25.96875 L 30,25.96875 z "
         transform="matrix(3.303186,0,0,3.29139,122.0161,-110.6296)"
         id="rect5190" />
    </g>
    <path
       style="opacity:1;fill:url(#linearGradient7860);fill-opacity:1;stroke:none;stroke-width:1;stroke-linecap:round;stroke-linejoin:round;stroke-miterlimit:4;stroke-dasharray:none;stroke-dashoffset:0;stroke-opacity:1"
       d="M 5,30 L 5,35.702128 L 6,35.702128 L 6,30 L 5,30 z M 7,30 L 7,36 L 8,36 L 8,30 L 7,30 z M 9,30 L 9,36.255319 L 11,36.255319 L 11,30 L 9,30 z M 13,30 L 13,36.382978 L 14,36.382978 L 14,30 L 13,30 z M 15,30 L 15,36.553191 L 16,36.553191 L 16,30 L 15,30 z M 18,30 L 18,36.723404 L 19,36.723404 L 19,30 L 18,30 z M 20,30 L 20,36.723404 L 21,36.723404 L 21,30 L 20,30 z M 23,30 L 23,37.06383 L 25,37.06383 L 25,30 L 23,30 z M 26,30 L 26,37.319149 L 27,37.319149 L 27,30 L 26,30 z M 28,30 L 28,37.319149 L 29,37.319149 L 29,30 L 28,30 z M 31,30 L 31,37.659574 L 32,37.659574 L 32,30 L 31,30 z M 33,30 L 33,37.659574 L 34,37.659574 L 34,30 L 33,30 z M 35,30 L 35,38 L 37,38 L 37,30 L 35,30 z M 38,30 L 38,38 L 39,38 L 39,30 L 38,30 z "
       id="rect6949"
       sodipodi:nodetypes="cccccccccccccccccccccccccccccccccccccccccccccccccccccccccccccccccccccc" />
    <path
       style="fill:url(#linearGradient11381);fill-opacity:1.0;stroke:none;stroke-width:1;stroke-linecap:round;stroke-linejoin:round;stroke-miterlimit:4;stroke-dashoffset:0;stroke-opacity:1"
       d="M 44,5 L 47,7.1664548 L 47,39.653007 L 44,42 L 44,5 z "
       id="rect10499"
       sodipodi:nodetypes="ccccc" />
    <path
       style="opacity:1;fill:none;fill-opacity:1.0;stroke:url(#linearGradient13137);stroke-width:0.99999946;stroke-linecap:round;stroke-linejoin:round;stroke-miterlimit:4;stroke-dashoffset:0;stroke-opacity:1"
       d="M 3.5930231,9.1061218 L 43.879412,5.5000016 L 46.500012,7.392319 L 46.500012,39.498294 L 43.879412,41.500017 L 3.5930231,38.780322 C 2.433488,38.780322 1.4999995,37.92647 1.4999995,36.865857 L 1.4999995,11.020585 C 1.4999995,9.9599728 2.433488,9.1061218 3.5930231,9.1061218 z "
       id="path12256"
       sodipodi:nodetypes="ccccccccc" />
    <path
       style="fill:none;fill-opacity:1.0;fill-rule:evenodd;stroke:url(#linearGradient13147);stroke-width:1px;stroke-linecap:butt;stroke-linejoin:miter;stroke-opacity:1"
       d="M 43.5,6.069146 L 43.5,41.5"
       id="path13139" />
    <path
       sodipodi:type="arc"
       style="opacity:0.94142259;fill:url(#radialGradient13266);fill-opacity:1;stroke:none;stroke-width:1;stroke-linecap:round;stroke-linejoin:round;stroke-miterlimit:4;stroke-dasharray:none;stroke-dashoffset:0;stroke-opacity:1"
       id="path6598"
       sodipodi:cx="27.930717"
       sodipodi:cy="18.124739"
       sodipodi:rx="9.1923885"
       sodipodi:ry="9.1923885"
       d="M 37.123106 18.124739 A 9.1923885 9.1923885 0 1 1  18.738329,18.124739 A 9.1923885 9.1923885 0 1 1  37.123106 18.124739 z"
       transform="matrix(0.979071,0,0,0.979071,11.65385,-4.745407)" />
  </g>
</svg>
