<?xml version="1.0" encoding="UTF-8" standalone="no"?>
<!-- Created with Inkscape (http://www.inkscape.org/) -->
<svg
   xmlns:dc="http://purl.org/dc/elements/1.1/"
   xmlns:cc="http://web.resource.org/cc/"
   xmlns:rdf="http://www.w3.org/1999/02/22-rdf-syntax-ns#"
   xmlns:svg="http://www.w3.org/2000/svg"
   xmlns="http://www.w3.org/2000/svg"
   xmlns:xlink="http://www.w3.org/1999/xlink"
   xmlns:sodipodi="http://inkscape.sourceforge.net/DTD/sodipodi-0.dtd"
   xmlns:inkscape="http://www.inkscape.org/namespaces/inkscape"
   width="48"
   height="48"
   id="svg2"
   sodipodi:version="0.32"
   inkscape:version="0.43+devel"
   sodipodi:docbase="/home/silvestre/Desktop/Neu/scalable/actions"
   sodipodi:docname="dialog-cancel.svg"
   version="1.0">
  <defs
     id="defs4">
    <linearGradient
       id="linearGradient8493">
      <stop
         id="stop8495"
         offset="0"
         style="stop-color:#b50000;stop-opacity:1;" />
      <stop
         id="stop8497"
         offset="1"
         style="stop-color:#860000;stop-opacity:1;" />
    </linearGradient>
    <linearGradient
       inkscape:collect="always"
       id="linearGradient6731">
      <stop
         style="stop-color:white;stop-opacity:1;"
         offset="0"
         id="stop6733" />
      <stop
         style="stop-color:white;stop-opacity:0.21459228"
         offset="1"
         id="stop6736" />
    </linearGradient>
    <linearGradient
       id="linearGradient2947">
      <stop
         style="stop-color:#f00000;stop-opacity:1;"
         offset="0"
         id="stop2949" />
      <stop
         style="stop-color:#c50000;stop-opacity:1.0000000"
         offset="1"
         id="stop2951" />
    </linearGradient>
    <linearGradient
       inkscape:collect="always"
       id="linearGradient2939">
      <stop
         style="stop-color:#ffffff;stop-opacity:1;"
         offset="0"
         id="stop2941" />
      <stop
         style="stop-color:#ffffff;stop-opacity:0;"
         offset="1"
         id="stop2943" />
    </linearGradient>
    <linearGradient
       inkscape:collect="always"
       xlink:href="#linearGradient2939"
       id="linearGradient4104"
       gradientUnits="userSpaceOnUse"
       gradientTransform="matrix(0.583028,0,0,0.606295,42.48895,-11.88434)"
       x1="-36.921875"
       y1="9.6603756"
       x2="-39.676552"
       y2="64.862534" />
    <linearGradient
       inkscape:collect="always"
       xlink:href="#linearGradient2947"
       id="linearGradient4107"
       gradientUnits="userSpaceOnUse"
       gradientTransform="matrix(0.548553,0,0,0.585058,41.25364,-10.11685)"
       x1="-36.921875"
       y1="53.132072"
       x2="-25.876013"
       y2="85.908356" />
    <linearGradient
       inkscape:collect="always"
       xlink:href="#linearGradient6731"
       id="linearGradient6738"
       x1="37.404812"
       y1="1.7852055"
       x2="23.418995"
       y2="42.563885"
       gradientUnits="userSpaceOnUse"
       gradientTransform="matrix(0.926717,0,0,1,0.179476,0)" />
    <linearGradient
       inkscape:collect="always"
       xlink:href="#linearGradient8493"
       id="linearGradient6742"
       gradientUnits="userSpaceOnUse"
       gradientTransform="matrix(0.624741,0,0,0.599328,46.06665,-10.96117)"
       x1="-36.921875"
       y1="53.132072"
       x2="-25.876013"
       y2="85.908356" />
  </defs>
  <sodipodi:namedview
     id="base"
     pagecolor="#ffffff"
     bordercolor="#666666"
     borderopacity="1.0"
     inkscape:pageopacity="0.0"
     inkscape:pageshadow="2"
     inkscape:zoom="1"
     inkscape:cx="24"
     inkscape:cy="24"
     inkscape:document-units="px"
     inkscape:current-layer="layer1"
     inkscape:window-width="843"
     inkscape:window-height="556"
     inkscape:window-x="0"
     inkscape:window-y="25"
     showguides="true"
     inkscape:guide-bbox="true"
     width="48px"
     height="48px"
     inkscape:showpageshadow="false"
     showgrid="false"
     showborder="false" />
  <metadata
     id="metadata7">
    <rdf:RDF>
      <cc:Work
         rdf:about="">
        <dc:format>image/svg+xml</dc:format>
        <dc:type
           rdf:resource="http://purl.org/dc/dcmitype/StillImage" />
      </cc:Work>
    </rdf:RDF>
  </metadata>
  <g
     inkscape:label="Layer 1"
     inkscape:groupmode="layer"
     id="layer1">
    <path
       style="color:black;fill:url(#linearGradient6742);fill-opacity:1.0;fill-rule:evenodd;stroke:#9f0000;stroke-width:1.00000036;stroke-linecap:round;stroke-linejoin:round;marker:none;marker-start:none;marker-mid:none;marker-end:none;stroke-miterlimit:4;stroke-dasharray:none;stroke-dashoffset:0;stroke-opacity:1;visibility:visible;display:inline;overflow:visible"
       d="M 8.59375,3.53125 C 7.1316342,3.6323326 5.7340619,4.1840057 4.625,5.25 C 3.3310957,6.493661 2.645209,8.1952324 2.53125,10.03125 C 2.4951703,10.555826 2.4929687,11.118368 2.5625,11.65625 C 2.7821173,13.538838 3.594044,15.446277 4.96875,17.0625 L 11.3125,24.5 L 4.96875,31.9375 C 3.5940436,33.553726 2.7821175,35.492412 2.5625,37.375 C 2.4929686,37.912882 2.4951703,38.444173 2.53125,38.96875 C 2.6452089,40.804768 3.331095,42.506334 4.625,43.75 C 8.4750476,47.025447 13.675786,45.260529 17.0625,42.21875 L 21.9375,37.03125 L 26.375,42.21875 C 28.625137,44.864211 31.771161,45.943959 34.46875,45.3125 C 36.889101,45.790841 39.358176,45.309638 41.15625,43.75 C 44.433476,40.907335 44.263129,35.631731 40.78125,31.9375 L 33.75,24.5 L 40.78125,17.0625 C 44.263129,13.368274 44.433475,8.0926548 41.15625,5.25 C 36.628678,2.1188377 30.209698,3.0754396 26.375,6.78125 L 21.9375,11.96875 L 17.0625,6.78125 C 14.838429,4.3244585 11.755743,3.4934225 8.59375,3.53125 z "
       id="path6740"
       sodipodi:nodetypes="csscccccssccccscccscccs" />
    <path
       style="color:black;fill:url(#linearGradient4107);fill-opacity:1;fill-rule:evenodd;stroke:none;stroke-width:1.00000024;stroke-linecap:round;stroke-linejoin:round;marker:none;marker-start:none;marker-mid:none;marker-end:none;stroke-miterlimit:4;stroke-dasharray:none;stroke-dashoffset:0;stroke-opacity:1;visibility:visible;display:inline;overflow:visible"
       d="M 8.9232416,4.0159512 C 7.5006431,4.1146268 6.1453081,4.6756614 5.0662212,5.7162743 C 2.1886591,8.4912445 2.3346651,13.628333 5.3919252,17.234597 L 11.563158,24.511253 L 5.3919252,31.769622 C 2.3346644,35.375893 2.1886575,40.512975 5.0662212,43.287955 C 7.9437859,46.062917 12.722904,45.395007 15.780166,41.788735 L 20.991428,35.627351 L 26.219835,41.788735 C 29.277095,45.395007 34.056217,46.062917 36.933781,43.287955 C 39.811343,40.512975 39.665334,35.375893 36.608076,31.769622 L 30.436843,24.511253 L 36.608076,17.234597 C 39.665334,13.628332 39.811343,8.4912455 36.933781,5.7162743 C 34.056216,2.9413051 29.277095,3.6092183 26.219835,7.2154854 L 20.991428,13.376875 L 15.780166,7.2154854 C 13.869379,4.9615688 11.294238,3.8514909 8.9232416,4.0159512 z "
       id="rect2206" />
    <path
       style="color:black;fill:url(#linearGradient4104);fill-opacity:1;fill-rule:evenodd;stroke:none;stroke-width:2.99999905;stroke-linecap:round;stroke-linejoin:round;marker:none;marker-start:none;marker-mid:none;marker-end:none;stroke-miterlimit:4;stroke-dasharray:none;stroke-dashoffset:0;stroke-opacity:1;visibility:visible;display:inline;overflow:visible"
       d="M 8.8851116,4.0155535 C 7.4624401,4.1117696 6.1070335,4.6588203 5.02789,5.6734956 C 2.1501787,8.3792982 2.2961918,13.388342 5.3536117,16.904719 L 11.525164,24 C 17.213264,17.306253 24.711733,16.678714 30.399834,24 L 36.571387,16.904719 C 39.628808,13.388341 39.774822,8.3792993 36.897108,5.6734956 C 34.019393,2.9676928 29.994473,3.5423416 26.182605,7.6716503 L 20.953927,13.679463 L 15.742394,7.6716503 C 13.275192,4.9989876 11.256232,3.855193 8.8851116,4.0155535 z "
       id="path2937"
       sodipodi:nodetypes="csccccscccc" />
    <path
       style="color:black;fill:none;fill-opacity:1;fill-rule:evenodd;stroke:url(#linearGradient6738);stroke-width:0.99999911;stroke-linecap:round;stroke-linejoin:round;marker:none;marker-start:none;marker-mid:none;marker-end:none;stroke-miterlimit:4;stroke-dasharray:none;stroke-dashoffset:0;stroke-opacity:1;visibility:visible;display:inline;overflow:visible"
       d="M 9.2171038,4.5155617 C 7.8255169,4.6118307 6.5296336,5.1965903 5.4441637,6.1744139 C 2.4931941,8.8327351 3.1166695,13.719464 6.5911178,17.411804 L 12.627821,24.510981 L 6.5911178,31.592318 C 2.6312268,35.86535 2.6293289,40.122421 5.4441637,42.829719 C 8.2589994,45.536999 12.933936,44.08091 15.924551,40.562596 L 21.022213,34.551487 L 26.136644,40.562596 C 29.127258,44.08091 33.802198,45.536999 36.617032,42.829719 C 39.431867,40.122421 38.626362,35.110633 35.635748,31.592318 L 29.599044,24.510981 L 35.635748,17.411804 C 38.746912,13.893495 39.692671,9.6635826 36.617032,6.1744139 C 33.744587,2.911172 29.293048,4.9231535 26.136644,8.5309138 L 21.022213,14.542026 L 15.924551,8.5309138 C 14.055419,6.3319704 11.536414,4.3551126 9.2171038,4.5155617 z "
       id="path4983"
       sodipodi:nodetypes="cscccscccscccscccc" />
  </g>
</svg>
