<?xml version="1.0" encoding="UTF-8" standalone="no"?>
<!-- Created with Inkscape (http://www.inkscape.org/) -->
<svg
   xmlns:dc="http://purl.org/dc/elements/1.1/"
   xmlns:cc="http://web.resource.org/cc/"
   xmlns:rdf="http://www.w3.org/1999/02/22-rdf-syntax-ns#"
   xmlns:svg="http://www.w3.org/2000/svg"
   xmlns="http://www.w3.org/2000/svg"
   xmlns:xlink="http://www.w3.org/1999/xlink"
   xmlns:sodipodi="http://inkscape.sourceforge.net/DTD/sodipodi-0.dtd"
   xmlns:inkscape="http://www.inkscape.org/namespaces/inkscape"
   version="1.0"
   x="00"
   y="00"
   width="48"
   height="48"
   id="Etiquette"
   sodipodi:version="0.32"
   inkscape:version="0.43+devel"
   sodipodi:docname="edit-cut.svg"
   sodipodi:docbase="/home/silvestre/Neu/scalable/actions">
  <metadata
     id="About">
    <rdf:RDF>
      <cc:Work
         rdf:about="">
        <dc:format>image/svg+xml</dc:format>
        <dc:type
           rdf:resource="http://purl.org/dc/dcmitype/StillImage" />
        <dc:creator>
          <cc:Agent>
            <dc:title>Andrew Fitzsimon</dc:title>
          </cc:Agent>
        </dc:creator>
        <dc:date>2004-12-25</dc:date>
        <dc:title>Etiquette Icon</dc:title>
        <cc:license
           rdf:resource="http://creativecommons.org/licenses/by/2.0/" />
        <dc:rights>
          <cc:Agent>
            <dc:title>Andrew Fitzsimon</dc:title>
          </cc:Agent>
        </dc:rights>
      </cc:Work>
      <cc:License
         rdf:about="http://creativecommons.org/licenses/by/2.0/">
        <cc:permits
           rdf:resource="http://web.resource.org/cc/Reproduction" />
        <cc:permits
           rdf:resource="http://web.resource.org/cc/Distribution" />
        <cc:requires
           rdf:resource="http://web.resource.org/cc/Notice" />
        <cc:requires
           rdf:resource="http://web.resource.org/cc/Attribution" />
        <cc:prohibits
           rdf:resource="http://web.resource.org/cc/CommercialUse" />
        <cc:permits
           rdf:resource="http://web.resource.org/cc/DerivativeWorks" />
        <cc:requires
           rdf:resource="http://web.resource.org/cc/ShareAlike" />
      </cc:License>
    </rdf:RDF>
  </metadata>
  <sodipodi:namedview
     id="base"
     pagecolor="#f8f8f8"
     bordercolor="#666666"
     borderopacity="1.0"
     inkscape:pageopacity="0.0000000"
     inkscape:pageshadow="0"
     inkscape:zoom="1"
     inkscape:cx="24"
     inkscape:cy="24"
     inkscape:window-width="823"
     inkscape:window-height="536"
     inkscape:window-x="0"
     inkscape:window-y="76"
     inkscape:current-layer="Etiquette"
     width="48px"
     height="48px"
     grid_units="px"
     inkscape:showpageshadow="false"
     showgrid="false"
     showborder="false" />
  <defs
     id="Gradients">
    <linearGradient
       id="linearGradient3658">
      <stop
         style="stop-color:#000000;stop-opacity:0.56774193;"
         offset="0.0000000"
         id="stop3659" />
      <stop
         style="stop-color:#000000;stop-opacity:0.0000000;"
         offset="1.0000000"
         id="stop3660" />
    </linearGradient>
    <linearGradient
       inkscape:collect="always"
       id="linearGradient1851">
      <stop
         style="stop-color:#000000;stop-opacity:0.20000000;"
         offset="0.0000000"
         id="stop1852" />
      <stop
         style="stop-color:#000000;stop-opacity:0.064516127;"
         offset="0.50000000"
         id="stop1854" />
      <stop
         style="stop-color:#adadad;stop-opacity:0.0000000;"
         offset="1.0000000"
         id="stop1853" />
    </linearGradient>
    <linearGradient
       id="linearGradient3970">
      <stop
         style="stop-color:#ffffff;stop-opacity:1.0000000;"
         offset="0.0000000"
         id="stop3971" />
      <stop
         style="stop-color:#ffffff;stop-opacity:0.0000000;"
         offset="1.0000000"
         id="stop3972" />
    </linearGradient>
    <radialGradient
       inkscape:collect="always"
       xlink:href="#linearGradient1851"
       id="radialGradient1191"
       gradientUnits="userSpaceOnUse"
       cx="-289.0914"
       cy="598.36652"
       fx="-285.65439"
       fy="552.23834"
       r="125.20509" />
    <linearGradient
       inkscape:collect="always"
       xlink:href="#linearGradient3970"
       id="linearGradient1192"
       gradientUnits="userSpaceOnUse"
       gradientTransform="matrix(0.339246,0.206882,-0.225212,0.458609,12.5708,-18.16013)"
       x1="62.58136"
       y1="71.153831"
       x2="73.967102"
       y2="61.201187" />
    <linearGradient
       inkscape:collect="always"
       xlink:href="#linearGradient3658"
       id="linearGradient1197"
       gradientUnits="userSpaceOnUse"
       gradientTransform="matrix(0.194282,0.106319,-0.149529,0.273242,162.1883,-126.1346)"
       x1="-158.57335"
       y1="628.41992"
       x2="-179.82236"
       y2="609.66907" />
  </defs>
  <path
     sodipodi:type="arc"
     style="fill:url(#radialGradient1191);fill-opacity:0.75;fill-rule:evenodd;stroke:none;stroke-width:1pt;stroke-linecap:butt;stroke-linejoin:miter;stroke-opacity:1"
     id="path3995"
     sodipodi:cx="-289.0914"
     sodipodi:cy="598.36652"
     sodipodi:rx="125.20509"
     sodipodi:ry="125.20509"
     d="M -163.88631 598.36652 A 125.20509 125.20509 0 1 1  -414.29649,598.36652 A 125.20509 125.20509 0 1 1  -163.88631 598.36652 z"
     transform="matrix(-0.143764,1.209306e-3,2.087727e-4,2.792751e-2,-14.68585,28.13871)" />
  <path
     style="fill:#d8d8d8;fill-opacity:1;fill-rule:evenodd;stroke:#848484;stroke-width:0.99999976;stroke-linecap:butt;stroke-linejoin:miter;stroke-miterlimit:4;stroke-dasharray:none;stroke-opacity:1"
     d="M 44.499981,15.499992 C 43.404145,18.345743 38.814352,24.160107 32.654615,25.872321 L 21.55176,29.924335 C 18.916372,30.863472 18.473146,27.644067 13.719607,34.280755 C 11.875799,37.260981 7.6923061,36.954755 5.5297558,35.040367 C 3.0531144,32.847921 3.3815259,29.075296 4.9445688,27.309736 C 6.9197881,25.0786 10.360894,24.684033 12.127692,26.19556 C 13.957387,27.762766 13.89227,30.11402 14.805149,29.631998 L 44.499981,15.499992 z M 11.668227,27.680243 C 10.210021,26.389367 7.9784005,26.525173 6.6874887,27.983338 C 5.3965699,29.441509 5.5323788,32.235567 6.9905838,33.526439 C 8.4487943,34.817315 10.680419,34.681519 11.971334,33.22335 C 13.262246,31.765181 13.126439,28.971121 11.668227,27.680243 z "
     id="path3996"
     sodipodi:nodetypes="cccccccccccccc" />
  <path
     style="fill:url(#linearGradient1197)"
     d="M 18.988326,27.803571 L 44.361131,16.081198 C 44.361131,16.081198 39.882231,22.927888 33.426372,24.958972 C 26.970517,26.990054 21.704604,29.672325 20.903309,29.906803 L 18.988326,27.803571 z "
     id="path3997"
     sodipodi:nodetypes="ccccc" />
  <path
     style="fill:#dc0000;fill-opacity:1;fill-rule:evenodd;stroke:#9c0000;stroke-width:1.00000024;stroke-linecap:butt;stroke-linejoin:miter;stroke-miterlimit:4;stroke-dasharray:none;stroke-opacity:1"
     d="M 21.217866,29.927987 C 18.494186,30.933505 18.746643,27.018117 13.833848,34.12391 C 11.928269,37.314789 7.6046187,36.986917 5.3696176,34.937214 C 2.8100028,32.589799 3.1494168,28.55051 4.7648255,26.660154 C 6.8062195,24.271312 10.362611,23.848857 12.188601,25.467224 C 14.079595,27.145205 14.012297,29.662654 14.955759,29.146562 L 20.716608,26.481455 L 21.217866,29.927987 z M 11.713743,27.659109 C 10.206683,26.276989 7.9002979,26.422395 6.5661375,27.983627 C 5.2319697,29.544868 5.3723285,31.93416 6.879387,33.316275 C 8.386451,34.698396 10.692841,34.553002 12.027005,32.991763 C 13.361165,31.430525 13.220808,29.041231 11.713743,27.659109 z "
     id="path3998"
     sodipodi:nodetypes="ccccccccccccc" />
  <path
     style="fill:#d5d5d5;fill-opacity:1;fill-rule:evenodd;stroke:#848484;stroke-width:0.99999976;stroke-linecap:butt;stroke-linejoin:miter;stroke-miterlimit:4;stroke-dasharray:none;stroke-opacity:1"
     d="M 20.606959,1.4999999 C 18.755031,4.0384707 16.270618,11.270537 18.196689,17.58398 L 20.836537,30.343653 C 21.482181,33.159858 24.505341,30.910591 21.401263,38.743134 C 19.846631,42.00734 22.423508,45.476999 25.272157,46.292501 C 28.534556,47.226437 31.611146,44.839513 32.271955,42.496121 C 33.107014,39.53477 31.545709,36.32078 29.26373,35.625265 C 26.8989,34.906036 24.904304,36.272228 24.815996,35.209434 L 20.606959,1.4999999 z M 27.749707,37.165242 C 29.670555,37.715131 30.78679,39.732586 30.241038,41.66798 C 29.69528,43.603392 27.692992,44.728086 25.772148,44.178196 C 23.851298,43.628305 22.422552,41.548351 22.968312,39.612953 C 23.51407,37.67755 25.828857,36.615352 27.749707,37.165242 z "
     id="path4000"
     sodipodi:nodetypes="cccccccccccccc" />
  <path
     style="fill:#dc0000;fill-opacity:1;fill-rule:evenodd;stroke:#9c0000;stroke-width:1.00000012;stroke-linecap:butt;stroke-linejoin:miter;stroke-miterlimit:4;stroke-dasharray:none;stroke-opacity:1"
     d="M 20.500005,30.270561 C 21.164279,33.099505 24.274672,30.840064 21.081025,38.708038 C 19.481534,41.98701 22.132767,45.472364 25.063615,46.291555 C 28.42015,47.229716 31.585516,44.831994 32.265391,42.478002 C 33.124548,39.503255 31.51819,36.274726 29.170364,35.576066 C 26.737298,34.853582 24.685147,36.225954 24.594291,35.158353 L 23.878937,29.500007 L 20.500005,30.270561 z M 27.612654,37.123009 C 29.588929,37.675385 30.737373,39.701965 30.175873,41.646115 C 29.614366,43.590282 27.554303,44.720062 25.578033,44.167686 C 23.601757,43.615308 22.453302,41.588727 23.014809,39.644574 C 23.576316,37.700417 25.636378,36.570631 27.612654,37.123009 z "
     id="path4001"
     sodipodi:nodetypes="ccccccccccccc" />
  <path
     style="opacity:0.69230772;fill:url(#linearGradient1192);fill-opacity:1;fill-rule:evenodd;stroke:none;stroke-width:0.625;stroke-linecap:butt;stroke-linejoin:miter;stroke-miterlimit:4;stroke-opacity:0.0566037"
     d="M 19.438564,4.2218073 C 18.749594,7.0288257 17.866052,9.8475238 18.017039,12.800406 C 18.35254,17.298085 19.45163,21.676508 20.26806,26.090513 C 20.585433,27.514409 20.555642,27.967006 20.951109,29.350554 L 23.069033,29.137872 C 22.899022,27.573261 22.954447,27.045791 22.759536,25.487445 C 21.898227,17.878011 21.036917,10.268576 20.175608,2.659141 C 19.929927,3.1800296 19.684245,3.700919 19.438564,4.2218073 z "
     id="path195"
     sodipodi:nodetypes="cccccccc" />
</svg>
