<?xml version="1.0" encoding="UTF-8" standalone="no"?>
<!-- Created with Inkscape (http://www.inkscape.org/) -->
<svg
   xmlns:dc="http://purl.org/dc/elements/1.1/"
   xmlns:cc="http://web.resource.org/cc/"
   xmlns:rdf="http://www.w3.org/1999/02/22-rdf-syntax-ns#"
   xmlns:svg="http://www.w3.org/2000/svg"
   xmlns="http://www.w3.org/2000/svg"
   xmlns:xlink="http://www.w3.org/1999/xlink"
   xmlns:sodipodi="http://inkscape.sourceforge.net/DTD/sodipodi-0.dtd"
   xmlns:inkscape="http://www.inkscape.org/namespaces/inkscape"
   width="22"
   height="22"
   id="svg2"
   sodipodi:version="0.32"
   inkscape:version="0.43+devel"
   sodipodi:docbase="/home/silvestre/Desktop/Neu/22x22/actions/SVGs"
   sodipodi:docname="dialog-close.svg"
   version="1.0">
  <defs
     id="defs4">
    <linearGradient
       id="linearGradient8493">
      <stop
         id="stop8495"
         offset="0"
         style="stop-color:#5a5a5a;stop-opacity:1;" />
      <stop
         id="stop8497"
         offset="1"
         style="stop-color:#353535;stop-opacity:1" />
    </linearGradient>
    <linearGradient
       inkscape:collect="always"
       id="linearGradient6731">
      <stop
         style="stop-color:white;stop-opacity:1;"
         offset="0"
         id="stop6733" />
      <stop
         style="stop-color:white;stop-opacity:0.21459228"
         offset="1"
         id="stop6736" />
    </linearGradient>
    <linearGradient
       id="linearGradient2947">
      <stop
         style="stop-color:#5a5a5a;stop-opacity:1"
         offset="0"
         id="stop2949" />
      <stop
         style="stop-color:#404040;stop-opacity:1"
         offset="1"
         id="stop2951" />
    </linearGradient>
    <linearGradient
       inkscape:collect="always"
       id="linearGradient2939">
      <stop
         style="stop-color:#ffffff;stop-opacity:1;"
         offset="0"
         id="stop2941" />
      <stop
         style="stop-color:#ffffff;stop-opacity:0;"
         offset="1"
         id="stop2943" />
    </linearGradient>
    <linearGradient
       inkscape:collect="always"
       xlink:href="#linearGradient2939"
       id="linearGradient4104"
       gradientUnits="userSpaceOnUse"
       gradientTransform="matrix(0.210526,0,0,0.20753,18.27302,-1.437364)"
       x1="-36.921875"
       y1="9.6603756"
       x2="-39.676552"
       y2="64.862534" />
    <linearGradient
       inkscape:collect="always"
       xlink:href="#linearGradient2947"
       id="linearGradient4107"
       gradientUnits="userSpaceOnUse"
       gradientTransform="matrix(0.198088,0,0,0.199776,17.81381,-0.820391)"
       x1="-36.921875"
       y1="53.132072"
       x2="-25.876013"
       y2="85.908356" />
    <linearGradient
       inkscape:collect="always"
       xlink:href="#linearGradient6731"
       id="linearGradient6738"
       x1="37.404812"
       y1="1.7852055"
       x2="23.418995"
       y2="42.563885"
       gradientUnits="userSpaceOnUse"
       gradientTransform="matrix(0.31734,0,0,0.327237,3.377054,3.025328)" />
    <linearGradient
       inkscape:collect="always"
       xlink:href="#linearGradient8493"
       id="linearGradient6742"
       gradientUnits="userSpaceOnUse"
       gradientTransform="matrix(0.228596,0,0,0.213376,19.43765,-1.601502)"
       x1="-36.921875"
       y1="53.132072"
       x2="-25.876013"
       y2="85.908356" />
  </defs>
  <sodipodi:namedview
     id="base"
     pagecolor="#ffffff"
     bordercolor="#666666"
     borderopacity="1.0"
     inkscape:pageopacity="0.0"
     inkscape:pageshadow="2"
     inkscape:zoom="1"
     inkscape:cx="10.547064"
     inkscape:cy="10.752167"
     inkscape:document-units="px"
     inkscape:current-layer="layer1"
     inkscape:window-width="843"
     inkscape:window-height="556"
     inkscape:window-x="0"
     inkscape:window-y="25"
     showguides="true"
     inkscape:guide-bbox="true"
     width="22px"
     height="22px"
     inkscape:showpageshadow="false"
     showgrid="false"
     showborder="false" />
  <metadata
     id="metadata7">
    <rdf:RDF>
      <cc:Work
         rdf:about="">
        <dc:format>image/svg+xml</dc:format>
        <dc:type
           rdf:resource="http://purl.org/dc/dcmitype/StillImage" />
      </cc:Work>
    </rdf:RDF>
  </metadata>
  <g
     inkscape:label="Layer 1"
     inkscape:groupmode="layer"
     id="layer1">
    <path
       style="color:black;fill:url(#linearGradient6742);fill-opacity:1;fill-rule:evenodd;stroke:#222;stroke-width:1.00000024;stroke-linecap:round;stroke-linejoin:round;marker:none;marker-start:none;marker-mid:none;marker-end:none;stroke-miterlimit:4;stroke-dasharray:none;stroke-dashoffset:0;stroke-opacity:1;visibility:visible;display:inline;overflow:visible"
       d="M 5.7261019,3.5581667 C 5.1911055,3.5941551 4.6797257,3.7905644 4.2739135,4.1700851 C 3.8004667,4.6128597 3.5494968,5.2186622 3.5077985,5.8723301 C 3.4945968,6.0590928 3.4937911,6.2593715 3.5192331,6.4508714 C 3.5995923,7.12112 3.896681,7.8002159 4.3996937,8.3756323 L 6.720908,11.023569 L 4.3996937,13.671506 C 3.8966808,14.246923 3.5995924,14.937145 3.5192331,15.607393 C 3.4937911,15.798892 3.4945968,15.988046 3.5077985,16.174808 C 3.5494967,16.828477 3.8004664,17.434277 4.2739135,17.877053 C 5.6826681,19.043195 7.585648,18.414839 8.8248659,17.33189 L 10.608656,15.485009 L 12.232363,17.33189 C 13.677828,18.822662 16.500606,18.772686 17.640907,17.877053 C 18.62891,17.101042 18.777732,14.986745 17.503693,13.671506 L 14.930919,11.023569 L 17.503693,8.3756323 C 18.777732,7.0603951 18.840063,5.1821415 17.640907,4.1700851 C 15.984243,3.0553129 13.635501,3.3958868 12.232363,4.7152484 L 10.608656,6.5621294 L 8.8248659,4.7152484 C 8.0110656,3.8405689 6.8830932,3.5446993 5.7261019,3.5581667 z "
       id="path6740"
       sodipodi:nodetypes="csscccccsscccscccscccs" />
    <path
       style="color:black;fill:url(#linearGradient4107);fill-opacity:1;fill-rule:evenodd;stroke:none;stroke-width:1.00000024;stroke-linecap:round;stroke-linejoin:round;marker:none;marker-start:none;marker-mid:none;marker-end:none;stroke-miterlimit:4;stroke-dasharray:none;stroke-dashoffset:0;stroke-opacity:1;visibility:visible;display:inline;overflow:visible"
       d="M 6.1389483,4.0054468 C 5.6252322,4.039141 5.1358055,4.230714 4.7461355,4.5860447 C 3.707016,5.5335955 3.7597402,7.2877234 4.8637507,8.5191308 L 7.0922514,11.003843 L 4.8637507,13.48231 C 3.7597398,14.713721 3.7070153,16.467846 4.7461355,17.415399 C 5.785256,18.362947 7.5110485,18.134881 8.6150598,16.903471 L 10.496904,14.799583 L 12.38494,16.903471 C 13.488952,18.134881 15.214745,18.362947 16.253866,17.415399 C 17.292984,16.467846 17.24026,14.713721 16.13625,13.48231 L 13.907748,11.003843 L 16.13625,8.5191308 C 17.24026,7.2877234 17.292984,5.5335962 16.253866,4.5860447 C 15.214744,3.6384945 13.488952,3.8665621 12.38494,5.0979708 L 10.496904,7.2018601 L 8.6150598,5.0979708 C 7.9250535,4.3283407 6.9951415,3.9492893 6.1389483,4.0054468 z "
       id="rect2206" />
    <path
       style="color:black;fill:url(#linearGradient4104);fill-opacity:1;fill-rule:evenodd;stroke:none;stroke-width:2.99999905;stroke-linecap:round;stroke-linejoin:round;marker:none;marker-start:none;marker-mid:none;marker-end:none;stroke-miterlimit:4;stroke-dasharray:none;stroke-dashoffset:0;stroke-opacity:1;visibility:visible;display:inline;overflow:visible"
       d="M 6.1389479,4.0050443 C 5.6252323,4.0379783 5.1358053,4.2252296 4.7461351,4.5725452 C 3.7070155,5.49872 3.7597398,7.2132767 4.8637506,8.4169053 L 7.0922505,10.845565 C 9.1461796,8.5543473 11.853818,8.3395457 13.907749,10.845565 L 16.136249,8.4169053 C 17.240261,7.2132767 17.292984,5.4987207 16.253864,4.5725452 C 15.214745,3.6463696 13.761376,3.8430672 12.384939,5.2564978 L 10.496904,7.3129254 L 8.6150597,5.2564978 C 7.7241721,4.3416664 6.9951412,3.9501538 6.1389479,4.0050443 z "
       id="path2937"
       sodipodi:nodetypes="csccccscccc" />
    <path
       style="color:black;fill:none;fill-opacity:1;fill-rule:evenodd;stroke:url(#linearGradient6738);stroke-width:0.99999827;stroke-linecap:round;stroke-linejoin:round;marker:none;marker-start:none;marker-mid:none;marker-end:none;stroke-miterlimit:4;stroke-dasharray:none;stroke-dashoffset:0;stroke-opacity:1;visibility:visible;display:inline;overflow:visible"
       d="M 6.4718574,4.5029868 C 5.9953288,4.5344899 5.5515723,4.7258444 5.179869,5.045825 C 4.1693523,5.9157262 4.3828524,7.5148448 5.5726267,8.7231159 L 7.6398081,11.046229 L 5.5726267,13.363505 C 4.2166196,14.761801 4.2159698,16.154872 5.179869,17.040801 C 6.1437685,17.926722 7.7446326,17.450236 8.7687253,16.298914 L 10.514346,14.331855 L 12.265709,16.298914 C 13.2898,17.450236 14.890665,17.926722 15.854565,17.040801 C 16.818465,16.154872 16.54263,14.51483 15.518538,13.363505 L 13.451356,11.046229 L 15.518538,8.7231159 C 16.583913,7.5717942 16.907773,6.1876102 15.854565,5.045825 C 14.870939,3.9779711 13.346574,4.6363661 12.265709,5.8169591 L 10.514346,7.7840182 L 8.7687253,5.8169591 C 8.1286682,5.0973832 7.2660716,4.4504822 6.4718574,4.5029868 z "
       id="path4983"
       sodipodi:nodetypes="cscccscccscccscccc" />
  </g>
</svg>
