<?xml version="1.0" encoding="UTF-8" standalone="no"?>
<!-- Created with Inkscape (http://www.inkscape.org/) -->
<svg
   xmlns:dc="http://purl.org/dc/elements/1.1/"
   xmlns:cc="http://web.resource.org/cc/"
   xmlns:rdf="http://www.w3.org/1999/02/22-rdf-syntax-ns#"
   xmlns:svg="http://www.w3.org/2000/svg"
   xmlns="http://www.w3.org/2000/svg"
   xmlns:xlink="http://www.w3.org/1999/xlink"
   xmlns:sodipodi="http://inkscape.sourceforge.net/DTD/sodipodi-0.dtd"
   xmlns:inkscape="http://www.inkscape.org/namespaces/inkscape"
   version="1.0"
   x="00"
   y="00"
   width="22"
   height="22"
   id="Etiquette"
   sodipodi:version="0.32"
   inkscape:version="0.43+devel"
   sodipodi:docname="edit-cut.svg"
   sodipodi:docbase="/home/silvestre/Desktop/Neu/22x22/actions">
  <metadata
     id="About">
    <rdf:RDF>
      <cc:Work
         rdf:about="">
        <dc:format>image/svg+xml</dc:format>
        <dc:type
           rdf:resource="http://purl.org/dc/dcmitype/StillImage" />
        <dc:creator>
          <cc:Agent>
            <dc:title>Andrew Fitzsimon</dc:title>
          </cc:Agent>
        </dc:creator>
        <dc:date>2004-12-25</dc:date>
        <dc:title>Etiquette Icon</dc:title>
        <cc:license
           rdf:resource="http://creativecommons.org/licenses/by/2.0/" />
        <dc:rights>
          <cc:Agent>
            <dc:title>Andrew Fitzsimon</dc:title>
          </cc:Agent>
        </dc:rights>
      </cc:Work>
      <cc:License
         rdf:about="http://creativecommons.org/licenses/by/2.0/">
        <cc:permits
           rdf:resource="http://web.resource.org/cc/Reproduction" />
        <cc:permits
           rdf:resource="http://web.resource.org/cc/Distribution" />
        <cc:requires
           rdf:resource="http://web.resource.org/cc/Notice" />
        <cc:requires
           rdf:resource="http://web.resource.org/cc/Attribution" />
        <cc:prohibits
           rdf:resource="http://web.resource.org/cc/CommercialUse" />
        <cc:permits
           rdf:resource="http://web.resource.org/cc/DerivativeWorks" />
        <cc:requires
           rdf:resource="http://web.resource.org/cc/ShareAlike" />
      </cc:License>
    </rdf:RDF>
  </metadata>
  <sodipodi:namedview
     id="base"
     pagecolor="#f8f8f8"
     bordercolor="#666666"
     borderopacity="1.0"
     inkscape:pageopacity="0.0000000"
     inkscape:pageshadow="0"
     inkscape:zoom="1"
     inkscape:cx="11"
     inkscape:cy="11"
     inkscape:window-width="823"
     inkscape:window-height="536"
     inkscape:window-x="142"
     inkscape:window-y="124"
     inkscape:current-layer="Etiquette"
     width="22px"
     height="22px"
     grid_units="px"
     inkscape:showpageshadow="false"
     showgrid="false"
     showborder="false" />
  <defs
     id="Gradients">
    <linearGradient
       id="linearGradient3658">
      <stop
         style="stop-color:#000000;stop-opacity:0.56774193;"
         offset="0.0000000"
         id="stop3659" />
      <stop
         style="stop-color:#000000;stop-opacity:0.0000000;"
         offset="1.0000000"
         id="stop3660" />
    </linearGradient>
    <linearGradient
       inkscape:collect="always"
       id="linearGradient1851">
      <stop
         style="stop-color:#000000;stop-opacity:0.20000000;"
         offset="0.0000000"
         id="stop1852" />
      <stop
         style="stop-color:#000000;stop-opacity:0.064516127;"
         offset="0.50000000"
         id="stop1854" />
      <stop
         style="stop-color:#adadad;stop-opacity:0.0000000;"
         offset="1.0000000"
         id="stop1853" />
    </linearGradient>
    <linearGradient
       id="linearGradient3970">
      <stop
         style="stop-color:#ffffff;stop-opacity:1.0000000;"
         offset="0.0000000"
         id="stop3971" />
      <stop
         style="stop-color:#ffffff;stop-opacity:0.0000000;"
         offset="1.0000000"
         id="stop3972" />
    </linearGradient>
    <radialGradient
       inkscape:collect="always"
       xlink:href="#linearGradient1851"
       id="radialGradient1191"
       gradientUnits="userSpaceOnUse"
       cx="-289.0914"
       cy="598.36652"
       fx="-285.65439"
       fy="552.23834"
       r="125.20509" />
    <linearGradient
       inkscape:collect="always"
       xlink:href="#linearGradient3970"
       id="linearGradient1192"
       gradientUnits="userSpaceOnUse"
       gradientTransform="matrix(0.154395,9.444614e-2,-0.102497,0.209365,4.628226,-8.203542)"
       x1="62.58136"
       y1="71.153831"
       x2="73.967102"
       y2="61.201187" />
    <linearGradient
       inkscape:collect="always"
       xlink:href="#linearGradient3658"
       id="linearGradient1197"
       gradientUnits="userSpaceOnUse"
       gradientTransform="matrix(8.842e-2,4.853694e-2,-6.805239e-2,0.124741,72.72089,-57.49624)"
       x1="-158.57335"
       y1="628.41992"
       x2="-179.82236"
       y2="609.66907" />
  </defs>
  <path
     sodipodi:type="arc"
     style="fill:url(#radialGradient1191);fill-opacity:0.75;fill-rule:evenodd;stroke:none;stroke-width:1pt;stroke-linecap:butt;stroke-linejoin:miter;stroke-opacity:1"
     id="path3995"
     sodipodi:cx="-289.0914"
     sodipodi:cy="598.36652"
     sodipodi:rx="125.20509"
     sodipodi:ry="125.20509"
     d="M -163.88631 598.36652 A 125.20509 125.20509 0 1 1  -414.29649,598.36652 A 125.20509 125.20509 0 1 1  -163.88631 598.36652 z"
     transform="matrix(-6.542867e-2,5.520745e-4,9.501488e-5,1.274952e-2,-7.776592,12.93289)" />
  <path
     style="fill:#d8d8d8;fill-opacity:1;fill-rule:evenodd;stroke:#848484;stroke-width:1.00000048;stroke-linecap:butt;stroke-linejoin:miter;stroke-miterlimit:4;stroke-dasharray:none;stroke-opacity:1"
     d="M 19.159584,7.4999997 C 18.660856,8.8551178 16.571986,11.62386 13.768616,12.4392 L 8.7155735,14.368727 C 7.5161765,14.815936 7.3144585,13.282887 5.1510663,16.443212 C 4.3119271,17.862365 2.4079693,17.716544 1.4237667,16.80493 C 0.29661751,15.760911 0.44608151,13.964424 1.1574411,13.123681 C 2.0563871,12.061238 3.6224757,11.873348 4.4265667,12.593122 C 5.2592828,13.33941 5.2296473,14.459054 5.6451095,14.22952 L 19.159584,7.4999997 z M 4.2174586,13.300113 C 3.5538116,12.685412 2.5381743,12.75008 1.9506649,13.444444 C 1.3631522,14.138811 1.4249605,15.469313 2.0886071,16.084013 C 2.7522562,16.698715 3.7678954,16.634051 4.3554063,15.939686 C 4.9429158,15.24532 4.8811084,13.914817 4.2174586,13.300113 z "
     id="path3996"
     sodipodi:nodetypes="cccccccccccccc" />
  <path
     style="fill:url(#linearGradient1197)"
     d="M 7.5489165,12.779887 L 19.096375,7.4283678 C 19.096375,7.4283678 17.057976,10.554032 14.119839,11.481266 C 11.181705,12.408499 8.7851265,13.633014 8.4204475,13.740058 L 7.5489165,12.779887 z "
     id="path3997"
     sodipodi:nodetypes="ccccc" />
  <path
     style="fill:#dc0000;fill-opacity:1;fill-rule:evenodd;stroke:#9c0000;stroke-width:1.00000095;stroke-linecap:butt;stroke-linejoin:miter;stroke-miterlimit:4;stroke-dasharray:none;stroke-opacity:1"
     d="M 8.5636135,14.745239 C 7.3240345,15.247998 7.2514305,13.759056 5.2030587,16.31195 C 4.3358069,17.907388 2.3680617,17.743453 1.3508859,16.718602 C 0.18597451,15.544894 0.34044591,13.525251 1.0756378,12.580075 C 2.0047007,11.385654 3.6232571,11.174426 4.4542871,11.98361 C 5.3149011,12.822599 5.284273,14.081323 5.7136539,13.823277 L 8.3354855,12.490725 L 8.5636135,14.745239 z M 4.2381735,13.079552 C 3.5522924,12.388492 2.5026289,12.461195 1.8954365,13.24181 C 1.2882407,14.02243 1.3521197,15.217076 2.0380001,15.908133 C 2.723883,16.599193 3.7735488,16.526496 4.3807428,15.745877 C 4.987935,14.965258 4.9240569,13.770612 4.2381735,13.079552 z "
     id="path3998"
     sodipodi:nodetypes="ccccccccccccc" />
  <path
     style="fill:#d5d5d5;fill-opacity:1;fill-rule:evenodd;stroke:#848484;stroke-width:1.00000024;stroke-linecap:butt;stroke-linejoin:miter;stroke-miterlimit:4;stroke-dasharray:none;stroke-opacity:1"
     d="M 7.9499158,0.77173073 C 7.0856838,1.9410215 5.9262913,5.2723131 6.8251245,8.1804618 L 8.0570525,14.057924 C 8.3583525,15.355147 9.769161,14.319072 8.3205916,17.92696 C 7.5950966,19.430544 8.797639,21.028767 10.127008,21.404409 C 11.64946,21.834606 13.085201,20.735122 13.393579,19.65569 C 13.783272,18.291609 13.054664,16.811156 11.989742,16.490782 C 10.886155,16.159485 9.9553438,16.788791 9.9141333,16.299238 L 7.9499158,0.77173073 z M 11.283198,17.200139 C 12.179593,17.453433 12.700502,18.382729 12.445817,19.274226 C 12.19113,20.165731 11.25673,20.683796 10.360337,20.430501 C 9.4639403,20.177206 8.797192,19.219121 9.0518799,18.327623 C 9.3065668,17.436121 10.386802,16.946844 11.283198,17.200139 z "
     id="path4000"
     sodipodi:nodetypes="cccccccccccccc" />
  <path
     style="fill:#dc0000;fill-opacity:1;fill-rule:evenodd;stroke:#9c0000;stroke-width:1.0000006;stroke-linecap:butt;stroke-linejoin:miter;stroke-miterlimit:4;stroke-dasharray:none;stroke-opacity:1"
     d="M 7.5000025,13.914493 C 7.8321397,15.236715 9.3873381,14.180674 7.7905126,17.858093 C 6.9907672,19.390655 8.3163846,21.019678 9.78181,21.402559 C 11.460078,21.841047 13.042762,20.720374 13.3827,19.620139 C 13.812279,18.22977 13.009099,16.720785 11.835186,16.394238 C 10.618651,16.056555 10.092576,16.697989 10.047148,16.199003 L 9.6582202,13.554343 L 7.5000025,13.914493 z M 11.05633,17.117264 C 12.044468,17.37544 12.618691,18.322645 12.337941,19.231324 C 12.057186,20.140009 11.027155,20.668058 10.039019,20.409882 C 9.0508801,20.151706 8.4766518,19.204501 8.757406,18.295821 C 9.038159,17.38714 10.068191,16.859089 11.05633,17.117264 z "
     id="path4001"
     sodipodi:nodetypes="ccccccccccccc" />
  <path
     style="opacity:0.69230772;fill:url(#linearGradient1192);fill-opacity:1;fill-rule:evenodd;stroke:none;stroke-width:0.625;stroke-linecap:butt;stroke-linejoin:miter;stroke-miterlimit:4;stroke-opacity:0.0566037"
     d="M 7.7538245,2.0142978 C 7.4402665,3.2957628 7.0381565,4.5825598 7.1068725,5.9306148 C 7.2595625,7.9839038 7.7597715,9.9827488 8.1313385,11.997839 C 8.2757785,12.647878 8.2622205,12.854499 8.4422015,13.486118 L 9.4060935,13.389025 C 9.3287195,12.674746 9.3539445,12.433944 9.2652375,11.722525 C 8.8732465,8.2486528 8.4812535,4.7747798 8.0892625,1.3009068 C 7.9774495,1.5387038 7.8656375,1.7765018 7.7538245,2.0142978 z "
     id="path195"
     sodipodi:nodetypes="cccccccc" />
</svg>
