<?xml version="1.0" encoding="UTF-8" standalone="no"?>
<!-- Created with Inkscape (http://www.inkscape.org/) -->
<svg
   xmlns:dc="http://purl.org/dc/elements/1.1/"
   xmlns:cc="http://web.resource.org/cc/"
   xmlns:rdf="http://www.w3.org/1999/02/22-rdf-syntax-ns#"
   xmlns:svg="http://www.w3.org/2000/svg"
   xmlns="http://www.w3.org/2000/svg"
   xmlns:xlink="http://www.w3.org/1999/xlink"
   xmlns:sodipodi="http://inkscape.sourceforge.net/DTD/sodipodi-0.dtd"
   xmlns:inkscape="http://www.inkscape.org/namespaces/inkscape"
   width="48"
   height="48"
   id="svg1332"
   sodipodi:version="0.32"
   inkscape:version="0.43+devel"
   version="1.0"
   sodipodi:docbase="/home/silvestre/Desktop/Neu/scalable/mimetypes"
   sodipodi:docname="application-certificate.svg"
   inkscape:export-filename="/home/silvestre/Desktop/Gion/PNGs/application-certificate.png"
   inkscape:export-xdpi="90"
   inkscape:export-ydpi="90">
  <defs
     id="defs1334">
    <linearGradient
       inkscape:collect="always"
       id="linearGradient7471">
      <stop
         style="stop-color:white;stop-opacity:1;"
         offset="0"
         id="stop7473" />
      <stop
         style="stop-color:white;stop-opacity:0;"
         offset="1"
         id="stop7475" />
    </linearGradient>
    <linearGradient
       inkscape:collect="always"
       id="linearGradient4839">
      <stop
         style="stop-color:white;stop-opacity:1;"
         offset="0"
         id="stop4841" />
      <stop
         style="stop-color:white;stop-opacity:0;"
         offset="1"
         id="stop4843" />
    </linearGradient>
    <linearGradient
       id="linearGradient2443">
      <stop
         style="stop-color:#000000;stop-opacity:0.32323232;"
         offset="0"
         id="stop2445" />
      <stop
         id="stop2459"
         offset="0.125"
         style="stop-color:#ffffff;stop-opacity:0.03921569;" />
      <stop
         id="stop2455"
         offset="0"
         style="stop-color:#ffffff;stop-opacity:0.08235294;" />
      <stop
         style="stop-color:#ffffff;stop-opacity:0.1254902;"
         offset="0"
         id="stop2457" />
      <stop
         id="stop2453"
         offset="0.25"
         style="stop-color:#ffffff;stop-opacity:0.17171717;" />
      <stop
         id="stop2451"
         offset="0.5"
         style="stop-color:#ffffff;stop-opacity:0.76767677;" />
      <stop
         style="stop-color:#ffffff;stop-opacity:0;"
         offset="1"
         id="stop2447" />
    </linearGradient>
    <linearGradient
       inkscape:collect="always"
       id="linearGradient2425">
      <stop
         style="stop-color:#ffffff;stop-opacity:1;"
         offset="0"
         id="stop2427" />
      <stop
         style="stop-color:#ffffff;stop-opacity:0;"
         offset="1"
         id="stop2429" />
    </linearGradient>
    <linearGradient
       inkscape:collect="always"
       id="linearGradient2266">
      <stop
         style="stop-color:#ffffff;stop-opacity:0.56652361"
         offset="0"
         id="stop2268" />
      <stop
         style="stop-color:#ffffff;stop-opacity:0;"
         offset="1"
         id="stop2270" />
    </linearGradient>
    <linearGradient
       id="linearGradient2254">
      <stop
         style="stop-color:#000000;stop-opacity:0"
         offset="0"
         id="stop2256" />
      <stop
         id="stop2262"
         offset="0.72727275"
         style="stop-color:#000000;stop-opacity:0;" />
      <stop
         style="stop-color:#000000;stop-opacity:0.42918456"
         offset="1"
         id="stop2258" />
    </linearGradient>
    <linearGradient
       inkscape:collect="always"
       id="linearGradient2244">
      <stop
         style="stop-color:#ffffff;stop-opacity:0.24034335"
         offset="0"
         id="stop2246" />
      <stop
         style="stop-color:#ffffff;stop-opacity:0;"
         offset="1"
         id="stop2248" />
    </linearGradient>
    <linearGradient
       inkscape:collect="always"
       id="linearGradient2228">
      <stop
         style="stop-color:#ffffff;stop-opacity:0.65665233"
         offset="0"
         id="stop2230" />
      <stop
         style="stop-color:#000000;stop-opacity:0.27896994"
         offset="1"
         id="stop2232" />
    </linearGradient>
    <linearGradient
       inkscape:collect="always"
       id="linearGradient2218">
      <stop
         style="stop-color:#ffffff;stop-opacity:0.70588237"
         offset="0"
         id="stop2220" />
      <stop
         style="stop-color:#ffffff;stop-opacity:0.26274511"
         offset="1"
         id="stop2222" />
    </linearGradient>
    <linearGradient
       inkscape:collect="always"
       xlink:href="#linearGradient2218"
       id="linearGradient2224"
       x1="16.5"
       y1="4.875"
       x2="22.466305"
       y2="26.692993"
       gradientUnits="userSpaceOnUse"
       gradientTransform="translate(3.992997,0)" />
    <linearGradient
       inkscape:collect="always"
       xlink:href="#linearGradient2228"
       id="linearGradient2234"
       x1="13.028255"
       y1="11.267202"
       x2="20.184097"
       y2="18.396837"
       gradientUnits="userSpaceOnUse" />
    <linearGradient
       inkscape:collect="always"
       xlink:href="#linearGradient2228"
       id="linearGradient2240"
       gradientUnits="userSpaceOnUse"
       x1="25.050171"
       y1="18.396837"
       x2="14.236766"
       y2="12.155531" />
    <radialGradient
       inkscape:collect="always"
       xlink:href="#linearGradient2244"
       id="radialGradient2250"
       cx="21.3125"
       cy="21.875"
       fx="21.3125"
       fy="21.875"
       r="15.5"
       gradientUnits="userSpaceOnUse"
       gradientTransform="translate(3.992997,0)" />
    <radialGradient
       inkscape:collect="always"
       xlink:href="#linearGradient2254"
       id="radialGradient2260"
       cx="18.786041"
       cy="18.949614"
       fx="18.786041"
       fy="18.949614"
       r="15.5"
       gradientUnits="userSpaceOnUse"
       gradientTransform="matrix(1.016432,2.292073e-16,-2.292073e-16,1.016432,5.398267,1.364008)" />
    <radialGradient
       inkscape:collect="always"
       xlink:href="#linearGradient2266"
       id="radialGradient2272"
       cx="16.195312"
       cy="16.023438"
       fx="16.195312"
       fy="16.023438"
       r="6.125"
       gradientUnits="userSpaceOnUse" />
    <linearGradient
       inkscape:collect="always"
       xlink:href="#linearGradient2443"
       id="linearGradient2467"
       gradientUnits="userSpaceOnUse"
       gradientTransform="matrix(0.922882,0,0,1,6.13813,0)"
       x1="31.625"
       y1="31.999504"
       x2="31.625"
       y2="39.875809" />
    <linearGradient
       inkscape:collect="always"
       xlink:href="#linearGradient2425"
       id="linearGradient2471"
       gradientUnits="userSpaceOnUse"
       gradientTransform="matrix(0.960741,0,0,1,4.815004,0)"
       x1="30.238298"
       y1="43.880363"
       x2="25.946463"
       y2="27.863014" />
    <linearGradient
       inkscape:collect="always"
       xlink:href="#linearGradient4839"
       id="linearGradient4845"
       x1="17.274366"
       y1="12.24566"
       x2="17.274366"
       y2="24.5"
       gradientUnits="userSpaceOnUse" />
    <linearGradient
       inkscape:collect="always"
       xlink:href="#linearGradient7471"
       id="linearGradient7477"
       x1="19.852356"
       y1="-1.6420798"
       x2="19.852356"
       y2="17.844408"
       gradientUnits="userSpaceOnUse" />
  </defs>
  <sodipodi:namedview
     id="base"
     pagecolor="#ffffff"
     bordercolor="#666666"
     borderopacity="1.0"
     inkscape:pageopacity="0.0"
     inkscape:pageshadow="2"
     inkscape:zoom="1"
     inkscape:cx="24"
     inkscape:cy="24"
     inkscape:document-units="px"
     inkscape:current-layer="layer2"
     showgrid="false"
     inkscape:grid-bbox="true"
     inkscape:window-width="823"
     inkscape:window-height="536"
     inkscape:window-x="125"
     inkscape:window-y="158"
     inkscape:showpageshadow="false"
     showborder="false" />
  <metadata
     id="metadata1337">
    <rdf:RDF>
      <cc:Work
         rdf:about="">
        <dc:format>image/svg+xml</dc:format>
        <dc:type
           rdf:resource="http://purl.org/dc/dcmitype/StillImage" />
        <dc:title>Certificate</dc:title>
        <dc:creator>
          <cc:Agent>
            <dc:title>Silvestre Herrera</dc:title>
          </cc:Agent>
        </dc:creator>
        <cc:license
           rdf:resource="http://creativecommons.org/licenses/GPL/2.0/" />
      </cc:Work>
      <cc:License
         rdf:about="http://creativecommons.org/licenses/GPL/2.0/">
        <cc:permits
           rdf:resource="http://web.resource.org/cc/Reproduction" />
        <cc:permits
           rdf:resource="http://web.resource.org/cc/Distribution" />
        <cc:requires
           rdf:resource="http://web.resource.org/cc/Notice" />
        <cc:permits
           rdf:resource="http://web.resource.org/cc/DerivativeWorks" />
        <cc:requires
           rdf:resource="http://web.resource.org/cc/ShareAlike" />
        <cc:requires
           rdf:resource="http://web.resource.org/cc/SourceCode" />
      </cc:License>
    </rdf:RDF>
  </metadata>
  <g
     inkscape:label="Capa 1"
     inkscape:groupmode="layer"
     id="layer1">
    <path
       id="path5112"
       d="M 26.308003,18.491575 C 26.308003,18.491575 20.485978,26.529655 20.485978,30.213775 C 20.485978,33.897895 27.2037,31.888375 29.890788,34.567735 C 32.577877,37.247094 23.620914,44.168774 23.620914,44.168774 L 32.577877,41.712694 L 36.160662,45.508454 C 36.160662,40.931214 41.422877,37.247094 38.735789,34.456095 C 35.936738,31.665095 27.987433,32.000014 27.539585,28.315895 C 27.091737,24.631775 26.419965,18.603215 26.419965,18.603215 L 26.308003,18.491575 z "
       style="fill:#2479b8;fill-opacity:1;fill-rule:nonzero;stroke:#14618b;stroke-width:1.00000012;stroke-miterlimit:6.5999999;stroke-opacity:1" />
  </g>
  <g
     inkscape:groupmode="layer"
     id="layer3"
     inkscape:label="light2"
     sodipodi:insensitive="true">
    <path
       sodipodi:nodetypes="cscccsss"
       style="fill:none;fill-opacity:1;fill-rule:nonzero;stroke:url(#linearGradient2471);stroke-width:0.72112525;stroke-miterlimit:6.5999999;stroke-opacity:1"
       d="M 23.632783,31.554488 C 28.006075,32.002872 30.770139,32.790013 31.132923,35.543595 C 31.450077,37.950834 27.066931,42.276554 27.066931,42.276554 L 32.681392,40.651808 L 35.411212,43.612758 C 36.0481,39.901818 39.604662,37.390754 37.984947,35.108154 C 35.95328,32.245006 29.370898,32.864687 29.056207,30.162402 C 28.741517,27.460116 21.049334,31.287017 23.632783,31.554488 z "
       id="path6680" />
    <path
       id="path2433"
       d="M 27.553913,19 C 27.553913,19 21.3125,26.735537 21.3125,30.280992 C 21.3125,32.951447 28.292977,31.892562 30.510168,34.471075 C 32.727357,37.049588 25.336723,43.710744 25.336723,43.710744 L 32.727357,41.347108 L 35.683612,45 C 35.683612,40.595042 40.371692,37.362088 38.154502,34.676137 C 35.844928,31.990186 28.939657,32 28.570126,28.454546 C 28.200593,24.909092 27.646296,19.107438 27.646296,19.107438 L 27.553913,19 z "
       style="fill:url(#linearGradient2467);fill-opacity:1;fill-rule:nonzero;stroke:none;stroke-width:1;stroke-miterlimit:6.5999999;stroke-opacity:1"
       sodipodi:nodetypes="cssccccscc" />
  </g>
  <g
     inkscape:groupmode="layer"
     id="layer4"
     inkscape:label="lacre">
    <path
       style="opacity:1;fill:#c62828;fill-opacity:1;stroke:#962d2d;stroke-width:0.99999988;stroke-linecap:round;stroke-linejoin:round;stroke-miterlimit:4;stroke-dashoffset:0;stroke-opacity:1"
       d="M 33.334412,28.178404 C 30.998077,30.607892 28.623251,28.807237 25.263877,29.502326 C 21.904504,30.197414 20.33619,34.185596 17.061725,33.401649 C 13.787261,32.617703 15.492266,27.78943 13.253864,25.230284 C 11.01546,22.671137 6.232905,24.007874 5.565399,20.658909 C 4.897894,17.309944 9.040835,17.047513 9.995414,13.749795 C 10.949992,10.452077 8.748015,8.9666472 11.121569,6.4366272 C 13.495122,3.9066074 15.326044,5.8803075 18.629888,5.0862832 C 21.933732,4.2922587 22.60386,0.67289769 25.855983,1.6687423 C 29.108108,2.6645868 27.970447,7.0547151 30.224371,9.5499002 C 32.478296,12.045085 36.323799,9.8214077 37.300394,13.141606 C 38.27699,16.461804 34.400608,17.826696 33.599937,21.056975 C 32.799266,24.287255 35.670747,25.748917 33.334412,28.178404 z "
       id="path1340" />
  </g>
  <g
     inkscape:groupmode="layer"
     id="layer2"
     inkscape:label="light">
    <path
       sodipodi:type="arc"
       style="opacity:0.49783547;fill:none;fill-opacity:1;stroke:url(#linearGradient2234);stroke-width:0.85808754;stroke-linecap:round;stroke-linejoin:round;stroke-miterlimit:4;stroke-dasharray:none;stroke-dashoffset:0;stroke-opacity:1"
       id="path2226"
       sodipodi:cx="18.75"
       sodipodi:cy="17"
       sodipodi:rx="8.125"
       sodipodi:ry="8.125"
       d="M 26.875 17 A 8.125 8.125 0 1 1  10.625,17 A 8.125 8.125 0 1 1  26.875 17 z"
       transform="matrix(1.163246,0,0,1.167522,0.212931,-1.842207)" />
    <path
       sodipodi:type="arc"
       style="opacity:0.49783547;fill:none;fill-opacity:1;stroke:url(#linearGradient2240);stroke-width:1.09414506;stroke-linecap:round;stroke-linejoin:round;stroke-miterlimit:4;stroke-dasharray:none;stroke-dashoffset:0;stroke-opacity:1"
       id="path2236"
       sodipodi:cx="18.75"
       sodipodi:cy="17"
       sodipodi:rx="8.125"
       sodipodi:ry="8.125"
       d="M 26.875 17 A 8.125 8.125 0 1 1  10.625,17 A 8.125 8.125 0 1 1  26.875 17 z"
       transform="matrix(0.913822,0,0,0.914088,4.861463,2.458084)" />
    <path
       style="opacity:1;fill:url(#radialGradient2250);fill-opacity:1;stroke:none;stroke-width:0.99999988;stroke-linecap:round;stroke-linejoin:round;stroke-miterlimit:4;stroke-dashoffset:0;stroke-opacity:1"
       d="M 32.994687,27.842604 C 30.728819,30.195692 28.425619,28.451661 25.167568,29.124892 C 21.909516,29.798122 20.388504,33.66089 17.212801,32.901595 C 14.037097,32.142301 15.690678,27.465861 13.519788,24.987192 C 11.348897,22.508521 6.7105886,23.803222 6.0632156,20.55957 C 5.4158436,17.31592 9.4338286,17.061741 10.359616,13.867725 C 11.285404,10.67371 9.1498406,9.2349909 11.451805,6.7845315 C 13.753769,4.3340721 15.529469,6.2457061 18.733666,5.4766511 C 21.937863,4.7075961 22.587779,1.2020517 25.741815,2.1665803 C 28.895852,3.1311089 27.792504,7.3831827 29.978449,9.7999026 C 32.164393,12.216622 35.893911,10.062873 36.841051,13.278661 C 37.788192,16.49445 34.028726,17.816422 33.252204,20.94512 C 32.475682,24.073818 35.260556,25.489515 32.994687,27.842604 z "
       id="path2242" />
    <path
       style="opacity:0.53246753;fill:url(#radialGradient2260);fill-opacity:1;stroke:none;stroke-width:0.99999988;stroke-linecap:round;stroke-linejoin:round;stroke-miterlimit:4;stroke-dashoffset:0;stroke-opacity:1"
       d="M 32.994687,27.842604 C 30.728819,30.195692 28.425619,28.451661 25.167568,29.124892 C 21.909516,29.798122 20.388504,33.66089 17.212801,32.901595 C 14.037097,32.142301 15.690678,27.465861 13.519788,24.987192 C 11.348897,22.508521 6.7105886,23.803222 6.0632156,20.55957 C 5.4158436,17.31592 9.4338286,17.061741 10.359616,13.867725 C 11.285404,10.67371 9.1498406,9.2349909 11.451805,6.7845315 C 13.753769,4.3340721 15.529469,6.2457061 18.733666,5.4766511 C 21.937863,4.7075961 22.587779,1.2020517 25.741815,2.1665803 C 28.895852,3.1311089 27.792504,7.3831827 29.978449,9.7999026 C 32.164393,12.216622 35.893911,10.062873 36.841051,13.278661 C 37.788192,16.49445 34.028726,17.816422 33.252204,20.94512 C 32.475682,24.073818 35.260556,25.489515 32.994687,27.842604 z "
       id="path2252" />
    <path
       style="opacity:1;fill:none;fill-opacity:1;stroke:url(#linearGradient2224);stroke-width:1.00000036;stroke-linecap:round;stroke-linejoin:round;stroke-miterlimit:4;stroke-dashoffset:0;stroke-opacity:1"
       d="M 32.648157,27.517062 C 30.69092,29.474299 28.157154,27.888648 24.999334,28.541182 C 21.841515,29.193716 19.714927,33.053732 17.351791,32.420532 C 15.115232,31.821248 16.063995,26.870652 13.959892,24.468182 C 11.855787,22.06571 7.2375436,23.041723 6.5452164,20.457923 C 5.878795,17.970804 10.030885,17.067624 10.928191,13.971797 C 11.825497,10.875971 9.9010263,9.1608571 11.924279,7.1376036 C 13.82119,5.2406931 15.720247,6.7403427 18.825869,5.9949298 C 21.931489,5.2495169 22.75793,1.8639018 25.618415,2.6303665 C 28.324568,3.3554781 27.481017,7.9678511 29.59971,10.310277 C 31.718406,12.652703 35.760796,11.104161 36.37619,13.400843 C 37.110607,16.141726 33.431634,17.767854 32.679,20.800369 C 31.926368,23.832887 34.386647,25.778572 32.648157,27.517062 z "
       id="path2216"
       sodipodi:nodetypes="csssssssssssc" />
    <path
       sodipodi:type="arc"
       style="opacity:0.53246753;fill:url(#radialGradient2272);fill-opacity:1;stroke:none;stroke-width:1;stroke-linecap:round;stroke-linejoin:round;stroke-miterlimit:4;stroke-dasharray:none;stroke-dashoffset:0;stroke-opacity:0.27896992"
       id="path2264"
       sodipodi:cx="18"
       sodipodi:cy="18.375"
       sodipodi:rx="6.125"
       sodipodi:ry="6.125"
       d="M 24.125 18.375 A 6.125 6.125 0 1 1  11.875,18.375 A 6.125 6.125 0 1 1  24.125 18.375 z"
       transform="matrix(1.142857,0,0,1.142857,1.421594,-2.999993)" />
    <path
       sodipodi:type="arc"
       style="opacity:0.68200837;fill:url(#linearGradient4845);fill-opacity:1.0;stroke:none;stroke-width:1;stroke-linecap:round;stroke-linejoin:round;stroke-miterlimit:4;stroke-dasharray:none;stroke-dashoffset:0;stroke-opacity:0.27896992"
       id="path3964"
       sodipodi:cx="18"
       sodipodi:cy="18.375"
       sodipodi:rx="6.125"
       sodipodi:ry="6.125"
       d="M 24.125 18.375 A 6.125 6.125 0 1 1  11.875,18.375 A 6.125 6.125 0 1 1  24.125 18.375 z"
       transform="matrix(0.978452,0,0,0.734693,4.38088,2.00001)" />
    <path
       style="opacity:1;fill:url(#linearGradient7477);fill-opacity:1.0;stroke:none;stroke-width:1.00000036;stroke-linecap:round;stroke-linejoin:round;stroke-miterlimit:4;stroke-dashoffset:0;stroke-opacity:1"
       d="M 24.75 2 C 22.562446 2.1497111 21.558051 4.919148 18.75 5.59375 C 15.540796 6.3647235 13.585179 4.8192933 11.625 6.78125 C 9.534266 8.873882 11.520983 10.641766 10.59375 13.84375 C 10.063527 15.674749 8.4511128 16.765501 7.28125 17.84375 C 10.881275 15.974316 15.340161 14.656893 20.25 14.25 C 26.168261 13.759536 31.659892 14.682614 35.90625 16.53125 C 36.681874 15.516488 37.237461 14.487217 36.90625 13.25 C 36.27033 10.874563 32.09561 12.485249 29.90625 10.0625 C 27.716892 7.639751 28.57766 2.874976 25.78125 2.125 C 25.411764 2.0259066 25.062508 1.9786127 24.75 2 z "
       id="path5720" />
  </g>
</svg>
