<?xml version="1.0" encoding="UTF-8" standalone="no"?>
<!-- Created with Inkscape (http://www.inkscape.org/) -->
<svg
   xmlns:dc="http://purl.org/dc/elements/1.1/"
   xmlns:cc="http://web.resource.org/cc/"
   xmlns:rdf="http://www.w3.org/1999/02/22-rdf-syntax-ns#"
   xmlns:svg="http://www.w3.org/2000/svg"
   xmlns="http://www.w3.org/2000/svg"
   xmlns:xlink="http://www.w3.org/1999/xlink"
   xmlns:sodipodi="http://inkscape.sourceforge.net/DTD/sodipodi-0.dtd"
   xmlns:inkscape="http://www.inkscape.org/namespaces/inkscape"
   width="48"
   height="48"
   id="svg2"
   sodipodi:version="0.32"
   inkscape:version="0.43+devel"
   sodipodi:docbase="/home/silvestre/Desktop/Neu/scalable/mimetypes"
   sodipodi:docname="audio-x-generic.svg"
   version="1.0">
  <defs
     id="defs4">
    <linearGradient
       inkscape:collect="always"
       id="linearGradient5320">
      <stop
         style="stop-color:white;stop-opacity:1;"
         offset="0"
         id="stop5322" />
      <stop
         style="stop-color:white;stop-opacity:0;"
         offset="1"
         id="stop5324" />
    </linearGradient>
    <linearGradient
       inkscape:collect="always"
       id="linearGradient5306">
      <stop
         style="stop-color:white;stop-opacity:1;"
         offset="0"
         id="stop5308" />
      <stop
         style="stop-color:white;stop-opacity:0;"
         offset="1"
         id="stop5310" />
    </linearGradient>
    <linearGradient
       inkscape:collect="always"
       id="linearGradient7998">
      <stop
         style="stop-color:white;stop-opacity:0.90128756"
         offset="0"
         id="stop8000" />
      <stop
         style="stop-color:white;stop-opacity:0;"
         offset="1"
         id="stop8002" />
    </linearGradient>
    <linearGradient
       id="linearGradient6244">
      <stop
         style="stop-color:#8e8e8e;stop-opacity:1"
         offset="0.0000000"
         id="stop6246" />
      <stop
         style="stop-color:#353535;stop-opacity:1.0000000;"
         offset="1.0000000"
         id="stop6248" />
    </linearGradient>
    <linearGradient
       id="linearGradient6238">
      <stop
         style="stop-color:#787878;stop-opacity:1"
         offset="0.0000000"
         id="stop6240" />
      <stop
         style="stop-color:#353535;stop-opacity:1.0000000;"
         offset="1.0000000"
         id="stop6242" />
    </linearGradient>
    <linearGradient
       inkscape:collect="always"
       id="linearGradient6224">
      <stop
         style="stop-color:white;stop-opacity:1;"
         offset="0"
         id="stop6226" />
      <stop
         style="stop-color:white;stop-opacity:0.20171674"
         offset="1"
         id="stop6228" />
    </linearGradient>
    <linearGradient
       inkscape:collect="always"
       id="linearGradient6204">
      <stop
         style="stop-color:white;stop-opacity:1;"
         offset="0"
         id="stop6206" />
      <stop
         style="stop-color:white;stop-opacity:0;"
         offset="1"
         id="stop6208" />
    </linearGradient>
    <linearGradient
       inkscape:collect="always"
       id="linearGradient6196">
      <stop
         style="stop-color:white;stop-opacity:0.66523606"
         offset="0"
         id="stop6198" />
      <stop
         style="stop-color:white;stop-opacity:0;"
         offset="1"
         id="stop6200" />
    </linearGradient>
    <linearGradient
       id="linearGradient6182">
      <stop
         style="stop-color:#696969;stop-opacity:0;"
         offset="0"
         id="stop6184" />
      <stop
         id="stop6190"
         offset="0.31578946"
         style="stop-color:#696969;stop-opacity:1;" />
      <stop
         style="stop-color:#696969;stop-opacity:1;"
         offset="0.71191138"
         id="stop6192" />
      <stop
         style="stop-color:#696969;stop-opacity:0;"
         offset="1"
         id="stop6186" />
    </linearGradient>
    <linearGradient
       id="linearGradient3152">
      <stop
         style="stop-color:#000000;stop-opacity:0.18750000;"
         offset="0.0000000"
         id="stop3154" />
      <stop
         style="stop-color:#3f3f3f;stop-opacity:0;"
         offset="1"
         id="stop3156" />
    </linearGradient>
    <linearGradient
       id="linearGradient3120">
      <stop
         id="stop3122"
         offset="0.0000000"
         style="stop-color:#000000;stop-opacity:0.18750000;" />
      <stop
         id="stop3124"
         offset="1"
         style="stop-color:#3f3f3f;stop-opacity:0;" />
    </linearGradient>
    <linearGradient
       id="linearGradient3082">
      <stop
         id="stop3084"
         offset="0.0000000"
         style="stop-color:#000000;stop-opacity:0.18750000;" />
      <stop
         id="stop3086"
         offset="1"
         style="stop-color:#3f3f3f;stop-opacity:0;" />
    </linearGradient>
    <linearGradient
       id="linearGradient3056">
      <stop
         id="stop3058"
         offset="0.0000000"
         style="stop-color:#ffffff;stop-opacity:1.0000000;" />
      <stop
         id="stop3060"
         offset="1.0000000"
         style="stop-color:#ffffff;stop-opacity:0.0000000;" />
    </linearGradient>
    <linearGradient
       id="linearGradient3025">
      <stop
         id="stop3027"
         offset="0.0000000"
         style="stop-color:#ffffff;stop-opacity:1.0000000;" />
      <stop
         id="stop3029"
         offset="1.0000000"
         style="stop-color:#ffffff;stop-opacity:0.0000000;" />
    </linearGradient>
    <linearGradient
       id="linearGradient2989">
      <stop
         style="stop-color:#aadf00;stop-opacity:1.0000000;"
         offset="0.0000000"
         id="stop2991" />
      <stop
         style="stop-color:#4dc721;stop-opacity:1.0000000;"
         offset="1.0000000"
         id="stop2993" />
    </linearGradient>
    <linearGradient
       id="linearGradient2953">
      <stop
         id="stop2955"
         offset="0.0000000"
         style="stop-color:#ffffff;stop-opacity:1.0000000;" />
      <stop
         id="stop2957"
         offset="1.0000000"
         style="stop-color:#ffffff;stop-opacity:0.0000000;" />
    </linearGradient>
    <linearGradient
       inkscape:collect="always"
       id="linearGradient2831">
      <stop
         style="stop-color:#000000;stop-opacity:0.39600000"
         offset="0"
         id="stop2833" />
      <stop
         style="stop-color:#000000;stop-opacity:0;"
         offset="1"
         id="stop2835" />
    </linearGradient>
    <linearGradient
       inkscape:collect="always"
       xlink:href="#linearGradient2831"
       id="linearGradient2837"
       x1="67.797653"
       y1="161.46631"
       x2="84.481789"
       y2="104.98338"
       gradientUnits="userSpaceOnUse"
       gradientTransform="matrix(0.610865,0,0,0.610865,-3.736943,-30.24676)" />
    <radialGradient
       inkscape:collect="always"
       xlink:href="#linearGradient3120"
       id="radialGradient3171"
       gradientUnits="userSpaceOnUse"
       gradientTransform="matrix(1,0,0,0.160428,-7.614885e-13,97.0903)"
       cx="62.788994"
       cy="115.64259"
       fx="62.788994"
       fy="115.64259"
       r="62.455009" />
    <radialGradient
       inkscape:collect="always"
       xlink:href="#linearGradient3152"
       id="radialGradient3185"
       gradientUnits="userSpaceOnUse"
       gradientTransform="matrix(1,0,0,0.160428,-4.819827e-13,97.0903)"
       cx="62.788994"
       cy="115.64259"
       fx="62.788994"
       fy="115.64259"
       r="62.455009" />
    <radialGradient
       inkscape:collect="always"
       xlink:href="#linearGradient3082"
       id="radialGradient3187"
       gradientUnits="userSpaceOnUse"
       gradientTransform="matrix(1,0,0,0.160428,1.156853e-13,97.0903)"
       cx="62.788994"
       cy="115.64259"
       fx="62.788994"
       fy="115.64259"
       r="62.455009" />
    <linearGradient
       inkscape:collect="always"
       xlink:href="#linearGradient3056"
       id="linearGradient5289"
       gradientUnits="userSpaceOnUse"
       gradientTransform="matrix(0.45568,0,0,0.549458,-0.874167,34.60142)"
       x1="147.57317"
       y1="108.61332"
       x2="161.74821"
       y2="84.142044" />
    <linearGradient
       inkscape:collect="always"
       xlink:href="#linearGradient3025"
       id="linearGradient5292"
       gradientUnits="userSpaceOnUse"
       gradientTransform="matrix(0.475492,0,0,0.549457,-29.76907,39.51249)"
       x1="147.57317"
       y1="108.61332"
       x2="161.74821"
       y2="84.142044" />
    <linearGradient
       inkscape:collect="always"
       xlink:href="#linearGradient2953"
       id="linearGradient5295"
       gradientUnits="userSpaceOnUse"
       gradientTransform="matrix(0.7128,0,0,0.327317,-31.14064,45.10398)"
       x1="130.02267"
       y1="21.914911"
       x2="132.50201"
       y2="46.60899" />
    <linearGradient
       inkscape:collect="always"
       xlink:href="#linearGradient2989"
       id="linearGradient5298"
       gradientUnits="userSpaceOnUse"
       gradientTransform="matrix(0.449503,0,0,0.503392,-28.28784,45.57089)"
       x1="206.98412"
       y1="15.598222"
       x2="177.10718"
       y2="81.863159" />
    <radialGradient
       inkscape:collect="always"
       xlink:href="#linearGradient6238"
       id="radialGradient5301"
       gradientUnits="userSpaceOnUse"
       gradientTransform="matrix(-1.005798,1.699012e-16,3.579405e-16,1.371959,95.43183,-8.372093)"
       cx="33.181999"
       cy="75.632446"
       fx="33.181999"
       fy="75.632446"
       r="13.721804" />
    <radialGradient
       inkscape:collect="always"
       xlink:href="#linearGradient6244"
       id="radialGradient5304"
       gradientUnits="userSpaceOnUse"
       gradientTransform="matrix(0.559178,0,0,1.193009,5.9427,5.619493)"
       cx="15.062522"
       cy="77.444618"
       fx="15.062522"
       fy="77.444618"
       r="13.721804" />
    <linearGradient
       inkscape:collect="always"
       xlink:href="#linearGradient6182"
       id="linearGradient6188"
       x1="24.124687"
       y1="105.97565"
       x2="61.571583"
       y2="105.97565"
       gradientUnits="userSpaceOnUse" />
    <linearGradient
       inkscape:collect="always"
       xlink:href="#linearGradient6196"
       id="linearGradient6202"
       x1="13.177123"
       y1="96.067474"
       x2="21.362238"
       y2="97.192932"
       gradientUnits="userSpaceOnUse" />
    <linearGradient
       inkscape:collect="always"
       xlink:href="#linearGradient6204"
       id="linearGradient6210"
       x1="15.225329"
       y1="103.5022"
       x2="23.200827"
       y2="103.5022"
       gradientUnits="userSpaceOnUse" />
    <linearGradient
       inkscape:collect="always"
       xlink:href="#linearGradient6224"
       id="linearGradient6230"
       x1="61.673923"
       y1="84.506004"
       x2="68.28466"
       y2="114.02496"
       gradientUnits="userSpaceOnUse" />
    <linearGradient
       inkscape:collect="always"
       xlink:href="#linearGradient7998"
       id="linearGradient8004"
       x1="16.175068"
       y1="1.3309516"
       x2="22.273863"
       y2="24.519621"
       gradientUnits="userSpaceOnUse" />
    <linearGradient
       inkscape:collect="always"
       xlink:href="#linearGradient5306"
       id="linearGradient5312"
       x1="39.886505"
       y1="81.458664"
       x2="47.531185"
       y2="85.872322"
       gradientUnits="userSpaceOnUse" />
    <linearGradient
       inkscape:collect="always"
       xlink:href="#linearGradient5306"
       id="linearGradient5316"
       gradientUnits="userSpaceOnUse"
       x1="39.886505"
       y1="81.458664"
       x2="47.531185"
       y2="85.872322"
       gradientTransform="matrix(1.000004,0,0,1,26.19219,-4.911058)" />
    <linearGradient
       inkscape:collect="always"
       xlink:href="#linearGradient5320"
       id="linearGradient5326"
       x1="54.970306"
       y1="51.265461"
       x2="61.469547"
       y2="59.671047"
       gradientUnits="userSpaceOnUse" />
  </defs>
  <sodipodi:namedview
     id="base"
     pagecolor="#ffffff"
     bordercolor="#666666"
     borderopacity="1.0"
     inkscape:pageopacity="0.0"
     inkscape:pageshadow="2"
     inkscape:zoom="1"
     inkscape:cx="24"
     inkscape:cy="24"
     inkscape:document-units="px"
     inkscape:current-layer="g3189"
     inkscape:window-width="823"
     inkscape:window-height="536"
     inkscape:window-x="128"
     inkscape:window-y="90"
     showguides="true"
     inkscape:guide-bbox="true"
     inkscape:showpageshadow="false"
     width="48px"
     height="48px"
     showgrid="false"
     showborder="false" />
  <metadata
     id="metadata7">
    <rdf:RDF>
      <cc:Work
         rdf:about="">
        <dc:format>image/svg+xml</dc:format>
        <dc:type
           rdf:resource="http://purl.org/dc/dcmitype/StillImage" />
      </cc:Work>
    </rdf:RDF>
  </metadata>
  <g
     inkscape:label="Layer 1"
     inkscape:groupmode="layer"
     id="layer1">
    <path
       style="fill:url(#linearGradient2837);fill-opacity:1;fill-rule:evenodd;stroke:none;stroke-width:0.15837563pt;stroke-linecap:butt;stroke-linejoin:miter;stroke-opacity:1"
       d="M 42.42286,36.834481 C 35.564328,36.83671 25.739229,38.762346 18.592138,41.319653 C 15.139065,41.319653 10.124636,42.155315 7.381127,43.185613 C 4.6376083,44.215909 5.2015903,45.051572 8.6546653,45.051572 C 12.107739,45.051572 15.048129,44.263568 17.791636,43.233272 C 19.779153,42.486873 21.099968,41.822179 20.375268,41.510279 C 33.355114,37.178153 47.269473,36.773932 44.613985,41.110693 C 41.097629,41.415185 36.852225,42.305014 34.234007,43.288255 C 31.008745,44.499472 31.479884,45.381506 35.226838,45.381506 C 38.973793,45.381506 44.776844,44.702737 47.870009,43.185613 C 47.083896,41.173576 47.706092,41.701876 47.264173,41.004378 C 46.714566,36.334397 44.985456,37.464619 42.42286,36.834481 z "
       id="path2035"
       sodipodi:nodetypes="ccsssccssccc" />
    <g
       id="g3189"
       transform="matrix(0.610865,0,0,0.610865,-3.736943,-30.24676)">
      <path
         transform="matrix(0.606063,0,0,0.702616,6.7788,39.79953)"
         d="M 125.244 115.64259 A 62.455009 10.019521 0 1 1  0.33398438,115.64259 A 62.455009 10.019521 0 1 1  125.244 115.64259 z"
         sodipodi:ry="10.019521"
         sodipodi:rx="62.455009"
         sodipodi:cy="115.64259"
         sodipodi:cx="62.788994"
         id="path3568"
         style="color:black;fill:url(#radialGradient3171);fill-opacity:1;fill-rule:evenodd;stroke:none;stroke-width:3;stroke-linecap:round;stroke-linejoin:round;marker:none;marker-start:none;marker-mid:none;marker-end:none;stroke-miterlimit:4;stroke-dasharray:none;stroke-dashoffset:0;stroke-opacity:1;visibility:visible;display:inline;overflow:visible"
         sodipodi:type="arc" />
      <path
         sodipodi:nodetypes="ccccc"
         id="path1509"
         d="M 21.13298,90.645555 C 20.98985,44.512553 67.36374,44.35617 67.07747,90.645555 C 67.07747,91.844492 63.4411,93.043429 63.4411,94.242366 C 62.72545,48.370002 25.19875,51.289153 24.76936,94.085982 C 24.76936,92.939173 21.13298,91.792364 21.13298,90.645555 z "
         style="fill:black;fill-opacity:1;fill-rule:evenodd;stroke:black;stroke-width:1.63702285;stroke-linecap:butt;stroke-linejoin:miter;stroke-miterlimit:4;stroke-dasharray:none;stroke-opacity:1" />
      <path
         style="fill:none;fill-opacity:1.0;fill-rule:evenodd;stroke:url(#linearGradient8004);stroke-width:1px;stroke-linecap:butt;stroke-linejoin:miter;stroke-opacity:1"
         d="M 10.353553,24 C 10.353553,-2.2109731 36.288452,-0.45439236 36.288452,24"
         id="path6250"
         transform="matrix(1.637023,0,0,1.637023,6.117461,49.51464)"
         sodipodi:nodetypes="cc" />
      <path
         sodipodi:nodetypes="cccccccc"
         id="path4312"
         d="M 25.76171,102.78717 L 36.13298,102.78717 L 40.57781,90.440256 L 45.70645,121.51105 L 48.09982,98.309713 L 50.8351,108.7571 L 51.9748,102.78717 L 61.77621,102.78717"
         style="fill:none;fill-opacity:0.75;fill-rule:evenodd;stroke:url(#linearGradient6188);stroke-width:3.27404714;stroke-linecap:butt;stroke-linejoin:round;stroke-miterlimit:4;stroke-dasharray:none;stroke-opacity:1" />
      <path
         sodipodi:nodetypes="csssc"
         id="path1504"
         d="M 28.21732,104.76019 C 28.21732,113.79656 26.78646,120.72509 20.8907,120.72509 C 14.99495,120.72509 10.21,113.39122 10.21,104.35484 C 10.21,95.318478 14.99495,87.984611 20.8907,87.984611 C 26.78646,87.984611 28.21732,95.723814 28.21732,104.76019 z "
         style="color:black;fill:url(#radialGradient5304);fill-opacity:1;fill-rule:evenodd;stroke:#212121;stroke-width:1.6370219;stroke-linecap:round;stroke-linejoin:round;marker:none;marker-start:none;marker-mid:none;marker-end:none;stroke-miterlimit:4;stroke-dasharray:none;stroke-dashoffset:0;stroke-opacity:1;visibility:visible;display:inline;overflow:visible" />
      <path
         sodipodi:nodetypes="csssc"
         id="path2986"
         d="M 56.046664,106.06604 C 56.046664,116.45785 60.546571,123.99915 66.51266,123.99915 C 72.478749,123.99915 77.320805,115.5652 77.320805,105.1734 C 77.320805,94.781581 72.478749,86.347646 66.51266,86.347646 C 60.546571,86.347646 56.046664,95.674227 56.046664,106.06604 z "
         style="color:black;fill:url(#radialGradient5301);fill-opacity:1;fill-rule:evenodd;stroke:#212121;stroke-width:1.63702285;stroke-linecap:round;stroke-linejoin:round;marker:none;marker-start:none;marker-mid:none;marker-end:none;stroke-miterlimit:4;stroke-dasharray:none;stroke-dashoffset:0;stroke-opacity:1;visibility:visible;display:inline;overflow:visible" />
      <path
         sodipodi:nodetypes="csssc"
         id="path6222"
         d="M 57.683703,105.98844 C 57.683703,115.47664 61.492604,122.36219 66.542541,122.36219 C 71.592478,122.36219 75.690988,114.66161 75.690988,105.17342 C 75.690988,95.68522 71.592478,87.984658 66.542541,87.984658 C 61.492604,87.984658 57.683703,96.500246 57.683703,105.98844 z "
         style="color:black;fill:none;fill-opacity:1.0;fill-rule:evenodd;stroke:url(#linearGradient6230);stroke-width:1.63702369;stroke-linecap:round;stroke-linejoin:round;marker:none;marker-start:none;marker-mid:none;marker-end:none;stroke-miterlimit:4;stroke-dasharray:none;stroke-dashoffset:0;stroke-opacity:1;visibility:visible;display:inline;overflow:visible" />
      <path
         id="path1139"
         style="fill:url(#linearGradient5298);fill-opacity:1;stroke:#3cb30c;stroke-width:1.63702285;stroke-linejoin:round;stroke-miterlimit:4;stroke-dasharray:none;stroke-dashoffset:0;stroke-opacity:1"
         d="M 77.327944,50.333142 L 47.900309,55.400475 L 47.900309,65.274704 L 47.900309,80.476703 C 46.993257,80.058239 45.994065,79.807011 44.93065,79.807011 C 40.375456,79.807011 38.039408,83.424541 38.039408,87.374525 C 38.039408,91.324511 41.240405,94.532783 45.181428,94.532783 C 49.122449,94.532783 51.109059,91.324508 51.114184,87.374525 L 51.143877,64.485956 L 74.09873,60.586864 L 74.09873,75.595394 C 73.191955,75.177231 71.495494,74.940585 70.432479,74.940585 C 66.491444,74.940585 64.042177,78.543234 64.042177,82.493218 C 64.042177,86.443203 66.96753,89.651476 70.156232,89.651476 C 74.097254,89.651475 77.298239,86.443205 77.298239,82.493218 C 77.298239,82.349165 77.262095,82.218477 77.253707,82.076521 L 77.327944,82.076521 L 77.327944,59.798116 L 77.327944,51.568351 L 77.327944,50.333142 z "
         sodipodi:nodetypes="ccccsssscccssssccccc" />
      <path
         id="path1778"
         style="fill:url(#linearGradient5295);fill-opacity:1;fill-rule:evenodd;stroke:none;stroke-width:0.25pt;stroke-linecap:butt;stroke-linejoin:miter;stroke-opacity:1"
         d="M 48.680057,64.247845 L 48.680057,56.088515 L 76.509446,51.151662 L 76.509446,58.755896 L 48.680057,64.247845 z "
         sodipodi:nodetypes="ccccc" />
      <path
         id="path2409"
         style="fill:url(#linearGradient5292);fill-opacity:1;stroke:none;stroke-width:3.59371519;stroke-linejoin:round;stroke-miterlimit:4;stroke-dashoffset:0;stroke-opacity:1"
         d="M 50.808189,86.808998 C 50.808189,90.226388 49.479518,93.714258 45.236349,93.714258 C 42.278995,93.714258 39.021624,90.226388 39.021624,86.808998 C 39.021624,83.391608 41.850394,80.618074 44.80775,80.618074 C 47.765119,80.618074 50.808189,83.391608 50.808189,86.808998 z " />
      <path
         id="path3036"
         style="fill:url(#linearGradient5289);fill-opacity:1;stroke:none;stroke-width:3.59371519;stroke-linejoin:round;stroke-miterlimit:4;stroke-dashoffset:0;stroke-opacity:1"
         d="M 76.345746,81.89793 C 76.345746,85.31532 74.272323,88.803189 71.006068,88.803189 C 67.370837,88.803189 65.050286,85.31532 65.050286,81.89793 C 65.050286,78.480539 67.76119,75.707006 70.595324,75.707006 C 73.42947,75.707006 76.345746,78.480539 76.345746,81.89793 z "
         sodipodi:nodetypes="csssc" />
      <path
         transform="matrix(0.28283,0,0,0.327888,6.023,84.30737)"
         d="M 125.244 115.64259 A 62.455009 10.019521 0 1 1  0.33398438,115.64259 A 62.455009 10.019521 0 1 1  125.244 115.64259 z"
         sodipodi:ry="10.019521"
         sodipodi:rx="62.455009"
         sodipodi:cy="115.64259"
         sodipodi:cx="62.788994"
         id="path4304"
         style="color:black;fill:url(#radialGradient3185);fill-opacity:1;fill-rule:evenodd;stroke:none;stroke-width:3;stroke-linecap:round;stroke-linejoin:round;marker:none;marker-start:none;marker-mid:none;marker-end:none;stroke-miterlimit:4;stroke-dasharray:none;stroke-dashoffset:0;stroke-opacity:1;visibility:visible;display:inline;overflow:visible"
         sodipodi:type="arc" />
      <path
         transform="matrix(0.28283,0,0,0.327888,46.5061,83.83799)"
         d="M 125.244 115.64259 A 62.455009 10.019521 0 1 1  0.33398438,115.64259 A 62.455009 10.019521 0 1 1  125.244 115.64259 z"
         sodipodi:ry="10.019521"
         sodipodi:rx="62.455009"
         sodipodi:cy="115.64259"
         sodipodi:cx="62.788994"
         id="path4308"
         style="color:black;fill:url(#radialGradient3187);fill-opacity:1;fill-rule:evenodd;stroke:none;stroke-width:3;stroke-linecap:round;stroke-linejoin:round;marker:none;marker-start:none;marker-mid:none;marker-end:none;stroke-miterlimit:4;stroke-dasharray:none;stroke-dashoffset:0;stroke-opacity:1;visibility:visible;display:inline;overflow:visible"
         sodipodi:type="arc" />
      <path
         transform="matrix(1.103443,0,0,0.925816,-1.782104,6.452993)"
         d="M 25.703505 105.74663 A 3.708895 14.145553 0 1 1  18.285715,105.74663 A 3.708895 14.145553 0 1 1  25.703505 105.74663 z"
         sodipodi:ry="14.145553"
         sodipodi:rx="3.708895"
         sodipodi:cy="105.74663"
         sodipodi:cx="21.99461"
         id="path2029"
         style="opacity:1;color:black;fill:black;fill-opacity:1;fill-rule:evenodd;stroke:url(#linearGradient6210);stroke-width:1.61963616;stroke-linecap:round;stroke-linejoin:round;marker:none;marker-start:none;marker-mid:none;marker-end:none;stroke-miterlimit:4;stroke-dasharray:none;stroke-dashoffset:0;stroke-opacity:1;visibility:visible;display:inline;overflow:visible"
         sodipodi:type="arc" />
      <path
         sodipodi:nodetypes="csssc"
         id="path6194"
         d="M 26.580252,104.71973 C 26.580252,112.85246 25.409553,119.08814 20.585765,119.08814 C 15.761984,119.08814 11.847038,112.48766 11.847038,104.35492 C 11.847038,96.222194 15.761984,89.621717 20.585765,89.621717 C 25.409553,89.621717 26.580252,96.586997 26.580252,104.71973 z "
         style="color:black;fill:none;fill-opacity:1.0;fill-rule:evenodd;stroke:url(#linearGradient6202);stroke-width:1.63702291;stroke-linecap:round;stroke-linejoin:round;marker:none;marker-start:none;marker-mid:none;marker-end:none;stroke-miterlimit:4;stroke-dasharray:none;stroke-dashoffset:0;stroke-opacity:1;visibility:visible;display:inline;overflow:visible" />
      <path
         id="path5304"
         style="fill:none;fill-opacity:1.0;stroke:url(#linearGradient5312);stroke-width:1.63702297;stroke-linejoin:round;stroke-miterlimit:4;stroke-dasharray:none;stroke-dashoffset:0;stroke-opacity:1"
         d="M 49.498564,86.853632 C 49.498564,89.843847 48.39134,92.895732 44.855372,92.895732 C 42.390914,92.895732 39.676443,89.843847 39.676443,86.853632 C 39.676443,83.863417 42.033747,81.436575 44.498206,81.436575 C 46.962677,81.436575 49.498564,83.863417 49.498564,86.853632 z " />
      <path
         id="path5314"
         style="fill:none;fill-opacity:1;stroke:url(#linearGradient5316);stroke-width:1.63702321;stroke-linejoin:round;stroke-miterlimit:4;stroke-dasharray:none;stroke-dashoffset:0;stroke-opacity:1"
         d="M 75.690948,81.942574 C 75.690948,84.932789 74.583718,87.984674 71.047736,87.984674 C 68.583268,87.984674 65.868787,84.932789 65.868787,81.942574 C 65.868787,78.952359 68.226101,76.525517 70.69057,76.525517 C 73.15505,76.525517 75.690948,78.952359 75.690948,81.942574 z " />
      <path
         id="path5318"
         style="fill:none;fill-opacity:1.0;stroke:url(#linearGradient5326);stroke-width:1.63702321;stroke-linejoin:round;stroke-miterlimit:4;stroke-dasharray:none;stroke-dashoffset:0;stroke-opacity:1"
         d="M 75.690955,51.970184 L 49.481863,56.849839 L 49.481863,66.358356 L 49.481863,80.997318 C 48.650398,80.594353 46.968205,80.35243 45.993408,80.35243 C 41.817808,80.35243 39.676429,83.835977 39.676429,87.639666 C 39.676429,91.443356 42.610679,94.532803 46.223287,94.532803 C 49.835893,94.532803 51.656954,91.443353 51.661652,87.639666 L 51.68887,65.598821 L 72.730839,61.844139 L 72.730839,76.296798 C 71.899628,75.894123 70.344538,75.666242 69.370106,75.666242 C 65.757487,75.666242 63.512324,79.135459 63.512324,82.939148 C 63.512324,86.742837 66.1939,89.832285 69.116879,89.832285 C 72.729487,89.832284 75.663726,86.742839 75.663726,82.939148 C 75.663726,82.80043 75.630594,82.674582 75.622905,82.537884 L 75.690955,82.537884 L 75.690955,61.084604 L 75.690955,53.159645 L 75.690955,51.970184 z "
         sodipodi:nodetypes="ccccsssscccssssccccc" />
    </g>
  </g>
</svg>
