<?xml version="1.0" encoding="UTF-8" standalone="no"?>
<!-- Created with Inkscape (http://www.inkscape.org/) -->
<svg
   xmlns:dc="http://purl.org/dc/elements/1.1/"
   xmlns:cc="http://web.resource.org/cc/"
   xmlns:rdf="http://www.w3.org/1999/02/22-rdf-syntax-ns#"
   xmlns:svg="http://www.w3.org/2000/svg"
   xmlns="http://www.w3.org/2000/svg"
   xmlns:xlink="http://www.w3.org/1999/xlink"
   xmlns:sodipodi="http://inkscape.sourceforge.net/DTD/sodipodi-0.dtd"
   xmlns:inkscape="http://www.inkscape.org/namespaces/inkscape"
   width="48"
   height="48"
   id="svg2"
   sodipodi:version="0.32"
   inkscape:version="0.43+devel"
   sodipodi:docbase="/home/silvestre/Desktop/Neu/scalable/mimetypes"
   sodipodi:docname="font-x-generic.svg"
   version="1.0">
  <defs
     id="defs4">
    <linearGradient
       inkscape:collect="always"
       id="linearGradient4820">
      <stop
         style="stop-color:white;stop-opacity:1;"
         offset="0"
         id="stop4822" />
      <stop
         style="stop-color:white;stop-opacity:0.57939917"
         offset="1"
         id="stop4824" />
    </linearGradient>
    <linearGradient
       id="linearGradient4957">
      <stop
         id="stop4959"
         offset="0"
         style="stop-color:#ffffff;stop-opacity:1;" />
      <stop
         id="stop4961"
         offset="1.0000000"
         style="stop-color:#d0d0d0;stop-opacity:1" />
    </linearGradient>
    <linearGradient
       inkscape:collect="always"
       id="linearGradient5912">
      <stop
         style="stop-color:#000000;stop-opacity:1;"
         offset="0"
         id="stop5914" />
      <stop
         style="stop-color:#000000;stop-opacity:0;"
         offset="1"
         id="stop5916" />
    </linearGradient>
    <linearGradient
       id="linearGradient5904">
      <stop
         id="stop5906"
         offset="0.0000000"
         style="stop-color:#000000;stop-opacity:0.19791669;" />
      <stop
         id="stop5908"
         offset="1"
         style="stop-color:#000000;stop-opacity:0;" />
    </linearGradient>
    <linearGradient
       id="linearGradient2057">
      <stop
         style="stop-color:#f0f0f0;stop-opacity:1;"
         offset="0"
         id="stop2059" />
      <stop
         style="stop-color:#dddddd;stop-opacity:1.0000000;"
         offset="1.0000000"
         id="stop2061" />
    </linearGradient>
    <linearGradient
       inkscape:collect="always"
       id="linearGradient2049">
      <stop
         style="stop-color:#0a0a0a;stop-opacity:1;"
         offset="0"
         id="stop2051" />
      <stop
         style="stop-color:#0a0a0a;stop-opacity:0;"
         offset="1"
         id="stop2053" />
    </linearGradient>
    <radialGradient
       inkscape:collect="always"
       xlink:href="#linearGradient5904"
       id="radialGradient5902"
       cx="60.502419"
       cy="115.07005"
       fx="60.502419"
       fy="115.07005"
       r="56.111115"
       gradientTransform="matrix(1,0,0,0.213043,-2.766884e-16,90.55513)"
       gradientUnits="userSpaceOnUse" />
    <linearGradient
       inkscape:collect="always"
       xlink:href="#linearGradient5912"
       id="linearGradient5918"
       x1="71.236717"
       y1="152.15218"
       x2="88.314011"
       y2="99.212555"
       gradientUnits="userSpaceOnUse"
       gradientTransform="matrix(0.368911,0,0,0.409902,1.019997,-3.067345)" />
    <linearGradient
       inkscape:collect="always"
       xlink:href="#linearGradient4957"
       id="linearGradient4940"
       gradientUnits="userSpaceOnUse"
       x1="81.89402"
       y1="22.461552"
       x2="84.654594"
       y2="10.41062"
       gradientTransform="matrix(0.373185,0,0,0.36947,-1.509613,-0.729184)" />
    <linearGradient
       inkscape:collect="always"
       xlink:href="#linearGradient2049"
       id="linearGradient4943"
       gradientUnits="userSpaceOnUse"
       gradientTransform="matrix(0.378019,0,0,0.366486,-1.594096,-1.346996)"
       x1="69.606209"
       y1="-2.7867124"
       x2="82.63073"
       y2="34.12973" />
    <linearGradient
       inkscape:collect="always"
       xlink:href="#linearGradient2057"
       id="linearGradient4946"
       gradientUnits="userSpaceOnUse"
       x1="57.903072"
       y1="65.225105"
       x2="85.99958"
       y2="114.99323"
       gradientTransform="matrix(0.374016,0,0,0.37836,-1.630407,-0.678575)" />
    <linearGradient
       inkscape:collect="always"
       xlink:href="#linearGradient4820"
       id="linearGradient4826"
       x1="7.9148936"
       y1="3.8297873"
       x2="7.9148936"
       y2="41.371349"
       gradientUnits="userSpaceOnUse" />
  </defs>
  <sodipodi:namedview
     id="base"
     pagecolor="#ffffff"
     bordercolor="#666666"
     borderopacity="1.0"
     inkscape:pageopacity="0.0"
     inkscape:pageshadow="2"
     inkscape:zoom="1"
     inkscape:cx="24"
     inkscape:cy="24"
     inkscape:document-units="px"
     inkscape:current-layer="layer1"
     inkscape:window-width="843"
     inkscape:window-height="556"
     inkscape:window-x="105"
     inkscape:window-y="129"
     showguides="true"
     inkscape:guide-bbox="true"
     width="48px"
     height="48px"
     showgrid="false"
     showborder="false" />
  <metadata
     id="metadata7">
    <rdf:RDF>
      <cc:Work
         rdf:about="">
        <dc:format>image/svg+xml</dc:format>
        <dc:type
           rdf:resource="http://purl.org/dc/dcmitype/StillImage" />
      </cc:Work>
    </rdf:RDF>
  </metadata>
  <g
     inkscape:label="Layer 1"
     inkscape:groupmode="layer"
     id="layer1">
    <path
       style="fill:url(#linearGradient5918);fill-opacity:1;fill-rule:evenodd;stroke:none;stroke-width:0.25pt;stroke-linecap:butt;stroke-linejoin:miter;stroke-opacity:1"
       d="M 36.479999,47 L 47.999999,39.799995 L 30,36 L 36.479999,47 z "
       id="path5910" />
    <path
       sodipodi:type="arc"
       style="opacity:1;color:black;fill:url(#radialGradient5902);fill-opacity:1;fill-rule:evenodd;stroke:none;stroke-width:2;stroke-linecap:round;stroke-linejoin:round;marker:none;marker-start:none;marker-mid:none;marker-end:none;stroke-miterlimit:4;stroke-dasharray:none;stroke-dashoffset:0;stroke-opacity:1;visibility:visible;display:inline;overflow:visible"
       id="path5894"
       sodipodi:cx="60.502419"
       sodipodi:cy="115.07005"
       sodipodi:rx="56.111115"
       sodipodi:ry="11.954107"
       d="M 116.61353 115.07005 A 56.111115 11.954107 0 1 1  4.391304,115.07005 A 56.111115 11.954107 0 1 1  116.61353 115.07005 z"
       transform="matrix(0.374257,0,0,0.375482,-1.643478,0.304713)" />
    <path
       style="fill:url(#linearGradient4946);fill-opacity:1;fill-rule:evenodd;stroke:#bababa;stroke-width:1.01816666;stroke-linecap:round;stroke-linejoin:round;stroke-miterlimit:4;stroke-dasharray:none;stroke-opacity:1"
       d="M 3.6381241,42.183118 C 4.3693547,30.869709 5.1005853,16.945515 3.5090833,3.543477 L 23.123274,1.5201175 C 26.564358,1.2807954 36.543511,4.9794104 36.543511,8.2428935 C 38.005971,22.03655 37.661861,34.785892 36.285427,46.490917 L 3.6381241,42.183118 z "
       id="path1306"
       sodipodi:nodetypes="cccccc" />
    <path
       style="font-size:32.30165482px;font-style:italic;font-variant:normal;font-weight:bold;font-stretch:normal;text-align:start;line-height:125%;writing-mode:lr-tb;text-anchor:start;fill:#4b4b4b;fill-opacity:1;stroke:none;stroke-width:1px;stroke-linecap:butt;stroke-linejoin:miter;stroke-opacity:1;font-family:Georgia"
       d="M 21.299208,25.755211 L 18.93404,16.885269 L 15.671753,25.402042 L 21.299208,25.755211 M 20.540691,36.347799 L 20.607695,35.120535 C 21.535764,35.088808 22.247086,34.992872 22.741662,34.832722 C 23.24383,34.661804 23.479024,34.457262 23.447247,34.219092 C 23.419986,34.014952 23.387393,33.838589 23.349472,33.690004 C 23.311523,33.541423 23.265995,33.369871 23.212889,33.175348 L 21.759112,27.369803 L 15.063675,26.949609 C 14.900607,27.355497 14.696377,27.893747 14.450984,28.564365 C 14.2132,29.224225 14.012754,29.790831 13.849649,30.264181 C 13.605718,31.013625 13.470729,31.528103 13.444681,31.807625 C 13.427754,32.087722 13.424591,32.267465 13.43519,32.34685 C 13.480602,32.687093 13.732955,32.984086 14.192255,33.237836 C 14.650031,33.480244 15.328444,33.68027 16.227497,33.83791 L 16.160493,35.065174 L 8,34.553036 L 8.0670044,33.325772 C 8.3286928,33.319703 8.654298,33.283907 9.0438208,33.218381 C 9.4333461,33.152856 9.7529186,33.037957 10.002539,32.87368 C 10.352615,32.648234 10.67003,32.347636 10.954786,31.971882 C 11.239539,31.596135 11.490121,31.133895 11.70653,30.585157 C 13.08722,27.162969 14.353624,24.003513 15.505759,21.106782 C 16.656364,18.198739 17.989854,14.829816 19.506232,11 L 22.217269,11.170139 C 23.598301,16.295174 24.738796,20.533501 25.638758,23.885132 C 26.547818,27.237358 27.460544,31.057712 28.105646,33.313714 C 28.196683,33.65682 28.325029,33.974147 28.490687,34.265698 C 28.66392,34.546484 28.913245,34.820797 29.238668,35.088636 C 29.481942,35.283845 29.764821,35.436552 30.087307,35.546762 C 30.418879,35.657542 30.72311,35.732867 31,35.772736 L 30.932996,37 L 20.540691,36.347799"
       id="text3944"
       sodipodi:nodetypes="ccccccssscccsssssccccsssccccccsssccc" />
    <path
       style="fill:url(#linearGradient4943);fill-opacity:1;fill-rule:evenodd;stroke:none;stroke-width:0.25pt;stroke-linecap:butt;stroke-linejoin:miter;stroke-opacity:1"
       d="M 24.65333,3.0742622 C 22.414428,6.3406944 23.110009,11.250879 25.370648,13 C 29.152871,9.1645772 31.696091,7.1625709 36,7.8790784 C 33.706755,4.844458 28.690962,2.5526868 24.65333,3.0742622 z "
       id="path2039"
       sodipodi:nodetypes="cccc" />
    <path
       style="fill:none;fill-opacity:1.0;fill-rule:evenodd;stroke:url(#linearGradient4826);stroke-width:0.96689165;stroke-linecap:round;stroke-linejoin:round;stroke-miterlimit:4;stroke-dasharray:none;stroke-opacity:1"
       d="M 4.6050865,41.395379 C 5.2943839,30.572095 5.9836814,17.251132 4.4834458,4.4297046 L 22.97284,2.494002 C 26.727951,2.265048 36.016642,5.8034297 35.623479,8.9255306 C 37.002072,22.121611 36.677695,34.318619 35.380195,45.516554 L 4.6050865,41.395379 z "
       id="path3945"
       sodipodi:nodetypes="cccccc" />
    <path
       style="fill:url(#linearGradient4940);fill-opacity:1;fill-rule:evenodd;stroke:none;stroke-width:1;stroke-linecap:butt;stroke-linejoin:miter;stroke-miterlimit:4;stroke-dasharray:none;stroke-opacity:1"
       d="M 22.352108,2.0552082 C 20.141837,5.3482383 20.828523,10.298406 23.060254,12.061771 C 26.79411,8.1951158 31.751128,7.069112 36,7.791454 C 35.023618,4.8595954 26.338108,1.5293855 22.352108,2.0552082 z "
       id="path2037"
       sodipodi:nodetypes="cccc" />
  </g>
</svg>
