<?xml version="1.0" encoding="UTF-8" standalone="no"?>
<!-- Created with Inkscape (http://www.inkscape.org/) -->
<svg
   xmlns:dc="http://purl.org/dc/elements/1.1/"
   xmlns:cc="http://web.resource.org/cc/"
   xmlns:rdf="http://www.w3.org/1999/02/22-rdf-syntax-ns#"
   xmlns:svg="http://www.w3.org/2000/svg"
   xmlns="http://www.w3.org/2000/svg"
   xmlns:xlink="http://www.w3.org/1999/xlink"
   xmlns:sodipodi="http://inkscape.sourceforge.net/DTD/sodipodi-0.dtd"
   xmlns:inkscape="http://www.inkscape.org/namespaces/inkscape"
   width="48"
   height="48"
   id="svg2"
   sodipodi:version="0.32"
   inkscape:version="0.43+devel"
   sodipodi:docbase="/home/silvestre/Desktop/Neu/scalable/mimetypes"
   sodipodi:docname="text-x-source.svg"
   version="1.0">
  <defs
     id="defs4">
    <linearGradient
       inkscape:collect="always"
       id="linearGradient4872">
      <stop
         style="stop-color:white;stop-opacity:0.6523605"
         offset="0"
         id="stop4874" />
      <stop
         style="stop-color:white;stop-opacity:0"
         offset="1"
         id="stop4876" />
    </linearGradient>
    <linearGradient
       inkscape:collect="always"
       id="linearGradient4820">
      <stop
         style="stop-color:white;stop-opacity:1;"
         offset="0"
         id="stop4822" />
      <stop
         style="stop-color:white;stop-opacity:0.57939917"
         offset="1"
         id="stop4824" />
    </linearGradient>
    <linearGradient
       id="linearGradient4957">
      <stop
         id="stop4959"
         offset="0"
         style="stop-color:#ffffff;stop-opacity:1;" />
      <stop
         id="stop4961"
         offset="1.0000000"
         style="stop-color:#d0d0d0;stop-opacity:1" />
    </linearGradient>
    <linearGradient
       inkscape:collect="always"
       id="linearGradient5912">
      <stop
         style="stop-color:#000000;stop-opacity:1;"
         offset="0"
         id="stop5914" />
      <stop
         style="stop-color:#000000;stop-opacity:0;"
         offset="1"
         id="stop5916" />
    </linearGradient>
    <linearGradient
       id="linearGradient5904">
      <stop
         id="stop5906"
         offset="0.0000000"
         style="stop-color:#000000;stop-opacity:0.19791669;" />
      <stop
         id="stop5908"
         offset="1"
         style="stop-color:#000000;stop-opacity:0;" />
    </linearGradient>
    <linearGradient
       id="linearGradient2065">
      <stop
         style="stop-color:#ffffff;stop-opacity:1;"
         offset="0"
         id="stop2067" />
      <stop
         style="stop-color:#bfbfbf;stop-opacity:1.0000000;"
         offset="1.0000000"
         id="stop2069" />
    </linearGradient>
    <linearGradient
       id="linearGradient2057">
      <stop
         style="stop-color:#f0f0f0;stop-opacity:1;"
         offset="0"
         id="stop2059" />
      <stop
         style="stop-color:#dddddd;stop-opacity:1.0000000;"
         offset="1.0000000"
         id="stop2061" />
    </linearGradient>
    <linearGradient
       inkscape:collect="always"
       id="linearGradient2049">
      <stop
         style="stop-color:#0a0a0a;stop-opacity:1;"
         offset="0"
         id="stop2051" />
      <stop
         style="stop-color:#0a0a0a;stop-opacity:0;"
         offset="1"
         id="stop2053" />
    </linearGradient>
    <linearGradient
       inkscape:collect="always"
       xlink:href="#linearGradient2057"
       id="linearGradient5888"
       gradientUnits="userSpaceOnUse"
       x1="57.903072"
       y1="65.225105"
       x2="85.99958"
       y2="114.99323" />
    <linearGradient
       inkscape:collect="always"
       xlink:href="#linearGradient2049"
       id="linearGradient5890"
       gradientUnits="userSpaceOnUse"
       gradientTransform="translate(0.975845,-1.951691)"
       x1="69.606209"
       y1="-2.7867124"
       x2="82.63073"
       y2="34.12973" />
    <linearGradient
       inkscape:collect="always"
       xlink:href="#linearGradient2065"
       id="linearGradient5892"
       gradientUnits="userSpaceOnUse"
       x1="80.507256"
       y1="19.19323"
       x2="84.654594"
       y2="10.41062" />
    <radialGradient
       inkscape:collect="always"
       xlink:href="#linearGradient5904"
       id="radialGradient5902"
       cx="60.502419"
       cy="115.07005"
       fx="60.502419"
       fy="115.07005"
       r="56.111115"
       gradientTransform="matrix(1,0,0,0.213043,-2.766884e-16,90.55513)"
       gradientUnits="userSpaceOnUse" />
    <linearGradient
       inkscape:collect="always"
       xlink:href="#linearGradient5912"
       id="linearGradient5918"
       x1="71.236717"
       y1="152.15218"
       x2="88.314011"
       y2="99.212555"
       gradientUnits="userSpaceOnUse"
       gradientTransform="matrix(0.368911,0,0,0.409902,1.019997,-3.067345)" />
    <linearGradient
       inkscape:collect="always"
       xlink:href="#linearGradient4957"
       id="linearGradient4940"
       gradientUnits="userSpaceOnUse"
       x1="81.89402"
       y1="22.461552"
       x2="84.654594"
       y2="10.41062"
       gradientTransform="matrix(0.373185,0,0,0.36947,-1.509613,-0.729184)" />
    <linearGradient
       inkscape:collect="always"
       xlink:href="#linearGradient2049"
       id="linearGradient4943"
       gradientUnits="userSpaceOnUse"
       gradientTransform="matrix(0.378019,0,0,0.366486,-1.594096,-1.346996)"
       x1="69.606209"
       y1="-2.7867124"
       x2="82.63073"
       y2="34.12973" />
    <linearGradient
       inkscape:collect="always"
       xlink:href="#linearGradient2057"
       id="linearGradient4946"
       gradientUnits="userSpaceOnUse"
       x1="57.903072"
       y1="65.225105"
       x2="85.99958"
       y2="114.99323"
       gradientTransform="matrix(0.374016,0,0,0.37836,-1.630407,-0.678575)" />
    <linearGradient
       inkscape:collect="always"
       xlink:href="#linearGradient4820"
       id="linearGradient4826"
       x1="7.9148936"
       y1="3.8297873"
       x2="7.9148936"
       y2="41.371349"
       gradientUnits="userSpaceOnUse" />
    <linearGradient
       gradientTransform="matrix(1.267689,0,0,1.289396,-15.97794,-14.45218)"
       gradientUnits="userSpaceOnUse"
       y2="26.680838"
       x2="26.017185"
       y1="29.974993"
       x1="38.311138"
       id="linearGradient6653"
       xlink:href="#linearGradient6647"
       inkscape:collect="always" />
    <linearGradient
       gradientTransform="matrix(0.599147,0,0,0.617501,-1.787665,-2.525625)"
       y2="50.460960"
       x2="34.812870"
       y1="16.950554"
       x1="34.812870"
       gradientUnits="userSpaceOnUse"
       id="linearGradient4021"
       xlink:href="#linearGradient4234"
       inkscape:collect="always" />
    <linearGradient
       gradientTransform="matrix(0.468776,0,0,0.477324,-13.90302,-13.25569)"
       y2="75.218742"
       x2="72.151817"
       y1="38.213421"
       x1="72.151817"
       gradientUnits="userSpaceOnUse"
       id="linearGradient4018"
       xlink:href="#linearGradient4872"
       inkscape:collect="always" />
    <linearGradient
       inkscape:collect="always"
       id="linearGradient4234">
      <stop
         style="stop-color:#e0e0e0;stop-opacity:1.0000000"
         offset="0"
         id="stop4236" />
      <stop
         style="stop-color:#c4c4c4;stop-opacity:1.0000000"
         offset="1"
         id="stop4238" />
    </linearGradient>
    <linearGradient
       id="linearGradient6647"
       inkscape:collect="always">
      <stop
         id="stop6649"
         offset="0"
         style="stop-color:white;stop-opacity:1;" />
      <stop
         id="stop6651"
         offset="1"
         style="stop-color:white;stop-opacity:0.45064378" />
    </linearGradient>
  </defs>
  <sodipodi:namedview
     id="base"
     pagecolor="#ffffff"
     bordercolor="#666666"
     borderopacity="1.0"
     inkscape:pageopacity="0.0"
     inkscape:pageshadow="2"
     inkscape:zoom="1"
     inkscape:cx="24"
     inkscape:cy="24"
     inkscape:document-units="px"
     inkscape:current-layer="layer1"
     inkscape:window-width="843"
     inkscape:window-height="556"
     inkscape:window-x="45"
     inkscape:window-y="24"
     showguides="true"
     inkscape:guide-bbox="true"
     width="48px"
     height="48px"
     showgrid="false"
     showborder="false"
     inkscape:showpageshadow="false" />
  <metadata
     id="metadata7">
    <rdf:RDF>
      <cc:Work
         rdf:about="">
        <dc:format>image/svg+xml</dc:format>
        <dc:type
           rdf:resource="http://purl.org/dc/dcmitype/StillImage" />
      </cc:Work>
    </rdf:RDF>
  </metadata>
  <g
     inkscape:label="Layer 1"
     inkscape:groupmode="layer"
     id="layer1">
    <path
       style="fill:url(#linearGradient5918);fill-opacity:1;fill-rule:evenodd;stroke:none;stroke-width:0.25pt;stroke-linecap:butt;stroke-linejoin:miter;stroke-opacity:1"
       d="M 36.479999,47 L 47.999999,39.799995 L 30,36 L 36.479999,47 z "
       id="path5910" />
    <path
       sodipodi:type="arc"
       style="opacity:1;color:black;fill:url(#radialGradient5902);fill-opacity:1;fill-rule:evenodd;stroke:none;stroke-width:2;stroke-linecap:round;stroke-linejoin:round;marker:none;marker-start:none;marker-mid:none;marker-end:none;stroke-miterlimit:4;stroke-dasharray:none;stroke-dashoffset:0;stroke-opacity:1;visibility:visible;display:inline;overflow:visible"
       id="path5894"
       sodipodi:cx="60.502419"
       sodipodi:cy="115.07005"
       sodipodi:rx="56.111115"
       sodipodi:ry="11.954107"
       d="M 116.61353 115.07005 A 56.111115 11.954107 0 1 1  4.391304,115.07005 A 56.111115 11.954107 0 1 1  116.61353 115.07005 z"
       transform="matrix(0.374257,0,0,0.375482,-1.643478,0.304713)" />
    <path
       style="fill:url(#linearGradient4946);fill-opacity:1;fill-rule:evenodd;stroke:#bababa;stroke-width:1.01816666;stroke-linecap:round;stroke-linejoin:round;stroke-miterlimit:4;stroke-dasharray:none;stroke-opacity:1"
       d="M 3.6381241,42.183118 C 4.3693547,30.869709 5.1005853,16.945515 3.5090833,3.543477 L 23.123274,1.5201175 C 26.564358,1.2807954 36.543511,4.9794104 36.543511,8.2428935 C 38.005971,22.03655 37.661861,34.785892 36.285427,46.490917 L 3.6381241,42.183118 z "
       id="path1306"
       sodipodi:nodetypes="cccccc" />
    <path
       style="fill:url(#linearGradient4943);fill-opacity:1;fill-rule:evenodd;stroke:none;stroke-width:0.25pt;stroke-linecap:butt;stroke-linejoin:miter;stroke-opacity:1"
       d="M 24.65333,3.0742622 C 22.414428,6.3406944 23.110009,11.250879 25.370648,13 C 29.152871,9.1645772 31.696091,7.1625709 36,7.8790784 C 33.706755,4.844458 28.690962,2.5526868 24.65333,3.0742622 z "
       id="path2039"
       sodipodi:nodetypes="cccc" />
    <path
       sodipodi:nodetypes="ccccc"
       id="path4826"
       d="M 8,10 L 32,9.34375 L 32,11.34375 L 8,11.34375 L 8,10 z "
       style="opacity:0.40167362;fill:black;fill-opacity:1;stroke:none;stroke-width:1;stroke-linecap:round;stroke-linejoin:round;stroke-miterlimit:4;stroke-dashoffset:0;stroke-opacity:1" />
    <path
       sodipodi:nodetypes="ccccc"
       id="path4828"
       d="M 8,15.04427 L 32,14.07552 L 32,16.07552 L 8,16.38802 L 8,15.04427 z "
       style="opacity:0.40167362;fill:black;fill-opacity:1;stroke:none;stroke-width:1;stroke-linecap:round;stroke-linejoin:round;stroke-miterlimit:4;stroke-dashoffset:0;stroke-opacity:1" />
    <path
       sodipodi:nodetypes="ccccc"
       id="path4830"
       d="M 8,19.901041 L 32,18.994791 L 32,20.994791 L 8,21.244791 L 8,19.901041 z "
       style="opacity:0.40167362;fill:black;fill-opacity:1;stroke:none;stroke-width:1;stroke-linecap:round;stroke-linejoin:round;stroke-miterlimit:4;stroke-dashoffset:0;stroke-opacity:1" />
    <path
       sodipodi:nodetypes="ccccc"
       id="path4832"
       d="M 8,24.664062 L 22,24.348238 L 22,26.007812 L 8,26.007812 L 8,24.664062 z "
       style="opacity:0.40167362;fill:black;fill-opacity:1;stroke:none;stroke-width:1;stroke-linecap:round;stroke-linejoin:round;stroke-miterlimit:4;stroke-dashoffset:0;stroke-opacity:1" />
    <path
       sodipodi:nodetypes="ccccc"
       id="path4834"
       d="M 8,29.239583 L 32,28.895833 L 32,30.895833 L 8,30.583333 L 8,29.239583 z "
       style="opacity:0.40167362;fill:black;fill-opacity:1;stroke:none;stroke-width:1;stroke-linecap:round;stroke-linejoin:round;stroke-miterlimit:4;stroke-dashoffset:0;stroke-opacity:1" />
    <path
       sodipodi:nodetypes="ccccc"
       id="path4836"
       d="M 8,33.643229 L 32,33.924479 L 32,35.924479 L 8,34.986979 L 8,33.643229 z "
       style="opacity:0.40167362;fill:black;fill-opacity:1;stroke:none;stroke-width:1;stroke-linecap:round;stroke-linejoin:round;stroke-miterlimit:4;stroke-dashoffset:0;stroke-opacity:1" />
    <path
       style="opacity:0.40167362;fill:black;fill-opacity:1;stroke:none;stroke-width:1;stroke-linecap:round;stroke-linejoin:round;stroke-miterlimit:4;stroke-dashoffset:0;stroke-opacity:1"
       d="M 8,38 L 22,38.918218 L 22,40.918218 L 8,39.34375 L 8,38 z "
       id="rect3950"
       sodipodi:nodetypes="ccccc" />
    <path
       style="fill:none;fill-opacity:1.0;fill-rule:evenodd;stroke:url(#linearGradient4826);stroke-width:0.96689165;stroke-linecap:round;stroke-linejoin:round;stroke-miterlimit:4;stroke-dasharray:none;stroke-opacity:1"
       d="M 4.6050865,41.395379 C 5.2943839,30.572095 5.9836814,17.251132 4.4834458,4.4297046 L 22.97284,2.494002 C 26.727951,2.265048 36.016642,5.8034297 35.623479,8.9255306 C 37.002072,22.121611 36.677695,34.318619 35.380195,45.516554 L 4.6050865,41.395379 z "
       id="path3945"
       sodipodi:nodetypes="cccccc" />
    <path
       style="fill:url(#linearGradient4940);fill-opacity:1;fill-rule:evenodd;stroke:none;stroke-width:1;stroke-linecap:butt;stroke-linejoin:miter;stroke-miterlimit:4;stroke-dasharray:none;stroke-opacity:1"
       d="M 22.352108,2.0552082 C 20.141837,5.3482383 20.828523,10.298406 23.060254,12.061771 C 26.79411,8.1951158 31.751128,7.069112 36,7.791454 C 35.023618,4.8595954 26.338108,1.5293855 22.352108,2.0552082 z "
       id="path2037"
       sodipodi:nodetypes="cccc" />
    <g
       id="g3993"
       inkscape:label="Layer 1"
       transform="matrix(0.560683,0,0,0.555198,12.54467,20.6722)">
      <path
         sodipodi:nodetypes="ccccccccccccccccccccccccccccccccccsscsc"
         id="path2041"
         d="M 26.652144,1.5112475 L 21.796106,7.0525055 L 18.086564,4.7695873 L 19.368083,5.7766843 L 15.819438,2.9965324 L 10.870013,6.1384844 L 11.561063,14.612231 L 4.5011297,16.459317 L 3.5112434,22.057704 L 9.5999721,26.703982 L 5.1548269,33.444895 L 8.8715658,38.395849 L 8.9028377,38.371935 L 12.868461,40.890366 L 17.164189,39.21466 L 18.845125,43.384887 L 18.906371,43.368057 L 22.860697,45.879405 L 29.715187,46.488752 L 32.217913,38.510102 L 39.296527,40.433356 L 42.583695,35.082518 L 38.810924,27.808425 L 44.488755,22.533756 L 42.975912,16.173685 L 38.974188,13.63644 L 38.979018,13.679167 L 35.803913,13.203114 L 35.841269,6.5764534 L 31.825695,4.0960546 L 31.825695,4.0819355 L 26.652144,1.5112475 z M 26.017124,18.820542 C 26.130398,18.820542 26.223032,18.888869 26.334635,18.896711 C 27.083756,20.018228 27.604676,21.381067 27.604676,22.914598 C 27.604674,26.544159 25.091549,29.484135 22.001553,29.484135 C 21.88196,29.484135 21.783134,29.416642 21.665367,29.407964 C 20.912901,28.290373 20.395323,26.942649 20.395323,25.409118 C 20.395325,21.779557 22.927122,18.820542 26.017124,18.820542 z "
         style="color:black;fill:#8f8f8f;fill-opacity:1;fill-rule:evenodd;stroke:#595959;stroke-width:1.83262444;stroke-linecap:round;stroke-linejoin:round;marker:none;marker-start:none;marker-mid:none;marker-end:none;stroke-miterlimit:4;stroke-dasharray:none;stroke-dashoffset:0;stroke-opacity:1;visibility:visible;display:inline;overflow:visible" />
      <path
         sodipodi:nodetypes="cccccccccccccccccccccccssss"
         id="path2043"
         d="M 26.710556,2.3915792 L 21.690687,8.1664301 L 16.248586,3.8515933 L 11.478929,6.9154199 L 12.151373,15.178471 L 5.3331091,16.979631 L 4.3791768,22.427154 L 10.243509,26.957904 L 5.9648819,33.538117 L 9.5460345,38.365966 L 16.17664,35.747788 L 19.179179,43.230955 L 25.803539,43.818241 L 28.211825,36.037977 L 35.03009,37.913412 L 38.204646,32.69562 L 34.576578,25.602395 L 40.049957,20.458878 L 38.595604,14.256948 L 31.667872,13.198534 L 31.699147,4.8983467 L 26.710556,2.3915792 z M 22.222384,16.837991 C 26.148985,16.837991 28.169317,19.723432 28.169317,23.262744 C 28.169316,26.802057 25.203138,30.15634 22.222384,30.15634 C 19.241635,30.156338 16.811562,26.802057 16.811562,23.262744 C 16.811564,19.723431 19.241635,16.837991 22.222384,16.837991 z "
         style="color:black;fill:url(#linearGradient4021);fill-opacity:1;fill-rule:evenodd;stroke:none;stroke-width:1.86331141;stroke-linecap:round;stroke-linejoin:round;marker:none;marker-start:none;marker-mid:none;marker-end:none;stroke-miterlimit:4;stroke-dashoffset:0;stroke-opacity:1;visibility:visible;display:inline;overflow:visible" />
      <path
         style="color:black;fill:url(#linearGradient4018);fill-opacity:1;fill-rule:evenodd;stroke:none;stroke-width:1.86331141;stroke-linecap:round;stroke-linejoin:round;marker:none;marker-start:none;marker-mid:none;marker-end:none;stroke-miterlimit:4;stroke-dashoffset:0;stroke-opacity:1;visibility:visible;display:inline;overflow:visible"
         d="M 26.704543,2.3915792 L 21.679871,8.1045484 L 16.245021,3.8384654 L 11.469385,6.8664895 L 12.143248,15.025743 L 5.3313753,16.815706 L 4.3791768,22.185598 L 4.9797938,22.648005 C 8.4910245,20.522772 13.144034,19.118829 18.325206,18.665334 C 19.311983,17.448525 20.682608,16.666542 22.221892,16.666542 C 24.315292,16.666542 25.814588,17.513157 26.807088,18.799583 C 31.028768,19.354278 34.798829,20.597172 37.837929,22.30493 L 40.049957,20.24647 L 38.585037,14.115843 L 31.65597,13.071699 L 31.699917,4.8676956 L 26.704543,2.3915792 z "
         id="path1317" />
      <path
         sodipodi:nodetypes="cccccccccccccccccccccccssss"
         id="path5772"
         d="M 26.479881,3.2629777 L 21.765214,8.9505095 L 16.105471,4.6731722 L 12.062736,7.1935099 L 13.032414,15.284336 L 5.9427123,17.462977 L 5.2420517,21.956464 L 11.091655,26.771554 L 6.657542,33.236965 L 9.8821518,37.79034 L 16.036352,35.042029 L 19.136647,42.379583 L 25.500627,42.94683 L 27.814252,35.432048 L 34.364509,37.243491 L 37.414287,32.203745 L 33.928827,25.352561 L 39.187065,20.384558 L 37.897764,14.723465 L 31.242339,13.701167 L 31.272384,5.5744718 L 26.479881,3.2629777 z M 22.060237,16.887227 C 25.832495,16.887227 27.773414,19.674208 27.773414,23.092748 C 27.773413,26.511287 24.923825,29.751113 22.060237,29.751113 C 19.19665,29.751111 16.862097,26.511287 16.862097,23.092748 C 16.862098,19.674207 19.19665,16.887227 22.060237,16.887227 z "
         style="color:black;fill:none;fill-opacity:1;fill-rule:evenodd;stroke:url(#linearGradient6653);stroke-width:1.73425519;stroke-linecap:round;stroke-linejoin:round;marker:none;marker-start:none;marker-mid:none;marker-end:none;stroke-miterlimit:4;stroke-dasharray:none;stroke-dashoffset:0;stroke-opacity:1;visibility:visible;display:inline;overflow:visible" />
    </g>
  </g>
</svg>
