<?xml version="1.0" encoding="UTF-8" standalone="no"?>
<!-- Created with Inkscape (http://www.inkscape.org/) -->
<svg
   xmlns:dc="http://purl.org/dc/elements/1.1/"
   xmlns:cc="http://web.resource.org/cc/"
   xmlns:rdf="http://www.w3.org/1999/02/22-rdf-syntax-ns#"
   xmlns:svg="http://www.w3.org/2000/svg"
   xmlns="http://www.w3.org/2000/svg"
   xmlns:xlink="http://www.w3.org/1999/xlink"
   xmlns:sodipodi="http://inkscape.sourceforge.net/DTD/sodipodi-0.dtd"
   xmlns:inkscape="http://www.inkscape.org/namespaces/inkscape"
   width="48"
   height="48"
   id="svg2"
   sodipodi:version="0.32"
   inkscape:version="0.43+devel"
   sodipodi:docbase="/home/silvestre/Desktop/Neu/scalable/mimetypes"
   sodipodi:docname="text-html.svg"
   version="1.0">
  <defs
     id="defs4">
    <linearGradient
       inkscape:collect="always"
       id="linearGradient4820">
      <stop
         style="stop-color:white;stop-opacity:1;"
         offset="0"
         id="stop4822" />
      <stop
         style="stop-color:white;stop-opacity:0.57939917"
         offset="1"
         id="stop4824" />
    </linearGradient>
    <linearGradient
       id="linearGradient4957">
      <stop
         id="stop4959"
         offset="0"
         style="stop-color:#ffffff;stop-opacity:1;" />
      <stop
         id="stop4961"
         offset="1.0000000"
         style="stop-color:#d0d0d0;stop-opacity:1" />
    </linearGradient>
    <linearGradient
       inkscape:collect="always"
       id="linearGradient5912">
      <stop
         style="stop-color:#000000;stop-opacity:1;"
         offset="0"
         id="stop5914" />
      <stop
         style="stop-color:#000000;stop-opacity:0;"
         offset="1"
         id="stop5916" />
    </linearGradient>
    <linearGradient
       id="linearGradient5904">
      <stop
         id="stop5906"
         offset="0.0000000"
         style="stop-color:#000000;stop-opacity:0.19791669;" />
      <stop
         id="stop5908"
         offset="1"
         style="stop-color:#000000;stop-opacity:0;" />
    </linearGradient>
    <linearGradient
       id="linearGradient2057">
      <stop
         style="stop-color:#f0f0f0;stop-opacity:1;"
         offset="0"
         id="stop2059" />
      <stop
         style="stop-color:#dddddd;stop-opacity:1.0000000;"
         offset="1.0000000"
         id="stop2061" />
    </linearGradient>
    <linearGradient
       inkscape:collect="always"
       id="linearGradient2049">
      <stop
         style="stop-color:#0a0a0a;stop-opacity:1;"
         offset="0"
         id="stop2051" />
      <stop
         style="stop-color:#0a0a0a;stop-opacity:0;"
         offset="1"
         id="stop2053" />
    </linearGradient>
    <radialGradient
       inkscape:collect="always"
       xlink:href="#linearGradient5904"
       id="radialGradient5902"
       cx="60.502419"
       cy="115.07005"
       fx="60.502419"
       fy="115.07005"
       r="56.111115"
       gradientTransform="matrix(1,0,0,0.213043,-2.766884e-16,90.55513)"
       gradientUnits="userSpaceOnUse" />
    <linearGradient
       inkscape:collect="always"
       xlink:href="#linearGradient5912"
       id="linearGradient5918"
       x1="71.236717"
       y1="152.15218"
       x2="88.314011"
       y2="99.212555"
       gradientUnits="userSpaceOnUse"
       gradientTransform="matrix(0.368911,0,0,0.409902,1.019997,-3.067345)" />
    <linearGradient
       inkscape:collect="always"
       xlink:href="#linearGradient4957"
       id="linearGradient4940"
       gradientUnits="userSpaceOnUse"
       x1="81.89402"
       y1="22.461552"
       x2="84.654594"
       y2="10.41062"
       gradientTransform="matrix(0.373185,0,0,0.36947,-1.509613,-0.729184)" />
    <linearGradient
       inkscape:collect="always"
       xlink:href="#linearGradient2049"
       id="linearGradient4943"
       gradientUnits="userSpaceOnUse"
       gradientTransform="matrix(0.378019,0,0,0.366486,-1.594096,-1.346996)"
       x1="69.606209"
       y1="-2.7867124"
       x2="82.63073"
       y2="34.12973" />
    <linearGradient
       inkscape:collect="always"
       xlink:href="#linearGradient2057"
       id="linearGradient4946"
       gradientUnits="userSpaceOnUse"
       x1="57.903072"
       y1="65.225105"
       x2="85.99958"
       y2="114.99323"
       gradientTransform="matrix(0.374016,0,0,0.37836,-1.630407,-0.678575)" />
    <linearGradient
       inkscape:collect="always"
       xlink:href="#linearGradient4820"
       id="linearGradient4826"
       x1="7.9148936"
       y1="3.8297873"
       x2="7.9148936"
       y2="41.371349"
       gradientUnits="userSpaceOnUse" />
    <linearGradient
       gradientUnits="userSpaceOnUse"
       y2="21.705061"
       x2="83.525612"
       y1="367.82727"
       x1="29.183714"
       id="linearGradient6540"
       xlink:href="#linearGradient6534"
       inkscape:collect="always" />
    <radialGradient
       gradientUnits="userSpaceOnUse"
       gradientTransform="matrix(0.91358,2.206993e-7,-4.100829e-8,0.169753,4.848958,95.59596)"
       r="54.105412"
       fy="136.4689"
       fx="56.109314"
       cy="115.14162"
       cx="56.109314"
       id="radialGradient6525"
       xlink:href="#linearGradient6519"
       inkscape:collect="always" />
    <linearGradient
       id="linearGradient2087">
      <stop
         id="stop2089"
         offset="0"
         style="stop-color:#5ab9ff;stop-opacity:1;" />
      <stop
         style="stop-color:#007be4;stop-opacity:1;"
         offset="0.0000000"
         id="stop2816" />
      <stop
         id="stop2818"
         offset="0.75"
         style="stop-color:#005eb5;stop-opacity:1;" />
      <stop
         id="stop2091"
         offset="1"
         style="stop-color:#004d9b;stop-opacity:1;" />
    </linearGradient>
    <linearGradient
       id="linearGradient4308">
      <stop
         id="stop4310"
         offset="0.0000000"
         style="stop-color:#ffffff;stop-opacity:0.22916669;" />
      <stop
         id="stop4312"
         offset="1"
         style="stop-color:#ffffff;stop-opacity:0;" />
    </linearGradient>
    <linearGradient
       id="linearGradient5044"
       inkscape:collect="always">
      <stop
         id="stop5046"
         offset="0"
         style="stop-color:#ffffff;stop-opacity:1;" />
      <stop
         id="stop5048"
         offset="1"
         style="stop-color:#ffffff;stop-opacity:0;" />
    </linearGradient>
    <linearGradient
       id="linearGradient6519"
       inkscape:collect="always">
      <stop
         id="stop6521"
         offset="0"
         style="stop-color:black;stop-opacity:0.39215687" />
      <stop
         id="stop6523"
         offset="1"
         style="stop-color:#000000;stop-opacity:0;" />
    </linearGradient>
    <linearGradient
       id="linearGradient6534"
       inkscape:collect="always">
      <stop
         id="stop6536"
         offset="0"
         style="stop-color:#000000;stop-opacity:0.39600000" />
      <stop
         id="stop6538"
         offset="1"
         style="stop-color:#000000;stop-opacity:0;" />
    </linearGradient>
    <linearGradient
       id="linearGradient4206"
       inkscape:collect="always">
      <stop
         id="stop4208"
         offset="0"
         style="stop-color:#ffffff;stop-opacity:1;" />
      <stop
         id="stop4210"
         offset="1"
         style="stop-color:#ffffff;stop-opacity:0.36909872" />
    </linearGradient>
    <linearGradient
       inkscape:collect="always"
       xlink:href="#linearGradient5044"
       id="linearGradient4034"
       gradientUnits="userSpaceOnUse"
       gradientTransform="matrix(0.243228,0,0,0.247116,10.63447,15.79022)"
       x1="70.848709"
       y1="-18.184502"
       x2="67.070114"
       y2="69.195572" />
    <radialGradient
       inkscape:collect="always"
       xlink:href="#linearGradient2087"
       id="radialGradient4042"
       gradientUnits="userSpaceOnUse"
       gradientTransform="matrix(1.119035,5.340557e-16,-5.627992e-16,1.119035,-6.268888,-7.140347)"
       cx="52.664207"
       cy="59.985241"
       fx="52.664207"
       fy="59.985241"
       r="56.442806" />
    <linearGradient
       inkscape:collect="always"
       xlink:href="#linearGradient4206"
       id="linearGradient4044"
       gradientUnits="userSpaceOnUse"
       x1="59.64286"
       y1="14.832381"
       x2="59.64286"
       y2="121.82737" />
    <radialGradient
       inkscape:collect="always"
       xlink:href="#linearGradient4308"
       id="radialGradient4046"
       gradientUnits="userSpaceOnUse"
       gradientTransform="matrix(0.682499,6.91885e-17,-7.291221e-17,0.682499,23.05181,36.74932)"
       cx="64.841805"
       cy="119.52609"
       fx="64.841805"
       fy="119.52609"
       r="56.442806" />
  </defs>
  <sodipodi:namedview
     id="base"
     pagecolor="#ffffff"
     bordercolor="#666666"
     borderopacity="1.0"
     inkscape:pageopacity="0.0"
     inkscape:pageshadow="2"
     inkscape:zoom="1"
     inkscape:cx="24"
     inkscape:cy="24"
     inkscape:document-units="px"
     inkscape:current-layer="layer1"
     inkscape:window-width="823"
     inkscape:window-height="536"
     inkscape:window-x="110"
     inkscape:window-y="49"
     showguides="true"
     inkscape:guide-bbox="true"
     width="48px"
     height="48px"
     showgrid="false"
     showborder="false"
     inkscape:showpageshadow="false" />
  <metadata
     id="metadata7">
    <rdf:RDF>
      <cc:Work
         rdf:about="">
        <dc:format>image/svg+xml</dc:format>
        <dc:type
           rdf:resource="http://purl.org/dc/dcmitype/StillImage" />
      </cc:Work>
    </rdf:RDF>
  </metadata>
  <g
     inkscape:label="Layer 1"
     inkscape:groupmode="layer"
     id="layer1">
    <path
       style="fill:url(#linearGradient5918);fill-opacity:1;fill-rule:evenodd;stroke:none;stroke-width:0.25pt;stroke-linecap:butt;stroke-linejoin:miter;stroke-opacity:1"
       d="M 36.479999,47 L 47.999999,39.799995 L 30,36 L 36.479999,47 z "
       id="path5910" />
    <path
       sodipodi:type="arc"
       style="opacity:1;color:black;fill:url(#radialGradient5902);fill-opacity:1;fill-rule:evenodd;stroke:none;stroke-width:2;stroke-linecap:round;stroke-linejoin:round;marker:none;marker-start:none;marker-mid:none;marker-end:none;stroke-miterlimit:4;stroke-dasharray:none;stroke-dashoffset:0;stroke-opacity:1;visibility:visible;display:inline;overflow:visible"
       id="path5894"
       sodipodi:cx="60.502419"
       sodipodi:cy="115.07005"
       sodipodi:rx="56.111115"
       sodipodi:ry="11.954107"
       d="M 116.61353 115.07005 A 56.111115 11.954107 0 1 1  4.391304,115.07005 A 56.111115 11.954107 0 1 1  116.61353 115.07005 z"
       transform="matrix(0.374257,0,0,0.375482,-1.643478,0.304713)" />
    <path
       style="fill:url(#linearGradient4946);fill-opacity:1;fill-rule:evenodd;stroke:#bababa;stroke-width:1.01816666;stroke-linecap:round;stroke-linejoin:round;stroke-miterlimit:4;stroke-dasharray:none;stroke-opacity:1"
       d="M 3.6381241,42.183118 C 4.3693547,30.869709 5.1005853,16.945515 3.5090833,3.543477 L 23.123274,1.5201175 C 26.564358,1.2807954 36.543511,4.9794104 36.543511,8.2428935 C 38.005971,22.03655 37.661861,34.785892 36.285427,46.490917 L 3.6381241,42.183118 z "
       id="path1306"
       sodipodi:nodetypes="cccccc" />
    <path
       style="fill:url(#linearGradient4943);fill-opacity:1;fill-rule:evenodd;stroke:none;stroke-width:0.25pt;stroke-linecap:butt;stroke-linejoin:miter;stroke-opacity:1"
       d="M 24.65333,3.0742622 C 22.414428,6.3406944 23.110009,11.250879 25.370648,13 C 29.152871,9.1645772 31.696091,7.1625709 36,7.8790784 C 33.706755,4.844458 28.690962,2.5526868 24.65333,3.0742622 z "
       id="path2039"
       sodipodi:nodetypes="cccc" />
    <path
       sodipodi:nodetypes="ccccc"
       id="path4826"
       d="M 8,10 L 32,9.34375 L 32,11.34375 L 8,11.34375 L 8,10 z "
       style="opacity:0.40167362;fill:black;fill-opacity:1;stroke:none;stroke-width:1;stroke-linecap:round;stroke-linejoin:round;stroke-miterlimit:4;stroke-dashoffset:0;stroke-opacity:1" />
    <path
       sodipodi:nodetypes="ccccc"
       id="path4828"
       d="M 8,15.04427 L 32,14.07552 L 32,16.07552 L 8,16.38802 L 8,15.04427 z "
       style="opacity:0.40167362;fill:black;fill-opacity:1;stroke:none;stroke-width:1;stroke-linecap:round;stroke-linejoin:round;stroke-miterlimit:4;stroke-dashoffset:0;stroke-opacity:1" />
    <path
       sodipodi:nodetypes="ccccc"
       id="path4830"
       d="M 8,19.901041 L 32,18.994791 L 32,20.994791 L 8,21.244791 L 8,19.901041 z "
       style="opacity:0.40167362;fill:black;fill-opacity:1;stroke:none;stroke-width:1;stroke-linecap:round;stroke-linejoin:round;stroke-miterlimit:4;stroke-dashoffset:0;stroke-opacity:1" />
    <path
       sodipodi:nodetypes="ccccc"
       id="path4832"
       d="M 8,24.664062 L 22,24.348238 L 22,26.007812 L 8,26.007812 L 8,24.664062 z "
       style="opacity:0.40167362;fill:black;fill-opacity:1;stroke:none;stroke-width:1;stroke-linecap:round;stroke-linejoin:round;stroke-miterlimit:4;stroke-dashoffset:0;stroke-opacity:1" />
    <path
       sodipodi:nodetypes="ccccc"
       id="path4834"
       d="M 8,29.239583 L 32,28.895833 L 32,30.895833 L 8,30.583333 L 8,29.239583 z "
       style="opacity:0.40167362;fill:black;fill-opacity:1;stroke:none;stroke-width:1;stroke-linecap:round;stroke-linejoin:round;stroke-miterlimit:4;stroke-dashoffset:0;stroke-opacity:1" />
    <path
       sodipodi:nodetypes="ccccc"
       id="path4836"
       d="M 8,33.643229 L 32,33.924479 L 32,35.924479 L 8,34.986979 L 8,33.643229 z "
       style="opacity:0.40167362;fill:black;fill-opacity:1;stroke:none;stroke-width:1;stroke-linecap:round;stroke-linejoin:round;stroke-miterlimit:4;stroke-dashoffset:0;stroke-opacity:1" />
    <path
       style="opacity:0.40167362;fill:black;fill-opacity:1;stroke:none;stroke-width:1;stroke-linecap:round;stroke-linejoin:round;stroke-miterlimit:4;stroke-dashoffset:0;stroke-opacity:1"
       d="M 8,38 L 22,38.918218 L 22,40.918218 L 8,39.34375 L 8,38 z "
       id="rect3950"
       sodipodi:nodetypes="ccccc" />
    <path
       style="fill:none;fill-opacity:1.0;fill-rule:evenodd;stroke:url(#linearGradient4826);stroke-width:0.96689165;stroke-linecap:round;stroke-linejoin:round;stroke-miterlimit:4;stroke-dasharray:none;stroke-opacity:1"
       d="M 4.6050865,41.395379 C 5.2943839,30.572095 5.9836814,17.251132 4.4834458,4.4297046 L 22.97284,2.494002 C 26.727951,2.265048 36.016642,5.8034297 35.623479,8.9255306 C 37.002072,22.121611 36.677695,34.318619 35.380195,45.516554 L 4.6050865,41.395379 z "
       id="path3945"
       sodipodi:nodetypes="cccccc" />
    <path
       style="fill:url(#linearGradient4940);fill-opacity:1;fill-rule:evenodd;stroke:none;stroke-width:1;stroke-linecap:butt;stroke-linejoin:miter;stroke-miterlimit:4;stroke-dasharray:none;stroke-opacity:1"
       d="M 22.352108,2.0552082 C 20.141837,5.3482383 20.828523,10.298406 23.060254,12.061771 C 26.79411,8.1951158 31.751128,7.069112 36,7.791454 C 35.023618,4.8595954 26.338108,1.5293855 22.352108,2.0552082 z "
       id="path2037"
       sodipodi:nodetypes="cccc" />
    <path
       sodipodi:type="arc"
       style="color:black;fill:url(#linearGradient6540);fill-opacity:1;fill-rule:evenodd;stroke:none;stroke-width:3;stroke-linecap:round;stroke-linejoin:round;marker:none;marker-start:none;marker-mid:none;marker-end:none;stroke-miterlimit:4;stroke-dasharray:none;stroke-dashoffset:0;stroke-opacity:1;visibility:visible;display:inline;overflow:visible"
       id="path6532"
       sodipodi:cx="67.306274"
       sodipodi:cy="70.848709"
       sodipodi:rx="56.442806"
       sodipodi:ry="56.442806"
       d="M 123.74908 70.848709 A 56.442806 56.442806 0 1 1  10.863468,70.848709 A 56.442806 56.442806 0 1 1  123.74908 70.848709 z"
       transform="matrix(0.231247,0,-6.257086e-2,6.865345e-2,18.34429,37.31307)" />
    <path
       sodipodi:type="arc"
       style="color:black;fill:url(#radialGradient6525);fill-opacity:1;fill-rule:evenodd;stroke:none;stroke-width:3;stroke-linecap:round;stroke-linejoin:round;marker:none;marker-start:none;marker-mid:none;marker-end:none;stroke-miterlimit:4;stroke-dasharray:none;stroke-dashoffset:0;stroke-opacity:1;visibility:visible;display:inline;overflow:visible"
       id="path5065"
       sodipodi:cx="56.109314"
       sodipodi:cy="115.14162"
       sodipodi:rx="54.105412"
       sodipodi:ry="9.1845608"
       d="M 110.21473 115.14162 A 54.105412 9.1845608 0 1 1  2.0039024,115.14162 A 54.105412 9.1845608 0 1 1  110.21473 115.14162 z"
       transform="matrix(0.250668,0,0,0.351587,11.49769,4.278175)" />
    <path
       sodipodi:type="arc"
       style="color:black;fill:url(#radialGradient4042);fill-opacity:1;fill-rule:evenodd;stroke:#164196;stroke-width:4.1809535;stroke-linecap:round;stroke-linejoin:round;marker:none;marker-start:none;marker-mid:none;marker-end:none;stroke-miterlimit:4;stroke-dasharray:none;stroke-dashoffset:0;stroke-opacity:1;visibility:visible;display:inline;overflow:visible"
       id="path1359"
       sodipodi:cx="67.306274"
       sodipodi:cy="70.848709"
       sodipodi:rx="56.442806"
       sodipodi:ry="56.442806"
       d="M 123.74908 70.848709 A 56.442806 56.442806 0 1 1  10.863468,70.848709 A 56.442806 56.442806 0 1 1  123.74908 70.848709 z"
       transform="matrix(0.23918,0,0,0.23918,9.90167,15.0544)" />
    <g
       id="g2125"
       inkscape:label="Layer 1"
       transform="matrix(0.236785,0,0,0.243071,9.320721,15.52948)"
       style="fill:#dae7f5;fill-opacity:1">
      <path
         d="M 68.095711,15.455708 C 63.486211,16.461808 58.558011,16.712038 54.442411,19.236058 C 52.848311,19.366288 46.408311,21.892818 50.706411,22.331538 C 53.368611,21.575958 54.605811,18.807748 57.578111,19.039898 C 60.769111,18.090538 64.051011,16.960998 67.529711,16.296418 C 67.888811,16.129528 67.896111,15.733868 68.095711,15.455708 z M 74.881611,16.348898 C 72.579011,18.997088 67.269511,18.828728 66.952211,23.142298 C 68.037411,24.633818 73.377211,17.613778 74.947411,21.950378 C 75.256711,24.857868 73.319011,28.527882 69.962111,26.633232 C 68.333311,26.497262 66.304911,26.832062 66.372611,25.374442 C 65.527211,27.512782 58.792211,31.650712 61.157911,27.040162 C 62.386411,26.116862 59.438911,25.948982 61.463711,24.362918 C 63.255711,22.543288 57.568911,22.714808 59.722111,24.677648 C 58.474611,26.397732 57.912311,28.227272 55.460511,28.526582 C 57.553211,28.293062 59.728511,27.954602 58.123111,30.188332 C 59.334811,34.740872 51.727411,32.363842 50.793911,35.724322 C 48.027611,40.175402 54.936911,39.940022 56.909211,37.746942 C 56.576211,33.630832 60.812011,34.845712 63.034611,34.439362 C 65.369511,32.706172 67.834911,38.067852 68.990511,39.984502 C 70.505411,40.783952 72.167811,37.651162 69.860511,36.841012 C 70.134311,35.302352 65.179711,32.698312 68.315511,32.586112 C 70.411411,33.700802 71.590511,36.010122 71.985711,37.513862 C 76.163011,37.324662 70.268811,42.152312 74.278111,40.683952 C 76.818611,40.229202 74.004411,35.992172 77.376811,37.653782 C 81.639111,39.290502 75.913211,32.153982 80.779211,32.123812 C 83.039811,30.788912 81.826911,36.763032 83.218911,33.842812 C 84.009211,29.112122 90.337111,35.607102 87.453211,37.501232 C 83.786611,36.481532 80.093511,36.184062 78.505411,40.312932 C 78.283911,42.257242 83.845511,37.507732 83.196811,40.975752 C 84.369211,44.653572 78.594311,45.323392 76.415811,44.049152 C 74.413011,41.638192 72.547711,43.885102 71.057011,44.982102 C 68.733311,44.657332 61.002611,44.043202 64.270711,40.579652 C 65.135111,36.963522 59.756611,40.250492 57.799111,39.435832 C 55.327511,40.774802 51.519411,39.589012 49.543511,41.585652 C 49.261011,43.901002 45.557911,42.624462 44.951611,45.410672 C 43.552311,48.582382 38.914711,49.641612 38.797911,53.041372 C 38.664911,56.841112 36.875111,60.298752 38.862711,64.042252 C 39.340711,67.871032 42.967611,70.239762 46.678711,69.340392 C 48.827411,69.294192 50.843211,71.982782 52.354611,68.740642 C 54.790111,64.728422 57.280711,70.976962 60.333811,69.354492 C 62.848111,72.250542 58.230811,75.695642 62.172011,77.723172 C 65.476511,81.223952 64.494711,86.086302 63.051011,90.151212 C 63.073311,93.424482 67.370211,95.128412 67.291511,98.372682 C 66.963311,103.01599 71.142011,107.08971 75.701311,104.8457 C 78.656311,104.01268 79.852811,100.50346 82.882211,99.693132 C 85.181311,97.752552 84.181911,92.083342 88.379011,91.945372 C 94.106511,90.029932 89.997511,83.182612 91.558411,79.305892 C 93.847911,76.601452 94.819711,72.598872 98.326811,71.100952 C 101.03751,68.727402 99.248011,63.943472 101.99751,61.255132 C 99.668611,63.050432 95.749511,64.621072 93.200011,62.440412 C 89.254311,59.017572 86.009611,54.736032 83.997511,49.906762 C 83.055911,47.771592 83.115611,43.477702 85.449911,43.497812 C 85.817611,47.978652 88.987211,51.588012 91.198911,55.308192 C 93.315311,57.726022 94.791311,61.516902 98.718711,60.249612 C 102.03681,59.124782 106.58541,56.926032 106.65831,52.992012 C 106.34851,48.537072 98.404211,52.697512 96.837011,48.151762 C 93.702411,46.284232 98.970311,43.199692 99.920211,46.662362 C 101.95451,48.737762 105.60331,47.640872 107.09931,50.445202 C 110.12741,49.091592 112.55011,50.044282 113.79761,53.221172 C 116.46661,55.864162 117.18901,59.869312 117.08971,63.491172 C 120.59221,66.905742 119.51571,58.522802 120.44171,56.461582 C 120.58121,54.506582 120.77871,52.098812 121.60211,55.296412 C 124.16491,56.524612 122.37911,51.302992 121.79401,50.127442 C 117.29941,39.859142 115.85481,37.977962 110.92461,32.066622 C 102.78801,24.086108 96.176311,20.680428 87.168211,17.710448 C 86.513311,20.909408 82.513311,18.093478 80.605411,20.772388 C 78.603611,22.285428 78.593611,22.092358 79.997111,20.083158 C 78.977811,18.255358 76.663011,17.381328 74.881611,16.348898 z M 60.688911,19.921598 C 58.688211,18.974608 53.731811,22.100338 58.169911,21.889438 C 59.424811,22.150878 59.843611,20.521148 60.688911,19.921598 z M 57.856911,24.605318 C 56.259711,25.216078 52.466411,26.291502 55.819211,27.007762 C 56.779211,26.556982 57.404611,25.522522 57.856911,24.605318 z M 67.006411,38.220812 C 64.577611,39.439302 66.847411,41.861232 68.129411,39.556922 C 67.825011,39.051922 67.347611,38.695842 67.006411,38.220812 z M 121.79521,64.144722 C 118.22811,66.576012 126.02081,68.405742 121.79521,64.144722 z M 19.842411,70.353382 C 19.635411,74.810072 20.779511,79.508172 21.774611,84.314712 C 23.058611,86.588942 23.922211,91.246432 25.399911,91.904112 C 26.939611,88.372732 23.772911,84.422972 25.619511,80.769462 C 23.396511,79.020922 26.387711,75.145152 22.774111,74.088722 C 21.636811,72.976622 20.789611,71.620202 19.842411,70.353382 z M 98.049811,84.731342 C 97.681211,88.846072 92.078511,89.812412 93.123211,93.982862 C 94.121311,96.169162 92.634011,96.330502 92.404411,98.102602 C 94.464411,99.682972 96.215411,94.538442 97.794211,93.141772 C 98.162411,91.108522 102.96401,84.254842 98.049811,84.731342 z "
         style="fill:#dae7f5;fill-opacity:1;fill-rule:evenodd;stroke:none;stroke-width:1pt;stroke-linecap:butt;stroke-linejoin:miter;stroke-opacity:1"
         id="path4290" />
    </g>
    <path
       sodipodi:type="arc"
       style="color:black;fill:url(#radialGradient4046);fill-opacity:1;fill-rule:evenodd;stroke:none;stroke-width:3;stroke-linecap:round;stroke-linejoin:round;marker:none;marker-start:none;marker-mid:none;marker-end:none;stroke-miterlimit:4;stroke-dasharray:none;stroke-dashoffset:0;stroke-opacity:1;visibility:visible;display:inline;overflow:visible"
       id="path2854"
       sodipodi:cx="67.306274"
       sodipodi:cy="70.848709"
       sodipodi:rx="56.442806"
       sodipodi:ry="56.442806"
       d="M 123.74908 70.848709 A 56.442806 56.442806 0 1 1  10.863468,70.848709 A 56.442806 56.442806 0 1 1  123.74908 70.848709 z"
       transform="matrix(0.230322,0,0,0.230322,10.49791,15.682)" />
    <path
       style="color:black;fill:url(#linearGradient4034);fill-opacity:1;fill-rule:evenodd;stroke:none;stroke-width:3;stroke-linecap:round;stroke-linejoin:round;marker:none;marker-start:none;marker-mid:none;marker-end:none;stroke-miterlimit:4;stroke-dashoffset:0;stroke-opacity:1;visibility:visible;display:inline;overflow:visible"
       d="M 37,26.411669 C 37,30.502911 32.072,33.82334 26,33.82334 C 19.927999,33.82334 15,30.502911 15,26.411669 C 15,23.214036 20.391033,19 26,19 C 32.270611,19 37,23.39943 37,26.411669 z "
       id="path4316"
       sodipodi:nodetypes="csssc" />
    <path
       sodipodi:type="arc"
       style="color:black;fill:none;fill-opacity:1;fill-rule:evenodd;stroke:url(#linearGradient4044);stroke-width:4.51542521;stroke-linecap:round;stroke-linejoin:round;marker:none;marker-start:none;marker-mid:none;marker-end:none;stroke-miterlimit:4;stroke-dasharray:none;stroke-dashoffset:0;stroke-opacity:0.79399139;visibility:visible;display:inline;overflow:visible"
       id="path3331"
       sodipodi:cx="67.306274"
       sodipodi:cy="70.848709"
       sodipodi:rx="56.442806"
       sodipodi:ry="56.442806"
       d="M 123.74908 70.848709 A 56.442806 56.442806 0 1 1  10.863468,70.848709 A 56.442806 56.442806 0 1 1  123.74908 70.848709 z"
       transform="matrix(0.221463,0,0,0.221463,11.09414,16.30962)" />
  </g>
</svg>
