<?xml version="1.0" encoding="UTF-8" standalone="no"?>
<!-- Created with Inkscape (http://www.inkscape.org/) -->
<svg
   xmlns:dc="http://purl.org/dc/elements/1.1/"
   xmlns:cc="http://web.resource.org/cc/"
   xmlns:rdf="http://www.w3.org/1999/02/22-rdf-syntax-ns#"
   xmlns:svg="http://www.w3.org/2000/svg"
   xmlns="http://www.w3.org/2000/svg"
   xmlns:xlink="http://www.w3.org/1999/xlink"
   xmlns:sodipodi="http://inkscape.sourceforge.net/DTD/sodipodi-0.dtd"
   xmlns:inkscape="http://www.inkscape.org/namespaces/inkscape"
   width="48"
   height="48"
   id="svg2"
   sodipodi:version="0.32"
   inkscape:version="0.43+devel"
   sodipodi:docbase="/home/silvestre/Neu/scalable/mimetypes"
   sodipodi:docname="x-office-spreadsheet.svg"
   version="1.0">
  <defs
     id="defs4">
    <linearGradient
       inkscape:collect="always"
       id="linearGradient3962">
      <stop
         style="stop-color:#8f2f2f;stop-opacity:1;"
         offset="0"
         id="stop3964" />
      <stop
         style="stop-color:#85b00e;stop-opacity:1"
         offset="1"
         id="stop3966" />
    </linearGradient>
    <linearGradient
       inkscape:collect="always"
       id="linearGradient4820">
      <stop
         style="stop-color:white;stop-opacity:1;"
         offset="0"
         id="stop4822" />
      <stop
         style="stop-color:white;stop-opacity:0.57939917"
         offset="1"
         id="stop4824" />
    </linearGradient>
    <linearGradient
       id="linearGradient4957">
      <stop
         id="stop4959"
         offset="0"
         style="stop-color:#ffffff;stop-opacity:1;" />
      <stop
         id="stop4961"
         offset="1.0000000"
         style="stop-color:#d0d0d0;stop-opacity:1" />
    </linearGradient>
    <linearGradient
       inkscape:collect="always"
       id="linearGradient5912">
      <stop
         style="stop-color:#000000;stop-opacity:1;"
         offset="0"
         id="stop5914" />
      <stop
         style="stop-color:#000000;stop-opacity:0;"
         offset="1"
         id="stop5916" />
    </linearGradient>
    <linearGradient
       id="linearGradient5904">
      <stop
         id="stop5906"
         offset="0.0000000"
         style="stop-color:#000000;stop-opacity:0.19791669;" />
      <stop
         id="stop5908"
         offset="1"
         style="stop-color:#000000;stop-opacity:0;" />
    </linearGradient>
    <linearGradient
       id="linearGradient2057">
      <stop
         style="stop-color:#f0f0f0;stop-opacity:1;"
         offset="0"
         id="stop2059" />
      <stop
         style="stop-color:#dddddd;stop-opacity:1.0000000;"
         offset="1.0000000"
         id="stop2061" />
    </linearGradient>
    <linearGradient
       inkscape:collect="always"
       id="linearGradient2049">
      <stop
         style="stop-color:#0a0a0a;stop-opacity:1;"
         offset="0"
         id="stop2051" />
      <stop
         style="stop-color:#0a0a0a;stop-opacity:0;"
         offset="1"
         id="stop2053" />
    </linearGradient>
    <radialGradient
       inkscape:collect="always"
       xlink:href="#linearGradient5904"
       id="radialGradient5902"
       cx="60.502419"
       cy="115.07005"
       fx="60.502419"
       fy="115.07005"
       r="56.111115"
       gradientTransform="matrix(1,0,0,0.213043,-2.766884e-16,90.55513)"
       gradientUnits="userSpaceOnUse" />
    <linearGradient
       inkscape:collect="always"
       xlink:href="#linearGradient5912"
       id="linearGradient5918"
       x1="71.236717"
       y1="152.15218"
       x2="88.314011"
       y2="99.212555"
       gradientUnits="userSpaceOnUse"
       gradientTransform="matrix(0.368911,0,0,0.409902,1.019997,-3.067345)" />
    <linearGradient
       inkscape:collect="always"
       xlink:href="#linearGradient4957"
       id="linearGradient4940"
       gradientUnits="userSpaceOnUse"
       x1="81.89402"
       y1="22.461552"
       x2="84.654594"
       y2="10.41062"
       gradientTransform="matrix(0.373185,0,0,0.36947,-1.509613,-0.729184)" />
    <linearGradient
       inkscape:collect="always"
       xlink:href="#linearGradient2049"
       id="linearGradient4943"
       gradientUnits="userSpaceOnUse"
       gradientTransform="matrix(0.378019,0,0,0.366486,-1.594096,-1.346996)"
       x1="69.606209"
       y1="-2.7867124"
       x2="82.63073"
       y2="34.12973" />
    <linearGradient
       inkscape:collect="always"
       xlink:href="#linearGradient2057"
       id="linearGradient4946"
       gradientUnits="userSpaceOnUse"
       x1="57.903072"
       y1="65.225105"
       x2="85.99958"
       y2="114.99323"
       gradientTransform="matrix(0.374016,0,0,0.37836,-1.630407,-0.678575)" />
    <linearGradient
       inkscape:collect="always"
       xlink:href="#linearGradient4820"
       id="linearGradient4826"
       x1="7.9148936"
       y1="3.8297873"
       x2="7.9148936"
       y2="41.371349"
       gradientUnits="userSpaceOnUse" />
    <linearGradient
       inkscape:collect="always"
       id="linearGradient9284">
      <stop
         style="stop-color:white;stop-opacity:1;"
         offset="0"
         id="stop9286" />
      <stop
         style="stop-color:white;stop-opacity:0.26666668"
         offset="1"
         id="stop9288" />
    </linearGradient>
    <linearGradient
       id="linearGradient9292"
       inkscape:collect="always">
      <stop
         id="stop9294"
         offset="0"
         style="stop-color:white;stop-opacity:0.68669528" />
      <stop
         id="stop9296"
         offset="1"
         style="stop-color:white;stop-opacity:0;" />
    </linearGradient>
    <linearGradient
       inkscape:collect="always"
       xlink:href="#linearGradient9284"
       id="linearGradient5974"
       gradientUnits="userSpaceOnUse"
       gradientTransform="matrix(0.97561,0,0,1,21.27516,3)"
       x1="9.3277912"
       y1="6.2957444"
       x2="-3.6651816"
       y2="23.701391" />
    <radialGradient
       inkscape:collect="always"
       xlink:href="#linearGradient9292"
       id="radialGradient5976"
       gradientUnits="userSpaceOnUse"
       gradientTransform="matrix(1,0,0,1.125464,0,-2.760206)"
       cx="18.93944"
       cy="17.668877"
       fx="18.93944"
       fy="17.668877"
       r="9.7737475" />
    <linearGradient
       inkscape:collect="always"
       xlink:href="#linearGradient3962"
       id="linearGradient3968"
       x1="35.28125"
       y1="18.87501"
       x2="24.256372"
       y2="33.163246"
       gradientUnits="userSpaceOnUse" />
  </defs>
  <sodipodi:namedview
     id="base"
     pagecolor="#ffffff"
     bordercolor="#666666"
     borderopacity="1.0"
     inkscape:pageopacity="0.0"
     inkscape:pageshadow="2"
     inkscape:zoom="1"
     inkscape:cx="24"
     inkscape:cy="24"
     inkscape:document-units="px"
     inkscape:current-layer="g9274"
     inkscape:window-width="843"
     inkscape:window-height="556"
     inkscape:window-x="45"
     inkscape:window-y="22"
     showguides="true"
     inkscape:guide-bbox="true"
     width="48px"
     height="48px"
     showgrid="false"
     showborder="false" />
  <metadata
     id="metadata7">
    <rdf:RDF>
      <cc:Work
         rdf:about="">
        <dc:format>image/svg+xml</dc:format>
        <dc:type
           rdf:resource="http://purl.org/dc/dcmitype/StillImage" />
      </cc:Work>
    </rdf:RDF>
  </metadata>
  <g
     inkscape:label="Layer 1"
     inkscape:groupmode="layer"
     id="layer1">
    <path
       style="fill:url(#linearGradient5918);fill-opacity:1;fill-rule:evenodd;stroke:none;stroke-width:0.25pt;stroke-linecap:butt;stroke-linejoin:miter;stroke-opacity:1"
       d="M 36.479999,47 L 47.999999,39.799995 L 30,36 L 36.479999,47 z "
       id="path5910" />
    <path
       sodipodi:type="arc"
       style="opacity:1;color:black;fill:url(#radialGradient5902);fill-opacity:1;fill-rule:evenodd;stroke:none;stroke-width:2;stroke-linecap:round;stroke-linejoin:round;marker:none;marker-start:none;marker-mid:none;marker-end:none;stroke-miterlimit:4;stroke-dasharray:none;stroke-dashoffset:0;stroke-opacity:1;visibility:visible;display:inline;overflow:visible"
       id="path5894"
       sodipodi:cx="60.502419"
       sodipodi:cy="115.07005"
       sodipodi:rx="56.111115"
       sodipodi:ry="11.954107"
       d="M 116.61353 115.07005 A 56.111115 11.954107 0 1 1  4.391304,115.07005 A 56.111115 11.954107 0 1 1  116.61353 115.07005 z"
       transform="matrix(0.374257,0,0,0.375482,-1.643478,0.304713)" />
    <path
       style="fill:url(#linearGradient4946);fill-opacity:1;fill-rule:evenodd;stroke:#bababa;stroke-width:1.01816666;stroke-linecap:round;stroke-linejoin:round;stroke-miterlimit:4;stroke-dasharray:none;stroke-opacity:1"
       d="M 3.6381241,42.183118 C 4.3693547,30.869709 5.1005853,16.945515 3.5090833,3.543477 L 23.123274,1.5201175 C 26.564358,1.2807954 36.543511,4.9794104 36.543511,8.2428935 C 38.005971,22.03655 37.661861,34.785892 36.285427,46.490917 L 3.6381241,42.183118 z "
       id="path1306"
       sodipodi:nodetypes="cccccc" />
    <path
       style="fill:url(#linearGradient4943);fill-opacity:1;fill-rule:evenodd;stroke:none;stroke-width:0.25pt;stroke-linecap:butt;stroke-linejoin:miter;stroke-opacity:1"
       d="M 24.65333,3.0742622 C 22.414428,6.3406944 23.110009,11.250879 25.370648,13 C 29.152871,9.1645772 31.696091,7.1625709 36,7.8790784 C 33.706755,4.844458 28.690962,2.5526868 24.65333,3.0742622 z "
       id="path2039"
       sodipodi:nodetypes="cccc" />
    <path
       style="opacity:0.68200839;fill:black;fill-opacity:0.416309;stroke:none;stroke-width:1;stroke-linecap:round;stroke-linejoin:round;stroke-miterlimit:4;stroke-dashoffset:0;stroke-opacity:0.26666667"
       d="M 33 5.03125 L 28.1875 5.40625 C 28.305957 6.7229914 28.410421 7.9471367 28.5 9.1875 L 33.375 9.0625 C 33.265745 7.7243387 33.156525 6.3928531 33 5.03125 z M 26.25 5.53125 L 20.59375 5.96875 C 20.700512 7.1586207 20.762182 8.2802253 20.84375 9.40625 L 26.5625 9.25 C 26.472276 8.0147892 26.370367 6.7768779 26.25 5.53125 z M 18.65625 6.125 L 13.125 6.53125 C 13.240884 7.617987 13.315861 8.6265815 13.40625 9.65625 L 18.9375 9.46875 C 18.856796 8.3531031 18.763093 7.2495794 18.65625 6.125 z M 11.0625 6.6875 L 7 7 C 7.1159142 7.9529946 7.1946089 8.8790208 7.28125 9.8125 L 11.375 9.6875 C 11.285965 8.6883503 11.17753 7.6937822 11.0625 6.6875 z M 33.5 10.65625 L 28.59375 10.8125 C 28.676389 12.099903 28.75876 13.34108 28.8125 14.5625 L 33.71875 14.53125 C 33.666887 13.254497 33.589587 11.95174 33.5 10.65625 z M 26.6875 10.875 L 20.96875 11.0625 C 21.046806 12.287537 21.137187 13.460528 21.1875 14.625 L 26.84375 14.59375 C 26.792359 13.362605 26.766261 12.120787 26.6875 10.875 z M 19.0625 11.125 L 13.5625 11.28125 C 13.652528 12.441864 13.721516 13.554587 13.78125 14.65625 L 19.21875 14.625 C 19.172222 13.468601 19.134648 12.294867 19.0625 11.125 z M 11.5 11.34375 L 7.4375 11.46875 C 7.5217012 12.567938 7.6066958 13.64266 7.65625 14.71875 L 11.71875 14.6875 C 11.662759 13.575769 11.58534 12.468103 11.5 11.34375 z M 33.75 16.1875 L 28.875 16.21875 C 28.917691 17.449572 28.952436 18.691091 28.96875 19.875 L 33.84375 19.90625 C 33.836827 18.675981 33.786308 17.432398 33.75 16.1875 z M 26.90625 16.21875 L 21.25 16.25 C 21.290782 17.46812 21.298912 18.671375 21.3125 19.84375 L 27 19.875 C 26.983736 18.665282 26.946462 17.447256 26.90625 16.21875 z M 19.28125 16.28125 L 13.875 16.3125 C 13.924633 17.485602 13.949983 18.654953 13.96875 19.78125 L 19.34375 19.8125 C 19.331084 18.646489 19.317402 17.465467 19.28125 16.28125 z M 11.78125 16.3125 L 7.6875 16.34375 C 7.7238531 17.487281 7.744911 18.627311 7.75 19.75 L 11.875 19.78125 C 11.858106 18.636767 11.826099 17.475075 11.78125 16.3125 z M 7.75 21.375 C 7.7425311 22.430445 7.7151729 23.489274 7.6875 24.53125 L 11.84375 24.6875 C 11.861296 23.605352 11.879499 22.509448 11.875 21.40625 L 7.75 21.375 z M 13.96875 21.4375 C 13.973506 22.562583 13.958952 23.679044 13.9375 24.78125 L 19.3125 24.96875 C 19.330489 23.815177 19.346119 22.645316 19.34375 21.46875 L 13.96875 21.4375 z M 21.3125 21.46875 C 21.314495 22.666065 21.303371 23.856573 21.28125 25.03125 L 27 25.25 C 27.015789 24.013181 27.006563 22.762177 27 21.5 L 21.3125 21.46875 z M 28.96875 21.53125 C 28.973988 22.804869 28.958321 24.065645 28.9375 25.3125 L 33.78125 25.5 C 33.812247 24.194686 33.838623 22.880744 33.84375 21.5625 L 28.96875 21.53125 z M 7.65625 26.1875 C 7.6191309 27.245437 7.5812124 28.294375 7.53125 29.34375 L 11.71875 29.625 C 11.766177 28.546245 11.783852 27.449243 11.8125 26.34375 L 7.65625 26.1875 z M 13.90625 26.40625 C 13.872763 27.521067 13.836003 28.632443 13.78125 29.75 L 19.1875 30.125 C 19.232737 28.972423 19.253487 27.806774 19.28125 26.625 L 13.90625 26.40625 z M 21.25 26.6875 C 21.217362 27.870466 21.176993 29.062427 21.125 30.25 L 26.875 30.625 C 26.919466 29.401527 26.943265 28.161372 26.96875 26.90625 L 21.25 26.6875 z M 28.90625 26.96875 C 28.874662 28.228841 28.83395 29.486317 28.78125 30.75 L 33.59375 31.0625 C 33.651713 29.764379 33.709627 28.463231 33.75 27.15625 L 28.90625 26.96875 z M 7.4375 31 C 7.3847758 32.011474 7.3383064 33.022665 7.28125 34.03125 L 11.4375 34.46875 C 11.508807 33.417127 11.56813 32.365196 11.625 31.28125 L 7.4375 31 z M 13.6875 31.40625 C 13.627618 32.461653 13.542271 33.606668 13.46875 34.6875 L 18.9375 35.21875 C 19.00568 34.078066 19.070732 32.926948 19.125 31.75 L 13.6875 31.40625 z M 21.0625 31.90625 C 21.005722 33.0431 20.913315 34.271829 20.84375 35.4375 L 26.625 36.03125 C 26.695456 34.802761 26.757834 33.550404 26.8125 32.28125 L 21.0625 31.90625 z M 28.71875 32.40625 C 28.660228 33.632631 28.572849 34.960227 28.5 36.21875 L 33.3125 36.6875 C 33.387101 35.364911 33.466053 34.046184 33.53125 32.71875 L 28.71875 32.40625 z M 7.1875 35.6875 C 7.1247941 36.790091 7.0585308 37.894626 7 39 L 11.0625 39.46875 C 11.159101 38.373047 11.258269 37.234672 11.34375 36.09375 L 7.1875 35.6875 z M 13.375 36.3125 C 13.293103 37.450735 13.216284 38.529345 13.125 39.71875 L 18.59375 40.375 C 18.681595 39.235674 18.765826 38.060724 18.84375 36.875 L 13.375 36.3125 z M 20.75 37.0625 C 20.675749 38.244543 20.613732 39.359339 20.53125 40.59375 L 26.28125 41.28125 C 26.369748 40.098222 26.453609 38.887556 26.53125 37.65625 L 20.75 37.0625 z M 28.40625 37.84375 C 28.33181 39.065857 28.270433 40.223444 28.1875 41.5 L 33 42.0625 C 33.072834 40.813258 33.146329 39.562142 33.21875 38.3125 L 28.40625 37.84375 z "
       id="rect3957" />
    <path
       style="fill:none;fill-opacity:1.0;fill-rule:evenodd;stroke:url(#linearGradient4826);stroke-width:0.96689165;stroke-linecap:round;stroke-linejoin:round;stroke-miterlimit:4;stroke-dasharray:none;stroke-opacity:1"
       d="M 4.6050865,41.395379 C 5.2943839,30.572095 5.9836814,17.251132 4.4834458,4.4297046 L 22.97284,2.494002 C 26.727951,2.265048 36.016642,5.8034297 35.623479,8.9255306 C 37.002072,22.121611 36.677695,34.318619 35.380195,45.516554 L 4.6050865,41.395379 z "
       id="path3945"
       sodipodi:nodetypes="cccccc" />
    <path
       style="opacity:0.68200839;fill:black;fill-opacity:0.416309;stroke:none;stroke-width:1;stroke-linecap:round;stroke-linejoin:round;stroke-miterlimit:4;stroke-dashoffset:0;stroke-opacity:0.26666667"
       d="M 33,5.03125 L 28.1875,5.40625 C 28.305957,6.7229914 28.410421,7.9471367 28.5,9.1875 L 33.375,9.0625 C 33.265745,7.7243387 33.156525,6.3928531 33,5.03125 z M 26.25,5.53125 L 20.59375,5.96875 C 20.700512,7.1586207 20.762182,8.2802253 20.84375,9.40625 L 26.5625,9.25 C 26.472276,8.0147892 26.370367,6.7768779 26.25,5.53125 z M 18.65625,6.125 L 13.125,6.53125 C 13.240884,7.617987 13.315861,8.6265815 13.40625,9.65625 L 18.9375,9.46875 C 18.856796,8.3531031 18.763093,7.2495794 18.65625,6.125 z M 11.0625,6.6875 L 7,7 C 7.1159142,7.9529946 7.1946089,8.8790208 7.28125,9.8125 L 11.375,9.6875 C 11.285965,8.6883503 11.17753,7.6937822 11.0625,6.6875 z M 11.5,11.34375 L 7.4375,11.46875 C 7.5217012,12.567938 7.6066958,13.64266 7.65625,14.71875 L 11.71875,14.6875 C 11.662759,13.575769 11.58534,12.468103 11.5,11.34375 z M 11.78125,16.3125 L 7.6875,16.34375 C 7.7238531,17.487281 7.744911,18.627311 7.75,19.75 L 11.875,19.78125 C 11.858106,18.636767 11.826099,17.475075 11.78125,16.3125 z M 7.75,21.375 C 7.7425311,22.430445 7.7151729,23.489274 7.6875,24.53125 L 11.84375,24.6875 C 11.861296,23.605352 11.879499,22.509448 11.875,21.40625 L 7.75,21.375 z M 7.65625,26.1875 C 7.6191309,27.245437 7.5812124,28.294375 7.53125,29.34375 L 11.71875,29.625 C 11.766177,28.546245 11.783852,27.449243 11.8125,26.34375 L 7.65625,26.1875 z M 7.4375,31 C 7.3847758,32.011474 7.3383064,33.022665 7.28125,34.03125 L 11.4375,34.46875 C 11.508807,33.417127 11.56813,32.365196 11.625,31.28125 L 7.4375,31 z M 7.1875,35.6875 C 7.1247941,36.790091 7.0585308,37.894626 7,39 L 11.0625,39.46875 C 11.159101,38.373047 11.258269,37.234672 11.34375,36.09375 L 7.1875,35.6875 z "
       id="path5751"
       sodipodi:nodetypes="cccccccccccccccccccccccccccccccccccccccccccccccccc" />
    <path
       style="fill:url(#linearGradient4940);fill-opacity:1;fill-rule:evenodd;stroke:none;stroke-width:1;stroke-linecap:butt;stroke-linejoin:miter;stroke-miterlimit:4;stroke-dasharray:none;stroke-opacity:1"
       d="M 22.352108,2.0552082 C 20.141837,5.3482383 20.828523,10.298406 23.060254,12.061771 C 26.79411,8.1951158 31.751128,7.069112 36,7.791454 C 35.023618,4.8595954 26.338108,1.5293855 22.352108,2.0552082 z "
       id="path2037"
       sodipodi:nodetypes="cccc" />
    <g
       id="g9274"
       transform="translate(2.46875,12.99999)">
      <path
         id="path7500"
         d="M 34.89295,22.000002 C 34.89295,28.348005 29.54793,33.500006 22.9621,33.500006 C 16.376271,33.500006 11.031251,28.348005 11.031251,22.000002 C 11.031251,15.652 16.376271,10.499998 22.9621,10.499998 C 29.54793,10.499998 34.89295,15.652 34.89295,22.000002 z "
         style="fill:#b20a0a;fill-opacity:1.0;stroke:url(#linearGradient3968);stroke-width:0.99999982;stroke-linecap:round;stroke-linejoin:round;stroke-miterlimit:4;stroke-dashoffset:0;stroke-opacity:1" />
      <path
         sodipodi:nodetypes="ccsssscccc"
         id="path8375"
         d="M 21.62414,22.09375 L 19,32.624917 C 19.898638,32.884054 20.693802,32.999999 21.62414,33 C 21.824912,33 22.006004,32.983588 22.203892,32.971147 C 22.214177,32.971774 22.224102,32.970546 22.234406,32.971147 C 22.483401,32.985668 22.732522,33 22.997237,33 C 29.350395,33 34.53125,27.866065 34.53125,23.272406 L 31.72403,22.09375 L 22.997237,22.09375 L 21.62414,22.09375 z "
         style="fill:#d3ca0c;fill-opacity:1;stroke:none;stroke-width:1;stroke-linecap:round;stroke-linejoin:round;stroke-miterlimit:4;stroke-dashoffset:0;stroke-opacity:1" />
      <path
         id="path8382"
         d="M 31.53125,22 C 31.53125,28.072 27.05125,33 21.53125,33 C 16.01125,33 11.53125,28.072 11.53125,22 C 11.53125,15.928 16.01125,11 21.53125,11 C 27.05125,11 31.53125,15.928 31.53125,22 z "
         style="fill:#e70e0e;fill-opacity:1;stroke:none;stroke-width:1.00000024;stroke-linecap:round;stroke-linejoin:round;stroke-miterlimit:4;stroke-dashoffset:0;stroke-opacity:1" />
      <path
         id="path8384"
         d="M 31.489642,22.106382 C 31.489642,28.12605 27.042669,33.011577 21.563363,33.011577 C 20.650145,33.011577 19.876353,32.899659 18.994253,32.639991 L 21.563363,22.106382 L 31.489642,22.106382 z "
         style="opacity:1;fill:#f2e822;fill-opacity:1;stroke:none;stroke-width:1.00000024;stroke-linecap:round;stroke-linejoin:round;stroke-miterlimit:4;stroke-dashoffset:0;stroke-opacity:1" />
      <path
         id="path8386"
         d="M 19.049935,32.699103 C 13.642634,31.119157 10.430004,25.051361 11.878886,19.154916 C 12.603327,16.206694 14.179997,13.966064 16.604024,12.439952 L 21.674721,22.017139 L 19.049935,32.699103 z "
         style="opacity:1;fill:#7ad21f;fill-opacity:1;stroke:none;stroke-width:1.00000024;stroke-linecap:round;stroke-linejoin:round;stroke-miterlimit:4;stroke-dashoffset:0;stroke-opacity:1" />
      <path
         id="path8391"
         d="M 31.031258,22 C 31.031258,28.348 26.551257,33.499999 21.031255,33.499999 C 15.511254,33.499999 11.031253,28.348 11.031253,22 C 11.031253,15.652 15.511254,10.500001 21.031255,10.500001 C 26.551257,10.500001 31.031258,15.652 31.031258,22 z "
         style="fill:none;fill-opacity:1;stroke:url(#linearGradient5974);stroke-width:1.00000048;stroke-linecap:round;stroke-linejoin:round;stroke-miterlimit:4;stroke-dashoffset:0;stroke-opacity:1" />
      <path
         id="path9290"
         d="M 31,22 C 31,28.072001 26.621361,33 21.226253,33 C 15.831144,33 11.452505,28.072001 11.452505,22 C 11.452505,15.927999 15.831144,11 21.226253,11 C 26.621361,11 31,15.927999 31,22 z "
         style="fill:url(#radialGradient5976);fill-opacity:1;stroke:none;stroke-width:1.00000036;stroke-linecap:round;stroke-linejoin:round;stroke-miterlimit:4;stroke-dashoffset:0;stroke-opacity:1" />
    </g>
  </g>
</svg>
