<?xml version="1.0" encoding="UTF-8" standalone="no"?>
<!-- Created with Inkscape (http://www.inkscape.org/) -->
<svg
   xmlns:dc="http://purl.org/dc/elements/1.1/"
   xmlns:cc="http://web.resource.org/cc/"
   xmlns:rdf="http://www.w3.org/1999/02/22-rdf-syntax-ns#"
   xmlns:svg="http://www.w3.org/2000/svg"
   xmlns="http://www.w3.org/2000/svg"
   xmlns:xlink="http://www.w3.org/1999/xlink"
   xmlns:sodipodi="http://inkscape.sourceforge.net/DTD/sodipodi-0.dtd"
   xmlns:inkscape="http://www.inkscape.org/namespaces/inkscape"
   width="22"
   height="22"
   id="svg2"
   sodipodi:version="0.32"
   inkscape:version="0.43+devel"
   sodipodi:docbase="/home/silvestre/Desktop/Neu/22x22/apps"
   sodipodi:docname="gimp.svg"
   version="1.0">
  <defs
     id="defs4">
    <linearGradient
       inkscape:collect="always"
       id="linearGradient4866">
      <stop
         style="stop-color:white;stop-opacity:1;"
         offset="0"
         id="stop4868" />
      <stop
         style="stop-color:white;stop-opacity:0;"
         offset="1"
         id="stop4870" />
    </linearGradient>
    <linearGradient
       inkscape:collect="always"
       id="linearGradient4856">
      <stop
         style="stop-color:white;stop-opacity:1;"
         offset="0"
         id="stop4858" />
      <stop
         style="stop-color:white;stop-opacity:0;"
         offset="1"
         id="stop4860" />
    </linearGradient>
    <linearGradient
       inkscape:collect="always"
       id="linearGradient4846">
      <stop
         style="stop-color:white;stop-opacity:1;"
         offset="0"
         id="stop4848" />
      <stop
         style="stop-color:white;stop-opacity:0.14901961"
         offset="1"
         id="stop4850" />
    </linearGradient>
    <linearGradient
       inkscape:collect="always"
       id="linearGradient4834">
      <stop
         style="stop-color:white;stop-opacity:1;"
         offset="0"
         id="stop4836" />
      <stop
         style="stop-color:white;stop-opacity:0;"
         offset="1"
         id="stop4838" />
    </linearGradient>
    <linearGradient
       id="linearGradient2337">
      <stop
         style="stop-color:#000000;stop-opacity:0.27599999"
         offset="0"
         id="stop2339" />
      <stop
         style="stop-color:#000000;stop-opacity:0;"
         offset="1"
         id="stop2341" />
    </linearGradient>
    <linearGradient
       inkscape:collect="always"
       id="linearGradient2327">
      <stop
         style="stop-color:#000000;stop-opacity:0.68400002"
         offset="0"
         id="stop2329" />
      <stop
         style="stop-color:#000000;stop-opacity:0;"
         offset="1"
         id="stop2331" />
    </linearGradient>
    <linearGradient
       inkscape:collect="always"
       id="linearGradient2285">
      <stop
         style="stop-color:#ffffff;stop-opacity:0.68800002"
         offset="0"
         id="stop2287" />
      <stop
         style="stop-color:#ffffff;stop-opacity:0;"
         offset="1"
         id="stop2289" />
    </linearGradient>
    <linearGradient
       id="linearGradient2271">
      <stop
         style="stop-color:#8c7d50;stop-opacity:1;"
         offset="0"
         id="stop2273" />
      <stop
         style="stop-color:#5a5033;stop-opacity:1.0000000;"
         offset="1.0000000"
         id="stop2275" />
    </linearGradient>
    <linearGradient
       id="linearGradient2247">
      <stop
         style="stop-color:#979797;stop-opacity:1.0000000;"
         offset="0.0000000"
         id="stop2249" />
      <stop
         style="stop-color:#323232;stop-opacity:1.0000000;"
         offset="1.0000000"
         id="stop2251" />
    </linearGradient>
    <linearGradient
       inkscape:collect="always"
       xlink:href="#linearGradient2285"
       id="linearGradient2313"
       gradientUnits="userSpaceOnUse"
       gradientTransform="matrix(0.165526,0,0,0.167705,0.66644,3.014488)"
       x1="36.841328"
       y1="-17.476013"
       x2="75.335793"
       y2="67.306274" />
    <linearGradient
       inkscape:collect="always"
       xlink:href="#linearGradient2271"
       id="linearGradient2323"
       gradientUnits="userSpaceOnUse"
       x1="51.189674"
       y1="48.993095"
       x2="107.53319"
       y2="101.89346"
       gradientTransform="matrix(0.183809,0,0,0.186051,-1.091313,1.187897)" />
    <linearGradient
       inkscape:collect="always"
       xlink:href="#linearGradient2327"
       id="linearGradient2333"
       x1="62.819187"
       y1="179.01108"
       x2="70.855949"
       y2="84.478859"
       gradientUnits="userSpaceOnUse"
       gradientTransform="matrix(0.167485,0,0,0.166318,0.148492,1.57546)" />
    <radialGradient
       inkscape:collect="always"
       xlink:href="#linearGradient2337"
       id="radialGradient2343"
       cx="60.457565"
       cy="114.30258"
       fx="60.457565"
       fy="114.30258"
       r="37.785976"
       gradientTransform="matrix(1,0,0,0.1125,-2.181848e-15,101.4435)"
       gradientUnits="userSpaceOnUse" />
    <radialGradient
       inkscape:collect="always"
       xlink:href="#linearGradient2247"
       id="radialGradient4828"
       gradientUnits="userSpaceOnUse"
       gradientTransform="matrix(0.433571,0.359064,-0.225123,0.331443,-26.38291,-42.3772)"
       cx="96.569389"
       cy="62.146378"
       fx="96.569389"
       fy="62.146378"
       r="6.1402216" />
    <linearGradient
       inkscape:collect="always"
       xlink:href="#linearGradient4834"
       id="linearGradient4840"
       x1="-0.065793492"
       y1="23.292086"
       x2="3.0857143"
       y2="35.053673"
       gradientUnits="userSpaceOnUse"
       gradientTransform="matrix(0.333334,0,0,0.375,1.000001,2.562495)" />
    <linearGradient
       inkscape:collect="always"
       xlink:href="#linearGradient4846"
       id="linearGradient4852"
       x1="18.685715"
       y1="9.8570347"
       x2="18.685715"
       y2="44.029774"
       gradientUnits="userSpaceOnUse"
       gradientTransform="matrix(0.460403,0,0,0.423016,0.428183,1.091431)" />
    <linearGradient
       inkscape:collect="always"
       xlink:href="#linearGradient4856"
       id="linearGradient4862"
       x1="34.114285"
       y1="20.228571"
       x2="38.475395"
       y2="21.4695"
       gradientUnits="userSpaceOnUse"
       gradientTransform="matrix(0.446809,0,0,0.443694,0.276598,0.70273)" />
    <linearGradient
       inkscape:collect="always"
       xlink:href="#linearGradient4866"
       id="linearGradient4872"
       x1="25.114286"
       y1="43.028572"
       x2="23.478807"
       y2="39.503975"
       gradientUnits="userSpaceOnUse"
       gradientTransform="matrix(0.442857,0,0,0.444445,0.628567,0.94442)" />
  </defs>
  <sodipodi:namedview
     id="base"
     pagecolor="#ffffff"
     bordercolor="#666666"
     borderopacity="1.0"
     inkscape:pageopacity="0.0"
     inkscape:pageshadow="2"
     inkscape:zoom="1"
     inkscape:cx="11"
     inkscape:cy="11"
     inkscape:document-units="px"
     inkscape:current-layer="layer1"
     inkscape:window-width="823"
     inkscape:window-height="536"
     inkscape:window-x="0"
     inkscape:window-y="22"
     width="22px"
     height="22px"
     inkscape:showpageshadow="false"
     showgrid="false"
     showborder="false" />
  <metadata
     id="metadata7">
    <rdf:RDF>
      <cc:Work
         rdf:about="">
        <dc:format>image/svg+xml</dc:format>
        <dc:type
           rdf:resource="http://purl.org/dc/dcmitype/StillImage" />
      </cc:Work>
    </rdf:RDF>
  </metadata>
  <g
     inkscape:label="Layer 1"
     inkscape:groupmode="layer"
     id="layer1">
    <path
       sodipodi:type="arc"
       style="opacity:1;color:black;fill:url(#radialGradient2343);fill-opacity:1;fill-rule:evenodd;stroke:none;stroke-width:3.75;stroke-linecap:round;stroke-linejoin:round;marker:none;marker-start:none;marker-mid:none;marker-end:none;stroke-miterlimit:4;stroke-dasharray:none;stroke-dashoffset:0;stroke-opacity:1;visibility:visible;display:inline;overflow:visible"
       id="path2335"
       sodipodi:cx="60.457565"
       sodipodi:cy="114.30258"
       sodipodi:rx="37.785976"
       sodipodi:ry="4.2509227"
       d="M 98.243542 114.30258 A 37.785976 4.2509227 0 1 1  22.671589,114.30258 A 37.785976 4.2509227 0 1 1  98.243542 114.30258 z"
       transform="matrix(0.181094,0,0,0.304916,-1.188427,-14.14886)" />
    <path
       style="fill:url(#linearGradient2333);fill-opacity:1;fill-rule:evenodd;stroke:none;stroke-width:3.82812738;stroke-linecap:round;stroke-linejoin:round;stroke-miterlimit:4;stroke-dasharray:none;stroke-opacity:1"
       d="M 7.3219932,15.778656 C 12.640896,18.287658 16.969067,17.090469 21.723409,15.625825 C 21.066676,16.918533 20.536753,17.340872 18.005871,18.118908 C 14.772664,19.736382 12.889106,20.712545 8.3639336,20.788621 C 2.6228419,20.84465 2.248624,19.293806 2.3143191,18.453227 C 8.8859572,18.898989 6.6577194,17.28151 7.3219932,15.778656 z "
       id="path2325"
       sodipodi:nodetypes="cccccc" />
    <path
       style="fill:url(#linearGradient2323);fill-opacity:1;fill-rule:evenodd;stroke:#645a31;stroke-width:0.99999887;stroke-linecap:round;stroke-linejoin:round;stroke-miterlimit:4;stroke-dasharray:none;stroke-opacity:1"
       d="M 4.7411748,4.9735038 C 12.228545,13.074869 16.054551,9.2413037 20.329009,4.4999967 C 20.738329,8.5050794 20.525959,9.8135683 18.428565,12.224088 C 16.294222,17.235374 15.080434,20.259723 10.180751,20.495416 C 3.9291236,20.669016 2.1627174,15.864174 1.4999989,13.259883 C 9.1017727,14.640946 5.3259257,9.6296599 4.7411748,4.9735038 z "
       id="path1517"
       sodipodi:nodetypes="cccccc" />
    <path
       style="fill:black;fill-opacity:0.26799999;fill-rule:evenodd;stroke:none;stroke-width:0.25pt;stroke-linecap:butt;stroke-linejoin:miter;stroke-opacity:1"
       d="M 18.944326,6.2850946 C 18.944326,6.2850946 15.671981,10.641035 15.951669,11.625102 C 16.231356,12.609166 17.252217,12.421039 17.252217,12.421039 C 19.137913,10.253105 19.124614,9.1218046 18.944326,6.2850946 z "
       id="path2269"
       sodipodi:nodetypes="cscc" />
    <path
       style="opacity:0.54811719;fill:none;fill-opacity:1;fill-rule:evenodd;stroke:url(#linearGradient4852);stroke-width:0.99999821;stroke-linecap:round;stroke-linejoin:round;stroke-miterlimit:4;stroke-dasharray:none;stroke-opacity:1"
       d="M 5.7216564,6.9731156 C 11.921618,13.319517 15.904402,10.112454 19.499992,6.4999962 C 19.393419,9.8159108 19.558183,10.52409 17.283081,12.454694 C 15.369486,16.694406 14.518013,19.289363 10.125082,19.488767 C 4.954129,19.744414 3.0941729,15.570584 2.4999965,13.367269 C 9.349082,14.548896 6.8660432,11.156558 5.7216564,6.9731156 z "
       id="path4844"
       sodipodi:nodetypes="cccccc" />
    <path
       style="color:black;fill:white;fill-opacity:1;fill-rule:evenodd;stroke:#d4d4d4;stroke-width:0.99999976;stroke-linecap:round;stroke-linejoin:round;marker:none;marker-start:none;marker-mid:none;marker-end:none;stroke-miterlimit:4;stroke-dashoffset:0;stroke-opacity:1;visibility:visible;display:inline;overflow:visible"
       d="M 8.4999961,12.499999 C 8.4999961,13.603998 7.6039983,14.499997 6.499999,14.499997 C 5.3959998,14.499997 4.4999973,13.603998 4.4999973,12.499999 C 4.4999973,11.396001 5.3959998,10.500001 6.499999,10.500001 C 7.6039983,10.500001 8.4999961,11.396001 8.4999961,12.499999 z "
       id="path2255" />
    <path
       style="color:black;fill:white;fill-opacity:1;fill-rule:evenodd;stroke:#bfbfbf;stroke-width:0.99999976;stroke-linecap:round;stroke-linejoin:round;marker:none;marker-start:none;marker-mid:none;marker-end:none;stroke-miterlimit:4;stroke-dashoffset:0;stroke-opacity:1;visibility:visible;display:inline;overflow:visible"
       d="M 13.500002,13.000007 C 13.500002,14.380008 12.380004,15.500008 11.000003,15.500008 C 9.6200042,15.500008 8.5000007,14.380008 8.5000007,13.000007 C 8.5000007,11.620006 9.6200042,10.500005 11.000003,10.500005 C 12.380004,10.500005 13.500002,11.620006 13.500002,13.000007 z "
       id="path2259" />
    <path
       style="color:black;fill:black;fill-opacity:1;fill-rule:evenodd;stroke:none;stroke-width:0.5;stroke-linecap:round;stroke-linejoin:round;marker:none;marker-start:none;marker-mid:none;marker-end:none;stroke-miterlimit:4;stroke-dashoffset:0;stroke-opacity:1;visibility:visible;display:inline;overflow:visible"
       d="M 12,14.000759 C 12,14.553178 11.552,15.001518 11.000001,15.001518 C 10.448001,15.001518 10,14.553178 10,14.000759 C 10,13.44834 10.448001,13 11.000001,13 C 11.552,13 12,13.44834 12,14.000759 z "
       id="path2261" />
    <path
       sodipodi:type="arc"
       style="opacity:1;color:black;fill:black;fill-opacity:1;fill-rule:evenodd;stroke:none;stroke-width:0.5;stroke-linecap:round;stroke-linejoin:round;marker:none;marker-start:none;marker-mid:none;marker-end:none;stroke-miterlimit:4;stroke-dasharray:none;stroke-dashoffset:0;stroke-opacity:1;visibility:visible;display:inline;overflow:visible"
       id="path2263"
       sodipodi:cx="109.57934"
       sodipodi:cy="59.630997"
       sodipodi:rx="4.4870849"
       sodipodi:ry="4.3690038"
       d="M 114.06642 59.630997 A 4.4870849 4.3690038 0 1 1  105.09225,59.630997 A 4.4870849 4.3690038 0 1 1  114.06642 59.630997 z"
       transform="matrix(0.111431,0,0,0.114443,-5.710523,6.675675)" />
    <path
       style="fill:#2e2e2e;fill-opacity:1;fill-rule:evenodd;stroke:none;stroke-width:0.25pt;stroke-linecap:butt;stroke-linejoin:miter;stroke-opacity:1"
       d="M 5.1914976,18.831271 C 7.5511928,18.15363 10.934037,18.303678 13.68087,16.23203 C 12.685374,18.32304 11.523961,19.818697 8.4268613,20.225278 C 7.0764886,20.017148 5.9196847,19.504073 5.1914976,18.831271 z "
       id="path2265"
       sodipodi:nodetypes="cccc" />
    <path
       style="fill:#c40000;fill-opacity:1;fill-rule:evenodd;stroke:none;stroke-width:0.25pt;stroke-linecap:butt;stroke-linejoin:miter;stroke-opacity:1"
       d="M 7.8883992,19.891799 C 8.1587643,19.423884 8.6832855,19.220259 8.9874459,19.179257 C 9.3053626,19.136401 9.3696857,19.155138 9.4838914,19.193726 C 9.5141913,19.077957 9.6106234,18.890155 9.9803374,18.730638 C 10.338104,18.576277 11.322838,18.431557 11.630494,18.875353 C 10.866015,19.415627 9.9501791,19.781359 8.4585115,20.00326 C 8.2618815,19.978045 8.0701964,19.940038 7.8883992,19.891799 z "
       id="path2267"
       sodipodi:nodetypes="czczccc" />
    <path
       style="fill:url(#linearGradient2313);fill-opacity:1;fill-rule:evenodd;stroke:none;stroke-width:3.75;stroke-linecap:round;stroke-linejoin:round;stroke-miterlimit:4;stroke-dasharray:none;stroke-opacity:1"
       d="M 5.843574,6.4268178 C 12.791613,13.627724 16.40488,10.094143 19.95613,6 C 20.125569,9.6510148 19.854655,10.830482 18.24472,12.962476 C 13.859949,10.627847 5.707708,20.006185 3,13.89614 C 9.847594,15.142028 6.565481,10.724 5.843574,6.4268178 z "
       id="path2283"
       sodipodi:nodetypes="ccccc" />
    <path
       style="color:black;fill:url(#radialGradient4828);fill-opacity:1;fill-rule:evenodd;stroke:none;stroke-width:3;stroke-linecap:round;stroke-linejoin:round;marker:none;marker-start:none;marker-mid:none;marker-end:none;stroke-miterlimit:4;stroke-dashoffset:0;stroke-opacity:1;visibility:visible;display:inline;overflow:visible"
       d="M 5.6622193,16.204731 C 4.8991869,17.328124 3.0872438,17.252148 1.617696,16.035133 C 0.14814999,14.818121 -0.42525235,12.91866 0.33778002,11.795267 C 1.1008121,10.671873 2.9127591,10.747855 4.3823052,11.964867 C 5.8518528,13.181881 6.4252516,15.081337 5.6622193,16.204731 z "
       id="path2245" />
    <path
       style="color:black;fill:none;fill-opacity:1;fill-rule:evenodd;stroke:url(#linearGradient4840);stroke-width:1.00000012;stroke-linecap:round;stroke-linejoin:round;marker:none;marker-start:none;marker-mid:none;marker-end:none;stroke-miterlimit:4;stroke-dasharray:none;stroke-dashoffset:0;stroke-opacity:1;visibility:visible;display:inline;overflow:visible"
       d="M 4.3311114,15.102372 C 3.9495951,15.66407 3.0436233,15.62608 2.3088492,15.017573 C 1.5740759,14.409065 1.2873746,13.459332 1.668891,12.897635 C 2.0504071,12.335936 2.9563809,12.373928 3.6911541,12.982435 C 4.4259282,13.590943 4.7126276,14.540673 4.3311114,15.102372 z "
       id="path4830" />
    <path
       style="opacity:0.7782427;fill:none;fill-opacity:1;fill-rule:evenodd;stroke:url(#linearGradient4862);stroke-width:0.99999958;stroke-linecap:butt;stroke-linejoin:miter;stroke-miterlimit:4;stroke-dasharray:none;stroke-opacity:1"
       d="M 18.944323,6.2850916 C 18.944323,6.2850916 15.671979,10.641029 15.951667,11.625095 C 16.231354,12.609158 17.252214,12.421032 17.252214,12.421032 C 19.13791,10.253099 19.124611,9.1217996 18.944323,6.2850916 z "
       id="path4854"
       sodipodi:nodetypes="cscc" />
    <path
       style="fill:none;fill-opacity:1;fill-rule:evenodd;stroke:url(#linearGradient4872);stroke-width:1.00000012;stroke-linecap:butt;stroke-linejoin:miter;stroke-miterlimit:4;stroke-dasharray:none;stroke-opacity:1"
       d="M 5.5000017,19.103646 C 7.8388287,18.424858 11.191757,18.575159 13.914297,16.500005 C 12.927605,18.594554 11.776464,20.092743 8.7067531,20.500012 C 7.3683225,20.29153 6.221749,19.777586 5.5000017,19.103646 z "
       id="path4864"
       sodipodi:nodetypes="cccc" />
  </g>
</svg>
