<?xml version="1.0" encoding="UTF-8" standalone="no"?>
<!-- Created with Inkscape (http://www.inkscape.org/) -->
<svg
   xmlns:dc="http://purl.org/dc/elements/1.1/"
   xmlns:cc="http://web.resource.org/cc/"
   xmlns:rdf="http://www.w3.org/1999/02/22-rdf-syntax-ns#"
   xmlns:svg="http://www.w3.org/2000/svg"
   xmlns="http://www.w3.org/2000/svg"
   xmlns:xlink="http://www.w3.org/1999/xlink"
   xmlns:sodipodi="http://inkscape.sourceforge.net/DTD/sodipodi-0.dtd"
   xmlns:inkscape="http://www.inkscape.org/namespaces/inkscape"
   width="22"
   height="22"
   id="svg2"
   sodipodi:version="0.32"
   inkscape:version="0.43+devel"
   version="1.0"
   sodipodi:docbase="/home/silvestre/Desktop/Neu/22x22/apps"
   sodipodi:docname="internet-group-chat.svg">
  <defs
     id="defs4">
    <linearGradient
       inkscape:collect="always"
       id="linearGradient5712">
      <stop
         style="stop-color:white;stop-opacity:0.64806867"
         offset="0"
         id="stop5714" />
      <stop
         style="stop-color:white;stop-opacity:0.24892704"
         offset="1"
         id="stop5716" />
    </linearGradient>
    <linearGradient
       inkscape:collect="always"
       id="linearGradient5702">
      <stop
         style="stop-color:white;stop-opacity:1;"
         offset="0"
         id="stop5704" />
      <stop
         style="stop-color:white;stop-opacity:0.39055794"
         offset="1"
         id="stop5706" />
    </linearGradient>
    <linearGradient
       inkscape:collect="always"
       id="linearGradient5692">
      <stop
         style="stop-color:white;stop-opacity:0.81960785"
         offset="0"
         id="stop5694" />
      <stop
         style="stop-color:white;stop-opacity:0.40784314"
         offset="1"
         id="stop5696" />
    </linearGradient>
    <linearGradient
       inkscape:collect="always"
       id="linearGradient4806">
      <stop
         style="stop-color:black;stop-opacity:0.49785408"
         offset="0"
         id="stop4808" />
      <stop
         style="stop-color:black;stop-opacity:0;"
         offset="1"
         id="stop4810" />
    </linearGradient>
    <linearGradient
       inkscape:collect="always"
       id="linearGradient4793">
      <stop
         style="stop-color:#f9f9f9;stop-opacity:1;"
         offset="0"
         id="stop4795" />
      <stop
         style="stop-color:#dcdcdc;stop-opacity:1"
         offset="1"
         id="stop4797" />
    </linearGradient>
    <linearGradient
       inkscape:collect="always"
       xlink:href="#linearGradient5712"
       id="linearGradient4928"
       gradientUnits="userSpaceOnUse"
       gradientTransform="matrix(0.375294,0,0,0.422246,-0.125883,-1.111227)"
       x1="21.844343"
       y1="3.5399165"
       x2="21.844343"
       y2="22.083397" />
    <linearGradient
       inkscape:collect="always"
       xlink:href="#linearGradient5702"
       id="linearGradient4931"
       gradientUnits="userSpaceOnUse"
       gradientTransform="matrix(0.366667,0,0,0.384326,0.216668,-0.613787)"
       x1="12.125"
       y1="1.2498183"
       x2="12.125"
       y2="44.267635" />
    <linearGradient
       inkscape:collect="always"
       xlink:href="#linearGradient5692"
       id="linearGradient4934"
       gradientUnits="userSpaceOnUse"
       gradientTransform="matrix(0.389566,0,0,0.36929,-0.992197,-0.323371)"
       x1="33.625618"
       y1="33.649742"
       x2="33.625618"
       y2="4.2131443" />
    <linearGradient
       inkscape:collect="always"
       xlink:href="#linearGradient4806"
       id="linearGradient4937"
       gradientUnits="userSpaceOnUse"
       gradientTransform="matrix(0.500306,0,0,0.38889,-4.00922,-0.944439)"
       x1="37.504166"
       y1="21.875"
       x2="27.997295"
       y2="21.875" />
    <linearGradient
       inkscape:collect="always"
       xlink:href="#linearGradient4793"
       id="linearGradient4940"
       gradientUnits="userSpaceOnUse"
       gradientTransform="matrix(0.40625,0,0,0.407524,-0.515628,-1.336028)"
       x1="17.324116"
       y1="12.28867"
       x2="17.324116"
       y2="37.926449" />
    <linearGradient
       inkscape:collect="always"
       xlink:href="#linearGradient5712"
       id="linearGradient4944"
       gradientUnits="userSpaceOnUse"
       gradientTransform="matrix(0.412824,0,0,0.421111,6.761527,1.894442)"
       x1="21.844343"
       y1="3.5399165"
       x2="21.844343"
       y2="22.083397" />
    <linearGradient
       inkscape:collect="always"
       xlink:href="#linearGradient5702"
       id="linearGradient4947"
       gradientUnits="userSpaceOnUse"
       gradientTransform="matrix(0.4,0,0,0.384326,7.100003,2.386208)"
       x1="12.125"
       y1="1.2498183"
       x2="12.125"
       y2="44.267635" />
    <linearGradient
       inkscape:collect="always"
       xlink:href="#linearGradient5692"
       id="linearGradient4950"
       gradientUnits="userSpaceOnUse"
       gradientTransform="matrix(0.407029,0,0,0.39957,6.49263,1.954197)"
       x1="33.625618"
       y1="33.649742"
       x2="33.625618"
       y2="4.2131443" />
    <linearGradient
       inkscape:collect="always"
       xlink:href="#linearGradient4806"
       id="linearGradient4953"
       gradientUnits="userSpaceOnUse"
       gradientTransform="matrix(0.5,0,0,0.38889,3.999997,2.055561)"
       x1="37.504166"
       y1="21.875"
       x2="27.997295"
       y2="21.875" />
    <linearGradient
       inkscape:collect="always"
       xlink:href="#linearGradient4793"
       id="linearGradient4956"
       gradientUnits="userSpaceOnUse"
       gradientTransform="matrix(0.437501,0,0,0.407523,6.406245,1.663979)"
       x1="17.324116"
       y1="12.28867"
       x2="17.324116"
       y2="37.926449" />
  </defs>
  <sodipodi:namedview
     id="base"
     pagecolor="#ffffff"
     bordercolor="#666666"
     borderopacity="1.0"
     inkscape:pageopacity="0.0"
     inkscape:pageshadow="2"
     inkscape:zoom="1"
     inkscape:cx="11.485382"
     inkscape:cy="12.12939"
     inkscape:document-units="px"
     inkscape:current-layer="layer1"
     width="22px"
     height="22px"
     inkscape:showpageshadow="false"
     showgrid="false"
     inkscape:window-width="823"
     inkscape:window-height="536"
     inkscape:window-x="69"
     inkscape:window-y="111"
     showborder="false" />
  <metadata
     id="metadata7">
    <rdf:RDF>
      <cc:Work
         rdf:about="">
        <dc:format>image/svg+xml</dc:format>
        <dc:type
           rdf:resource="http://purl.org/dc/dcmitype/StillImage" />
      </cc:Work>
    </rdf:RDF>
  </metadata>
  <g
     inkscape:label="Capa 1"
     inkscape:groupmode="layer"
     id="layer1">
    <path
       style="fill:url(#linearGradient4940);fill-opacity:1;stroke:#8c8c8c;stroke-width:1.00000107;stroke-linecap:round;stroke-linejoin:round;stroke-miterlimit:4;stroke-dashoffset:0;stroke-opacity:1"
       d="M 0.71306476,2.5373665 L 11.674012,0.50000105 L 13.286937,0.90535039 C 13.404976,0.90535039 13.500002,0.9686652 13.500002,1.0473146 L 13.500002,15.026713 C 13.500002,15.105362 13.404976,15.168678 13.286937,15.168678 L 11.674012,15.581061 L 7.8210746,15.216973 L 5.9743143,18.500007 L 3.9946406,18.500007 L 2.9113069,14.634883 L 0.71306476,14.353632 C 0.60368032,14.325451 0.50000045,14.290316 0.50000045,14.211667 L 0.50000045,2.6793319 C 0.50000045,2.6036863 0.60689616,2.5534935 0.71306476,2.5373665 z "
       id="path4884"
       sodipodi:nodetypes="ccccccccccccccc" />
    <path
       style="fill:url(#linearGradient4937);fill-opacity:1;stroke:none;stroke-width:1;stroke-linecap:round;stroke-linejoin:round;stroke-miterlimit:4;stroke-dashoffset:0;stroke-opacity:1"
       d="M 11,1 L 13.001228,1.3888885 L 13.001228,14.598958 L 11,15 L 11,1 z "
       id="path4886"
       sodipodi:nodetypes="ccccc" />
    <path
       style="fill:none;fill-opacity:1;fill-rule:evenodd;stroke:url(#linearGradient4934);stroke-width:1.00000036px;stroke-linecap:butt;stroke-linejoin:miter;stroke-opacity:1"
       d="M 10.5,1.5000002 L 10.5,14.840603"
       id="path4888" />
    <path
       style="fill:none;fill-opacity:1;stroke:url(#linearGradient4931);stroke-width:1.00000012;stroke-linecap:round;stroke-linejoin:miter;stroke-miterlimit:4;stroke-dasharray:none;stroke-dashoffset:0;stroke-opacity:1"
       d="M 1.6802864,3.3172072 L 11.052326,1.5000002 L 12.319711,1.8135063 C 12.419591,1.8435316 12.499998,1.8699809 12.499998,1.9401297 L 12.499998,14.456942 C 12.499998,14.527092 12.419591,14.583566 12.319711,14.583566 L 10.954929,14.951384 L 6.1072194,14.376649 L 4.4034113,17.500001 L 3.6860073,14.02879 L 1.6802864,13.856594 C 1.5877289,13.831459 1.5000003,13.800121 1.5000003,13.729969 L 1.5000003,3.4438304 C 1.5000003,3.3763597 1.5904506,3.3315898 1.6802864,3.3172072 z "
       id="path4890"
       sodipodi:nodetypes="cccccccccccccc" />
    <path
       style="opacity:0.78242678;fill:url(#linearGradient4928);fill-opacity:1;stroke:none;stroke-width:1;stroke-linecap:round;stroke-linejoin:round;stroke-miterlimit:4;stroke-dashoffset:0;stroke-opacity:1"
       d="M 1.1906791,3.0671515 L 11,1 L 11,9.5742387 C 9.3052018,6.0672394 2.2578308,6.4542559 1,9.5742387 L 1,3.2111911 C 1,3.1344413 1.0956649,3.0835134 1.1906791,3.0671515 z "
       id="path4892"
       sodipodi:nodetypes="cccccc" />
    <path
       style="fill:black;fill-opacity:0.23175964;fill-rule:evenodd;stroke:none;stroke-width:1px;stroke-linecap:butt;stroke-linejoin:miter;stroke-opacity:1"
       d="M 5.8685023,18 L 8,14.263955 L 6.2737096,14 L 4,18 L 5.8685023,18 z "
       id="path4894"
       sodipodi:nodetypes="ccccc" />
    <path
       style="fill:url(#linearGradient4956);fill-opacity:1;stroke:#969696;stroke-width:1.00000083;stroke-linecap:round;stroke-linejoin:round;stroke-miterlimit:4;stroke-dashoffset:0;stroke-opacity:1"
       d="M 7.7294533,5.5373697 L 19.53356,3.5000034 L 21.270557,3.9053531 C 21.397677,3.9053531 21.500012,3.9686688 21.500012,4.0473168 L 21.500012,18.026717 C 21.500012,18.105366 21.397677,18.168682 21.270557,18.168682 L 19.53356,18.581063 L 15.38424,18.216976 L 13.395418,21.50001 L 11.263461,21.50001 L 10.096792,17.634886 L 7.7294533,17.353635 C 7.6116542,17.325455 7.4999988,17.290318 7.4999988,17.21167 L 7.4999988,5.6793345 C 7.4999988,5.603689 7.6151177,5.5534957 7.7294533,5.5373697 z "
       id="path5733"
       sodipodi:nodetypes="ccccccccccccccc" />
    <path
       style="fill:url(#linearGradient4953);fill-opacity:1;stroke:none;stroke-width:1;stroke-linecap:round;stroke-linejoin:round;stroke-miterlimit:4;stroke-dashoffset:0;stroke-opacity:1"
       d="M 19,4 L 21,4.3888887 L 21,17.598958 L 19,18 L 19,4 z "
       id="path5737"
       sodipodi:nodetypes="ccccc" />
    <path
       style="fill:none;fill-opacity:1;fill-rule:evenodd;stroke:url(#linearGradient4950);stroke-width:1.00000024px;stroke-linecap:butt;stroke-linejoin:miter;stroke-opacity:1"
       d="M 18.5,3.9270693 L 18.5,18.361521"
       id="path5739" />
    <path
       style="fill:none;fill-opacity:1;stroke:url(#linearGradient4947);stroke-width:1.00000072;stroke-linecap:round;stroke-linejoin:miter;stroke-miterlimit:4;stroke-dasharray:none;stroke-dashoffset:0;stroke-opacity:1"
       d="M 8.696679,6.3172084 L 18.920727,4.5000009 L 20.303331,4.8135069 C 20.412289,4.8435324 20.500006,4.8699808 20.500006,4.9401306 L 20.500006,17.45695 C 20.500006,17.527099 20.412289,17.583573 20.303331,17.583573 L 18.814477,17.951393 L 13.526063,17.376657 L 11.667362,20.500008 L 10.884739,17.028798 L 8.696679,16.856601 C 8.5957065,16.831466 8.5000027,16.800127 8.5000027,16.729977 L 8.5000027,6.4438321 C 8.5000027,6.3763619 8.598676,6.3315911 8.696679,6.3172084 z "
       id="path5741"
       sodipodi:nodetypes="cccccccccccccc" />
    <path
       style="opacity:0.78242678;fill:url(#linearGradient4944);fill-opacity:1;stroke:none;stroke-width:1;stroke-linecap:round;stroke-linejoin:round;stroke-miterlimit:4;stroke-dashoffset:0;stroke-opacity:1"
       d="M 8.2097472,6.0615943 L 19,4 L 19,12.551187 C 17.135721,9.0536153 9.3836142,9.4395914 8,12.551187 L 8,6.2052459 C 8,6.1287029 8.1052315,6.0779111 8.2097472,6.0615943 z "
       id="path5743"
       sodipodi:nodetypes="cccccc" />
    <path
       style="fill:black;fill-opacity:0.23175964;fill-rule:evenodd;stroke:none;stroke-width:1px;stroke-linecap:butt;stroke-linejoin:miter;stroke-opacity:1"
       d="M 13.664697,21.231286 L 15.582846,17.985678 L 14.029346,17.756374 L 11.98322,21.231286 L 13.664697,21.231286 z "
       id="path3985"
       sodipodi:nodetypes="ccccc" />
  </g>
</svg>
