<?xml version="1.0" encoding="UTF-8" standalone="no"?>
<!-- Created with Inkscape (http://www.inkscape.org/) -->
<svg
   xmlns:dc="http://purl.org/dc/elements/1.1/"
   xmlns:cc="http://web.resource.org/cc/"
   xmlns:rdf="http://www.w3.org/1999/02/22-rdf-syntax-ns#"
   xmlns:svg="http://www.w3.org/2000/svg"
   xmlns="http://www.w3.org/2000/svg"
   xmlns:xlink="http://www.w3.org/1999/xlink"
   xmlns:sodipodi="http://inkscape.sourceforge.net/DTD/sodipodi-0.dtd"
   xmlns:inkscape="http://www.inkscape.org/namespaces/inkscape"
   width="22"
   height="22"
   id="svg3947"
   sodipodi:version="0.32"
   inkscape:version="0.43+devel"
   sodipodi:docbase="/home/silvestre/Desktop/Neu/22x22/apps/SVGs"
   sodipodi:docname="preferences-desktop-remote-desktop.svg"
   version="1.0">
  <defs
     id="defs3949">
    <linearGradient
       id="linearGradient8389"
       inkscape:collect="always">
      <stop
         id="stop8391"
         offset="0"
         style="stop-color:#000000;stop-opacity:0.092000000" />
      <stop
         id="stop8393"
         offset="1"
         style="stop-color:#000000;stop-opacity:0;" />
    </linearGradient>
    <linearGradient
       inkscape:collect="always"
       id="linearGradient8365">
      <stop
         style="stop-color:#000000;stop-opacity:0.18000001"
         offset="0"
         id="stop8367" />
      <stop
         style="stop-color:#000000;stop-opacity:0;"
         offset="1"
         id="stop8369" />
    </linearGradient>
    <linearGradient
       inkscape:collect="always"
       id="linearGradient7601">
      <stop
         style="stop-color:#ffffff;stop-opacity:0.56000000"
         offset="0"
         id="stop7603" />
      <stop
         style="stop-color:#ffffff;stop-opacity:0;"
         offset="1"
         id="stop7605" />
    </linearGradient>
    <linearGradient
       id="linearGradient6137">
      <stop
         style="stop-color:#ffca53;stop-opacity:1.0000000;"
         offset="0.0000000"
         id="stop6139" />
      <stop
         style="stop-color:#dfb348;stop-opacity:1.0000000;"
         offset="1.0000000"
         id="stop6141" />
    </linearGradient>
    <radialGradient
       gradientUnits="userSpaceOnUse"
       gradientTransform="matrix(0.91358,2.206993e-7,-4.100829e-8,0.169753,4.848958,95.59596)"
       r="54.105412"
       fy="136.4689"
       fx="56.109314"
       cy="115.14162"
       cx="56.109314"
       id="radialGradient6525"
       xlink:href="#linearGradient6519"
       inkscape:collect="always" />
    <linearGradient
       id="linearGradient2087">
      <stop
         id="stop2089"
         offset="0"
         style="stop-color:#5ab9ff;stop-opacity:1;" />
      <stop
         style="stop-color:#007be4;stop-opacity:1;"
         offset="0.0000000"
         id="stop2816" />
      <stop
         id="stop2818"
         offset="0.75"
         style="stop-color:#005eb5;stop-opacity:1;" />
      <stop
         id="stop2091"
         offset="1"
         style="stop-color:#004d9b;stop-opacity:1;" />
    </linearGradient>
    <linearGradient
       id="linearGradient4308">
      <stop
         id="stop4310"
         offset="0.0000000"
         style="stop-color:#ffffff;stop-opacity:0.22916669;" />
      <stop
         id="stop4312"
         offset="1"
         style="stop-color:#ffffff;stop-opacity:0;" />
    </linearGradient>
    <linearGradient
       id="linearGradient5044"
       inkscape:collect="always">
      <stop
         id="stop5046"
         offset="0"
         style="stop-color:#ffffff;stop-opacity:1;" />
      <stop
         id="stop5048"
         offset="1"
         style="stop-color:#ffffff;stop-opacity:0;" />
    </linearGradient>
    <linearGradient
       id="linearGradient6519"
       inkscape:collect="always">
      <stop
         id="stop6521"
         offset="0"
         style="stop-color:black;stop-opacity:0.39215687" />
      <stop
         id="stop6523"
         offset="1"
         style="stop-color:#000000;stop-opacity:0;" />
    </linearGradient>
    <linearGradient
       id="linearGradient6534"
       inkscape:collect="always">
      <stop
         id="stop6536"
         offset="0"
         style="stop-color:#000000;stop-opacity:0.39600000" />
      <stop
         id="stop6538"
         offset="1"
         style="stop-color:#000000;stop-opacity:0;" />
    </linearGradient>
    <linearGradient
       id="linearGradient4206"
       inkscape:collect="always">
      <stop
         id="stop4208"
         offset="0"
         style="stop-color:#ffffff;stop-opacity:1;" />
      <stop
         id="stop4210"
         offset="1"
         style="stop-color:#ffffff;stop-opacity:0.36909872" />
    </linearGradient>
    <radialGradient
       inkscape:collect="always"
       xlink:href="#linearGradient8389"
       id="radialGradient4046"
       gradientUnits="userSpaceOnUse"
       gradientTransform="matrix(0.9,-4.584638e-9,9.056027e-10,0.177778,6.345696,90.96477)"
       cx="63.456963"
       cy="110.63283"
       fx="63.456963"
       fy="110.63283"
       r="60.117123" />
    <radialGradient
       inkscape:collect="always"
       xlink:href="#linearGradient8365"
       id="radialGradient4048"
       gradientUnits="userSpaceOnUse"
       gradientTransform="matrix(0.9,-4.584638e-9,9.056027e-10,0.177778,6.345696,90.96477)"
       cx="63.456963"
       cy="110.63283"
       fx="63.456963"
       fy="110.63283"
       r="60.117123" />
    <radialGradient
       inkscape:collect="always"
       xlink:href="#linearGradient8365"
       id="radialGradient4050"
       gradientUnits="userSpaceOnUse"
       gradientTransform="matrix(0.9,-4.584638e-9,9.056027e-10,0.177778,6.345696,90.96477)"
       cx="63.456963"
       cy="110.63283"
       fx="63.456963"
       fy="110.63283"
       r="60.117123" />
    <radialGradient
       inkscape:collect="always"
       xlink:href="#linearGradient8365"
       id="radialGradient4052"
       gradientUnits="userSpaceOnUse"
       gradientTransform="matrix(0.9,-4.584638e-9,9.056027e-10,0.177778,6.345696,90.96477)"
       cx="63.456963"
       cy="110.63283"
       fx="63.456963"
       fy="110.63283"
       r="60.117123" />
    <radialGradient
       inkscape:collect="always"
       xlink:href="#linearGradient8365"
       id="radialGradient4054"
       gradientUnits="userSpaceOnUse"
       gradientTransform="matrix(0.9,-4.584638e-9,9.056027e-10,0.177778,6.345696,90.96477)"
       cx="63.456963"
       cy="110.63283"
       fx="63.456963"
       fy="110.63283"
       r="60.117123" />
    <linearGradient
       inkscape:collect="always"
       xlink:href="#linearGradient6137"
       id="linearGradient4056"
       gradientUnits="userSpaceOnUse"
       gradientTransform="matrix(0.37162,0,0,0.406589,-0.455101,-0.886688)"
       x1="70.398491"
       y1="55.110344"
       x2="102.74317"
       y2="58.450184" />
    <linearGradient
       inkscape:collect="always"
       xlink:href="#linearGradient7601"
       id="linearGradient4058"
       gradientUnits="userSpaceOnUse"
       gradientTransform="matrix(0.36562,0,0,0.420739,1.547602,-2.220545)"
       x1="58.781189"
       y1="33.482525"
       x2="57.111267"
       y2="59.700268" />
    <linearGradient
       inkscape:collect="always"
       xlink:href="#linearGradient5044"
       id="linearGradient4062"
       gradientUnits="userSpaceOnUse"
       gradientTransform="matrix(9.950201e-2,0,0,0.104355,3.2141,-0.355465)"
       x1="70.848709"
       y1="-18.184502"
       x2="67.070114"
       y2="69.195572" />
    <linearGradient
       inkscape:collect="always"
       xlink:href="#linearGradient4206"
       id="linearGradient4070"
       gradientUnits="userSpaceOnUse"
       x1="59.64286"
       y1="14.832381"
       x2="59.64286"
       y2="121.82737" />
    <radialGradient
       inkscape:collect="always"
       xlink:href="#linearGradient2087"
       id="radialGradient4072"
       gradientUnits="userSpaceOnUse"
       gradientTransform="matrix(1.119035,5.340557e-16,-5.627992e-16,1.119035,-6.268888,-7.140347)"
       cx="52.664207"
       cy="59.985241"
       fx="52.664207"
       fy="59.985241"
       r="56.442806" />
    <radialGradient
       inkscape:collect="always"
       xlink:href="#linearGradient4308"
       id="radialGradient4074"
       gradientUnits="userSpaceOnUse"
       gradientTransform="matrix(0.682499,6.91885e-17,-7.291221e-17,0.682499,23.05181,36.74932)"
       cx="64.841805"
       cy="119.52609"
       fx="64.841805"
       fy="119.52609"
       r="56.442806" />
    <linearGradient
       inkscape:collect="always"
       xlink:href="#linearGradient6534"
       id="linearGradient4076"
       gradientUnits="userSpaceOnUse"
       x1="29.183714"
       y1="367.82727"
       x2="83.525612"
       y2="21.705061" />
    <radialGradient
       inkscape:collect="always"
       xlink:href="#linearGradient8365"
       id="radialGradient4001"
       gradientUnits="userSpaceOnUse"
       gradientTransform="matrix(0.9,-4.584638e-9,9.056027e-10,0.177778,6.345696,90.96477)"
       cx="63.456963"
       cy="110.63283"
       fx="63.456963"
       fy="110.63283"
       r="60.117123" />
    <radialGradient
       inkscape:collect="always"
       xlink:href="#linearGradient8365"
       id="radialGradient4011"
       gradientUnits="userSpaceOnUse"
       gradientTransform="matrix(0.9,-4.584638e-9,9.056027e-10,0.177778,6.345696,90.96477)"
       cx="63.456963"
       cy="110.63283"
       fx="63.456963"
       fy="110.63283"
       r="60.117123" />
    <radialGradient
       inkscape:collect="always"
       xlink:href="#linearGradient8365"
       id="radialGradient4021"
       gradientUnits="userSpaceOnUse"
       gradientTransform="matrix(0.9,-4.584638e-9,9.056027e-10,0.177778,6.345696,90.96477)"
       cx="63.456963"
       cy="110.63283"
       fx="63.456963"
       fy="110.63283"
       r="60.117123" />
  </defs>
  <sodipodi:namedview
     id="base"
     pagecolor="#ffffff"
     bordercolor="#666666"
     borderopacity="1.0"
     inkscape:pageopacity="0.0"
     inkscape:pageshadow="2"
     inkscape:zoom="1"
     inkscape:cx="11"
     inkscape:cy="11"
     inkscape:document-units="px"
     inkscape:current-layer="layer1"
     showguides="true"
     inkscape:guide-bbox="true"
     inkscape:window-width="823"
     inkscape:window-height="536"
     inkscape:window-x="90"
     inkscape:window-y="156"
     width="22px"
     height="22px"
     inkscape:showpageshadow="false"
     showgrid="false"
     showborder="false" />
  <metadata
     id="metadata3952">
    <rdf:RDF>
      <cc:Work
         rdf:about="">
        <dc:format>image/svg+xml</dc:format>
        <dc:type
           rdf:resource="http://purl.org/dc/dcmitype/StillImage" />
      </cc:Work>
    </rdf:RDF>
  </metadata>
  <g
     inkscape:label="Layer 1"
     inkscape:groupmode="layer"
     id="layer1">
    <g
       id="g4027"
       transform="matrix(0.3883,0,0,0.364422,0.301856,4.497641)">
      <path
         transform="matrix(0.399131,0,0,0.365659,-1.295063,2.933113)"
         style="color:black;fill:url(#radialGradient4046);fill-opacity:1;fill-rule:evenodd;stroke:none;stroke-width:2;stroke-linecap:round;stroke-linejoin:round;stroke-miterlimit:4;stroke-dashoffset:0;stroke-opacity:1;marker:none;marker-start:none;marker-mid:none;marker-end:none;visibility:visible;display:inline;overflow:visible"
         d="M 123.57409,110.63283 C 123.57409,117.63848 96.641614,123.32422 63.456963,123.32422 C 30.272311,123.32422 3.3398399,117.63848 3.3398399,110.63283 C 3.3398399,103.62718 30.272311,97.941435 63.456963,97.941435 C 96.641614,97.941435 123.57409,103.62718 123.57409,110.63283 z "
         id="path8363" />
      <g
         id="g4013"
         transform="translate(10.30131,-5.488211)">
        <path
           sodipodi:type="arc"
           style="opacity:1;color:black;fill:url(#radialGradient4021);fill-opacity:1;fill-rule:evenodd;stroke:none;stroke-width:2;stroke-linecap:round;stroke-linejoin:round;marker:none;marker-start:none;marker-mid:none;marker-end:none;stroke-miterlimit:4;stroke-dasharray:none;stroke-dashoffset:0;stroke-opacity:1;visibility:visible;display:inline;overflow:visible"
           id="path4015"
           sodipodi:cx="63.456963"
           sodipodi:cy="110.63283"
           sodipodi:rx="60.117123"
           sodipodi:ry="12.691393"
           d="M 123.57409 110.63283 A 60.117123 12.691393 0 1 1  3.3398399,110.63283 A 60.117123 12.691393 0 1 1  123.57409 110.63283 z"
           transform="matrix(8.5677e-2,0,0,0.324324,24.68976,8.030787)" />
        <rect
           style="color:black;fill:#a14e01;fill-opacity:1;fill-rule:evenodd;stroke:none;stroke-width:2;stroke-linecap:round;stroke-linejoin:round;marker:none;marker-start:none;marker-mid:none;marker-end:none;stroke-miterlimit:4;stroke-dasharray:none;stroke-dashoffset:0;stroke-opacity:1;visibility:visible;display:inline;overflow:visible"
           id="rect4017"
           width="5.1506553"
           height="18.36874"
           x="-32.701889"
           y="26.914911"
           rx="2.0974593"
           ry="0.64021981"
           transform="scale(-1,1)" />
        <rect
           style="color:black;fill:black;fill-opacity:0.31600001;fill-rule:evenodd;stroke:none;stroke-width:2;stroke-linecap:round;stroke-linejoin:round;marker:none;marker-start:none;marker-mid:none;marker-end:none;stroke-miterlimit:4;stroke-dasharray:none;stroke-dashoffset:0;stroke-opacity:1;visibility:visible;display:inline;overflow:visible"
           id="rect4019"
           width="2.5753272"
           height="18.36874"
           x="-32.701889"
           y="26.914911"
           rx="1.8727316"
           ry="0.64021981"
           transform="scale(-1,1)" />
      </g>
      <g
         id="g4003"
         transform="translate(-12.87664,-8.232282)">
        <path
           sodipodi:type="arc"
           style="opacity:1;color:black;fill:url(#radialGradient4011);fill-opacity:1;fill-rule:evenodd;stroke:none;stroke-width:2;stroke-linecap:round;stroke-linejoin:round;marker:none;marker-start:none;marker-mid:none;marker-end:none;stroke-miterlimit:4;stroke-dasharray:none;stroke-dashoffset:0;stroke-opacity:1;visibility:visible;display:inline;overflow:visible"
           id="path4005"
           sodipodi:cx="63.456963"
           sodipodi:cy="110.63283"
           sodipodi:rx="60.117123"
           sodipodi:ry="12.691393"
           d="M 123.57409 110.63283 A 60.117123 12.691393 0 1 1  3.3398399,110.63283 A 60.117123 12.691393 0 1 1  123.57409 110.63283 z"
           transform="matrix(8.5677e-2,0,0,0.324324,24.68976,8.030787)" />
        <rect
           style="color:black;fill:#a14e01;fill-opacity:1;fill-rule:evenodd;stroke:none;stroke-width:2;stroke-linecap:round;stroke-linejoin:round;marker:none;marker-start:none;marker-mid:none;marker-end:none;stroke-miterlimit:4;stroke-dasharray:none;stroke-dashoffset:0;stroke-opacity:1;visibility:visible;display:inline;overflow:visible"
           id="rect4007"
           width="5.1506553"
           height="18.36874"
           x="-32.701889"
           y="26.914911"
           rx="2.0974593"
           ry="0.64021981"
           transform="scale(-1,1)" />
        <rect
           style="color:black;fill:black;fill-opacity:0.31600001;fill-rule:evenodd;stroke:none;stroke-width:2;stroke-linecap:round;stroke-linejoin:round;marker:none;marker-start:none;marker-mid:none;marker-end:none;stroke-miterlimit:4;stroke-dasharray:none;stroke-dashoffset:0;stroke-opacity:1;visibility:visible;display:inline;overflow:visible"
           id="rect4009"
           width="2.5753272"
           height="18.36874"
           x="-32.701889"
           y="26.914911"
           rx="1.8727316"
           ry="0.64021981"
           transform="scale(-1,1)" />
      </g>
      <g
         id="g3993"
         transform="matrix(1,0,0,1.129968,-23.17795,-6.242153)">
        <path
           sodipodi:type="arc"
           style="opacity:1;color:black;fill:url(#radialGradient4001);fill-opacity:1;fill-rule:evenodd;stroke:none;stroke-width:2;stroke-linecap:round;stroke-linejoin:round;marker:none;marker-start:none;marker-mid:none;marker-end:none;stroke-miterlimit:4;stroke-dasharray:none;stroke-dashoffset:0;stroke-opacity:1;visibility:visible;display:inline;overflow:visible"
           id="path3995"
           sodipodi:cx="63.456963"
           sodipodi:cy="110.63283"
           sodipodi:rx="60.117123"
           sodipodi:ry="12.691393"
           d="M 123.57409 110.63283 A 60.117123 12.691393 0 1 1  3.3398399,110.63283 A 60.117123 12.691393 0 1 1  123.57409 110.63283 z"
           transform="matrix(8.5677e-2,0,0,0.324324,24.68976,8.030787)" />
        <rect
           style="color:black;fill:#a14e01;fill-opacity:1;fill-rule:evenodd;stroke:none;stroke-width:2;stroke-linecap:round;stroke-linejoin:round;marker:none;marker-start:none;marker-mid:none;marker-end:none;stroke-miterlimit:4;stroke-dasharray:none;stroke-dashoffset:0;stroke-opacity:1;visibility:visible;display:inline;overflow:visible"
           id="rect3997"
           width="5.1506553"
           height="18.684437"
           x="-32.701889"
           y="26.914911"
           rx="2.0974593"
           ry="0.65122306"
           transform="scale(-1,1)" />
        <rect
           style="color:black;fill:black;fill-opacity:0.31600001;fill-rule:evenodd;stroke:none;stroke-width:2;stroke-linecap:round;stroke-linejoin:round;marker:none;marker-start:none;marker-mid:none;marker-end:none;stroke-miterlimit:4;stroke-dasharray:none;stroke-dashoffset:0;stroke-opacity:1;visibility:visible;display:inline;overflow:visible"
           id="rect3999"
           width="2.5753272"
           height="18.684437"
           x="-32.701889"
           y="26.914911"
           rx="1.8727316"
           ry="0.65122306"
           transform="scale(-1,1)" />
      </g>
      <g
         id="g3988">
        <path
           sodipodi:type="arc"
           style="opacity:1;color:black;fill:url(#radialGradient4050);fill-opacity:1;fill-rule:evenodd;stroke:none;stroke-width:2;stroke-linecap:round;stroke-linejoin:round;marker:none;marker-start:none;marker-mid:none;marker-end:none;stroke-miterlimit:4;stroke-dasharray:none;stroke-dashoffset:0;stroke-opacity:1;visibility:visible;display:inline;overflow:visible"
           id="path8381"
           sodipodi:cx="63.456963"
           sodipodi:cy="110.63283"
           sodipodi:rx="60.117123"
           sodipodi:ry="12.691393"
           d="M 123.57409 110.63283 A 60.117123 12.691393 0 1 1  3.3398399,110.63283 A 60.117123 12.691393 0 1 1  123.57409 110.63283 z"
           transform="matrix(8.5677e-2,0,0,0.324324,24.68976,8.030787)" />
        <rect
           style="color:black;fill:#a14e01;fill-opacity:1;fill-rule:evenodd;stroke:none;stroke-width:2;stroke-linecap:round;stroke-linejoin:round;marker:none;marker-start:none;marker-mid:none;marker-end:none;stroke-miterlimit:4;stroke-dasharray:none;stroke-dashoffset:0;stroke-opacity:1;visibility:visible;display:inline;overflow:visible"
           id="rect8345"
           width="5.1506553"
           height="18.36874"
           x="-32.701889"
           y="26.914911"
           rx="2.0974593"
           ry="0.64021981"
           transform="scale(-1,1)" />
        <rect
           style="color:black;fill:black;fill-opacity:0.31600001;fill-rule:evenodd;stroke:none;stroke-width:2;stroke-linecap:round;stroke-linejoin:round;marker:none;marker-start:none;marker-mid:none;marker-end:none;stroke-miterlimit:4;stroke-dasharray:none;stroke-dashoffset:0;stroke-opacity:1;visibility:visible;display:inline;overflow:visible"
           id="rect8347"
           width="2.5753272"
           height="18.36874"
           x="-32.701889"
           y="26.914911"
           rx="1.8727316"
           ry="0.64021981"
           transform="scale(-1,1)" />
      </g>
      <path
         sodipodi:nodetypes="ccccccc"
         id="path3955"
         d="M 0.5102884,25.471457 L 0.5102884,30.191257 L 35.800191,30.191257 L 46.866208,18.295444 L 46.866208,13.726833 L 11.91944,13.726833 L 0.5102884,25.471457 z "
         style="fill:url(#linearGradient4056);fill-opacity:1;fill-rule:evenodd;stroke:#c05e04;stroke-width:2.65836453;stroke-linecap:round;stroke-linejoin:round;stroke-miterlimit:4;stroke-dasharray:none;stroke-opacity:1" />
      <path
         sodipodi:nodetypes="ccccc"
         id="path4683"
         d="M 35.293585,28.819223 L 45.578532,17.761536 L 45.578532,15.077595 L 35.277219,26.227419 L 35.293585,28.819223 z "
         style="fill:black;fill-opacity:0.23599997;fill-rule:evenodd;stroke:none;stroke-width:0.25pt;stroke-linecap:butt;stroke-linejoin:miter;stroke-opacity:1" />
      <path
         sodipodi:nodetypes="ccccc"
         id="path6145"
         d="M 1.8089667,28.819223 L 35.277219,28.819223 L 35.255186,26.075152 L 1.79795,26.075152 L 1.8089667,28.819223 z "
         style="fill:white;fill-opacity:0.30400002;fill-rule:evenodd;stroke:none;stroke-width:0.25pt;stroke-linecap:butt;stroke-linejoin:miter;stroke-opacity:1" />
      <path
         sodipodi:nodetypes="ccccc"
         id="path6873"
         d="M 4.3732784,23.249052 L 12.520347,15.098866 L 45.578532,15.159065 L 35.418783,26.047435 C 27.522279,17.17123 14.834111,19.478422 4.3732784,23.249052 z "
         style="fill:url(#linearGradient4058);fill-opacity:1;fill-rule:evenodd;stroke:none;stroke-width:0.25pt;stroke-linecap:butt;stroke-linejoin:miter;stroke-opacity:1" />
    </g>
    <g
       id="g4025">
      <path
         transform="matrix(0.102592,0,-2.775915e-2,3.54341e-2,6.06166,8.48954)"
         d="M 123.74908 70.848709 A 56.442806 56.442806 0 1 1  10.863468,70.848709 A 56.442806 56.442806 0 1 1  123.74908 70.848709 z"
         sodipodi:ry="56.442806"
         sodipodi:rx="56.442806"
         sodipodi:cy="70.848709"
         sodipodi:cx="67.306274"
         id="path6532"
         style="color:black;fill:url(#linearGradient4076);fill-opacity:1;fill-rule:evenodd;stroke:none;stroke-width:3;stroke-linecap:round;stroke-linejoin:round;marker:none;marker-start:none;marker-mid:none;marker-end:none;stroke-miterlimit:4;stroke-dasharray:none;stroke-dashoffset:0;stroke-opacity:1;visibility:visible;display:inline;overflow:visible"
         sodipodi:type="arc" />
      <path
         transform="matrix(0.120136,0,0,0.217756,2.75926,-13.07273)"
         d="M 110.21473 115.14162 A 54.105412 9.1845608 0 1 1  2.0039024,115.14162 A 54.105412 9.1845608 0 1 1  110.21473 115.14162 z"
         sodipodi:ry="9.1845608"
         sodipodi:rx="54.105412"
         sodipodi:cy="115.14162"
         sodipodi:cx="56.109314"
         id="path5065"
         style="color:black;fill:url(#radialGradient6525);fill-opacity:1;fill-rule:evenodd;stroke:none;stroke-width:3;stroke-linecap:round;stroke-linejoin:round;marker:none;marker-start:none;marker-mid:none;marker-end:none;stroke-miterlimit:4;stroke-dasharray:none;stroke-dashoffset:0;stroke-opacity:1;visibility:visible;display:inline;overflow:visible"
         sodipodi:type="arc" />
      <path
         transform="matrix(0.106088,0,0,0.106344,2.34752,-1.031972)"
         d="M 123.74908 70.848709 A 56.442806 56.442806 0 1 1  10.863468,70.848709 A 56.442806 56.442806 0 1 1  123.74908 70.848709 z"
         sodipodi:ry="56.442806"
         sodipodi:rx="56.442806"
         sodipodi:cy="70.848709"
         sodipodi:cx="67.306274"
         id="path1359"
         style="color:black;fill:url(#radialGradient4072);fill-opacity:1;fill-rule:evenodd;stroke:#164196;stroke-width:9.41484737;stroke-linecap:round;stroke-linejoin:round;marker:none;marker-start:none;marker-mid:none;marker-end:none;stroke-miterlimit:4;stroke-dasharray:none;stroke-dashoffset:0;stroke-opacity:1;visibility:visible;display:inline;overflow:visible"
         sodipodi:type="arc" />
      <g
         style="fill:#dae7f5;fill-opacity:1"
         transform="matrix(0.106516,0,0,9.997259e-2,1.88907,-0.545147)"
         inkscape:label="Layer 1"
         id="g2125">
        <path
           id="path4290"
           style="fill:#dae7f5;fill-opacity:1;fill-rule:evenodd;stroke:none;stroke-width:1pt;stroke-linecap:butt;stroke-linejoin:miter;stroke-opacity:1"
           d="M 68.095711,15.455708 C 63.486211,16.461808 58.558011,16.712038 54.442411,19.236058 C 52.848311,19.366288 46.408311,21.892818 50.706411,22.331538 C 53.368611,21.575958 54.605811,18.807748 57.578111,19.039898 C 60.769111,18.090538 64.051011,16.960998 67.529711,16.296418 C 67.888811,16.129528 67.896111,15.733868 68.095711,15.455708 z M 74.881611,16.348898 C 72.579011,18.997088 67.269511,18.828728 66.952211,23.142298 C 68.037411,24.633818 73.377211,17.613778 74.947411,21.950378 C 75.256711,24.857868 73.319011,28.527882 69.962111,26.633232 C 68.333311,26.497262 66.304911,26.832062 66.372611,25.374442 C 65.527211,27.512782 58.792211,31.650712 61.157911,27.040162 C 62.386411,26.116862 59.438911,25.948982 61.463711,24.362918 C 63.255711,22.543288 57.568911,22.714808 59.722111,24.677648 C 58.474611,26.397732 57.912311,28.227272 55.460511,28.526582 C 57.553211,28.293062 59.728511,27.954602 58.123111,30.188332 C 59.334811,34.740872 51.727411,32.363842 50.793911,35.724322 C 48.027611,40.175402 54.936911,39.940022 56.909211,37.746942 C 56.576211,33.630832 60.812011,34.845712 63.034611,34.439362 C 65.369511,32.706172 67.834911,38.067852 68.990511,39.984502 C 70.505411,40.783952 72.167811,37.651162 69.860511,36.841012 C 70.134311,35.302352 65.179711,32.698312 68.315511,32.586112 C 70.411411,33.700802 71.590511,36.010122 71.985711,37.513862 C 76.163011,37.324662 70.268811,42.152312 74.278111,40.683952 C 76.818611,40.229202 74.004411,35.992172 77.376811,37.653782 C 81.639111,39.290502 75.913211,32.153982 80.779211,32.123812 C 83.039811,30.788912 81.826911,36.763032 83.218911,33.842812 C 84.009211,29.112122 90.337111,35.607102 87.453211,37.501232 C 83.786611,36.481532 80.093511,36.184062 78.505411,40.312932 C 78.283911,42.257242 83.845511,37.507732 83.196811,40.975752 C 84.369211,44.653572 78.594311,45.323392 76.415811,44.049152 C 74.413011,41.638192 72.547711,43.885102 71.057011,44.982102 C 68.733311,44.657332 61.002611,44.043202 64.270711,40.579652 C 65.135111,36.963522 59.756611,40.250492 57.799111,39.435832 C 55.327511,40.774802 51.519411,39.589012 49.543511,41.585652 C 49.261011,43.901002 45.557911,42.624462 44.951611,45.410672 C 43.552311,48.582382 38.914711,49.641612 38.797911,53.041372 C 38.664911,56.841112 36.875111,60.298752 38.862711,64.042252 C 39.340711,67.871032 42.967611,70.239762 46.678711,69.340392 C 48.827411,69.294192 50.843211,71.982782 52.354611,68.740642 C 54.790111,64.728422 57.280711,70.976962 60.333811,69.354492 C 62.848111,72.250542 58.230811,75.695642 62.172011,77.723172 C 65.476511,81.223952 64.494711,86.086302 63.051011,90.151212 C 63.073311,93.424482 67.370211,95.128412 67.291511,98.372682 C 66.963311,103.01599 71.142011,107.08971 75.701311,104.8457 C 78.656311,104.01268 79.852811,100.50346 82.882211,99.693132 C 85.181311,97.752552 84.181911,92.083342 88.379011,91.945372 C 94.106511,90.029932 89.997511,83.182612 91.558411,79.305892 C 93.847911,76.601452 94.819711,72.598872 98.326811,71.100952 C 101.03751,68.727402 99.248011,63.943472 101.99751,61.255132 C 99.668611,63.050432 95.749511,64.621072 93.200011,62.440412 C 89.254311,59.017572 86.009611,54.736032 83.997511,49.906762 C 83.055911,47.771592 83.115611,43.477702 85.449911,43.497812 C 85.817611,47.978652 88.987211,51.588012 91.198911,55.308192 C 93.315311,57.726022 94.791311,61.516902 98.718711,60.249612 C 102.03681,59.124782 106.58541,56.926032 106.65831,52.992012 C 106.34851,48.537072 98.404211,52.697512 96.837011,48.151762 C 93.702411,46.284232 98.970311,43.199692 99.920211,46.662362 C 101.95451,48.737762 105.60331,47.640872 107.09931,50.445202 C 110.12741,49.091592 112.55011,50.044282 113.79761,53.221172 C 116.46661,55.864162 117.18901,59.869312 117.08971,63.491172 C 120.59221,66.905742 119.51571,58.522802 120.44171,56.461582 C 120.58121,54.506582 120.77871,52.098812 121.60211,55.296412 C 124.16491,56.524612 122.37911,51.302992 121.79401,50.127442 C 117.29941,39.859142 115.85481,37.977962 110.92461,32.066622 C 102.78801,24.086108 96.176311,20.680428 87.168211,17.710448 C 86.513311,20.909408 82.513311,18.093478 80.605411,20.772388 C 78.603611,22.285428 78.593611,22.092358 79.997111,20.083158 C 78.977811,18.255358 76.663011,17.381328 74.881611,16.348898 z M 60.688911,19.921598 C 58.688211,18.974608 53.731811,22.100338 58.169911,21.889438 C 59.424811,22.150878 59.843611,20.521148 60.688911,19.921598 z M 57.856911,24.605318 C 56.259711,25.216078 52.466411,26.291502 55.819211,27.007762 C 56.779211,26.556982 57.404611,25.522522 57.856911,24.605318 z M 67.006411,38.220812 C 64.577611,39.439302 66.847411,41.861232 68.129411,39.556922 C 67.825011,39.051922 67.347611,38.695842 67.006411,38.220812 z M 121.79521,64.144722 C 118.22811,66.576012 126.02081,68.405742 121.79521,64.144722 z M 19.842411,70.353382 C 19.635411,74.810072 20.779511,79.508172 21.774611,84.314712 C 23.058611,86.588942 23.922211,91.246432 25.399911,91.904112 C 26.939611,88.372732 23.772911,84.422972 25.619511,80.769462 C 23.396511,79.020922 26.387711,75.145152 22.774111,74.088722 C 21.636811,72.976622 20.789611,71.620202 19.842411,70.353382 z M 98.049811,84.731342 C 97.681211,88.846072 92.078511,89.812412 93.123211,93.982862 C 94.121311,96.169162 92.634011,96.330502 92.404411,98.102602 C 94.464411,99.682972 96.215411,94.538442 97.794211,93.141772 C 98.162411,91.108522 102.96401,84.254842 98.049811,84.731342 z " />
      </g>
      <path
         transform="matrix(9.744374e-2,0,0,9.744378e-2,2.94143,-0.403766)"
         d="M 123.74908 70.848709 A 56.442806 56.442806 0 1 1  10.863468,70.848709 A 56.442806 56.442806 0 1 1  123.74908 70.848709 z"
         sodipodi:ry="56.442806"
         sodipodi:rx="56.442806"
         sodipodi:cy="70.848709"
         sodipodi:cx="67.306274"
         id="path2854"
         style="color:black;fill:url(#radialGradient4074);fill-opacity:1;fill-rule:evenodd;stroke:none;stroke-width:3;stroke-linecap:round;stroke-linejoin:round;marker:none;marker-start:none;marker-mid:none;marker-end:none;stroke-miterlimit:4;stroke-dasharray:none;stroke-dashoffset:0;stroke-opacity:1;visibility:visible;display:inline;overflow:visible"
         sodipodi:type="arc" />
      <path
         sodipodi:nodetypes="csssc"
         id="path4316"
         d="M 14,4.1298793 C 14,5.8575731 11.984,7.2597597 9.5,7.2597597 C 7.016,7.2597597 5,5.8575731 5,4.1298793 C 5,2.7795486 7.205423,1 9.5,1 C 12.06525,1 14,2.8578385 14,4.1298793 z "
         style="color:black;fill:url(#linearGradient4062);fill-opacity:1;fill-rule:evenodd;stroke:none;stroke-width:3;stroke-linecap:round;stroke-linejoin:round;marker:none;marker-start:none;marker-mid:none;marker-end:none;stroke-miterlimit:4;stroke-dashoffset:0;stroke-opacity:1;visibility:visible;display:inline;overflow:visible" />
      <path
         transform="matrix(8.858522e-2,0,0,8.858522e-2,3.53766,0.223851)"
         d="M 123.74908 70.848709 A 56.442806 56.442806 0 1 1  10.863468,70.848709 A 56.442806 56.442806 0 1 1  123.74908 70.848709 z"
         sodipodi:ry="56.442806"
         sodipodi:rx="56.442806"
         sodipodi:cy="70.848709"
         sodipodi:cx="67.306274"
         id="path3331"
         style="color:black;fill:none;fill-opacity:1;fill-rule:evenodd;stroke:url(#linearGradient4070);stroke-width:11.28860092;stroke-linecap:round;stroke-linejoin:round;marker:none;marker-start:none;marker-mid:none;marker-end:none;stroke-miterlimit:4;stroke-dasharray:none;stroke-dashoffset:0;stroke-opacity:0.79399139;visibility:visible;display:inline;overflow:visible"
         sodipodi:type="arc" />
    </g>
  </g>
</svg>
