<?xml version="1.0" encoding="UTF-8" standalone="no"?>
<!-- Created with Inkscape (http://www.inkscape.org/) -->
<svg
   xmlns:dc="http://purl.org/dc/elements/1.1/"
   xmlns:cc="http://web.resource.org/cc/"
   xmlns:rdf="http://www.w3.org/1999/02/22-rdf-syntax-ns#"
   xmlns:svg="http://www.w3.org/2000/svg"
   xmlns="http://www.w3.org/2000/svg"
   xmlns:xlink="http://www.w3.org/1999/xlink"
   xmlns:sodipodi="http://inkscape.sourceforge.net/DTD/sodipodi-0.dtd"
   xmlns:inkscape="http://www.inkscape.org/namespaces/inkscape"
   width="22"
   height="22"
   id="svg14"
   sodipodi:version="0.32"
   inkscape:version="0.43+devel"
   sodipodi:docbase="/home/silvestre/Desktop/Neu/22x22/apps/SVGs"
   sodipodi:docname="preferences-user-information.svg"
   version="1.0">
  <defs
     id="defs3">
    <linearGradient
       id="linearGradient4925">
      <stop
         style="stop-color:white;stop-opacity:1"
         offset="0"
         id="stop4927" />
      <stop
         id="stop4933"
         offset="0.5"
         style="stop-color:#f3f3f3;stop-opacity:1;" />
      <stop
         style="stop-color:#bfbfbf;stop-opacity:1;"
         offset="1"
         id="stop4929" />
    </linearGradient>
    <linearGradient
       inkscape:collect="always"
       id="linearGradient26840">
      <stop
         style="stop-color:#dd1a1a;stop-opacity:1"
         offset="0"
         id="stop26842" />
      <stop
         style="stop-color:#810f0f;stop-opacity:1"
         offset="1"
         id="stop26844" />
    </linearGradient>
    <linearGradient
       inkscape:collect="always"
       id="linearGradient22429">
      <stop
         style="stop-color:black;stop-opacity:1;"
         offset="0"
         id="stop22431" />
      <stop
         style="stop-color:black;stop-opacity:0;"
         offset="1"
         id="stop22433" />
    </linearGradient>
    <linearGradient
       inkscape:collect="always"
       id="linearGradient21548">
      <stop
         style="stop-color:white;stop-opacity:1;"
         offset="0"
         id="stop21550" />
      <stop
         style="stop-color:white;stop-opacity:0;"
         offset="1"
         id="stop21552" />
    </linearGradient>
    <linearGradient
       inkscape:collect="always"
       id="linearGradient18874">
      <stop
         style="stop-color:#ddd;stop-opacity:1"
         offset="0"
         id="stop18876" />
      <stop
         style="stop-color:black;stop-opacity:1"
         offset="1"
         id="stop18878" />
    </linearGradient>
    <linearGradient
       inkscape:collect="always"
       id="linearGradient12737">
      <stop
         style="stop-color:white;stop-opacity:1;"
         offset="0"
         id="stop12739" />
      <stop
         style="stop-color:white;stop-opacity:0;"
         offset="1"
         id="stop12741" />
    </linearGradient>
    <linearGradient
       inkscape:collect="always"
       id="linearGradient10098">
      <stop
         style="stop-color:white;stop-opacity:1;"
         offset="0"
         id="stop10100" />
      <stop
         style="stop-color:white;stop-opacity:0.3004292"
         offset="1"
         id="stop10102" />
    </linearGradient>
    <linearGradient
       inkscape:collect="always"
       id="linearGradient8342">
      <stop
         style="stop-color:white;stop-opacity:1;"
         offset="0"
         id="stop8344" />
      <stop
         style="stop-color:white;stop-opacity:0;"
         offset="1"
         id="stop8346" />
    </linearGradient>
    <linearGradient
       id="linearGradient4832">
      <stop
         style="stop-color:#fffdf5;stop-opacity:1;"
         offset="0"
         id="stop4834" />
      <stop
         id="stop4840"
         offset="0.5"
         style="stop-color:#ffe16f;stop-opacity:1;" />
      <stop
         style="stop-color:#c4a600;stop-opacity:1;"
         offset="0.75"
         id="stop4842" />
      <stop
         style="stop-color:#aa9000;stop-opacity:1;"
         offset="1"
         id="stop4836" />
    </linearGradient>
    <radialGradient
       inkscape:collect="always"
       xlink:href="#linearGradient4832"
       id="radialGradient33236"
       gradientUnits="userSpaceOnUse"
       gradientTransform="matrix(1.166794,1.633432e-16,-1.633432e-16,1.166794,-14.1775,-2.918896)"
       cx="83.051956"
       cy="15.584253"
       fx="83.051956"
       fy="15.584253"
       r="21.75" />
    <linearGradient
       inkscape:collect="always"
       xlink:href="#linearGradient8342"
       id="linearGradient33238"
       gradientUnits="userSpaceOnUse"
       x1="85.622726"
       y1="-5.7974238"
       x2="85.622726"
       y2="45.035698" />
    <linearGradient
       inkscape:collect="always"
       xlink:href="#linearGradient10098"
       id="linearGradient33240"
       gradientUnits="userSpaceOnUse"
       x1="75.860703"
       y1="-0.11439113"
       x2="87.538048"
       y2="43.466064" />
    <linearGradient
       inkscape:collect="always"
       xlink:href="#linearGradient12737"
       id="linearGradient33242"
       gradientUnits="userSpaceOnUse"
       x1="82.341637"
       y1="22.807331"
       x2="75.412285"
       y2="18.754719" />
    <radialGradient
       inkscape:collect="always"
       xlink:href="#linearGradient18874"
       id="radialGradient33246"
       gradientUnits="userSpaceOnUse"
       gradientTransform="matrix(1,0,0,1.44898,1.49429e-14,-9.723214)"
       cx="97.03125"
       cy="21.656244"
       fx="97.03125"
       fy="20.5779"
       r="1.53125" />
    <linearGradient
       inkscape:collect="always"
       xlink:href="#linearGradient12737"
       id="linearGradient33248"
       gradientUnits="userSpaceOnUse"
       x1="82.341637"
       y1="22.807331"
       x2="75.412285"
       y2="18.754719" />
    <radialGradient
       inkscape:collect="always"
       xlink:href="#linearGradient4925"
       id="radialGradient33250"
       gradientUnits="userSpaceOnUse"
       gradientTransform="matrix(1.134321,-0.269128,0.271418,0.699749,-15.12345,27.06597)"
       cx="76.159027"
       cy="17.322357"
       fx="76.159027"
       fy="17.322357"
       r="6" />
    <radialGradient
       inkscape:collect="always"
       xlink:href="#linearGradient18874"
       id="radialGradient33252"
       gradientUnits="userSpaceOnUse"
       gradientTransform="matrix(1,-0.759933,0.680865,1.213188,-14.74497,69.12039)"
       cx="97.03125"
       cy="21.656244"
       fx="97.03125"
       fy="20.5779"
       r="1.53125" />
    <linearGradient
       inkscape:collect="always"
       xlink:href="#linearGradient22429"
       id="linearGradient33254"
       gradientUnits="userSpaceOnUse"
       gradientTransform="matrix(0.453732,0,0,0.462408,108.4623,-74.14222)"
       x1="89.283569"
       y1="30.661186"
       x2="89.283569"
       y2="42.931355" />
    <linearGradient
       inkscape:collect="always"
       xlink:href="#linearGradient21548"
       id="linearGradient33256"
       gradientUnits="userSpaceOnUse"
       gradientTransform="matrix(0.453732,0,0,0.462408,108.4623,-74.14222)"
       x1="91"
       y1="41.25"
       x2="88.553329"
       y2="32.118896" />
    <linearGradient
       inkscape:collect="always"
       xlink:href="#linearGradient26840"
       id="linearGradient33258"
       gradientUnits="userSpaceOnUse"
       gradientTransform="matrix(0.43506,0,0,0.437355,110.2887,-73.3354)"
       x1="88.379189"
       y1="41.421585"
       x2="88.379189"
       y2="36.394733" />
    <radialGradient
       inkscape:collect="always"
       xlink:href="#linearGradient4925"
       id="radialGradient4931"
       cx="76.34375"
       cy="18.108305"
       fx="76.34375"
       fy="18.108305"
       r="6"
       gradientTransform="matrix(1.25531,2.096951e-16,-4.959457e-16,0.640731,-19.4913,7.401295)"
       gradientUnits="userSpaceOnUse" />
    <linearGradient
       gradientTransform="matrix(0.43288,0,0,0.402309,-2.145079,-4.519038)"
       gradientUnits="userSpaceOnUse"
       y2="63.299728"
       x2="66.135506"
       y1="63.299728"
       x1="109.38406"
       id="linearGradient7758"
       xlink:href="#linearGradient7752"
       inkscape:collect="always" />
    <linearGradient
       gradientTransform="matrix(0.378285,0,0,0.378285,-0.189143,-0.32181)"
       gradientUnits="userSpaceOnUse"
       y2="86.99852"
       x2="111.17001"
       y1="141.30928"
       x1="17.101027"
       id="linearGradient6002"
       xlink:href="#linearGradient5996"
       inkscape:collect="always" />
    <radialGradient
       r="57.5"
       fy="145.41862"
       fx="50.669872"
       cy="114"
       cx="52.5"
       gradientTransform="matrix(0.34868,0,0,7.72303e-2,1.743401,34.75497)"
       gradientUnits="userSpaceOnUse"
       id="radialGradient5113"
       xlink:href="#linearGradient5104"
       inkscape:collect="always" />
    <radialGradient
       gradientTransform="matrix(0.49604,0,0,0.487394,-6.132461,-6.109275)"
       r="49.918098"
       fy="76.752853"
       fx="67.655052"
       cy="76.752853"
       cx="67.655052"
       gradientUnits="userSpaceOnUse"
       id="radialGradient4227"
       xlink:href="#linearGradient4176"
       inkscape:collect="always" />
    <radialGradient
       gradientUnits="userSpaceOnUse"
       gradientTransform="matrix(0.433809,0,0,0.300491,-7.155256,0.300831)"
       r="32.085793"
       fy="33.755856"
       fx="62.970509"
       cy="48.729244"
       cx="62.970509"
       id="radialGradient4203"
       xlink:href="#linearGradient4197"
       inkscape:collect="always" />
    <linearGradient
       gradientTransform="matrix(0.368267,0,0,0.398824,-1.544453,-4.276911)"
       gradientUnits="userSpaceOnUse"
       y2="98.832764"
       x2="57.994637"
       y1="3.4719357"
       x1="75.787148"
       id="linearGradient4193"
       xlink:href="#linearGradient4187"
       inkscape:collect="always" />
    <linearGradient
       id="linearGradient4176">
      <stop
         id="stop4178"
         offset="0"
         style="stop-color:#51a0f8;stop-opacity:1;" />
      <stop
         id="stop4180"
         offset="1"
         style="stop-color:#0363d0;stop-opacity:1;" />
    </linearGradient>
    <linearGradient
       id="linearGradient4187"
       inkscape:collect="always">
      <stop
         id="stop4189"
         offset="0"
         style="stop-color:#ffffff;stop-opacity:1;" />
      <stop
         id="stop4191"
         offset="1"
         style="stop-color:#ffffff;stop-opacity:0.27843139" />
    </linearGradient>
    <linearGradient
       id="linearGradient4197"
       inkscape:collect="always">
      <stop
         id="stop4199"
         offset="0"
         style="stop-color:#ffffff;stop-opacity:1;" />
      <stop
         id="stop4201"
         offset="1"
         style="stop-color:#ffffff;stop-opacity:0;" />
    </linearGradient>
    <linearGradient
       id="linearGradient5104"
       inkscape:collect="always">
      <stop
         id="stop5106"
         offset="0"
         style="stop-color:#000000;stop-opacity:1;" />
      <stop
         id="stop5108"
         offset="1"
         style="stop-color:#000000;stop-opacity:0;" />
    </linearGradient>
    <linearGradient
       id="linearGradient5996"
       inkscape:collect="always">
      <stop
         id="stop5998"
         offset="0"
         style="stop-color:#000000;stop-opacity:0.19313304" />
      <stop
         id="stop6000"
         offset="1"
         style="stop-color:#000000;stop-opacity:0;" />
    </linearGradient>
    <linearGradient
       id="linearGradient7752"
       inkscape:collect="always">
      <stop
         id="stop7754"
         offset="0"
         style="stop-color:#000000;stop-opacity:0.36909872" />
      <stop
         id="stop7756"
         offset="1"
         style="stop-color:#000000;stop-opacity:0;" />
    </linearGradient>
  </defs>
  <sodipodi:namedview
     id="base"
     pagecolor="#ffffff"
     bordercolor="#666666"
     borderopacity="1.0"
     inkscape:pageopacity="0.0"
     inkscape:pageshadow="2"
     inkscape:zoom="1"
     inkscape:cx="14.238917"
     inkscape:cy="9.4189981"
     inkscape:document-units="px"
     inkscape:current-layer="g5817"
     inkscape:window-width="843"
     inkscape:window-height="556"
     inkscape:window-x="58"
     inkscape:window-y="35"
     inkscape:showpageshadow="false"
     width="22px"
     height="22px"
     showgrid="false"
     showborder="false" />
  <metadata
     id="metadata4">
    <rdf:RDF>
      <cc:Work
         rdf:about="">
        <dc:format>image/svg+xml</dc:format>
        <dc:type
           rdf:resource="http://purl.org/dc/dcmitype/StillImage" />
      </cc:Work>
    </rdf:RDF>
  </metadata>
  <g
     inkscape:label="Layer 1"
     inkscape:groupmode="layer"
     id="layer1">
    <g
       transform="matrix(1.093438,0,0,1.097101,-152.7469,80.38981)"
       id="g28659">
      <path
         sodipodi:type="arc"
         style="opacity:1;fill:url(#radialGradient33236);fill-opacity:1;stroke:#8e7d00;stroke-width:2.02283454;stroke-linecap:round;stroke-linejoin:round;stroke-miterlimit:4;stroke-dasharray:none;stroke-dashoffset:0;stroke-opacity:1"
         id="path28661"
         sodipodi:cx="87.875"
         sodipodi:cy="23.625"
         sodipodi:rx="21.25"
         sodipodi:ry="21.25"
         d="M 109.125 23.625 A 21.25 21.25 0 1 1  66.625,23.625 A 21.25 21.25 0 1 1  109.125 23.625 z"
         transform="matrix(0.452219,0,0,0.450494,110.0223,-73.89357)" />
      <path
         sodipodi:type="arc"
         style="opacity:1;fill:url(#linearGradient33238);fill-opacity:1;stroke:none;stroke-width:1;stroke-linecap:round;stroke-linejoin:round;stroke-miterlimit:4;stroke-dasharray:none;stroke-dashoffset:0;stroke-opacity:1"
         id="path28663"
         sodipodi:cx="87.875"
         sodipodi:cy="23.625"
         sodipodi:rx="21.25"
         sodipodi:ry="21.25"
         d="M 109.125 23.625 A 21.25 21.25 0 1 1  66.625,23.625 A 21.25 21.25 0 1 1  109.125 23.625 z"
         transform="matrix(0.34611,0,0,0.22431,119.3586,-72.76356)" />
      <path
         sodipodi:type="arc"
         style="opacity:1;fill:none;fill-opacity:1;stroke:url(#linearGradient33240);stroke-width:2.1138947;stroke-linecap:round;stroke-linejoin:round;stroke-miterlimit:4;stroke-dasharray:none;stroke-dashoffset:0;stroke-opacity:1"
         id="path28665"
         sodipodi:cx="87.875"
         sodipodi:cy="23.625"
         sodipodi:rx="21.25"
         sodipodi:ry="21.25"
         d="M 109.125 23.625 A 21.25 21.25 0 1 1  66.625,23.625 A 21.25 21.25 0 1 1  109.125 23.625 z"
         transform="matrix(0.432638,0,0,0.431189,111.755,-73.45852)" />
      <g
         id="g28667"
         transform="matrix(0.458197,0,0,0.443275,106.7734,-75.10697)">
        <path
           transform="matrix(1.185096,0,0,2.55102,3.773128,-29.67347)"
           d="M 83.875 19.9375 A 6 3.0625 0 1 1  71.875,19.9375 A 6 3.0625 0 1 1  83.875 19.9375 z"
           sodipodi:ry="3.0625"
           sodipodi:rx="6"
           sodipodi:cy="19.9375"
           sodipodi:cx="77.875"
           id="path28669"
           style="opacity:0.66527201;fill:black;fill-opacity:0.79399139;stroke:url(#linearGradient33242);stroke-width:1.16515303;stroke-linecap:round;stroke-linejoin:round;stroke-miterlimit:4;stroke-dasharray:none;stroke-dashoffset:0;stroke-opacity:1"
           sodipodi:type="arc" />
        <path
           transform="matrix(1.080929,0,0,2.326792,11.88511,-25.20293)"
           style="fill:url(#radialGradient4931);fill-opacity:1;stroke:none;stroke-width:0.57513034;stroke-linecap:round;stroke-linejoin:round;stroke-miterlimit:4;stroke-dashoffset:0;stroke-opacity:1"
           d="M 83.875,19.9375 C 83.875,21.628 81.187,23 77.875,23 C 74.563,23 71.875,21.628 71.875,19.9375 C 71.875,18.247 74.563,16.875 77.875,16.875 C 81.187,16.875 83.875,18.247 83.875,19.9375 z "
           id="path28671" />
        <path
           transform="matrix(1.747121,0,0,1.449207,-75.68016,-8.818866)"
           d="M 98.5625 21.65625 A 1.53125 2.21875 0 1 1  95.5,21.65625 A 1.53125 2.21875 0 1 1  98.5625 21.65625 z"
           sodipodi:ry="2.21875"
           sodipodi:rx="1.53125"
           sodipodi:cy="21.65625"
           sodipodi:cx="97.03125"
           id="path28673"
           style="opacity:1;fill:url(#radialGradient33246);fill-opacity:1;stroke:none;stroke-width:1;stroke-linecap:round;stroke-linejoin:round;stroke-miterlimit:4;stroke-dasharray:none;stroke-dashoffset:0;stroke-opacity:1"
           sodipodi:type="arc" />
      </g>
      <g
         id="g28675"
         transform="matrix(0.368464,0,0,0.65845,112.8022,-78.64606)">
        <path
           transform="matrix(1.185096,0,0,1.515268,-12.91437,-9.335655)"
           style="opacity:0.66527201;fill:black;fill-opacity:0.79399139;stroke:url(#linearGradient33248);stroke-width:1.38324606;stroke-linecap:round;stroke-linejoin:round;stroke-miterlimit:4;stroke-dasharray:none;stroke-dashoffset:0;stroke-opacity:1"
           d="M 83.875,19.9375 C 83.875,21.628 81.187,23 77.875,23 C 76.220509,23 73.617112,22.799384 73.60083,21.885817 C 73.598575,21.75926 73.598253,21.635046 73.599969,21.513043 C 74.130782,21.571138 75.22073,18.599435 74.696801,17.882889 C 74.839131,17.689249 74.997277,17.498679 75.172348,17.309778 C 75.622549,16.824012 76.89588,16.875 77.875,16.875 C 81.187,16.875 83.875,18.247 83.875,19.9375 z "
           id="path28677"
           sodipodi:nodetypes="cssccssc" />
        <path
           style="fill:url(#radialGradient33250);fill-opacity:1;stroke:none;stroke-width:0.57513034;stroke-linecap:round;stroke-linejoin:round;stroke-miterlimit:4;stroke-dashoffset:0;stroke-opacity:1"
           d="M 83.875,19.9375 C 83.875,21.628 81.187,23 77.875,23 C 76.144565,23 73.445601,22.712646 73.489089,21.764069 C 72.913112,20.085941 73.752281,18.315767 75.067938,17.35527 C 75.685082,16.904724 76.861096,16.875 77.875,16.875 C 81.187,16.875 83.875,18.247 83.875,19.9375 z "
           id="path28679"
           sodipodi:nodetypes="cscssc"
           transform="matrix(1.080929,0,0,1.38208,-4.80239,-6.680221)" />
        <path
           transform="matrix(1.810516,0,0,0.836246,-93.63618,2.765509)"
           d="M 98.5625 21.65625 A 1.53125 2.21875 0 1 1  95.5,21.65625 A 1.53125 2.21875 0 1 1  98.5625 21.65625 z"
           sodipodi:ry="2.21875"
           sodipodi:rx="1.53125"
           sodipodi:cy="21.65625"
           sodipodi:cx="97.03125"
           id="path28681"
           style="fill:url(#radialGradient33252);fill-opacity:1;stroke:none;stroke-width:1;stroke-linecap:round;stroke-linejoin:round;stroke-miterlimit:4;stroke-dasharray:none;stroke-dashoffset:0;stroke-opacity:1"
           sodipodi:type="arc" />
      </g>
      <path
         style="fill:url(#linearGradient33254);fill-opacity:1;stroke:url(#linearGradient33256);stroke-width:0.91301835;stroke-linecap:round;stroke-linejoin:round;stroke-miterlimit:4;stroke-dashoffset:0;stroke-opacity:1"
         d="M 153.66542,-58.001291 C 153.66542,-56.764928 151.28333,-54.923388 148.34825,-54.923388 C 145.41317,-54.923388 143.03107,-56.764928 143.03107,-58.001291 C 143.03107,-59.237654 145.41317,-59.402965 148.34825,-59.402965 C 151.28333,-59.402965 153.66542,-59.237654 153.66542,-58.001291 z "
         id="path28683"
         sodipodi:nodetypes="csssc" />
      <path
         style="opacity:1;fill:url(#linearGradient33258);fill-opacity:1;stroke:#811111;stroke-width:1.00000012;stroke-linecap:round;stroke-linejoin:round;stroke-miterlimit:4;stroke-dasharray:none;stroke-dashoffset:0;stroke-opacity:1"
         d="M 146.75219,-57.754624 C 145.484,-57.754624 145.09353,-57.179609 145.09353,-56.456225 C 145.09353,-52.851564 151.59224,-52.851374 151.59224,-56.210212 C 151.59224,-56.926664 151.12113,-57.754624 149.5257,-57.754624 C 148.67139,-57.754624 148.44272,-57.236309 148.12536,-57.071255 C 147.80799,-57.236309 147.5879,-57.754624 146.75219,-57.754624 z "
         id="path28685"
         sodipodi:nodetypes="cssscc" />
      <g
         id="g5817"
         inkscape:label="Capa 1"
         transform="matrix(0.244992,0,0,0.248229,148.0546,-65.42027)">
        <path
           id="path5119"
           d="M 47.144342,41.66428 C 43.957506,44.41418 32.792911,46.64597 22.22338,46.64597 C 11.65385,46.64597 5.6621049,44.41418 8.8489433,41.66428 C 12.035786,38.91439 23.200376,36.68259 33.769906,36.68259 C 44.339437,36.68259 50.331186,38.91439 47.144342,41.66428 z "
           style="fill:url(#linearGradient6002);fill-opacity:1;stroke:none;stroke-width:3.00000095;stroke-linecap:round;stroke-linejoin:miter;stroke-miterlimit:4;stroke-dashoffset:0;stroke-opacity:1" />
        <path
           id="path4229"
           d="M 40.098219,43.55926 C 40.098219,46.01055 31.116218,48 20.049109,48 C 8.9820009,48 0,46.01055 0,43.55926 C 0,41.10797 8.9820009,39.11852 20.049109,39.11852 C 31.116218,39.11852 40.098219,41.10797 40.098219,43.55926 z "
           style="opacity:0.43096236;fill:url(#radialGradient5113);fill-opacity:1;stroke:none;stroke-width:2;stroke-linecap:round;stroke-linejoin:miter;stroke-miterlimit:4;stroke-dashoffset:0;stroke-opacity:1" />
        <path
           id="path3305"
           d="M 45.955539,23.411391 C 45.955539,36.475415 35.164813,47.078096 21.869097,47.078096 C 8.5733796,47.078096 -2.2173477,36.475415 -2.2173477,23.411391 C -2.2173477,10.347369 8.5733796,-0.25531824 21.869097,-0.25531824 C 35.164813,-0.25531824 45.955539,10.347369 45.955539,23.411391 z "
           style="fill:url(#radialGradient4227);fill-opacity:1;stroke:#04448c;stroke-width:4.05506992;stroke-linecap:round;stroke-linejoin:miter;stroke-miterlimit:4;stroke-dasharray:none;stroke-dashoffset:0;stroke-opacity:1" />
        <path
           id="path6877"
           d="M 42.400425,23.437658 C 42.400425,34.585798 33.202398,43.633562 21.869113,43.633562 C 10.535827,43.633562 1.3377993,34.585798 1.3377993,23.437658 C 1.3377993,12.289516 10.535827,3.241749 21.869113,3.241749 C 33.202398,3.241749 42.400425,12.289516 42.400425,23.437658 z "
           style="fill:none;fill-opacity:1;stroke:url(#linearGradient7758);stroke-width:3.70234871;stroke-linecap:round;stroke-linejoin:miter;stroke-miterlimit:4;stroke-dasharray:none;stroke-dashoffset:0;stroke-opacity:1" />
        <path
           id="path4185"
           d="M 38.489616,23.437665 C 38.489616,34.489254 30.20744,43.458659 20.002617,43.458659 C 9.7977944,43.458659 1.5156192,34.489254 1.5156192,23.437665 C 1.5156192,12.386069 9.7977944,3.4166627 20.002617,3.4166627 C 30.20744,3.4166627 38.489616,12.386069 38.489616,23.437665 z "
           style="fill:none;fill-opacity:1;stroke:url(#linearGradient4193);stroke-width:4.0550704;stroke-linecap:round;stroke-linejoin:miter;stroke-miterlimit:4;stroke-dasharray:none;stroke-dashoffset:0;stroke-opacity:1" />
        <path
           id="path4195"
           d="M 34.080965,14.943501 C 34.080965,20.265598 27.845215,24.584983 20.16188,24.584983 C 12.478543,24.584983 6.2427932,20.265598 6.2427932,14.943501 C 6.2427932,9.6214045 12.478543,5.302023 20.16188,5.302023 C 27.845215,5.302023 34.080965,9.6214045 34.080965,14.943501 z "
           style="opacity:0.5690377;fill:url(#radialGradient4203);fill-opacity:1;stroke:none;stroke-width:2;stroke-linecap:round;stroke-linejoin:miter;stroke-miterlimit:4;stroke-dashoffset:0;stroke-opacity:0.27843137" />
        <path
           id="text4205"
           d="M 25.264175,34.954878 L 24.910185,36.633502 C 23.848212,37.118434 23.000787,37.485246 22.36791,37.73393 C 21.735012,37.995047 21.000222,38.125607 20.163529,38.125607 C 18.876294,38.125607 17.87333,37.765016 17.154631,37.043832 C 16.446654,36.310213 16.092662,35.383862 16.092666,34.26478 C 16.092662,33.829584 16.119481,33.38817 16.173117,32.940534 C 16.22675,32.480472 16.312566,31.964451 16.430562,31.392471 L 17.749975,25.946276 C 17.867968,25.424051 17.964508,24.932898 18.039601,24.472819 C 18.125411,24.000332 18.168318,23.571351 18.168325,23.185875 C 18.168318,22.489573 18.044959,22.00464 17.798246,21.731071 C 17.551523,21.457532 17.079539,21.320756 16.382295,21.32074 C 16.03903,21.320756 15.685043,21.382927 15.320329,21.507254 C 14.966341,21.631612 14.660622,21.749738 14.403177,21.861629 L 14.757168,20.183008 C 15.626042,19.772697 16.457377,19.424539 17.251173,19.138533 C 18.044959,18.840129 18.795844,18.69092 19.503823,18.6909 C 20.780318,18.69092 21.761832,19.05151 22.448362,19.772678 C 23.145599,20.481448 23.494224,21.407795 23.494235,22.55173 C 23.494224,22.787994 23.467407,23.204542 23.41378,23.801371 C 23.370865,24.398227 23.28505,24.945331 23.156334,25.44269 L 21.836925,30.870232 C 21.729648,31.305437 21.633107,31.802806 21.5473,32.362341 C 21.461477,32.921885 21.41857,33.344649 21.418575,33.630633 C 21.41857,34.351821 21.558018,34.842973 21.836925,35.104089 C 22.115817,35.36521 22.598527,35.49577 23.285057,35.495768 C 23.606858,35.49577 23.97157,35.4336 24.379202,35.309255 C 24.786816,35.172479 25.081806,35.054354 25.264175,34.954878 M 25.602072,12.181576 C 25.602058,13.126604 25.290978,13.934829 24.668828,14.606253 C 24.057385,15.26529 23.317228,15.594797 22.448362,15.594776 C 21.579471,15.594797 20.833955,15.26529 20.2118,14.606253 C 19.589632,13.934829 19.278553,13.126604 19.278559,12.181576 C 19.278553,11.236602 19.589632,10.428378 20.2118,9.7569023 C 20.833955,9.0854822 21.579471,8.7497585 22.448362,8.7497288 C 23.317228,8.7497585 24.057385,9.0854822 24.668828,9.7569023 C 25.290978,10.428378 25.602058,11.236602 25.602072,12.181576"
           style="font-size:95.01869965px;font-style:italic;font-variant:normal;font-weight:bold;font-stretch:normal;text-align:start;line-height:125%;writing-mode:lr-tb;text-anchor:start;fill:white;fill-opacity:1;stroke:none;stroke-width:1px;stroke-linecap:butt;stroke-linejoin:miter;stroke-opacity:1;font-family:Georgia" />
      </g>
    </g>
  </g>
</svg>
