<?xml version="1.0" encoding="UTF-8" standalone="no"?>
<!-- Created with Inkscape (http://www.inkscape.org/) -->
<svg
   xmlns:dc="http://purl.org/dc/elements/1.1/"
   xmlns:cc="http://web.resource.org/cc/"
   xmlns:rdf="http://www.w3.org/1999/02/22-rdf-syntax-ns#"
   xmlns:svg="http://www.w3.org/2000/svg"
   xmlns="http://www.w3.org/2000/svg"
   xmlns:xlink="http://www.w3.org/1999/xlink"
   xmlns:sodipodi="http://inkscape.sourceforge.net/DTD/sodipodi-0.dtd"
   xmlns:inkscape="http://www.inkscape.org/namespaces/inkscape"
   width="22"
   height="22"
   id="svg2"
   sodipodi:version="0.32"
   inkscape:version="0.43+devel"
   version="1.0"
   sodipodi:docbase="/home/silvestre/Desktop/Neu/22x22/apps"
   sodipodi:docname="preferences-system-session.svg">
  <defs
     id="defs4">
    <linearGradient
       inkscape:collect="always"
       id="linearGradient5712">
      <stop
         style="stop-color:white;stop-opacity:0.64806867"
         offset="0"
         id="stop5714" />
      <stop
         style="stop-color:white;stop-opacity:0.24892704"
         offset="1"
         id="stop5716" />
    </linearGradient>
    <linearGradient
       inkscape:collect="always"
       id="linearGradient5702">
      <stop
         style="stop-color:white;stop-opacity:1;"
         offset="0"
         id="stop5704" />
      <stop
         style="stop-color:white;stop-opacity:0.39055794"
         offset="1"
         id="stop5706" />
    </linearGradient>
    <linearGradient
       inkscape:collect="always"
       id="linearGradient5692">
      <stop
         style="stop-color:white;stop-opacity:0.81960785"
         offset="0"
         id="stop5694" />
      <stop
         style="stop-color:white;stop-opacity:0.40784314"
         offset="1"
         id="stop5696" />
    </linearGradient>
    <linearGradient
       inkscape:collect="always"
       id="linearGradient4806">
      <stop
         style="stop-color:black;stop-opacity:0.49785408"
         offset="0"
         id="stop4808" />
      <stop
         style="stop-color:black;stop-opacity:0;"
         offset="1"
         id="stop4810" />
    </linearGradient>
    <linearGradient
       inkscape:collect="always"
       id="linearGradient4793">
      <stop
         style="stop-color:#f9f9f9;stop-opacity:1;"
         offset="0"
         id="stop4795" />
      <stop
         style="stop-color:#dcdcdc;stop-opacity:1"
         offset="1"
         id="stop4797" />
    </linearGradient>
    <linearGradient
       id="linearGradient2201">
      <stop
         style="stop-color:#479214;stop-opacity:1"
         offset="0.0000000"
         id="stop2203" />
      <stop
         style="stop-color:#3ee407;stop-opacity:1"
         offset="1.0000000"
         id="stop2205" />
    </linearGradient>
    <linearGradient
       id="linearGradient5714"
       inkscape:collect="always">
      <stop
         id="stop3980"
         offset="0"
         style="stop-color:white;stop-opacity:1;" />
      <stop
         id="stop5718"
         offset="1"
         style="stop-color:white;stop-opacity:0.40772533" />
    </linearGradient>
    <linearGradient
       id="linearGradient7471"
       inkscape:collect="always">
      <stop
         id="stop7473"
         offset="0"
         style="stop-color:black;stop-opacity:1;" />
      <stop
         id="stop7475"
         offset="1"
         style="stop-color:black;stop-opacity:0;" />
    </linearGradient>
    <linearGradient
       inkscape:collect="always"
       xlink:href="#linearGradient5714"
       id="linearGradient3999"
       gradientUnits="userSpaceOnUse"
       gradientTransform="matrix(-0.135604,-0.221194,0.234873,-0.127706,3.7182,25.95611)"
       x1="41.028126"
       y1="20.863903"
       x2="13.924223"
       y2="11.38804" />
    <linearGradient
       inkscape:collect="always"
       xlink:href="#linearGradient2201"
       id="linearGradient4002"
       gradientUnits="userSpaceOnUse"
       gradientTransform="matrix(9.609707e-2,0.161824,0.164386,-9.227406e-2,5.83213,31.34737)"
       x1="-38.201668"
       y1="13.049702"
       x2="-79.709045"
       y2="18.544086" />
    <linearGradient
       inkscape:collect="always"
       xlink:href="#linearGradient5714"
       id="linearGradient4005"
       gradientUnits="userSpaceOnUse"
       gradientTransform="matrix(0.140811,0.213647,-0.243893,0.123349,10.42367,3.386588)"
       x1="8.7257576"
       y1="25.099516"
       x2="36.619328"
       y2="17.625456" />
    <linearGradient
       inkscape:collect="always"
       xlink:href="#linearGradient2201"
       id="linearGradient4008"
       gradientUnits="userSpaceOnUse"
       gradientTransform="matrix(-9.168331e-2,-0.161825,-0.156836,9.227419e-2,8.41278,-2.347396)"
       x1="-93.517403"
       y1="19.253912"
       x2="-47.049515"
       y2="41.683594" />
    <radialGradient
       inkscape:collect="always"
       xlink:href="#linearGradient7471"
       id="radialGradient4011"
       gradientUnits="userSpaceOnUse"
       gradientTransform="matrix(0.370176,0,0,6.040284e-2,-0.31752,18.07387)"
       cx="18"
       cy="43.5"
       fx="18"
       fy="43.5"
       r="17" />
    <linearGradient
       inkscape:collect="always"
       xlink:href="#linearGradient5712"
       id="linearGradient3973"
       gradientUnits="userSpaceOnUse"
       gradientTransform="matrix(0.450354,0,0,0.472252,3.64894,2.638744)"
       x1="21.844343"
       y1="3.5399165"
       x2="21.844343"
       y2="22.083397" />
    <linearGradient
       inkscape:collect="always"
       xlink:href="#linearGradient5702"
       id="linearGradient3976"
       gradientUnits="userSpaceOnUse"
       x1="12.125"
       y1="1.2498183"
       x2="12.125"
       y2="44.267635"
       gradientTransform="matrix(0.466667,0,0,0.428571,3.866665,3.142855)" />
    <linearGradient
       inkscape:collect="always"
       xlink:href="#linearGradient5692"
       id="linearGradient3979"
       gradientUnits="userSpaceOnUse"
       x1="33.625618"
       y1="33.649742"
       x2="33.625618"
       y2="4.2131443"
       gradientTransform="matrix(0.452401,0,0,0.456522,4.15417,2.754065)" />
    <linearGradient
       inkscape:collect="always"
       xlink:href="#linearGradient4806"
       id="linearGradient3982"
       gradientUnits="userSpaceOnUse"
       x1="37.504166"
       y1="21.875"
       x2="27.997295"
       y2="21.875"
       gradientTransform="matrix(0.5,0,0,0.449125,3,2.58587)" />
    <linearGradient
       inkscape:collect="always"
       xlink:href="#linearGradient4793"
       id="linearGradient3986"
       gradientUnits="userSpaceOnUse"
       x1="17.324116"
       y1="12.28867"
       x2="17.324116"
       y2="37.926449"
       gradientTransform="matrix(0.5,0,0,0.459378,3.25,2.430351)" />
    <linearGradient
       inkscape:collect="always"
       xlink:href="#linearGradient4793"
       id="linearGradient4010"
       gradientUnits="userSpaceOnUse"
       gradientTransform="matrix(0.5,0,0,0.459378,3.25,2.430351)"
       x1="17.324116"
       y1="12.28867"
       x2="17.324116"
       y2="37.926449" />
    <linearGradient
       inkscape:collect="always"
       xlink:href="#linearGradient4806"
       id="linearGradient4012"
       gradientUnits="userSpaceOnUse"
       gradientTransform="matrix(0.5,0,0,0.449125,3,2.58587)"
       x1="37.504166"
       y1="21.875"
       x2="27.997295"
       y2="21.875" />
    <linearGradient
       inkscape:collect="always"
       xlink:href="#linearGradient5692"
       id="linearGradient4014"
       gradientUnits="userSpaceOnUse"
       gradientTransform="matrix(0.452401,0,0,0.456522,4.15417,2.754065)"
       x1="33.625618"
       y1="33.649742"
       x2="33.625618"
       y2="4.2131443" />
    <linearGradient
       inkscape:collect="always"
       xlink:href="#linearGradient5702"
       id="linearGradient4016"
       gradientUnits="userSpaceOnUse"
       gradientTransform="matrix(0.461262,0,0,0.42422,3.951005,3.257664)"
       x1="12.125"
       y1="1.2498183"
       x2="12.125"
       y2="44.267635" />
    <linearGradient
       inkscape:collect="always"
       xlink:href="#linearGradient5712"
       id="linearGradient4018"
       gradientUnits="userSpaceOnUse"
       gradientTransform="matrix(0.450354,0,0,0.472252,3.64894,2.638744)"
       x1="21.844343"
       y1="3.5399165"
       x2="21.844343"
       y2="22.083397" />
  </defs>
  <sodipodi:namedview
     id="base"
     pagecolor="#ffffff"
     bordercolor="#666666"
     borderopacity="1.0"
     inkscape:pageopacity="0.0"
     inkscape:pageshadow="2"
     inkscape:zoom="1"
     inkscape:cx="11"
     inkscape:cy="11"
     inkscape:document-units="px"
     inkscape:current-layer="layer1"
     width="22px"
     height="22px"
     inkscape:showpageshadow="false"
     showgrid="false"
     inkscape:window-width="823"
     inkscape:window-height="536"
     inkscape:window-x="147"
     inkscape:window-y="145"
     showborder="false" />
  <metadata
     id="metadata7">
    <rdf:RDF>
      <cc:Work
         rdf:about="">
        <dc:format>image/svg+xml</dc:format>
        <dc:type
           rdf:resource="http://purl.org/dc/dcmitype/StillImage" />
      </cc:Work>
    </rdf:RDF>
  </metadata>
  <g
     inkscape:label="Capa 1"
     inkscape:groupmode="layer"
     id="layer1">
    <g
       id="g3996"
       transform="matrix(0.939453,0,0,0.942906,-3.728452,-3.771672)">
      <path
         sodipodi:nodetypes="ccccccccccc"
         id="path3998"
         d="M 4.7622332,6.7966058 L 18.252619,4.500001 L 20.237757,4.9569276 C 20.383035,4.9569276 20.499991,5.0283001 20.499991,5.1169557 L 20.499991,20.875122 C 20.499991,20.963778 20.383035,21.035151 20.237757,21.035151 L 18.252619,21.500004 L 4.7622332,20.116396 C 4.6276044,20.08463 4.4999994,20.045023 4.4999994,19.956367 L 4.4999994,6.9566341 C 4.4999994,6.871364 4.6315629,6.8147838 4.7622332,6.7966058 z "
         style="fill:url(#linearGradient4010);fill-opacity:1;stroke:#828282;stroke-width:1.06249809;stroke-linecap:round;stroke-linejoin:round;stroke-miterlimit:4;stroke-dashoffset:0;stroke-opacity:1" />
      <path
         sodipodi:nodetypes="ccccccc"
         id="path4000"
         d="M 5,7.1866272 L 18.025125,5 L 20,5.4515389 L 20,9.0276662 L 18.025125,8.5898103 L 5,10.353188 L 5,7.1866272 z "
         style="fill:#1882ba;fill-opacity:1;stroke:none;stroke-width:1;stroke-linecap:round;stroke-linejoin:round;stroke-miterlimit:4;stroke-dashoffset:0;stroke-opacity:1" />
      <path
         sodipodi:nodetypes="ccccc"
         id="path4002"
         d="M 18,4.831496 L 20,5.2806211 L 20,20.53684 L 18,21 L 18,4.831496 z "
         style="fill:url(#linearGradient4012);fill-opacity:1;stroke:none;stroke-width:1;stroke-linecap:round;stroke-linejoin:round;stroke-miterlimit:4;stroke-dashoffset:0;stroke-opacity:1" />
      <path
         sodipodi:nodetypes="cc"
         id="path4004"
         d="M 17.5,5.0081422 L 17.5,20.566313"
         style="fill:none;fill-opacity:1;fill-rule:evenodd;stroke:url(#linearGradient4014);stroke-width:1.06249821px;stroke-linecap:butt;stroke-linejoin:miter;stroke-opacity:1" />
      <path
         sodipodi:nodetypes="ccccccccccc"
         id="path4006"
         d="M 5.7922166,7.5967198 L 17.582105,5.5908766 L 19.176457,5.9369264 C 19.302103,5.9700686 19.403254,5.9992629 19.403254,6.0766943 L 19.403254,19.892827 C 19.403254,19.970258 19.302103,20.032595 19.176457,20.032595 L 17.459582,20.438596 L 5.7922166,19.230159 C 5.6757813,19.202414 5.5654197,19.167822 5.5654197,19.090391 L 5.5654197,7.7364878 C 5.5654197,7.6620132 5.6792043,7.6125963 5.7922166,7.5967198 z "
         style="fill:none;fill-opacity:1;stroke:url(#linearGradient4016);stroke-width:1.0624975;stroke-linecap:round;stroke-linejoin:miter;stroke-miterlimit:4;stroke-dasharray:none;stroke-dashoffset:0;stroke-opacity:1" />
      <path
         sodipodi:nodetypes="cccccc"
         id="path4008"
         d="M 5.228815,7.3119563 L 17,5 L 17,14.589654 C 14.966242,10.667334 6.509397,11.100183 5,14.589654 L 5,7.4730544 C 5,7.3872145 5.114797,7.3302558 5.228815,7.3119563 z "
         style="opacity:0.78242678;fill:url(#linearGradient4018);fill-opacity:1;stroke:none;stroke-width:1;stroke-linecap:round;stroke-linejoin:round;stroke-miterlimit:4;stroke-dashoffset:0;stroke-opacity:1" />
    </g>
    <g
       id="g3988">
      <path
         sodipodi:nodetypes="ccccccccccc"
         id="path5733"
         d="M 4.7622332,6.7966058 L 18.252619,4.500001 L 20.237757,4.9569276 C 20.383035,4.9569276 20.499991,5.0283001 20.499991,5.1169557 L 20.499991,20.875122 C 20.499991,20.963778 20.383035,21.035151 20.237757,21.035151 L 18.252619,21.500004 L 4.7622332,20.116396 C 4.6276044,20.08463 4.4999994,20.045023 4.4999994,19.956367 L 4.4999994,6.9566341 C 4.4999994,6.871364 4.6315629,6.8147838 4.7622332,6.7966058 z "
         style="fill:url(#linearGradient3986);fill-opacity:1;stroke:#969696;stroke-width:1;stroke-linecap:round;stroke-linejoin:round;stroke-miterlimit:4;stroke-dashoffset:0;stroke-opacity:1" />
      <path
         sodipodi:nodetypes="ccccccc"
         id="path5735"
         d="M 5,7.1866272 L 18.025125,5 L 20,5.4515389 L 20,9.0276662 L 18.025125,8.5898103 L 5,10.353188 L 5,7.1866272 z "
         style="fill:#1882ba;fill-opacity:1;stroke:none;stroke-width:1;stroke-linecap:round;stroke-linejoin:round;stroke-miterlimit:4;stroke-dashoffset:0;stroke-opacity:1" />
      <path
         sodipodi:nodetypes="ccccc"
         id="path5737"
         d="M 18,4.831496 L 20,5.2806211 L 20,20.53684 L 18,21 L 18,4.831496 z "
         style="fill:url(#linearGradient3982);fill-opacity:1;stroke:none;stroke-width:1;stroke-linecap:round;stroke-linejoin:round;stroke-miterlimit:4;stroke-dashoffset:0;stroke-opacity:1" />
      <path
         sodipodi:nodetypes="cc"
         id="path5739"
         d="M 17.5,5.0081422 L 17.5,20.566313"
         style="fill:none;fill-opacity:1;fill-rule:evenodd;stroke:url(#linearGradient3979);stroke-width:1.00000012px;stroke-linecap:butt;stroke-linejoin:miter;stroke-opacity:1" />
      <path
         sodipodi:nodetypes="ccccccccccc"
         id="path5741"
         d="M 5.7294523,7.5264129 L 17.657498,5.4999974 L 19.270533,5.8495964 C 19.397652,5.8830785 19.499988,5.9125722 19.499988,5.9907977 L 19.499988,19.948631 C 19.499988,20.026856 19.397652,20.089832 19.270533,20.089832 L 17.53354,20.499997 L 5.7294523,19.279166 C 5.6116525,19.251137 5.4999977,19.21619 5.4999977,19.137965 L 5.4999977,7.6676144 C 5.4999977,7.592376 5.6151157,7.5424522 5.7294523,7.5264129 z "
         style="fill:none;fill-opacity:1;stroke:url(#linearGradient3976);stroke-width:0.99999958;stroke-linecap:round;stroke-linejoin:miter;stroke-miterlimit:4;stroke-dasharray:none;stroke-dashoffset:0;stroke-opacity:1" />
      <path
         sodipodi:nodetypes="cccccc"
         id="path5743"
         d="M 5.228815,7.3119563 L 17,5 L 17,14.589654 C 14.966242,10.667334 6.509397,11.100183 5,14.589654 L 5,7.4730544 C 5,7.3872145 5.114797,7.3302558 5.228815,7.3119563 z "
         style="opacity:0.78242678;fill:url(#linearGradient3973);fill-opacity:1;stroke:none;stroke-width:1;stroke-linecap:round;stroke-linejoin:round;stroke-miterlimit:4;stroke-dashoffset:0;stroke-opacity:1" />
    </g>
    <path
       style="opacity:0.1;fill:url(#radialGradient4011);fill-opacity:1;stroke:none;stroke-width:1;stroke-linecap:round;stroke-linejoin:round;stroke-miterlimit:4;stroke-dashoffset:0;stroke-opacity:1"
       d="M 12.63865,20.701403 C 12.63865,21.268225 9.819386,21.728255 6.345651,21.728255 C 2.871916,21.728255 0.052652,21.268225 0.052652,20.701403 C 0.052652,20.13458 2.871916,19.67455 6.345651,19.67455 C 9.819386,19.67455 12.63865,20.13458 12.63865,20.701403 z "
       id="path6595" />
    <path
       style="fill:url(#linearGradient4008);fill-opacity:1;fill-rule:evenodd;stroke:#397814;stroke-width:1.00000048;stroke-linecap:round;stroke-linejoin:round;stroke-miterlimit:4;stroke-dasharray:none;stroke-opacity:1"
       d="M 12.825975,15.500002 C 13.058266,13.29557 13.267715,11.050821 13.500006,8.8463887 C 12.919511,9.2059017 12.1562,9.6190391 11.575705,9.978551 C 8.143383,5.488995 2.740811,7.7668917 1.500001,11.523587 C 4.464112,7.5815982 7.81405,9.9441511 8.729873,11.652898 C 8.188589,11.989343 7.336566,12.454672 6.79528,12.791116 C 8.80554,13.694124 10.815717,14.596993 12.825975,15.500002 z "
       id="path1381"
       sodipodi:nodetypes="ccccccc" />
    <path
       style="fill:none;fill-opacity:1;fill-rule:evenodd;stroke:url(#linearGradient4005);stroke-width:1.00000072;stroke-linecap:round;stroke-linejoin:miter;stroke-miterlimit:4;stroke-dasharray:none;stroke-opacity:1"
       d="M 12.119371,14.149873 L 12.675071,10.196219 L 11.307412,10.858611 C 7.988517,7.2403038 4.207104,7.9992589 2.908489,9.9603141 C 5.666426,7.5188817 9.519533,9.2656387 10.147149,11.839884 L 8.74321,12.712483 L 12.119371,14.149873 z "
       id="path4839"
       sodipodi:nodetypes="ccccccc" />
    <path
       style="fill:url(#linearGradient4002);fill-opacity:1;fill-rule:evenodd;stroke:#397814;stroke-width:1.00000012;stroke-linecap:round;stroke-linejoin:round;stroke-miterlimit:4;stroke-dasharray:none;stroke-opacity:1"
       d="M 1.20648,13.499997 C 0.963006,15.704425 0.743474,17.949174 0.500001,20.153602 C 1.10844,19.79409 1.9085,19.380953 2.516939,19.021441 C 6.114498,23.510991 11.777156,21.233098 13.077702,17.476406 C 9.970894,21.418392 6.459686,19.055841 5.499774,17.347096 C 6.067116,17.010652 6.960157,16.545324 7.5275,16.20888 C 5.420465,15.305871 3.313514,14.403005 1.20648,13.499997 z "
       id="path3938"
       sodipodi:nodetypes="ccccccc" />
    <path
       style="fill:none;fill-opacity:1;fill-rule:evenodd;stroke:url(#linearGradient3999);stroke-width:1.00000048;stroke-linecap:round;stroke-linejoin:miter;stroke-miterlimit:4;stroke-dasharray:none;stroke-opacity:1"
       d="M 2.005222,14.908487 L 1.627136,18.771567 L 3.136598,17.950835 C 5.401001,21.623898 9.913715,20.923444 11.149871,19.253254 C 8.404472,21.789898 4.950713,19.777881 4.394167,17.273499 L 5.991875,16.439257 L 2.005222,14.908487 z "
       id="path3940"
       sodipodi:nodetypes="ccccccc" />
  </g>
</svg>
