<?xml version="1.0" encoding="UTF-8" standalone="no"?>
<!-- Created with Inkscape (http://www.inkscape.org/) -->
<svg
   xmlns:dc="http://purl.org/dc/elements/1.1/"
   xmlns:cc="http://web.resource.org/cc/"
   xmlns:rdf="http://www.w3.org/1999/02/22-rdf-syntax-ns#"
   xmlns:svg="http://www.w3.org/2000/svg"
   xmlns="http://www.w3.org/2000/svg"
   xmlns:xlink="http://www.w3.org/1999/xlink"
   xmlns:sodipodi="http://inkscape.sourceforge.net/DTD/sodipodi-0.dtd"
   xmlns:inkscape="http://www.inkscape.org/namespaces/inkscape"
   width="48"
   height="48"
   id="svg2"
   sodipodi:version="0.32"
   inkscape:version="0.43+devel"
   sodipodi:docbase="/home/silvestre/Desktop/Neu/scalable/categories"
   sodipodi:docname="applications-multimedia.svg"
   version="1.0">
  <defs
     id="defs4">
    <linearGradient
       inkscape:collect="always"
       id="linearGradient5698">
      <stop
         style="stop-color:white;stop-opacity:0.59227467"
         offset="0"
         id="stop5700" />
      <stop
         style="stop-color:white;stop-opacity:0.21030043"
         offset="1"
         id="stop5702" />
    </linearGradient>
    <linearGradient
       inkscape:collect="always"
       id="linearGradient5761">
      <stop
         style="stop-color:#000000;stop-opacity:1;"
         offset="0"
         id="stop5763" />
      <stop
         style="stop-color:#000000;stop-opacity:0;"
         offset="1"
         id="stop5765" />
    </linearGradient>
    <linearGradient
       inkscape:collect="always"
       id="linearGradient5751">
      <stop
         style="stop-color:#000000;stop-opacity:0.29600000"
         offset="0"
         id="stop5753" />
      <stop
         style="stop-color:#000000;stop-opacity:0;"
         offset="1"
         id="stop5755" />
    </linearGradient>
    <linearGradient
       inkscape:collect="always"
       id="linearGradient4261">
      <stop
         style="stop-color:#ffffff;stop-opacity:0.39600000"
         offset="0"
         id="stop4263" />
      <stop
         style="stop-color:#ffffff;stop-opacity:0;"
         offset="1"
         id="stop4265" />
    </linearGradient>
    <linearGradient
       inkscape:collect="always"
       xlink:href="#linearGradient5761"
       id="linearGradient4812"
       gradientUnits="userSpaceOnUse"
       gradientTransform="matrix(0.382048,0,0,0.364247,-0.360901,2.064555)"
       x1="50.538746"
       y1="161.06273"
       x2="53.136532"
       y2="102.49446" />
    <linearGradient
       inkscape:collect="always"
       xlink:href="#linearGradient4261"
       id="linearGradient4817"
       gradientUnits="userSpaceOnUse"
       gradientTransform="matrix(0.324984,0,-3.187561e-3,0.372638,0.530613,-0.818075)"
       x1="40.955887"
       y1="-43.938217"
       x2="65.025772"
       y2="57.038216" />
    <radialGradient
       inkscape:collect="always"
       xlink:href="#linearGradient5751"
       id="radialGradient4821"
       gradientUnits="userSpaceOnUse"
       gradientTransform="matrix(1,0,0,9.958506e-2,1.064686e-15,108.8738)"
       cx="52.664207"
       cy="120.91513"
       fx="52.664207"
       fy="120.91513"
       r="56.915131" />
    <linearGradient
       inkscape:collect="always"
       xlink:href="#linearGradient5698"
       id="linearGradient5704"
       x1="10.457143"
       y1="-0.34598634"
       x2="10.457143"
       y2="41.919067"
       gradientUnits="userSpaceOnUse" />
  </defs>
  <sodipodi:namedview
     id="base"
     pagecolor="#ffffff"
     bordercolor="#666666"
     borderopacity="1.0"
     inkscape:pageopacity="0.0"
     inkscape:pageshadow="2"
     inkscape:zoom="1"
     inkscape:cx="24"
     inkscape:cy="24"
     inkscape:document-units="px"
     inkscape:current-layer="layer1"
     inkscape:window-width="823"
     inkscape:window-height="536"
     inkscape:window-x="0"
     inkscape:window-y="22"
     showgrid="false"
     width="48px"
     height="48px"
     inkscape:showpageshadow="false"
     showborder="false" />
  <metadata
     id="metadata7">
    <rdf:RDF>
      <cc:Work
         rdf:about="">
        <dc:format>image/svg+xml</dc:format>
        <dc:type
           rdf:resource="http://purl.org/dc/dcmitype/StillImage" />
      </cc:Work>
    </rdf:RDF>
  </metadata>
  <g
     inkscape:label="Layer 1"
     inkscape:groupmode="layer"
     id="layer1">
    <path
       style="fill:url(#linearGradient4812);fill-opacity:1;fill-rule:evenodd;stroke:none;stroke-width:0.25pt;stroke-linecap:butt;stroke-linejoin:miter;stroke-opacity:1"
       d="M 36.270646,45.763442 L 47.999961,39.913985 L 12.270667,39.397855 L 4.1503729,45.075271 L 36.270646,45.763442 z "
       id="path5759"
       sodipodi:nodetypes="ccccc" />
    <path
       sodipodi:type="arc"
       style="color:black;fill:url(#radialGradient4821);fill-opacity:1;fill-rule:evenodd;stroke:none;stroke-width:3;stroke-linecap:round;stroke-linejoin:round;marker:none;marker-start:none;marker-mid:none;marker-end:none;stroke-miterlimit:4;stroke-dasharray:none;stroke-dashoffset:0;stroke-opacity:1;visibility:visible;display:inline;overflow:visible"
       id="path5023"
       sodipodi:cx="52.664207"
       sodipodi:cy="120.91513"
       sodipodi:rx="56.915131"
       sodipodi:ry="5.6678967"
       d="M 109.57934 120.91513 A 56.915131 5.6678967 0 1 1  -4.2509232,120.91513 A 56.915131 5.6678967 0 1 1  109.57934 120.91513 z"
       transform="matrix(0.356685,0,0,0.364247,1.516241,1.892512)" />
    <path
       style="color:black;fill:#86695f;fill-opacity:1;fill-rule:evenodd;stroke:#63504b;stroke-width:1.00000119;stroke-linecap:round;stroke-linejoin:round;marker:none;marker-start:none;marker-mid:none;marker-end:none;stroke-miterlimit:4;stroke-dasharray:none;stroke-dashoffset:0;stroke-opacity:1;visibility:visible;display:inline;overflow:visible"
       d="M 3.7330579,3.1114661 C 5.075059,18.028116 0.74587369,32.125652 3.352602,44.72924 C 15.271094,45.885772 27.082012,46.948406 38.789751,46.30589 C 37.215881,32.031754 40.513318,16.322967 39.170206,1.5348197 C 27.458019,2.6913495 15.652662,4.1394925 3.7330579,3.1114661 z M 5.8371671,5.888944 C 7.3174128,5.888944 8.8037701,5.888944 10.284016,5.888944 C 10.498221,8.8757003 10.479478,9.4657734 10.220675,11.634739 C 8.7404297,11.634739 7.2540727,11.634739 5.773827,11.634739 C 5.953402,9.3749072 6.2153293,8.4213725 5.8371671,5.888944 z M 32.888829,4.3122976 C 34.369073,4.3122976 35.844843,4.3122976 37.32509,4.3122976 C 37.539293,7.299054 37.520551,9.4657734 37.261751,11.634739 C 35.781504,11.634739 34.305732,11.634739 32.82549,11.634739 C 33.005064,9.3749072 33.26699,6.8447262 32.888829,4.3122976 z M 5.1207569,14.917214 C 6.6010025,14.917214 8.0767721,14.917214 9.5570178,14.917214 C 9.5358979,17.358777 9.1230514,19.798093 9.1019317,22.239655 C 7.621686,22.239655 6.2200302,22.239655 4.739785,22.239655 C 4.7609047,19.798093 5.2557339,17.813104 5.1207569,14.917214 z M 32.648867,14.917214 C 34.129113,14.917214 35.604881,14.917214 37.085128,14.917214 C 37.064009,17.358777 36.640574,19.798093 36.619454,22.239655 C 35.139207,22.239655 33.737554,22.239655 32.257307,22.239655 C 32.278427,19.798093 32.783844,17.813104 32.648867,14.917214 z M 4.6055138,25.522129 C 6.0857595,25.522129 7.5721168,25.522129 9.0523624,25.522129 C 9.5105381,28.054557 8.6085023,30.584739 8.9890225,32.844571 C 7.5087768,32.844572 5.7047871,32.844571 4.2245418,32.844571 C 4.2456616,30.403009 4.8189327,28.59975 4.6055138,25.522129 z M 31.657176,25.522129 C 33.137423,25.522129 34.613194,25.522129 36.093437,25.522129 C 36.551615,28.054557 35.649578,30.584739 36.030097,32.844571 C 34.549854,32.844572 32.745862,32.844571 31.265616,32.844571 C 31.286736,30.403009 31.870595,28.59975 31.657176,25.522129 z M 8.8873466,36.030855 C 8.8662269,38.472415 9.1726182,40.995898 9.1514984,43.437463 C 7.6712528,43.437463 6.1848954,43.437463 4.7046498,43.437463 C 4.7257696,40.995898 4.3445361,38.556581 4.3656558,36.115021 C 5.8459014,36.115021 7.407101,36.030855 8.8873466,36.030855 z M 35.93901,36.030855 C 35.91789,38.472415 36.213693,40.995898 36.192573,43.437463 C 34.712327,43.437463 33.225968,43.437463 31.745725,43.437463 C 31.766843,40.995898 31.396198,38.556581 31.417318,36.115021 C 32.897564,36.115021 34.458763,36.030855 35.93901,36.030855 z "
       id="rect1306"
       sodipodi:nodetypes="ccccccccccccccccccccccccccccccccccccccccccccc" />
    <path
       style="color:black;fill:black;fill-opacity:0.42060086;fill-rule:evenodd;stroke:none;stroke-width:3;stroke-linecap:round;stroke-linejoin:round;marker:none;marker-start:none;marker-mid:none;marker-end:none;stroke-miterlimit:4;stroke-dashoffset:0;stroke-opacity:1;visibility:visible;display:inline;overflow:visible"
       d="M 12.064673,4.2118732 C 18.45793,4.6789699 25.507214,3.186839 31.60221,3 C 31.480463,17.327143 29.614271,29.747191 30.250002,45.942723 C 23.601551,46.254119 16.863826,45.20736 10.800419,44.9271 C 9.2723866,29.728044 11.942926,18.539015 12.064673,4.2118732 z "
       id="rect2796"
       sodipodi:nodetypes="ccccc" />
    <path
       style="color:black;fill:url(#linearGradient4817);fill-opacity:1;fill-rule:evenodd;stroke:none;stroke-width:3;stroke-linecap:round;stroke-linejoin:round;marker:none;marker-start:none;marker-mid:none;marker-end:none;stroke-miterlimit:4;stroke-dasharray:none;stroke-dashoffset:0;stroke-opacity:1;visibility:visible;display:inline;overflow:visible"
       d="M 4.7313018,3.5658362 C 5.1903066,16.164511 4.6378968,13.329376 4,24.567889 C 4.741119,23.64711 4.5724666,23.226646 5.430752,22.474222 C 5.1975749,22.475263 5.0025099,22.203494 4.7716118,22.203494 C 4.8284607,20.043753 5.4416087,16.628931 5.3561524,14.282183 C 6.7380119,14.238182 9.1450038,14.175272 10.526863,14.131271 C 10.492397,15.741977 10.334607,18.037573 10.221129,19.548921 C 16.858862,15.928541 24.77588,16.188942 31.918852,19.953577 C 32.045405,18.340324 32.306976,15.772972 32.248673,14.171922 C 33.630532,14.127921 36.15267,14.192634 37.534528,14.148632 C 37.481252,16.638386 37.165817,20.600421 37.135587,22.639159 C 36.941496,22.639159 36.742303,22.638399 36.546554,22.639159 C 37.532989,23.377307 37.637297,23.579286 38.530365,24.47473 C 38.914414,13.554367 39.261695,14.210211 38.722615,2 C 27.488301,3.120096 16.1646,4.561477 4.7313018,3.5658362 z M 5.97986,5.2986499 C 7.399712,5.2986499 9.7705967,5.2348387 11.190449,5.2348387 C 11.395952,8.1275051 11.312063,9.8725426 11.063848,11.973181 C 9.6439957,11.973181 7.161979,12.036992 5.742127,12.036992 C 5.9143472,9.8483501 6.3426252,7.7513008 5.97986,5.2986499 z M 32.431395,3.6521913 C 33.851245,3.6521913 36.327665,3.6521913 37.747518,3.6521913 C 37.953018,6.5448577 37.885742,9.8164732 37.637528,11.917111 C 36.217675,11.917111 33.818679,12.052475 32.398829,12.052475 C 32.571048,9.8638333 32.794158,6.1048421 32.431395,3.6521913 z "
       id="path3533"
       sodipodi:nodetypes="ccccccccccccccccccccccccc" />
    <path
       style="color:black;fill:none;fill-opacity:1.0;fill-rule:evenodd;stroke:url(#linearGradient5704);stroke-width:1.00000083;stroke-linecap:round;stroke-linejoin:round;marker:none;marker-start:none;marker-mid:none;marker-end:none;stroke-miterlimit:4;stroke-dasharray:none;stroke-dashoffset:0;stroke-opacity:1;visibility:visible;display:inline;overflow:visible"
       d="M 4.6664056,4.0077386 C 5.9358659,18.272454 1.8406913,31.753855 4.3065149,43.806602 C 15.580762,44.912587 26.75325,45.928778 37.828136,45.314344 C 36.33934,31.664061 39.458537,16.641829 38.188025,2.4999997 C 27.108932,3.6059832 15.941705,4.9908349 4.6664056,4.0077386 z "
       id="path4823"
       sodipodi:nodetypes="ccccc" />
  </g>
</svg>
