<?xml version="1.0" encoding="UTF-8" standalone="no"?>
<!-- Created with Inkscape (http://www.inkscape.org/) -->
<svg
   xmlns:dc="http://purl.org/dc/elements/1.1/"
   xmlns:cc="http://web.resource.org/cc/"
   xmlns:rdf="http://www.w3.org/1999/02/22-rdf-syntax-ns#"
   xmlns:svg="http://www.w3.org/2000/svg"
   xmlns="http://www.w3.org/2000/svg"
   xmlns:xlink="http://www.w3.org/1999/xlink"
   xmlns:sodipodi="http://inkscape.sourceforge.net/DTD/sodipodi-0.dtd"
   xmlns:inkscape="http://www.inkscape.org/namespaces/inkscape"
   inkscape:export-ydpi="90.000000"
   inkscape:export-xdpi="90.000000"
   inkscape:export-filename="/home/silvestre/cagaoderisa.png"
   sodipodi:docname="applications-games.svg"
   sodipodi:docbase="/home/silvestre/Desktop/Neu/scalable/categories"
   inkscape:version="0.43+devel"
   sodipodi:version="0.32"
   id="svg2"
   height="48"
   width="48"
   version="1.0">
  <defs
     id="defs3">
    <linearGradient
       inkscape:collect="always"
       id="linearGradient4818">
      <stop
         style="stop-color:#3c3c3c;stop-opacity:1;"
         offset="0"
         id="stop4820" />
      <stop
         style="stop-color:#3c3c3c;stop-opacity:0;"
         offset="1"
         id="stop4822" />
    </linearGradient>
    <linearGradient
       inkscape:collect="always"
       id="linearGradient7476">
      <stop
         style="stop-color:white;stop-opacity:1"
         offset="0"
         id="stop7478" />
      <stop
         style="stop-color:#dbdbdb;stop-opacity:1"
         offset="1"
         id="stop7480" />
    </linearGradient>
    <linearGradient
       inkscape:collect="always"
       id="linearGradient7439">
      <stop
         style="stop-color:#934600;stop-opacity:1;"
         offset="0"
         id="stop7441" />
      <stop
         style="stop-color:white;stop-opacity:1"
         offset="1"
         id="stop7443" />
    </linearGradient>
    <linearGradient
       inkscape:collect="always"
       id="linearGradient6557">
      <stop
         style="stop-color:white;stop-opacity:1;"
         offset="0"
         id="stop6559" />
      <stop
         style="stop-color:white;stop-opacity:0.53725493"
         offset="1"
         id="stop6561" />
    </linearGradient>
    <linearGradient
       id="linearGradient5110">
      <stop
         id="stop5112"
         offset="0.0000000"
         style="stop-color:#ffd200;stop-opacity:1.0000000;" />
      <stop
         id="stop5114"
         offset="1.0000000"
         style="stop-color:#ff9200;stop-opacity:1.0000000;" />
    </linearGradient>
    <linearGradient
       id="linearGradient3586">
      <stop
         id="stop3588"
         offset="0.0000000"
         style="stop-color:#ffffff;stop-opacity:0.79166669;" />
      <stop
         id="stop3590"
         offset="1"
         style="stop-color:#ffffff;stop-opacity:0;" />
    </linearGradient>
    <linearGradient
       y2="1068.1261"
       x2="228.57143"
       y1="332.36215"
       x1="228.57143"
       gradientUnits="userSpaceOnUse"
       id="linearGradient5906"
       xlink:href="#linearGradient5110"
       inkscape:collect="always" />
    <linearGradient
       y2="629.50507"
       x2="410"
       y1="126.64789"
       x1="410"
       gradientUnits="userSpaceOnUse"
       id="linearGradient5908"
       xlink:href="#linearGradient3586"
       inkscape:collect="always" />
    <linearGradient
       inkscape:collect="always"
       xlink:href="#linearGradient6557"
       id="linearGradient6563"
       x1="240.95595"
       y1="72.72847"
       x2="433.50217"
       y2="828.98602"
       gradientUnits="userSpaceOnUse" />
    <linearGradient
       inkscape:collect="always"
       xlink:href="#linearGradient7439"
       id="linearGradient7445"
       x1="13.5"
       y1="20.875"
       x2="30.373842"
       y2="37.748844"
       gradientUnits="userSpaceOnUse"
       gradientTransform="matrix(1.024688,0,0,0.899725,-0.592507,2.658678)" />
    <radialGradient
       inkscape:collect="always"
       xlink:href="#linearGradient7476"
       id="radialGradient7482"
       cx="21.488716"
       cy="26.207605"
       fx="21.488716"
       fy="26.207605"
       r="15.006065"
       gradientTransform="matrix(0.999596,0,0,0.666397,0.395826,9.817102)"
       gradientUnits="userSpaceOnUse" />
    <radialGradient
       inkscape:collect="always"
       xlink:href="#linearGradient4818"
       id="radialGradient4824"
       cx="24.130018"
       cy="40.575378"
       fx="24.130018"
       fy="40.575378"
       r="24.130018"
       gradientTransform="matrix(1,0,0,0.32967,0,27.19888)"
       gradientUnits="userSpaceOnUse" />
  </defs>
  <sodipodi:namedview
     inkscape:window-y="91"
     inkscape:window-x="107"
     inkscape:window-height="536"
     inkscape:window-width="823"
     inkscape:current-layer="layer1"
     inkscape:document-units="px"
     inkscape:cy="24"
     inkscape:cx="24"
     inkscape:zoom="1"
     inkscape:pageshadow="2"
     inkscape:pageopacity="0.0"
     borderopacity="1.0"
     bordercolor="#666666"
     pagecolor="#ffffff"
     id="base"
     showgrid="false"
     inkscape:showpageshadow="false"
     width="48px"
     height="48px"
     showborder="false" />
  <metadata
     id="metadata4">
    <rdf:RDF>
      <cc:Work
         rdf:about="">
        <dc:format>image/svg+xml</dc:format>
        <dc:type
           rdf:resource="http://purl.org/dc/dcmitype/StillImage" />
      </cc:Work>
    </rdf:RDF>
  </metadata>
  <g
     id="layer1"
     inkscape:groupmode="layer"
     inkscape:label="Layer 1">
    <path
       sodipodi:type="arc"
       style="opacity:0.41422594;fill:url(#radialGradient4824);fill-opacity:1.0;stroke:none;stroke-width:1;stroke-linecap:round;stroke-linejoin:round;stroke-miterlimit:4;stroke-dasharray:none;stroke-dashoffset:0;stroke-opacity:1"
       id="path3943"
       sodipodi:cx="24.130018"
       sodipodi:cy="40.575378"
       sodipodi:rx="24.130018"
       sodipodi:ry="7.9549513"
       d="M 48.260036 40.575378 A 24.130018 7.9549513 0 1 1  0,40.575378 A 24.130018 7.9549513 0 1 1  48.260036 40.575378 z"
       transform="matrix(0.994612,0,0,1.005664,0,-0.805187)" />
    <path
       transform="matrix(4.578488e-2,0,0,4.751655e-2,9.218023,-0.481447)"
       d="M 814.28571 515.2193 A 491.42856 431.42856 0 1 1  -168.57141,515.2193 A 491.42856 431.42856 0 1 1  814.28571 515.2193 z"
       sodipodi:ry="431.42856"
       sodipodi:rx="491.42856"
       sodipodi:cy="515.2193"
       sodipodi:cx="322.85715"
       id="path1306"
       style="fill:url(#linearGradient5906);fill-opacity:1;stroke:#e28a00;stroke-width:21.43959045;stroke-linecap:round;stroke-linejoin:round;stroke-miterlimit:4;stroke-dasharray:none;stroke-opacity:1"
       sodipodi:type="arc" />
    <path
       style="fill:url(#radialGradient7482);fill-opacity:1;fill-rule:evenodd;stroke:none;stroke-width:0.00905441pt;stroke-linecap:butt;stroke-linejoin:miter;stroke-opacity:1"
       d="M 9,22.062644 C 10.899217,28.800029 13.224355,33.220489 18.46214,38.142523 C 21.141229,39.387481 24.687049,41.700004 27.782854,40.795145 C 32.307861,39.657975 35.428668,35.919979 36.770071,32.012897 C 38.97309,28.56096 38.618669,25.923801 39,22.874943 C 38.724791,21.253841 36.562067,20.831246 35.035093,21.055864 C 30.1702,21.245988 25.298186,21.120861 20.430324,21.184977 C 17.866249,21.240423 15.288995,21.128211 12.734529,21.332961 C 11.474067,21.50837 10.253092,21.854073 9,22.062644 z "
       id="path2066"
       sodipodi:nodetypes="ccccccccc" />
    <path
       d="M 12.8252,21.051521 C 16.913323,21.138168 21.004216,21.156467 25.093729,21.156757 C 27.356395,21.448336 39.577481,20.189445 40,22.004333 C 39.914168,26.869517 38.213562,31.797543 35.109801,35.916441 C 30.887928,41.041603 24.006449,42.830997 18.020034,38.756681 C 12.545489,34.388408 9.6785976,28.228156 8,22.194312 L 9.2118406,21.658574 C 10.37669,27.787742 13.440828,33.961576 18.959062,38.268187 C 24.356218,41.746446 30.224803,41.090308 34.021278,36.313524 C 37.11881,32.300521 38.942947,27.354108 38.744252,22.560018 C 38.085946,20.798822 26.47944,21.959721 24.215924,21.684923 C 20.009773,21.685224 15.802481,21.706008 11.597594,21.790159 L 12.8252,21.051521 z "
       id="path1288"
       style="fill:url(#linearGradient7445);fill-opacity:1;fill-rule:nonzero;stroke:none;stroke-width:0.77097672;stroke-linecap:round;stroke-linejoin:round;stroke-miterlimit:4;stroke-dasharray:none;stroke-opacity:1" />
    <path
       style="fill:white;fill-opacity:1;fill-rule:nonzero;stroke:none;stroke-width:1pt;stroke-linecap:butt;stroke-linejoin:miter;stroke-opacity:1"
       d="M 19.3125,22.65625 L 17.96875,23.327348 C 18.208764,26.022101 18.342899,28.706593 18.375,31.411034 C 16.804349,30.685668 15.30689,29.842597 13.84375,28.909667 L 12.625,30.338316 C 14.51452,31.301875 16.390607,32.330958 18.375,33.114223 C 18.377996,34.033639 18.389341,34.396275 18.375,35.315606 C 18.368368,35.599899 18.350383,35.885437 18.34375,36.169732 L 19.46875,35.590147 C 19.460042,35.313432 19.477457,35.043228 19.46875,34.766526 C 19.452727,34.155679 19.450714,34.121953 19.4375,33.510781 C 19.814764,33.638119 20.205191,33.741877 20.59375,33.846331 C 23.283995,34.582523 25.9531,34.957203 28.625,34.944492 C 28.516221,35.545538 28.402221,35.571697 28.28125,36.169732 C 28.155006,36.780839 28.0268,37.387802 27.90625,38 L 30.084328,37.420415 C 30.166619,36.824756 30.234471,36.213789 30.334328,35.620651 C 30.403902,35.192146 30.486226,35.342906 30.553078,34.913987 C 33.07835,34.809059 33.960712,34.536497 36.449143,33.687558 L 37.292893,32.472441 C 34.558209,33.421518 33.431101,33.715508 30.646828,33.759878 C 31.185498,30.220501 31.59108,26.66728 31.615578,23.083313 L 29.375,23.723907 C 29.643709,27.072373 29.286038,30.42764 28.71875,33.729374 C 26.327801,33.67639 23.930668,33.323149 21.53125,32.631213 C 20.804354,32.414281 20.098095,32.182838 19.40625,31.899105 C 19.347342,28.82203 19.316904,25.730126 19.3125,22.65625 z "
       id="path1298"
       sodipodi:nodetypes="ccccccsccscscsccscccccccccc" />
    <path
       transform="matrix(4.375e-2,0,0,4.519868e-2,9.875,0.71277)"
       d="M 814.28571 515.2193 A 491.42856 431.42856 0 1 1  -168.57141,515.2193 A 491.42856 431.42856 0 1 1  814.28571 515.2193 z"
       sodipodi:ry="431.42856"
       sodipodi:rx="491.42856"
       sodipodi:cy="515.2193"
       sodipodi:cx="322.85715"
       id="path5682"
       style="fill:none;fill-opacity:1.0;stroke:url(#linearGradient6563);stroke-width:22.48785591;stroke-linecap:round;stroke-linejoin:round;stroke-miterlimit:4;stroke-dasharray:none;stroke-opacity:1"
       sodipodi:type="arc" />
    <path
       d="M 26.529966,8.4326915 C 29.693293,8.8583229 32.695642,10.171491 35.63213,11.407266 C 39.12246,13.115351 42.812891,14.980129 45.567318,17.863118 L 44.446122,18.567314 C 41.918492,15.524932 38.199943,13.68201 34.767124,12.005499 C 31.792883,10.754614 28.674374,9.4262929 25.432706,9.2567353 L 26.529966,8.4326915 z "
       id="path1294"
       style="fill:#963900;fill-opacity:1;fill-rule:nonzero;stroke:#963900;stroke-width:0.86538261;stroke-linecap:round;stroke-linejoin:round;stroke-miterlimit:4;stroke-dasharray:none;stroke-opacity:1" />
    <path
       d="M 19.046597,9.6022701 C 15.941189,10.088252 12.989734,11.316193 10.03209,12.343611 C 6.5588494,13.711557 6.1436631,13.652992 4.0470186,15.719575 L 2.7001714,16.275572 C 5.0157329,14.019104 7.9839703,12.611642 11.032267,11.57121 C 14.077808,10.509497 17.108579,9.2435379 20.299825,8.7001692 L 19.046597,9.6022701 z "
       id="path1292"
       style="fill:#963900;fill-opacity:1;fill-rule:nonzero;stroke:#963900;stroke-width:1.40034509;stroke-linecap:round;stroke-linejoin:round;stroke-miterlimit:4;stroke-dasharray:none;stroke-opacity:1" />
    <path
       transform="matrix(4.902724e-2,0,0,4.825551e-2,3.898832,-2.111458)"
       d="M 777.14285 385.21933 A 367.14285 258.57144 0 1 1  42.857147,385.21933 A 367.14285 258.57144 0 1 1  777.14285 385.21933 z"
       sodipodi:ry="258.57144"
       sodipodi:rx="367.14285"
       sodipodi:cy="385.21933"
       sodipodi:cx="410"
       id="path2826"
       style="fill:url(#linearGradient5908);fill-opacity:1;stroke:none;stroke-width:3.0999999;stroke-linecap:round;stroke-linejoin:round;stroke-miterlimit:4;stroke-dasharray:none;stroke-opacity:1"
       sodipodi:type="arc" />
    <path
       style="fill:#3c3c3c;fill-opacity:1;fill-rule:nonzero;stroke:none;stroke-width:1pt;stroke-linecap:butt;stroke-linejoin:miter;stroke-opacity:1"
       d="M 19.3125,22 L 17.96875,22.6875 C 18.208764,25.448112 18.342899,27.800465 18.375,30.571002 C 16.804349,29.827908 15.30689,28.964233 13.84375,28.008502 L 12.625,29.28125 C 14.51452,30.268358 16.390607,31.322592 18.375,32.125 C 18.377996,33.066886 18.389341,34.02695 18.375,34.96875 C 18.368368,35.259991 18.350383,35.552507 18.34375,35.84375 L 19.46875,35.25 C 19.460042,34.966522 19.477457,34.689715 19.46875,34.40625 C 19.452727,33.780474 19.450714,33.157359 19.4375,32.53125 C 19.814764,32.6617 20.205191,32.767993 20.59375,32.875 C 23.283995,33.629185 25.9531,34.013022 28.625,34 C 28.516221,34.615736 28.402221,35.231099 28.28125,35.84375 C 28.155006,36.469793 28.0268,36.649648 27.90625,37.276808 L 29.15625,36.683058 C 29.238541,36.072841 29.306393,35.888884 29.40625,35.28125 C 29.475824,34.842272 29.558148,34.408152 29.625,33.96875 C 32.150272,33.861257 34.667819,33.400937 37.15625,32.53125 L 38,31.477252 C 35.265316,32.449525 32.503023,32.931797 29.71875,32.977252 C 30.25742,29.351373 30.663002,26.109059 30.6875,22.4375 L 29.375,23.09375 C 29.643709,26.524053 29.286038,29.563574 28.71875,32.946002 C 26.327801,32.891723 23.930668,32.529849 21.53125,31.821002 C 20.804354,31.598768 20.098095,31.361669 19.40625,31.071002 C 19.347342,27.918723 19.316904,25.149001 19.3125,22 z "
       id="path4815"
       sodipodi:nodetypes="ccccccsccscscsccscccccccccc" />
  </g>
</svg>
