<?xml version="1.0" encoding="UTF-8" standalone="no"?>
<!-- Created with Inkscape (http://www.inkscape.org/) -->
<svg
   xmlns:dc="http://purl.org/dc/elements/1.1/"
   xmlns:cc="http://web.resource.org/cc/"
   xmlns:rdf="http://www.w3.org/1999/02/22-rdf-syntax-ns#"
   xmlns:svg="http://www.w3.org/2000/svg"
   xmlns="http://www.w3.org/2000/svg"
   xmlns:xlink="http://www.w3.org/1999/xlink"
   xmlns:sodipodi="http://inkscape.sourceforge.net/DTD/sodipodi-0.dtd"
   xmlns:inkscape="http://www.inkscape.org/namespaces/inkscape"
   width="48"
   height="48"
   id="svg1455"
   sodipodi:version="0.32"
   inkscape:version="0.43+devel"
   sodipodi:docbase="/home/silvestre/Desktop/Neu/scalable/categories"
   sodipodi:docname="applications-accessories.svg"
   version="1.0">
  <defs
     id="defs1457">
    <linearGradient
       inkscape:collect="always"
       id="linearGradient6627">
      <stop
         style="stop-color:black;stop-opacity:1;"
         offset="0"
         id="stop6629" />
      <stop
         style="stop-color:black;stop-opacity:0;"
         offset="1"
         id="stop6631" />
    </linearGradient>
    <linearGradient
       inkscape:collect="always"
       id="linearGradient6618">
      <stop
         style="stop-color:black;stop-opacity:1;"
         offset="0"
         id="stop6620" />
      <stop
         style="stop-color:black;stop-opacity:0;"
         offset="1"
         id="stop6622" />
    </linearGradient>
    <linearGradient
       inkscape:collect="always"
       id="linearGradient5707">
      <stop
         style="stop-color:#1e62a0;stop-opacity:1;"
         offset="0"
         id="stop5709" />
      <stop
         style="stop-color:#1e62a0;stop-opacity:0;"
         offset="1"
         id="stop5711" />
    </linearGradient>
    <linearGradient
       inkscape:collect="always"
       id="linearGradient4817">
      <stop
         style="stop-color:white;stop-opacity:0.85490197"
         offset="0"
         id="stop4819" />
      <stop
         style="stop-color:white;stop-opacity:0;"
         offset="1"
         id="stop4821" />
    </linearGradient>
    <linearGradient
       inkscape:collect="always"
       id="linearGradient4807">
      <stop
         style="stop-color:white;stop-opacity:1;"
         offset="0"
         id="stop4809" />
      <stop
         style="stop-color:white;stop-opacity:0.627451"
         offset="1"
         id="stop4811" />
    </linearGradient>
    <linearGradient
       inkscape:collect="always"
       id="linearGradient2197">
      <stop
         style="stop-color:#000000;stop-opacity:1;"
         offset="0"
         id="stop2199" />
      <stop
         style="stop-color:#000000;stop-opacity:0;"
         offset="1"
         id="stop2201" />
    </linearGradient>
    <linearGradient
       inkscape:collect="always"
       xlink:href="#linearGradient2197"
       id="linearGradient2246"
       gradientUnits="userSpaceOnUse"
       x1="64.34726"
       y1="174.12605"
       x2="77.285393"
       y2="77.920486"
       gradientTransform="matrix(0.359622,0,0,0.372432,1.516723,3.429751)" />
    <linearGradient
       inkscape:collect="always"
       xlink:href="#linearGradient4807"
       id="linearGradient4813"
       x1="22.712517"
       y1="12.070053"
       x2="30.891132"
       y2="42.59306"
       gradientUnits="userSpaceOnUse"
       gradientTransform="matrix(1.028571,0,0,1,1.985713,-0.125)" />
    <linearGradient
       inkscape:collect="always"
       xlink:href="#linearGradient4817"
       id="linearGradient4823"
       x1="25.738674"
       y1="38.435013"
       x2="18.8111"
       y2="26.4361"
       gradientUnits="userSpaceOnUse"
       gradientTransform="translate(2,-0.125)" />
    <linearGradient
       inkscape:collect="always"
       xlink:href="#linearGradient5707"
       id="linearGradient5713"
       x1="27.264345"
       y1="25.493176"
       x2="31.018961"
       y2="31.996359"
       gradientUnits="userSpaceOnUse" />
    <linearGradient
       inkscape:collect="always"
       xlink:href="#linearGradient6618"
       id="linearGradient6624"
       x1="39.159794"
       y1="19.980894"
       x2="34.998234"
       y2="19.980894"
       gradientUnits="userSpaceOnUse" />
    <linearGradient
       inkscape:collect="always"
       xlink:href="#linearGradient6627"
       id="linearGradient6633"
       x1="18.473164"
       y1="42.608311"
       x2="20.030331"
       y2="37.143845"
       gradientUnits="userSpaceOnUse" />
  </defs>
  <sodipodi:namedview
     id="base"
     pagecolor="#ffffff"
     bordercolor="#666666"
     borderopacity="1.0"
     inkscape:pageopacity="0.0"
     inkscape:pageshadow="2"
     inkscape:zoom="1"
     inkscape:cx="24"
     inkscape:cy="24"
     inkscape:document-units="px"
     inkscape:current-layer="layer1"
     inkscape:window-width="823"
     inkscape:window-height="536"
     inkscape:window-x="0"
     inkscape:window-y="22"
     width="48px"
     height="48px"
     inkscape:showpageshadow="false"
     showgrid="false"
     showborder="false" />
  <metadata
     id="metadata1460">
    <rdf:RDF>
      <cc:Work
         rdf:about="">
        <dc:format>image/svg+xml</dc:format>
        <dc:type
           rdf:resource="http://purl.org/dc/dcmitype/StillImage" />
      </cc:Work>
    </rdf:RDF>
  </metadata>
  <g
     inkscape:label="Layer 1"
     inkscape:groupmode="layer"
     id="layer1">
    <path
       style="fill:url(#linearGradient2246);fill-opacity:1;fill-rule:evenodd;stroke:none;stroke-width:3;stroke-linecap:round;stroke-linejoin:round;stroke-miterlimit:4;stroke-dasharray:none;stroke-opacity:1"
       d="M 48,34 L 5.4825729,35.20947 L 38.991922,47 L 48,34 z M 40.105764,37.085302 L 32.727857,43.227313 L 12.229865,37.010491 L 40.105764,37.085302 z "
       id="path2195"
       sodipodi:nodetypes="cccccccc" />
    <path
       style="fill:#00c3ff;fill-opacity:1;fill-rule:evenodd;stroke:none;stroke-width:1;stroke-linecap:round;stroke-linejoin:round;stroke-miterlimit:4;stroke-dasharray:none;stroke-opacity:1"
       d="M 38.5,7.5 L 0.5,35.4375 L 3.625,36.34375 L 3.5,36.4375 L 38.59375,46.59375 L 41.5,44.21875 L 41.5,8.5 L 38.5,7.5 z M 32.5625,22.4375 L 32.5625,38.1875 L 16.34375,33.96875 L 32.5625,22.4375 z "
       id="path4825"
       sodipodi:nodetypes="cccccccccccc" />
    <path
       style="fill:black;fill-opacity:0.3218884;fill-rule:evenodd;stroke:#1a568c;stroke-width:1;stroke-linecap:round;stroke-linejoin:round;stroke-miterlimit:4;stroke-dasharray:none;stroke-opacity:1"
       d="M 38.5,7.5 L 0.5,35.4375 L 38.59375,46.59375 L 41.5,44.21875 L 41.5,8.5 L 38.5,7.5 z M 32.5625,22.4375 L 32.5625,38.1875 L 16.34375,33.96875 L 32.5625,22.4375 z "
       id="path5703"
       sodipodi:nodetypes="cccccccccc" />
    <path
       style="fill:#00c3ff;fill-opacity:1.0;fill-rule:evenodd;stroke:url(#linearGradient5713);stroke-width:1;stroke-linecap:round;stroke-linejoin:round;stroke-miterlimit:4;stroke-dasharray:none;stroke-opacity:1"
       d="M 38.013845,7.5000013 L 0.50000092,35.425671 L 38.035942,45.874992 L 38.013845,7.5000013 z M 32.562641,19.312424 L 32.562641,38.198888 L 13.113249,33.115987 L 32.562641,19.312424 z "
       id="path1463"
       sodipodi:nodetypes="cccccccc" />
    <path
       style="fill:none;fill-opacity:1;fill-rule:evenodd;stroke:url(#linearGradient4823);stroke-width:1.00000048;stroke-linecap:round;stroke-linejoin:round;stroke-miterlimit:4;stroke-dasharray:none;stroke-opacity:1"
       d="M 33.500016,17.375002 L 33.500016,39.374991 L 10.500002,33.470273 L 33.500016,17.375002 z "
       id="path4815"
       sodipodi:nodetypes="cccc" />
    <path
       style="opacity:1;fill:url(#linearGradient6633);fill-opacity:1.0;stroke:none;stroke-width:1;stroke-linecap:round;stroke-linejoin:round;stroke-miterlimit:4;stroke-dasharray:none;stroke-dashoffset:0;stroke-opacity:1"
       d="M 7 34.0625 L 7 37 L 8 37 L 8 34.0625 L 7 34.0625 z M 11 36.0625 L 11 39 L 12 39 L 12 36.0625 L 11 36.0625 z M 15 37.0625 L 15 40 L 16 40 L 16 37.0625 L 15 37.0625 z M 19 38.0625 L 19 41 L 20 41 L 20 38.0625 L 19 38.0625 z M 23 39.0625 L 23 42 L 24 42 L 24 39.0625 L 23 39.0625 z M 27 40.0625 L 27 43 L 28 43 L 28 40.0625 L 27 40.0625 z M 31 41 L 31 43.9375 L 32 43.9375 L 32 41 L 31 41 z "
       id="rect5716" />
    <path
       style="opacity:1;fill:url(#linearGradient6624);fill-opacity:1.0;stroke:none;stroke-width:1;stroke-linecap:round;stroke-linejoin:round;stroke-miterlimit:4;stroke-dasharray:none;stroke-dashoffset:0;stroke-opacity:1"
       d="M 35 15 L 35 16 L 37.9375 16 L 37.9375 15 L 35 15 z M 35 19 L 35 20 L 37.9375 20 L 37.9375 19 L 35 19 z M 35 23 L 35 24 L 37.9375 24 L 37.9375 23 L 35 23 z M 35 27.03125 L 35 28.03125 L 37.9375 28.03125 L 37.9375 27.03125 L 35 27.03125 z M 35 31 L 35 32 L 37.9375 32 L 37.9375 31 L 35 31 z M 35 35 L 35 36 L 37.9375 36 L 37.9375 35 L 35 35 z M 35 39 L 35 40 L 37.9375 40 L 37.9375 39 L 35 39 z "
       id="rect6603" />
    <path
       style="fill:none;fill-opacity:1;fill-rule:evenodd;stroke:url(#linearGradient4813);stroke-width:1.00000012;stroke-linecap:round;stroke-linejoin:round;stroke-miterlimit:4;stroke-dasharray:none;stroke-opacity:1"
       d="M 38.499984,8.7928934 L 2.562499,35.162176 L 38.499984,45.485476 L 38.499984,8.7928934 z "
       id="path4805"
       sodipodi:nodetypes="cccc" />
  </g>
</svg>
