<?xml version="1.0" encoding="UTF-8" standalone="no"?>
<!-- Created with Inkscape (http://www.inkscape.org/) -->
<svg
   xmlns:dc="http://purl.org/dc/elements/1.1/"
   xmlns:cc="http://web.resource.org/cc/"
   xmlns:rdf="http://www.w3.org/1999/02/22-rdf-syntax-ns#"
   xmlns:svg="http://www.w3.org/2000/svg"
   xmlns="http://www.w3.org/2000/svg"
   xmlns:xlink="http://www.w3.org/1999/xlink"
   xmlns:sodipodi="http://inkscape.sourceforge.net/DTD/sodipodi-0.dtd"
   xmlns:inkscape="http://www.inkscape.org/namespaces/inkscape"
   width="22"
   height="22"
   id="svg2"
   sodipodi:version="0.32"
   inkscape:version="0.43+devel"
   version="1.0"
   sodipodi:docbase="/home/silvestre/Neu/22x22/status"
   sodipodi:docname="dialog-warning.svg">
  <defs
     id="defs4">
    <linearGradient
       inkscape:collect="always"
       id="linearGradient6576">
      <stop
         style="stop-color:white;stop-opacity:1;"
         offset="0"
         id="stop6578" />
      <stop
         style="stop-color:#e3e3e3;stop-opacity:1"
         offset="1"
         id="stop6580" />
    </linearGradient>
    <linearGradient
       inkscape:collect="always"
       id="linearGradient7752">
      <stop
         style="stop-color:#000000;stop-opacity:0.36909872"
         offset="0"
         id="stop7754" />
      <stop
         style="stop-color:#000000;stop-opacity:0;"
         offset="1"
         id="stop7756" />
    </linearGradient>
    <linearGradient
       inkscape:collect="always"
       id="linearGradient5996">
      <stop
         style="stop-color:#000000;stop-opacity:0.19313304"
         offset="0"
         id="stop5998" />
      <stop
         style="stop-color:#000000;stop-opacity:0;"
         offset="1"
         id="stop6000" />
    </linearGradient>
    <linearGradient
       inkscape:collect="always"
       id="linearGradient5104">
      <stop
         style="stop-color:#000000;stop-opacity:1;"
         offset="0"
         id="stop5106" />
      <stop
         style="stop-color:#000000;stop-opacity:0;"
         offset="1"
         id="stop5108" />
    </linearGradient>
    <linearGradient
       inkscape:collect="always"
       id="linearGradient4197">
      <stop
         style="stop-color:#ffffff;stop-opacity:1;"
         offset="0"
         id="stop4199" />
      <stop
         style="stop-color:#ffffff;stop-opacity:0;"
         offset="1"
         id="stop4201" />
    </linearGradient>
    <linearGradient
       inkscape:collect="always"
       id="linearGradient4187">
      <stop
         style="stop-color:#ffffff;stop-opacity:1;"
         offset="0"
         id="stop4189" />
      <stop
         style="stop-color:#ffffff;stop-opacity:0.27843139"
         offset="1"
         id="stop4191" />
    </linearGradient>
    <linearGradient
       id="linearGradient4176">
      <stop
         style="stop-color:#f85151;stop-opacity:1;"
         offset="0"
         id="stop4178" />
      <stop
         style="stop-color:#d00303;stop-opacity:1;"
         offset="1"
         id="stop4180" />
    </linearGradient>
    <linearGradient
       inkscape:collect="always"
       xlink:href="#linearGradient4187"
       id="linearGradient4193"
       x1="75.787148"
       y1="3.4719357"
       x2="57.994637"
       y2="98.832764"
       gradientUnits="userSpaceOnUse"
       gradientTransform="matrix(0.159362,0,0,0.189243,0.175795,-2.150613)" />
    <radialGradient
       inkscape:collect="always"
       xlink:href="#linearGradient4197"
       id="radialGradient4203"
       cx="62.970509"
       cy="48.729244"
       fx="62.970509"
       fy="33.755856"
       r="32.085793"
       gradientTransform="matrix(0.17943,0,0,0.134169,-2.441634,0.75391)"
       gradientUnits="userSpaceOnUse" />
    <radialGradient
       inkscape:collect="always"
       xlink:href="#linearGradient4176"
       id="radialGradient4227"
       gradientUnits="userSpaceOnUse"
       cx="67.655052"
       cy="76.752853"
       fx="67.655052"
       fy="76.752853"
       r="49.918098"
       gradientTransform="matrix(0.205941,0,0,0.216238,-1.125443,-2.097172)" />
    <radialGradient
       inkscape:collect="always"
       xlink:href="#linearGradient5104"
       id="radialGradient5113"
       gradientUnits="userSpaceOnUse"
       gradientTransform="matrix(0.182608,0,0,3.478262e-2,0.913043,16.03476)"
       cx="52.5"
       cy="114"
       fx="50.669872"
       fy="145.41862"
       r="57.5" />
    <linearGradient
       inkscape:collect="always"
       xlink:href="#linearGradient5996"
       id="linearGradient6002"
       x1="17.101027"
       y1="141.30928"
       x2="111.17001"
       y2="86.99852"
       gradientUnits="userSpaceOnUse"
       gradientTransform="matrix(0.170199,0,0,0.189995,0.318523,-1.58978)" />
    <linearGradient
       inkscape:collect="always"
       xlink:href="#linearGradient7752"
       id="linearGradient7758"
       x1="109.38406"
       y1="63.299728"
       x2="66.135506"
       y2="63.299728"
       gradientUnits="userSpaceOnUse"
       gradientTransform="matrix(0.179214,0,0,0.179283,0.55808,-1.458477)" />
    <radialGradient
       inkscape:collect="always"
       xlink:href="#linearGradient6576"
       id="radialGradient6582"
       cx="24.680851"
       cy="30.609259"
       fx="24.680851"
       fy="30.609259"
       r="16"
       gradientTransform="matrix(0.375,0,0,0.499999,1.500001,-1.249999)"
       gradientUnits="userSpaceOnUse" />
  </defs>
  <sodipodi:namedview
     id="base"
     pagecolor="#ffffff"
     bordercolor="#666666"
     borderopacity="1.0"
     inkscape:pageopacity="0.0"
     inkscape:pageshadow="2"
     inkscape:zoom="1"
     inkscape:cx="11"
     inkscape:cy="11"
     inkscape:document-units="px"
     inkscape:current-layer="layer1"
     inkscape:window-width="843"
     inkscape:window-height="556"
     inkscape:window-x="89"
     inkscape:window-y="127"
     showborder="false"
     showgrid="false"
     inkscape:showpageshadow="false"
     width="22px"
     height="22px" />
  <metadata
     id="metadata7">
    <rdf:RDF>
      <cc:Work
         rdf:about="">
        <dc:format>image/svg+xml</dc:format>
        <dc:type
           rdf:resource="http://purl.org/dc/dcmitype/StillImage" />
      </cc:Work>
    </rdf:RDF>
  </metadata>
  <g
     inkscape:label="Capa 1"
     inkscape:groupmode="layer"
     id="layer1">
    <path
       style="fill:url(#linearGradient6002);fill-opacity:1;stroke:none;stroke-width:3.00000095;stroke-linecap:round;stroke-linejoin:miter;stroke-miterlimit:4;stroke-dashoffset:0;stroke-opacity:1"
       d="M 21.615018,19.497923 C 20.181183,20.879073 15.157957,22 10.402467,22 C 5.6469768,22 2.951144,20.879073 4.3849806,19.497923 C 5.8188192,18.116778 10.842041,16.995846 15.597533,16.995846 C 20.353023,16.995846 23.048858,18.116778 21.615018,19.497923 z "
       id="path5119" />
    <path
       style="opacity:0.43096236;fill:url(#radialGradient5113);fill-opacity:1;stroke:none;stroke-width:2;stroke-linecap:round;stroke-linejoin:miter;stroke-miterlimit:4;stroke-dashoffset:0;stroke-opacity:1"
       d="M 21,19.999999 C 21,21.104 16.296,22 10.5,22 C 4.7040002,22 -1.3956392e-16,21.104 -1.3956392e-16,19.999999 C -1.3956392e-16,18.896 4.7040002,18 10.5,18 C 16.296,18 21,18.896 21,19.999999 z "
       id="path4229" />
    <path
       style="fill:url(#radialGradient4227);fill-opacity:1;stroke:#8c0404;stroke-width:1;stroke-linecap:round;stroke-linejoin:miter;stroke-miterlimit:4;stroke-dasharray:none;stroke-dashoffset:0;stroke-opacity:1"
       d="M 20.500002,11.000003 C 20.500002,16.796006 16.02,21.500006 10.500001,21.500006 C 4.9800007,21.500006 0.50000018,16.796006 0.50000018,11.000003 C 0.50000018,5.2040026 4.9800007,0.50000047 10.500001,0.50000047 C 16.02,0.50000047 20.500002,5.2040026 20.500002,11.000003 z "
       id="path3305" />
    <path
       style="fill:none;fill-opacity:1;stroke:url(#linearGradient7758);stroke-width:1.99999917;stroke-linecap:round;stroke-linejoin:miter;stroke-miterlimit:4;stroke-dasharray:none;stroke-dashoffset:0;stroke-opacity:1"
       d="M 19.000011,11.000001 C 19.000011,15.968002 15.192009,20.000002 10.500005,20.000002 C 5.8080024,20.000002 1.9999997,15.968002 1.9999997,11.000001 C 1.9999997,6.0319997 5.8080024,1.9999987 10.500005,1.9999987 C 15.192009,1.9999987 19.000011,6.0319997 19.000011,11.000001 z "
       id="path6877" />
    <path
       style="fill:none;fill-opacity:1;stroke:url(#linearGradient4193);stroke-width:0.99999905;stroke-linecap:round;stroke-linejoin:miter;stroke-miterlimit:4;stroke-dasharray:none;stroke-dashoffset:0;stroke-opacity:1"
       d="M 17.499998,10.999998 C 17.499998,16.243996 13.915999,20.499994 9.4999993,20.499994 C 5.0839989,20.499994 1.4999994,16.243996 1.4999994,10.999998 C 1.4999994,5.7559974 5.0839989,1.4999986 9.4999993,1.4999986 C 13.915999,1.4999986 17.499998,5.7559974 17.499998,10.999998 z "
       id="path4185" />
    <path
       style="opacity:0.5690377;fill:url(#radialGradient4203);fill-opacity:1;stroke:none;stroke-width:2;stroke-linecap:round;stroke-linejoin:miter;stroke-miterlimit:4;stroke-dashoffset:0;stroke-opacity:0.27843137"
       d="M 14.614285,7.29186 C 14.614285,9.668176 12.035085,11.596781 8.8571429,11.596781 C 5.6792,11.596781 3.1,9.668176 3.1,7.29186 C 3.1,4.915544 5.6792,2.98694 8.8571429,2.98694 C 12.035085,2.98694 14.614285,4.915544 14.614285,7.29186 z "
       id="path4195" />
    <path
       style="fill:url(#radialGradient6582);fill-opacity:1;stroke:none;stroke-width:3;stroke-linecap:round;stroke-linejoin:miter;stroke-miterlimit:4;stroke-dasharray:none;stroke-dashoffset:0;stroke-opacity:1"
       d="M 15,11.000001 C 15,15.416001 12.312,19 9.0000005,19 C 5.688,19 3,15.416001 3,11.000001 C 3,6.5840002 5.688,3 9.0000005,3 C 12.312,3 15,6.5840002 15,11.000001 z "
       id="path4818" />
    <path
       style="font-size:90.30408478px;font-style:normal;font-variant:normal;font-weight:bold;font-stretch:normal;text-align:start;line-height:125%;writing-mode:lr-tb;text-anchor:start;fill:black;fill-opacity:1;stroke:none;stroke-width:1px;stroke-linecap:butt;stroke-linejoin:miter;stroke-opacity:1;font-family:Bitstream Charter"
       d="M 8.4999991,15.140377 C 7.6907894,15.140377 7.019737,15.780028 7.019737,16.589002 C 7.019737,17.379159 7.7105264,18 8.4999991,18 C 9.3092093,18 9.9802629,17.379159 9.9802629,16.589002 C 9.9802629,15.780028 9.3092093,15.140377 8.4999991,15.140377 M 9.9210516,7.426917 C 9.9802629,7.0318376 10,6.7308247 10,6.5426917 C 10,5.5455864 9.4276309,5 8.4999991,5 C 7.5723696,5 7,5.5267739 7,6.4862522 C 7,6.6743842 7.039474,7.0130251 7.0986833,7.464543 L 7.9868427,14.14327 L 9.0328943,14.14327 L 9.9210516,7.426917"
       id="text3333" />
  </g>
</svg>
