<?xml version="1.0" encoding="UTF-8" standalone="no"?>
<!-- Created with Inkscape (http://www.inkscape.org/) -->
<svg
   xmlns:dc="http://purl.org/dc/elements/1.1/"
   xmlns:cc="http://web.resource.org/cc/"
   xmlns:rdf="http://www.w3.org/1999/02/22-rdf-syntax-ns#"
   xmlns:svg="http://www.w3.org/2000/svg"
   xmlns="http://www.w3.org/2000/svg"
   xmlns:xlink="http://www.w3.org/1999/xlink"
   xmlns:sodipodi="http://inkscape.sourceforge.net/DTD/sodipodi-0.dtd"
   xmlns:inkscape="http://www.inkscape.org/namespaces/inkscape"
   width="22"
   height="22"
   id="svg13623"
   sodipodi:version="0.32"
   inkscape:version="0.43+devel"
   sodipodi:docbase="/home/silvestre/Neu/22x22/status"
   sodipodi:docname="user-trash-full.svg"
   version="1.0">
  <defs
     id="defs3">
    <linearGradient
       inkscape:collect="always"
       id="linearGradient4955">
      <stop
         style="stop-color:white;stop-opacity:1;"
         offset="0"
         id="stop4957" />
      <stop
         style="stop-color:white;stop-opacity:0;"
         offset="1"
         id="stop4959" />
    </linearGradient>
    <linearGradient
       inkscape:collect="always"
       id="linearGradient6966">
      <stop
         style="stop-color:black;stop-opacity:0.21030043"
         offset="0"
         id="stop6968" />
      <stop
         style="stop-color:black;stop-opacity:0;"
         offset="1"
         id="stop6970" />
    </linearGradient>
    <linearGradient
       inkscape:collect="always"
       id="linearGradient6956">
      <stop
         style="stop-color:black;stop-opacity:1;"
         offset="0"
         id="stop6958" />
      <stop
         style="stop-color:black;stop-opacity:0;"
         offset="1"
         id="stop6960" />
    </linearGradient>
    <linearGradient
       inkscape:collect="always"
       id="linearGradient5761">
      <stop
         style="stop-color:#969696;stop-opacity:1"
         offset="0"
         id="stop5763" />
      <stop
         style="stop-color:#ddd;stop-opacity:1"
         offset="1"
         id="stop5765" />
    </linearGradient>
    <linearGradient
       id="linearGradient5751">
      <stop
         style="stop-color:white;stop-opacity:0;"
         offset="0"
         id="stop5753" />
      <stop
         id="stop5759"
         offset="0"
         style="stop-color:white;stop-opacity:1;" />
      <stop
         style="stop-color:white;stop-opacity:0;"
         offset="1"
         id="stop5755" />
    </linearGradient>
    <linearGradient
       inkscape:collect="always"
       id="linearGradient5735">
      <stop
         style="stop-color:black;stop-opacity:0.53218883"
         offset="0"
         id="stop5737" />
      <stop
         style="stop-color:black;stop-opacity:0;"
         offset="1"
         id="stop5739" />
    </linearGradient>
    <linearGradient
       inkscape:collect="always"
       id="linearGradient5727">
      <stop
         style="stop-color:white;stop-opacity:1;"
         offset="0"
         id="stop5729" />
      <stop
         style="stop-color:white;stop-opacity:0.32618025"
         offset="1"
         id="stop5731" />
    </linearGradient>
    <linearGradient
       inkscape:collect="always"
       id="linearGradient5717">
      <stop
         style="stop-color:white;stop-opacity:1;"
         offset="0"
         id="stop5719" />
      <stop
         style="stop-color:white;stop-opacity:0;"
         offset="1"
         id="stop5721" />
    </linearGradient>
    <linearGradient
       inkscape:collect="always"
       xlink:href="#linearGradient5717"
       id="linearGradient5723"
       x1="55.154327"
       y1="64.572014"
       x2="55.154327"
       y2="30.337681"
       gradientUnits="userSpaceOnUse"
       gradientTransform="matrix(0.186409,0,0,0.175775,-2.411668,-0.289263)" />
    <linearGradient
       inkscape:collect="always"
       xlink:href="#linearGradient5727"
       id="linearGradient5733"
       x1="59.008205"
       y1="48.804073"
       x2="59.008205"
       y2="17.999977"
       gradientUnits="userSpaceOnUse"
       gradientTransform="matrix(0.225147,0,0,0.204465,-5.345776,-2.478708)" />
    <linearGradient
       inkscape:collect="always"
       xlink:href="#linearGradient5751"
       id="linearGradient5757"
       x1="18.78125"
       y1="74.57222"
       x2="63.90625"
       y2="72.32222"
       gradientUnits="userSpaceOnUse"
       gradientTransform="matrix(0.188365,0,0,0.177023,-2.53774,-0.14095)" />
    <linearGradient
       inkscape:collect="always"
       xlink:href="#linearGradient5761"
       id="linearGradient5767"
       x1="101.25"
       y1="72.75"
       x2="68.737175"
       y2="70.75"
       gradientUnits="userSpaceOnUse"
       gradientTransform="matrix(0.193231,0,0,0.184664,-2.847558,-0.965296)" />
    <radialGradient
       inkscape:collect="always"
       xlink:href="#linearGradient6956"
       id="radialGradient6962"
       cx="66.25"
       cy="109.25"
       fx="66.25"
       fy="149.6292"
       r="57.25"
       gradientTransform="matrix(1,0,0,0.353712,-1.852902e-15,70.60699)"
       gradientUnits="userSpaceOnUse" />
    <linearGradient
       inkscape:collect="always"
       xlink:href="#linearGradient6966"
       id="linearGradient6972"
       x1="65"
       y1="128"
       x2="103.38376"
       y2="69.818649"
       gradientUnits="userSpaceOnUse"
       gradientTransform="matrix(0.160373,0,0,0.172444,0.620844,0.87832)" />
    <linearGradient
       inkscape:collect="always"
       id="linearGradient2183">
      <stop
         style="stop-color:#ffffff;stop-opacity:1;"
         offset="0"
         id="stop2185" />
      <stop
         style="stop-color:#ffffff;stop-opacity:0;"
         offset="1"
         id="stop2187" />
    </linearGradient>
    <linearGradient
       id="linearGradient2201">
      <stop
         style="stop-color:#5bdd22;stop-opacity:1;"
         offset="0"
         id="stop2203" />
      <stop
         style="stop-color:#60d02f;stop-opacity:1;"
         offset="1"
         id="stop2205" />
    </linearGradient>
    <linearGradient
       inkscape:collect="always"
       xlink:href="#linearGradient4955"
       id="linearGradient5716"
       gradientUnits="userSpaceOnUse"
       x1="-70.46225"
       y1="59.150021"
       x2="-70.46225"
       y2="91.51226"
       gradientTransform="matrix(8.892496e-2,0,0,8.913042e-2,14.1282,9.2608)" />
    <linearGradient
       inkscape:collect="always"
       xlink:href="#linearGradient2201"
       id="linearGradient5728"
       gradientUnits="userSpaceOnUse"
       gradientTransform="matrix(0.105752,2.82442e-2,2.833606e-2,-0.105409,14.81491,21.95392)"
       x1="-95.53125"
       y1="38.625"
       x2="-31.945671"
       y2="38.625" />
    <linearGradient
       inkscape:collect="always"
       xlink:href="#linearGradient2183"
       id="linearGradient5736"
       gradientUnits="userSpaceOnUse"
       gradientTransform="matrix(-0.115964,0,0,0.108634,6.127482e-2,8.75251)"
       x1="-87.5"
       y1="-4.839344"
       x2="-63"
       y2="39.660656" />
    <linearGradient
       inkscape:collect="always"
       xlink:href="#linearGradient2201"
       id="linearGradient5739"
       gradientUnits="userSpaceOnUse"
       gradientTransform="matrix(-0.111012,0,0,0.105393,0.556963,8.76)"
       x1="-95.53125"
       y1="38.625"
       x2="-31.945671"
       y2="38.625" />
    <radialGradient
       inkscape:collect="always"
       xlink:href="#linearGradient5735"
       id="radialGradient4846"
       cx="19.499992"
       cy="20.789114"
       fx="19.527102"
       fy="23.809175"
       r="17.499994"
       gradientTransform="matrix(0.630549,1.099979e-2,-5.660085e-3,0.280957,-2.678024,0.594953)"
       gradientUnits="userSpaceOnUse" />
    <linearGradient
       id="linearGradient5115"
       inkscape:collect="always">
      <stop
         id="stop5117"
         offset="0"
         style="stop-color:#ebebeb;stop-opacity:1" />
      <stop
         id="stop5119"
         offset="1"
         style="stop-color:#8c8c8c;stop-opacity:1" />
    </linearGradient>
    <linearGradient
       inkscape:collect="always"
       id="linearGradient5074">
      <stop
         style="stop-color:white;stop-opacity:1;"
         offset="0"
         id="stop5076" />
      <stop
         style="stop-color:#b7b7b7;stop-opacity:1"
         offset="1"
         id="stop5078" />
    </linearGradient>
    <linearGradient
       inkscape:collect="always"
       id="linearGradient5064">
      <stop
         style="stop-color:#868686;stop-opacity:0.42918456"
         offset="0"
         id="stop5066" />
      <stop
         style="stop-color:#868686;stop-opacity:0;"
         offset="1"
         id="stop5068" />
    </linearGradient>
    <linearGradient
       inkscape:collect="always"
       xlink:href="#linearGradient5115"
       id="linearGradient4250"
       gradientUnits="userSpaceOnUse"
       x1="48.696583"
       y1="28.615053"
       x2="46"
       y2="42.25" />
    <linearGradient
       inkscape:collect="always"
       xlink:href="#linearGradient5064"
       id="linearGradient4252"
       gradientUnits="userSpaceOnUse"
       x1="31.756649"
       y1="31.502542"
       x2="31.756649"
       y2="18.686428" />
    <linearGradient
       inkscape:collect="always"
       xlink:href="#linearGradient5074"
       id="linearGradient4254"
       gradientUnits="userSpaceOnUse"
       x1="47"
       y1="32"
       x2="46"
       y2="42.25" />
    <linearGradient
       inkscape:collect="always"
       xlink:href="#linearGradient5064"
       id="linearGradient4256"
       gradientUnits="userSpaceOnUse"
       x1="31.756649"
       y1="31.502542"
       x2="31.756649"
       y2="18.686428" />
    <linearGradient
       inkscape:collect="always"
       xlink:href="#linearGradient5074"
       id="linearGradient4258"
       gradientUnits="userSpaceOnUse"
       x1="47"
       y1="32"
       x2="46"
       y2="42.25" />
    <linearGradient
       inkscape:collect="always"
       xlink:href="#linearGradient5064"
       id="linearGradient4260"
       gradientUnits="userSpaceOnUse"
       x1="31.756649"
       y1="31.502542"
       x2="31.756649"
       y2="18.686428" />
  </defs>
  <sodipodi:namedview
     id="base"
     pagecolor="#ffffff"
     bordercolor="#666666"
     borderopacity="1.0"
     inkscape:pageopacity="0.0"
     inkscape:pageshadow="2"
     inkscape:zoom="1"
     inkscape:cx="11.647059"
     inkscape:cy="15.650735"
     inkscape:document-units="px"
     inkscape:current-layer="layer1"
     showguides="true"
     inkscape:guide-bbox="true"
     inkscape:window-width="843"
     inkscape:window-height="556"
     inkscape:window-x="171"
     inkscape:window-y="22"
     width="22px"
     height="22px"
     showborder="false"
     showgrid="false"
     inkscape:showpageshadow="false" />
  <metadata
     id="metadata4">
    <rdf:RDF>
      <cc:Work
         rdf:about="">
        <dc:format>image/svg+xml</dc:format>
        <dc:type
           rdf:resource="http://purl.org/dc/dcmitype/StillImage" />
      </cc:Work>
    </rdf:RDF>
  </metadata>
  <g
     inkscape:label="Layer 1"
     inkscape:groupmode="layer"
     id="layer1">
    <path
       style="fill:url(#linearGradient6972);fill-opacity:1;stroke:none;stroke-width:3.00000024;stroke-linecap:round;stroke-linejoin:miter;stroke-miterlimit:4;stroke-dashoffset:0;stroke-opacity:1"
       d="M 7.1260602,17.203238 C 9.5657048,15.895639 24.441439,16.579985 22.065295,17.85355 L 12.319703,21.302445 C 9.8996191,22.277364 1.9487338,20.019778 3.1689897,19.043549 L 7.1260602,17.203238 z "
       id="path6964"
       sodipodi:nodetypes="ccccc" />
    <path
       sodipodi:type="arc"
       style="opacity:0.61506276;fill:url(#radialGradient6962);fill-opacity:1;stroke:none;stroke-width:3;stroke-linecap:round;stroke-linejoin:miter;stroke-miterlimit:4;stroke-dasharray:none;stroke-dashoffset:0;stroke-opacity:1"
       id="path6080"
       sodipodi:cx="66.25"
       sodipodi:cy="109.25"
       sodipodi:rx="57.25"
       sodipodi:ry="20.25"
       d="M 123.5 109.25 A 57.25 20.25 0 1 1  9,109.25 A 57.25 20.25 0 1 1  123.5 109.25 z"
       transform="matrix(0.156348,0,0,0.18112,-1.118764,-1.45504)" />
    <path
       style="fill:url(#linearGradient5767);fill-opacity:1;stroke:#878787;stroke-width:0.9999994;stroke-linecap:round;stroke-linejoin:miter;stroke-miterlimit:4;stroke-dasharray:none;stroke-dashoffset:0;stroke-opacity:1"
       d="M 0.49999989,4.6488646 C 0.49999989,-0.95565634 18.500001,-0.80977457 18.500001,4.6488646 L 17.042514,18.363479 C 16.37262,22.645821 2.9188788,22.443972 2.2489881,18.363479 L 0.49999989,4.6488646 z "
       id="rect3964"
       sodipodi:nodetypes="ccccc" />
    <path
       style="opacity:0.61506276;fill:none;fill-opacity:1;stroke:url(#linearGradient5723);stroke-width:1.00000012;stroke-linecap:round;stroke-linejoin:miter;stroke-miterlimit:4;stroke-dasharray:none;stroke-dashoffset:0;stroke-opacity:1"
       d="M 1.4999996,5.0298534 C 1.4999996,0.3601614 17.500001,0.55029825 17.500001,5.0298534 L 16.204456,17.747766 C 15.608996,21.505441 3.6501143,21.328322 3.0546555,17.747766 L 1.4999996,5.0298534 z "
       id="path5715"
       sodipodi:nodetypes="ccccc" />
    <path
       style="fill:url(#radialGradient4846);fill-opacity:1;stroke:url(#linearGradient5733);stroke-width:1.0000006;stroke-linecap:round;stroke-linejoin:miter;stroke-miterlimit:4;stroke-dasharray:none;stroke-dashoffset:0;stroke-opacity:1"
       d="M 17.500011,4.5000012 C 17.500011,6.1560013 13.91601,7.5000014 9.5000063,7.5000014 C 5.0840037,7.5000014 1.5000008,6.1560013 1.5000008,4.5000012 C 1.5000008,2.8440001 5.0840037,1.5 9.5000063,1.5 C 13.91601,1.5 17.500011,2.8440001 17.500011,4.5000012 z "
       id="path5725" />
    <path
       style="opacity:0.84518828;fill:url(#linearGradient5739);fill-opacity:1;fill-rule:evenodd;stroke:#6ba536;stroke-width:1;stroke-linecap:round;stroke-linejoin:round;stroke-miterlimit:4;stroke-dasharray:none;stroke-opacity:1"
       d="M 11.075382,11.631975 C 10.011515,10.885439 8.8643872,10.138901 7.8005189,9.392366 C 7.8097691,9.78759 7.8190211,10.182816 7.8282722,10.57804 C 4.4793991,11.025963 4.1556139,14.635688 4.1926176,16.269285 C 4.7384286,13.95063 6.6718927,12.764954 7.8282722,12.791302 C 7.8375229,13.160179 7.8467741,13.529056 7.8560248,13.897933 C 8.9291446,13.142614 10.002263,12.387294 11.075382,11.631975 z "
       id="path1381"
       sodipodi:nodetypes="ccccccc" />
    <path
       style="opacity:0.84518828;fill:url(#linearGradient5736);fill-opacity:1;fill-rule:evenodd;stroke:none;stroke-width:0.25pt;stroke-linecap:butt;stroke-linejoin:miter;stroke-opacity:1"
       d="M 10.845877,11.7128 C 9.8118701,11.015729 9.0560716,10.402018 8.0220643,9.704946 C 8.0317276,10.067061 8.0413914,10.345816 8.0510552,10.70793 C 6.8624296,10.843724 5.8594487,11.414056 5.3376126,11.848593 C 7.4636094,12.563771 9.270707,12.572823 10.845877,11.7128 z "
       id="path3015"
       sodipodi:nodetypes="ccccc" />
    <path
       style="opacity:0.84518828;fill:url(#linearGradient5728);fill-opacity:1;fill-rule:evenodd;stroke:#6ba536;stroke-width:1;stroke-linecap:round;stroke-linejoin:round;stroke-miterlimit:4;stroke-dasharray:none;stroke-opacity:1"
       d="M 5.5671201,16.40538 C 6.3798561,17.422702 7.2719074,18.461207 8.0846438,19.478528 C 8.1820919,19.080891 8.279539,18.683253 8.376987,18.285615 C 11.687582,18.68966 12.966533,15.161778 13.370492,13.518523 C 12.227154,15.698655 10.066538,16.392588 8.9720443,16.072025 C 9.0624078,15.700739 9.1527709,15.329453 9.2431354,14.958168 C 8.0177965,15.440573 6.792459,15.922977 5.5671201,16.40538 z "
       id="path4945"
       sodipodi:nodetypes="ccccccc" />
    <path
       style="opacity:0.84518828;fill:url(#linearGradient5716);fill-opacity:1;fill-rule:evenodd;stroke:none;stroke-width:1px;stroke-linecap:butt;stroke-linejoin:miter;stroke-opacity:1"
       d="M 5.7966346,16.588657 L 8.9550968,15.312405 L 8.7035779,16.24202 C 9.1312942,16.488203 9.9230898,16.437286 10.386855,16.305046 C 9.207451,17.671546 7.2697014,17.789355 5.7966346,16.588657 z "
       id="path4953"
       sodipodi:nodetypes="ccccc" />
    <path
       style="fill:url(#linearGradient5757);fill-opacity:1;stroke:none;stroke-width:3.00000024;stroke-linecap:round;stroke-linejoin:miter;stroke-miterlimit:4;stroke-dashoffset:0;stroke-opacity:1;opacity:0.76569038"
       d="M 1.158933,5.03697 C 1.098598,5.164574 1.045642,5.295345 1,5.429739 L 2.6482,18.169866 C 3.280921,21.959904 15.989853,22.147382 16.622576,18.169866 L 18,5.429739 C 17.956385,5.294636 17.905362,5.165178 17.846953,5.03697 L 17.476108,5.03697 C 17.145607,6.517748 13.693718,7.686784 9.48234,7.686784 C 5.270962,7.686784 1.819074,6.517748 1.488573,5.03697 L 1.158933,5.03697 z "
       id="path5743" />
    <g
       id="g4255"
       transform="matrix(0.186655,0,0,0.208955,8.39297,7.974976)">
      <g
         transform="matrix(1.097654,-0.256693,0.217083,1.297942,-46.1849,-52.42431)"
         id="g5103">
        <path
           style="fill:url(#linearGradient4250);fill-opacity:1;fill-rule:evenodd;stroke:none;stroke-width:1px;stroke-linecap:butt;stroke-linejoin:miter;stroke-opacity:1"
           d="M 12.65625,26.0625 C 12.65625,26.0625 28,21.25 29,18.75 C 30,16.25 29.5,16.25 29.5,16.25 L 36.75,21.5 C 36.75,21.5 42,23.5 44,19.5 C 45.565248,16.369505 44,16 44,16 L 51.5,24 C 51.5,24 52.75,25.25 57.25,23.75 C 61.75,22.25 62,21.75 62,21.75 L 64.75,38.5 C 47.148773,41.072401 17.304696,37.186686 12.65625,26.0625 z "
           id="path5105"
           sodipodi:nodetypes="csccsccsccc" />
        <path
           style="fill:url(#linearGradient4252);fill-opacity:1;fill-rule:evenodd;stroke:none;stroke-width:1px;stroke-linecap:butt;stroke-linejoin:miter;stroke-opacity:1"
           d="M 13,26.125 C 13.4311,30.134889 21.561364,35.229519 34,37.25 L 42.875,21 C 37.7739,24.299001 33.912958,19.330282 29.75,16.375 C 29.881472,20.724001 20.424075,23.272258 13,26.125 z "
           id="path5107"
           sodipodi:nodetypes="ccccc" />
        <path
           style="fill:white;fill-opacity:0.63948502;fill-rule:evenodd;stroke:none;stroke-width:1px;stroke-linecap:butt;stroke-linejoin:miter;stroke-opacity:1"
           d="M 29.75,16.5 L 34,37.125 L 42.875,21 C 39.357638,23.820136 35.933733,20.720171 29.75,16.5 z "
           id="path5109"
           sodipodi:nodetypes="cccc" />
      </g>
      <g
         transform="translate(-46.9064,-44.35653)"
         id="g5082">
        <path
           style="fill:url(#linearGradient4254);fill-opacity:1;fill-rule:evenodd;stroke:none;stroke-width:1px;stroke-linecap:butt;stroke-linejoin:miter;stroke-opacity:1"
           d="M 12.65625,26.0625 C 12.65625,26.0625 28,21.25 29,18.75 C 30,16.25 29.5,16.25 29.5,16.25 L 36.75,21.5 C 36.75,21.5 42,23.5 44,19.5 C 45.565248,16.369505 44,16 44,16 L 51.5,24 C 51.5,24 52.75,25.25 57.25,23.75 C 61.75,22.25 62,21.75 62,21.75 L 64.75,38.5 C 47.148773,41.072401 17.304696,37.186686 12.65625,26.0625 z "
           id="path5060"
           sodipodi:nodetypes="csccsccsccc" />
        <path
           style="fill:url(#linearGradient4256);fill-opacity:1;fill-rule:evenodd;stroke:none;stroke-width:1px;stroke-linecap:butt;stroke-linejoin:miter;stroke-opacity:1"
           d="M 13,26.125 C 13.4311,30.134889 21.561364,35.229519 34,37.25 L 42.875,21 C 37.7739,24.299001 33.912958,19.330282 29.75,16.375 C 29.881472,20.724001 20.424075,23.272258 13,26.125 z "
           id="path5062"
           sodipodi:nodetypes="ccccc" />
        <path
           style="fill:white;fill-opacity:0.63948502;fill-rule:evenodd;stroke:none;stroke-width:1px;stroke-linecap:butt;stroke-linejoin:miter;stroke-opacity:1"
           d="M 29.75,16.5 L 34,37.125 L 42.875,21 C 39.357638,23.820136 35.933733,20.720171 29.75,16.5 z "
           id="path5072"
           sodipodi:nodetypes="cccc" />
      </g>
      <g
         transform="matrix(0.949904,-0.312541,0.312541,0.949904,-27.4271,-30.14495)"
         id="g5091">
        <path
           style="fill:url(#linearGradient4258);fill-opacity:1;fill-rule:evenodd;stroke:none;stroke-width:1px;stroke-linecap:butt;stroke-linejoin:miter;stroke-opacity:1"
           d="M 12.65625,26.0625 C 12.65625,26.0625 28,21.25 29,18.75 C 30,16.25 29.5,16.25 29.5,16.25 L 36.75,21.5 C 36.75,21.5 42,23.5 44,19.5 C 45.565248,16.369505 44,16 44,16 L 51.5,24 C 51.5,24 52.75,25.25 57.25,23.75 C 61.75,22.25 62,21.75 62,21.75 L 65.57875,35.981185 C 56.353545,43.356592 17.304696,37.186686 12.65625,26.0625 z "
           id="path5093"
           sodipodi:nodetypes="csccsccsccc" />
        <path
           style="fill:url(#linearGradient4260);fill-opacity:1;fill-rule:evenodd;stroke:none;stroke-width:1px;stroke-linecap:butt;stroke-linejoin:miter;stroke-opacity:1"
           d="M 13,26.125 C 13.4311,30.134889 21.561364,35.229519 34,37.25 L 42.875,21 C 37.7739,24.299001 33.912958,19.330282 29.75,16.375 C 29.881472,20.724001 20.424075,23.272258 13,26.125 z "
           id="path5095"
           sodipodi:nodetypes="ccccc" />
        <path
           style="fill:white;fill-opacity:0.63948502;fill-rule:evenodd;stroke:none;stroke-width:1px;stroke-linecap:butt;stroke-linejoin:miter;stroke-opacity:1"
           d="M 29.75,16.5 L 34,37.125 L 42.875,21 C 39.357638,23.820136 35.933733,20.720171 29.75,16.5 z "
           id="path5097"
           sodipodi:nodetypes="cccc" />
      </g>
    </g>
  </g>
</svg>
