<?xml version="1.0" encoding="UTF-8" standalone="no"?>
<!-- Created with Inkscape (http://www.inkscape.org/) -->
<svg
   xmlns:dc="http://purl.org/dc/elements/1.1/"
   xmlns:cc="http://web.resource.org/cc/"
   xmlns:rdf="http://www.w3.org/1999/02/22-rdf-syntax-ns#"
   xmlns:svg="http://www.w3.org/2000/svg"
   xmlns="http://www.w3.org/2000/svg"
   xmlns:xlink="http://www.w3.org/1999/xlink"
   xmlns:sodipodi="http://inkscape.sourceforge.net/DTD/sodipodi-0.dtd"
   xmlns:inkscape="http://www.inkscape.org/namespaces/inkscape"
   width="22"
   height="22"
   id="svg2"
   sodipodi:version="0.32"
   inkscape:version="0.43+devel"
   sodipodi:docbase="/home/silvestre/Neu/22x22/categories"
   sodipodi:docname="applications-multimedia.svg"
   version="1.0">
  <defs
     id="defs4">
    <linearGradient
       inkscape:collect="always"
       id="linearGradient5698">
      <stop
         style="stop-color:white;stop-opacity:0.68669528"
         offset="0"
         id="stop5700" />
      <stop
         style="stop-color:white;stop-opacity:0.39055794"
         offset="1"
         id="stop5702" />
    </linearGradient>
    <linearGradient
       inkscape:collect="always"
       id="linearGradient5761">
      <stop
         style="stop-color:#000000;stop-opacity:1;"
         offset="0"
         id="stop5763" />
      <stop
         style="stop-color:#000000;stop-opacity:0;"
         offset="1"
         id="stop5765" />
    </linearGradient>
    <linearGradient
       inkscape:collect="always"
       id="linearGradient5751">
      <stop
         style="stop-color:#000000;stop-opacity:0.29600000"
         offset="0"
         id="stop5753" />
      <stop
         style="stop-color:#000000;stop-opacity:0;"
         offset="1"
         id="stop5755" />
    </linearGradient>
    <linearGradient
       inkscape:collect="always"
       id="linearGradient4261">
      <stop
         style="stop-color:#ffffff;stop-opacity:0.39600000"
         offset="0"
         id="stop4263" />
      <stop
         style="stop-color:#ffffff;stop-opacity:0;"
         offset="1"
         id="stop4265" />
    </linearGradient>
    <linearGradient
       inkscape:collect="always"
       xlink:href="#linearGradient5761"
       id="linearGradient4812"
       gradientUnits="userSpaceOnUse"
       gradientTransform="matrix(0.139638,0,0,0.225753,4.351126,-5.08373)"
       x1="50.538746"
       y1="161.06273"
       x2="53.136532"
       y2="102.49446" />
    <linearGradient
       inkscape:collect="always"
       xlink:href="#linearGradient4261"
       id="linearGradient4817"
       gradientUnits="userSpaceOnUse"
       gradientTransform="matrix(0.148564,0,-1.457172e-3,0.170905,0.413996,-0.389761)"
       x1="40.955887"
       y1="-43.938217"
       x2="65.025772"
       y2="57.038216" />
    <radialGradient
       inkscape:collect="always"
       xlink:href="#linearGradient5751"
       id="radialGradient4821"
       gradientUnits="userSpaceOnUse"
       gradientTransform="matrix(1,0,0,9.958506e-2,2.490195e-15,108.8738)"
       cx="52.664207"
       cy="120.91513"
       fx="52.664207"
       fy="120.91513"
       r="56.915131" />
    <linearGradient
       inkscape:collect="always"
       xlink:href="#linearGradient5698"
       id="linearGradient5704"
       x1="10.457143"
       y1="-0.34598634"
       x2="10.457143"
       y2="41.919067"
       gradientUnits="userSpaceOnUse"
       gradientTransform="matrix(0.457143,0,0,0.441861,-9.999995e-2,0.395351)" />
  </defs>
  <sodipodi:namedview
     id="base"
     pagecolor="#ffffff"
     bordercolor="#666666"
     borderopacity="1.0"
     inkscape:pageopacity="0.0"
     inkscape:pageshadow="2"
     inkscape:zoom="1"
     inkscape:cx="11"
     inkscape:cy="11"
     inkscape:document-units="px"
     inkscape:current-layer="layer1"
     inkscape:window-width="843"
     inkscape:window-height="556"
     inkscape:window-x="0"
     inkscape:window-y="22"
     showgrid="false"
     width="22px"
     height="22px"
     inkscape:showpageshadow="false"
     showborder="false" />
  <metadata
     id="metadata7">
    <rdf:RDF>
      <cc:Work
         rdf:about="">
        <dc:format>image/svg+xml</dc:format>
        <dc:type
           rdf:resource="http://purl.org/dc/dcmitype/StillImage" />
      </cc:Work>
    </rdf:RDF>
  </metadata>
  <g
     inkscape:label="Layer 1"
     inkscape:groupmode="layer"
     id="layer1">
    <path
       style="fill:url(#linearGradient4812);fill-opacity:1;fill-rule:evenodd;stroke:none;stroke-width:0.25pt;stroke-linecap:butt;stroke-linejoin:miter;stroke-opacity:1"
       d="M 17.739984,22 L 22.027057,18.374618 L 8.9679734,18.054732 L 6,21.573484 L 17.739984,22 z "
       id="path5759"
       sodipodi:nodetypes="ccccc" />
    <path
       sodipodi:type="arc"
       style="color:black;fill:url(#radialGradient4821);fill-opacity:1;fill-rule:evenodd;stroke:none;stroke-width:3;stroke-linecap:round;stroke-linejoin:round;marker:none;marker-start:none;marker-mid:none;marker-end:none;stroke-miterlimit:4;stroke-dasharray:none;stroke-dashoffset:0;stroke-opacity:1;visibility:visible;display:inline;overflow:visible"
       id="path5023"
       sodipodi:cx="52.664207"
       sodipodi:cy="120.91513"
       sodipodi:rx="56.915131"
       sodipodi:ry="5.6678967"
       d="M 109.57934 120.91513 A 56.915131 5.6678967 0 1 1  -4.2509232,120.91513 A 56.915131 5.6678967 0 1 1  109.57934 120.91513 z"
       transform="matrix(0.163682,0,0,0.167057,0.6958,0.853419)" />
    <path
       style="color:black;fill:#86695f;fill-opacity:1;fill-rule:evenodd;stroke:#63504b;stroke-width:1.00000072;stroke-linecap:round;stroke-linejoin:round;marker:none;marker-start:none;marker-mid:none;marker-end:none;stroke-miterlimit:4;stroke-dasharray:none;stroke-dashoffset:0;stroke-opacity:1;visibility:visible;display:inline;overflow:visible"
       d="M 1.0998662,1.2363381 C 1.7527317,8.202829 -0.35335896,14.786771 0.91477934,20.672996 C 6.7129662,21.21313 12.45882,21.709409 18.154478,21.409336 C 17.388812,14.742917 18.992971,7.4064772 18.339565,0.50000071 C 12.641743,1.0401314 6.898594,1.7164554 1.0998662,1.2363381 z M 3.1155295,2.5334979 C 3.8356493,2.5334979 4.5587421,2.5334979 5.2788619,2.5334979 C 5.3830698,3.9283961 5.3739516,4.203977 5.2480475,5.2169441 C 4.5279279,5.2169441 3.8048351,5.2169441 3.0847154,5.2169441 C 3.1720763,4.1615394 3.2995004,3.7162123 3.1155295,2.5334979 z M 14.291717,1.7971595 C 15.011836,1.7971595 15.729778,1.7971595 16.449899,1.7971595 C 16.554105,3.1920577 16.544987,4.203977 16.419085,5.2169441 C 15.698964,5.2169441 14.981022,5.2169441 14.260904,5.2169441 C 14.348264,4.1615394 14.475688,2.979875 14.291717,1.7971595 z M 2.7670056,6.749951 C 3.4871252,6.749951 4.2050674,6.749951 4.9251872,6.749951 C 4.9149126,7.8902298 4.7140683,9.0294578 4.7037937,10.169736 C 3.9836741,10.169736 3.3017874,10.169736 2.5816678,10.169736 C 2.5919424,9.0294578 2.8326701,8.1024125 2.7670056,6.749951 z M 14.174979,6.749951 C 14.895098,6.749951 15.61304,6.749951 16.333161,6.749951 C 16.322887,7.8902298 16.116891,9.0294578 16.106616,10.169736 C 15.386496,10.169736 14.70461,10.169736 13.984489,10.169736 C 13.994764,9.0294578 14.240643,8.1024125 14.174979,6.749951 z M 2.5163466,11.702741 C 3.2364665,11.702741 3.9595593,11.702741 4.679679,11.702741 C 4.9025753,12.885455 4.463747,14.067122 4.648865,15.122525 C 3.9287453,15.122527 3.0511284,15.122525 2.3310089,15.122525 C 2.3412834,13.982248 2.6201721,13.140076 2.5163466,11.702741 z M 13.692534,11.702741 C 14.412654,11.702741 15.130598,11.702741 15.850716,11.702741 C 16.073614,12.885455 15.634783,14.067122 15.819902,15.122525 C 15.099783,15.122527 14.222166,15.122525 13.502046,15.122525 C 13.512319,13.982248 13.79636,13.140076 13.692534,11.702741 z M 4.5994009,16.610608 C 4.5891266,17.750885 4.7381819,18.929422 4.7279073,20.069702 C 4.0077877,20.069702 3.2846947,20.069702 2.564575,20.069702 C 2.5748495,18.929422 2.3893844,17.790193 2.3996589,16.649918 C 3.1197787,16.649918 3.8792814,16.610608 4.5994009,16.610608 z M 15.775588,16.610608 C 15.765315,17.750885 15.90922,18.929422 15.898943,20.069702 C 15.178824,20.069702 14.455731,20.069702 13.735612,20.069702 C 13.745885,18.929422 13.565572,17.790193 13.575846,16.649918 C 14.295966,16.649918 15.055469,16.610608 15.775588,16.610608 z "
       id="rect1306"
       sodipodi:nodetypes="ccccccccccccccccccccccccccccccccccccccccccccc" />
    <path
       style="color:black;fill:black;fill-opacity:0.42060086;fill-rule:evenodd;stroke:none;stroke-width:3;stroke-linecap:round;stroke-linejoin:round;marker:none;marker-start:none;marker-mid:none;marker-end:none;stroke-miterlimit:4;stroke-dashoffset:0;stroke-opacity:1;visibility:visible;display:inline;overflow:visible"
       d="M 6.5709189,1.9171602 C 8.6747031,2.1313872 10.994363,1.4470422 13,1.3613502 C 12.959937,7.9323002 12.345843,13.628586 12.555038,21.056447 C 10.367279,21.199263 8.1501425,20.719182 6.1548996,20.590645 C 5.6520806,13.619804 6.5308564,8.4881092 6.5709189,1.9171602 z "
       id="rect2796"
       sodipodi:nodetypes="ccccc" />
    <path
       style="color:black;fill:url(#linearGradient4817);fill-opacity:1;fill-rule:evenodd;stroke:none;stroke-width:3;stroke-linecap:round;stroke-linejoin:round;marker:none;marker-start:none;marker-mid:none;marker-end:none;stroke-miterlimit:4;stroke-dasharray:none;stroke-dashoffset:0;stroke-opacity:1;visibility:visible;display:inline;overflow:visible"
       d="M 2.3343094,1.6208642 C 2.5441401,7.3990742 2.29161,6.0987782 2,11.25317 C 2.3387972,10.830866 2.2616991,10.638026 2.654058,10.292938 C 2.5474628,10.293415 2.4582902,10.168772 2.3527368,10.168772 C 2.378725,9.1782362 2.6590212,7.6120752 2.6199553,6.5357712 C 3.2516625,6.5155902 4.3520017,6.4867382 4.9837086,6.4665572 C 4.9679527,7.2052852 4.8958201,8.2581292 4.8439445,8.9512882 C 7.8783366,7.2908502 11.497545,7.4102802 14.762903,9.1368782 C 14.820756,8.3969812 14.940332,7.2195012 14.913679,6.4852012 C 15.545385,6.4650202 16.698363,6.4947002 17.330069,6.4745202 C 17.305715,7.6164112 17.161516,9.4335442 17.147696,10.368583 C 17.058969,10.368583 16.967909,10.368235 16.878425,10.368583 C 17.329366,10.707125 17.377049,10.799761 17.785309,11.210444 C 17.960875,6.2019682 18.119632,6.5027622 17.873195,0.9027142 C 12.737508,1.4164312 7.5609595,2.0775012 2.3343094,1.6208642 z M 2.9050788,2.4155952 C 3.554154,2.4155952 4.6379869,2.3863292 5.2870622,2.3863292 C 5.3810065,3.7130112 5.3426571,4.5133492 5.2291875,5.4767782 C 4.5801122,5.4767782 3.445476,5.5060442 2.7964009,5.5060442 C 2.8751301,4.5022532 3.0709143,3.5404702 2.9050788,2.4155952 z M 14.997208,1.6604692 C 15.646283,1.6604692 16.778361,1.6604692 17.427436,1.6604692 C 17.521379,2.9871512 17.490624,4.4876342 17.377155,5.4510622 C 16.72808,5.4510622 15.631396,5.5131452 14.982321,5.5131452 C 15.061049,4.5093542 15.163043,2.7853452 14.997208,1.6604692 z "
       id="path3533"
       sodipodi:nodetypes="ccccccccccccccccccccccccc" />
    <path
       style="color:black;fill:none;fill-opacity:1;fill-rule:evenodd;stroke:url(#linearGradient5704);stroke-width:0.99999976;stroke-linecap:round;stroke-linejoin:round;marker:none;marker-start:none;marker-mid:none;marker-end:none;stroke-miterlimit:4;stroke-dasharray:none;stroke-dashoffset:0;stroke-opacity:1;visibility:visible;display:inline;overflow:visible"
       d="M 2.0332139,2.1662112 C 2.6135385,8.4692277 0.74145904,14.426129 1.8686924,19.751764 C 7.0226327,20.240456 12.130055,20.689469 17.19286,20.417975 C 16.512266,14.386453 17.938185,7.7487186 17.357379,1.4999997 C 12.292652,1.9886908 7.1876353,2.6006028 2.0332139,2.1662112 z "
       id="path4823"
       sodipodi:nodetypes="ccccc" />
  </g>
</svg>
