<?xml version="1.0" encoding="UTF-8" standalone="no"?>
<!-- Created with Inkscape (http://www.inkscape.org/) -->
<svg
   xmlns:dc="http://purl.org/dc/elements/1.1/"
   xmlns:cc="http://web.resource.org/cc/"
   xmlns:rdf="http://www.w3.org/1999/02/22-rdf-syntax-ns#"
   xmlns:svg="http://www.w3.org/2000/svg"
   xmlns="http://www.w3.org/2000/svg"
   xmlns:xlink="http://www.w3.org/1999/xlink"
   xmlns:sodipodi="http://inkscape.sourceforge.net/DTD/sodipodi-0.dtd"
   xmlns:inkscape="http://www.inkscape.org/namespaces/inkscape"
   inkscape:export-ydpi="90.000000"
   inkscape:export-xdpi="90.000000"
   inkscape:export-filename="/home/silvestre/cagaoderisa.png"
   sodipodi:docname="applications-games.svg"
   sodipodi:docbase="/home/silvestre/Neu/22x22/categories"
   inkscape:version="0.43+devel"
   sodipodi:version="0.32"
   id="svg2"
   height="22"
   width="22"
   version="1.0">
  <defs
     id="defs3">
    <linearGradient
       inkscape:collect="always"
       id="linearGradient4818">
      <stop
         style="stop-color:#3c3c3c;stop-opacity:1;"
         offset="0"
         id="stop4820" />
      <stop
         style="stop-color:#3c3c3c;stop-opacity:0;"
         offset="1"
         id="stop4822" />
    </linearGradient>
    <linearGradient
       inkscape:collect="always"
       id="linearGradient7476">
      <stop
         style="stop-color:white;stop-opacity:1"
         offset="0"
         id="stop7478" />
      <stop
         style="stop-color:#dbdbdb;stop-opacity:1"
         offset="1"
         id="stop7480" />
    </linearGradient>
    <linearGradient
       inkscape:collect="always"
       id="linearGradient7439">
      <stop
         style="stop-color:#934600;stop-opacity:1;"
         offset="0"
         id="stop7441" />
      <stop
         style="stop-color:white;stop-opacity:1"
         offset="1"
         id="stop7443" />
    </linearGradient>
    <linearGradient
       inkscape:collect="always"
       id="linearGradient6557">
      <stop
         style="stop-color:white;stop-opacity:1;"
         offset="0"
         id="stop6559" />
      <stop
         style="stop-color:white;stop-opacity:0.53725493"
         offset="1"
         id="stop6561" />
    </linearGradient>
    <linearGradient
       id="linearGradient5110">
      <stop
         id="stop5112"
         offset="0.0000000"
         style="stop-color:#ffd200;stop-opacity:1.0000000;" />
      <stop
         id="stop5114"
         offset="1.0000000"
         style="stop-color:#ff9200;stop-opacity:1.0000000;" />
    </linearGradient>
    <linearGradient
       id="linearGradient3586">
      <stop
         id="stop3588"
         offset="0.0000000"
         style="stop-color:#ffffff;stop-opacity:0.79166669;" />
      <stop
         id="stop3590"
         offset="1"
         style="stop-color:#ffffff;stop-opacity:0;" />
    </linearGradient>
    <linearGradient
       y2="1068.1261"
       x2="228.57143"
       y1="332.36215"
       x1="228.57143"
       gradientUnits="userSpaceOnUse"
       id="linearGradient5906"
       xlink:href="#linearGradient5110"
       inkscape:collect="always" />
    <linearGradient
       y2="629.50507"
       x2="410"
       y1="126.64789"
       x1="410"
       gradientUnits="userSpaceOnUse"
       id="linearGradient5908"
       xlink:href="#linearGradient3586"
       inkscape:collect="always" />
    <linearGradient
       inkscape:collect="always"
       xlink:href="#linearGradient6557"
       id="linearGradient6563"
       x1="240.95595"
       y1="72.72847"
       x2="433.50217"
       y2="828.98602"
       gradientUnits="userSpaceOnUse" />
    <linearGradient
       inkscape:collect="always"
       xlink:href="#linearGradient7439"
       id="linearGradient7445"
       x1="13.5"
       y1="20.875"
       x2="30.373842"
       y2="37.748844"
       gradientUnits="userSpaceOnUse"
       gradientTransform="matrix(0.457037,0,0,0.400544,3.111587e-2,0.814718)" />
    <radialGradient
       inkscape:collect="always"
       xlink:href="#linearGradient7476"
       id="radialGradient7482"
       cx="21.488716"
       cy="26.207605"
       fx="21.488716"
       fy="26.207605"
       r="15.006065"
       gradientTransform="matrix(0.445845,0,0,0.29667,0.471938,4.001538)"
       gradientUnits="userSpaceOnUse" />
    <radialGradient
       inkscape:collect="always"
       xlink:href="#linearGradient4818"
       id="radialGradient4824"
       cx="24.130018"
       cy="40.575378"
       fx="24.130018"
       fy="40.575378"
       r="24.130018"
       gradientTransform="matrix(1,0,0,0.32967,-4.674473e-17,27.19888)"
       gradientUnits="userSpaceOnUse" />
  </defs>
  <sodipodi:namedview
     inkscape:window-y="91"
     inkscape:window-x="107"
     inkscape:window-height="556"
     inkscape:window-width="843"
     inkscape:current-layer="layer1"
     inkscape:document-units="px"
     inkscape:cy="11"
     inkscape:cx="11"
     inkscape:zoom="1"
     inkscape:pageshadow="2"
     inkscape:pageopacity="0.0"
     borderopacity="1.0"
     bordercolor="#666666"
     pagecolor="#ffffff"
     id="base"
     showgrid="false"
     inkscape:showpageshadow="false"
     width="22px"
     height="22px"
     showborder="false" />
  <metadata
     id="metadata4">
    <rdf:RDF>
      <cc:Work
         rdf:about="">
        <dc:format>image/svg+xml</dc:format>
        <dc:type
           rdf:resource="http://purl.org/dc/dcmitype/StillImage" />
      </cc:Work>
    </rdf:RDF>
  </metadata>
  <g
     id="layer1"
     inkscape:groupmode="layer"
     inkscape:label="Layer 1">
    <path
       sodipodi:type="arc"
       style="opacity:0.6;fill:url(#radialGradient4824);fill-opacity:1;stroke:none;stroke-width:1;stroke-linecap:round;stroke-linejoin:round;stroke-miterlimit:4;stroke-dasharray:none;stroke-dashoffset:0;stroke-opacity:1"
       id="path3943"
       sodipodi:cx="24.130018"
       sodipodi:cy="40.575378"
       sodipodi:rx="24.130018"
       sodipodi:ry="7.9549513"
       d="M 48.260036 40.575378 A 24.130018 7.9549513 0 1 1  0,40.575378 A 24.130018 7.9549513 0 1 1  48.260036 40.575378 z"
       transform="matrix(0.455864,0,0,0.439978,8.660804e-7,0.647723)" />
    <path
       transform="matrix(2.136628e-2,0,0,2.317881e-2,4.101744,-1.442192)"
       d="M 814.28571 515.2193 A 491.42856 431.42856 0 1 1  -168.57141,515.2193 A 491.42856 431.42856 0 1 1  814.28571 515.2193 z"
       sodipodi:ry="431.42856"
       sodipodi:rx="491.42856"
       sodipodi:cy="515.2193"
       sodipodi:cx="322.85715"
       id="path1306"
       style="fill:url(#linearGradient5906);fill-opacity:1;stroke:#e28a00;stroke-width:44.93553162;stroke-linecap:round;stroke-linejoin:round;stroke-miterlimit:4;stroke-dasharray:none;stroke-opacity:1"
       sodipodi:type="arc" />
    <path
       style="fill:url(#radialGradient7482);fill-opacity:1;fill-rule:evenodd;stroke:none;stroke-width:0.00905441pt;stroke-linecap:butt;stroke-linejoin:miter;stroke-opacity:1"
       d="M 4.3096173,9.4530704 C 5.1567163,12.452454 6.1937869,14.420376 8.529972,16.611592 C 9.7249137,17.165828 11.30644,18.195329 12.687247,17.792499 C 14.705515,17.286248 16.097475,15.622148 16.695774,13.882774 C 17.678377,12.346024 17.520296,11.172 17.690379,9.8146944 C 17.567629,9.0930034 16.602999,8.9048716 15.92193,9.0048674 C 13.752064,9.0895074 11.579022,9.0338034 9.407832,9.0623464 C 8.2641895,9.0870304 7.1146688,9.0370754 5.9753121,9.1282274 C 5.413114,9.2063164 4.8685282,9.3602184 4.3096173,9.4530704 z "
       id="path2066"
       sodipodi:nodetypes="ccccccccc" />
    <path
       d="M 6.0157536,9.0029344 C 7.8391603,9.0415084 9.6638024,9.0496544 11.487829,9.0497834 C 12.497036,9.1795904 17.947951,8.6191506 18.136405,9.4271114 C 18.098121,11.593019 17.339608,13.786902 15.955252,15.620573 C 14.072189,17.902218 11.002875,18.69883 8.3327815,16.885005 C 5.8909954,14.940316 4.6122891,12.197865 3.8635919,9.5116874 L 4.4041036,9.2731854 C 4.923656,12.001799 6.2903393,14.750297 8.7516118,16.667535 C 11.158881,18.216004 13.776419,17.923901 15.469743,15.797349 C 16.851321,14.01082 17.664932,11.808752 17.576309,9.6744944 C 17.282688,8.8904366 12.105892,9.4072514 11.096306,9.2849154 C 9.2202556,9.2850494 7.3436965,9.2943014 5.4682102,9.3317644 L 6.0157536,9.0029344 z "
       id="path1288"
       style="fill:url(#linearGradient7445);fill-opacity:1;fill-rule:nonzero;stroke:none;stroke-width:0.77097672;stroke-linecap:round;stroke-linejoin:round;stroke-miterlimit:4;stroke-dasharray:none;stroke-opacity:1" />
    <path
       style="fill:white;fill-opacity:1;fill-rule:nonzero;stroke:none;stroke-width:1pt;stroke-linecap:butt;stroke-linejoin:miter;stroke-opacity:1"
       d="M 8.9092541,9.7173354 L 8.3099075,10.016099 C 8.4169599,11.215762 8.4767875,12.410858 8.4911053,13.614834 C 7.7905551,13.291912 7.1226504,12.916589 6.4700528,12.501263 L 5.9264593,13.137276 C 6.7692332,13.566238 7.6060157,14.02437 8.4911053,14.373068 C 8.4924416,14.782378 8.4975018,14.943818 8.4911053,15.353091 C 8.4881473,15.479654 8.4801255,15.606771 8.477167,15.733335 L 8.9789456,15.475312 C 8.9750616,15.352123 8.9828292,15.231832 8.9789456,15.108649 C 8.9717989,14.836709 8.9709011,14.821694 8.9650073,14.54961 C 9.1332766,14.606299 9.307417,14.65249 9.4807242,14.698992 C 10.680642,15.026733 11.871131,15.193535 13.062866,15.187876 C 13.014348,15.455453 12.963501,15.467099 12.909545,15.733335 C 12.853237,16.00539 12.796054,16.275601 12.742285,16.548142 L 13.713763,16.29012 C 13.750467,16.024942 13.780731,15.752948 13.82527,15.488892 C 13.856301,15.298128 13.89302,15.365244 13.922838,15.174296 C 15.049173,15.127584 15.442729,15.006243 16.552632,14.628308 L 16.928966,14.087356 C 15.709228,14.509871 15.206509,14.640751 13.964653,14.660504 C 14.204913,13.084827 14.385813,11.502986 14.39674,9.9074576 L 13.397385,10.192641 C 13.517236,11.683327 13.357706,13.177042 13.104681,14.646924 C 12.038257,14.623336 10.969075,14.466079 9.8988729,14.158039 C 9.5746589,14.061464 9.2596495,13.95843 8.951069,13.832116 C 8.9247946,12.462248 8.9112184,11.085779 8.9092541,9.7173354 z "
       id="path1298"
       sodipodi:nodetypes="ccccccsccscscsccscccccccccc" />
    <path
       transform="matrix(1.93314e-2,0,0,2.086093e-2,4.758721,-0.247975)"
       d="M 814.28571 515.2193 A 491.42856 431.42856 0 1 1  -168.57141,515.2193 A 491.42856 431.42856 0 1 1  814.28571 515.2193 z"
       sodipodi:ry="431.42856"
       sodipodi:rx="491.42856"
       sodipodi:cy="515.2193"
       sodipodi:cx="322.85715"
       id="path5682"
       style="fill:none;fill-opacity:1;stroke:url(#linearGradient6563);stroke-width:49.79681015;stroke-linecap:round;stroke-linejoin:round;stroke-miterlimit:4;stroke-dasharray:none;stroke-opacity:1"
       sodipodi:type="arc" />
    <path
       d="M 12.930491,3.4326703 C 14.365622,3.6063144 15.727721,4.1420475 17.05994,4.6462068 C 18.643424,5.343054 20.317691,6.1038268 21.567312,7.2799988 L 21.058651,7.5672899 C 19.911921,6.3260899 18.2249,5.5742337 16.667506,4.8902674 C 15.31816,4.3799444 13.903361,3.8380292 12.43269,3.7688553 L 12.930491,3.4326703 z "
       id="path1294"
       style="fill:#963900;fill-opacity:1;fill-rule:nonzero;stroke:#963900;stroke-width:0.86538255;stroke-linecap:round;stroke-linejoin:round;stroke-miterlimit:4;stroke-dasharray:none;stroke-opacity:1" />
    <path
       d="M 7.7586743,4.1288075 C 6.4177372,4.359734 5.143278,4.9432236 3.8661464,5.431429 C 2.3663767,6.0814467 2.1870963,6.0536172 1.2817505,7.0356103 L 0.70017221,7.299808 C 1.7000481,6.2275857 2.981754,5.5587919 4.29803,5.0644021 C 5.6131161,4.5599001 6.9218244,3.9583452 8.2998269,3.7001495 L 7.7586743,4.1288075 z "
       id="path1292"
       style="fill:#963900;fill-opacity:1;fill-rule:nonzero;stroke:#963900;stroke-width:1.40034425;stroke-linecap:round;stroke-linejoin:round;stroke-miterlimit:4;stroke-dasharray:none;stroke-opacity:1" />
    <path
       transform="matrix(2.178988e-2,0,0,2.227908e-2,2.066149,-1.821621)"
       d="M 777.14285 385.21933 A 367.14285 258.57144 0 1 1  42.857147,385.21933 A 367.14285 258.57144 0 1 1  777.14285 385.21933 z"
       sodipodi:ry="258.57144"
       sodipodi:rx="367.14285"
       sodipodi:cy="385.21933"
       sodipodi:cx="410"
       id="path2826"
       style="fill:url(#linearGradient5908);fill-opacity:1;stroke:none;stroke-width:3.0999999;stroke-linecap:round;stroke-linejoin:round;stroke-miterlimit:4;stroke-dasharray:none;stroke-opacity:1"
       sodipodi:type="arc" />
    <path
       style="fill:#3c3c3c;fill-opacity:1;fill-rule:nonzero;stroke:none;stroke-width:1pt;stroke-linecap:butt;stroke-linejoin:miter;stroke-opacity:1"
       d="M 8.9092541,9.4251824 L 8.3099075,9.7312474 C 8.4169599,10.960231 8.4767875,12.007463 8.4911053,13.240864 C 7.7905551,12.91005 7.1226504,12.525555 6.4700528,12.100078 L 5.9264593,12.666686 C 6.7692332,13.106132 7.6060157,13.575461 8.4911053,13.932681 C 8.4924416,14.351994 8.4975018,14.7794 8.4911053,15.198676 C 8.4881473,15.328332 8.4801255,15.458555 8.477167,15.588212 L 8.9789456,15.323884 C 8.9750616,15.197684 8.9828292,15.074453 8.9789456,14.948259 C 8.9717989,14.669673 8.9709011,14.392272 8.9650073,14.113537 C 9.1332766,14.171612 9.307417,14.218932 9.4807242,14.26657 C 10.680642,14.602321 11.871131,14.7732 13.062866,14.767403 C 13.014348,15.041519 12.963501,15.315469 12.909545,15.588212 C 12.853237,15.866917 12.796054,15.946986 12.742285,16.226188 L 13.299817,15.96186 C 13.336521,15.6902 13.366784,15.608305 13.411323,15.337796 C 13.442355,15.14237 13.479074,14.949106 13.508891,14.753491 C 14.635227,14.705636 15.758117,14.500709 16.86802,14.113537 L 17.244354,13.644313 C 16.024615,14.077155 14.792563,14.291855 13.550706,14.312091 C 13.790967,12.697904 13.971867,11.254474 13.982793,9.6199514 L 13.397385,9.9121036 C 13.517236,11.439224 13.357706,12.792373 13.104681,14.298179 C 12.038257,14.274014 10.969075,14.112914 9.8988729,13.797346 C 9.5746589,13.69841 9.2596495,13.592857 8.951069,13.463457 C 8.9247946,12.06011 8.9112184,10.827071 8.9092541,9.4251824 z "
       id="path4815"
       sodipodi:nodetypes="ccccccsccscscsccscccccccccc" />
  </g>
</svg>
