<?xml version="1.0" encoding="UTF-8" standalone="no"?>
<!-- Created with Inkscape (http://www.inkscape.org/) -->
<svg
   xmlns:dc="http://purl.org/dc/elements/1.1/"
   xmlns:cc="http://web.resource.org/cc/"
   xmlns:rdf="http://www.w3.org/1999/02/22-rdf-syntax-ns#"
   xmlns:svg="http://www.w3.org/2000/svg"
   xmlns="http://www.w3.org/2000/svg"
   xmlns:xlink="http://www.w3.org/1999/xlink"
   xmlns:sodipodi="http://inkscape.sourceforge.net/DTD/sodipodi-0.dtd"
   xmlns:inkscape="http://www.inkscape.org/namespaces/inkscape"
   width="22"
   height="22"
   id="svg2"
   sodipodi:version="0.32"
   inkscape:version="0.43+devel"
   sodipodi:docbase="/home/silvestre/Neu/22x22/devices"
   sodipodi:docname="media-cdrom.svg"
   version="1.0">
  <defs
     id="defs4">
    <linearGradient
       id="linearGradient5974"
       inkscape:collect="always">
      <stop
         id="stop5976"
         offset="0"
         style="stop-color:#5a72a4;stop-opacity:0.627451" />
      <stop
         id="stop5978"
         offset="1"
         style="stop-color:#5a72a4;stop-opacity:0" />
    </linearGradient>
    <linearGradient
       id="linearGradient5968"
       inkscape:collect="always">
      <stop
         id="stop5970"
         offset="0"
         style="stop-color:#6981b3;stop-opacity:1" />
      <stop
         id="stop5972"
         offset="1"
         style="stop-color:#8196bf;stop-opacity:1" />
    </linearGradient>
    <linearGradient
       inkscape:collect="always"
       id="linearGradient4836">
      <stop
         style="stop-color:white;stop-opacity:1;"
         offset="0"
         id="stop4838" />
      <stop
         style="stop-color:white;stop-opacity:0.58823532"
         offset="1"
         id="stop4840" />
    </linearGradient>
    <linearGradient
       id="linearGradient8655">
      <stop
         style="stop-color:#000000;stop-opacity:0.30208334;"
         offset="0.0000000"
         id="stop8657" />
      <stop
         style="stop-color:#000000;stop-opacity:0;"
         offset="1"
         id="stop8659" />
    </linearGradient>
    <linearGradient
       id="linearGradient7917">
      <stop
         style="stop-color:#000000;stop-opacity:0.16666669;"
         offset="0.0000000"
         id="stop7919" />
      <stop
         style="stop-color:#000000;stop-opacity:0;"
         offset="1"
         id="stop7921" />
    </linearGradient>
    <linearGradient
       id="linearGradient6455">
      <stop
         style="stop-color:#e3e6ff;stop-opacity:1"
         offset="0"
         id="stop6457" />
      <stop
         style="stop-color:#b5c6e7;stop-opacity:1"
         offset="1"
         id="stop6459" />
    </linearGradient>
    <linearGradient
       id="linearGradient5703">
      <stop
         id="stop5705"
         offset="0.0000000"
         style="stop-color:#ffffff;stop-opacity:0.83333325;" />
      <stop
         id="stop5707"
         offset="1"
         style="stop-color:#ffffff;stop-opacity:0.0000000" />
    </linearGradient>
    <linearGradient
       id="linearGradient5691">
      <stop
         style="stop-color:#ffffff;stop-opacity:0.83333325;"
         offset="0.0000000"
         id="stop5693" />
      <stop
         style="stop-color:#ffffff;stop-opacity:0.0000000"
         offset="1"
         id="stop5695" />
    </linearGradient>
    <linearGradient
       inkscape:collect="always"
       xlink:href="#linearGradient5691"
       id="linearGradient5697"
       x1="31.114616"
       y1="33.89996"
       x2="48.388142"
       y2="61.223637"
       gradientUnits="userSpaceOnUse"
       gradientTransform="matrix(0.187852,0,0,0.194597,-0.249159,-1.257391)" />
    <linearGradient
       inkscape:collect="always"
       xlink:href="#linearGradient5703"
       id="linearGradient5723"
       gradientUnits="userSpaceOnUse"
       x1="59.902058"
       y1="95.622185"
       x2="33.750458"
       y2="78.300934"
       gradientTransform="matrix(0.197024,0,0,0.187438,-0.53412,-1.115955)" />
    <linearGradient
       inkscape:collect="always"
       xlink:href="#linearGradient6455"
       id="linearGradient6461"
       x1="21.100939"
       y1="33.477123"
       x2="54.294334"
       y2="75.682442"
       gradientUnits="userSpaceOnUse"
       gradientTransform="matrix(0.229416,0,0,0.213131,-0.65296,-2.7902)" />
    <radialGradient
       inkscape:collect="always"
       xlink:href="#linearGradient7917"
       id="radialGradient7923"
       cx="51.231888"
       cy="110.19082"
       fx="51.231888"
       fy="110.19082"
       r="48.06039"
       gradientTransform="matrix(1,0,0,0.228426,3.823982e-16,85.02033)"
       gradientUnits="userSpaceOnUse" />
    <linearGradient
       inkscape:collect="always"
       xlink:href="#linearGradient8655"
       id="linearGradient8661"
       x1="59.867424"
       y1="177.41431"
       x2="86.77282"
       y2="84.96209"
       gradientUnits="userSpaceOnUse"
       gradientTransform="matrix(0.170693,0,0,0.20942,1.210666,-2.911821)" />
    <linearGradient
       inkscape:collect="always"
       xlink:href="#linearGradient5974"
       id="linearGradient4834"
       x1="100.05664"
       y1="65.067497"
       x2="24.326601"
       y2="65.067497"
       gradientUnits="userSpaceOnUse"
       gradientTransform="matrix(0.223195,0,0,0.204583,-0.689763,-2.237213)" />
    <linearGradient
       inkscape:collect="always"
       xlink:href="#linearGradient4836"
       id="linearGradient4842"
       x1="38.183765"
       y1="21.226875"
       x2="59.657269"
       y2="101.36707"
       gradientUnits="userSpaceOnUse"
       gradientTransform="matrix(0.220132,0,0,0.206635,-0.651097,-2.473192)" />
    <linearGradient
       inkscape:collect="always"
       xlink:href="#linearGradient5968"
       id="linearGradient5724"
       x1="99.25"
       y1="65.5"
       x2="43.49057"
       y2="65.5"
       gradientUnits="userSpaceOnUse"
       gradientTransform="matrix(0.229416,0,0,0.213131,-1.111792,-2.7902)" />
    <linearGradient
       inkscape:collect="always"
       xlink:href="#linearGradient5691"
       id="linearGradient5701"
       gradientUnits="userSpaceOnUse"
       gradientTransform="matrix(0.197024,0,0,0.197851,-0.534119,-1.289064)"
       x1="31.114616"
       y1="33.89996"
       x2="48.388142"
       y2="61.223637" />
  </defs>
  <sodipodi:namedview
     id="base"
     pagecolor="#ffffff"
     bordercolor="#666666"
     borderopacity="1.0"
     inkscape:pageopacity="0.0"
     inkscape:pageshadow="2"
     inkscape:zoom="1"
     inkscape:cx="11"
     inkscape:cy="11"
     inkscape:document-units="px"
     inkscape:current-layer="layer1"
     showguides="true"
     inkscape:guide-bbox="true"
     inkscape:window-width="843"
     inkscape:window-height="556"
     inkscape:window-x="49"
     inkscape:window-y="143"
     showborder="false"
     width="22px"
     height="22px"
     inkscape:showpageshadow="false"
     showgrid="false" />
  <metadata
     id="metadata7">
    <rdf:RDF>
      <cc:Work
         rdf:about="">
        <dc:format>image/svg+xml</dc:format>
        <dc:type
           rdf:resource="http://purl.org/dc/dcmitype/StillImage" />
      </cc:Work>
    </rdf:RDF>
  </metadata>
  <g
     inkscape:label="Layer 1"
     inkscape:groupmode="layer"
     id="layer1">
    <path
       sodipodi:nodetypes="csssccsssc"
       style="opacity:1;color:black;fill:url(#linearGradient8661);fill-opacity:1;fill-rule:evenodd;stroke:none;stroke-width:1.66170299;stroke-linecap:round;stroke-linejoin:round;marker:none;marker-start:none;marker-mid:none;marker-end:none;stroke-miterlimit:4;stroke-dasharray:none;stroke-dashoffset:0;stroke-opacity:1;visibility:visible;display:inline;overflow:visible"
       d="M 16.498789,14.883533 C 12.193422,14.813847 7.234085,16.150951 5.4274735,17.868509 C 3.6208618,19.586067 5.6467178,21.037842 9.9520847,21.107523 C 14.257451,21.17721 19.218455,19.838523 21.025066,18.120965 C 22.831678,16.403407 20.804156,14.953219 16.498789,14.883533 z M 12.964847,17.583111 C 13.521156,17.592112 13.785026,17.778072 13.551588,18.000001 C 13.318151,18.221934 12.676796,18.39485 12.120487,18.385849 C 11.564177,18.376843 11.301974,18.1893 11.535412,17.967372 C 11.768849,17.745438 12.408538,17.574105 12.964847,17.583111 z "
       id="path7925" />
    <path
       sodipodi:type="arc"
       style="opacity:1;color:black;fill:url(#radialGradient7923);fill-opacity:1;fill-rule:evenodd;stroke:none;stroke-width:3;stroke-linecap:round;stroke-linejoin:round;marker:none;marker-start:none;marker-mid:none;marker-end:none;stroke-miterlimit:4;stroke-dasharray:none;stroke-dashoffset:0;stroke-opacity:0.78400005;visibility:visible;display:inline;overflow:visible"
       id="path7189"
       sodipodi:cx="51.231888"
       sodipodi:cy="110.19082"
       sodipodi:rx="48.06039"
       sodipodi:ry="10.978262"
       d="M 99.292278 110.19082 A 48.06039 10.978262 0 1 1  3.1714973,110.19082 A 48.06039 10.978262 0 1 1  99.292278 110.19082 z"
       transform="matrix(0.185279,0,0,0.202647,-0.273091,-2.554551)" />
    <path
       style="opacity:1;color:black;fill:url(#linearGradient6461);fill-opacity:1;fill-rule:evenodd;stroke:url(#linearGradient5724);stroke-width:0.99999964;stroke-linecap:round;stroke-linejoin:round;marker:none;marker-start:none;marker-mid:none;marker-end:none;stroke-miterlimit:4;stroke-dasharray:none;stroke-dashoffset:0;stroke-opacity:1;visibility:visible;display:inline;overflow:visible"
       d="M 11.018568,0.50000004 C 5.2320209,0.50000004 0.53713373,5.2023104 0.53713373,10.996673 C 0.53713373,16.791035 5.2320213,21.500006 11.018568,21.500006 C 16.805112,21.500006 21.5,16.79104 21.5,10.996673 C 21.5,5.2023093 16.805112,0.50000004 11.018568,0.50000004 z M 10.108073,7.333495 C 12.131675,7.333495 13.778726,8.9855047 13.778726,11.023314 C 13.778728,13.061126 12.131675,14.713133 10.108073,14.713133 C 8.0844724,14.713133 6.4445904,13.061126 6.4445904,11.023314 C 6.4445899,8.9855047 8.0844729,7.333495 10.108073,7.333495 z "
       id="path1308" />
    <path
       style="fill:url(#linearGradient5701);fill-opacity:1;fill-rule:evenodd;stroke:none;stroke-width:0.25pt;stroke-linecap:butt;stroke-linejoin:miter;stroke-opacity:1"
       d="M 9.551052,2.0001991 C 9.1680645,1.9971642 8.7712338,2.0288522 8.368907,2.0929411 C 8.4836863,4.8692122 8.59892,7.6449251 8.7136994,10.421196 C 8.9443069,10.426075 9.1491776,10.522473 9.3170857,10.668508 C 11.211173,8.5024592 13.105913,6.3364178 15,4.1703684 C 14.37073,3.5208953 12.231963,2.0214364 9.551052,2.0001991 z M 7.9502307,12.232762 C 6.300849,14.11897 4.6493819,16.00383 3,17.890038 C 4.9544766,19.987225 6.9079733,20.930062 9.1508466,21 C 9.0347878,18.192777 8.9159561,15.386218 8.7998972,12.579001 C 8.7637054,12.583271 8.7324612,12.603729 8.6952285,12.603729 C 8.3952159,12.603729 8.135168,12.45869 7.9502307,12.232762 z "
       id="path4955" />
    <path
       style="fill:url(#linearGradient5723);fill-opacity:1;fill-rule:evenodd;stroke:none;stroke-width:0.25pt;stroke-linecap:butt;stroke-linejoin:miter;stroke-opacity:1"
       d="M 9.551052,2.0001886 C 9.168065,1.9973143 8.771234,2.0273337 8.368907,2.08805 C 8.483687,4.7182012 8.598921,7.3478245 8.7137,9.977976 C 8.944307,9.9825985 9.149178,10.073922 9.317086,10.212271 C 11.211173,8.1602247 13.105913,6.1081857 15,4.0561375 C 14.370731,3.4408485 12.231963,2.0203076 9.551052,2.0001886 z M 7.950231,11.694193 C 6.300849,13.481129 4.649383,15.26679 3,17.053721 C 4.954476,19.040531 6.907973,19.933741 9.150847,20 C 9.034788,17.340529 8.915956,14.681684 8.799898,12.022213 C 8.763706,12.02626 8.732461,12.04564 8.695229,12.04564 C 8.395216,12.04564 8.135168,11.908236 7.950231,11.694193 z "
       id="path5701" />
    <path
       sodipodi:nodetypes="csssccsssc"
       style="opacity:1;color:black;fill:#f2f2f2;fill-opacity:0.41199999;fill-rule:evenodd;stroke:#e3e3e3;stroke-width:0.53548676;stroke-linecap:round;stroke-linejoin:round;marker:none;marker-start:none;marker-mid:none;marker-end:none;stroke-miterlimit:4;stroke-dasharray:none;stroke-dashoffset:0;stroke-opacity:0.64800002;visibility:visible;display:inline;overflow:visible"
       d="M 9.9970866,7.2677409 C 7.9373777,7.2677409 6.2677443,8.9373754 6.2677443,10.997085 C 6.2677443,13.056797 7.9373777,14.732255 9.9970866,14.732255 C 12.056794,14.732255 13.732255,13.056797 13.732256,10.997085 C 13.732256,8.9373754 12.056794,7.2677409 9.9970866,7.2677409 z M 9.9970866,9.3888055 C 10.884889,9.3888055 11.605365,10.109283 11.605365,10.997085 C 11.605365,11.884888 10.884889,12.605367 9.9970866,12.605367 C 9.1092847,12.605367 8.3888075,11.884888 8.3888075,10.997085 C 8.388807,10.109283 9.1092854,9.3888055 9.9970866,9.3888055 z "
       id="path2055" />
    <path
       style="opacity:1;color:black;fill:none;fill-opacity:1;fill-rule:evenodd;stroke:url(#linearGradient4834);stroke-width:1.00000036;stroke-linecap:round;stroke-linejoin:round;marker:none;marker-start:none;marker-mid:none;marker-end:none;stroke-miterlimit:4;stroke-dasharray:none;stroke-dashoffset:0;stroke-opacity:1;visibility:visible;display:inline;overflow:visible"
       d="M 11.000006,1.5000003 C 5.7552816,1.5000003 1.5,5.7544691 1.5,10.996986 C 1.5,16.239501 5.7552821,20.499998 11.000006,20.499998 C 16.244728,20.499998 20.50001,16.239501 20.50001,10.996986 C 20.500011,5.7544691 16.244729,1.5000003 11.000006,1.5000003 z "
       id="path4818"
       sodipodi:nodetypes="csssc" />
    <path
       style="opacity:1;color:black;fill:none;fill-opacity:1;fill-rule:evenodd;stroke:url(#linearGradient4842);stroke-width:1.00000024;stroke-linecap:round;stroke-linejoin:round;marker:none;marker-start:none;marker-mid:none;marker-end:none;stroke-miterlimit:4;stroke-dasharray:none;stroke-dashoffset:0;stroke-opacity:1;visibility:visible;display:inline;overflow:visible"
       d="M 10.5,1.5000012 C 5.5313173,1.5000012 1.5000007,5.7544714 1.5000007,10.996991 C 1.5000007,16.239509 5.5313173,20.500008 10.5,20.500008 C 15.468681,20.500008 19.499998,16.239509 19.499998,10.996991 C 19.499999,5.7544714 15.468681,1.5000012 10.5,1.5000012 z "
       id="path3330"
       sodipodi:nodetypes="csssc" />
  </g>
</svg>
