<?xml version="1.0" encoding="UTF-8" standalone="no"?>
<!-- Created with Inkscape (http://www.inkscape.org/) -->
<svg
   xmlns:dc="http://purl.org/dc/elements/1.1/"
   xmlns:cc="http://web.resource.org/cc/"
   xmlns:rdf="http://www.w3.org/1999/02/22-rdf-syntax-ns#"
   xmlns:svg="http://www.w3.org/2000/svg"
   xmlns="http://www.w3.org/2000/svg"
   xmlns:xlink="http://www.w3.org/1999/xlink"
   xmlns:sodipodi="http://inkscape.sourceforge.net/DTD/sodipodi-0.dtd"
   xmlns:inkscape="http://www.inkscape.org/namespaces/inkscape"
   width="22"
   height="22"
   id="svg14"
   sodipodi:version="0.32"
   inkscape:version="0.43+devel"
   sodipodi:docbase="/home/silvestre/Neu/22x22/categories"
   sodipodi:docname="applications-system.svg"
   version="1.0">
  <defs
     id="defs3">
    <linearGradient
       inkscape:collect="always"
       id="linearGradient6647">
      <stop
         style="stop-color:white;stop-opacity:1;"
         offset="0"
         id="stop6649" />
      <stop
         style="stop-color:white;stop-opacity:0.45064378"
         offset="1"
         id="stop6651" />
    </linearGradient>
    <linearGradient
       id="linearGradient4234">
      <stop
         id="stop4236"
         offset="0"
         style="stop-color:#c1e3ff;stop-opacity:1;" />
      <stop
         id="stop4238"
         offset="1"
         style="stop-color:#56ace5;stop-opacity:1;" />
    </linearGradient>
    <linearGradient
       id="linearGradient2049"
       inkscape:collect="always">
      <stop
         id="stop2051"
         offset="0"
         style="stop-color:white;stop-opacity:0.527897" />
      <stop
         id="stop2053"
         offset="1"
         style="stop-color:#ffffff;stop-opacity:0;" />
    </linearGradient>
    <linearGradient
       inkscape:collect="always"
       xlink:href="#linearGradient2049"
       id="linearGradient4018"
       gradientUnits="userSpaceOnUse"
       x1="72.151817"
       y1="38.213421"
       x2="72.151817"
       y2="77.304459"
       gradientTransform="matrix(0.223409,0,0,0.212077,-6.71294,-5.95214)" />
    <linearGradient
       inkscape:collect="always"
       xlink:href="#linearGradient4234"
       id="linearGradient4021"
       gradientUnits="userSpaceOnUse"
       x1="34.81287"
       y1="16.950554"
       x2="34.81287"
       y2="50.46096"
       gradientTransform="matrix(0.285542,0,0,0.283212,-0.938997,-1.255236)" />
    <linearGradient
       inkscape:collect="always"
       xlink:href="#linearGradient6647"
       id="linearGradient6653"
       x1="38.311138"
       y1="29.974993"
       x2="26.017185"
       y2="26.680838"
       gradientUnits="userSpaceOnUse"
       gradientTransform="matrix(0.598736,0,0,0.585904,-7.5385,-6.565999)" />
  </defs>
  <sodipodi:namedview
     id="base"
     pagecolor="#ffffff"
     bordercolor="#666666"
     borderopacity="1.0"
     inkscape:pageopacity="0.0"
     inkscape:pageshadow="2"
     inkscape:zoom="1"
     inkscape:cx="11"
     inkscape:cy="11"
     inkscape:document-units="px"
     inkscape:current-layer="layer1"
     inkscape:window-width="843"
     inkscape:window-height="556"
     inkscape:window-x="143"
     inkscape:window-y="107"
     inkscape:showpageshadow="false"
     width="22px"
     height="22px"
     showgrid="false"
     showborder="false"
     showguides="true"
     inkscape:guide-bbox="true" />
  <metadata
     id="metadata4">
    <rdf:RDF>
      <cc:Work
         rdf:about="">
        <dc:format>image/svg+xml</dc:format>
        <dc:type
           rdf:resource="http://purl.org/dc/dcmitype/StillImage" />
      </cc:Work>
    </rdf:RDF>
  </metadata>
  <g
     inkscape:label="Layer 1"
     inkscape:groupmode="layer"
     id="layer1">
    <path
       style="color:black;fill:#2f82b8;fill-opacity:1;fill-rule:evenodd;stroke:#005188;stroke-width:1.02248359;stroke-linecap:round;stroke-linejoin:round;marker:none;marker-start:none;marker-mid:none;marker-end:none;stroke-miterlimit:4;stroke-dasharray:none;stroke-dashoffset:0;stroke-opacity:1;visibility:visible;display:inline;overflow:visible"
       d="M 12.792979,0.51124185 L 10.425545,3.0974908 L 8.6170563,2.0319938 L 9.2418269,2.5020318 L 7.5117783,1.2044628 L 5.0988162,2.6708928 L 5.4357195,6.6258108 L 1.9938342,7.4878938 L 1.5112411,10.100807 L 4.4796409,12.269346 L 2.3125272,15.415505 L 4.1245256,17.726244 L 4.1397714,17.715083 L 6.073107,18.8905 L 8.1673763,18.108405 L 8.9868728,20.054758 L 9.0167315,20.046903 L 10.944559,21.219014 L 14.286286,21.503412 L 15.506424,17.779569 L 18.957416,18.677202 L 20.559989,16.179826 L 18.720674,12.784818 L 21.488751,10.322993 L 20.751204,7.3545828 L 18.800268,6.1703838 L 18.802623,6.1903258 L 17.254684,5.9681398 L 17.272896,2.8753048 L 15.315209,1.7176378 L 15.315209,1.7110488 L 12.792979,0.51124185 z M 12.483392,8.5899388 C 12.538616,8.5899388 12.583778,8.6218288 12.638187,8.6254898 C 13.003401,9.1489308 13.257362,9.7850028 13.257362,10.500742 C 13.25736,12.194752 12.032152,13.566916 10.525706,13.566916 C 10.467401,13.566916 10.419222,13.535415 10.361807,13.531365 C 9.994962,13.009756 9.7426307,12.380738 9.7426307,11.664999 C 9.7426318,9.9709888 10.976943,8.5899388 12.483392,8.5899388 z "
       id="path2041"
       sodipodi:nodetypes="ccccccccccccccccccccccccccccccccccsscsc" />
    <path
       style="color:black;fill:url(#linearGradient4021);fill-opacity:1;fill-rule:evenodd;stroke:none;stroke-width:1.86331141;stroke-linecap:round;stroke-linejoin:round;marker:none;marker-start:none;marker-mid:none;marker-end:none;stroke-miterlimit:4;stroke-dashoffset:0;stroke-opacity:1;visibility:visible;display:inline;overflow:visible"
       d="M 12.642701,1 L 10.250329,3.6485879 L 7.6567298,1.6696228 L 5.383604,3.0748222 L 5.7040776,6.8646028 L 2.4546256,7.6906907 L 2,10.189153 L 4.794827,12.267144 L 2.7557163,15.285105 L 4.462424,17.499359 L 7.6224417,16.298552 L 9.0533932,19.730645 L 12.210434,20 L 13.358177,16.431645 L 16.607629,17.291798 L 18.120561,14.8987 L 16.391495,11.645451 L 19,9.2864189 L 18.306884,6.4419534 L 15.005261,5.9565217 L 15.020167,2.1497078 L 12.642701,1 z M 10.503726,7.6257278 C 12.375067,7.6257278 13.337918,8.9491118 13.337918,10.57239 C 13.337918,12.195666 11.924295,13.73408 10.503726,13.73408 C 9.0831587,13.734079 7.9250328,12.195666 7.9250328,10.57239 C 7.9250337,8.9491118 9.0831587,7.6257278 10.503726,7.6257278 z "
       id="path2043"
       sodipodi:nodetypes="cccccccccccccccccccccccssss" />
    <path
       id="path1317"
       d="M 12.639836,1 L 10.245174,3.5382921 L 7.655031,1.6428565 L 5.379055,2.9882181 L 5.700205,6.6134023 L 2.453799,7.408689 L 2,9.7945512 L 2.286242,10 C 3.959627,9.0557515 6.177161,8.4319746 8.646406,8.2304855 C 9.116685,7.6898524 9.769899,7.3424153 10.503491,7.3424153 C 11.501164,7.3424153 12.2157,7.718569 12.688707,8.2901331 C 14.700677,8.536586 16.497414,9.088808 17.945791,9.8475704 L 19,8.9329896 L 18.301848,6.2091305 L 14.99959,5.745214 L 15.020533,2.100147 L 12.639836,1 z "
       style="color:black;fill:url(#linearGradient4018);fill-opacity:1;fill-rule:evenodd;stroke:none;stroke-width:1.86331141;stroke-linecap:round;stroke-linejoin:round;marker:none;marker-start:none;marker-mid:none;marker-end:none;stroke-miterlimit:4;stroke-dashoffset:0;stroke-opacity:1;visibility:visible;display:inline;overflow:visible" />
    <path
       style="color:black;fill:none;fill-opacity:1;fill-rule:evenodd;stroke:url(#linearGradient6653);stroke-width:0.96760029;stroke-linecap:round;stroke-linejoin:round;marker:none;marker-start:none;marker-mid:none;marker-end:none;stroke-miterlimit:4;stroke-dasharray:none;stroke-dashoffset:0;stroke-opacity:1;visibility:visible;display:inline;overflow:visible"
       d="M 12.514528,1.4837998 L 10.287769,4.0682222 L 7.614645,2.1245944 L 5.705242,3.2698397 L 6.163225,6.9463231 L 2.814725,7.9362996 L 2.4838,9.9781468 L 5.246595,12.166131 L 3.152343,15.104023 L 4.675341,17.173083 L 7.582,15.924247 L 9.046284,19.258442 L 12.052021,19.516199 L 13.144758,16.101472 L 16.238476,16.924594 L 17.6789,14.634526 L 16.032701,11.521339 L 18.516192,9.2638699 L 17.907249,6.6914613 L 14.76386,6.226928 L 14.778051,2.5341469 L 12.514528,1.4837998 z M 10.427109,7.6746782 C 12.208765,7.6746782 13.12547,8.9410871 13.12547,10.494476 C 13.12547,12.047865 11.779596,13.520047 10.427109,13.520047 C 9.074623,13.520046 7.972003,12.047865 7.972003,10.494476 C 7.972003,8.9410861 9.074623,7.6746782 10.427109,7.6746782 z "
       id="path5772"
       sodipodi:nodetypes="cccccccccccccccccccccccssss" />
  </g>
</svg>
