<?xml version="1.0" encoding="UTF-8" standalone="no"?>
<!-- Created with Inkscape (http://www.inkscape.org/) -->
<svg
   xmlns:dc="http://purl.org/dc/elements/1.1/"
   xmlns:cc="http://web.resource.org/cc/"
   xmlns:rdf="http://www.w3.org/1999/02/22-rdf-syntax-ns#"
   xmlns:svg="http://www.w3.org/2000/svg"
   xmlns="http://www.w3.org/2000/svg"
   xmlns:xlink="http://www.w3.org/1999/xlink"
   xmlns:sodipodi="http://inkscape.sourceforge.net/DTD/sodipodi-0.dtd"
   xmlns:inkscape="http://www.inkscape.org/namespaces/inkscape"
   width="22"
   height="22"
   id="svg14"
   sodipodi:version="0.32"
   inkscape:version="0.43+devel"
   sodipodi:docbase="/home/silvestre/Desktop/Neu/22x22/emblems"
   sodipodi:docname="emblem-system.svg"
   version="1.0">
  <defs
     id="defs3">
    <linearGradient
       inkscape:collect="always"
       id="linearGradient6647">
      <stop
         style="stop-color:white;stop-opacity:1;"
         offset="0"
         id="stop6649" />
      <stop
         style="stop-color:white;stop-opacity:0.45064378"
         offset="1"
         id="stop6651" />
    </linearGradient>
    <linearGradient
       id="linearGradient4234"
       inkscape:collect="always">
      <stop
         id="stop4236"
         offset="0"
         style="stop-color:#e0e0e0;stop-opacity:1.0000000" />
      <stop
         id="stop4238"
         offset="1"
         style="stop-color:#c4c4c4;stop-opacity:1.0000000" />
    </linearGradient>
    <linearGradient
       id="linearGradient2049"
       inkscape:collect="always">
      <stop
         id="stop2051"
         offset="0"
         style="stop-color:#ffffff;stop-opacity:1;" />
      <stop
         id="stop2053"
         offset="1"
         style="stop-color:#ffffff;stop-opacity:0;" />
    </linearGradient>
    <linearGradient
       inkscape:collect="always"
       xlink:href="#linearGradient2049"
       id="linearGradient4018"
       gradientUnits="userSpaceOnUse"
       x1="72.151817"
       y1="38.213421"
       x2="72.151817"
       y2="75.248329"
       gradientTransform="matrix(0.223408,0,0,0.223872,-6.712933,-6.338829)" />
    <linearGradient
       inkscape:collect="always"
       xlink:href="#linearGradient4234"
       id="linearGradient4021"
       gradientUnits="userSpaceOnUse"
       x1="34.81287"
       y1="16.950554"
       x2="34.81287"
       y2="50.46096"
       gradientTransform="matrix(0.28554,0,0,0.283212,-0.938998,-1.255239)" />
    <linearGradient
       inkscape:collect="always"
       xlink:href="#linearGradient6647"
       id="linearGradient6653"
       x1="38.311138"
       y1="29.974993"
       x2="26.017185"
       y2="26.680838"
       gradientUnits="userSpaceOnUse"
       gradientTransform="matrix(0.599528,0,0,0.585904,-7.55176,-6.565992)" />
  </defs>
  <sodipodi:namedview
     id="base"
     pagecolor="#ffffff"
     bordercolor="#666666"
     borderopacity="1.0"
     inkscape:pageopacity="0.0"
     inkscape:pageshadow="2"
     inkscape:zoom="1"
     inkscape:cx="11"
     inkscape:cy="11"
     inkscape:document-units="px"
     inkscape:current-layer="layer1"
     inkscape:window-width="843"
     inkscape:window-height="556"
     inkscape:window-x="143"
     inkscape:window-y="107"
     inkscape:showpageshadow="false"
     width="22px"
     height="22px"
     showgrid="false"
     showborder="false"
     showguides="true"
     inkscape:guide-bbox="true" />
  <metadata
     id="metadata4">
    <rdf:RDF>
      <cc:Work
         rdf:about="">
        <dc:format>image/svg+xml</dc:format>
        <dc:type
           rdf:resource="http://purl.org/dc/dcmitype/StillImage" />
      </cc:Work>
    </rdf:RDF>
  </metadata>
  <g
     inkscape:label="Layer 1"
     inkscape:groupmode="layer"
     id="layer1">
    <path
       style="color:black;fill:#8f8f8f;fill-opacity:1;fill-rule:evenodd;stroke:#595959;stroke-width:1.02248299;stroke-linecap:round;stroke-linejoin:round;marker:none;marker-start:none;marker-mid:none;marker-end:none;stroke-miterlimit:4;stroke-dasharray:none;stroke-dashoffset:0;stroke-opacity:1;visibility:visible;display:inline;overflow:visible"
       d="M 12.792987,0.51124119 L 10.42555,3.0956842 L 8.6170601,2.0309313 L 9.241832,2.5006412 L 7.5117817,1.2039781 L 5.0988181,2.6693843 L 5.435722,6.6215406 L 1.9938347,7.4830226 L 1.5112412,10.094112 L 4.4796423,12.261135 L 2.3125276,15.405098 L 4.1245272,17.714224 L 4.1397731,17.70307 L 6.0731112,18.877665 L 8.1673801,18.096117 L 8.9868772,20.041111 L 9.0167361,20.033261 L 10.944567,21.204554 L 14.286293,21.488755 L 15.506434,17.76751 L 18.957427,18.664516 L 20.560001,16.168885 L 18.720685,12.776247 L 21.488764,10.316142 L 20.751217,7.3498025 L 18.80028,6.1664315 L 18.802634,6.1863594 L 17.254695,5.9643277 L 17.272907,2.8736535 L 15.315218,1.7167954 L 15.315218,1.7102104 L 12.792987,0.51124119 z M 12.483399,8.5842977 C 12.538623,8.5842977 12.583785,8.6161656 12.638193,8.6198219 C 13.003407,9.1428984 13.257368,9.7785265 13.257368,10.493766 C 13.257367,12.186594 12.03216,13.5578 10.525713,13.5578 C 10.467408,13.5578 10.419228,13.52632 10.361813,13.522273 C 9.9949689,13.001027 9.7426355,12.37245 9.7426355,11.657212 C 9.7426365,9.9643828 10.976949,8.5842977 12.483399,8.5842977 z "
       id="path2041"
       sodipodi:nodetypes="ccccccccccccccccccccccccccccccccccsscsc" />
    <path
       style="color:black;fill:url(#linearGradient4021);fill-opacity:1;fill-rule:evenodd;stroke:none;stroke-width:1.86331141;stroke-linecap:round;stroke-linejoin:round;marker:none;marker-start:none;marker-mid:none;marker-end:none;stroke-miterlimit:4;stroke-dashoffset:0;stroke-opacity:1;visibility:visible;display:inline;overflow:visible"
       d="M 12.642701,1 L 10.250329,3.6485889 L 7.6567297,1.6696236 L 5.3836035,3.0748234 L 5.7040774,6.864604 L 2.4546256,7.6906909 L 2,10.189154 L 4.7948266,12.267144 L 2.7557162,15.285105 L 4.4624238,17.49936 L 7.6224408,16.298553 L 9.0533947,19.730645 L 12.210433,20 L 13.358175,16.431645 L 16.607628,17.291799 L 18.12056,14.898701 L 16.391494,11.645452 L 19,9.2864184 L 18.306883,6.4419533 L 15.005263,5.9565221 L 15.020166,2.1497093 L 12.642701,1 z M 10.503726,7.6257281 C 12.375066,7.6257281 13.337917,8.9491126 13.337917,10.572388 C 13.337917,12.195666 11.924296,13.734081 10.503726,13.734081 C 9.0831582,13.73408 7.9250327,12.195666 7.9250327,10.572388 C 7.9250336,8.9491116 9.0831582,7.6257281 10.503726,7.6257281 z "
       id="path2043"
       sodipodi:nodetypes="cccccccccccccccccccccccssss" />
    <path
       id="path1317"
       d="M 12.639837,1 L 10.245172,3.67948 L 7.6550297,1.6786152 L 5.3790549,3.09881 L 5.7002035,6.9256386 L 2.4537992,7.7651614 L 2,10.283734 L 2.2862424,10.500611 C 3.9596266,9.5038385 6.17716,8.8453669 8.6464077,8.6326678 C 9.1166853,8.0619632 9.7698979,7.6952009 10.503489,7.6952009 C 11.501164,7.6952009 12.215701,8.0922782 12.688707,8.6956342 C 14.700675,8.9557952 16.497415,9.5387345 17.945789,10.339702 L 19,9.3742504 L 18.301847,6.4988801 L 14.999591,6.0091581 L 15.020534,2.161341 L 12.639837,1 z "
       style="color:black;fill:url(#linearGradient4018);fill-opacity:1;fill-rule:evenodd;stroke:none;stroke-width:1.86331141;stroke-linecap:round;stroke-linejoin:round;marker:none;marker-start:none;marker-mid:none;marker-end:none;stroke-miterlimit:4;stroke-dashoffset:0;stroke-opacity:1;visibility:visible;display:inline;overflow:visible" />
    <path
       style="color:black;fill:none;fill-opacity:1;fill-rule:evenodd;stroke:url(#linearGradient6653);stroke-width:0.96759933;stroke-linecap:round;stroke-linejoin:round;marker:none;marker-start:none;marker-mid:none;marker-end:none;stroke-miterlimit:4;stroke-dasharray:none;stroke-dashoffset:0;stroke-opacity:1;visibility:visible;display:inline;overflow:visible"
       d="M 12.527793,1.4837992 L 10.298087,4.0682223 L 7.621429,2.1245936 L 5.709501,3.2698384 L 6.16809,6.9463224 L 2.815162,7.9362998 L 2.483799,9.9781473 L 5.250248,12.166132 L 3.153226,15.104024 L 4.678239,17.173084 L 7.588741,15.924247 L 9.054962,19.258443 L 12.064675,19.516201 L 13.158856,16.101473 L 16.256666,16.924595 L 17.698995,14.634527 L 16.050619,11.52134 L 18.537394,9.2638719 L 17.927646,6.6914618 L 14.7801,6.2269283 L 14.794309,2.5341456 L 12.527793,1.4837992 z M 10.437614,7.674679 C 12.221626,7.674679 13.139543,8.9410864 13.139543,10.494476 C 13.139543,12.047865 11.791889,13.520046 10.437614,13.520046 C 9.083339,13.520046 7.979259,12.047865 7.979259,10.494476 C 7.97926,8.9410854 9.083339,7.674679 10.437614,7.674679 z "
       id="path5772"
       sodipodi:nodetypes="cccccccccccccccccccccccssss" />
  </g>
</svg>
