<?xml version="1.0" encoding="UTF-8" standalone="no"?>
<!-- Created with Inkscape (http://www.inkscape.org/) -->
<svg
   xmlns:dc="http://purl.org/dc/elements/1.1/"
   xmlns:cc="http://web.resource.org/cc/"
   xmlns:rdf="http://www.w3.org/1999/02/22-rdf-syntax-ns#"
   xmlns:svg="http://www.w3.org/2000/svg"
   xmlns="http://www.w3.org/2000/svg"
   xmlns:xlink="http://www.w3.org/1999/xlink"
   xmlns:sodipodi="http://inkscape.sourceforge.net/DTD/sodipodi-0.dtd"
   xmlns:inkscape="http://www.inkscape.org/namespaces/inkscape"
   width="22"
   height="22"
   id="svg14"
   sodipodi:version="0.32"
   inkscape:version="0.43+devel"
   sodipodi:docbase="/home/silvestre/Desktop/Neu/22x22/mimetypes"
   sodipodi:docname="application-x-executable.svg"
   version="1.0">
  <defs
     id="defs3">
    <linearGradient
       inkscape:collect="always"
       id="linearGradient6647">
      <stop
         style="stop-color:white;stop-opacity:1;"
         offset="0"
         id="stop6649" />
      <stop
         style="stop-color:white;stop-opacity:0.45064378"
         offset="1"
         id="stop6651" />
    </linearGradient>
    <linearGradient
       id="linearGradient4234"
       inkscape:collect="always">
      <stop
         id="stop4236"
         offset="0"
         style="stop-color:#e0e0e0;stop-opacity:1.0000000" />
      <stop
         id="stop4238"
         offset="1"
         style="stop-color:#c4c4c4;stop-opacity:1.0000000" />
    </linearGradient>
    <linearGradient
       id="linearGradient2049"
       inkscape:collect="always">
      <stop
         id="stop2051"
         offset="0"
         style="stop-color:#ffffff;stop-opacity:1;" />
      <stop
         id="stop2053"
         offset="1"
         style="stop-color:#ffffff;stop-opacity:0;" />
    </linearGradient>
    <linearGradient
       inkscape:collect="always"
       xlink:href="#linearGradient2049"
       id="linearGradient4018"
       gradientUnits="userSpaceOnUse"
       x1="72.151817"
       y1="38.213421"
       x2="72.151817"
       y2="75.248329"
       gradientTransform="matrix(0.223408,0,0,0.220599,-7.71294,-6.231502)" />
    <linearGradient
       inkscape:collect="always"
       xlink:href="#linearGradient4234"
       id="linearGradient4021"
       gradientUnits="userSpaceOnUse"
       x1="34.81287"
       y1="16.950554"
       x2="34.81287"
       y2="50.46096"
       gradientTransform="matrix(0.285542,0,0,0.283211,-1.938997,-1.255236)" />
    <linearGradient
       inkscape:collect="always"
       xlink:href="#linearGradient6647"
       id="linearGradient6653"
       x1="38.311138"
       y1="29.974993"
       x2="26.017185"
       y2="26.680838"
       gradientUnits="userSpaceOnUse"
       gradientTransform="matrix(0.598736,0,0,0.585904,-8.538507,-6.565998)" />
  </defs>
  <sodipodi:namedview
     id="base"
     pagecolor="#ffffff"
     bordercolor="#666666"
     borderopacity="1.0"
     inkscape:pageopacity="0.0"
     inkscape:pageshadow="2"
     inkscape:zoom="1"
     inkscape:cx="11"
     inkscape:cy="11"
     inkscape:document-units="px"
     inkscape:current-layer="layer1"
     inkscape:window-width="843"
     inkscape:window-height="556"
     inkscape:window-x="143"
     inkscape:window-y="107"
     inkscape:showpageshadow="false"
     width="22px"
     height="22px"
     showgrid="false"
     showborder="false"
     showguides="true"
     inkscape:guide-bbox="true" />
  <metadata
     id="metadata4">
    <rdf:RDF>
      <cc:Work
         rdf:about="">
        <dc:format>image/svg+xml</dc:format>
        <dc:type
           rdf:resource="http://purl.org/dc/dcmitype/StillImage" />
      </cc:Work>
    </rdf:RDF>
  </metadata>
  <g
     inkscape:label="Layer 1"
     inkscape:groupmode="layer"
     id="layer1">
    <path
       style="color:black;fill:#8f8f8f;fill-opacity:1;fill-rule:evenodd;stroke:#595959;stroke-width:1.02248359;stroke-linecap:round;stroke-linejoin:round;marker:none;marker-start:none;marker-mid:none;marker-end:none;stroke-miterlimit:4;stroke-dasharray:none;stroke-dashoffset:0;stroke-opacity:1;visibility:visible;display:inline;overflow:visible"
       d="M 11.79298,0.51124161 L 9.4255458,3.0956854 L 7.6170569,2.0309321 L 8.2418276,2.500642 L 6.5117789,1.2039787 L 4.0988169,2.6693851 L 4.4357201,6.6215427 L 0.99383476,7.483024 L 0.51124168,10.094113 L 3.4796416,12.261138 L 1.3125278,15.405101 L 3.1245262,17.714227 L 3.139772,17.703074 L 5.0731077,18.877671 L 7.1673769,18.096122 L 7.9868734,20.041116 L 8.0167321,20.033267 L 9.9445596,21.204559 L 13.286286,21.488759 L 14.506424,17.767515 L 17.957417,18.664522 L 19.55999,16.168889 L 17.720675,12.776251 L 20.488752,10.316144 L 19.751205,7.349806 L 17.800269,6.1664336 L 17.802624,6.1863617 L 16.254685,5.9643307 L 16.272897,2.8736544 L 14.31521,1.7167955 L 14.31521,1.7102111 L 11.79298,0.51124161 z M 11.483393,8.5842997 C 11.538617,8.5842997 11.583779,8.6161675 11.638187,8.6198259 C 12.003402,9.1429016 12.257362,9.7785296 12.257362,10.493769 C 12.257361,12.186596 11.032153,13.557803 9.525707,13.557803 C 9.4674021,13.557803 9.4192225,13.526324 9.3618075,13.522276 C 8.9949627,13.001031 8.7426315,12.372453 8.7426315,11.657213 C 8.7426325,9.9643858 9.9769439,8.5842997 11.483393,8.5842997 z "
       id="path2041"
       sodipodi:nodetypes="ccccccccccccccccccccccccccccccccccsscsc" />
    <path
       style="color:black;fill:url(#linearGradient4021);fill-opacity:1;fill-rule:evenodd;stroke:none;stroke-width:1.86331141;stroke-linecap:round;stroke-linejoin:round;marker:none;marker-start:none;marker-mid:none;marker-end:none;stroke-miterlimit:4;stroke-dashoffset:0;stroke-opacity:1;visibility:visible;display:inline;overflow:visible"
       d="M 11.642701,1 L 9.2503288,3.648588 L 6.6567298,1.6696228 L 4.3836041,3.0748222 L 4.7040777,6.8646029 L 1.4546257,7.6906909 L 1,10.189152 L 3.794827,12.267144 L 1.7557164,15.285105 L 3.462424,17.499359 L 6.6224418,16.298552 L 8.0533932,19.730646 L 11.210434,20 L 12.358177,16.431645 L 15.607629,17.291798 L 17.120561,14.898701 L 15.391495,11.645451 L 18,9.286419 L 17.306883,6.4419535 L 14.005261,5.9565218 L 14.020167,2.1497078 L 11.642701,1 z M 9.5037262,7.6257279 C 11.375067,7.6257279 12.337918,8.949112 12.337918,10.57239 C 12.337918,12.195665 10.924295,13.73408 9.5037262,13.73408 C 8.0831586,13.73408 6.9250328,12.195665 6.9250328,10.57239 C 6.9250337,8.949112 8.0831586,7.6257279 9.5037262,7.6257279 z "
       id="path2043"
       sodipodi:nodetypes="cccccccccccccccccccccccssss" />
    <path
       id="path1317"
       d="M 11.639836,1 L 9.2451745,3.6402897 L 6.6550308,1.6686888 L 4.3790552,3.0681118 L 4.7002051,6.8389689 L 1.4537994,7.6662131 L 1,10.147947 L 1.2862425,10.361652 C 2.9596267,9.3794605 5.1771608,8.730618 7.6464061,8.5210323 C 8.1166848,7.9586746 8.7698988,7.5972763 9.5034909,7.5972763 C 10.501164,7.5972763 11.215701,7.9885452 11.688707,8.5830768 C 13.700677,8.8394331 15.497414,9.4138453 16.945791,10.203098 L 18,9.2517656 L 17.301848,6.4184521 L 13.999589,5.9358937 L 14.020533,2.1443548 L 11.639836,1 z "
       style="color:black;fill:url(#linearGradient4018);fill-opacity:1;fill-rule:evenodd;stroke:none;stroke-width:1.86331141;stroke-linecap:round;stroke-linejoin:round;marker:none;marker-start:none;marker-mid:none;marker-end:none;stroke-miterlimit:4;stroke-dashoffset:0;stroke-opacity:1;visibility:visible;display:inline;overflow:visible" />
    <path
       style="color:black;fill:none;fill-opacity:1;fill-rule:evenodd;stroke:url(#linearGradient6653);stroke-width:0.96760076;stroke-linecap:round;stroke-linejoin:round;marker:none;marker-start:none;marker-mid:none;marker-end:none;stroke-miterlimit:4;stroke-dasharray:none;stroke-dashoffset:0;stroke-opacity:1;visibility:visible;display:inline;overflow:visible"
       d="M 11.514533,1.4838005 L 9.2877734,4.0682227 L 6.6146479,2.124595 L 4.7052439,3.2698402 L 5.1632276,6.9463234 L 1.8147263,7.9362999 L 1.4838008,9.9781471 L 4.2465975,12.166131 L 2.152344,15.104023 L 3.6753432,17.173082 L 6.5820026,15.924247 L 8.0462874,19.258441 L 11.052027,19.516199 L 12.144764,16.101472 L 15.238483,16.924594 L 16.678908,14.634526 L 15.032707,11.521339 L 17.5162,9.2638702 L 16.907256,6.6914617 L 13.763866,6.2269284 L 13.778056,2.5341474 L 11.514533,1.4838005 z M 9.4271133,7.6746785 C 11.20877,7.6746785 12.125476,8.9410874 12.125476,10.494476 C 12.125476,12.047864 10.779601,13.520047 9.4271133,13.520047 C 8.0746268,13.520046 6.9720059,12.047864 6.9720059,10.494476 C 6.9720064,8.9410864 8.0746268,7.6746785 9.4271133,7.6746785 z "
       id="path5772"
       sodipodi:nodetypes="cccccccccccccccccccccccssss" />
  </g>
</svg>
