<?xml version="1.0" encoding="UTF-8" standalone="no"?>
<!-- Created with Inkscape (http://www.inkscape.org/) -->
<svg
   xmlns:dc="http://purl.org/dc/elements/1.1/"
   xmlns:cc="http://web.resource.org/cc/"
   xmlns:rdf="http://www.w3.org/1999/02/22-rdf-syntax-ns#"
   xmlns:svg="http://www.w3.org/2000/svg"
   xmlns="http://www.w3.org/2000/svg"
   xmlns:xlink="http://www.w3.org/1999/xlink"
   xmlns:sodipodi="http://inkscape.sourceforge.net/DTD/sodipodi-0.dtd"
   xmlns:inkscape="http://www.inkscape.org/namespaces/inkscape"
   width="22"
   height="22"
   id="svg2"
   sodipodi:version="0.32"
   inkscape:version="0.43+devel"
   sodipodi:docbase="/home/silvestre/Desktop/Neu/22x22/mimetypes"
   sodipodi:docname="text-html.svg"
   version="1.0">
  <defs
     id="defs4">
    <linearGradient
       inkscape:collect="always"
       id="linearGradient4820">
      <stop
         style="stop-color:white;stop-opacity:1;"
         offset="0"
         id="stop4822" />
      <stop
         style="stop-color:white;stop-opacity:0.57939917"
         offset="1"
         id="stop4824" />
    </linearGradient>
    <linearGradient
       id="linearGradient4957">
      <stop
         id="stop4959"
         offset="0"
         style="stop-color:#ffffff;stop-opacity:1;" />
      <stop
         id="stop4961"
         offset="1.0000000"
         style="stop-color:#d0d0d0;stop-opacity:1" />
    </linearGradient>
    <linearGradient
       inkscape:collect="always"
       id="linearGradient5912">
      <stop
         style="stop-color:#000000;stop-opacity:1;"
         offset="0"
         id="stop5914" />
      <stop
         style="stop-color:#000000;stop-opacity:0;"
         offset="1"
         id="stop5916" />
    </linearGradient>
    <linearGradient
       id="linearGradient5904">
      <stop
         id="stop5906"
         offset="0.0000000"
         style="stop-color:#000000;stop-opacity:0.19791669;" />
      <stop
         id="stop5908"
         offset="1"
         style="stop-color:#000000;stop-opacity:0;" />
    </linearGradient>
    <linearGradient
       id="linearGradient2065">
      <stop
         style="stop-color:#ffffff;stop-opacity:1;"
         offset="0"
         id="stop2067" />
      <stop
         style="stop-color:#bfbfbf;stop-opacity:1.0000000;"
         offset="1.0000000"
         id="stop2069" />
    </linearGradient>
    <linearGradient
       id="linearGradient2057">
      <stop
         style="stop-color:#f0f0f0;stop-opacity:1;"
         offset="0"
         id="stop2059" />
      <stop
         style="stop-color:#dddddd;stop-opacity:1.0000000;"
         offset="1.0000000"
         id="stop2061" />
    </linearGradient>
    <linearGradient
       inkscape:collect="always"
       id="linearGradient2049">
      <stop
         style="stop-color:#0a0a0a;stop-opacity:1;"
         offset="0"
         id="stop2051" />
      <stop
         style="stop-color:#0a0a0a;stop-opacity:0;"
         offset="1"
         id="stop2053" />
    </linearGradient>
    <linearGradient
       inkscape:collect="always"
       xlink:href="#linearGradient2057"
       id="linearGradient5888"
       gradientUnits="userSpaceOnUse"
       x1="57.903072"
       y1="65.225105"
       x2="85.99958"
       y2="114.99323" />
    <linearGradient
       inkscape:collect="always"
       xlink:href="#linearGradient2049"
       id="linearGradient5890"
       gradientUnits="userSpaceOnUse"
       gradientTransform="translate(0.975845,-1.951691)"
       x1="69.606209"
       y1="-2.7867124"
       x2="82.63073"
       y2="34.12973" />
    <linearGradient
       inkscape:collect="always"
       xlink:href="#linearGradient2065"
       id="linearGradient5892"
       gradientUnits="userSpaceOnUse"
       x1="80.507256"
       y1="19.19323"
       x2="84.654594"
       y2="10.41062" />
    <radialGradient
       inkscape:collect="always"
       xlink:href="#linearGradient5904"
       id="radialGradient5902"
       cx="60.502419"
       cy="115.07005"
       fx="60.502419"
       fy="115.07005"
       r="56.111115"
       gradientTransform="matrix(1,0,0,0.213043,-3.616898e-16,90.55513)"
       gradientUnits="userSpaceOnUse" />
    <linearGradient
       inkscape:collect="always"
       xlink:href="#linearGradient5912"
       id="linearGradient5918"
       x1="71.236717"
       y1="152.15218"
       x2="88.314011"
       y2="99.212555"
       gradientUnits="userSpaceOnUse"
       gradientTransform="matrix(0.164865,0,0,0.183082,0.455835,-0.809088)" />
    <linearGradient
       inkscape:collect="always"
       xlink:href="#linearGradient4957"
       id="linearGradient4940"
       gradientUnits="userSpaceOnUse"
       x1="81.89402"
       y1="22.461552"
       x2="84.654594"
       y2="10.41062"
       gradientTransform="matrix(0.174153,0,0,0.1836,-1.504486,-0.35621)" />
    <linearGradient
       inkscape:collect="always"
       xlink:href="#linearGradient2049"
       id="linearGradient4943"
       gradientUnits="userSpaceOnUse"
       gradientTransform="matrix(0.168935,0,0,0.16369,-0.712394,-4.069789e-2)"
       x1="69.606209"
       y1="-2.7867124"
       x2="82.63073"
       y2="34.12973" />
    <linearGradient
       inkscape:collect="always"
       xlink:href="#linearGradient2057"
       id="linearGradient4946"
       gradientUnits="userSpaceOnUse"
       x1="57.903072"
       y1="65.225105"
       x2="85.99958"
       y2="114.99323"
       gradientTransform="matrix(0.175902,0,0,0.176487,-1.908047,-0.511348)" />
    <linearGradient
       inkscape:collect="always"
       xlink:href="#linearGradient4820"
       id="linearGradient4826"
       x1="7.9148936"
       y1="3.8297873"
       x2="7.9148936"
       y2="41.371349"
       gradientUnits="userSpaceOnUse"
       gradientTransform="matrix(0.438081,0,0,0.44229,-0.480668,0.385043)" />
    <linearGradient
       gradientUnits="userSpaceOnUse"
       y2="121.82737"
       x2="59.64286"
       y1="14.832381"
       x1="59.64286"
       id="linearGradient4212"
       xlink:href="#linearGradient4206"
       inkscape:collect="always" />
    <linearGradient
       gradientUnits="userSpaceOnUse"
       y2="21.705061"
       x2="83.525612"
       y1="367.82727"
       x1="29.183714"
       id="linearGradient6540"
       xlink:href="#linearGradient6534"
       inkscape:collect="always" />
    <radialGradient
       gradientUnits="userSpaceOnUse"
       gradientTransform="matrix(0.91358,2.206993e-7,-4.100829e-8,0.169753,4.848958,95.59596)"
       r="54.105412"
       fy="136.4689"
       fx="56.109314"
       cy="115.14162"
       cx="56.109314"
       id="radialGradient6525"
       xlink:href="#linearGradient6519"
       inkscape:collect="always" />
    <linearGradient
       gradientTransform="matrix(0.18242,0,0,0.180638,-0.800792,-0.971297)"
       y2="69.195572"
       x2="67.070114"
       y1="-18.184502"
       x1="70.848709"
       gradientUnits="userSpaceOnUse"
       id="linearGradient5063"
       xlink:href="#linearGradient5044"
       inkscape:collect="always" />
    <radialGradient
       gradientTransform="matrix(0.682499,6.91885e-17,-7.291221e-17,0.682499,23.05181,36.74932)"
       r="56.442806"
       fy="119.52609"
       fx="64.841805"
       cy="119.52609"
       cx="64.841805"
       gradientUnits="userSpaceOnUse"
       id="radialGradient5061"
       xlink:href="#linearGradient4308"
       inkscape:collect="always" />
    <radialGradient
       gradientTransform="matrix(1.119035,5.340557e-16,-5.627992e-16,1.119035,-6.268888,-7.140347)"
       r="56.442806"
       fy="59.985241"
       fx="52.664207"
       cy="59.985241"
       cx="52.664207"
       gradientUnits="userSpaceOnUse"
       id="radialGradient5059"
       xlink:href="#linearGradient2087"
       inkscape:collect="always" />
    <linearGradient
       id="linearGradient2087">
      <stop
         id="stop2089"
         offset="0"
         style="stop-color:#5ab9ff;stop-opacity:1;" />
      <stop
         style="stop-color:#007be4;stop-opacity:1;"
         offset="0.0000000"
         id="stop2816" />
      <stop
         id="stop2818"
         offset="0.75"
         style="stop-color:#005eb5;stop-opacity:1;" />
      <stop
         id="stop2091"
         offset="1"
         style="stop-color:#004d9b;stop-opacity:1;" />
    </linearGradient>
    <linearGradient
       id="linearGradient4308">
      <stop
         id="stop4310"
         offset="0.0000000"
         style="stop-color:#ffffff;stop-opacity:0.22916669;" />
      <stop
         id="stop4312"
         offset="1"
         style="stop-color:#ffffff;stop-opacity:0;" />
    </linearGradient>
    <linearGradient
       id="linearGradient5044"
       inkscape:collect="always">
      <stop
         id="stop5046"
         offset="0"
         style="stop-color:#ffffff;stop-opacity:1;" />
      <stop
         id="stop5048"
         offset="1"
         style="stop-color:#ffffff;stop-opacity:0;" />
    </linearGradient>
    <linearGradient
       id="linearGradient6519"
       inkscape:collect="always">
      <stop
         id="stop6521"
         offset="0"
         style="stop-color:black;stop-opacity:0.39215687" />
      <stop
         id="stop6523"
         offset="1"
         style="stop-color:#000000;stop-opacity:0;" />
    </linearGradient>
    <linearGradient
       id="linearGradient6534"
       inkscape:collect="always">
      <stop
         id="stop6536"
         offset="0"
         style="stop-color:#000000;stop-opacity:0.39600000" />
      <stop
         id="stop6538"
         offset="1"
         style="stop-color:#000000;stop-opacity:0;" />
    </linearGradient>
    <linearGradient
       id="linearGradient4206"
       inkscape:collect="always">
      <stop
         id="stop4208"
         offset="0"
         style="stop-color:#ffffff;stop-opacity:1;" />
      <stop
         id="stop4210"
         offset="1"
         style="stop-color:#ffffff;stop-opacity:0.36909872" />
    </linearGradient>
  </defs>
  <sodipodi:namedview
     id="base"
     pagecolor="#ffffff"
     bordercolor="#666666"
     borderopacity="1.0"
     inkscape:pageopacity="0.0"
     inkscape:pageshadow="2"
     inkscape:zoom="1"
     inkscape:cx="12.342175"
     inkscape:cy="9.0567639"
     inkscape:document-units="px"
     inkscape:current-layer="g4020"
     inkscape:window-width="843"
     inkscape:window-height="556"
     inkscape:window-x="132"
     inkscape:window-y="76"
     showguides="true"
     inkscape:guide-bbox="true"
     width="22px"
     height="22px"
     showgrid="false"
     showborder="false"
     inkscape:showpageshadow="false" />
  <metadata
     id="metadata7">
    <rdf:RDF>
      <cc:Work
         rdf:about="">
        <dc:format>image/svg+xml</dc:format>
        <dc:type
           rdf:resource="http://purl.org/dc/dcmitype/StillImage" />
      </cc:Work>
    </rdf:RDF>
  </metadata>
  <g
     inkscape:label="Layer 1"
     inkscape:groupmode="layer"
     id="layer1">
    <path
       style="fill:url(#linearGradient5918);fill-opacity:1;fill-rule:evenodd;stroke:none;stroke-width:0.25pt;stroke-linecap:butt;stroke-linejoin:miter;stroke-opacity:1"
       d="M 16.302783,21.553384 L 21.45103,18.337518 L 13.406894,16.640258 L 16.302783,21.553384 z "
       id="path5910" />
    <path
       sodipodi:type="arc"
       style="opacity:1;color:black;fill:url(#radialGradient5902);fill-opacity:1;fill-rule:evenodd;stroke:none;stroke-width:2;stroke-linecap:round;stroke-linejoin:round;marker:none;marker-start:none;marker-mid:none;marker-end:none;stroke-miterlimit:4;stroke-dasharray:none;stroke-dashoffset:0;stroke-opacity:1;visibility:visible;display:inline;overflow:visible"
       id="path5894"
       sodipodi:cx="60.502419"
       sodipodi:cy="115.07005"
       sodipodi:rx="56.111115"
       sodipodi:ry="11.954107"
       d="M 116.61353 115.07005 A 56.111115 11.954107 0 1 1  4.391304,115.07005 A 56.111115 11.954107 0 1 1  116.61353 115.07005 z"
       transform="matrix(0.167254,0,0,0.167708,-0.734463,0.697032)" />
    <path
       style="fill:url(#linearGradient4946);fill-opacity:1;fill-rule:evenodd;stroke:#a0a0a0;stroke-width:1.01816607;stroke-linecap:round;stroke-linejoin:round;stroke-miterlimit:4;stroke-dasharray:none;stroke-opacity:1"
       d="M 0.56977101,19.481532 C 0.91367254,14.20438 1.2575743,7.7094235 0.5090824,1.4580282 L 9.7337405,0.51422933 C 11.3521,0.40259803 16.045349,2.1278212 16.045349,3.6500763 C 16.733151,10.084143 16.571315,16.031088 15.923971,21.490909 L 0.56977101,19.481532 z "
       id="path1306"
       sodipodi:nodetypes="cccccc" />
    <path
       style="fill:url(#linearGradient4943);fill-opacity:1;fill-rule:evenodd;stroke:none;stroke-width:0.25pt;stroke-linecap:butt;stroke-linejoin:miter;stroke-opacity:1"
       d="M 11.017487,1.9340491 C 10.016929,3.3929941 10.327782,5.5861171 11.338054,6.3673581 C 13.028315,4.6542751 14.164871,3.7600831 16.088273,4.0801101 C 15.06343,2.7247031 12.82189,1.7010881 11.017487,1.9340491 z "
       id="path2039"
       sodipodi:nodetypes="cccc" />
    <path
       sodipodi:nodetypes="ccccc"
       id="path4826"
       d="M 3.0833333,4.5991249 L 13.75,4.0644239 L 13.75,5.6939873 L 3.0833333,5.6939873 L 3.0833333,4.5991249 z "
       style="opacity:0.40167362;fill:black;fill-opacity:1;stroke:none;stroke-width:1;stroke-linecap:round;stroke-linejoin:round;stroke-miterlimit:4;stroke-dashoffset:0;stroke-opacity:1" />
    <path
       sodipodi:nodetypes="ccccc"
       id="path4830"
       d="M 3.3333333,7.4853627 L 12.222222,7.1597268 L 12.222222,8.7059569 L 3.3333333,8.5242356 L 3.3333333,7.4853627 z "
       style="opacity:0.40167362;fill:black;fill-opacity:1;stroke:none;stroke-width:1;stroke-linecap:round;stroke-linejoin:round;stroke-miterlimit:4;stroke-dashoffset:0;stroke-opacity:1" />
    <path
       sodipodi:nodetypes="ccccc"
       id="path4834"
       d="M 3.3333333,10.308437 L 9.791667,10.177927 L 9.791667,11.66452 L 3.3333333,11.307243 L 3.3333333,10.308437 z "
       style="opacity:0.40167362;fill:black;fill-opacity:1;stroke:none;stroke-width:1;stroke-linecap:round;stroke-linejoin:round;stroke-miterlimit:4;stroke-dashoffset:0;stroke-opacity:1" />
    <path
       sodipodi:nodetypes="ccccc"
       id="path4836"
       d="M 3.3333333,13.163488 L 14,13.379643 L 14,14.91674 L 3.3333333,14.196226 L 3.3333333,13.163488 z "
       style="opacity:0.40167362;fill:black;fill-opacity:1;stroke:none;stroke-width:1;stroke-linecap:round;stroke-linejoin:round;stroke-miterlimit:4;stroke-dashoffset:0;stroke-opacity:1" />
    <path
       style="opacity:0.40167362;fill:black;fill-opacity:1;stroke:none;stroke-width:1;stroke-linecap:round;stroke-linejoin:round;stroke-miterlimit:4;stroke-dashoffset:0;stroke-opacity:1"
       d="M 3.1458333,16.1875 L 9.590278,16.528735 L 9.590278,18.000001 L 3.1458333,17.176006 L 3.1458333,16.1875 z "
       id="rect3950"
       sodipodi:nodetypes="ccccc" />
    <path
       style="fill:none;fill-opacity:1;fill-rule:evenodd;stroke:url(#linearGradient4826);stroke-width:0.96689123;stroke-linecap:round;stroke-linejoin:round;stroke-miterlimit:4;stroke-dasharray:none;stroke-opacity:1"
       d="M 1.5367344,18.693791 C 1.8387027,13.906765 2.1406711,8.0150408 1.4834459,2.3442561 L 9.5833045,1.4881146 C 11.228349,1.3868505 15.297551,2.9518399 15.125313,4.3327127 C 15.72925,10.169203 15.587146,15.563814 15.018737,20.516544 L 1.5367344,18.693791 z "
       id="path3945"
       sodipodi:nodetypes="cccccc" />
    <path
       style="fill:url(#linearGradient4940);fill-opacity:1;fill-rule:evenodd;stroke:none;stroke-width:1;stroke-linecap:butt;stroke-linejoin:miter;stroke-miterlimit:4;stroke-dasharray:none;stroke-opacity:1"
       d="M 9.6309837,1.0274347 C 8.5995237,2.6638409 8.9199772,5.1237304 9.9614525,6 C 11.703918,4.0785414 14.017193,3.518996 16,3.8779491 C 15.544355,2.4210196 11.491117,0.76613691 9.6309837,1.0274347 z "
       id="path2037"
       sodipodi:nodetypes="cccc" />
    <g
       id="g4020"
       inkscape:label="Layer 1"
       transform="matrix(0.727273,0,0,0.727273,6.201194,6.000004)">
      <path
         transform="matrix(0.159984,0,-4.328855e-2,4.744223e-2,4.665778,14.62213)"
         d="M 123.74908 70.848709 A 56.442806 56.442806 0 1 1  10.863468,70.848709 A 56.442806 56.442806 0 1 1  123.74908 70.848709 z"
         sodipodi:ry="56.442806"
         sodipodi:rx="56.442806"
         sodipodi:cy="70.848709"
         sodipodi:cx="67.306274"
         id="path6532"
         style="opacity:1;color:black;fill:url(#linearGradient6540);fill-opacity:1;fill-rule:evenodd;stroke:none;stroke-width:3;stroke-linecap:round;stroke-linejoin:round;marker:none;marker-start:none;marker-mid:none;marker-end:none;stroke-miterlimit:4;stroke-dasharray:none;stroke-dashoffset:0;stroke-opacity:1;visibility:visible;display:inline;overflow:visible"
         sodipodi:type="arc" />
      <path
         transform="matrix(0.17342,0,0,0.24296,-7.09221e-2,-8.206288)"
         d="M 110.21473 115.14162 A 54.105412 9.1845608 0 1 1  2.0039024,115.14162 A 54.105412 9.1845608 0 1 1  110.21473 115.14162 z"
         sodipodi:ry="9.1845608"
         sodipodi:rx="54.105412"
         sodipodi:cy="115.14162"
         sodipodi:cx="56.109314"
         id="path5065"
         style="opacity:1;color:black;fill:url(#radialGradient6525);fill-opacity:1;fill-rule:evenodd;stroke:none;stroke-width:3;stroke-linecap:round;stroke-linejoin:round;marker:none;marker-start:none;marker-mid:none;marker-end:none;stroke-miterlimit:4;stroke-dasharray:none;stroke-dashoffset:0;stroke-opacity:1;visibility:visible;display:inline;overflow:visible"
         sodipodi:type="arc" />
      <path
         transform="matrix(0.182707,0,0,0.182707,-1.573971,-1.944567)"
         d="M 123.74908 70.848709 A 56.442806 56.442806 0 1 1  10.863468,70.848709 A 56.442806 56.442806 0 1 1  123.74908 70.848709 z"
         sodipodi:ry="56.442806"
         sodipodi:rx="56.442806"
         sodipodi:cy="70.848709"
         sodipodi:cx="67.306274"
         id="path1359"
         style="opacity:1;color:black;fill:url(#radialGradient5059);fill-opacity:1;fill-rule:evenodd;stroke:#164196;stroke-width:7.52569389;stroke-linecap:round;stroke-linejoin:round;marker:none;marker-start:none;marker-mid:none;marker-end:none;stroke-miterlimit:4;stroke-dasharray:none;stroke-dashoffset:0;stroke-opacity:1;visibility:visible;display:inline;overflow:visible"
         sodipodi:type="arc" />
      <g
         style="fill:#dae7f5;fill-opacity:1"
         transform="matrix(0.173088,0,0,0.176746,-2.331892,-1.356733)"
         inkscape:label="Layer 1"
         id="g2125">
        <path
           id="path4290"
           style="fill:#dae7f5;fill-opacity:1;fill-rule:evenodd;stroke:none;stroke-width:1pt;stroke-linecap:butt;stroke-linejoin:miter;stroke-opacity:1"
           d="M 68.095711,15.455708 C 63.486211,16.461808 58.558011,16.712038 54.442411,19.236058 C 52.848311,19.366288 46.408311,21.892818 50.706411,22.331538 C 53.368611,21.575958 54.605811,18.807748 57.578111,19.039898 C 60.769111,18.090538 64.051011,16.960998 67.529711,16.296418 C 67.888811,16.129528 67.896111,15.733868 68.095711,15.455708 z M 74.881611,16.348898 C 72.579011,18.997088 67.269511,18.828728 66.952211,23.142298 C 68.037411,24.633818 73.377211,17.613778 74.947411,21.950378 C 75.256711,24.857868 73.319011,28.527882 69.962111,26.633232 C 68.333311,26.497262 66.304911,26.832062 66.372611,25.374442 C 65.527211,27.512782 58.792211,31.650712 61.157911,27.040162 C 62.386411,26.116862 59.438911,25.948982 61.463711,24.362918 C 63.255711,22.543288 57.568911,22.714808 59.722111,24.677648 C 58.474611,26.397732 57.912311,28.227272 55.460511,28.526582 C 57.553211,28.293062 59.728511,27.954602 58.123111,30.188332 C 59.334811,34.740872 51.727411,32.363842 50.793911,35.724322 C 48.027611,40.175402 54.936911,39.940022 56.909211,37.746942 C 56.576211,33.630832 60.812011,34.845712 63.034611,34.439362 C 65.369511,32.706172 67.834911,38.067852 68.990511,39.984502 C 70.505411,40.783952 72.167811,37.651162 69.860511,36.841012 C 70.134311,35.302352 65.179711,32.698312 68.315511,32.586112 C 70.411411,33.700802 71.590511,36.010122 71.985711,37.513862 C 76.163011,37.324662 70.268811,42.152312 74.278111,40.683952 C 76.818611,40.229202 74.004411,35.992172 77.376811,37.653782 C 81.639111,39.290502 75.913211,32.153982 80.779211,32.123812 C 83.039811,30.788912 81.826911,36.763032 83.218911,33.842812 C 84.009211,29.112122 90.337111,35.607102 87.453211,37.501232 C 83.786611,36.481532 80.093511,36.184062 78.505411,40.312932 C 78.283911,42.257242 83.845511,37.507732 83.196811,40.975752 C 84.369211,44.653572 78.594311,45.323392 76.415811,44.049152 C 74.413011,41.638192 72.547711,43.885102 71.057011,44.982102 C 68.733311,44.657332 61.002611,44.043202 64.270711,40.579652 C 65.135111,36.963522 59.756611,40.250492 57.799111,39.435832 C 55.327511,40.774802 51.519411,39.589012 49.543511,41.585652 C 49.261011,43.901002 45.557911,42.624462 44.951611,45.410672 C 43.552311,48.582382 38.914711,49.641612 38.797911,53.041372 C 38.664911,56.841112 36.875111,60.298752 38.862711,64.042252 C 39.340711,67.871032 42.967611,70.239762 46.678711,69.340392 C 48.827411,69.294192 50.843211,71.982782 52.354611,68.740642 C 54.790111,64.728422 57.280711,70.976962 60.333811,69.354492 C 62.848111,72.250542 58.230811,75.695642 62.172011,77.723172 C 65.476511,81.223952 64.494711,86.086302 63.051011,90.151212 C 63.073311,93.424482 67.370211,95.128412 67.291511,98.372682 C 66.963311,103.01599 71.142011,107.08971 75.701311,104.8457 C 78.656311,104.01268 79.852811,100.50346 82.882211,99.693132 C 85.181311,97.752552 84.181911,92.083342 88.379011,91.945372 C 94.106511,90.029932 89.997511,83.182612 91.558411,79.305892 C 93.847911,76.601452 94.819711,72.598872 98.326811,71.100952 C 101.03751,68.727402 99.248011,63.943472 101.99751,61.255132 C 99.668611,63.050432 95.749511,64.621072 93.200011,62.440412 C 89.254311,59.017572 86.009611,54.736032 83.997511,49.906762 C 83.055911,47.771592 83.115611,43.477702 85.449911,43.497812 C 85.817611,47.978652 88.987211,51.588012 91.198911,55.308192 C 93.315311,57.726022 94.791311,61.516902 98.718711,60.249612 C 102.03681,59.124782 106.58541,56.926032 106.65831,52.992012 C 106.34851,48.537072 98.404211,52.697512 96.837011,48.151762 C 93.702411,46.284232 98.970311,43.199692 99.920211,46.662362 C 101.95451,48.737762 105.60331,47.640872 107.09931,50.445202 C 110.12741,49.091592 112.55011,50.044282 113.79761,53.221172 C 116.46661,55.864162 117.18901,59.869312 117.08971,63.491172 C 120.59221,66.905742 119.51571,58.522802 120.44171,56.461582 C 120.58121,54.506582 120.77871,52.098812 121.60211,55.296412 C 124.16491,56.524612 122.37911,51.302992 121.79401,50.127442 C 117.29941,39.859142 115.85481,37.977962 110.92461,32.066622 C 102.78801,24.086108 96.176311,20.680428 87.168211,17.710448 C 86.513311,20.909408 82.513311,18.093478 80.605411,20.772388 C 78.603611,22.285428 78.593611,22.092358 79.997111,20.083158 C 78.977811,18.255358 76.663011,17.381328 74.881611,16.348898 z M 60.688911,19.921598 C 58.688211,18.974608 53.731811,22.100338 58.169911,21.889438 C 59.424811,22.150878 59.843611,20.521148 60.688911,19.921598 z M 57.856911,24.605318 C 56.259711,25.216078 52.466411,26.291502 55.819211,27.007762 C 56.779211,26.556982 57.404611,25.522522 57.856911,24.605318 z M 67.006411,38.220812 C 64.577611,39.439302 66.847411,41.861232 68.129411,39.556922 C 67.825011,39.051922 67.347611,38.695842 67.006411,38.220812 z M 121.79521,64.144722 C 118.22811,66.576012 126.02081,68.405742 121.79521,64.144722 z M 19.842411,70.353382 C 19.635411,74.810072 20.779511,79.508172 21.774611,84.314712 C 23.058611,86.588942 23.922211,91.246432 25.399911,91.904112 C 26.939611,88.372732 23.772911,84.422972 25.619511,80.769462 C 23.396511,79.020922 26.387711,75.145152 22.774111,74.088722 C 21.636811,72.976622 20.789611,71.620202 19.842411,70.353382 z M 98.049811,84.731342 C 97.681211,88.846072 92.078511,89.812412 93.123211,93.982862 C 94.121311,96.169162 92.634011,96.330502 92.404411,98.102602 C 94.464411,99.682972 96.215411,94.538442 97.794211,93.141772 C 98.162411,91.108522 102.96401,84.254842 98.049811,84.731342 z " />
      </g>
      <path
         transform="matrix(0.171398,0,0,0.170527,-0.86197,-1.081595)"
         d="M 123.74908 70.848709 A 56.442806 56.442806 0 1 1  10.863468,70.848709 A 56.442806 56.442806 0 1 1  123.74908 70.848709 z"
         sodipodi:ry="56.442806"
         sodipodi:rx="56.442806"
         sodipodi:cy="70.848709"
         sodipodi:cx="67.306274"
         id="path2854"
         style="opacity:1;color:black;fill:url(#radialGradient5061);fill-opacity:1;fill-rule:evenodd;stroke:none;stroke-width:3;stroke-linecap:round;stroke-linejoin:round;marker:none;marker-start:none;marker-mid:none;marker-end:none;stroke-miterlimit:4;stroke-dasharray:none;stroke-dashoffset:0;stroke-opacity:1;visibility:visible;display:inline;overflow:visible"
         sodipodi:type="arc" />
      <path
         sodipodi:nodetypes="csssc"
         id="path4316"
         d="M 18.973351,6.7927895 C 18.973351,9.7834124 15.277352,12.210586 10.723354,12.210586 C 6.1693553,12.210586 2.4733573,9.7834124 2.4733573,6.7927895 C 2.4733573,4.4553773 6.5166312,1.374994 10.723354,1.374994 C 15.42631,1.374994 18.973351,4.5908971 18.973351,6.7927895 z "
         style="color:black;fill:url(#linearGradient5063);fill-opacity:1;fill-rule:evenodd;stroke:none;stroke-width:3;stroke-linecap:round;stroke-linejoin:round;marker:none;marker-start:none;marker-mid:none;marker-end:none;stroke-miterlimit:4;stroke-dashoffset:0;stroke-opacity:1;visibility:visible;display:inline;overflow:visible" />
      <path
         transform="matrix(0.158346,0,0,0.158346,6.56733e-2,-0.218625)"
         d="M 123.74908 70.848709 A 56.442806 56.442806 0 1 1  10.863468,70.848709 A 56.442806 56.442806 0 1 1  123.74908 70.848709 z"
         sodipodi:ry="56.442806"
         sodipodi:rx="56.442806"
         sodipodi:cy="70.848709"
         sodipodi:cx="67.306274"
         id="path3331"
         style="opacity:1;color:black;fill:none;fill-opacity:1;fill-rule:evenodd;stroke:url(#linearGradient4212);stroke-width:8.68351078;stroke-linecap:round;stroke-linejoin:round;marker:none;marker-start:none;marker-mid:none;marker-end:none;stroke-miterlimit:4;stroke-dasharray:none;stroke-dashoffset:0;stroke-opacity:0.79399139;visibility:visible;display:inline;overflow:visible"
         sodipodi:type="arc" />
    </g>
  </g>
</svg>
