<?xml version="1.0" encoding="UTF-8" standalone="no"?>
<!-- Created with Inkscape (http://www.inkscape.org/) -->
<svg
   xmlns:dc="http://purl.org/dc/elements/1.1/"
   xmlns:cc="http://web.resource.org/cc/"
   xmlns:rdf="http://www.w3.org/1999/02/22-rdf-syntax-ns#"
   xmlns:svg="http://www.w3.org/2000/svg"
   xmlns="http://www.w3.org/2000/svg"
   xmlns:xlink="http://www.w3.org/1999/xlink"
   xmlns:sodipodi="http://inkscape.sourceforge.net/DTD/sodipodi-0.dtd"
   xmlns:inkscape="http://www.inkscape.org/namespaces/inkscape"
   width="22"
   height="22"
   id="svg2"
   sodipodi:version="0.32"
   inkscape:version="0.43+devel"
   sodipodi:docbase="/home/silvestre/Desktop/Neu/22x22/actions"
   sodipodi:docname="address-book-new.svg"
   version="1.0">
  <defs
     id="defs4">
    <linearGradient
       id="linearGradient7473">
      <stop
         style="stop-color:white;stop-opacity:1;"
         offset="0"
         id="stop7475" />
      <stop
         id="stop7481"
         offset="0.5"
         style="stop-color:#fffc9d;stop-opacity:0.97254902;" />
      <stop
         style="stop-color:#fff409;stop-opacity:0.67676765;"
         offset="0.75"
         id="stop7483" />
      <stop
         style="stop-color:#fff409;stop-opacity:0;"
         offset="1"
         id="stop7477" />
    </linearGradient>
    <linearGradient
       inkscape:collect="always"
       id="linearGradient2853">
      <stop
         style="stop-color:white;stop-opacity:0.81960785"
         offset="0"
         id="stop2855" />
      <stop
         style="stop-color:white;stop-opacity:0.24705882"
         offset="1"
         id="stop2857" />
    </linearGradient>
    <linearGradient
       id="linearGradient10532">
      <stop
         style="stop-color:#000000;stop-opacity:0.26041666;"
         offset="0.0000000"
         id="stop10534" />
      <stop
         style="stop-color:#000000;stop-opacity:0;"
         offset="1"
         id="stop10536" />
    </linearGradient>
    <linearGradient
       id="linearGradient9796">
      <stop
         style="stop-color:#000000;stop-opacity:0.65625000;"
         offset="0.0000000"
         id="stop9798" />
      <stop
         style="stop-color:#000000;stop-opacity:0;"
         offset="1"
         id="stop9800" />
    </linearGradient>
    <linearGradient
       id="linearGradient8296"
       inkscape:collect="always">
      <stop
         id="stop8298"
         offset="0"
         style="stop-color:#ffffff;stop-opacity:0.62400001" />
      <stop
         id="stop8300"
         offset="1"
         style="stop-color:#ffffff;stop-opacity:0;" />
    </linearGradient>
    <linearGradient
       inkscape:collect="always"
       id="linearGradient5359">
      <stop
         style="stop-color:#3f77b6;stop-opacity:1"
         offset="0"
         id="stop5361" />
      <stop
         style="stop-color:#6494c9;stop-opacity:1"
         offset="1"
         id="stop5363" />
    </linearGradient>
    <linearGradient
       id="linearGradient4625">
      <stop
         style="stop-color:#f4f4ee;stop-opacity:1;"
         offset="0"
         id="stop4627" />
      <stop
         style="stop-color:#b2b2ad;stop-opacity:1.0000000"
         offset="1.0000000"
         id="stop4629" />
    </linearGradient>
    <linearGradient
       inkscape:collect="always"
       xlink:href="#linearGradient9796"
       id="linearGradient9802"
       x1="71.793358"
       y1="154.92252"
       x2="77.933578"
       y2="92.103325"
       gradientUnits="userSpaceOnUse"
       gradientTransform="matrix(0.150104,0,0,0.180511,2.190186,-1.123819)" />
    <radialGradient
       inkscape:collect="always"
       xlink:href="#linearGradient10532"
       id="radialGradient10538"
       cx="53.84502"
       cy="116.42805"
       fx="53.84502"
       fy="116.42805"
       r="47.232471"
       gradientTransform="matrix(1,5.952947e-17,-1.103848e-18,0.225,3.322538e-15,90.23174)"
       gradientUnits="userSpaceOnUse" />
    <radialGradient
       inkscape:collect="always"
       xlink:href="#linearGradient10532"
       id="radialGradient10542"
       gradientUnits="userSpaceOnUse"
       gradientTransform="matrix(1,2.921924e-17,1.951565e-18,0.225,1.828339e-14,90.23174)"
       cx="53.84502"
       cy="116.42805"
       fx="53.84502"
       fy="116.42805"
       r="47.232471" />
    <linearGradient
       inkscape:collect="always"
       xlink:href="#linearGradient8296"
       id="linearGradient1969"
       gradientUnits="userSpaceOnUse"
       x1="60.785091"
       y1="-20.288902"
       x2="59.11517"
       y2="71.890686"
       gradientTransform="matrix(0.180471,0,0,0.180511,-4.245252,-0.273469)" />
    <linearGradient
       inkscape:collect="always"
       xlink:href="#linearGradient5359"
       id="linearGradient1972"
       gradientUnits="userSpaceOnUse"
       x1="85.963097"
       y1="99.660515"
       x2="45.10701"
       y2="33.062729"
       gradientTransform="matrix(0.182276,0,0,0.192035,-4.397422,-0.994335)" />
    <linearGradient
       inkscape:collect="always"
       xlink:href="#linearGradient4625"
       id="linearGradient1975"
       gradientUnits="userSpaceOnUse"
       gradientTransform="matrix(0.207197,0,0,0.176632,-5.508731,-0.147812)"
       x1="100.60516"
       y1="65.298889"
       x2="108.63469"
       y2="65.298889" />
    <linearGradient
       inkscape:collect="always"
       xlink:href="#linearGradient2853"
       id="linearGradient2859"
       x1="4.7533164"
       y1="6.4509287"
       x2="16.297083"
       y2="104.35699"
       gradientUnits="userSpaceOnUse"
       gradientTransform="matrix(0.168242,0,0,0.186185,0.363497,-1.233461)" />
    <radialGradient
       inkscape:collect="always"
       xlink:href="#linearGradient7473"
       id="radialGradient7479"
       cx="27.930717"
       cy="18.124739"
       fx="27.930717"
       fy="18.124739"
       r="9.1923885"
       gradientUnits="userSpaceOnUse" />
  </defs>
  <sodipodi:namedview
     id="base"
     pagecolor="#ffffff"
     bordercolor="#666666"
     borderopacity="1.0"
     inkscape:pageopacity="0.0"
     inkscape:pageshadow="2"
     inkscape:zoom="1"
     inkscape:cx="11"
     inkscape:cy="11"
     inkscape:document-units="px"
     inkscape:current-layer="layer1"
     inkscape:window-width="823"
     inkscape:window-height="536"
     inkscape:window-x="148"
     inkscape:window-y="147"
     showborder="false"
     width="22px"
     height="22px"
     showgrid="false"
     inkscape:showpageshadow="false" />
  <metadata
     id="metadata7">
    <rdf:RDF>
      <cc:Work
         rdf:about="">
        <dc:format>image/svg+xml</dc:format>
        <dc:type
           rdf:resource="http://purl.org/dc/dcmitype/StillImage" />
      </cc:Work>
    </rdf:RDF>
  </metadata>
  <g
     inkscape:label="Layer 1"
     inkscape:groupmode="layer"
     id="layer1">
    <path
       sodipodi:type="arc"
       style="opacity:1;color:black;fill:url(#radialGradient10542);fill-opacity:1;fill-rule:evenodd;stroke:none;stroke-width:1;stroke-linecap:round;stroke-linejoin:round;marker:none;marker-start:none;marker-mid:none;marker-end:none;stroke-miterlimit:4;stroke-dasharray:none;stroke-dashoffset:0;stroke-opacity:1;visibility:visible;display:inline;overflow:visible"
       id="path10540"
       sodipodi:cx="53.84502"
       sodipodi:cy="116.42805"
       sodipodi:rx="47.232471"
       sodipodi:ry="10.627306"
       d="M 101.07749 116.42805 A 47.232471 10.627306 0 1 1  6.6125488,116.42805 A 47.232471 10.627306 0 1 1  101.07749 116.42805 z"
       transform="matrix(0.156478,1.951976e-2,-2.168383e-2,0.173903,5.840837,-1.363799)" />
    <path
       sodipodi:type="arc"
       style="opacity:1;color:black;fill:url(#radialGradient10538);fill-opacity:1;fill-rule:evenodd;stroke:none;stroke-width:1;stroke-linecap:round;stroke-linejoin:round;marker:none;marker-start:none;marker-mid:none;marker-end:none;stroke-miterlimit:4;stroke-dasharray:none;stroke-dashoffset:0;stroke-opacity:1;visibility:visible;display:inline;overflow:visible"
       id="path9804"
       sodipodi:cx="53.84502"
       sodipodi:cy="116.42805"
       sodipodi:rx="47.232471"
       sodipodi:ry="10.627306"
       d="M 101.07749 116.42805 A 47.232471 10.627306 0 1 1  6.6125488,116.42805 A 47.232471 10.627306 0 1 1  101.07749 116.42805 z"
       transform="matrix(0.179084,2.233971e-2,-2.481645e-2,0.199026,1.709313,-5.335959)" />
    <path
       style="fill:url(#linearGradient9802);fill-opacity:1;fill-rule:evenodd;stroke:none;stroke-width:0.25pt;stroke-linecap:butt;stroke-linejoin:miter;stroke-opacity:1"
       d="M 15.306316,20.532202 L 21.261747,17.121804 L 13.321171,14.734529 L 12.966682,19.082785 L 15.306316,20.532202 z "
       id="path9068" />
    <path
       style="fill:#638cba;fill-opacity:1;fill-rule:evenodd;stroke:#2d5c91;stroke-width:1.00000048;stroke-linecap:round;stroke-linejoin:round;stroke-miterlimit:4;stroke-dasharray:none;stroke-opacity:1"
       d="M 4.2992187,3.7653061 L 4.2992187,18.091837 L 18.500006,20.500003 L 18.500006,2.4999995 L 4.2992187,3.7653061 z "
       id="path3897" />
    <path
       style="fill:url(#linearGradient1975);fill-opacity:1;fill-rule:evenodd;stroke:none;stroke-width:0.25pt;stroke-linecap:butt;stroke-linejoin:miter;stroke-opacity:1"
       d="M 1.4885468,3.7732944 L 1.4885468,17.914304 L 13.88101,20 L 17,19.541145 L 17,3.1475866 L 13.88101,2.772161 L 1.4885468,3.7732944 z "
       id="path1710"
       sodipodi:nodetypes="ccccccc" />
    <path
       style="fill:#5dc82f;fill-opacity:1;stroke:#55912d;stroke-width:1.00000012;stroke-linecap:round;stroke-linejoin:round;stroke-miterlimit:4;stroke-dashoffset:0;stroke-opacity:1"
       d="M 12.500003,13.499999 L 16.500004,13.760925 L 16.500004,18.5 L 12.500003,18.187498 L 12.500003,13.499999 z "
       id="path6594"
       sodipodi:nodetypes="ccccc" />
    <path
       style="fill:#c82f2f;fill-opacity:1;stroke:#912d2d;stroke-width:1.00000107;stroke-linecap:round;stroke-linejoin:round;stroke-miterlimit:4;stroke-dashoffset:0;stroke-opacity:1"
       d="M 12.500002,4.0418188 L 16.499994,3.4999986 L 16.499994,8.4999972 L 12.500002,8.4999972 L 12.500002,4.0418188 z "
       id="rect5716"
       sodipodi:nodetypes="ccccc" />
    <path
       style="fill:#c8c12f;fill-opacity:1;stroke:#91872d;stroke-width:1.00000203;stroke-linecap:round;stroke-linejoin:round;stroke-miterlimit:4;stroke-dashoffset:0;stroke-opacity:1"
       d="M 13.067125,8.5000009 L 16.500007,8.5194979 L 16.500007,13.499997 L 13.067125,13.348481 L 13.067125,8.5000009 z "
       id="path6592"
       sodipodi:nodetypes="ccccc" />
    <path
       style="fill:url(#linearGradient1972);fill-opacity:1;fill-rule:evenodd;stroke:#2e639f;stroke-width:1.00000072;stroke-linecap:round;stroke-linejoin:round;stroke-miterlimit:4;stroke-dasharray:none;stroke-opacity:1"
       d="M 1.5000005,2.9058984 L 1.5000005,18.824274 L 13.510073,21.500009 L 13.510073,1.5000017 L 1.5000005,2.9058984 z "
       id="path2443" />
    <path
       style="opacity:0.76150626;fill:url(#linearGradient1969);fill-opacity:1;fill-rule:evenodd;stroke:none;stroke-width:0.25pt;stroke-linecap:butt;stroke-linejoin:miter;stroke-opacity:1"
       d="M 1.8424815,3.720712 L 1.8424815,12.58303 C 5.3183164,5.891075 10.180466,8.784892 13.174104,13.849073 L 13.174104,2.394378 L 1.8424815,3.720712 z "
       id="path7549"
       sodipodi:nodetypes="ccccc" />
    <path
       style="fill:none;fill-opacity:1;fill-rule:evenodd;stroke:url(#linearGradient2859);stroke-width:1.00000119;stroke-linecap:round;stroke-linejoin:round;stroke-miterlimit:4;stroke-dasharray:none;stroke-opacity:1"
       d="M 2.500003,3.7653085 L 2.500003,18.091841 L 12.500008,20.500007 L 12.500008,2.5000022 L 2.500003,3.7653085 z "
       id="path1978" />
    <path
       style="font-size:20.10438156px;font-style:normal;font-variant:normal;font-weight:bold;font-stretch:normal;text-align:start;line-height:125%;writing-mode:lr-tb;text-anchor:start;fill:white;fill-opacity:0.64806866;stroke:none;stroke-width:1px;stroke-linecap:butt;stroke-linejoin:miter;stroke-opacity:1;font-family:Bitstream Vera Sans"
       d="M 6.6022057,10.982659 C 6.602203,11.367001 6.6673428,11.670097 6.7976268,11.891949 C 6.9304087,12.113805 7.1095438,12.224732 7.335033,12.224731 C 7.5580085,12.224732 7.7358909,12.113805 7.8686807,11.891949 C 8.0014621,11.666973 8.067855,11.363876 8.0678594,10.982659 C 8.067855,10.604573 8.0002099,10.306163 7.8649227,10.087431 C 7.7321329,9.86558 7.5529974,9.754653 7.3275161,9.754649 C 7.1070384,9.754653 6.9304087,9.86558 6.7976268,10.087431 C 6.6673428,10.306163 6.602203,10.604573 6.6022057,10.982659 M 8.1430215,12.393465 C 8.067855,12.61532 7.9463437,12.788741 7.778487,12.913729 C 7.6131273,13.035593 7.4189598,13.096525 7.1959838,13.096525 C 6.7650529,13.096525 6.4142988,12.902793 6.1437196,12.515329 C 5.87564,12.124741 5.7416024,11.616977 5.7416041,10.992034 C 5.7416024,10.367095 5.8768926,9.85933 6.1474772,9.468738 C 6.4180568,9.078154 6.7675587,8.88286 7.1959838,8.882856 C 7.4189598,8.88286 7.6131273,8.945354 7.778487,9.070338 C 7.9463437,9.195331 8.067855,9.368752 8.1430215,9.590602 L 8.1430215,8.976597 L 8.9284614,8.976597 L 8.9284614,12.224731 C 9.2391243,12.165363 9.4833997,11.979443 9.6612878,11.666971 C 9.8391643,11.351377 9.9281053,10.94829 9.9281123,10.457709 C 9.9281053,10.145241 9.8917773,9.853081 9.8191273,9.581229 C 9.7464653,9.306258 9.6362278,9.054719 9.4884161,8.826611 C 9.2503984,8.445402 8.9522569,8.151679 8.5939915,7.945443 C 8.2382218,7.739218 7.8523915,7.636103 7.4365011,7.636097 C 7.1458721,7.636103 6.8677738,7.684536 6.6022057,7.781396 C 6.3366318,7.875143 6.0911038,8.014193 5.8656208,8.198545 C 5.4948212,8.504771 5.2054489,8.901608 4.9975032,9.389058 C 4.7920598,9.873392 4.689339,10.398342 4.6893399,10.963911 C 4.689339,11.429495 4.7557315,11.866953 4.8885186,12.276289 C 5.023808,12.682501 5.2179756,13.041842 5.4710218,13.354313 C 5.7215587,13.660534 6.0084258,13.893325 6.3316234,14.052685 C 6.657321,14.215169 7.0043176,14.296412 7.3726136,14.296413 C 7.6882885,14.296412 8.0039674,14.222981 8.3196512,14.07612 C 8.6353253,13.929259 8.9046545,13.73084 9.1276397,13.480864 L 9.5297552,14.240167 C 9.2165754,14.543263 8.8745899,14.774491 8.5037974,14.933853 C 8.1355006,15.096335 7.7609448,15.177578 7.38013,15.17758 C 6.9166293,15.177578 6.479439,15.074463 6.0685575,14.868234 C 5.6576712,14.665126 5.291885,14.368279 4.9711967,13.977692 C 4.6505053,13.587104 4.4062301,13.135584 4.2383698,12.623131 C 4.070508,12.107556 3.9865775,11.554483 3.986578,10.963911 C 3.9865775,10.395218 4.0717607,9.853081 4.2421279,9.337501 C 4.4124935,8.821928 4.655516,8.368847 4.9711967,7.978253 C 5.2868743,7.590795 5.6539132,7.290823 6.072316,7.078337 C 6.4932184,6.865864 6.9291564,6.759623 7.38013,6.759617 C 7.941333,6.759623 8.4511795,6.893986 8.9096709,7.162705 C 9.3681513,7.428311 9.7514753,7.812649 10.059645,8.315722 C 10.247542,8.621948 10.389097,8.954729 10.484309,9.314066 C 10.582012,9.670287 10.630867,10.04525 10.630874,10.438961 C 10.630867,11.285758 10.426678,11.943509 10.018306,12.412213 C 9.6099212,12.88092 9.0336823,13.115273 8.2895867,13.115273 L 8.1430215,13.115273 L 8.1430215,12.393465"
       id="text4838" />
    <path
       sodipodi:type="arc"
       style="opacity:0.94142259;fill:url(#radialGradient7479);fill-opacity:1;stroke:none;stroke-width:1;stroke-linecap:round;stroke-linejoin:round;stroke-miterlimit:4;stroke-dasharray:none;stroke-dashoffset:0;stroke-opacity:1"
       id="path6598"
       sodipodi:cx="27.930717"
       sodipodi:cy="18.124739"
       sodipodi:rx="9.1923885"
       sodipodi:ry="9.1923885"
       d="M 37.123106 18.124739 A 9.1923885 9.1923885 0 1 1  18.738329,18.124739 A 9.1923885 9.1923885 0 1 1  37.123106 18.124739 z"
       transform="matrix(0.489536,0,0,0.489536,-2.17309,-4.372704)" />
  </g>
</svg>
