<?xml version="1.0" encoding="UTF-8" standalone="no"?>
<!-- Created with Inkscape (http://www.inkscape.org/) -->
<svg
   xmlns:dc="http://purl.org/dc/elements/1.1/"
   xmlns:cc="http://web.resource.org/cc/"
   xmlns:rdf="http://www.w3.org/1999/02/22-rdf-syntax-ns#"
   xmlns:svg="http://www.w3.org/2000/svg"
   xmlns="http://www.w3.org/2000/svg"
   xmlns:xlink="http://www.w3.org/1999/xlink"
   xmlns:sodipodi="http://inkscape.sourceforge.net/DTD/sodipodi-0.dtd"
   xmlns:inkscape="http://www.inkscape.org/namespaces/inkscape"
   width="22"
   height="22"
   id="svg3917"
   sodipodi:version="0.32"
   inkscape:version="0.43+devel"
   sodipodi:docbase="/home/silvestre/Desktop/Neu/22x22/actions"
   sodipodi:docname="appointment-new.svg"
   inkscape:export-filename="/home/silvestre/Desktop/Neu/scalable/apps/evolution.png"
   inkscape:export-xdpi="90"
   inkscape:export-ydpi="90"
   version="1.0">
  <defs
     id="defs3919">
    <linearGradient
       id="linearGradient8358">
      <stop
         style="stop-color:#f5c548;stop-opacity:0.86868685;"
         offset="0"
         id="stop8360" />
      <stop
         style="stop-color:#ffce3e;stop-opacity:0.73737371;"
         offset="1"
         id="stop8362" />
    </linearGradient>
    <linearGradient
       id="linearGradient4934">
      <stop
         id="stop4938"
         offset="0"
         style="stop-color:#f9f9f9;stop-opacity:1" />
      <stop
         style="stop-color:#c3c3c3;stop-opacity:1"
         offset="1"
         id="stop4940" />
    </linearGradient>
    <linearGradient
       gradientUnits="userSpaceOnUse"
       y2="21.705061"
       x2="83.525612"
       y1="367.82727"
       x1="29.183714"
       id="linearGradient6540"
       xlink:href="#linearGradient6534"
       inkscape:collect="always" />
    <radialGradient
       gradientUnits="userSpaceOnUse"
       gradientTransform="matrix(0.91358,2.206993e-7,-4.100829e-8,0.169753,4.848958,95.59596)"
       r="54.105412"
       fy="136.4689"
       fx="56.109314"
       cy="115.14162"
       cx="56.109314"
       id="radialGradient6525"
       xlink:href="#linearGradient6519"
       inkscape:collect="always" />
    <linearGradient
       id="linearGradient4308">
      <stop
         id="stop4310"
         offset="0.0000000"
         style="stop-color:#ffffff;stop-opacity:0.22916669;" />
      <stop
         id="stop4312"
         offset="1"
         style="stop-color:#ffffff;stop-opacity:0;" />
    </linearGradient>
    <linearGradient
       id="linearGradient5044"
       inkscape:collect="always">
      <stop
         id="stop5046"
         offset="0"
         style="stop-color:#ffffff;stop-opacity:1;" />
      <stop
         id="stop5048"
         offset="1"
         style="stop-color:#ffffff;stop-opacity:0;" />
    </linearGradient>
    <linearGradient
       id="linearGradient6519"
       inkscape:collect="always">
      <stop
         id="stop6521"
         offset="0"
         style="stop-color:black;stop-opacity:0.39215687" />
      <stop
         id="stop6523"
         offset="1"
         style="stop-color:#000000;stop-opacity:0;" />
    </linearGradient>
    <linearGradient
       id="linearGradient6534"
       inkscape:collect="always">
      <stop
         id="stop6536"
         offset="0"
         style="stop-color:#000000;stop-opacity:0.39600000" />
      <stop
         id="stop6538"
         offset="1"
         style="stop-color:#000000;stop-opacity:0;" />
    </linearGradient>
    <linearGradient
       id="linearGradient4206"
       inkscape:collect="always">
      <stop
         id="stop4208"
         offset="0"
         style="stop-color:#ffffff;stop-opacity:1;" />
      <stop
         id="stop4210"
         offset="1"
         style="stop-color:#ffffff;stop-opacity:0.36909872" />
    </linearGradient>
    <linearGradient
       inkscape:collect="always"
       xlink:href="#linearGradient4206"
       id="linearGradient5825"
       gradientUnits="userSpaceOnUse"
       x1="59.64286"
       y1="14.832381"
       x2="59.64286"
       y2="121.82737"
       gradientTransform="matrix(0.141737,0,0,0.150596,-3.974832e-2,0.330544)" />
    <linearGradient
       inkscape:collect="always"
       xlink:href="#linearGradient5044"
       id="linearGradient5827"
       gradientUnits="userSpaceOnUse"
       gradientTransform="matrix(0.160955,0,0,0.17658,-0.7466,0.308613)"
       x1="67.070114"
       y1="-3.7457006"
       x2="67.070114"
       y2="69.195572" />
    <radialGradient
       inkscape:collect="always"
       xlink:href="#linearGradient4308"
       id="radialGradient5829"
       gradientUnits="userSpaceOnUse"
       gradientTransform="matrix(0.150859,-4.047132e-2,4.035415e-2,0.150785,-5.44914,4.810103)"
       cx="83.842957"
       cy="105.0536"
       fx="83.842957"
       fy="105.0536"
       r="56.442806" />
    <radialGradient
       inkscape:collect="always"
       xlink:href="#linearGradient4934"
       id="radialGradient5831"
       gradientUnits="userSpaceOnUse"
       gradientTransform="matrix(0.188347,8.98879e-17,-9.472587e-17,0.188347,-2.38358,-2.126489)"
       cx="77.420738"
       cy="82.518806"
       fx="77.420738"
       fy="82.518806"
       r="56.442806" />
    <radialGradient
       inkscape:collect="always"
       xlink:href="#linearGradient8358"
       id="radialGradient8385"
       gradientUnits="userSpaceOnUse"
       gradientTransform="matrix(-0.400739,-0.431266,-0.42805,0.460658,28.37682,9.270333)"
       cx="21.4375"
       cy="24.1875"
       fx="21.4375"
       fy="24.1875"
       r="9.6875" />
    <linearGradient
       id="linearGradient7473">
      <stop
         id="stop7475"
         offset="0"
         style="stop-color:white;stop-opacity:1;" />
      <stop
         style="stop-color:#fffc9d;stop-opacity:0.97254902;"
         offset="0.5"
         id="stop7481" />
      <stop
         id="stop7483"
         offset="0.75"
         style="stop-color:#fff409;stop-opacity:0.67676765;" />
      <stop
         id="stop7477"
         offset="1"
         style="stop-color:#fff409;stop-opacity:0;" />
    </linearGradient>
    <radialGradient
       inkscape:collect="always"
       xlink:href="#linearGradient7473"
       id="radialGradient9365"
       gradientUnits="userSpaceOnUse"
       cx="27.930717"
       cy="18.124739"
       fx="27.930717"
       fy="18.124739"
       r="9.1923885" />
  </defs>
  <sodipodi:namedview
     id="base"
     pagecolor="#ffffff"
     bordercolor="#666666"
     borderopacity="1.0"
     inkscape:pageopacity="0.0"
     inkscape:pageshadow="2"
     inkscape:zoom="1"
     inkscape:cx="11"
     inkscape:cy="11"
     inkscape:current-layer="layer1"
     showgrid="false"
     inkscape:grid-bbox="true"
     inkscape:document-units="px"
     inkscape:window-width="823"
     inkscape:window-height="536"
     inkscape:window-x="72"
     inkscape:window-y="111"
     inkscape:showpageshadow="false"
     showborder="false"
     width="22px"
     height="22px" />
  <metadata
     id="metadata3922">
    <rdf:RDF>
      <cc:Work
         rdf:about="">
        <dc:format>image/svg+xml</dc:format>
        <dc:type
           rdf:resource="http://purl.org/dc/dcmitype/StillImage" />
      </cc:Work>
    </rdf:RDF>
  </metadata>
  <g
     id="layer1"
     inkscape:label="Layer 1"
     inkscape:groupmode="layer">
    <path
       sodipodi:type="arc"
       style="color:black;fill:url(#linearGradient6540);fill-opacity:1;fill-rule:evenodd;stroke:none;stroke-width:3;stroke-linecap:round;stroke-linejoin:round;marker:none;marker-start:none;marker-mid:none;marker-end:none;stroke-miterlimit:4;stroke-dasharray:none;stroke-dashoffset:0;stroke-opacity:1;visibility:visible;display:inline;overflow:visible"
       id="path6532"
       sodipodi:cx="67.306274"
       sodipodi:cy="70.848709"
       sodipodi:rx="56.442806"
       sodipodi:ry="56.442806"
       d="M 123.74908 70.848709 A 56.442806 56.442806 0 1 1  10.863468,70.848709 A 56.442806 56.442806 0 1 1  123.74908 70.848709 z"
       transform="matrix(0.157287,0,-4.255849e-2,4.81752e-2,4.711751,14.50803)" />
    <path
       sodipodi:type="arc"
       style="color:black;fill:url(#radialGradient6525);fill-opacity:1;fill-rule:evenodd;stroke:none;stroke-width:3;stroke-linecap:round;stroke-linejoin:round;marker:none;marker-start:none;marker-mid:none;marker-end:none;stroke-miterlimit:4;stroke-dasharray:none;stroke-dashoffset:0;stroke-opacity:1;visibility:visible;display:inline;overflow:visible"
       id="path5065"
       sodipodi:cx="56.109314"
       sodipodi:cy="115.14162"
       sodipodi:rx="54.105412"
       sodipodi:ry="9.1845608"
       d="M 110.21473 115.14162 A 54.105412 9.1845608 0 1 1  2.0039024,115.14162 A 54.105412 9.1845608 0 1 1  110.21473 115.14162 z"
       transform="matrix(0.170496,0,0,0.246716,5.493463e-2,-8.673257)" />
    <path
       style="color:black;fill:url(#radialGradient5831);fill-opacity:1;fill-rule:evenodd;stroke:#1871bc;stroke-width:0.99999887;stroke-linecap:round;stroke-linejoin:round;marker:none;marker-start:none;marker-mid:none;marker-end:none;stroke-miterlimit:4;stroke-dashoffset:0;stroke-opacity:1;visibility:visible;display:inline;overflow:visible"
       d="M 19.5,10.999991 C 19.5,16.243988 15.244,20.499982 10,20.499982 C 4.756,20.499982 0.499999,16.243988 0.499999,10.999991 C 0.499999,5.7559962 4.756,1.4999989 10,1.4999989 C 15.244,1.4999989 19.5,5.7559962 19.5,10.999991 z "
       id="path1359" />
    <path
       style="color:black;fill:url(#radialGradient5829);fill-opacity:1;fill-rule:evenodd;stroke:none;stroke-width:3;stroke-linecap:round;stroke-linejoin:round;marker:none;marker-start:none;marker-mid:none;marker-end:none;stroke-miterlimit:4;stroke-dashoffset:0;stroke-opacity:1;visibility:visible;display:inline;overflow:visible"
       d="M 17.819935,11.453621 C 17.819935,16.262815 14.108339,20.165928 9.535123,20.165928 C 4.961907,20.165928 1.250312,16.262815 1.250312,11.453621 C 1.250312,6.6444268 4.961907,2.7413128 9.535123,2.7413128 C 14.108339,2.7413128 17.819935,6.6444268 17.819935,11.453621 z "
       id="path2854" />
    <path
       style="color:black;fill:none;fill-opacity:1;fill-rule:evenodd;stroke:#5192ca;stroke-width:2.99999666;stroke-linecap:round;stroke-linejoin:round;marker:none;marker-start:none;marker-mid:none;marker-end:none;stroke-miterlimit:4;stroke-dasharray:none;stroke-dashoffset:0;stroke-opacity:1;visibility:visible;display:inline;overflow:visible"
       d="M 17.499994,11.000003 C 17.499994,15.140006 14.139994,18.500008 9.9999959,18.500008 C 5.859997,18.500008 2.4999983,15.140006 2.4999983,11.000003 C 2.4999983,6.8600014 5.859997,3.4999988 9.9999959,3.4999988 C 14.139994,3.4999988 17.499994,6.8600014 17.499994,11.000003 z "
       id="path5733" />
    <path
       style="color:black;fill:none;fill-opacity:1;fill-rule:evenodd;stroke:url(#linearGradient5825);stroke-width:0.99999487;stroke-linecap:round;stroke-linejoin:round;marker:none;marker-start:none;marker-mid:none;marker-end:none;stroke-miterlimit:4;stroke-dashoffset:0;stroke-opacity:0.79399139;visibility:visible;display:inline;overflow:visible"
       d="M 17.499999,11 C 17.499999,15.692003 13.915998,19.500003 9.499997,19.500003 C 5.0839958,19.500003 1.4999968,15.692003 1.4999968,11 C 1.4999968,6.3079986 5.0839958,2.4999978 9.499997,2.4999978 C 13.915998,2.4999978 17.499999,6.3079986 17.499999,11 z "
       id="path3331" />
    <path
       style="opacity:0.68619247;fill:#696969;fill-opacity:0.86266097;stroke:none;stroke-width:1;stroke-linecap:round;stroke-linejoin:round;stroke-miterlimit:4;stroke-dasharray:none;stroke-dashoffset:0;stroke-opacity:1"
       d="M 9.0687959,4 L 9.0687959,5.9722864 L 9.9950867,5.9722864 L 9.9950867,4 L 9.0687959,4 z M 6.8968057,5.3903002 L 6.1621621,5.8429561 L 6.5773954,6.6189376 L 7.2800981,6.1662818 L 6.8968057,5.3903002 z M 12.007371,5.3903002 L 11.624079,6.1662818 L 12.358722,6.6189376 L 12.742015,5.8429561 L 12.007371,5.3903002 z M 4.5651105,7.556582 L 4.1498771,8.3648961 L 4.8206388,8.7852194 L 5.2358722,8.0092379 L 4.5651105,7.556582 z M 14.307126,7.5889145 L 13.636363,8.0092379 L 14.051598,8.817552 L 14.722359,8.3972286 L 14.307126,7.5889145 z M 3,10.466513 L 3,11.468822 L 4.7886977,11.468822 L 4.7886977,10.466513 L 3,10.466513 z M 14.275184,10.466513 L 14.275184,11.468822 L 16,11.468822 L 16,10.466513 L 14.275184,10.466513 z M 14.051598,13.602771 L 13.636363,14.378753 L 14.307126,14.831409 L 14.722359,14.023095 L 14.051598,13.602771 z M 4.8206388,13.635104 L 4.1498771,14.055427 L 4.5651105,14.863741 L 5.2358722,14.411085 L 4.8206388,13.635104 z M 6.5454544,15.833718 L 6.1621621,16.6097 L 6.8648647,17.062356 L 7.2481571,16.318707 L 6.5454544,15.833718 z M 12.358722,15.833718 L 11.65602,16.318707 L 12.039312,17.062356 L 12.773956,16.6097 L 12.358722,15.833718 z M 9.0687959,16.124711 L 9.0687959,18 L 9.9950867,18 L 9.9950867,16.124711 L 9.0687959,16.124711 z "
       id="rect5821" />
    <path
       style="fill:url(#radialGradient8385);fill-opacity:1;stroke:none;stroke-width:3;stroke-linecap:round;stroke-linejoin:round;stroke-miterlimit:4;stroke-dashoffset:0;stroke-opacity:1"
       d="M 9.4325303,4.8561348 C 6.1954005,4.8561368 3.5681642,7.6835068 3.5681638,11.16723 L 9.432529,11.167226 L 9.4325303,4.8561348 z "
       id="path7483" />
    <path
       style="opacity:0.96610879;fill:#414141;fill-opacity:1;stroke:none;stroke-width:1;stroke-linecap:round;stroke-linejoin:round;stroke-miterlimit:4;stroke-dashoffset:0;stroke-opacity:1"
       d="M 13.499532,13.846085 L 9.9586673,11.623885 L 5.44187,11.631069 L 5.4107554,10.716438 L 9.6221118,10.693152 L 10.16666,10.71911 L 13.943582,13.077503 L 13.499532,13.846085 z "
       id="rect5849"
       sodipodi:nodetypes="cccccccc" />
    <path
       style="color:black;fill:#4082bc;fill-opacity:1;fill-rule:evenodd;stroke:none;stroke-width:0.99999905;stroke-linecap:round;stroke-linejoin:round;marker:none;marker-start:none;marker-mid:none;marker-end:none;stroke-miterlimit:4;stroke-dashoffset:0;stroke-opacity:1;visibility:visible;display:inline;overflow:visible"
       d="M 9.6580829,2.0008163 C 14.331181,2.1278502 18.088594,6.112489 18.088594,11.000001 C 18.088594,15.887512 14.331181,19.87215 9.6580829,19.999183 C 9.7337943,20.001021 9.8097778,19.999183 9.8859346,19.999183 C 14.916899,19.999183 19,15.967551 19,11.000001 C 19,6.0324511 14.916899,2.0008163 9.8859346,2.0008163 C 9.8097778,2.0008163 9.7337943,1.9989796 9.6580829,2.0008163 z "
       id="path8387" />
    <path
       style="opacity:0.68619247;color:black;fill:url(#linearGradient5827);fill-opacity:1;fill-rule:evenodd;stroke:none;stroke-width:3;stroke-linecap:round;stroke-linejoin:round;marker:none;marker-start:none;marker-mid:none;marker-end:none;stroke-miterlimit:4;stroke-dashoffset:0;stroke-opacity:1;visibility:visible;display:inline;overflow:visible"
       d="M 16.700778,7.8982648 C 16.700778,10.821699 13.439677,13.194342 9.421532,13.194342 C 5.403388,13.194342 2.142287,10.821699 2.142287,7.8982648 C 2.142287,5.6133658 5.709801,2.6021878 9.421532,2.6021878 C 13.571107,2.6021878 16.700778,5.7458398 16.700778,7.8982648 z "
       id="path4316" />
    <path
       sodipodi:type="arc"
       style="opacity:1;fill:url(#radialGradient9365);fill-opacity:1;stroke:none;stroke-width:1;stroke-linecap:round;stroke-linejoin:round;stroke-miterlimit:4;stroke-dasharray:none;stroke-dashoffset:0;stroke-opacity:1"
       id="path6598"
       sodipodi:cx="27.930717"
       sodipodi:cy="18.124739"
       sodipodi:rx="9.1923885"
       sodipodi:ry="9.1923885"
       d="M 37.123106 18.124739 A 9.1923885 9.1923885 0 1 1  18.738329,18.124739 A 9.1923885 9.1923885 0 1 1  37.123106 18.124739 z"
       transform="matrix(0.489535,0,0,0.489196,1.82694,-4.36967)" />
  </g>
</svg>
