<?xml version="1.0" encoding="UTF-8" standalone="no"?>
<!-- Created with Inkscape (http://www.inkscape.org/) -->
<svg
   xmlns:dc="http://purl.org/dc/elements/1.1/"
   xmlns:cc="http://web.resource.org/cc/"
   xmlns:rdf="http://www.w3.org/1999/02/22-rdf-syntax-ns#"
   xmlns:svg="http://www.w3.org/2000/svg"
   xmlns="http://www.w3.org/2000/svg"
   xmlns:xlink="http://www.w3.org/1999/xlink"
   xmlns:sodipodi="http://inkscape.sourceforge.net/DTD/sodipodi-0.dtd"
   xmlns:inkscape="http://www.inkscape.org/namespaces/inkscape"
   width="22"
   height="22"
   id="svg3917"
   sodipodi:version="0.32"
   inkscape:version="0.43+devel"
   sodipodi:docbase="/home/silvestre/Desktop/Neu/22x22/actions"
   sodipodi:docname="contact-new.svg"
   version="1.0">
  <defs
     id="defs3919">
    <linearGradient
       inkscape:collect="always"
       id="linearGradient13141">
      <stop
         style="stop-color:white;stop-opacity:1;"
         offset="0"
         id="stop13143" />
      <stop
         style="stop-color:white;stop-opacity:0.34117648"
         offset="1"
         id="stop13145" />
    </linearGradient>
    <linearGradient
       inkscape:collect="always"
       id="linearGradient13131">
      <stop
         style="stop-color:white;stop-opacity:1;"
         offset="0"
         id="stop13133" />
      <stop
         style="stop-color:white;stop-opacity:0.58823532"
         offset="1"
         id="stop13135" />
    </linearGradient>
    <linearGradient
       inkscape:collect="always"
       id="linearGradient11375">
      <stop
         style="stop-color:black;stop-opacity:0.51502144"
         offset="0"
         id="stop11377" />
      <stop
         style="stop-color:black;stop-opacity:0;"
         offset="1"
         id="stop11379" />
    </linearGradient>
    <linearGradient
       id="linearGradient9615"
       inkscape:collect="always">
      <stop
         id="stop9617"
         offset="0"
         style="stop-color:#f8f8f8;stop-opacity:1" />
      <stop
         id="stop9619"
         offset="1"
         style="stop-color:#e4e4e4;stop-opacity:1" />
    </linearGradient>
    <linearGradient
       inkscape:collect="always"
       id="linearGradient7854">
      <stop
         style="stop-color:#6e6e6e;stop-opacity:1"
         offset="0"
         id="stop7856" />
      <stop
         style="stop-color:#505050;stop-opacity:1"
         offset="1"
         id="stop7858" />
    </linearGradient>
    <linearGradient
       id="linearGradient4832">
      <stop
         id="stop4834"
         offset="0"
         style="stop-color:#fffdf5;stop-opacity:1;" />
      <stop
         style="stop-color:#ffe16f;stop-opacity:1;"
         offset="0.5"
         id="stop4840" />
      <stop
         id="stop4842"
         offset="0.75"
         style="stop-color:#c4a600;stop-opacity:1;" />
      <stop
         id="stop4836"
         offset="1"
         style="stop-color:#aa9000;stop-opacity:1;" />
    </linearGradient>
    <linearGradient
       id="linearGradient8342"
       inkscape:collect="always">
      <stop
         id="stop8344"
         offset="0"
         style="stop-color:white;stop-opacity:1;" />
      <stop
         id="stop8346"
         offset="1"
         style="stop-color:white;stop-opacity:0;" />
    </linearGradient>
    <linearGradient
       id="linearGradient10098"
       inkscape:collect="always">
      <stop
         id="stop10100"
         offset="0"
         style="stop-color:white;stop-opacity:1;" />
      <stop
         id="stop10102"
         offset="1"
         style="stop-color:white;stop-opacity:0.3004292" />
    </linearGradient>
    <linearGradient
       id="linearGradient12737"
       inkscape:collect="always">
      <stop
         id="stop12739"
         offset="0"
         style="stop-color:white;stop-opacity:1;" />
      <stop
         id="stop12741"
         offset="1"
         style="stop-color:white;stop-opacity:0;" />
    </linearGradient>
    <linearGradient
       id="linearGradient18874"
       inkscape:collect="always">
      <stop
         id="stop18876"
         offset="0"
         style="stop-color:#ddd;stop-opacity:1" />
      <stop
         id="stop18878"
         offset="1"
         style="stop-color:black;stop-opacity:1" />
    </linearGradient>
    <linearGradient
       id="linearGradient21548"
       inkscape:collect="always">
      <stop
         id="stop21550"
         offset="0"
         style="stop-color:white;stop-opacity:1;" />
      <stop
         id="stop21552"
         offset="1"
         style="stop-color:white;stop-opacity:0;" />
    </linearGradient>
    <linearGradient
       id="linearGradient22429"
       inkscape:collect="always">
      <stop
         id="stop22431"
         offset="0"
         style="stop-color:black;stop-opacity:1;" />
      <stop
         id="stop22433"
         offset="1"
         style="stop-color:black;stop-opacity:0;" />
    </linearGradient>
    <linearGradient
       id="linearGradient26840"
       inkscape:collect="always">
      <stop
         id="stop26842"
         offset="0"
         style="stop-color:#dd1a1a;stop-opacity:1" />
      <stop
         id="stop26844"
         offset="1"
         style="stop-color:#971212;stop-opacity:1" />
    </linearGradient>
    <linearGradient
       id="linearGradient4925">
      <stop
         id="stop4927"
         offset="0"
         style="stop-color:white;stop-opacity:1" />
      <stop
         style="stop-color:#f3f3f3;stop-opacity:1;"
         offset="0.5"
         id="stop4933" />
      <stop
         id="stop4929"
         offset="1"
         style="stop-color:#bfbfbf;stop-opacity:1;" />
    </linearGradient>
    <radialGradient
       inkscape:collect="always"
       xlink:href="#linearGradient4832"
       id="radialGradient5161"
       gradientUnits="userSpaceOnUse"
       gradientTransform="matrix(1.166794,1.633432e-16,-1.633432e-16,1.166794,-14.1775,-2.918896)"
       cx="83.051956"
       cy="15.584253"
       fx="83.051956"
       fy="15.584253"
       r="21.75" />
    <linearGradient
       inkscape:collect="always"
       xlink:href="#linearGradient8342"
       id="linearGradient5163"
       gradientUnits="userSpaceOnUse"
       x1="85.622726"
       y1="-5.7974238"
       x2="85.622726"
       y2="45.035698" />
    <linearGradient
       inkscape:collect="always"
       xlink:href="#linearGradient10098"
       id="linearGradient5165"
       gradientUnits="userSpaceOnUse"
       x1="75.860703"
       y1="-0.11439113"
       x2="87.538048"
       y2="43.466064" />
    <linearGradient
       inkscape:collect="always"
       xlink:href="#linearGradient12737"
       id="linearGradient5167"
       gradientUnits="userSpaceOnUse"
       x1="82.341637"
       y1="22.807331"
       x2="75.412285"
       y2="18.754719" />
    <radialGradient
       inkscape:collect="always"
       xlink:href="#linearGradient4925"
       id="radialGradient5169"
       gradientUnits="userSpaceOnUse"
       gradientTransform="matrix(1.25531,2.096951e-16,-4.959457e-16,0.640731,-19.4913,7.401295)"
       cx="76.34375"
       cy="18.108305"
       fx="76.34375"
       fy="18.108305"
       r="6" />
    <radialGradient
       inkscape:collect="always"
       xlink:href="#linearGradient18874"
       id="radialGradient5171"
       gradientUnits="userSpaceOnUse"
       gradientTransform="matrix(1,0,0,1.44898,1.175381e-13,-9.723214)"
       cx="97.03125"
       cy="21.656244"
       fx="97.03125"
       fy="20.5779"
       r="1.53125" />
    <linearGradient
       inkscape:collect="always"
       xlink:href="#linearGradient12737"
       id="linearGradient5173"
       gradientUnits="userSpaceOnUse"
       x1="82.341637"
       y1="22.807331"
       x2="75.412285"
       y2="18.754719" />
    <radialGradient
       inkscape:collect="always"
       xlink:href="#linearGradient4925"
       id="radialGradient5175"
       gradientUnits="userSpaceOnUse"
       gradientTransform="matrix(1.134321,-0.269128,0.271418,0.699749,-15.12345,27.06597)"
       cx="76.159027"
       cy="17.322357"
       fx="76.159027"
       fy="17.322357"
       r="6" />
    <radialGradient
       inkscape:collect="always"
       xlink:href="#linearGradient18874"
       id="radialGradient5177"
       gradientUnits="userSpaceOnUse"
       gradientTransform="matrix(1,-0.759933,0.680865,1.213188,-14.74497,69.12039)"
       cx="97.03125"
       cy="21.656244"
       fx="97.03125"
       fy="20.5779"
       r="1.53125" />
    <linearGradient
       inkscape:collect="always"
       xlink:href="#linearGradient22429"
       id="linearGradient5179"
       gradientUnits="userSpaceOnUse"
       gradientTransform="matrix(0.98655,0,0,1.019267,74.93026,-75.64526)"
       x1="89.283569"
       y1="30.661186"
       x2="89.283569"
       y2="42.931355" />
    <linearGradient
       inkscape:collect="always"
       xlink:href="#linearGradient21548"
       id="linearGradient5181"
       gradientUnits="userSpaceOnUse"
       gradientTransform="matrix(0.98655,0,0,1.019267,74.93026,-75.64526)"
       x1="91"
       y1="41.25"
       x2="88.553329"
       y2="32.118896" />
    <linearGradient
       inkscape:collect="always"
       xlink:href="#linearGradient26840"
       id="linearGradient5183"
       gradientUnits="userSpaceOnUse"
       gradientTransform="matrix(0.854894,0,0,1.189178,86.84086,-83.87492)"
       x1="88.379189"
       y1="39.938652"
       x2="88.379189"
       y2="36.394733" />
    <linearGradient
       inkscape:collect="always"
       xlink:href="#linearGradient7854"
       id="linearGradient7860"
       x1="15.6875"
       y1="31.620987"
       x2="15.6875"
       y2="36.003387"
       gradientUnits="userSpaceOnUse"
       gradientTransform="matrix(0.441176,0,0,0.500001,-8.823489e-2,-0.999997)" />
    <linearGradient
       inkscape:collect="always"
       xlink:href="#linearGradient9615"
       id="linearGradient9624"
       gradientUnits="userSpaceOnUse"
       gradientTransform="matrix(0.497855,0,0,0.505206,-0.74464,-0.385818)"
       x1="22.124464"
       y1="22.509439"
       x2="22.124464"
       y2="36.63607" />
    <linearGradient
       inkscape:collect="always"
       xlink:href="#linearGradient11375"
       id="linearGradient11381"
       x1="50.348782"
       y1="22.6915"
       x2="43.209671"
       y2="22.6915"
       gradientUnits="userSpaceOnUse"
       gradientTransform="matrix(0.333333,0,0,0.486487,5.333329,-0.43243)" />
    <linearGradient
       inkscape:collect="always"
       xlink:href="#linearGradient13131"
       id="linearGradient13137"
       x1="23.274334"
       y1="7.1232281"
       x2="23.274334"
       y2="46.824097"
       gradientUnits="userSpaceOnUse"
       gradientTransform="matrix(0.422222,0,0,0.472222,0.86667,-9.722385e-2)" />
    <linearGradient
       inkscape:collect="always"
       xlink:href="#linearGradient13141"
       id="linearGradient13147"
       x1="43.356365"
       y1="4.9198756"
       x2="43.356365"
       y2="33.896168"
       gradientUnits="userSpaceOnUse"
       gradientTransform="matrix(0.446808,0,0,0.444079,6.385218e-2,0.804819)" />
    <linearGradient
       id="linearGradient7473">
      <stop
         id="stop7475"
         offset="0"
         style="stop-color:white;stop-opacity:1;" />
      <stop
         style="stop-color:#fffc9d;stop-opacity:0.97254902;"
         offset="0.5"
         id="stop7481" />
      <stop
         id="stop7483"
         offset="0.75"
         style="stop-color:#fff409;stop-opacity:0.67676765;" />
      <stop
         id="stop7477"
         offset="1"
         style="stop-color:#fff409;stop-opacity:0;" />
    </linearGradient>
    <radialGradient
       inkscape:collect="always"
       xlink:href="#linearGradient7473"
       id="radialGradient13266"
       gradientUnits="userSpaceOnUse"
       cx="27.930717"
       cy="18.124739"
       fx="27.930717"
       fy="18.124739"
       r="9.1923885" />
  </defs>
  <sodipodi:namedview
     id="base"
     pagecolor="#ffffff"
     bordercolor="#666666"
     borderopacity="1.0"
     inkscape:pageopacity="0.0"
     inkscape:pageshadow="2"
     inkscape:zoom="1"
     inkscape:cx="11"
     inkscape:cy="11"
     inkscape:current-layer="layer1"
     showgrid="false"
     inkscape:grid-bbox="true"
     inkscape:document-units="px"
     inkscape:showpageshadow="false"
     showborder="false"
     inkscape:window-width="823"
     inkscape:window-height="536"
     inkscape:window-x="10"
     inkscape:window-y="66"
     width="22px"
     height="22px" />
  <metadata
     id="metadata3922">
    <rdf:RDF>
      <cc:Work
         rdf:about="">
        <dc:format>image/svg+xml</dc:format>
        <dc:type
           rdf:resource="http://purl.org/dc/dcmitype/StillImage" />
      </cc:Work>
    </rdf:RDF>
  </metadata>
  <g
     id="layer1"
     inkscape:label="Layer 1"
     inkscape:groupmode="layer">
    <path
       style="opacity:1;fill:url(#linearGradient9624);fill-opacity:1;stroke:#969696;stroke-width:0.99999917;stroke-linecap:round;stroke-linejoin:round;stroke-miterlimit:4;stroke-dashoffset:0;stroke-opacity:1"
       d="M 1.476742,3.4032312 L 20.048842,1.500001 L 21.499966,2.7051725 L 21.499966,19.18548 L 20.048842,20.500005 L 1.476742,19.06461 C 0.935627,19.06461 0.5,18.613968 0.5,18.054199 L 0.5,4.4136421 C 0.5,3.8538754 0.935627,3.4032312 1.476742,3.4032312 z "
       id="rect3925"
       sodipodi:nodetypes="ccccccccc" />
    <g
       transform="matrix(0.135266,0,0,0.134921,-17.12163,15.55295)"
       id="g28659">
      <path
         sodipodi:type="arc"
         style="opacity:1;fill:url(#radialGradient5161);fill-opacity:1;stroke:#8e7d00;stroke-width:3.66963808;stroke-linecap:round;stroke-linejoin:round;stroke-miterlimit:4;stroke-dasharray:none;stroke-dashoffset:0;stroke-opacity:1"
         id="path28661"
         sodipodi:cx="87.875"
         sodipodi:cy="23.625"
         sodipodi:rx="21.25"
         sodipodi:ry="21.25"
         d="M 109.125 23.625 A 21.25 21.25 0 1 1  66.625,23.625 A 21.25 21.25 0 1 1  109.125 23.625 z"
         transform="matrix(1.010391,0,0,1.006783,72.86611,-75.16977)" />
      <path
         sodipodi:type="arc"
         style="opacity:1;fill:url(#linearGradient5163);fill-opacity:1;stroke:none;stroke-width:5.99022203;stroke-linecap:round;stroke-linejoin:round;stroke-miterlimit:4;stroke-dasharray:none;stroke-dashoffset:0;stroke-opacity:1"
         id="path28663"
         sodipodi:cx="87.875"
         sodipodi:cy="23.625"
         sodipodi:rx="21.25"
         sodipodi:ry="21.25"
         d="M 109.125 23.625 A 21.25 21.25 0 1 1  66.625,23.625 A 21.25 21.25 0 1 1  109.125 23.625 z"
         transform="matrix(0.771909,0,0,0.494561,93.93568,-72.30754)" />
      <path
         sodipodi:type="arc"
         style="opacity:1;fill:none;fill-opacity:1;stroke:url(#linearGradient5165);stroke-width:4.3368667;stroke-linecap:round;stroke-linejoin:round;stroke-miterlimit:4;stroke-dasharray:none;stroke-dashoffset:0;stroke-opacity:1"
         id="path28665"
         sodipodi:cx="87.875"
         sodipodi:cy="23.625"
         sodipodi:rx="21.25"
         sodipodi:ry="21.25"
         d="M 109.125 23.625 A 21.25 21.25 0 1 1  66.625,23.625 A 21.25 21.25 0 1 1  109.125 23.625 z"
         transform="matrix(0.854942,0,0,0.851889,86.52627,-71.5105)" />
      <g
         id="g28667"
         transform="matrix(1.137951,0,0,1.044462,55.58063,-76.85726)"
         style="stroke-width:3.39490638;stroke-miterlimit:4;stroke-dasharray:none">
        <path
           transform="matrix(1.185096,0,0,2.55102,3.773128,-29.67347)"
           d="M 83.875 19.9375 A 6 3.0625 0 1 1  71.875,19.9375 A 6 3.0625 0 1 1  83.875 19.9375 z"
           sodipodi:ry="3.0625"
           sodipodi:rx="6"
           sodipodi:cy="19.9375"
           sodipodi:cx="77.875"
           id="path28669"
           style="opacity:0.66527201;fill:black;fill-opacity:0.79399139;stroke:url(#linearGradient5167);stroke-width:1.95251376;stroke-linecap:round;stroke-linejoin:round;stroke-miterlimit:4;stroke-dasharray:none;stroke-dashoffset:0;stroke-opacity:1"
           sodipodi:type="arc" />
        <path
           transform="matrix(1.080929,0,0,2.326792,11.88511,-25.20293)"
           style="fill:url(#radialGradient5169);fill-opacity:1;stroke:none;stroke-width:2.14067352;stroke-linecap:round;stroke-linejoin:round;stroke-miterlimit:4;stroke-dashoffset:0;stroke-opacity:1;stroke-dasharray:none"
           d="M 83.875,19.9375 C 83.875,21.628 81.187,23 77.875,23 C 74.563,23 71.875,21.628 71.875,19.9375 C 71.875,18.247 74.563,16.875 77.875,16.875 C 81.187,16.875 83.875,18.247 83.875,19.9375 z "
           id="path28671" />
        <path
           transform="matrix(1.693537,0,0,1.460974,-69.58096,-9.187924)"
           d="M 98.5625 21.65625 A 1.53125 2.21875 0 1 1  95.5,21.65625 A 1.53125 2.21875 0 1 1  98.5625 21.65625 z"
           sodipodi:ry="2.21875"
           sodipodi:rx="1.53125"
           sodipodi:cy="21.65625"
           sodipodi:cx="97.03125"
           id="path28673"
           style="opacity:1;fill:url(#radialGradient5171);fill-opacity:1;stroke:none;stroke-width:2.15828709;stroke-linecap:round;stroke-linejoin:round;stroke-miterlimit:4;stroke-dasharray:none;stroke-dashoffset:0;stroke-opacity:1"
           sodipodi:type="arc" />
      </g>
      <g
         id="g28675"
         transform="matrix(0.819848,0,0,1.743693,79.22553,-91.07357)"
         style="stroke-width:3.09552433;stroke-miterlimit:4;stroke-dasharray:none">
        <path
           transform="matrix(1.185096,0,0,1.515268,-12.91437,-9.335655)"
           style="opacity:0.66527201;fill:black;fill-opacity:0.79399139;stroke:url(#linearGradient5173);stroke-width:2.31000399;stroke-linecap:round;stroke-linejoin:round;stroke-miterlimit:4;stroke-dasharray:none;stroke-dashoffset:0;stroke-opacity:1"
           d="M 83.875,19.9375 C 83.875,21.628 81.187,23 77.875,23 C 76.220509,23 73.617112,22.799384 73.60083,21.885817 C 73.598575,21.75926 73.598253,21.635046 73.599969,21.513043 C 74.130782,21.571138 75.22073,18.599435 74.696801,17.882889 C 74.839131,17.689249 74.997277,17.498679 75.172348,17.309778 C 75.622549,16.824012 76.89588,16.875 77.875,16.875 C 81.187,16.875 83.875,18.247 83.875,19.9375 z "
           id="path28677"
           sodipodi:nodetypes="cssccssc" />
        <path
           style="fill:url(#radialGradient5175);fill-opacity:1;stroke:none;stroke-width:2.53261425;stroke-linecap:round;stroke-linejoin:round;stroke-miterlimit:4;stroke-dashoffset:0;stroke-opacity:1;stroke-dasharray:none"
           d="M 83.875,19.9375 C 83.875,21.628 81.187,23 77.875,23 C 76.144565,23 73.445601,22.712646 73.489089,21.764069 C 72.913112,20.085941 73.752281,18.315767 75.067938,17.35527 C 75.685082,16.904724 76.861096,16.875 77.875,16.875 C 81.187,16.875 83.875,18.247 83.875,19.9375 z "
           id="path28679"
           sodipodi:nodetypes="cscssc"
           transform="matrix(1.080929,0,0,1.38208,-4.80239,-6.680221)" />
        <path
           transform="matrix(2.018976,0,0,0.97927,-116.1862,0.835945)"
           d="M 98.5625 21.65625 A 1.53125 2.21875 0 1 1  95.5,21.65625 A 1.53125 2.21875 0 1 1  98.5625 21.65625 z"
           sodipodi:ry="2.21875"
           sodipodi:rx="1.53125"
           sodipodi:cy="21.65625"
           sodipodi:cx="97.03125"
           id="path28681"
           style="fill:url(#radialGradient5177);fill-opacity:1;stroke:none;stroke-width:2.20149356;stroke-linecap:round;stroke-linejoin:round;stroke-miterlimit:4;stroke-dasharray:none;stroke-dashoffset:0;stroke-opacity:1"
           sodipodi:type="arc" />
      </g>
      <path
         style="fill:url(#linearGradient5179);fill-opacity:1;stroke:url(#linearGradient5181);stroke-width:3.70114334;stroke-linecap:round;stroke-linejoin:round;stroke-miterlimit:4;stroke-dashoffset:0;stroke-opacity:1;stroke-dasharray:none"
         d="M 173.21535,-40.066457 C 173.21535,-37.341191 168.03596,-33.281959 161.65422,-33.281959 C 155.27246,-33.281959 150.09307,-37.341191 150.09307,-40.066457 C 150.09307,-42.791724 155.27246,-43.156112 161.65422,-43.156112 C 168.03596,-43.156112 173.21535,-42.791724 173.21535,-40.066457 z "
         id="path28683"
         sodipodi:nodetypes="csssc" />
      <path
         style="opacity:1;fill:url(#linearGradient5183);fill-opacity:1;stroke:none;stroke-width:3.70114334;stroke-linecap:round;stroke-linejoin:round;stroke-miterlimit:4;stroke-dasharray:none;stroke-dashoffset:0;stroke-opacity:1"
         d="M 158.49162,-41.510452 C 155.9996,-41.510452 154.50479,-39.693272 155.23234,-37.980079 C 156.99476,-33.830058 165.90978,-34.216084 168.00231,-37.311167 C 168.98229,-38.760665 167.07658,-41.510452 163.94156,-41.510452 C 163.10399,-41.510452 161.8135,-40.101148 161.18988,-39.652361 C 160.56625,-40.101148 159.3292,-41.510452 158.49162,-41.510452 z "
         id="path28685"
         sodipodi:nodetypes="cssscc" />
      <path
         style="font-size:16.42194557px;font-style:normal;font-variant:normal;font-weight:bold;font-stretch:normal;text-align:start;line-height:125%;writing-mode:lr-tb;text-anchor:start;fill:#505050;fill-opacity:1;stroke:none;stroke-width:1px;stroke-linecap:butt;stroke-linejoin:miter;stroke-opacity:1;font-family:Bitstream Vera Sans"
         d="M 188.10761,-68.208512 L 191.14111,-68.294742 L 191.14111,-57.087344 C 191.1411,-55.540921 190.74189,-54.373917 189.94346,-53.586323 C 189.15029,-52.798883 187.9474,-52.382241 186.33479,-52.336398 L 185.72021,-52.318929 L 185.72021,-54.738329 L 186.19296,-54.751768 C 186.82331,-54.769687 187.29868,-54.968881 187.61911,-55.349351 C 187.94478,-55.729972 188.1076,-56.280559 188.10761,-57.001114 L 188.10761,-68.208512 M 198.16936,-63.489439 C 197.54426,-63.471662 197.06626,-63.219737 196.73533,-62.733663 C 196.40966,-62.253268 196.24683,-61.566884 196.24683,-60.67451 C 196.24683,-59.782127 196.40966,-59.10223 196.73533,-58.634815 C 197.06626,-58.173088 197.54426,-57.951108 198.16936,-57.96888 C 198.78393,-57.986348 199.25404,-58.235277 199.57973,-58.715669 C 199.9054,-59.201596 200.06824,-59.890753 200.06824,-60.783137 C 200.06824,-61.67551 199.9054,-62.352636 199.57973,-62.814517 C 199.25404,-63.281926 198.78393,-63.5069 198.16936,-63.489439 M 198.16936,-65.617847 C 199.6874,-65.660989 200.87192,-65.262326 201.72287,-64.421858 C 202.57907,-63.581522 203.00717,-62.396464 203.00718,-60.866677 C 203.00717,-59.336879 202.57907,-58.127483 201.72287,-57.238482 C 200.87192,-56.349627 199.6874,-55.883623 198.16936,-55.840473 C 196.64604,-55.797171 195.45364,-56.195609 194.5922,-57.035788 C 193.73599,-57.876113 193.30788,-59.061172 193.30788,-60.590969 C 193.30788,-62.120757 193.73599,-63.330154 194.5922,-64.219166 C 195.45364,-65.108309 196.64604,-65.574536 198.16936,-65.617847 M 213.93564,-62.199957 L 213.93564,-56.529745 L 211.09912,-56.449115 L 211.09912,-57.37198 L 211.09912,-60.772445 C 211.09911,-61.58722 211.08073,-62.146513 211.04397,-62.450324 C 211.01245,-62.754272 210.95467,-62.977109 210.87062,-63.118838 C 210.76031,-63.309692 210.61061,-63.45509 210.42151,-63.555034 C 210.2324,-63.660505 210.01705,-63.70981 209.77542,-63.702948 C 209.18711,-63.686218 208.72486,-63.431971 208.38868,-62.940205 C 208.05249,-62.453968 207.88441,-61.786834 207.88441,-60.938802 L 207.88441,-56.357736 L 205.06366,-56.277554 L 205.06366,-69.214284 L 207.88441,-69.294466 L 207.88441,-64.30601 C 208.30988,-64.861283 208.76162,-65.273201 209.23963,-65.541761 C 209.71763,-65.815848 210.24554,-65.961107 210.82334,-65.977543 C 211.84239,-66.006499 212.61454,-65.698656 213.13985,-65.054011 C 213.67035,-64.409501 213.93563,-63.458148 213.93564,-62.199957 M 225.43927,-62.526953 L 225.43927,-56.856742 L 222.60276,-56.776112 L 222.60276,-57.698978 L 222.60276,-61.11607 C 222.60276,-61.919759 222.58437,-62.47351 222.54761,-62.777321 C 222.51608,-63.081267 222.4583,-63.304106 222.37427,-63.445835 C 222.26396,-63.63669 222.11425,-63.782086 221.92516,-63.882031 C 221.73604,-63.987502 221.52068,-64.036807 221.27906,-64.029945 C 220.69074,-64.013215 220.2285,-63.758967 219.89232,-63.267202 C 219.55613,-62.780965 219.38804,-62.113831 219.38804,-61.265797 L 219.38804,-56.684732 L 216.5673,-56.604552 L 216.5673,-65.916337 L 219.38804,-65.996517 L 219.38804,-64.633006 C 219.81352,-65.188279 220.26525,-65.600196 220.74326,-65.868758 C 221.22126,-66.142845 221.74917,-66.288104 222.32699,-66.304539 C 223.34602,-66.333497 224.11818,-66.025653 224.64347,-65.381008 C 225.174,-64.736497 225.43926,-63.785145 225.43927,-62.526953 M 236.84048,-67.174368 L 236.84048,-59.600228 L 237.92781,-59.631136 C 239.16746,-59.666372 240.11296,-60.017497 240.76432,-60.684515 C 241.42092,-61.351674 241.74921,-62.303269 241.74922,-63.539303 C 241.74921,-64.76978 241.42354,-65.697244 240.7722,-66.321694 C 240.12084,-66.946126 239.17271,-67.240652 237.92781,-67.205275 L 236.84048,-67.174368 M 233.80698,-69.507541 L 237.00594,-69.598473 C 238.79189,-69.649226 240.12084,-69.551206 240.99282,-69.304411 C 241.87002,-69.063283 242.62117,-68.630132 243.24626,-68.004955 C 243.7978,-67.460807 244.20752,-66.826727 244.47541,-66.102711 C 244.74331,-65.378677 244.87725,-64.553848 244.87726,-63.628219 C 244.87725,-62.691492 244.74331,-61.850734 244.47541,-61.10594 C 244.20752,-60.366682 243.7978,-59.709308 243.24626,-59.133817 C 242.61592,-58.472942 241.85951,-57.994165 240.97707,-57.697489 C 240.09458,-57.406352 238.77087,-57.2357 237.00594,-57.18553 L 233.80698,-57.094598 L 233.80698,-69.507541 M 251.27518,-64.999 C 250.6501,-64.981223 250.17209,-64.729298 249.84115,-64.243224 C 249.51548,-63.762828 249.35264,-63.076444 249.35265,-62.184072 C 249.35264,-61.291688 249.51548,-60.611791 249.84115,-60.144375 C 250.17209,-59.682649 250.6501,-59.460669 251.27518,-59.47844 C 251.88976,-59.495907 252.35987,-59.744837 252.68556,-60.22523 C 253.01123,-60.711157 253.17405,-61.400313 253.17406,-62.292696 C 253.17405,-63.185071 253.01123,-63.862196 252.68556,-64.324076 C 252.35987,-64.791487 251.88976,-65.016461 251.27518,-64.999 M 251.27518,-67.127408 C 252.79323,-67.170548 253.97774,-66.771887 254.8287,-65.931419 C 255.68489,-65.091084 256.11299,-63.906025 256.11301,-62.376239 C 256.11299,-60.84644 255.68489,-59.637043 254.8287,-58.748041 C 253.97774,-57.859187 252.79323,-57.393184 251.27518,-57.350033 C 249.75186,-57.306732 248.55947,-57.70517 247.69803,-58.545349 C 246.84182,-59.385674 246.4137,-60.570733 246.4137,-62.100531 C 246.4137,-63.630318 246.84182,-64.839714 247.69803,-65.728727 C 248.55947,-66.617868 249.75186,-67.084096 251.27518,-67.127408 M 267.04146,-63.709517 L 267.04146,-58.039306 L 264.20495,-57.958676 L 264.20495,-58.881541 L 264.20495,-62.282006 C 264.20494,-63.096781 264.18655,-63.656073 264.1498,-63.959885 C 264.11827,-64.263832 264.06049,-64.486669 263.97645,-64.628398 C 263.86613,-64.819251 263.71642,-64.964648 263.52734,-65.064594 C 263.33822,-65.170065 263.12287,-65.21937 262.88124,-65.212508 C 262.29292,-65.195778 261.83068,-64.94153 261.49449,-64.449766 C 261.15832,-63.963529 260.99022,-63.296395 260.99023,-62.448362 L 260.99023,-57.867297 L 258.16947,-57.787115 L 258.16947,-70.723845 L 260.99023,-70.804026 L 260.99023,-65.815569 C 261.41572,-66.370843 261.86744,-66.78276 262.34546,-67.051323 C 262.82346,-67.325408 263.35136,-67.470668 263.92918,-67.487104 C 264.9482,-67.51606 265.72037,-67.208217 266.24566,-66.563573 C 266.77618,-65.919061 267.04145,-64.967709 267.04146,-63.709517"
         id="text5185" />
      <path
         style="opacity:0.5;fill:black;fill-opacity:0.71244632;stroke:none;stroke-width:1;stroke-linecap:round;stroke-linejoin:round;stroke-miterlimit:4;stroke-dasharray:none;stroke-dashoffset:0;stroke-opacity:1"
         d="M 185.72021,-48.568792 L 185.72021,-41.054177 L 209.53073,-41.054177 L 209.53073,-48.568792 L 185.72021,-48.568792 z M 219.73524,-48.568792 L 219.73524,-41.054177 L 267.35628,-41.054177 L 267.35628,-48.568792 L 219.73524,-48.568792 z M 185.72021,-33.897311 L 185.72021,-26.172898 L 219.73524,-26.172898 L 219.73524,-33.897311 L 185.72021,-33.897311 z M 229.93975,-33.897311 L 229.93975,-26.172898 L 267.35628,-26.172898 L 267.35628,-33.897311 L 229.93975,-33.897311 z "
         id="rect5190"
         sodipodi:nodetypes="cccccccccccccccccccc" />
    </g>
    <path
       style="opacity:1;fill:url(#linearGradient7860);fill-opacity:1;stroke:none;stroke-width:1;stroke-linecap:round;stroke-linejoin:round;stroke-miterlimit:4;stroke-dasharray:none;stroke-dashoffset:0;stroke-opacity:1"
       d="M 3,14 L 3,16.851064 L 3.4411764,16.851064 L 3.4411764,14 L 3,14 z M 3.882353,14 L 3.882353,17.000001 L 4.3235294,17.000001 L 4.3235294,14 L 3.882353,14 z M 4.7647059,14 L 4.7647059,17.12766 L 5.6470589,17.12766 L 5.6470589,14 L 4.7647059,14 z M 6.5294118,14 L 6.5294118,17.191489 L 6.9705883,17.191489 L 6.9705883,14 L 6.5294118,14 z M 7.4117648,14 L 7.4117648,17.276596 L 7.8529412,17.276596 L 7.8529412,14 L 7.4117648,14 z M 8.7352943,14 L 8.7352943,17.361702 L 9.1764707,17.361702 L 9.1764707,14 L 8.7352943,14 z M 9.6176472,14 L 9.6176472,17.361702 L 10.058824,17.361702 L 10.058824,14 L 9.6176472,14 z M 10.941177,14 L 10.941177,17.531916 L 11.82353,17.531916 L 11.82353,14 L 10.941177,14 z M 12.264706,14 L 12.264706,17.659575 L 12.705883,17.659575 L 12.705883,14 L 12.264706,14 z M 13.147059,14 L 13.147059,17.659575 L 13.588236,17.659575 L 13.588236,14 L 13.147059,14 z M 14.470589,14 L 14.470589,17.829787 L 14.911765,17.829787 L 14.911765,14 L 14.470589,14 z M 15.352942,14 L 15.352942,17.829787 L 15.794118,17.829787 L 15.794118,14 L 15.352942,14 z M 16.235294,14 L 16.235294,18 L 17.117647,18 L 17.117647,14 L 16.235294,14 z M 17.558824,14 L 17.558824,18 L 18,18 L 18,14 L 17.558824,14 z "
       id="rect6949"
       sodipodi:nodetypes="cccccccccccccccccccccccccccccccccccccccccccccccccccccccccccccccccccccc" />
    <path
       style="opacity:1;fill:none;fill-opacity:1;stroke:url(#linearGradient13137);stroke-width:0.99999923;stroke-linecap:round;stroke-linejoin:round;stroke-miterlimit:4;stroke-dashoffset:0;stroke-opacity:1"
       d="M 2.383721,4.2028883 L 19.393525,2.4999988 L 20.5,3.3935936 L 20.5,18.554744 L 19.393525,19.500001 L 2.383721,18.215702 C 1.89414,18.215702 1.5,17.812494 1.5,17.31165 L 1.5,5.1069403 C 1.5,4.6060963 1.89414,4.2028883 2.383721,4.2028883 z "
       id="path12256"
       sodipodi:nodetypes="ccccccccc" />
    <path
       style="fill:none;fill-opacity:1;fill-rule:evenodd;stroke:url(#linearGradient13147);stroke-width:0.99999964px;stroke-linecap:butt;stroke-linejoin:miter;stroke-opacity:1"
       d="M 19.5,3.4999998 L 19.5,19.234097"
       id="path13139" />
    <path
       style="fill:url(#linearGradient11381);fill-opacity:1;stroke:none;stroke-width:1;stroke-linecap:round;stroke-linejoin:round;stroke-miterlimit:4;stroke-dashoffset:0;stroke-opacity:1"
       d="M 20,2 L 21,3.0539512 L 21,18.858219 L 20,20 L 20,2 z "
       id="rect10499"
       sodipodi:nodetypes="ccccc" />
    <path
       sodipodi:type="arc"
       style="opacity:1;fill:url(#radialGradient13266);fill-opacity:1;stroke:none;stroke-width:1;stroke-linecap:round;stroke-linejoin:round;stroke-miterlimit:4;stroke-dasharray:none;stroke-dashoffset:0;stroke-opacity:1"
       id="path6598"
       sodipodi:cx="27.930717"
       sodipodi:cy="18.124739"
       sodipodi:rx="9.1923885"
       sodipodi:ry="9.1923885"
       d="M 37.123106 18.124739 A 9.1923885 9.1923885 0 1 1  18.738329,18.124739 A 9.1923885 9.1923885 0 1 1  37.123106 18.124739 z"
       transform="matrix(0.437457,0,0,0.434785,5.48363,-1.48069)" />
  </g>
</svg>
