<?xml version="1.0" encoding="UTF-8" standalone="no"?>
<!-- Created with Inkscape (http://www.inkscape.org/) -->
<svg
   xmlns:dc="http://purl.org/dc/elements/1.1/"
   xmlns:cc="http://web.resource.org/cc/"
   xmlns:rdf="http://www.w3.org/1999/02/22-rdf-syntax-ns#"
   xmlns:svg="http://www.w3.org/2000/svg"
   xmlns="http://www.w3.org/2000/svg"
   xmlns:xlink="http://www.w3.org/1999/xlink"
   xmlns:sodipodi="http://inkscape.sourceforge.net/DTD/sodipodi-0.dtd"
   xmlns:inkscape="http://www.inkscape.org/namespaces/inkscape"
   width="22"
   height="22"
   id="svg2"
   sodipodi:version="0.32"
   inkscape:version="0.43+devel"
   sodipodi:docbase="/home/silvestre/Desktop/Neu/22x22/actions"
   sodipodi:docname="format-text-bold.svg"
   version="1.0">
  <defs
     id="defs4">
    <linearGradient
       inkscape:collect="always"
       id="linearGradient4820">
      <stop
         style="stop-color:white;stop-opacity:1;"
         offset="0"
         id="stop4822" />
      <stop
         style="stop-color:white;stop-opacity:0.57939917"
         offset="1"
         id="stop4824" />
    </linearGradient>
    <linearGradient
       id="linearGradient4957">
      <stop
         id="stop4959"
         offset="0"
         style="stop-color:#ffffff;stop-opacity:1;" />
      <stop
         id="stop4961"
         offset="1.0000000"
         style="stop-color:#d0d0d0;stop-opacity:1" />
    </linearGradient>
    <linearGradient
       inkscape:collect="always"
       id="linearGradient5912">
      <stop
         style="stop-color:#000000;stop-opacity:1;"
         offset="0"
         id="stop5914" />
      <stop
         style="stop-color:#000000;stop-opacity:0;"
         offset="1"
         id="stop5916" />
    </linearGradient>
    <linearGradient
       id="linearGradient5904">
      <stop
         id="stop5906"
         offset="0.0000000"
         style="stop-color:#000000;stop-opacity:0.19791669;" />
      <stop
         id="stop5908"
         offset="1"
         style="stop-color:#000000;stop-opacity:0;" />
    </linearGradient>
    <linearGradient
       id="linearGradient2057">
      <stop
         style="stop-color:#f0f0f0;stop-opacity:1;"
         offset="0"
         id="stop2059" />
      <stop
         style="stop-color:#dddddd;stop-opacity:1.0000000;"
         offset="1.0000000"
         id="stop2061" />
    </linearGradient>
    <linearGradient
       inkscape:collect="always"
       id="linearGradient2049">
      <stop
         style="stop-color:#0a0a0a;stop-opacity:1;"
         offset="0"
         id="stop2051" />
      <stop
         style="stop-color:#0a0a0a;stop-opacity:0;"
         offset="1"
         id="stop2053" />
    </linearGradient>
    <radialGradient
       inkscape:collect="always"
       xlink:href="#linearGradient5904"
       id="radialGradient5902"
       cx="60.502419"
       cy="115.07005"
       fx="60.502419"
       fy="115.07005"
       r="56.111115"
       gradientTransform="matrix(1,0,0,0.213043,2.628106e-16,90.55513)"
       gradientUnits="userSpaceOnUse" />
    <linearGradient
       inkscape:collect="always"
       xlink:href="#linearGradient5912"
       id="linearGradient5918"
       x1="71.236717"
       y1="152.15218"
       x2="88.314011"
       y2="99.212555"
       gradientUnits="userSpaceOnUse"
       gradientTransform="matrix(0.163397,0,0,0.181415,0.451772,-0.601353)" />
    <linearGradient
       inkscape:collect="always"
       xlink:href="#linearGradient4957"
       id="linearGradient4940"
       gradientUnits="userSpaceOnUse"
       x1="81.89402"
       y1="22.461552"
       x2="84.654594"
       y2="10.41062"
       gradientTransform="matrix(0.174153,0,0,0.183602,-1.504487,-0.356213)" />
    <linearGradient
       inkscape:collect="always"
       xlink:href="#linearGradient2049"
       id="linearGradient4943"
       gradientUnits="userSpaceOnUse"
       gradientTransform="matrix(0.176728,0,0,0.183243,-1.630627,-0.173496)"
       x1="69.606209"
       y1="-2.7867124"
       x2="82.63073"
       y2="34.12973" />
    <linearGradient
       inkscape:collect="always"
       xlink:href="#linearGradient2057"
       id="linearGradient4946"
       gradientUnits="userSpaceOnUse"
       x1="57.903072"
       y1="65.225105"
       x2="85.99958"
       y2="114.99323"
       gradientTransform="matrix(0.175901,0,0,0.176486,-1.908046,-0.51135)" />
    <linearGradient
       inkscape:collect="always"
       xlink:href="#linearGradient4820"
       id="linearGradient4826"
       x1="7.9148936"
       y1="3.8297873"
       x2="7.9148936"
       y2="41.371349"
       gradientUnits="userSpaceOnUse"
       gradientTransform="matrix(0.438081,0,0,0.44229,-0.480666,0.385044)" />
  </defs>
  <sodipodi:namedview
     id="base"
     pagecolor="#ffffff"
     bordercolor="#666666"
     borderopacity="1.0"
     inkscape:pageopacity="0.0"
     inkscape:pageshadow="2"
     inkscape:zoom="1"
     inkscape:cx="11"
     inkscape:cy="11"
     inkscape:document-units="px"
     inkscape:current-layer="layer1"
     inkscape:window-width="823"
     inkscape:window-height="536"
     inkscape:window-x="40"
     inkscape:window-y="127"
     showguides="true"
     inkscape:guide-bbox="true"
     width="22px"
     height="22px"
     showgrid="false"
     showborder="false"
     inkscape:showpageshadow="false" />
  <metadata
     id="metadata7">
    <rdf:RDF>
      <cc:Work
         rdf:about="">
        <dc:format>image/svg+xml</dc:format>
        <dc:type
           rdf:resource="http://purl.org/dc/dcmitype/StillImage" />
      </cc:Work>
    </rdf:RDF>
  </metadata>
  <g
     inkscape:label="Layer 1"
     inkscape:groupmode="layer"
     id="layer1">
    <path
       style="fill:url(#linearGradient5918);fill-opacity:1;fill-rule:evenodd;stroke:none;stroke-width:0.25pt;stroke-linecap:butt;stroke-linejoin:miter;stroke-opacity:1"
       d="M 16.157595,21.55748 L 21.259995,18.370898 L 13.287496,16.689094 L 16.157595,21.55748 z "
       id="path5910" />
    <path
       sodipodi:type="arc"
       style="opacity:1;color:black;fill:url(#radialGradient5902);fill-opacity:1;fill-rule:evenodd;stroke:none;stroke-width:2;stroke-linecap:round;stroke-linejoin:round;marker:none;marker-start:none;marker-mid:none;marker-end:none;stroke-miterlimit:4;stroke-dasharray:none;stroke-dashoffset:0;stroke-opacity:1;visibility:visible;display:inline;overflow:visible"
       id="path5894"
       sodipodi:cx="60.502419"
       sodipodi:cy="115.07005"
       sodipodi:rx="56.111115"
       sodipodi:ry="11.954107"
       d="M 116.61353 115.07005 A 56.111115 11.954107 0 1 1  4.391304,115.07005 A 56.111115 11.954107 0 1 1  116.61353 115.07005 z"
       transform="matrix(0.165765,0,0,0.166181,-0.727925,0.891053)" />
    <path
       style="fill:url(#linearGradient4946);fill-opacity:1;fill-rule:evenodd;stroke:#a0a0a0;stroke-width:1.01816738;stroke-linecap:round;stroke-linejoin:round;stroke-miterlimit:4;stroke-dasharray:none;stroke-opacity:1"
       d="M 0.56977275,19.481534 C 0.91367444,14.204381 1.2575761,7.7094244 0.50908414,1.4580288 L 9.7337422,0.51422972 C 11.352102,0.40259771 16.045351,2.1278206 16.045351,3.650077 C 16.733155,10.084144 16.571317,16.031089 15.923972,21.490912 L 0.56977275,19.481534 z "
       id="path1306"
       sodipodi:nodetypes="cccccc" />
    <path
       style="font-size:84.29850006px;font-style:normal;font-variant:normal;font-weight:normal;font-stretch:normal;line-height:100%;writing-mode:lr-tb;text-anchor:start;opacity:0.71548115;fill:black;fill-opacity:1;stroke:black;stroke-width:0.99999982;stroke-linecap:round;stroke-linejoin:round;stroke-miterlimit:4;stroke-dasharray:none;stroke-opacity:1;font-family:Sans"
       d="M 5.8352215,11.53747 L 5.8352215,15.918291 L 7.9768642,16.134363 C 8.6951473,16.206831 9.2261504,16.081542 9.5698759,15.758493 C 9.9179972,15.430551 10.092062,14.895505 10.092068,14.153352 C 10.092062,13.405867 9.9179972,12.838368 9.5698759,12.450852 C 9.2261504,12.058453 8.6951473,11.826016 7.9768642,11.753543 L 5.8352215,11.53747 M 5.8352215,6.9819179 L 5.8352215,10.224025 L 7.8116136,10.423425 C 8.4637965,10.489232 8.9485312,10.391308 9.2658172,10.129656 C 9.5874968,9.863122 9.74834,9.4255186 9.7483475,8.8168418 C 9.74834,8.2135194 9.5874968,7.7461296 9.2658172,7.4146693 C 8.9485312,7.083672 8.4637965,6.8852702 7.8116136,6.8194609 L 5.8352215,6.9819179 M 4.4999978,5.5177432 L 7.9107642,5.5000007 C 8.928701,5.6027129 9.7130873,5.9381317 10.263927,6.5062584 C 10.814755,7.0744071 11.090172,7.8309948 11.090179,8.7760255 C 11.090172,9.5075041 10.949159,10.075251 10.667139,10.479266 C 10.385103,10.883295 9.9708785,11.111131 9.424456,11.162781 C 10.081044,11.399884 10.590013,11.808962 10.951369,12.390013 C 11.317116,12.966179 11.499991,13.660037 11.5,14.471595 C 11.499991,15.539437 11.200338,16.334111 10.601038,16.855619 C 10.001724,17.377127 9.1490342,17.582086 8.0429644,17.470494 L 4.4999978,17.113042 L 4.4999978,5.5177432"
       id="text1455"
       sodipodi:nodetypes="cccsscccccccscccccsssccssccc" />
    <path
       style="fill:url(#linearGradient4943);fill-opacity:1;fill-rule:evenodd;stroke:none;stroke-width:0.25pt;stroke-linecap:butt;stroke-linejoin:miter;stroke-opacity:1"
       d="M 10.640313,2.0371311 C 9.5936034,3.6703468 9.9187937,6.1254397 10.975666,7 C 12.743893,5.0822891 13.932874,4.081286 15.944996,4.4395395 C 14.872881,2.9222284 12.527946,1.7763437 10.640313,2.0371311 z "
       id="path2039"
       sodipodi:nodetypes="cccc" />
    <path
       style="fill:none;fill-opacity:1;fill-rule:evenodd;stroke:url(#linearGradient4826);stroke-width:0.96689242;stroke-linecap:round;stroke-linejoin:round;stroke-miterlimit:4;stroke-dasharray:none;stroke-opacity:1"
       d="M 1.5367367,18.693801 C 1.8387049,13.906773 2.1406733,8.0150449 1.4834482,2.3442565 L 9.5833053,1.4881151 C 11.22835,1.3868513 15.297551,2.9518413 15.125313,4.3327147 C 15.72925,10.169208 15.587147,15.563821 15.018736,20.516556 L 1.5367367,18.693801 z "
       id="path3945"
       sodipodi:nodetypes="cccccc" />
    <path
       style="fill:url(#linearGradient4940);fill-opacity:1;fill-rule:evenodd;stroke:none;stroke-width:1;stroke-linecap:butt;stroke-linejoin:miter;stroke-miterlimit:4;stroke-dasharray:none;stroke-opacity:1"
       d="M 9.6309835,1.0274346 C 8.5995239,2.6638413 8.9199773,5.1237296 9.9614516,6 C 11.703918,4.0785408 14.017193,3.5189962 16,3.8779494 C 15.544355,2.4210199 11.491116,0.76613744 9.6309835,1.0274346 z "
       id="path2037"
       sodipodi:nodetypes="cccc" />
  </g>
</svg>
