<?xml version="1.0" encoding="UTF-8" standalone="no"?>
<!-- Generator: Adobe Illustrator 15.1.0, SVG Export Plug-In . SVG Version: 6.00 Build 0)  -->

<svg
   xmlns:dc="http://purl.org/dc/elements/1.1/"
   xmlns:cc="http://creativecommons.org/ns#"
   xmlns:rdf="http://www.w3.org/1999/02/22-rdf-syntax-ns#"
   xmlns:svg="http://www.w3.org/2000/svg"
   xmlns="http://www.w3.org/2000/svg"
   xmlns:xlink="http://www.w3.org/1999/xlink"
   xmlns:sodipodi="http://sodipodi.sourceforge.net/DTD/sodipodi-0.dtd"
   xmlns:inkscape="http://www.inkscape.org/namespaces/inkscape"
   version="1.1"
   id="Ebene_1"
   x="0px"
   y="0px"
   width="642.9068"
   height="406.6951"
   viewBox="0 0 642.90679 406.6951"
   enable-background="new 0 0 841.89 595.276"
   xml:space="preserve"
   inkscape:version="0.48.1 r9760"
   sodipodi:docname="ITN_openATTIC Logo.svg"><metadata
   id="metadata29"><rdf:RDF><cc:Work
       rdf:about=""><dc:format>image/svg+xml</dc:format><dc:type
         rdf:resource="http://purl.org/dc/dcmitype/StillImage" /><dc:title></dc:title></cc:Work></rdf:RDF></metadata><defs
   id="defs27" /><sodipodi:namedview
   pagecolor="#ffffff"
   bordercolor="#666666"
   borderopacity="1"
   objecttolerance="10"
   gridtolerance="10"
   guidetolerance="10"
   inkscape:pageopacity="0"
   inkscape:pageshadow="2"
   inkscape:window-width="799"
   inkscape:window-height="659"
   id="namedview25"
   showgrid="false"
   fit-margin-top="0"
   fit-margin-left="0"
   fit-margin-right="0"
   fit-margin-bottom="0"
   inkscape:zoom="0.48548908"
   inkscape:cx="321.453"
   inkscape:cy="182.75863"
   inkscape:window-x="990"
   inkscape:window-y="232"
   inkscape:window-maximized="0"
   inkscape:current-layer="Ebene_1" />
<g
   id="g3"
   transform="translate(-99.492007,-73.701546)">
	<defs
   id="defs5">
		<rect
   id="SVGID_1_"
   y="0"
   width="841.89001"
   height="595.276"
   x="0" />
	</defs>
	<clipPath
   id="SVGID_2_">
		<use
   xlink:href="#SVGID_1_"
   overflow="visible"
   id="use9"
   style="overflow:visible"
   x="0"
   y="0"
   width="841.89001"
   height="595.276" />
	</clipPath>
	<path
   clip-path="url(#SVGID_2_)"
   d="m 720.263,465.805 -443.85,-80.068 220.416,-29.955 223.434,110.023 z m 21.216,6.216 L 548.222,77.323 c -2.078,-4.246 -6.265,-4.842 -9.444,-1.344 l -153.239,168.79 h 15.577 L 539.379,92.464 513.429,244.769 h 3.97 l 25.808,-151.463 181.263,370.208 -225.215,-110.9 1.021,-6.065 h -3.97 l -0.922,5.48 -219.038,29.767 29.836,-35.247 h -15.018 c -11.376,13.392 -30.692,35.558 -35.681,41.67 -3.418,4.188 0.469,6.022 2.454,6.367 30.378,5.285 477.338,85.647 477.338,85.647 5.739,1.035 8.768,-2.975 6.204,-8.212"
   id="path11"
   inkscape:connector-curvature="0"
   style="fill:#dd0b2f" />
	<path
   clip-path="url(#SVGID_2_)"
   d="m 603.759,253.239 c -4.568,-1.436 -10.573,-2.35 -17.36,-2.35 -35.502,0 -53.384,29.76 -53.384,58.345 0,12.922 5.09,31.587 34.196,31.587 6.396,0 14.228,-0.914 20.231,-2.219 l 1.958,-22.45 c -4.438,1.565 -9.528,2.479 -15.01,2.479 -10.442,0 -14.228,-5.221 -14.228,-14.228 0,-10.703 4.829,-31.456 24.669,-31.456 4.178,0 8.745,0.783 12.4,2.088 l 6.528,-21.796 z m -70.353,-1.697 H 509.52 l -16.707,88.104 h 23.886 l 16.707,-88.104 z m -30.279,0 h -61.085 l -3.916,20.884 h 18.665 L 444,339.646 h 23.756 l 12.792,-67.22 h 18.665 l 3.914,-20.884 z m -64.216,0 h -61.086 l -3.915,20.884 h 18.665 l -12.792,67.22 h 23.756 l 12.791,-67.22 h 18.665 l 3.916,-20.884 z m -98.144,54.69 h -15.01 l 4.699,-9.659 c 2.872,-5.874 5.482,-11.617 7.44,-16.707 h 0.261 c 0.13,5.482 0.653,10.181 1.305,15.271 l 1.305,11.095 z m 29.499,33.414 -12.791,-88.104 h -27.28 l -44.9,88.104 h 24.147 l 7.048,-14.358 h 26.627 l 1.827,14.358 h 25.322 z"
   id="path13"
   inkscape:connector-curvature="0"
   style="fill:#706f6f" />
</g>
<g
   id="g15"
   transform="translate(-99.492007,-73.701546)">
	<path
   d="m 117.808,314.205 c -13.802,0 -18.316,-6.164 -18.316,-15.713 0,-19.271 13.802,-29.514 27.344,-29.514 13.629,0 18.143,6.858 18.143,16.06 -0.001,17.621 -12.935,29.167 -27.171,29.167 z m 6.597,-31.511 c -5.99,0 -8.681,8.16 -8.681,13.455 0,2.257 0.868,4.253 3.906,4.253 6.511,0 9.028,-7.899 9.028,-13.281 0,-2.952 -1.041,-4.427 -4.253,-4.427 z"
   id="path17"
   inkscape:connector-curvature="0"
   style="fill:#646363" />
	<path
   d="m 167.551,314.205 c -0.607,0 -1.215,0 -2.604,-0.174 l -3.646,19.358 h -15.539 l 9.81,-51.217 v -0.26 c -1.997,-0.347 -4.861,-0.695 -7.292,-0.868 l 1.91,-10.33 c 7.205,-0.781 15.018,-1.042 22.31,-0.781 -0.607,2.778 -1.389,5.382 -2.604,8.247 h 0.173 c 4.08,-6.077 9.202,-9.288 15.191,-9.288 7.118,0 10.851,4.601 10.851,14.063 -10e-4,16.84 -9.549,31.25 -28.56,31.25 z m 10.851,-31.598 c -3.299,0 -9.289,9.722 -10.677,16.927 l -0.347,1.823 c 0.868,0.261 1.736,0.434 2.951,0.434 5.903,0 9.723,-9.201 9.723,-15.799 -0.001,-2.257 -0.348,-3.385 -1.65,-3.385 z"
   id="path19"
   inkscape:connector-curvature="0"
   style="fill:#646363" />
	<path
   d="m 213.996,297.538 c 0,0.521 0,0.869 0,1.042 0,2.344 1.128,3.386 5.816,3.386 4.167,0 8.768,-0.955 13.108,-2.604 v 11.893 c -5.642,1.91 -12.066,2.952 -17.882,2.952 -12.587,0 -16.406,-6.337 -16.406,-15.539 0,-19.878 13.281,-29.688 25.348,-29.688 13.021,0 15.886,6.337 15.886,11.632 -0.001,11.804 -11.199,16.665 -25.87,16.926 z m 8.334,-17.015 c -3.819,0 -5.903,3.906 -6.944,7.292 5.295,-0.087 9.462,-1.302 9.462,-5.122 -0.001,-1.301 -0.782,-2.17 -2.518,-2.17 z"
   id="path21"
   inkscape:connector-curvature="0"
   style="fill:#646363" />
	<path
   d="m 283.877,313.163 h -15.539 l 5.035,-26.303 c 0.608,-3.212 0.261,-4.253 -0.868,-4.253 -2.691,0 -8.941,8.681 -10.678,17.708 l -2.43,12.848 h -15.539 l 5.99,-31.077 v -0.173 c -1.997,-0.347 -4.861,-0.695 -7.292,-0.868 l 1.91,-10.33 c 7.205,-0.781 15.018,-1.042 22.31,-0.781 -0.434,2.17 -1.128,5.035 -2.604,8.247 h 0.173 c 3.819,-5.556 8.594,-9.288 15.625,-9.288 8.854,0 11.111,6.337 9.635,13.976 l -5.728,30.294 z"
   id="path23"
   inkscape:connector-curvature="0"
   style="fill:#646363" />
</g>
</svg>