<?xml version="1.0" encoding="UTF-8" standalone="no"?>
<!-- Created with Inkscape (http://www.inkscape.org/) -->
<svg
   xmlns:dc="http://purl.org/dc/elements/1.1/"
   xmlns:cc="http://web.resource.org/cc/"
   xmlns:rdf="http://www.w3.org/1999/02/22-rdf-syntax-ns#"
   xmlns:svg="http://www.w3.org/2000/svg"
   xmlns="http://www.w3.org/2000/svg"
   xmlns:xlink="http://www.w3.org/1999/xlink"
   xmlns:sodipodi="http://inkscape.sourceforge.net/DTD/sodipodi-0.dtd"
   xmlns:inkscape="http://www.inkscape.org/namespaces/inkscape"
   width="48"
   height="48"
   id="svg2"
   sodipodi:version="0.32"
   inkscape:version="0.43+devel"
   version="1.0"
   sodipodi:docbase="/home/silvestre/Neu/scalable/places"
   sodipodi:docname="network-server.svg">
  <defs
     id="defs4">
    <linearGradient
       inkscape:collect="always"
       id="linearGradient5021">
      <stop
         style="stop-color:#a8ffbe;stop-opacity:1"
         offset="0"
         id="stop5023" />
      <stop
         style="stop-color:#00bf2d;stop-opacity:1"
         offset="1"
         id="stop5025" />
    </linearGradient>
    <radialGradient
       r="52.750000"
       fy="115.00000"
       fx="61.750000"
       cy="115.00000"
       cx="61.750000"
       gradientTransform="matrix(1,1.652051e-17,-5.63136e-18,0.199052,1.285083e-13,92.109)"
       gradientUnits="userSpaceOnUse"
       id="radialGradient3642"
       xlink:href="#linearGradient3632"
       inkscape:collect="always" />
    <radialGradient
       gradientUnits="userSpaceOnUse"
       gradientTransform="matrix(1,1.843144e-18,3.237191e-19,0.199052,-2.760905e-14,92.109)"
       r="52.750000"
       fy="115.00000"
       fx="61.750000"
       cy="115.00000"
       cx="61.750000"
       id="radialGradient3638"
       xlink:href="#linearGradient3632"
       inkscape:collect="always" />
    <radialGradient
       inkscape:collect="always"
       xlink:href="#linearGradient7555"
       id="radialGradient7561"
       cx="24.250000"
       cy="99.249969"
       fx="24.250000"
       fy="99.249969"
       r="40.250000"
       gradientTransform="matrix(1.000000,0.000000,0.000000,0.217391,0.000000,95.67391)"
       gradientUnits="userSpaceOnUse" />
    <linearGradient
       inkscape:collect="always"
       xlink:href="#linearGradient7529"
       id="linearGradient7553"
       gradientUnits="userSpaceOnUse"
       x1="39.812500"
       y1="71.043076"
       x2="39.812500"
       y2="75.246735" />
    <linearGradient
       inkscape:collect="always"
       xlink:href="#linearGradient5983"
       id="linearGradient7551"
       gradientUnits="userSpaceOnUse"
       x1="6.3437500"
       y1="72.250000"
       x2="45.656250"
       y2="72.250000" />
    <linearGradient
       inkscape:collect="always"
       xlink:href="#linearGradient7529"
       id="linearGradient7535"
       x1="39.812500"
       y1="71.043076"
       x2="39.812500"
       y2="75.246735"
       gradientUnits="userSpaceOnUse" />
    <linearGradient
       inkscape:collect="always"
       xlink:href="#linearGradient5983"
       id="linearGradient5989"
       x1="6.3437500"
       y1="72.250000"
       x2="45.656250"
       y2="72.250000"
       gradientUnits="userSpaceOnUse" />
    <linearGradient
       id="WhiteTransparent">
      <stop
         id="stopWhiteFull"
         offset="0"
         style="stop-color:#ffffff;stop-opacity:1;" />
      <stop
         id="stopWhiteTransparent"
         offset="1"
         style="stop-color:#ffffff;stop-opacity:0;" />
    </linearGradient>
    <linearGradient
       id="TransparentWhite">
      <stop
         id="stopwhitefull"
         offset="0"
         style="stop-color:#ffffff;stop-opacity:0;" />
      <stop
         id="stopwhitetransparent"
         offset="1"
         style="stop-color:#ffffff;stop-opacity:1;" />
    </linearGradient>
    <linearGradient
       id="linearGradient3057">
      <stop
         id="stop3058"
         offset="0.0000000"
         style="stop-color:#000000;stop-opacity:0.19191919;" />
      <stop
         id="stop3059"
         offset="0.34210527"
         style="stop-color:#000000;stop-opacity:0.14141414;" />
      <stop
         id="stop3060"
         offset="1.0000000"
         style="stop-color:#ffffff;stop-opacity:0.0000000;" />
    </linearGradient>
    <linearGradient
       id="linearGradient2363">
      <stop
         id="stop2364"
         offset="0.0000000"
         style="stop-color:#ffffff;stop-opacity:0.0000000;" />
      <stop
         id="stop2365"
         offset="1.0000000"
         style="stop-color:#ffffff;stop-opacity:1.0000000;" />
    </linearGradient>
    <linearGradient
       id="linearGradient2372">
      <stop
         id="stop2373"
         offset="0.0000000"
         style="stop-color:#000000;stop-opacity:0.47058824;" />
      <stop
         id="stop2374"
         offset="1.0000000"
         style="stop-color:#000000;stop-opacity:0.0000000;" />
    </linearGradient>
    <linearGradient
       id="linearGradient2347">
      <stop
         id="stop2348"
         offset="0.0000000"
         style="stop-color:#ffffff;stop-opacity:0.0000000;" />
      <stop
         id="stop2349"
         offset="1.0000000"
         style="stop-color:#ffffff;stop-opacity:0.47058824;" />
    </linearGradient>
    <linearGradient
       id="linearGradient2341">
      <stop
         id="stop2342"
         offset="0.0000000"
         style="stop-color:#ffffff;stop-opacity:0.15686275;" />
      <stop
         id="stop2343"
         offset="1.0000000"
         style="stop-color:#ffffff;stop-opacity:1.0000000;" />
    </linearGradient>
    <linearGradient
       inkscape:collect="always"
       id="linearGradient5983">
      <stop
         style="stop-color:#ffffff;stop-opacity:1;"
         offset="0"
         id="stop5985" />
      <stop
         style="stop-color:#ffffff;stop-opacity:0;"
         offset="1"
         id="stop5987" />
    </linearGradient>
    <linearGradient
       inkscape:collect="always"
       id="linearGradient7529">
      <stop
         style="stop-color:#ffffff;stop-opacity:1;"
         offset="0"
         id="stop7531" />
      <stop
         style="stop-color:#ffffff;stop-opacity:0;"
         offset="1"
         id="stop7533" />
    </linearGradient>
    <linearGradient
       id="linearGradient7555">
      <stop
         style="stop-color:#2e2e2e;stop-opacity:0.46875000;"
         offset="0.0000000"
         id="stop7557" />
      <stop
         style="stop-color:#2e2e2e;stop-opacity:0;"
         offset="1"
         id="stop7559" />
    </linearGradient>
    <linearGradient
       id="linearGradient2843"
       inkscape:collect="always">
      <stop
         id="stop2845"
         offset="0"
         style="stop-color:#000000;stop-opacity:0.41600001" />
      <stop
         id="stop2847"
         offset="1"
         style="stop-color:#000000;stop-opacity:0;" />
    </linearGradient>
    <linearGradient
       id="linearGradient2859"
       inkscape:collect="always">
      <stop
         id="stop2861"
         offset="0"
         style="stop-color:#000000;stop-opacity:0.50400001" />
      <stop
         id="stop2863"
         offset="1"
         style="stop-color:#000000;stop-opacity:0;" />
    </linearGradient>
    <linearGradient
       id="linearGradient3614"
       inkscape:collect="always">
      <stop
         id="stop3616"
         offset="0"
         style="stop-color:none" />
      <stop
         id="stop3618"
         offset="1"
         style="stop-color:#000000;stop-opacity:0;" />
    </linearGradient>
    <linearGradient
       id="linearGradient3632">
      <stop
         id="stop3634"
         offset="0.0000000"
         style="stop-color:#000000;stop-opacity:0.20833331;" />
      <stop
         id="stop3636"
         offset="1"
         style="stop-color:#000000;stop-opacity:0;" />
    </linearGradient>
    <linearGradient
       id="linearGradient4856"
       inkscape:collect="always">
      <stop
         id="stop4858"
         offset="0"
         style="stop-color:white;stop-opacity:1;" />
      <stop
         id="stop4860"
         offset="1"
         style="stop-color:white;stop-opacity:0;" />
    </linearGradient>
    <linearGradient
       id="linearGradient4866"
       inkscape:collect="always">
      <stop
         id="stop4868"
         offset="0"
         style="stop-color:white;stop-opacity:1;" />
      <stop
         id="stop4870"
         offset="1"
         style="stop-color:white;stop-opacity:0.13733906" />
    </linearGradient>
    <linearGradient
       id="linearGradient4876"
       inkscape:collect="always">
      <stop
         id="stop4878"
         offset="0"
         style="stop-color:white;stop-opacity:1;" />
      <stop
         id="stop4880"
         offset="1"
         style="stop-color:white;stop-opacity:0.18431373" />
    </linearGradient>
    <linearGradient
       inkscape:collect="always"
       xlink:href="#linearGradient4876"
       id="linearGradient4102"
       gradientUnits="userSpaceOnUse"
       x1="70"
       y1="15.494845"
       x2="70"
       y2="117.00493"
       gradientTransform="matrix(0.381806,0,0,0.381806,-0.608226,-0.440536)" />
    <linearGradient
       inkscape:collect="always"
       xlink:href="#linearGradient4866"
       id="linearGradient4105"
       gradientUnits="userSpaceOnUse"
       x1="17"
       y1="46.5"
       x2="83.661568"
       y2="96.052254"
       gradientTransform="matrix(0.397728,0,0,0.386138,-1.068184,-0.678219)" />
    <radialGradient
       inkscape:collect="always"
       xlink:href="#linearGradient4856"
       id="radialGradient4108"
       gradientUnits="userSpaceOnUse"
       gradientTransform="matrix(0.381806,0,0,0.432309,-0.203003,-3.3361)"
       cx="25.749996"
       cy="50.161213"
       fx="25.749996"
       fy="50.161213"
       r="45.483642" />
    <linearGradient
       inkscape:collect="always"
       xlink:href="#linearGradient2843"
       id="linearGradient4118"
       gradientUnits="userSpaceOnUse"
       gradientTransform="matrix(0.374593,0,0,0.381806,-3.467853,-0.716404)"
       x1="103.24915"
       y1="61.550186"
       x2="103.24915"
       y2="36.552097" />
    <linearGradient
       inkscape:collect="always"
       xlink:href="#linearGradient2859"
       id="linearGradient4121"
       gradientUnits="userSpaceOnUse"
       gradientTransform="matrix(0.375865,0,0,0.381806,-3.569721,-0.741231)"
       x1="98.625023"
       y1="46.334446"
       x2="98.625023"
       y2="22.25" />
    <linearGradient
       inkscape:collect="always"
       xlink:href="#linearGradient2843"
       id="linearGradient4124"
       gradientUnits="userSpaceOnUse"
       gradientTransform="matrix(0.399813,0,0,0.384616,-5.784697,-1.346153)"
       x1="132.25000"
       y1="68.625000"
       x2="76.000000"
       y2="68.625000" />
    <linearGradient
       inkscape:collect="always"
       xlink:href="#linearGradient3614"
       id="linearGradient4128"
       gradientUnits="userSpaceOnUse"
       x1="103.09375"
       y1="128.50000"
       x2="112.50000"
       y2="104.75000"
       gradientTransform="matrix(0.381806,0,0,0.381806,-0.203003,2.238051e-2)" />
    <radialGradient
       inkscape:collect="always"
       xlink:href="#linearGradient5021"
       id="radialGradient5027"
       cx="109"
       cy="65.75"
       fx="109"
       fy="64.321823"
       r="3"
       gradientTransform="matrix(1,0,0,1.416667,0,-27.39583)"
       gradientUnits="userSpaceOnUse" />
  </defs>
  <sodipodi:namedview
     id="base"
     pagecolor="#ffffff"
     bordercolor="#666666"
     borderopacity="1.0"
     inkscape:pageopacity="0.0"
     inkscape:pageshadow="2"
     inkscape:zoom="1"
     inkscape:cx="24"
     inkscape:cy="24"
     inkscape:document-units="px"
     inkscape:current-layer="layer1"
     width="48px"
     height="48px"
     inkscape:showpageshadow="false"
     showgrid="false"
     showborder="false"
     inkscape:window-width="823"
     inkscape:window-height="536"
     inkscape:window-x="75"
     inkscape:window-y="155" />
  <metadata
     id="metadata7">
    <rdf:RDF>
      <cc:Work
         rdf:about="">
        <dc:format>image/svg+xml</dc:format>
        <dc:type
           rdf:resource="http://purl.org/dc/dcmitype/StillImage" />
      </cc:Work>
    </rdf:RDF>
  </metadata>
  <g
     inkscape:label="Capa 1"
     inkscape:groupmode="layer"
     id="layer1">
    <path
       sodipodi:type="arc"
       style="color:black;fill:url(#radialGradient3638);fill-opacity:1;fill-rule:evenodd;stroke:none;stroke-width:1;stroke-linecap:round;stroke-linejoin:round;marker:none;marker-start:none;marker-mid:none;marker-end:none;stroke-miterlimit:4;stroke-dasharray:none;stroke-dashoffset:0;stroke-opacity:0.57599996;visibility:visible;display:inline;overflow:visible"
       id="path3622"
       sodipodi:cx="61.75"
       sodipodi:cy="115"
       sodipodi:rx="52.75"
       sodipodi:ry="10.5"
       d="M 114.5 115 A 52.75 10.5 0 1 1  9,115 A 52.75 10.5 0 1 1  114.5 115 z"
       transform="matrix(0.381567,1.350843e-2,-1.350843e-2,0.381567,0.792519,-0.784276)" />
    <path
       sodipodi:type="arc"
       style="color:black;fill:url(#radialGradient3642);fill-opacity:1;fill-rule:evenodd;stroke:none;stroke-width:1;stroke-linecap:round;stroke-linejoin:round;marker:none;marker-start:none;marker-mid:none;marker-end:none;stroke-miterlimit:4;stroke-dasharray:none;stroke-dashoffset:0;stroke-opacity:0.57599996;visibility:visible;display:inline;overflow:visible"
       id="path3640"
       sodipodi:cx="61.75"
       sodipodi:cy="115"
       sodipodi:rx="52.75"
       sodipodi:ry="10.5"
       d="M 114.5 115 A 52.75 10.5 0 1 1  9,115 A 52.75 10.5 0 1 1  114.5 115 z"
       transform="matrix(0.282047,9.985162e-3,-9.985162e-3,0.282047,-1.389749,8.671191)" />
    <path
       style="fill:url(#linearGradient4128);fill-opacity:1;fill-rule:evenodd;stroke:none;stroke-width:0.25pt;stroke-linecap:butt;stroke-linejoin:miter;stroke-opacity:1"
       d="M 39.695724,44.693683 L 48.000004,42.116492 L 39.218466,36.86666 L 39.695724,44.693683 z "
       id="path2886" />
    <path
       style="color:black;fill:#dbdbdb;fill-opacity:1;fill-rule:evenodd;stroke:#9e9e9e;stroke-width:1.00000036;stroke-linecap:round;stroke-linejoin:round;marker:none;marker-start:none;marker-mid:none;marker-end:none;stroke-miterlimit:4;stroke-dasharray:none;stroke-dashoffset:0;stroke-opacity:1;visibility:visible;display:inline;overflow:visible"
       d="M 27.200078,4.4999982 C 27.157279,4.4999982 27.241429,4.5419198 27.200078,4.5478955 L 27.200078,4.5119725 L 3.5000021,9.4813074 L 3.5000021,40.135518 L 27.200078,45.488029 L 27.200078,45.440133 C 27.250366,45.449073 27.147554,45.500004 27.200078,45.500004 L 39.508947,43.967294 C 40.061307,43.967294 40.500018,43.454601 40.500018,42.817761 L 40.500018,7.1822416 C 40.500018,6.5454004 40.061307,6.0327088 39.508947,6.0327088 L 27.200078,4.4999982 z "
       id="rect1383"
       sodipodi:nodetypes="ccccccccccccc" />
    <path
       style="fill:url(#linearGradient4124);fill-opacity:1;fill-rule:evenodd;stroke:none;stroke-width:0.25pt;stroke-linecap:butt;stroke-linejoin:miter;stroke-opacity:1"
       d="M 27.012493,5 L 27,45 L 40,43.416377 L 39.993935,6.5865385 L 27.012493,5 z "
       id="path2841"
       sodipodi:nodetypes="ccccc" />
    <path
       style="fill:url(#linearGradient4121);fill-opacity:1;fill-rule:evenodd;stroke:#797979;stroke-width:0.38180593;stroke-linecap:butt;stroke-linejoin:miter;stroke-miterlimit:4;stroke-dasharray:none;stroke-opacity:1"
       d="M 28.190888,7.944855 L 28.190888,13.003785 L 38.809082,13.481042 L 38.742634,8.9041666 L 28.190888,7.944855 z "
       id="path2851"
       sodipodi:nodetypes="ccccc" />
    <path
       style="fill:url(#linearGradient4118);fill-opacity:1;fill-rule:evenodd;stroke:#797979;stroke-width:0.38180602;stroke-linecap:butt;stroke-linejoin:miter;stroke-miterlimit:4;stroke-dasharray:none;stroke-opacity:1"
       d="M 28.190909,14.190903 L 38.762278,14.572709 L 38.809105,19.106655 L 28.190909,19.106655 L 28.190909,14.190903 z "
       id="path2853"
       sodipodi:nodetypes="ccccc" />
    <path
       sodipodi:type="arc"
       style="color:black;fill:url(#radialGradient5027);fill-opacity:1.0;fill-rule:evenodd;stroke:#399712;stroke-width:1;stroke-linecap:round;stroke-linejoin:round;marker:none;marker-start:none;marker-mid:none;marker-end:none;stroke-miterlimit:4;stroke-dasharray:none;stroke-dashoffset:0;stroke-opacity:1;visibility:visible;display:inline;overflow:visible"
       id="path2872"
       sodipodi:cx="109"
       sodipodi:cy="65.75"
       sodipodi:rx="2.5"
       sodipodi:ry="3.75"
       d="M 111.5 65.75 A 2.5 3.75 0 1 1  106.5,65.75 A 2.5 3.75 0 1 1  111.5 65.75 z"
       transform="matrix(0.381806,0,0,0.381806,-4.784675,-0.741231)" />
    <g
       id="g5005"
       transform="translate(-0.347187,0.291479)">
      <path
         id="path2882"
         d="M 29.005156,38.5 L 38.359403,37.812427"
         style="fill:none;fill-opacity:0.50400002;fill-rule:evenodd;stroke:white;stroke-width:1;stroke-linecap:butt;stroke-linejoin:miter;stroke-miterlimit:4;stroke-dasharray:none;stroke-opacity:0.57599996" />
      <path
         id="path2884"
         d="M 28.981293,37.5 L 38.33554,36.812426"
         style="fill:none;fill-opacity:0.50400002;fill-rule:evenodd;stroke:black;stroke-width:1;stroke-linecap:butt;stroke-linejoin:miter;stroke-miterlimit:4;stroke-dasharray:none;stroke-opacity:0.41999996" />
    </g>
    <path
       style="color:black;fill:url(#radialGradient4108);fill-opacity:1;fill-rule:evenodd;stroke:none;stroke-width:3;stroke-linecap:round;stroke-linejoin:round;marker:none;marker-start:none;marker-mid:none;marker-end:none;stroke-miterlimit:4;stroke-dasharray:none;stroke-dashoffset:0;stroke-opacity:1;visibility:visible;display:inline;overflow:visible"
       d="M 26.918493,5.7494705 C 26.878316,5.7494705 26.957308,5.7896804 26.918493,5.7954121 L 26.918493,5.760956 L 4.6712679,10.527398 L 4.6712679,39.930026 L 26.918493,45.064004 L 26.918493,45.018061 C 26.965697,45.026636 26.869188,45.075489 26.918493,45.075489 L 26.918493,5.7494705 z "
       id="path4854"
       sodipodi:nodetypes="ccccccccc" />
    <path
       style="color:black;fill:none;fill-opacity:1;fill-rule:evenodd;stroke:url(#linearGradient4105);stroke-width:0.99999982;stroke-linecap:round;stroke-linejoin:round;marker:none;marker-start:none;marker-mid:none;marker-end:none;stroke-miterlimit:4;stroke-dasharray:none;stroke-dashoffset:0;stroke-opacity:1;visibility:visible;display:inline;overflow:visible"
       d="M 26.918983,5.4999981 C 26.878497,5.4999981 26.958099,5.5398747 26.918983,5.5455587 L 26.918983,5.5113885 L 4.4999991,10.238316 L 4.4999991,39.397192 L 26.918983,44.488605 L 26.918983,44.443049 C 26.966553,44.451547 26.869298,44.5 26.918983,44.5 L 38.562503,43.042054 C 39.085007,43.042054 39.500003,42.554372 39.500003,41.948594 L 39.500003,8.0513999 C 39.500003,7.445624 39.085007,6.957942 38.562503,6.957942 L 26.918983,5.4999981 z "
       id="path4864"
       sodipodi:nodetypes="ccccccccccccc" />
    <path
       style="fill:none;fill-opacity:1;fill-rule:evenodd;stroke:url(#linearGradient4102);stroke-width:1;stroke-linecap:round;stroke-linejoin:round;stroke-miterlimit:4;stroke-dasharray:none;stroke-opacity:1"
       d="M 26.5,6.0501661 L 26.5,43.658058"
       id="path4874" />
    <path
       id="path5768"
       d="M 7.5285685,31.032187 C 7.0016762,30.984528 6.5740531,31.498968 6.5740535,32.177605 C 6.5740535,32.856242 7.0016762,33.442405 7.5285685,33.490063 C 8.0554608,33.537721 8.4830831,33.035213 8.4830835,32.356576 C 8.4830835,31.677939 8.0554612,31.079845 7.5285685,31.032187 z M 11.036411,31.258884 C 10.467027,31.207382 10.010307,31.756496 10.010307,32.487822 C 10.010307,33.219148 10.467027,33.85616 11.036411,33.907663 C 11.605795,33.959165 12.074447,33.41005 12.074446,32.678725 C 12.074446,31.947398 11.605795,31.310386 11.036411,31.258884 z M 15.17662,31.47365 C 14.5384,31.415921 14.01927,32.041014 14.01927,32.857697 C 14.01927,33.67438 14.5384,34.374918 15.17662,34.432646 C 15.81484,34.490375 16.333969,33.877214 16.333969,33.060531 C 16.333969,32.243848 15.81484,31.531378 15.17662,31.47365 z M 19.352623,31.760004 C 18.671912,31.698432 18.123685,32.3582 18.123685,33.227571 C 18.123685,34.096943 18.671912,34.848333 19.352623,34.909904 C 20.033334,34.971476 20.593492,34.311708 20.593493,33.442337 C 20.593493,32.572965 20.033335,31.821575 19.352623,31.760004 z M 23.898501,32.106016 C 23.187196,32.041677 22.609905,32.72593 22.609905,33.63324 C 22.609905,34.540549 23.187196,35.322822 23.898501,35.387161 C 24.609805,35.451501 25.187096,34.767247 25.187096,33.859937 C 25.187096,32.952628 24.609805,32.170354 23.898501,32.106016 z "
       style="opacity:0.81171546;fill:white;fill-opacity:1;stroke:none;stroke-width:1.18953109;stroke-linecap:round;stroke-linejoin:round;stroke-miterlimit:4;stroke-dasharray:none;stroke-dashoffset:0;stroke-opacity:1" />
    <path
       style="opacity:0.81171546;fill:#6b6b6b;fill-opacity:1;stroke:none;stroke-width:1.18953109;stroke-linecap:round;stroke-linejoin:round;stroke-miterlimit:4;stroke-dasharray:none;stroke-dashoffset:0;stroke-opacity:1"
       d="M 7.242214,30.745832 C 6.7153217,30.698174 6.2876986,31.212614 6.287699,31.89125 C 6.287699,32.569887 6.7153217,33.156051 7.242214,33.203708 C 7.7691063,33.251367 8.1967286,32.748859 8.196729,32.070222 C 8.196729,31.391584 7.7691067,30.79349 7.242214,30.745832 z M 10.750057,30.972529 C 10.180673,30.921027 9.723953,31.470142 9.723953,32.201467 C 9.723953,32.932794 10.180673,33.569806 10.750057,33.621309 C 11.31944,33.672811 11.788092,33.123696 11.788092,32.39237 C 11.788092,31.661044 11.31944,31.024032 10.750057,30.972529 z M 14.890265,31.187295 C 14.252045,31.129567 13.732916,31.754659 13.732916,32.571342 C 13.732916,33.388025 14.252045,34.088563 14.890265,34.146292 C 15.528485,34.20402 16.047614,33.590859 16.047615,32.774176 C 16.047615,31.957493 15.528485,31.245024 14.890265,31.187295 z M 19.066269,31.47365 C 18.385557,31.412078 17.83733,32.071845 17.837331,32.941217 C 17.837331,33.810589 18.385557,34.561978 19.066269,34.623549 C 19.74698,34.685121 20.307138,34.025354 20.307138,33.155982 C 20.307138,32.28661 19.74698,31.535221 19.066269,31.47365 z M 23.612146,31.819661 C 22.900842,31.755322 22.323551,32.439576 22.323551,33.346885 C 22.323551,34.254194 22.900842,35.036468 23.612146,35.100807 C 24.323451,35.165146 24.900741,34.480892 24.900741,33.573583 C 24.900741,32.666274 24.323451,31.884 23.612146,31.819661 z "
       id="path4886" />
    <path
       id="path5770"
       d="M 7.5285685,35.344859 C 7.0016762,35.249301 6.5740531,35.724866 6.5740535,36.403503 C 6.5740535,37.08214 7.0016762,37.707179 7.5285685,37.802735 C 8.0554608,37.898291 8.4830831,37.43466 8.4830835,36.756022 C 8.4830835,36.077385 8.0554612,35.440416 7.5285685,35.344859 z M 11.036411,35.890451 C 10.467027,35.787187 10.010307,36.294781 10.010307,37.026107 C 10.010307,37.757434 10.467027,38.435966 11.036411,38.539229 C 11.605795,38.642493 12.074447,38.135985 12.074446,37.404659 C 12.074446,36.673332 11.605795,35.993716 11.036411,35.890451 z M 15.17662,36.481599 C 14.5384,36.365851 14.01927,36.94375 14.01927,37.760433 C 14.01927,38.577116 14.5384,39.324849 15.17662,39.440597 C 15.81484,39.556345 16.333969,38.990379 16.333969,38.173694 C 16.333969,37.357011 15.81484,36.597348 15.17662,36.481599 z M 19.352623,37.14759 C 18.671912,37.024136 18.123685,37.634064 18.123685,38.503435 C 18.123685,39.372807 18.671912,40.174039 19.352623,40.297492 C 20.033334,40.420945 20.593492,39.812102 20.593493,38.94273 C 20.593493,38.073357 20.033335,37.271044 19.352623,37.14759 z M 23.898501,37.906864 C 23.187196,37.777861 22.609905,38.409633 22.609905,39.316942 C 22.609905,40.22425 23.187196,41.059008 23.898501,41.188009 C 24.609805,41.317013 25.187096,40.685239 25.187096,39.77793 C 25.187096,38.870622 24.609805,38.035866 23.898501,37.906864 z "
       style="opacity:0.81171546;fill:white;fill-opacity:1;stroke:none;stroke-width:1.18953109;stroke-linecap:round;stroke-linejoin:round;stroke-miterlimit:4;stroke-dasharray:none;stroke-dashoffset:0;stroke-opacity:1" />
    <path
       style="opacity:0.81171546;fill:#6b6b6b;fill-opacity:1;stroke:none;stroke-width:1.18953109;stroke-linecap:round;stroke-linejoin:round;stroke-miterlimit:4;stroke-dasharray:none;stroke-dashoffset:0;stroke-opacity:1"
       d="M 7.242214,35.032472 C 6.7153217,34.936914 6.2876986,35.41248 6.287699,36.091116 C 6.287699,36.769753 6.7153217,37.394792 7.242214,37.490348 C 7.7691063,37.585905 8.1967286,37.122273 8.196729,36.443636 C 8.196729,35.764998 7.7691067,35.12803 7.242214,35.032472 z M 10.750057,35.578064 C 10.180673,35.4748 9.723953,35.982395 9.723953,36.71372 C 9.723953,37.445047 10.180673,38.123579 10.750057,38.226843 C 11.31944,38.330107 11.788092,37.823597 11.788092,37.092272 C 11.788092,36.360946 11.31944,35.681329 10.750057,35.578064 z M 14.890265,36.169213 C 14.252045,36.053464 13.732916,36.631363 13.732916,37.448046 C 13.732916,38.26473 14.252045,39.012459 14.890265,39.128211 C 15.528485,39.243959 16.047614,38.677989 16.047615,37.861308 C 16.047615,37.044625 15.528485,36.284961 14.890265,36.169213 z M 19.066269,36.835204 C 18.385557,36.711749 17.83733,37.321678 17.837331,38.191049 C 17.837331,39.060421 18.385557,39.861649 19.066269,39.985102 C 19.74698,40.108559 20.307138,39.499716 20.307138,38.630344 C 20.307138,37.760971 19.74698,36.958658 19.066269,36.835204 z M 23.612146,37.594477 C 22.900842,37.465474 22.323551,38.097247 22.323551,39.004555 C 22.323551,39.911864 22.900842,40.746622 23.612146,40.875623 C 24.323451,41.004623 24.900741,40.372853 24.900741,39.465544 C 24.900741,38.558236 24.323451,37.72348 23.612146,37.594477 z "
       id="path5772" />
    <g
       id="g5009"
       transform="translate(-0.347187,2.895383)">
      <path
         id="path5011"
         d="M 29.005156,38.5 L 38.359403,37.812427"
         style="fill:none;fill-opacity:0.50400002;fill-rule:evenodd;stroke:white;stroke-width:1;stroke-linecap:butt;stroke-linejoin:miter;stroke-miterlimit:4;stroke-dasharray:none;stroke-opacity:0.57599996" />
      <path
         id="path5013"
         d="M 28.981293,37.5 L 38.33554,36.812426"
         style="fill:none;fill-opacity:0.50400002;fill-rule:evenodd;stroke:black;stroke-width:1;stroke-linecap:butt;stroke-linejoin:miter;stroke-miterlimit:4;stroke-dasharray:none;stroke-opacity:0.41999996" />
    </g>
    <g
       id="g5015"
       transform="translate(-0.347187,-2.312426)">
      <path
         id="path5017"
         d="M 29.005156,38.5 L 38.359403,37.812427"
         style="fill:none;fill-opacity:0.50400002;fill-rule:evenodd;stroke:white;stroke-width:1;stroke-linecap:butt;stroke-linejoin:miter;stroke-miterlimit:4;stroke-dasharray:none;stroke-opacity:0.57599996" />
      <path
         id="path5019"
         d="M 28.981293,37.5 L 38.33554,36.812426"
         style="fill:none;fill-opacity:0.50400002;fill-rule:evenodd;stroke:black;stroke-width:1;stroke-linecap:butt;stroke-linejoin:miter;stroke-miterlimit:4;stroke-dasharray:none;stroke-opacity:0.41999996" />
    </g>
  </g>
</svg>
