<?xml version="1.0" encoding="UTF-8" standalone="no"?>
<!-- Created with Inkscape (http://www.inkscape.org/) -->
<svg
   xmlns:dc="http://purl.org/dc/elements/1.1/"
   xmlns:cc="http://web.resource.org/cc/"
   xmlns:rdf="http://www.w3.org/1999/02/22-rdf-syntax-ns#"
   xmlns:svg="http://www.w3.org/2000/svg"
   xmlns="http://www.w3.org/2000/svg"
   xmlns:xlink="http://www.w3.org/1999/xlink"
   xmlns:sodipodi="http://inkscape.sourceforge.net/DTD/sodipodi-0.dtd"
   xmlns:inkscape="http://www.inkscape.org/namespaces/inkscape"
   width="48"
   height="48"
   id="svg2"
   sodipodi:version="0.32"
   inkscape:version="0.43+devel"
   sodipodi:docbase="/home/silvestre/Neu/scalable/places"
   sodipodi:docname="start-here.svg"
   version="1.0">
  <defs
     id="defs4">
    <linearGradient
       inkscape:collect="always"
       id="linearGradient11894">
      <stop
         style="stop-color:white;stop-opacity:1;"
         offset="0"
         id="stop11896" />
      <stop
         style="stop-color:white;stop-opacity:0;"
         offset="1"
         id="stop11898" />
    </linearGradient>
    <linearGradient
       inkscape:collect="always"
       id="linearGradient11880">
      <stop
         style="stop-color:white;stop-opacity:0.69527894"
         offset="0"
         id="stop11882" />
      <stop
         style="stop-color:white;stop-opacity:0;"
         offset="1"
         id="stop11884" />
    </linearGradient>
    <linearGradient
       inkscape:collect="always"
       id="linearGradient11869">
      <stop
         style="stop-color:black;stop-opacity:1;"
         offset="0"
         id="stop11871" />
      <stop
         style="stop-color:black;stop-opacity:0;"
         offset="1"
         id="stop11873" />
    </linearGradient>
    <linearGradient
       inkscape:collect="always"
       id="linearGradient10986">
      <stop
         style="stop-color:white;stop-opacity:1;"
         offset="0"
         id="stop10988" />
      <stop
         style="stop-color:white;stop-opacity:0;"
         offset="1"
         id="stop10990" />
    </linearGradient>
    <linearGradient
       inkscape:collect="always"
       id="linearGradient10976">
      <stop
         style="stop-color:white;stop-opacity:1;"
         offset="0"
         id="stop10978" />
      <stop
         style="stop-color:white;stop-opacity:0.33333334"
         offset="1"
         id="stop10980" />
    </linearGradient>
    <linearGradient
       inkscape:collect="always"
       xlink:href="#linearGradient10976"
       id="linearGradient10982"
       x1="28.75"
       y1="17.105862"
       x2="4.5404706"
       y2="40.95953"
       gradientUnits="userSpaceOnUse" />
    <linearGradient
       inkscape:collect="always"
       xlink:href="#linearGradient10986"
       id="linearGradient10992"
       x1="34.471455"
       y1="0.92720371"
       x2="17.501123"
       y2="21.255095"
       gradientUnits="userSpaceOnUse" />
    <radialGradient
       inkscape:collect="always"
       xlink:href="#linearGradient11869"
       id="radialGradient11875"
       cx="22.627417"
       cy="45.25996"
       fx="15.627968"
       fy="60.975437"
       r="19.445436"
       gradientTransform="matrix(1,0,0,0.195455,1.092117e-15,36.4137)"
       gradientUnits="userSpaceOnUse" />
    <linearGradient
       inkscape:collect="always"
       xlink:href="#linearGradient11880"
       id="linearGradient11886"
       x1="13.385923"
       y1="16.393206"
       x2="17.6196"
       y2="30.509481"
       gradientUnits="userSpaceOnUse" />
    <linearGradient
       inkscape:collect="always"
       xlink:href="#linearGradient11894"
       id="linearGradient11900"
       x1="28.019848"
       y1="4.1434674"
       x2="33.148129"
       y2="8.2855434"
       gradientUnits="userSpaceOnUse" />
    <linearGradient
       inkscape:collect="always"
       xlink:href="#linearGradient11894"
       id="linearGradient11904"
       gradientUnits="userSpaceOnUse"
       x1="28.019848"
       y1="4.1434674"
       x2="33.148129"
       y2="8.2855434" />
    <linearGradient
       inkscape:collect="always"
       xlink:href="#linearGradient11894"
       id="linearGradient11908"
       gradientUnits="userSpaceOnUse"
       x1="28.019848"
       y1="4.1434674"
       x2="33.148129"
       y2="8.2855434" />
    <linearGradient
       inkscape:collect="always"
       xlink:href="#linearGradient11894"
       id="linearGradient11912"
       gradientUnits="userSpaceOnUse"
       x1="28.019848"
       y1="4.1434674"
       x2="33.148129"
       y2="8.2855434" />
  </defs>
  <sodipodi:namedview
     id="base"
     pagecolor="#ffffff"
     bordercolor="#666666"
     borderopacity="1.0"
     inkscape:pageopacity="0.0"
     inkscape:pageshadow="2"
     inkscape:zoom="1"
     inkscape:cx="24"
     inkscape:cy="24"
     inkscape:document-units="px"
     inkscape:current-layer="layer1"
     showguides="true"
     inkscape:guide-bbox="true"
     inkscape:window-width="843"
     inkscape:window-height="556"
     inkscape:window-x="90"
     inkscape:window-y="80"
     inkscape:showpageshadow="false"
     width="48px"
     height="48px"
     showgrid="false"
     showborder="false" />
  <metadata
     id="metadata7">
    <rdf:RDF>
      <cc:Work
         rdf:about="">
        <dc:format>image/svg+xml</dc:format>
        <dc:type
           rdf:resource="http://purl.org/dc/dcmitype/StillImage" />
      </cc:Work>
    </rdf:RDF>
  </metadata>
  <g
     inkscape:label="Layer 1"
     inkscape:groupmode="layer"
     id="layer1">
    <path
       sodipodi:type="arc"
       style="opacity:0.41004184;fill:url(#radialGradient11875);fill-opacity:1;stroke:none;stroke-width:1;stroke-linecap:round;stroke-linejoin:round;stroke-miterlimit:4;stroke-dasharray:none;stroke-dashoffset:0;stroke-opacity:0.33333333"
       id="path10994"
       sodipodi:cx="22.627417"
       sodipodi:cy="45.25996"
       sodipodi:rx="19.445436"
       sodipodi:ry="3.800699"
       d="M 42.072853 45.25996 A 19.445436 3.800699 0 1 1  3.1819801,45.25996 A 19.445436 3.800699 0 1 1  42.072853 45.25996 z"
       transform="matrix(0.899954,0,0,1.183993,6.136364,-10.08749)" />
    <path
       style="fill:#1c5e82;fill-opacity:1;stroke:#0b3f69;stroke-width:0.99999946;stroke-miterlimit:4;stroke-dasharray:none;stroke-opacity:1"
       d="M 32.09375,0.49998624 C 29.832907,0.59607934 28.485951,1.3528769 26.78125,3.3398517 C 23.961181,6.6268873 23.049423,13.136775 25.75,14.199996 C 29.53234,15.689109 35.926454,12.515476 39.625,8.2081924 C 41.258763,5.9554887 42.066039,4.2141655 41.28125,2.6220835 C 40.028436,0.080531735 35.21733,0.56261155 32.09375,0.49998624 z M 17,2.5284615 C 15.590486,3.510177 14.951097,4.6890592 14.90625,6.7414487 C 14.858873,8.9095155 15.28926,10.501455 16.28125,11.547332 C 17.186904,12.502183 17.805937,12.517474 19.8125,12.608509 C 21.47023,12.683718 23.495699,9.4472053 23.59375,6.0860952 C 23.649645,4.1700682 23.609982,3.4416605 23.1875,2.7469127 C 22.067999,0.90595678 18.903613,1.2026097 17,2.5284615 z M 6.84375,8.1769851 C 6.4078846,9.4956272 7.3283892,12.48535 8,13.482228 C 9.0115881,14.983738 9.7077021,14.771568 11.1875,14.761728 C 13.338102,14.747428 14.226059,8.3768922 12.375,6.4293756 C 10.5702,4.5305284 7.7154417,5.5398192 6.84375,8.1769851 z M 0.53125,14.168789 C 0.51712822,14.519137 0.50215711,14.924138 0.625,15.354667 C 0.94858606,16.646253 1.6896204,18.287401 2.5689655,18.89316 C 3.3211413,19.411322 3.6687052,19.576148 4.4525862,19.563686 C 4.8686591,19.556845 5.2881348,19.400585 5.6551724,19.078163 C 7.643582,17.331456 5.9133945,12.41704 4.0043103,11.890655 C 3.5837283,11.774689 3.3801831,11.714585 2.96875,11.765826 C 2.3851561,11.838509 0.61110487,12.187668 0.53125,14.168789 z M 19.5,16.571752 C 10.977034,16.984015 3.9665878,22.059127 3.25,28.55536 C 2.4372596,35.923251 8.9893108,45.044122 16.59375,47.092504 C 22.626999,48.369499 28.154593,46.628757 32.34375,42.099334 C 34.566921,39.130468 35.041369,36.808272 33.625,35.889079 C 30.248327,35.063351 24.867609,34.40895 22.15625,37.074956 C 21.980302,37.407048 21.827325,38.203513 21.8125,38.853773 C 21.784659,40.075054 21.200078,40.915215 20.375,41.319151 C 19.929338,41.159958 19.467507,40.945062 19.03125,40.63259 C 18.340837,40.138073 17.534399,39.235878 17.25,38.635322 C 16.793511,37.671389 16.799169,37.426885 17.21875,36.544432 C 17.860514,35.194694 19.805509,33.76638 24.59375,31.11436 C 31.625941,27.219504 34.051105,24.699623 33.8125,21.564922 C 32.140219,15.678705 24.640082,16.500257 19.5,16.571752 z "
       id="path5721"
       sodipodi:nodetypes="cssssccsssssscssssccsssssscsssssscsssssc" />
    <path
       style="fill:#167fb8;fill-opacity:1;stroke:none;stroke-width:0.99999958;stroke-miterlimit:4;stroke-dasharray:none;stroke-opacity:1"
       d="M 16.71111,46.168043 C 9.529135,44.204146 3.497559,35.881487 4.265148,28.817473 C 4.987044,22.173947 12.388954,17.387484 21.15504,17.613544 C 26.329827,17.746994 28.913532,18.632701 29.116172,21.710558 C 29.314039,24.715974 27.303642,27.121023 21.472067,30.855241 C 17.501332,33.397883 15.896237,34.7655 15.364041,36.05957 C 15.016095,36.90563 14.916707,37.399282 15.29526,38.323459 C 15.531102,38.899246 16.347678,40.637563 17.23056,41.215133 C 19.572965,42.747505 21.898781,42.82692 22.747881,39.511371 C 22.902586,38.90728 22.93329,38.025307 23.075468,37.695499 C 23.512766,36.681111 28.50482,35.725682 29.271282,36.313937 C 30.436156,37.207969 29.742305,38.539532 27.898698,41.38595 C 25.270781,45.443296 20.897265,47.312742 16.71111,46.168043 z M 3.614003,18.463245 C 2.503671,17.693239 1.693366,15.928875 1.517447,14.599593 C 1.32886,13.174574 2.375554,12.1758 3.68339,12.741149 C 5.124226,13.363992 6.123156,17.037341 5.075179,18.236981 C 4.674008,18.696209 4.115979,18.811361 3.614003,18.463245 z M 8.584472,12.849342 C 7.939641,11.90087 7.428324,10.070241 7.684338,8.7643194 C 7.940351,7.4583976 8.64449,6.6694944 9.652826,6.5513304 C 10.472176,6.4553157 11.436478,6.896771 11.758,7.2872316 C 13.344853,9.2143481 12.213758,13.705958 10.404417,13.869473 C 9.732879,13.930163 9.229306,13.797815 8.584472,12.849342 z M 26.127062,13.221524 C 24.883323,12.439578 24.852357,7.274641 27.03491,4.6792491 C 28.286414,3.191018 30.056025,1.6920791 31.350802,1.5086542 C 34.171982,1.1089911 34.867919,2.2437115 35.327059,3.5244496 C 35.794511,4.8283754 35.30725,6.7303224 33.952422,8.8901167 C 31.335456,13.061948 28.020523,14.411955 26.127062,13.221524 z M 17.001872,10.909189 C 16.186332,9.8025643 15.790296,9.1447268 15.702804,7.0674387 C 15.641712,5.6169384 16.095584,4.12357 17.346328,3.4369858 C 18.647714,2.7226023 19.605711,2.8443131 20.304089,3.6409504 C 20.861757,4.2770832 20.833145,4.834907 20.657221,6.8516773 C 20.377416,10.059263 19.47166,11.72403 18.095901,11.687566 C 17.809447,11.67998 17.467896,11.401178 17.001872,10.909189 z "
       id="path5565"
       sodipodi:nodetypes="csssssssssssccssssczssszcssssscsssssc" />
    <path
       style="fill:none;fill-opacity:1.0;stroke:url(#linearGradient10982);stroke-width:0.99999958;stroke-miterlimit:4;stroke-dasharray:none;stroke-opacity:1"
       d="M 16.71111,46.168043 C 9.5291346,44.204146 3.4975593,35.881487 4.2651477,28.817473 C 4.9870438,22.173947 12.388954,17.387484 21.15504,17.613544 C 26.329827,17.746994 28.913532,18.632701 29.116172,21.710558 C 29.314039,24.715974 27.303642,27.121023 21.472067,30.855241 C 17.501332,33.397883 15.896237,34.7655 15.364041,36.05957 C 15.016095,36.90563 14.916707,37.399282 15.29526,38.323459 C 15.531102,38.899246 16.347678,40.637563 17.23056,41.215133 C 19.572965,42.747505 21.898781,42.82692 22.747881,39.511371 C 22.902586,38.90728 22.93329,38.025307 23.075468,37.695499 C 23.512766,36.681111 28.50482,35.725682 29.271282,36.313937 C 30.436156,37.207969 29.742305,38.539532 27.898698,41.38595 C 25.270781,45.443296 20.897265,47.312742 16.71111,46.168043 z "
       id="path10101"
       sodipodi:nodetypes="csssssssssssc" />
    <path
       style="fill:none;fill-opacity:1.0;stroke:url(#linearGradient10992);stroke-width:0.99999958;stroke-miterlimit:4;stroke-dasharray:none;stroke-opacity:1"
       d="M 3.614003,18.463245 C 2.503671,17.693239 1.693366,15.928875 1.517447,14.599593 C 1.32886,13.174574 2.375554,12.1758 3.68339,12.741149 C 5.124226,13.363992 6.123156,17.037341 5.075179,18.236981 C 4.674008,18.696209 4.115979,18.811361 3.614003,18.463245 z M 8.584472,12.849342 C 7.939641,11.90087 7.428324,10.070241 7.684338,8.7643194 C 7.940351,7.4583976 8.64449,6.6694944 9.652826,6.5513304 C 10.472176,6.4553157 11.436478,6.896771 11.758,7.2872316 C 13.344853,9.2143481 12.213758,13.705958 10.404417,13.869473 C 9.732879,13.930163 9.229306,13.797815 8.584472,12.849342 z M 26.127062,13.221524 C 24.727073,12.220828 24.472413,8.4960334 27.25366,4.3042491 C 28.703774,2.1186945 30.056025,1.6920791 31.350802,1.5086542 C 34.171982,1.1089911 34.867919,2.2437115 35.327059,3.5244496 C 35.794511,4.8283754 35.30725,6.7303224 33.952422,8.8901167 C 31.335456,13.061948 27.946615,14.522119 26.127062,13.221524 z M 17.001872,10.909189 C 16.186332,9.8025643 15.790296,9.1447268 15.702804,7.0674387 C 15.641712,5.6169384 16.095584,4.12357 17.346328,3.4369858 C 18.647714,2.7226023 19.605711,2.8443131 20.304089,3.6409504 C 20.861757,4.2770832 20.833145,4.834907 20.657221,6.8516773 C 20.377416,10.059263 19.47166,11.72403 18.095901,11.687566 C 17.809447,11.67998 17.467896,11.401178 17.001872,10.909189 z "
       id="path10984"
       sodipodi:nodetypes="cssssczssszcssssscsssssc" />
    <path
       style="opacity:1;fill:url(#linearGradient11886);fill-opacity:1.0;stroke:none;stroke-width:1;stroke-linecap:round;stroke-linejoin:round;stroke-miterlimit:4;stroke-dashoffset:0;stroke-opacity:0.33333333"
       d="M 27.857298,20.947013 C 28.827182,23.798056 24.750264,27.479685 18.757035,29.164934 C 12.763808,30.850183 7.1125862,29.90403 6.1427022,27.052986 C 5.1728184,24.201944 9.2497359,20.520314 15.242964,18.835065 C 21.236192,17.149817 26.887414,18.09597 27.857298,20.947013 z "
       id="path11877" />
    <path
       sodipodi:type="arc"
       style="opacity:1;fill:url(#linearGradient11900);fill-opacity:1;stroke:none;stroke-width:1;stroke-linecap:round;stroke-linejoin:round;stroke-miterlimit:4;stroke-dasharray:none;stroke-dashoffset:0;stroke-opacity:0.33333333"
       id="path11892"
       sodipodi:cx="30.935923"
       sodipodi:cy="6.8552241"
       sodipodi:rx="2.2980971"
       sodipodi:ry="2.1655145"
       d="M 33.23402 6.8552241 A 2.2980971 2.1655145 0 1 1  28.637825,6.8552241 A 2.2980971 2.1655145 0 1 1  33.23402 6.8552241 z"
       transform="matrix(0.99128,0.991284,-1.227298,1.227304,9.247239,-33.57972)" />
    <path
       sodipodi:type="arc"
       style="opacity:1;fill:url(#linearGradient11904);fill-opacity:1;stroke:none;stroke-width:1;stroke-linecap:round;stroke-linejoin:round;stroke-miterlimit:4;stroke-dasharray:none;stroke-dashoffset:0;stroke-opacity:0.33333333"
       id="path11902"
       sodipodi:cx="30.935923"
       sodipodi:cy="6.8552241"
       sodipodi:rx="2.2980971"
       sodipodi:ry="2.1655145"
       d="M 33.23402 6.8552241 A 2.2980971 2.1655145 0 1 1  28.637825,6.8552241 A 2.2980971 2.1655145 0 1 1  33.23402 6.8552241 z"
       transform="matrix(0.566448,0.566448,-0.701316,0.701317,5.284089,-16.79991)" />
    <path
       sodipodi:type="arc"
       style="opacity:1;fill:url(#linearGradient11908);fill-opacity:1;stroke:none;stroke-width:1;stroke-linecap:round;stroke-linejoin:round;stroke-miterlimit:4;stroke-dasharray:none;stroke-dashoffset:0;stroke-opacity:0.33333333"
       id="path11906"
       sodipodi:cx="30.935923"
       sodipodi:cy="6.8552241"
       sodipodi:rx="2.2980971"
       sodipodi:ry="2.1655145"
       d="M 33.23402 6.8552241 A 2.2980971 2.1655145 0 1 1  28.637825,6.8552241 A 2.2980971 2.1655145 0 1 1  33.23402 6.8552241 z"
       transform="matrix(0.566448,0.566448,-0.701316,0.701317,-2.715913,-13.33128)" />
    <path
       sodipodi:type="arc"
       style="opacity:1;fill:url(#linearGradient11912);fill-opacity:1;stroke:none;stroke-width:1;stroke-linecap:round;stroke-linejoin:round;stroke-miterlimit:4;stroke-dasharray:none;stroke-dashoffset:0;stroke-opacity:0.33333333"
       id="path11910"
       sodipodi:cx="30.935923"
       sodipodi:cy="6.8552241"
       sodipodi:rx="2.2980971"
       sodipodi:ry="2.1655145"
       d="M 33.23402 6.8552241 A 2.2980971 2.1655145 0 1 1  28.637825,6.8552241 A 2.2980971 2.1655145 0 1 1  33.23402 6.8552241 z"
       transform="matrix(0.50374,0.496949,-0.623678,0.61527,-8.086811,-5.345994)" />
  </g>
</svg>
