<?xml version="1.0" encoding="UTF-8" standalone="no"?>
<!-- Created with Inkscape (http://www.inkscape.org/) -->
<svg
   xmlns:dc="http://purl.org/dc/elements/1.1/"
   xmlns:cc="http://web.resource.org/cc/"
   xmlns:rdf="http://www.w3.org/1999/02/22-rdf-syntax-ns#"
   xmlns:svg="http://www.w3.org/2000/svg"
   xmlns="http://www.w3.org/2000/svg"
   xmlns:xlink="http://www.w3.org/1999/xlink"
   xmlns:sodipodi="http://inkscape.sourceforge.net/DTD/sodipodi-0.dtd"
   xmlns:inkscape="http://www.inkscape.org/namespaces/inkscape"
   width="48"
   height="48"
   id="svg3947"
   sodipodi:version="0.32"
   inkscape:version="0.43+devel"
   sodipodi:docbase="/home/silvestre/Desktop/Neu/scalable/places"
   sodipodi:docname="user-desktop.svg"
   version="1.0">
  <defs
     id="defs3949">
    <linearGradient
       id="linearGradient8389"
       inkscape:collect="always">
      <stop
         id="stop8391"
         offset="0"
         style="stop-color:black;stop-opacity:0.13725491" />
      <stop
         id="stop8393"
         offset="1"
         style="stop-color:#000000;stop-opacity:0;" />
    </linearGradient>
    <linearGradient
       inkscape:collect="always"
       id="linearGradient8365">
      <stop
         style="stop-color:#000000;stop-opacity:0.18000001"
         offset="0"
         id="stop8367" />
      <stop
         style="stop-color:#000000;stop-opacity:0;"
         offset="1"
         id="stop8369" />
    </linearGradient>
    <linearGradient
       inkscape:collect="always"
       id="linearGradient7601">
      <stop
         style="stop-color:#ffffff;stop-opacity:0.56000000"
         offset="0"
         id="stop7603" />
      <stop
         style="stop-color:#ffffff;stop-opacity:0;"
         offset="1"
         id="stop7605" />
    </linearGradient>
    <linearGradient
       id="linearGradient6137">
      <stop
         style="stop-color:#ffca53;stop-opacity:1.0000000;"
         offset="0.0000000"
         id="stop6139" />
      <stop
         style="stop-color:#dfb348;stop-opacity:1.0000000;"
         offset="1.0000000"
         id="stop6141" />
    </linearGradient>
    <linearGradient
       inkscape:collect="always"
       xlink:href="#linearGradient6137"
       id="linearGradient6143"
       x1="70.398491"
       y1="55.110344"
       x2="102.74317"
       y2="58.450184"
       gradientUnits="userSpaceOnUse"
       gradientTransform="matrix(0.375462,0,0,0.409779,-0.47537,-5.951609)" />
    <linearGradient
       inkscape:collect="always"
       xlink:href="#linearGradient7601"
       id="linearGradient7607"
       x1="58.781189"
       y1="33.482525"
       x2="57.111267"
       y2="59.700268"
       gradientUnits="userSpaceOnUse"
       gradientTransform="matrix(0.370411,0,0,0.370411,5.955199e-7,-4.162288)" />
    <radialGradient
       inkscape:collect="always"
       xlink:href="#linearGradient8389"
       id="radialGradient8371"
       cx="63.456963"
       cy="110.63283"
       fx="63.456963"
       fy="110.63283"
       r="60.117123"
       gradientTransform="matrix(0.9,-4.584638e-9,9.056027e-10,0.177778,6.345696,90.96477)"
       gradientUnits="userSpaceOnUse" />
    <radialGradient
       inkscape:collect="always"
       xlink:href="#linearGradient8365"
       id="radialGradient8375"
       gradientUnits="userSpaceOnUse"
       gradientTransform="matrix(0.9,-4.584638e-9,9.056027e-10,0.177778,6.345696,90.96477)"
       cx="63.456963"
       cy="110.63283"
       fx="63.456963"
       fy="110.63283"
       r="60.117123" />
    <radialGradient
       inkscape:collect="always"
       xlink:href="#linearGradient8365"
       id="radialGradient4853"
       gradientUnits="userSpaceOnUse"
       gradientTransform="matrix(0.9,-4.584638e-9,9.056027e-10,0.177778,6.345696,90.96477)"
       cx="63.456963"
       cy="110.63283"
       fx="63.456963"
       fy="110.63283"
       r="60.117123" />
    <radialGradient
       inkscape:collect="always"
       xlink:href="#linearGradient8365"
       id="radialGradient4865"
       gradientUnits="userSpaceOnUse"
       gradientTransform="matrix(0.9,-4.584638e-9,9.056027e-10,0.177778,6.345696,90.96477)"
       cx="63.456963"
       cy="110.63283"
       fx="63.456963"
       fy="110.63283"
       r="60.117123" />
    <radialGradient
       inkscape:collect="always"
       xlink:href="#linearGradient8365"
       id="radialGradient4877"
       gradientUnits="userSpaceOnUse"
       gradientTransform="matrix(0.9,-4.584638e-9,9.056027e-10,0.177778,6.345696,90.96477)"
       cx="63.456963"
       cy="110.63283"
       fx="63.456963"
       fy="110.63283"
       r="60.117123" />
  </defs>
  <sodipodi:namedview
     id="base"
     pagecolor="#ffffff"
     bordercolor="#666666"
     borderopacity="1.0"
     inkscape:pageopacity="0.0"
     inkscape:pageshadow="2"
     inkscape:zoom="1"
     inkscape:cx="24"
     inkscape:cy="24"
     inkscape:document-units="px"
     inkscape:current-layer="layer1"
     showguides="true"
     inkscape:guide-bbox="true"
     inkscape:window-width="823"
     inkscape:window-height="536"
     inkscape:window-x="0"
     inkscape:window-y="22"
     inkscape:showpageshadow="false"
     showgrid="false"
     width="48px"
     height="48px"
     showborder="false" />
  <metadata
     id="metadata3952">
    <rdf:RDF>
      <cc:Work
         rdf:about="">
        <dc:format>image/svg+xml</dc:format>
        <dc:type
           rdf:resource="http://purl.org/dc/dcmitype/StillImage" />
      </cc:Work>
    </rdf:RDF>
  </metadata>
  <g
     inkscape:label="Layer 1"
     inkscape:groupmode="layer"
     id="layer1">
    <path
       transform="matrix(0.399221,0,0,0.472761,-1.333334,-15.30292)"
       style="color:black;fill:url(#radialGradient8371);fill-opacity:1;fill-rule:evenodd;stroke:none;stroke-width:2;stroke-linecap:round;stroke-linejoin:round;stroke-miterlimit:4;stroke-dashoffset:0;stroke-opacity:1;marker:none;marker-start:none;marker-mid:none;marker-end:none;visibility:visible;display:inline;overflow:visible"
       d="M 123.57409,110.63283 C 123.57409,117.63848 96.641614,123.32422 63.456963,123.32422 C 30.272311,123.32422 3.3398399,117.63848 3.3398399,110.63283 C 3.3398399,103.62718 30.272311,97.941435 63.456963,97.941435 C 96.641614,97.941435 123.57409,103.62718 123.57409,110.63283 z "
       id="path8363" />
    <g
       id="g4867"
       transform="translate(32,-4.000003)">
      <path
         transform="matrix(4.990259e-2,0,0,7.879363e-2,3.833333,31.28284)"
         d="M 123.57409 110.63283 A 60.117123 12.691393 0 1 1  3.3398399,110.63283 A 60.117123 12.691393 0 1 1  123.57409 110.63283 z"
         sodipodi:ry="12.691393"
         sodipodi:rx="60.117123"
         sodipodi:cy="110.63283"
         sodipodi:cx="63.456963"
         id="path4869"
         style="opacity:1;color:black;fill:url(#radialGradient4877);fill-opacity:1;fill-rule:evenodd;stroke:none;stroke-width:2;stroke-linecap:round;stroke-linejoin:round;marker:none;marker-start:none;marker-mid:none;marker-end:none;stroke-miterlimit:4;stroke-dasharray:none;stroke-dashoffset:0;stroke-opacity:1;visibility:visible;display:inline;overflow:visible"
         sodipodi:type="arc" />
      <g
         transform="matrix(-0.30755,0,0,0.393459,12.11368,-5.995508)"
         id="g4871">
        <path
           style="color:black;fill:#a14e01;fill-opacity:1;fill-rule:evenodd;stroke:none;stroke-width:2;stroke-linecap:round;stroke-linejoin:round;stroke-miterlimit:4;stroke-dashoffset:0;stroke-opacity:1;marker:none;marker-start:none;marker-mid:none;marker-end:none;visibility:visible;display:inline;overflow:visible"
           d="M 15.843392,63.527676 L 17.410909,63.527676 C 18.77804,63.527676 19.878654,64.303911 19.878654,65.268115 L 19.878654,115.15993 C 19.878654,116.12413 18.77804,116.90037 17.410909,116.90037 L 15.843392,116.90037 C 14.476261,116.90037 13.375647,116.12413 13.375647,115.15993 L 13.375647,65.268115 C 13.375647,64.303911 14.476261,63.527676 15.843392,63.527676 z "
           id="rect4873" />
        <path
           style="color:black;fill:black;fill-opacity:0.31600001;fill-rule:evenodd;stroke:none;stroke-width:2;stroke-linecap:round;stroke-linejoin:round;stroke-miterlimit:4;stroke-dashoffset:0;stroke-opacity:1;marker:none;marker-start:none;marker-mid:none;marker-end:none;visibility:visible;display:inline;overflow:visible"
           d="M 15.001398,63.527676 C 15.902065,63.527676 16.62715,64.303911 16.62715,65.268115 L 16.62715,115.15993 C 16.62715,116.12413 15.902065,116.90037 15.001398,116.90037 C 14.100732,116.90037 13.375647,116.12413 13.375647,115.15993 L 13.375647,65.268115 C 13.375647,64.303911 14.100732,63.527676 15.001398,63.527676 z "
           id="rect4875" />
      </g>
    </g>
    <g
       id="g4855"
       transform="translate(23,0.999997)">
      <path
         transform="matrix(4.990259e-2,0,0,7.879363e-2,3.833333,31.28284)"
         d="M 123.57409 110.63283 A 60.117123 12.691393 0 1 1  3.3398399,110.63283 A 60.117123 12.691393 0 1 1  123.57409 110.63283 z"
         sodipodi:ry="12.691393"
         sodipodi:rx="60.117123"
         sodipodi:cy="110.63283"
         sodipodi:cx="63.456963"
         id="path4857"
         style="opacity:1;color:black;fill:url(#radialGradient4865);fill-opacity:1;fill-rule:evenodd;stroke:none;stroke-width:2;stroke-linecap:round;stroke-linejoin:round;marker:none;marker-start:none;marker-mid:none;marker-end:none;stroke-miterlimit:4;stroke-dasharray:none;stroke-dashoffset:0;stroke-opacity:1;visibility:visible;display:inline;overflow:visible"
         sodipodi:type="arc" />
      <g
         transform="matrix(-0.30755,0,0,0.393459,12.11368,-5.995508)"
         id="g4859">
        <path
           style="color:black;fill:#a14e01;fill-opacity:1;fill-rule:evenodd;stroke:none;stroke-width:2;stroke-linecap:round;stroke-linejoin:round;stroke-miterlimit:4;stroke-dashoffset:0;stroke-opacity:1;marker:none;marker-start:none;marker-mid:none;marker-end:none;visibility:visible;display:inline;overflow:visible"
           d="M 15.843392,63.527676 L 17.410909,63.527676 C 18.77804,63.527676 19.878654,64.303911 19.878654,65.268115 L 19.878654,115.15993 C 19.878654,116.12413 18.77804,116.90037 17.410909,116.90037 L 15.843392,116.90037 C 14.476261,116.90037 13.375647,116.12413 13.375647,115.15993 L 13.375647,65.268115 C 13.375647,64.303911 14.476261,63.527676 15.843392,63.527676 z "
           id="rect4861" />
        <path
           style="color:black;fill:black;fill-opacity:0.31600001;fill-rule:evenodd;stroke:none;stroke-width:2;stroke-linecap:round;stroke-linejoin:round;stroke-miterlimit:4;stroke-dashoffset:0;stroke-opacity:1;marker:none;marker-start:none;marker-mid:none;marker-end:none;visibility:visible;display:inline;overflow:visible"
           d="M 15.001398,63.527676 C 15.902065,63.527676 16.62715,64.303911 16.62715,65.268115 L 16.62715,115.15993 C 16.62715,116.12413 15.902065,116.90037 15.001398,116.90037 C 14.100732,116.90037 13.375647,116.12413 13.375647,115.15993 L 13.375647,65.268115 C 13.375647,64.303911 14.100732,63.527676 15.001398,63.527676 z "
           id="rect4863" />
      </g>
    </g>
    <g
       id="g4843"
       transform="translate(9,-4.000003)">
      <path
         transform="matrix(4.990259e-2,0,0,7.879363e-2,3.833333,31.28284)"
         d="M 123.57409 110.63283 A 60.117123 12.691393 0 1 1  3.3398399,110.63283 A 60.117123 12.691393 0 1 1  123.57409 110.63283 z"
         sodipodi:ry="12.691393"
         sodipodi:rx="60.117123"
         sodipodi:cy="110.63283"
         sodipodi:cx="63.456963"
         id="path4845"
         style="opacity:1;color:black;fill:url(#radialGradient4853);fill-opacity:1;fill-rule:evenodd;stroke:none;stroke-width:2;stroke-linecap:round;stroke-linejoin:round;marker:none;marker-start:none;marker-mid:none;marker-end:none;stroke-miterlimit:4;stroke-dasharray:none;stroke-dashoffset:0;stroke-opacity:1;visibility:visible;display:inline;overflow:visible"
         sodipodi:type="arc" />
      <g
         transform="matrix(-0.30755,0,0,0.393459,12.11368,-5.995508)"
         id="g4847">
        <path
           style="color:black;fill:#a14e01;fill-opacity:1;fill-rule:evenodd;stroke:none;stroke-width:2;stroke-linecap:round;stroke-linejoin:round;stroke-miterlimit:4;stroke-dashoffset:0;stroke-opacity:1;marker:none;marker-start:none;marker-mid:none;marker-end:none;visibility:visible;display:inline;overflow:visible"
           d="M 15.843392,63.527676 L 17.410909,63.527676 C 18.77804,63.527676 19.878654,64.303911 19.878654,65.268115 L 19.878654,115.15993 C 19.878654,116.12413 18.77804,116.90037 17.410909,116.90037 L 15.843392,116.90037 C 14.476261,116.90037 13.375647,116.12413 13.375647,115.15993 L 13.375647,65.268115 C 13.375647,64.303911 14.476261,63.527676 15.843392,63.527676 z "
           id="rect4849" />
        <path
           style="color:black;fill:black;fill-opacity:0.31600001;fill-rule:evenodd;stroke:none;stroke-width:2;stroke-linecap:round;stroke-linejoin:round;stroke-miterlimit:4;stroke-dashoffset:0;stroke-opacity:1;marker:none;marker-start:none;marker-mid:none;marker-end:none;visibility:visible;display:inline;overflow:visible"
           d="M 15.001398,63.527676 C 15.902065,63.527676 16.62715,64.303911 16.62715,65.268115 L 16.62715,115.15993 C 16.62715,116.12413 15.902065,116.90037 15.001398,116.90037 C 14.100732,116.90037 13.375647,116.12413 13.375647,115.15993 L 13.375647,65.268115 C 13.375647,64.303911 14.100732,63.527676 15.001398,63.527676 z "
           id="rect4851" />
      </g>
    </g>
    <g
       id="g4837">
      <path
         transform="matrix(4.990259e-2,0,0,7.879363e-2,3.833333,31.28284)"
         d="M 123.57409 110.63283 A 60.117123 12.691393 0 1 1  3.3398399,110.63283 A 60.117123 12.691393 0 1 1  123.57409 110.63283 z"
         sodipodi:ry="12.691393"
         sodipodi:rx="60.117123"
         sodipodi:cy="110.63283"
         sodipodi:cx="63.456963"
         id="path8373"
         style="opacity:1;color:black;fill:url(#radialGradient8375);fill-opacity:1;fill-rule:evenodd;stroke:none;stroke-width:2;stroke-linecap:round;stroke-linejoin:round;marker:none;marker-start:none;marker-mid:none;marker-end:none;stroke-miterlimit:4;stroke-dasharray:none;stroke-dashoffset:0;stroke-opacity:1;visibility:visible;display:inline;overflow:visible"
         sodipodi:type="arc" />
      <g
         transform="matrix(-0.30755,0,0,0.393459,12.11368,-5.995508)"
         id="g8339">
        <path
           style="color:black;fill:#a14e01;fill-opacity:1;fill-rule:evenodd;stroke:none;stroke-width:2;stroke-linecap:round;stroke-linejoin:round;stroke-miterlimit:4;stroke-dashoffset:0;stroke-opacity:1;marker:none;marker-start:none;marker-mid:none;marker-end:none;visibility:visible;display:inline;overflow:visible"
           d="M 15.843392,63.527676 L 17.410909,63.527676 C 18.77804,63.527676 19.878654,64.303911 19.878654,65.268115 L 19.878654,115.15993 C 19.878654,116.12413 18.77804,116.90037 17.410909,116.90037 L 15.843392,116.90037 C 14.476261,116.90037 13.375647,116.12413 13.375647,115.15993 L 13.375647,65.268115 C 13.375647,64.303911 14.476261,63.527676 15.843392,63.527676 z "
           id="rect7609" />
        <path
           style="color:black;fill:black;fill-opacity:0.31600001;fill-rule:evenodd;stroke:none;stroke-width:2;stroke-linecap:round;stroke-linejoin:round;stroke-miterlimit:4;stroke-dashoffset:0;stroke-opacity:1;marker:none;marker-start:none;marker-mid:none;marker-end:none;visibility:visible;display:inline;overflow:visible"
           d="M 15.001398,63.527676 C 15.902065,63.527676 16.62715,64.303911 16.62715,65.268115 L 16.62715,115.15993 C 16.62715,116.12413 15.902065,116.90037 15.001398,116.90037 C 14.100732,116.90037 13.375647,116.12413 13.375647,115.15993 L 13.375647,65.268115 C 13.375647,64.303911 14.100732,63.527676 15.001398,63.527676 z "
           id="rect8337" />
      </g>
    </g>
    <path
       style="fill:url(#linearGradient6143);fill-opacity:1;fill-rule:evenodd;stroke:#c05e04;stroke-width:0.99999988;stroke-linecap:round;stroke-linejoin:round;stroke-miterlimit:4;stroke-dasharray:none;stroke-opacity:1"
       d="M 0.49999982,20.803161 L 0.49999982,23.474728 L 34.204748,25.499987 L 45.500009,13.194826 L 45.500009,11.528703 L 12.027096,10.499995 L 0.49999982,20.803161 z "
       id="path3955"
       sodipodi:nodetypes="ccccccc" />
    <path
       style="fill:black;fill-opacity:0.23599997;fill-rule:evenodd;stroke:none;stroke-width:0.25pt;stroke-linecap:butt;stroke-linejoin:miter;stroke-opacity:1"
       d="M 34,25 L 45,12.99726 L 45,12 L 34,23.014824 L 34,25 z "
       id="path4683"
       sodipodi:nodetypes="ccccc" />
    <path
       style="fill:white;fill-opacity:0.30400002;fill-rule:evenodd;stroke:none;stroke-width:0.25pt;stroke-linecap:butt;stroke-linejoin:miter;stroke-opacity:1"
       d="M 1.0031259,22.996677 L 34,25 L 34,23.006263 L 1,21 L 1.0031259,22.996677 z "
       id="path6145"
       sodipodi:nodetypes="ccccc" />
    <path
       style="fill:url(#linearGradient7607);fill-opacity:1;fill-rule:evenodd;stroke:none;stroke-width:0.25pt;stroke-linecap:butt;stroke-linejoin:miter;stroke-opacity:1"
       d="M 3.8695237,18.448123 L 12.261115,11.00724 L 44.995605,12.004329 L 36.282826,20.703962 C 28.282827,12.889529 14.467462,15.128536 3.8695237,18.448123 z "
       id="path6873"
       sodipodi:nodetypes="ccccc" />
  </g>
</svg>
