<?xml version="1.0" encoding="UTF-8" standalone="no"?>
<!-- Created with Inkscape (http://www.inkscape.org/) -->
<svg
   xmlns:dc="http://purl.org/dc/elements/1.1/"
   xmlns:cc="http://web.resource.org/cc/"
   xmlns:rdf="http://www.w3.org/1999/02/22-rdf-syntax-ns#"
   xmlns:svg="http://www.w3.org/2000/svg"
   xmlns="http://www.w3.org/2000/svg"
   xmlns:xlink="http://www.w3.org/1999/xlink"
   xmlns:sodipodi="http://inkscape.sourceforge.net/DTD/sodipodi-0.dtd"
   xmlns:inkscape="http://www.inkscape.org/namespaces/inkscape"
   width="48"
   height="48"
   id="svg2"
   sodipodi:version="0.32"
   inkscape:version="0.43+devel"
   sodipodi:docbase="/home/silvestre/Desktop/Neu/scalable/devices"
   sodipodi:docname="media-cdrw.svg"
   version="1.0">
  <defs
     id="defs4">
    <linearGradient
       id="linearGradient5974"
       inkscape:collect="always">
      <stop
         id="stop5976"
         offset="0"
         style="stop-color:#a45a5a;stop-opacity:0.627451" />
      <stop
         id="stop5978"
         offset="1"
         style="stop-color:#a45a5a;stop-opacity:0" />
    </linearGradient>
    <linearGradient
       id="linearGradient5968"
       inkscape:collect="always">
      <stop
         id="stop5970"
         offset="0"
         style="stop-color:#b36969;stop-opacity:1" />
      <stop
         id="stop5972"
         offset="1"
         style="stop-color:#bf8181;stop-opacity:1" />
    </linearGradient>
    <linearGradient
       inkscape:collect="always"
       id="linearGradient4836">
      <stop
         style="stop-color:white;stop-opacity:1;"
         offset="0"
         id="stop4838" />
      <stop
         style="stop-color:white;stop-opacity:0.58823532"
         offset="1"
         id="stop4840" />
    </linearGradient>
    <linearGradient
       id="linearGradient8655">
      <stop
         style="stop-color:#000000;stop-opacity:0.30208334;"
         offset="0.0000000"
         id="stop8657" />
      <stop
         style="stop-color:#000000;stop-opacity:0;"
         offset="1"
         id="stop8659" />
    </linearGradient>
    <linearGradient
       id="linearGradient7917">
      <stop
         style="stop-color:#000000;stop-opacity:0.16666669;"
         offset="0.0000000"
         id="stop7919" />
      <stop
         style="stop-color:#000000;stop-opacity:0;"
         offset="1"
         id="stop7921" />
    </linearGradient>
    <linearGradient
       id="linearGradient6455">
      <stop
         style="stop-color:#ffe3e3;stop-opacity:1"
         offset="0"
         id="stop6457" />
      <stop
         style="stop-color:#e7b5b5;stop-opacity:1"
         offset="1"
         id="stop6459" />
    </linearGradient>
    <linearGradient
       id="linearGradient5703">
      <stop
         id="stop5705"
         offset="0.0000000"
         style="stop-color:#ffffff;stop-opacity:0.83333325;" />
      <stop
         id="stop5707"
         offset="1"
         style="stop-color:#ffffff;stop-opacity:0.0000000" />
    </linearGradient>
    <linearGradient
       id="linearGradient5691">
      <stop
         style="stop-color:#ffffff;stop-opacity:0.83333325;"
         offset="0.0000000"
         id="stop5693" />
      <stop
         style="stop-color:#ffffff;stop-opacity:0.0000000"
         offset="1"
         id="stop5695" />
    </linearGradient>
    <linearGradient
       inkscape:collect="always"
       xlink:href="#linearGradient5691"
       id="linearGradient5697"
       x1="31.114616"
       y1="33.89996"
       x2="48.388142"
       y2="61.223637"
       gradientUnits="userSpaceOnUse"
       gradientTransform="matrix(0.421923,0,0,0.437354,-1.266044,-4.270551)" />
    <linearGradient
       inkscape:collect="always"
       xlink:href="#linearGradient5703"
       id="linearGradient5723"
       gradientUnits="userSpaceOnUse"
       x1="59.902058"
       y1="95.622185"
       x2="33.750458"
       y2="78.300934"
       gradientTransform="matrix(0.42539,0,0,0.416527,-0.5394,-2.924339)" />
    <linearGradient
       inkscape:collect="always"
       xlink:href="#linearGradient6455"
       id="linearGradient6461"
       x1="21.100939"
       y1="33.477123"
       x2="54.294334"
       y2="75.682442"
       gradientUnits="userSpaceOnUse"
       gradientTransform="matrix(0.4487,0,0,0.446559,-1.827632,-5.393746)" />
    <radialGradient
       inkscape:collect="always"
       xlink:href="#linearGradient7917"
       id="radialGradient7923"
       cx="51.231888"
       cy="110.19082"
       fx="51.231888"
       fy="110.19082"
       r="48.06039"
       gradientTransform="matrix(1,0,0,0.228426,5.880713e-16,85.02033)"
       gradientUnits="userSpaceOnUse" />
    <linearGradient
       inkscape:collect="always"
       xlink:href="#linearGradient8655"
       id="linearGradient8661"
       x1="59.867424"
       y1="177.41431"
       x2="86.77282"
       y2="84.96209"
       gradientUnits="userSpaceOnUse"
       gradientTransform="matrix(0.383382,0,0,0.470667,2.012779,-7.988872)" />
    <linearGradient
       inkscape:collect="always"
       xlink:href="#linearGradient5974"
       id="linearGradient4834"
       x1="100.05664"
       y1="65.067497"
       x2="24.326601"
       y2="65.067497"
       gradientUnits="userSpaceOnUse"
       gradientTransform="matrix(0.446388,0,0,0.441471,-2.379523,-5.064504)" />
    <linearGradient
       inkscape:collect="always"
       xlink:href="#linearGradient4836"
       id="linearGradient4842"
       x1="38.183765"
       y1="21.226875"
       x2="59.657269"
       y2="101.36707"
       gradientUnits="userSpaceOnUse"
       gradientTransform="matrix(0.452495,0,0,0.445896,-2.9217,-5.073736)" />
    <linearGradient
       inkscape:collect="always"
       xlink:href="#linearGradient5968"
       id="linearGradient5724"
       x1="99.25"
       y1="65.5"
       x2="43.49057"
       y2="65.5"
       gradientUnits="userSpaceOnUse"
       gradientTransform="matrix(0.4487,0,0,0.446559,-2.725032,-5.393746)" />
  </defs>
  <sodipodi:namedview
     id="base"
     pagecolor="#ffffff"
     bordercolor="#666666"
     borderopacity="1.0"
     inkscape:pageopacity="0.0"
     inkscape:pageshadow="2"
     inkscape:zoom="1"
     inkscape:cx="24.139872"
     inkscape:cy="24.502417"
     inkscape:document-units="px"
     inkscape:current-layer="layer1"
     showguides="true"
     inkscape:guide-bbox="true"
     inkscape:window-width="823"
     inkscape:window-height="536"
     inkscape:window-x="49"
     inkscape:window-y="143"
     showborder="false"
     width="48px"
     height="48px"
     inkscape:showpageshadow="false"
     showgrid="false" />
  <metadata
     id="metadata7">
    <rdf:RDF>
      <cc:Work
         rdf:about="">
        <dc:format>image/svg+xml</dc:format>
        <dc:type
           rdf:resource="http://purl.org/dc/dcmitype/StillImage" />
      </cc:Work>
    </rdf:RDF>
  </metadata>
  <g
     inkscape:label="Layer 1"
     inkscape:groupmode="layer"
     id="layer1">
    <path
       sodipodi:nodetypes="csssccsssc"
       style="opacity:1;color:black;fill:url(#linearGradient8661);fill-opacity:1;fill-rule:evenodd;stroke:none;stroke-width:1.66170299;stroke-linecap:round;stroke-linejoin:round;marker:none;marker-start:none;marker-mid:none;marker-end:none;stroke-miterlimit:4;stroke-dasharray:none;stroke-dashoffset:0;stroke-opacity:1;visibility:visible;display:inline;overflow:visible"
       d="M 36.350491,32.005854 C 26.680472,31.849235 15.54161,34.854351 11.483891,38.71453 C 7.4261716,42.574709 11.976322,45.837546 21.646342,45.994152 C 31.31636,46.150771 42.458967,43.142099 46.516685,39.28192 C 50.574404,35.421742 46.020513,32.162472 36.350491,32.005854 z M 28.413123,38.073103 C 29.662614,38.093333 30.255276,38.511275 29.730966,39.010055 C 29.206657,39.508846 27.766149,39.897472 26.516658,39.877242 C 25.267164,39.857 24.678245,39.435502 25.202555,38.936722 C 25.726864,38.437931 27.163631,38.052862 28.413123,38.073103 z "
       id="path7925" />
    <path
       sodipodi:type="arc"
       style="opacity:1;color:black;fill:url(#radialGradient7923);fill-opacity:1;fill-rule:evenodd;stroke:none;stroke-width:3;stroke-linecap:round;stroke-linejoin:round;marker:none;marker-start:none;marker-mid:none;marker-end:none;stroke-miterlimit:4;stroke-dasharray:none;stroke-dashoffset:0;stroke-opacity:0.78400005;visibility:visible;display:inline;overflow:visible"
       id="path7189"
       sodipodi:cx="51.231888"
       sodipodi:cy="110.19082"
       sodipodi:rx="48.06039"
       sodipodi:ry="10.978262"
       d="M 99.292278 110.19082 A 48.06039 10.978262 0 1 1  3.1714973,110.19082 A 48.06039 10.978262 0 1 1  99.292278 110.19082 z"
       transform="matrix(0.416143,0,0,0.455446,-1.319796,-7.185913)" />
    <path
       style="opacity:1;color:black;fill:url(#linearGradient6461);fill-opacity:1;fill-rule:evenodd;stroke:url(#linearGradient5724);stroke-width:0.99999952;stroke-linecap:round;stroke-linejoin:round;marker:none;marker-start:none;marker-mid:none;marker-end:none;stroke-miterlimit:4;stroke-dasharray:none;stroke-dashoffset:0;stroke-opacity:1;visibility:visible;display:inline;overflow:visible"
       d="M 20.999989,1.4999996 C 9.682439,1.4999996 0.49999951,11.352451 0.49999951,23.493013 C 0.49999951,35.633571 9.6824401,45.499982 20.999989,45.499982 C 32.317535,45.499982 41.499975,35.633582 41.499975,23.493013 C 41.499976,11.35245 32.317535,1.4999996 20.999989,1.4999996 z M 19.219209,15.817787 C 23.177046,15.817787 26.398412,19.279139 26.398412,23.548833 C 26.398413,27.818531 23.177046,31.279878 19.219209,31.279878 C 15.261373,31.279878 12.054029,27.818531 12.054029,23.548833 C 12.054028,19.27914 15.261374,15.817787 19.219209,15.817787 z "
       id="path1308" />
    <path
       style="fill:url(#linearGradient5697);fill-opacity:1;fill-rule:evenodd;stroke:none;stroke-width:0.25pt;stroke-linecap:butt;stroke-linejoin:miter;stroke-opacity:1"
       d="M 20.331174,3.0004399 C 19.511013,2.993733 18.661207,3.0637798 17.799631,3.2054489 C 18.045429,9.3424698 18.2922,15.478257 18.537998,21.615277 C 19.03184,21.626061 19.470567,21.83915 19.830139,22.161967 C 23.886295,17.373858 27.943846,12.585766 32,7.797656 C 30.65243,6.3619791 26.072296,3.0473853 20.331174,3.0004399 z M 16.903043,25.619791 C 13.370921,29.789304 9.8343331,33.955836 6.3022107,38.125348 C 10.487688,42.761235 14.671067,44.845401 19.474141,45 C 19.225603,38.79456 18.971127,32.590588 18.722589,26.38516 C 18.645085,26.394601 18.578176,26.439824 18.498443,26.439824 C 17.855971,26.439824 17.299083,26.119211 16.903043,25.619791 z "
       id="path4955" />
    <path
       style="fill:url(#linearGradient5723);fill-opacity:1;fill-rule:evenodd;stroke:none;stroke-width:0.25pt;stroke-linecap:butt;stroke-linejoin:miter;stroke-opacity:1"
       d="M 21.235288,4.0004189 C 20.408388,3.9940327 19.551599,4.0607423 18.682944,4.1956662 C 18.930762,10.040448 19.179561,15.884055 19.427378,21.728836 C 19.925278,21.739107 20.367611,21.942049 20.730138,22.249494 C 24.819623,17.689388 28.910517,13.129302 33,8.5691957 C 31.641358,7.2018855 27.023588,4.0451286 21.235288,4.0004189 z M 17.778988,25.542653 C 14.217842,29.513621 10.652194,33.481757 7.091046,37.452714 C 11.310916,41.867847 15.52867,43.852757 20.371213,44 C 20.120633,38.090065 19.864066,32.18152 19.613486,26.271585 C 19.535345,26.280578 19.467886,26.323645 19.387498,26.323645 C 18.739746,26.323645 18.178283,26.018302 17.778988,25.542653 z "
       id="path5701" />
    <path
       sodipodi:nodetypes="csssccsssc"
       style="opacity:1;color:black;fill:#f2f2f2;fill-opacity:0.41199999;fill-rule:evenodd;stroke:#e3e3e3;stroke-width:0.53548694;stroke-linecap:round;stroke-linejoin:round;marker:none;marker-start:none;marker-mid:none;marker-end:none;stroke-miterlimit:4;stroke-dasharray:none;stroke-dashoffset:0;stroke-opacity:0.64800002;visibility:visible;display:inline;overflow:visible"
       d="M 19.213352,16.123049 C 15.419454,16.123049 12.344059,19.423355 12.344059,23.494708 C 12.344059,27.566065 15.419454,30.877886 19.213352,30.877886 C 23.007249,30.877886 26.093376,27.566065 26.093378,23.494708 C 26.093378,19.423355 23.007249,16.123049 19.213352,16.123049 z M 19.213352,20.31568 C 20.848646,20.31568 22.175735,21.739822 22.175735,23.494708 C 22.175735,25.249596 20.848646,26.673742 19.213352,26.673742 C 17.578058,26.673742 16.250969,25.249596 16.250969,23.494708 C 16.250968,21.739823 17.578059,20.31568 19.213352,20.31568 z "
       id="path2055" />
    <path
       style="opacity:1;color:black;fill:none;fill-opacity:1;fill-rule:evenodd;stroke:url(#linearGradient4834);stroke-width:2;stroke-linecap:round;stroke-linejoin:round;marker:none;marker-start:none;marker-mid:none;marker-end:none;stroke-miterlimit:4;stroke-dasharray:none;stroke-dashoffset:0;stroke-opacity:1;visibility:visible;display:inline;overflow:visible"
       d="M 20.999996,3.0000007 C 10.510557,3.0000007 1.9999997,12.180699 1.9999997,23.493504 C 1.9999997,34.806304 10.510558,44.000011 20.999996,44.000011 C 31.489434,44.000011 39.999994,34.806304 39.999994,23.493504 C 39.999995,12.180699 31.489436,3.0000007 20.999996,3.0000007 z "
       id="path4818"
       sodipodi:nodetypes="csssc" />
    <path
       style="opacity:1;color:black;fill:none;fill-opacity:1;fill-rule:evenodd;stroke:url(#linearGradient4842);stroke-width:1.00000012;stroke-linecap:round;stroke-linejoin:round;marker:none;marker-start:none;marker-mid:none;marker-end:none;stroke-miterlimit:4;stroke-dasharray:none;stroke-dashoffset:0;stroke-opacity:1;visibility:visible;display:inline;overflow:visible"
       d="M 19.999996,3.5000003 C 9.7865948,3.5000003 1.4999999,12.680697 1.4999999,23.993499 C 1.4999999,35.306294 9.7865948,44.500002 19.999996,44.500002 C 30.213396,44.500002 38.499994,35.306294 38.499994,23.993499 C 38.499995,12.680697 30.213396,3.5000003 19.999996,3.5000003 z "
       id="path3330"
       sodipodi:nodetypes="csssc" />
  </g>
</svg>
