<?xml version="1.0" encoding="UTF-8" standalone="no"?>
<!-- Created with Inkscape (http://www.inkscape.org/) -->
<svg
   xmlns:dc="http://purl.org/dc/elements/1.1/"
   xmlns:cc="http://web.resource.org/cc/"
   xmlns:rdf="http://www.w3.org/1999/02/22-rdf-syntax-ns#"
   xmlns:svg="http://www.w3.org/2000/svg"
   xmlns="http://www.w3.org/2000/svg"
   xmlns:xlink="http://www.w3.org/1999/xlink"
   xmlns:sodipodi="http://inkscape.sourceforge.net/DTD/sodipodi-0.dtd"
   xmlns:inkscape="http://www.inkscape.org/namespaces/inkscape"
   width="48"
   height="48"
   id="svg2"
   sodipodi:version="0.32"
   inkscape:version="0.43+devel"
   sodipodi:docbase="/home/silvestre/Desktop/Neu/scalable/devices"
   sodipodi:docname="media-dvdrw.svg"
   version="1.0">
  <defs
     id="defs4">
    <linearGradient
       id="linearGradient5717">
      <stop
         style="stop-color:#8c3d3d;stop-opacity:1"
         offset="0"
         id="stop5719" />
      <stop
         style="stop-color:#ad5c5c;stop-opacity:1"
         offset="1"
         id="stop5721" />
    </linearGradient>
    <linearGradient
       inkscape:collect="always"
       id="linearGradient4836">
      <stop
         style="stop-color:white;stop-opacity:1;"
         offset="0"
         id="stop4838" />
      <stop
         style="stop-color:white;stop-opacity:0.58823532"
         offset="1"
         id="stop4840" />
    </linearGradient>
    <linearGradient
       id="linearGradient4828">
      <stop
         style="stop-color:#a23939;stop-opacity:0.627451"
         offset="0"
         id="stop4830" />
      <stop
         style="stop-color:#a45a5a;stop-opacity:0"
         offset="1"
         id="stop4832" />
    </linearGradient>
    <linearGradient
       id="linearGradient8655">
      <stop
         style="stop-color:#000000;stop-opacity:0.30208334;"
         offset="0.0000000"
         id="stop8657" />
      <stop
         style="stop-color:#000000;stop-opacity:0;"
         offset="1"
         id="stop8659" />
    </linearGradient>
    <linearGradient
       id="linearGradient7917">
      <stop
         style="stop-color:#000000;stop-opacity:0.16666669;"
         offset="0.0000000"
         id="stop7919" />
      <stop
         style="stop-color:#000000;stop-opacity:0;"
         offset="1"
         id="stop7921" />
    </linearGradient>
    <linearGradient
       id="linearGradient6455">
      <stop
         style="stop-color:#ffb5b5;stop-opacity:1"
         offset="0"
         id="stop6457" />
      <stop
         style="stop-color:#e26060;stop-opacity:1"
         offset="1"
         id="stop6459" />
    </linearGradient>
    <linearGradient
       id="linearGradient5703">
      <stop
         id="stop5705"
         offset="0.0000000"
         style="stop-color:#ffffff;stop-opacity:0.83333325;" />
      <stop
         id="stop5707"
         offset="1"
         style="stop-color:#ffffff;stop-opacity:0.0000000" />
    </linearGradient>
    <linearGradient
       id="linearGradient5691">
      <stop
         style="stop-color:#ffffff;stop-opacity:0.83333325;"
         offset="0.0000000"
         id="stop5693" />
      <stop
         style="stop-color:#ffffff;stop-opacity:0.0000000"
         offset="1"
         id="stop5695" />
    </linearGradient>
    <linearGradient
       inkscape:collect="always"
       xlink:href="#linearGradient5691"
       id="linearGradient5697"
       x1="31.114616"
       y1="33.89996"
       x2="48.388142"
       y2="61.223637"
       gradientUnits="userSpaceOnUse"
       gradientTransform="matrix(0.421923,0,0,0.437354,-1.266044,-4.270551)" />
    <linearGradient
       inkscape:collect="always"
       xlink:href="#linearGradient5703"
       id="linearGradient5723"
       gradientUnits="userSpaceOnUse"
       x1="59.902058"
       y1="95.622185"
       x2="33.750458"
       y2="78.300934"
       gradientTransform="matrix(0.42539,0,0,0.416527,-0.5394,-2.924339)" />
    <linearGradient
       inkscape:collect="always"
       xlink:href="#linearGradient6455"
       id="linearGradient6461"
       x1="21.100939"
       y1="33.477123"
       x2="54.294334"
       y2="75.682442"
       gradientUnits="userSpaceOnUse"
       gradientTransform="matrix(0.4487,0,0,0.446559,-1.82763,-5.393746)" />
    <radialGradient
       inkscape:collect="always"
       xlink:href="#linearGradient7917"
       id="radialGradient7923"
       cx="51.231888"
       cy="110.19082"
       fx="51.231888"
       fy="110.19082"
       r="48.06039"
       gradientTransform="matrix(1,0,0,0.228426,5.880713e-16,85.02033)"
       gradientUnits="userSpaceOnUse" />
    <linearGradient
       inkscape:collect="always"
       xlink:href="#linearGradient8655"
       id="linearGradient8661"
       x1="59.867424"
       y1="177.41431"
       x2="86.77282"
       y2="84.96209"
       gradientUnits="userSpaceOnUse"
       gradientTransform="matrix(0.383382,0,0,0.470667,2.012779,-7.988872)" />
    <linearGradient
       inkscape:collect="always"
       xlink:href="#linearGradient4828"
       id="linearGradient4834"
       x1="100.05664"
       y1="65.067497"
       x2="24.326601"
       y2="65.067497"
       gradientUnits="userSpaceOnUse"
       gradientTransform="matrix(0.446388,0,0,0.441471,-2.379523,-5.064504)" />
    <linearGradient
       inkscape:collect="always"
       xlink:href="#linearGradient4836"
       id="linearGradient4842"
       x1="38.183765"
       y1="21.226875"
       x2="59.657269"
       y2="101.36707"
       gradientUnits="userSpaceOnUse"
       gradientTransform="matrix(0.452495,0,0,0.445896,-2.9217,-5.073736)" />
    <linearGradient
       inkscape:collect="always"
       xlink:href="#linearGradient5717"
       id="linearGradient5724"
       x1="99.25"
       y1="65.5"
       x2="44.883484"
       y2="51.784008"
       gradientUnits="userSpaceOnUse"
       gradientTransform="matrix(0.4487,0,0,0.446559,-2.72503,-5.393746)" />
    <linearGradient
       id="linearGradient5841"
       inkscape:collect="always">
      <stop
         id="stop5843"
         offset="0"
         style="stop-color:white;stop-opacity:1" />
      <stop
         id="stop5845"
         offset="1"
         style="stop-color:#ddd;stop-opacity:1" />
    </linearGradient>
    <linearGradient
       inkscape:collect="always"
       xlink:href="#linearGradient5841"
       id="linearGradient3981"
       gradientUnits="userSpaceOnUse"
       x1="-4.6596999"
       y1="5.7520499"
       x2="-4.6596999"
       y2="19.754282"
       gradientTransform="matrix(0.509226,0,0,0.483727,30.17584,5.399325)" />
  </defs>
  <sodipodi:namedview
     id="base"
     pagecolor="#ffffff"
     bordercolor="#666666"
     borderopacity="1.0"
     inkscape:pageopacity="0.0"
     inkscape:pageshadow="2"
     inkscape:zoom="1"
     inkscape:cx="31.208216"
     inkscape:cy="21.177201"
     inkscape:document-units="px"
     inkscape:current-layer="layer1"
     showguides="true"
     inkscape:guide-bbox="true"
     inkscape:window-width="823"
     inkscape:window-height="536"
     inkscape:window-x="16"
     inkscape:window-y="182"
     showborder="false"
     width="48px"
     height="48px"
     inkscape:showpageshadow="false"
     showgrid="false" />
  <metadata
     id="metadata7">
    <rdf:RDF>
      <cc:Work
         rdf:about="">
        <dc:format>image/svg+xml</dc:format>
        <dc:type
           rdf:resource="http://purl.org/dc/dcmitype/StillImage" />
      </cc:Work>
    </rdf:RDF>
  </metadata>
  <g
     inkscape:label="Layer 1"
     inkscape:groupmode="layer"
     id="layer1">
    <path
       sodipodi:nodetypes="csssccsssc"
       style="opacity:1;color:black;fill:url(#linearGradient8661);fill-opacity:1;fill-rule:evenodd;stroke:none;stroke-width:1.66170299;stroke-linecap:round;stroke-linejoin:round;marker:none;marker-start:none;marker-mid:none;marker-end:none;stroke-miterlimit:4;stroke-dasharray:none;stroke-dashoffset:0;stroke-opacity:1;visibility:visible;display:inline;overflow:visible"
       d="M 36.350491,32.005854 C 26.680472,31.849235 15.54161,34.854351 11.483891,38.71453 C 7.4261716,42.574709 11.976322,45.837546 21.646342,45.994152 C 31.31636,46.150771 42.458967,43.142099 46.516685,39.28192 C 50.574404,35.421742 46.020513,32.162472 36.350491,32.005854 z M 28.413123,38.073103 C 29.662614,38.093333 30.255276,38.511275 29.730966,39.010055 C 29.206657,39.508846 27.766149,39.897472 26.516658,39.877242 C 25.267164,39.857 24.678245,39.435502 25.202555,38.936722 C 25.726864,38.437931 27.163631,38.052862 28.413123,38.073103 z "
       id="path7925" />
    <path
       sodipodi:type="arc"
       style="opacity:1;color:black;fill:url(#radialGradient7923);fill-opacity:1;fill-rule:evenodd;stroke:none;stroke-width:3;stroke-linecap:round;stroke-linejoin:round;marker:none;marker-start:none;marker-mid:none;marker-end:none;stroke-miterlimit:4;stroke-dasharray:none;stroke-dashoffset:0;stroke-opacity:0.78400005;visibility:visible;display:inline;overflow:visible"
       id="path7189"
       sodipodi:cx="51.231888"
       sodipodi:cy="110.19082"
       sodipodi:rx="48.06039"
       sodipodi:ry="10.978262"
       d="M 99.292278 110.19082 A 48.06039 10.978262 0 1 1  3.1714973,110.19082 A 48.06039 10.978262 0 1 1  99.292278 110.19082 z"
       transform="matrix(0.416143,0,0,0.455446,-1.319796,-7.185913)" />
    <path
       style="opacity:1;color:black;fill:url(#linearGradient6461);fill-opacity:1;fill-rule:evenodd;stroke:url(#linearGradient5724);stroke-width:0.99999952;stroke-linecap:round;stroke-linejoin:round;marker:none;marker-start:none;marker-mid:none;marker-end:none;stroke-miterlimit:4;stroke-dasharray:none;stroke-dashoffset:0;stroke-opacity:1;visibility:visible;display:inline;overflow:visible"
       d="M 20.999989,1.4999996 C 9.682439,1.4999996 0.5,11.352451 0.5,23.493013 C 0.5,35.633571 9.68244,45.499982 20.999989,45.499982 C 32.317535,45.499982 41.499975,35.633582 41.499975,23.493013 C 41.499976,11.35245 32.317535,1.4999996 20.999989,1.4999996 z M 19.219209,15.817787 C 23.177046,15.817787 26.398412,19.279139 26.398412,23.548833 C 26.398413,27.818531 23.177046,31.279878 19.219209,31.279878 C 15.261373,31.279878 12.054029,27.818531 12.054029,23.548833 C 12.054028,19.27914 15.261374,15.817787 19.219209,15.817787 z "
       id="path1308" />
    <path
       style="fill:url(#linearGradient5697);fill-opacity:1;fill-rule:evenodd;stroke:none;stroke-width:0.25pt;stroke-linecap:butt;stroke-linejoin:miter;stroke-opacity:1"
       d="M 20.331174,3.0004399 C 19.511013,2.993733 18.661207,3.0637798 17.799631,3.2054489 C 18.045429,9.3424698 18.2922,15.478257 18.537998,21.615277 C 19.03184,21.626061 19.470567,21.83915 19.830139,22.161967 C 23.886295,17.373858 27.943846,12.585766 32,7.797656 C 30.65243,6.3619791 26.072296,3.0473853 20.331174,3.0004399 z M 16.903043,25.619791 C 13.370921,29.789304 9.8343331,33.955836 6.3022107,38.125348 C 10.487688,42.761235 14.671067,44.845401 19.474141,45 C 19.225603,38.79456 18.971127,32.590588 18.722589,26.38516 C 18.645085,26.394601 18.578176,26.439824 18.498443,26.439824 C 17.855971,26.439824 17.299083,26.119211 16.903043,25.619791 z "
       id="path4955" />
    <path
       style="fill:url(#linearGradient5723);fill-opacity:1;fill-rule:evenodd;stroke:none;stroke-width:0.25pt;stroke-linecap:butt;stroke-linejoin:miter;stroke-opacity:1"
       d="M 21.235288,4.0004189 C 20.408388,3.9940327 19.551599,4.0607423 18.682944,4.1956662 C 18.930762,10.040448 19.179561,15.884055 19.427378,21.728836 C 19.925278,21.739107 20.367611,21.942049 20.730138,22.249494 C 24.819623,17.689388 28.910517,13.129302 33,8.5691957 C 31.641358,7.2018855 27.023588,4.0451286 21.235288,4.0004189 z M 17.778988,25.542653 C 14.217842,29.513621 10.652194,33.481757 7.091046,37.452714 C 11.310916,41.867847 15.52867,43.852757 20.371213,44 C 20.120633,38.090065 19.864066,32.18152 19.613486,26.271585 C 19.535345,26.280578 19.467886,26.323645 19.387498,26.323645 C 18.739746,26.323645 18.178283,26.018302 17.778988,25.542653 z "
       id="path5701" />
    <path
       sodipodi:nodetypes="csssccsssc"
       style="opacity:1;color:black;fill:#f2f2f2;fill-opacity:0.41199999;fill-rule:evenodd;stroke:#e3e3e3;stroke-width:0.53548694;stroke-linecap:round;stroke-linejoin:round;marker:none;marker-start:none;marker-mid:none;marker-end:none;stroke-miterlimit:4;stroke-dasharray:none;stroke-dashoffset:0;stroke-opacity:0.64800002;visibility:visible;display:inline;overflow:visible"
       d="M 19.213352,16.123049 C 15.419454,16.123049 12.344059,19.423355 12.344059,23.494708 C 12.344059,27.566065 15.419454,30.877886 19.213352,30.877886 C 23.007249,30.877886 26.093376,27.566065 26.093378,23.494708 C 26.093378,19.423355 23.007249,16.123049 19.213352,16.123049 z M 19.213352,20.31568 C 20.848646,20.31568 22.175735,21.739822 22.175735,23.494708 C 22.175735,25.249596 20.848646,26.673742 19.213352,26.673742 C 17.578058,26.673742 16.250969,25.249596 16.250969,23.494708 C 16.250968,21.739823 17.578059,20.31568 19.213352,20.31568 z "
       id="path2055" />
    <path
       style="opacity:1;color:black;fill:none;fill-opacity:1;fill-rule:evenodd;stroke:url(#linearGradient4834);stroke-width:2;stroke-linecap:round;stroke-linejoin:round;marker:none;marker-start:none;marker-mid:none;marker-end:none;stroke-miterlimit:4;stroke-dasharray:none;stroke-dashoffset:0;stroke-opacity:1;visibility:visible;display:inline;overflow:visible"
       d="M 20.999996,3.0000007 C 10.510557,3.0000007 1.9999997,12.180699 1.9999997,23.493504 C 1.9999997,34.806304 10.510558,44.000011 20.999996,44.000011 C 31.489434,44.000011 39.999994,34.806304 39.999994,23.493504 C 39.999995,12.180699 31.489436,3.0000007 20.999996,3.0000007 z "
       id="path4818"
       sodipodi:nodetypes="csssc" />
    <path
       style="opacity:1;color:black;fill:none;fill-opacity:1;fill-rule:evenodd;stroke:url(#linearGradient4842);stroke-width:1.00000012;stroke-linecap:round;stroke-linejoin:round;marker:none;marker-start:none;marker-mid:none;marker-end:none;stroke-miterlimit:4;stroke-dasharray:none;stroke-dashoffset:0;stroke-opacity:1;visibility:visible;display:inline;overflow:visible"
       d="M 19.999996,3.5000003 C 9.7865948,3.5000003 1.4999999,12.680697 1.4999999,23.993499 C 1.4999999,35.306294 9.7865948,44.500002 19.999996,44.500002 C 30.213396,44.500002 38.499994,35.306294 38.499994,23.993499 C 38.499995,12.680697 30.213396,3.5000003 19.999996,3.5000003 z "
       id="path3330"
       sodipodi:nodetypes="csssc" />
    <g
       transform="matrix(0.918068,0,0,0.962673,11.43928,0.223964)"
       style="font-size:12px;fill:#7d7d7d;fill-opacity:1;stroke:none"
       id="g636">
      <path
         d="M 39.8,9.9 C 39.6,9.2 39.2,8.5 38.6,7.9 C 37.7,7 36.4,6.4 34.7,6.1 C 34.3,6.1 34,6 33.6,6 C 33.3,6 33,6 32.7,6 L 32.5,6 L 30.3,6 L 28.1,6 L 27.5,6 C 27,6 26.6,6 26.1,6 C 26.1,6 26,6 26,6 C 25.7,6 25.4,6 25,6.1 C 24.5,6.2 24.3,6.6 24.2,6.7 L 24.2,6.7 C 24.2,6.7 24,6.9 24,6.9 L 23.9,7 L 22.5,8.7 L 22.1,9.2 C 21.8,9.6 21.4,10 21.1,10.4 C 21.1,10.4 21,10.5 21,10.6 C 20.9,10.3 20.8,10 20.7,9.8 L 20.5,9 C 20.3,8.6 20.2,8.1 20.1,7.7 L 20,7.6 C 19.9,7.4 19.9,7.1 19.7,6.9 C 19.7,6.9 19.7,6.9 19.7,6.9 L 19.7,6.9 C 19.4,6.2 18.9,6 18.7,6 C 18.7,6 18.4,6 18.4,6 L 18.4,6 C 18.3,6 5,6 5,6 C 5,6 4.9,6 4.8,6 C 4.8,6 4.8,6 4.7,6 C 4.7,6 4.6,6 4.6,6 C 4.6,6 4.5,6 4.5,6 C 4.5,6 4.4,6 4.4,6.1 C 4.4,6.1 4.4,6.1 4.3,6.1 C 4.3,6.1 4.2,6.2 4.2,6.2 C 4.2,6.2 4.2,6.2 4.1,6.2 C 4.1,6.2 4,6.3 4,6.3 C 4,6.3 4,6.3 4,6.3 C 4,6.4 3.9,6.4 3.9,6.5 C 3.9,6.5 3.9,6.5 3.9,6.6 C 3.9,6.6 3.9,6.7 3.9,6.7 L 3.6,8.4 L 3.6,8.5 C 3.6,8.6 3.5,8.9 3.5,9.1 C 3.5,9.1 3.5,9.2 3.6,9.2 C 3.4,9.4 3.3,9.5 3.3,9.8 L 3.3,9.7 C 3.3,9.7 3.2,10.2 3.2,10.2 L 2.4,13.4 L 2.1,14.5 L 2,14.8 L 1.8,15.5 L 1.8,15.6 C 1.8,15.8 1.7,16 1.7,16.3 C 1.7,16.9 2.2,17.448693 2.8,17.448693 L 5.5,17.448693 L 7.3,17.448693 L 7.6,17.448693 C 8.4,17.448693 9.1,17.448693 9.8,17.248693 C 11.2,17.048693 12.6,16.5 13.7,15.8 C 14.8,15.1 15.6,14.4 16.2,13.6 C 16.2,13.7 17,16 17,16 L 17.2,16.6 C 17.4,17.1 17.5,17.6 17.7,18.1 L 17.7,18.1 L 17.8,18.5 L 17.8,18.6 C 17.9,19.2 18.4,19.5 18.9,19.5 C 19.3,19.5 19.7,19.1 19.9,18.8 L 19.8,19 L 19.9,18.9 C 20.2,18.5 20.5,18.2 20.8,17.8 L 21.2,17.3 L 22.7,15.6 L 23.5,14.7 L 24.4,13.7 C 24.4,13.7 24.7,13.4 24.8,13.3 C 24.7,13.6 24.6,14 24.6,14 C 24.6,14 24.3,15.1 24.3,15.1 C 24.3,15.1 24.2,15.4 24.2,15.4 C 24.1,15.7 24.1,16 24,16.3 C 24,16.3 24,16.4 24,16.4 C 24,16.7 24.1,16.831019 24.3,17.031019 C 24.5,17.231019 24.8,17.431019 25.1,17.431019 L 28.4,17.431019 L 29,17.431019 C 30.3,17.431019 31.5,17.5 32.9,17.2 C 33.6,17 34.3,16.8 35,16.5 C 35.7,16.2 36.4,15.8 36.9,15.4 C 38.1,14.6 39,13.5 39.3,12.2 C 39.5,11.5 39.5,10.7 39.3,10 L 39.8,9.9 z M 8.5,12.3 C 8.5,12.3 8.9,10.4 9,10.2 C 9.3,10.2 9.5,10.2 9.7,10.2 C 9.9,10.2 11.1,10.4 11.2,11 C 11.2,11 11.2,11.1 11.2,11.1 C 11.2,11.7 10.7,12.2 10.2,12.5 C 10,12.6 9.8,12.7 9.6,12.7 C 9.3,12.9 9,13 8.8,13 C 8.6,13 8.5,13 8.3,13.1 C 8.4,12.7 8.5,12.3 8.5,12.3 L 8.5,12.3 z M 31.5,13.1 C 31.4,13.1 31.2,13.1 31,13.1 C 31,13 31.1,12.9 31.1,12.7 L 31.2,12.2 L 31.3,11.8 L 31.5,11.1 L 31.6,10.9 C 31.7,10.7 31.7,10.4 31.8,10.2 C 32.3,10.2 32.7,10.3 33.2,10.4 C 33.6,10.5 33.8,10.6 33.9,10.8 C 34,10.9 34,11 34,11.2 C 34,11.2 34,11.2 34,11.2 C 34,11.7 33.6,12.2 33,12.6 C 32.8,12.7 32.6,12.8 32.3,12.9 C 32,13 31.7,13 31.5,13.1 z "
         id="path623"
         style="fill:#6e6e6e;fill-opacity:1"
         sodipodi:nodetypes="cscscccccccscccccccsccccccccccccccccccccccccccccccccccccscccccscccccccsccccccccccccccsccccsccccccsccscscccccccccccsscccsc" />
      <path
         d="M 19.2,19.4 C 19.2,19.4 19.2,19.4 19.2,19.4 C 19.2,19.4 19.2,19.4 19.2,19.4 z "
         id="path624"
         style="fill:#7d7d7d;fill-opacity:1" />
      <path
         d="M 19.2,19.4 C 19.2,19.4 19.2,19.4 19.2,19.4 C 19.2,19.4 19.2,19.4 19.2,19.4 C 19.2,19.4 19.2,19.4 19.2,19.4 z "
         id="path625"
         style="fill:#7d7d7d;fill-opacity:1" />
    </g>
    <path
       sodipodi:nodetypes="csscccccccsscsssccssssscsccsssscccccsccsscccccccsscsssscccccccccccccsccccccsssccccsccsscccscccssscccc"
       d="M 16.01807,7.0406092 C 18.678253,7.0406092 21.430163,7.0406092 24.090342,7.0406092 C 25.466296,7.0406092 26.750524,7.0406092 28.126475,7.0406092 C 28.218206,7.0406092 28.309939,7.0406092 28.309939,7.0406092 C 28.40167,7.0406092 28.40167,7.13198 28.493403,7.2233501 C 28.585129,7.4974618 28.676862,7.6802028 28.768593,7.954315 C 28.952052,8.5939081 29.227244,9.1421319 29.410703,9.6903549 C 29.594162,10.329949 29.777626,10.878171 29.961085,11.517767 C 30.052816,11.791877 30.144549,12.065989 30.144549,12.340101 C 30.144549,12.340101 30.144549,12.431471 30.236275,12.431471 C 30.236275,12.340101 30.236275,12.340101 30.328008,12.248731 C 30.419735,12.157359 30.419735,11.974619 30.511467,11.883248 C 30.694931,11.700506 30.87839,11.426396 30.970122,11.243655 C 31.153581,10.969542 31.337039,10.786801 31.520503,10.51269 C 31.887422,9.9644666 32.346077,9.5076138 32.804727,9.0507612 C 33.263383,8.5939081 33.6303,8.0456852 34.088955,7.5888326 C 34.180682,7.4974618 34.27241,7.4060912 34.364142,7.2233501 C 34.455873,7.13198 34.547606,7.0406092 34.639337,7.0406092 C 34.822796,6.9492385 35.097988,7.0406092 35.281446,7.0406092 C 35.923561,7.0406092 36.56567,7.0406092 37.116057,7.0406092 C 37.758165,7.0406092 38.492012,7.0406092 39.134121,7.0406092 C 39.776235,7.0406092 40.510076,7.0406092 41.152191,7.0406092 C 41.519113,7.0406092 41.794304,7.0406092 42.161223,7.0406092 C 42.436419,7.0406092 42.803337,7.13198 43.078527,7.13198 C 44.179291,7.3147209 45.280056,7.6802028 46.10563,8.5025378 C 46.472552,8.8680203 46.839475,9.3248729 46.931202,9.8730963 C 47.022934,10.329949 47.022934,10.878171 46.931202,11.335025 C 46.656011,12.340101 45.92217,13.162435 45.096597,13.710659 C 44.546214,14.076142 44.125793,14.446611 43.537178,14.624364 C 42.939921,14.804727 42.320521,14.904834 41.747429,14.938214 C 40.442769,15.014205 39.134121,15.011577 37.941629,15.011577 C 36.932593,15.011577 35.923561,15.011577 34.914529,15.011577 C 34.914529,14.737466 35.006255,14.371985 35.097988,14.097873 C 35.189714,13.732392 35.281446,13.80203 35.373178,13.436548 C 35.556637,12.796954 35.64837,12.157359 35.831829,11.517767 C 35.923561,11.152284 36.015288,10.786801 36.107019,10.421319 C 36.107019,10.238578 36.198752,10.055837 36.198752,9.8730963 C 36.198752,9.7817255 36.290483,9.5989846 36.290483,9.5989846 C 36.290483,9.5989846 36.382211,9.5989846 36.473937,9.5076138 C 36.56567,9.5076138 36.657401,9.5076138 36.749134,9.5076138 C 37.024325,9.5076138 37.207789,9.5076138 37.482975,9.5076138 C 38.125088,9.5076138 38.85893,9.5076138 39.501045,9.5076138 C 39.501045,9.7817255 39.409316,10.147207 39.317585,10.421319 C 39.225852,10.786801 39.134121,11.060913 39.042394,11.426396 C 38.85893,12.065989 38.675471,12.796954 38.583744,13.436548 C 39.225852,13.436548 39.776235,13.436548 40.418344,13.345176 C 40.69354,13.345176 41.060458,13.253807 41.33565,13.071065 C 41.61084,12.979695 41.886031,12.888324 42.161223,12.705583 C 42.895068,12.248731 43.537178,11.517767 43.537178,10.604061 C 43.537178,10.238578 43.445446,9.8730963 43.170259,9.5076138 C 42.895068,9.1421319 42.436419,8.9593905 41.977763,8.7766496 C 40.876999,8.5025378 39.684504,8.5939081 38.492012,8.5939081 C 38.125088,8.5939081 37.849898,8.5939081 37.482975,8.5939081 C 37.299516,8.5939081 37.207789,8.5939081 37.024325,8.5939081 C 36.840865,8.5939081 36.657401,8.5939081 36.473937,8.5939081 C 36.382211,8.5939081 36.198752,8.7766496 36.198752,8.8680203 C 36.107019,8.9593905 35.923561,9.1421319 35.831829,9.2335021 C 35.64837,9.5076138 35.373178,9.6903549 35.189714,9.9644666 C 34.27241,10.969542 33.446837,11.974619 32.529536,12.979695 C 31.795696,13.80203 31.153581,14.532994 30.419735,15.355327 C 29.961085,15.812181 29.502435,16.269035 29.135512,16.817256 C 29.135512,16.908628 29.04378,16.908628 29.04378,17 C 29.04378,17 29.04378,17 29.04378,17 C 29.04378,17 28.952052,17 28.952052,17 C 28.952052,16.908628 28.952052,16.817256 28.860321,16.817256 C 28.768593,16.634518 28.768593,16.543147 28.676862,16.360403 C 28.40167,15.72081 28.218206,15.081216 28.034748,14.532994 C 27.576097,13.253807 27.117447,11.974619 26.658793,10.695431 C 26.475334,10.329949 26.383601,9.8730963 26.200142,9.5076138 C 26.10841,9.3248729 26.10841,9.1421319 26.016678,8.9593905 C 26.016678,8.8680203 25.924946,8.5939081 25.741493,8.5939081 C 25.741493,8.7766496 25.833219,8.9593905 25.833219,9.1421319 C 25.924946,9.4162432 25.924946,9.5989846 25.924946,9.8730963 C 26.016678,10.421319 25.924946,11.060913 25.64976,11.609136 C 25.191106,12.614212 24.2738,13.436548 23.3565,13.984771 C 21.560769,15.280294 19.136903,15.011577 18.494788,15.011577 C 17.85268,15.011577 17.210564,15.011577 16.476724,15.011577 C 15.834605,15.011577 15.100764,15.011577 14.458654,15.011577 C 14.275195,15.011577 14.091731,15.011577 14,15.011577 C 14,14.828839 14.091731,14.737466 14.091731,14.554727 C 14.183464,14.280614 14.275195,14.258882 14.275195,13.984771 C 14.550382,12.705583 14.917305,11.335025 15.192496,10.055837 C 15.192496,9.8730963 15.284228,9.7817255 15.284228,9.5989846 C 15.284228,9.5076138 15.284228,9.5076138 15.375955,9.5076138 C 15.375955,9.5076138 15.467687,9.5076138 15.467687,9.5076138 C 15.559419,9.5076138 15.651151,9.5076138 15.742877,9.5076138 C 16.109801,9.5076138 16.384992,9.5076138 16.75191,9.5076138 C 17.394024,9.5076138 18.036138,9.5076138 18.678253,9.5076138 C 18.403061,10.878171 18.036138,12.157359 17.760947,13.527918 C 18.403061,13.527918 19.04517,13.527918 19.687284,13.436548 C 19.962476,13.345176 20.329398,13.253807 20.60459,13.162435 C 20.87978,13.071065 21.063239,12.979695 21.338431,12.888324 C 22.164003,12.431471 22.897845,11.517767 22.714386,10.51269 C 22.62266,9.4162432 21.430163,9.0507612 20.421126,8.8680203 C 19.870743,8.8680203 19.228634,8.8680203 18.678253,8.8680203 C 18.036138,8.8680203 17.302298,8.8680203 16.660183,8.8680203 C 16.384992,8.8680203 16.109801,8.8680203 15.926336,8.8680203 C 15.834605,8.8680203 15.834605,8.8680203 15.742877,8.8680203 C 15.742877,8.8680203 15.559419,8.8680203 15.559419,8.8680203 C 15.559419,8.7766496 15.651151,8.5939081 15.651151,8.5025378 C 15.742877,8.0456852 15.926336,7.4974618 16.01807,7.0406092"
       style="font-size:12px;fill:url(#linearGradient3981);fill-opacity:1;stroke:none"
       id="path626" />
  </g>
</svg>
