<?xml version="1.0" encoding="UTF-8" standalone="no"?>
<!-- Generator: Adobe Illustrator 15.1.0, SVG Export Plug-In . SVG Version: 6.00 Build 0)  -->

<svg
   xmlns:dc="http://purl.org/dc/elements/1.1/"
   xmlns:cc="http://creativecommons.org/ns#"
   xmlns:rdf="http://www.w3.org/1999/02/22-rdf-syntax-ns#"
   xmlns:svg="http://www.w3.org/2000/svg"
   xmlns="http://www.w3.org/2000/svg"
   xmlns:sodipodi="http://sodipodi.sourceforge.net/DTD/sodipodi-0.dtd"
   xmlns:inkscape="http://www.inkscape.org/namespaces/inkscape"
   version="1.1"
   id="Ebene_1"
   x="0px"
   y="0px"
   width="120.60941"
   height="75.055"
   viewBox="0 0 120.6094 75.055"
   enable-background="new 0 0 595.28 841.89"
   xml:space="preserve"
   inkscape:version="0.48.1 r9760"
   sodipodi:docname="openattic-dreieck-cut.svg"><metadata
   id="metadata13"><rdf:RDF><cc:Work
       rdf:about=""><dc:format>image/svg+xml</dc:format><dc:type
         rdf:resource="http://purl.org/dc/dcmitype/StillImage" /><dc:title></dc:title></cc:Work></rdf:RDF></metadata><defs
   id="defs11" /><sodipodi:namedview
   pagecolor="#ffffff"
   bordercolor="#666666"
   borderopacity="1"
   objecttolerance="10"
   gridtolerance="10"
   guidetolerance="10"
   inkscape:pageopacity="0"
   inkscape:pageshadow="2"
   inkscape:window-width="1037"
   inkscape:window-height="799"
   id="namedview9"
   showgrid="false"
   fit-margin-top="-15"
   fit-margin-left="0"
   fit-margin-right="0"
   fit-margin-bottom="-10"
   inkscape:zoom="3.883716"
   inkscape:cx="60.809199"
   inkscape:cy="53.816375"
   inkscape:window-x="833"
   inkscape:window-y="196"
   inkscape:window-maximized="0"
   inkscape:current-layer="Ebene_1" />
<g
   id="g3"
   transform="translate(-170.0046,-374.21413)"
   style="opacity:0.306">
	<path
   stroke-miterlimit="10"
   d="m 171.503,437.039 c 3.837,-4.189 7.674,-8.379 11.512,-12.568 8.332,-9.097 16.664,-18.193 24.996,-27.291 8.058,-8.797 16.116,-17.595 24.174,-26.393 3.077,-3.359 6.154,-6.719 9.231,-10.078 2.419,4.922 4.839,9.844 7.259,14.767 5.357,10.898 10.714,21.796 16.072,32.695 5.443,11.072 10.886,22.145 16.329,33.218 2.676,5.443 5.353,10.889 8.029,16.332 0.01,0.021 0.021,0.043 0.031,0.063 -4.989,-0.88 -9.978,-1.76 -14.966,-2.64 -11.478,-2.023 -22.956,-4.048 -34.433,-6.072 -12.733,-2.246 -25.467,-4.491 -38.201,-6.737 -8.756,-1.544 -17.513,-3.088 -26.27,-4.633 -1.255,-0.221 -2.509,-0.442 -3.763,-0.663 l 0,0 z"
   id="path5"
   inkscape:connector-curvature="0"
   style="fill:none;stroke:#db0b33;stroke-width:3;stroke-linejoin:round;stroke-miterlimit:10" />
	<path
   stroke-miterlimit="10"
   d="m 241.703,360.706 c -1.278,7.52 -2.556,15.04 -3.833,22.56 -2.067,12.16 -4.133,24.321 -6.2,36.481 -0.5,2.946 -1.001,5.892 -1.502,8.837 -0.076,0.446 -0.452,0.328 -0.882,0.381 -1.469,0.182 -2.938,0.363 -4.407,0.545 -11.935,1.477 -23.869,2.954 -35.804,4.431 -5.157,0.638 -10.315,1.276 -15.473,1.914 8.527,-1.066 17.054,-2.133 25.581,-3.199 10.042,-1.256 20.084,-2.512 30.126,-3.768 0.477,-0.06 0.588,-0.083 1.007,0.117 1.055,0.504 2.11,1.009 3.166,1.513 4.41,2.106 8.82,4.213 13.231,6.319 11.241,5.37 22.483,10.74 33.724,16.11 3.092,1.477 6.184,2.953 9.276,4.431"
   id="path7"
   inkscape:connector-curvature="0"
   style="fill:none;stroke:#db0b33;stroke-width:1.55999993999999997;stroke-linejoin:round;stroke-miterlimit:10" />
</g>
</svg>