<?xml version="1.0" encoding="UTF-8" standalone="no"?>
<!-- Created with Inkscape (http://www.inkscape.org/) -->
<svg
   xmlns:dc="http://purl.org/dc/elements/1.1/"
   xmlns:cc="http://web.resource.org/cc/"
   xmlns:rdf="http://www.w3.org/1999/02/22-rdf-syntax-ns#"
   xmlns:svg="http://www.w3.org/2000/svg"
   xmlns="http://www.w3.org/2000/svg"
   xmlns:xlink="http://www.w3.org/1999/xlink"
   xmlns:sodipodi="http://inkscape.sourceforge.net/DTD/sodipodi-0.dtd"
   xmlns:inkscape="http://www.inkscape.org/namespaces/inkscape"
   width="22"
   height="22"
   id="svg1332"
   sodipodi:version="0.32"
   inkscape:version="0.43+devel"
   version="1.0"
   sodipodi:docbase="/home/silvestre/Desktop/Neu/22x22/mimetypes"
   sodipodi:docname="application-certificate.svg"
   inkscape:export-filename="/home/silvestre/Desktop/Gion/PNGs/application-certificate.png"
   inkscape:export-xdpi="90"
   inkscape:export-ydpi="90">
  <defs
     id="defs1334">
    <linearGradient
       inkscape:collect="always"
       id="linearGradient7471">
      <stop
         style="stop-color:white;stop-opacity:1;"
         offset="0"
         id="stop7473" />
      <stop
         style="stop-color:white;stop-opacity:0;"
         offset="1"
         id="stop7475" />
    </linearGradient>
    <linearGradient
       inkscape:collect="always"
       id="linearGradient4839">
      <stop
         style="stop-color:white;stop-opacity:1;"
         offset="0"
         id="stop4841" />
      <stop
         style="stop-color:white;stop-opacity:0;"
         offset="1"
         id="stop4843" />
    </linearGradient>
    <linearGradient
       id="linearGradient2443">
      <stop
         style="stop-color:#000000;stop-opacity:0.32323232;"
         offset="0"
         id="stop2445" />
      <stop
         id="stop2459"
         offset="0.125"
         style="stop-color:#ffffff;stop-opacity:0.03921569;" />
      <stop
         id="stop2455"
         offset="0"
         style="stop-color:#ffffff;stop-opacity:0.08235294;" />
      <stop
         style="stop-color:#ffffff;stop-opacity:0.1254902;"
         offset="0"
         id="stop2457" />
      <stop
         id="stop2453"
         offset="0.25"
         style="stop-color:#ffffff;stop-opacity:0.17171717;" />
      <stop
         id="stop2451"
         offset="0.5"
         style="stop-color:#ffffff;stop-opacity:0.76767677;" />
      <stop
         style="stop-color:#ffffff;stop-opacity:0;"
         offset="1"
         id="stop2447" />
    </linearGradient>
    <linearGradient
       inkscape:collect="always"
       id="linearGradient2425">
      <stop
         style="stop-color:#ffffff;stop-opacity:1;"
         offset="0"
         id="stop2427" />
      <stop
         style="stop-color:#ffffff;stop-opacity:0;"
         offset="1"
         id="stop2429" />
    </linearGradient>
    <linearGradient
       inkscape:collect="always"
       id="linearGradient2266">
      <stop
         style="stop-color:#ffffff;stop-opacity:0.56652361"
         offset="0"
         id="stop2268" />
      <stop
         style="stop-color:#ffffff;stop-opacity:0;"
         offset="1"
         id="stop2270" />
    </linearGradient>
    <linearGradient
       id="linearGradient2254">
      <stop
         style="stop-color:#000000;stop-opacity:0"
         offset="0"
         id="stop2256" />
      <stop
         id="stop2262"
         offset="0.72727275"
         style="stop-color:#000000;stop-opacity:0;" />
      <stop
         style="stop-color:#000000;stop-opacity:0.42918456"
         offset="1"
         id="stop2258" />
    </linearGradient>
    <linearGradient
       inkscape:collect="always"
       id="linearGradient2244">
      <stop
         style="stop-color:#ffffff;stop-opacity:0.24034335"
         offset="0"
         id="stop2246" />
      <stop
         style="stop-color:#ffffff;stop-opacity:0;"
         offset="1"
         id="stop2248" />
    </linearGradient>
    <linearGradient
       inkscape:collect="always"
       id="linearGradient2228">
      <stop
         style="stop-color:#ffffff;stop-opacity:0.65665233"
         offset="0"
         id="stop2230" />
      <stop
         style="stop-color:#000000;stop-opacity:0.27896994"
         offset="1"
         id="stop2232" />
    </linearGradient>
    <linearGradient
       inkscape:collect="always"
       id="linearGradient2218">
      <stop
         style="stop-color:#ffffff;stop-opacity:0.70588237"
         offset="0"
         id="stop2220" />
      <stop
         style="stop-color:#ffffff;stop-opacity:0.26274511"
         offset="1"
         id="stop2222" />
    </linearGradient>
    <linearGradient
       inkscape:collect="always"
       xlink:href="#linearGradient2218"
       id="linearGradient2224"
       x1="16.5"
       y1="4.875"
       x2="22.466305"
       y2="26.692993"
       gradientUnits="userSpaceOnUse"
       gradientTransform="matrix(0.466676,0,0,0.467099,0.34257,0.323757)" />
    <linearGradient
       inkscape:collect="always"
       xlink:href="#linearGradient2228"
       id="linearGradient2234"
       x1="13.028255"
       y1="11.267202"
       x2="20.184097"
       y2="18.396837"
       gradientUnits="userSpaceOnUse" />
    <linearGradient
       inkscape:collect="always"
       xlink:href="#linearGradient2228"
       id="linearGradient2240"
       gradientUnits="userSpaceOnUse"
       x1="25.050171"
       y1="18.396837"
       x2="14.236766"
       y2="12.155531" />
    <radialGradient
       inkscape:collect="always"
       xlink:href="#linearGradient2244"
       id="radialGradient2250"
       cx="21.3125"
       cy="21.875"
       fx="21.3125"
       fy="21.875"
       r="15.5"
       gradientUnits="userSpaceOnUse"
       gradientTransform="matrix(0.474447,0,0,0.477697,-0.21167,-0.239252)" />
    <radialGradient
       inkscape:collect="always"
       xlink:href="#linearGradient2254"
       id="radialGradient2260"
       cx="18.786041"
       cy="18.949614"
       fx="18.786041"
       fy="18.949614"
       r="15.5"
       gradientUnits="userSpaceOnUse"
       gradientTransform="matrix(0.491822,1.109067e-16,-1.109068e-16,0.491822,0.71223,0.692258)" />
    <radialGradient
       inkscape:collect="always"
       xlink:href="#linearGradient2266"
       id="radialGradient2272"
       cx="16.195312"
       cy="16.023438"
       fx="16.195312"
       fy="16.023438"
       r="6.125"
       gradientUnits="userSpaceOnUse" />
    <linearGradient
       inkscape:collect="always"
       xlink:href="#linearGradient2443"
       id="linearGradient2467"
       gradientUnits="userSpaceOnUse"
       gradientTransform="matrix(0.476326,0,0,0.467807,0.16807,-5.13471e-2)"
       x1="31.625"
       y1="31.999504"
       x2="31.625"
       y2="39.875809" />
    <linearGradient
       inkscape:collect="always"
       xlink:href="#linearGradient2425"
       id="linearGradient2471"
       gradientUnits="userSpaceOnUse"
       gradientTransform="matrix(0.394261,0,0,0.3663,2.855607,3.664091)"
       x1="30.238298"
       y1="43.880363"
       x2="25.946463"
       y2="27.863014" />
    <linearGradient
       inkscape:collect="always"
       xlink:href="#linearGradient4839"
       id="linearGradient4845"
       x1="17.274366"
       y1="12.24566"
       x2="17.274366"
       y2="24.5"
       gradientUnits="userSpaceOnUse" />
    <linearGradient
       inkscape:collect="always"
       xlink:href="#linearGradient7471"
       id="linearGradient7477"
       x1="19.852356"
       y1="-1.6420798"
       x2="19.852356"
       y2="17.844408"
       gradientUnits="userSpaceOnUse"
       gradientTransform="matrix(0.471021,0,0,0.441673,-1.42962,0.118888)" />
  </defs>
  <sodipodi:namedview
     id="base"
     pagecolor="#ffffff"
     bordercolor="#666666"
     borderopacity="1.0"
     inkscape:pageopacity="0.0"
     inkscape:pageshadow="2"
     inkscape:zoom="1"
     inkscape:cx="11.913393"
     inkscape:cy="5.8227466"
     inkscape:document-units="px"
     inkscape:current-layer="layer3"
     showgrid="false"
     inkscape:grid-bbox="true"
     inkscape:window-width="843"
     inkscape:window-height="556"
     inkscape:window-x="125"
     inkscape:window-y="158"
     inkscape:showpageshadow="false"
     showborder="false"
     width="22px"
     height="22px" />
  <metadata
     id="metadata1337">
    <rdf:RDF>
      <cc:Work
         rdf:about="">
        <dc:format>image/svg+xml</dc:format>
        <dc:type
           rdf:resource="http://purl.org/dc/dcmitype/StillImage" />
        <dc:title>Certificate</dc:title>
        <dc:creator>
          <cc:Agent>
            <dc:title>Silvestre Herrera</dc:title>
          </cc:Agent>
        </dc:creator>
        <cc:license
           rdf:resource="http://creativecommons.org/licenses/GPL/2.0/" />
      </cc:Work>
      <cc:License
         rdf:about="http://creativecommons.org/licenses/GPL/2.0/">
        <cc:permits
           rdf:resource="http://web.resource.org/cc/Reproduction" />
        <cc:permits
           rdf:resource="http://web.resource.org/cc/Distribution" />
        <cc:requires
           rdf:resource="http://web.resource.org/cc/Notice" />
        <cc:permits
           rdf:resource="http://web.resource.org/cc/DerivativeWorks" />
        <cc:requires
           rdf:resource="http://web.resource.org/cc/ShareAlike" />
        <cc:requires
           rdf:resource="http://web.resource.org/cc/SourceCode" />
      </cc:License>
    </rdf:RDF>
  </metadata>
  <g
     inkscape:label="Capa 1"
     inkscape:groupmode="layer"
     id="layer1">
    <path
       id="path5112"
       d="M 10.56197,8.5000029 C 10.56197,8.5000029 7.5000057,12.367773 7.5000057,14.140501 C 7.5000057,15.913229 11.033043,14.946286 12.446256,16.235543 C 13.859471,17.524799 9.1487555,20.855379 9.1487555,20.855379 L 13.859471,19.673561 L 15.743758,21.500007 C 15.743758,19.297527 18.511301,17.524799 17.098088,16.181824 C 15.625989,14.838848 11.44523,15.000005 11.209692,13.227277 C 10.974157,11.454549 10.620854,8.5537218 10.620854,8.5537218 L 10.56197,8.5000029 z "
       style="fill:#2479b8;fill-opacity:1;fill-rule:nonzero;stroke:#14618b;stroke-width:1.0000006;stroke-miterlimit:6.5999999;stroke-opacity:1" />
  </g>
  <g
     inkscape:groupmode="layer"
     id="layer3"
     inkscape:label="light2">
    <path
       sodipodi:nodetypes="cscccsss"
       style="fill:none;fill-opacity:1;fill-rule:nonzero;stroke:url(#linearGradient2471);stroke-width:0.7211256;stroke-miterlimit:6.5999999;stroke-opacity:1"
       d="M 10.577875,15.222505 C 12.372547,15.386748 13.506838,15.675077 13.655715,16.683716 C 13.785865,17.565488 11.98715,19.15 11.98715,19.15 L 14.291161,18.554855 L 15.4114,19.639452 C 15.67276,18.280133 17.13227,17.36033 16.467585,16.524213 C 15.633849,15.475442 12.932631,15.70243 12.803491,14.712583 C 12.674352,13.722736 9.5177029,15.12453 10.577875,15.222505 z "
       id="path6680" />
    <path
       id="path2433"
       d="M 11.221375,8.837 C 11.221375,8.837 8,12.455744 8,14.114335 C 8,15.363594 11.602827,14.86824 12.747184,16.074488 C 13.891539,17.280736 10.077018,20.396876 10.077018,20.396876 L 13.891539,19.291149 L 15.417348,21 C 15.417348,18.939327 17.837001,17.426926 16.692647,16.170417 C 15.500608,14.913909 11.936597,14.9185 11.745871,13.259909 C 11.555145,11.601319 11.269056,8.8872605 11.269056,8.8872605 L 11.221375,8.837 z "
       style="fill:url(#linearGradient2467);fill-opacity:1;fill-rule:nonzero;stroke:none;stroke-width:1;stroke-miterlimit:6.5999999;stroke-opacity:1"
       sodipodi:nodetypes="cssccccscc" />
  </g>
  <g
     inkscape:groupmode="layer"
     id="layer4"
     inkscape:label="lacre">
    <path
       style="opacity:1;fill:#c62828;fill-opacity:1;stroke:#962d2d;stroke-width:0.99999994;stroke-linecap:round;stroke-linejoin:round;stroke-miterlimit:4;stroke-dashoffset:0;stroke-opacity:1"
       d="M 14.344471,13.834086 C 13.182701,15.050425 12.001791,14.148916 10.331302,14.496917 C 8.6608138,14.844916 7.8809511,16.841626 6.2526851,16.449138 C 4.6244197,16.05665 5.4722533,13.639343 4.3591818,12.35809 C 3.2461092,11.076836 0.86792759,11.746082 0.53600242,10.069402 C 0.20407767,8.3927199 2.2642036,8.2613326 2.7388793,6.6103085 C 3.2135544,4.9592844 2.1185955,4.2155935 3.298873,2.9489235 C 4.4791501,1.6822523 5.389598,2.6703976 7.0324723,2.2728641 C 8.6753476,1.8753307 9.0085774,0.063273811 10.625734,0.56184996 C 12.242892,1.0604261 11.677176,3.2583724 12.797966,4.5076038 C 13.918756,5.7568341 15.830978,4.6435355 16.316601,6.3058147 C 16.802225,7.968093 14.874648,8.6514353 14.476505,10.268696 C 14.078362,11.885957 15.50624,12.617747 14.344471,13.834086 z "
       id="path1340" />
  </g>
  <g
     inkscape:groupmode="layer"
     id="layer2"
     inkscape:label="light">
    <path
       sodipodi:type="arc"
       style="opacity:0.49783547;fill:none;fill-opacity:1;stroke:url(#linearGradient2234);stroke-width:2.03124928;stroke-linecap:round;stroke-linejoin:round;stroke-miterlimit:4;stroke-dasharray:none;stroke-dashoffset:0;stroke-opacity:1"
       id="path2226"
       sodipodi:cx="18.75"
       sodipodi:cy="17"
       sodipodi:rx="8.125"
       sodipodi:ry="8.125"
       d="M 26.875 17 A 8.125 8.125 0 1 1  10.625,17 A 8.125 8.125 0 1 1  26.875 17 z"
       transform="matrix(0.492308,0,0,0.492308,-0.730771,0.130773)" />
    <path
       sodipodi:type="arc"
       style="opacity:0.49783547;fill:none;fill-opacity:1;stroke:url(#linearGradient2240);stroke-width:2.70832753;stroke-linecap:round;stroke-linejoin:round;stroke-miterlimit:4;stroke-dasharray:none;stroke-dashoffset:0;stroke-opacity:1"
       id="path2236"
       sodipodi:cx="18.75"
       sodipodi:cy="17"
       sodipodi:rx="8.125"
       sodipodi:ry="8.125"
       d="M 26.875 17 A 8.125 8.125 0 1 1  10.625,17 A 8.125 8.125 0 1 1  26.875 17 z"
       transform="matrix(0.369231,0,0,0.369231,1.576914,2.223077)" />
    <path
       style="opacity:1;fill:url(#radialGradient2250);fill-opacity:1;stroke:none;stroke-width:0.99999988;stroke-linecap:round;stroke-linejoin:round;stroke-miterlimit:4;stroke-dashoffset:0;stroke-opacity:1"
       d="M 13.548087,13.061089 C 12.473053,14.185153 11.380307,13.352034 9.834536,13.673635 C 8.288763,13.995235 7.567124,15.840469 6.060422,15.477756 C 4.553719,15.115043 5.338256,12.88112 4.308283,11.697066 C 3.278311,10.513011 1.077681,11.131487 0.770537,9.582002 C 0.463393,8.032519 2.369713,7.911098 2.80895,6.385325 C 3.248187,4.859552 2.234976,4.17228 3.327136,3.001702 C 4.419295,1.831124 5.261771,2.744306 6.781992,2.376931 C 8.302212,2.009555 8.610563,0.33496603 10.106985,0.79571803 C 11.603408,1.256471 11.079928,3.287676 12.117043,4.442137 C 13.154157,5.596598 14.923615,4.567757 15.372982,6.103931 C 15.82235,7.640105 14.038684,8.271608 13.670265,9.766179 C 13.301847,11.26075 14.623121,11.937024 13.548087,13.061089 z "
       id="path2242" />
    <path
       style="opacity:0.53246753;fill:url(#radialGradient2260);fill-opacity:1;stroke:none;stroke-width:0.99999988;stroke-linecap:round;stroke-linejoin:round;stroke-miterlimit:4;stroke-dashoffset:0;stroke-opacity:1"
       d="M 14.065335,13.504486 C 12.968946,14.643077 11.854494,13.799191 10.278018,14.124948 C 8.701541,14.450705 7.965567,16.319785 6.428937,15.952385 C 4.892306,15.584985 5.692426,13.322191 4.641995,12.122835 C 3.591564,10.923478 1.347221,11.549947 1.033976,9.9804369 C 0.720732,8.4109291 2.664918,8.287939 3.11288,6.7424476 C 3.560842,5.1969561 2.527504,4.5008022 3.641358,3.3150962 C 4.755212,2.1293902 5.614422,3.0543737 7.16484,2.682251 C 8.715257,2.3101272 9.029733,0.6138966 10.55588,1.0806031 C 12.082027,1.5473106 11.548149,3.604766 12.605864,4.7741467 C 13.66358,5.9435274 15.468185,4.9013902 15.926478,6.457417 C 16.384772,8.0134437 14.565676,8.653108 14.189939,10.166994 C 13.814203,11.68088 15.161722,12.365894 14.065335,13.504486 z "
       id="path2252" />
    <path
       style="opacity:1;fill:none;fill-opacity:1;stroke:url(#linearGradient2224);stroke-width:1.00000048;stroke-linecap:round;stroke-linejoin:round;stroke-miterlimit:4;stroke-dashoffset:0;stroke-opacity:1"
       d="M 13.715233,13.176946 C 12.801839,14.091168 11.619392,13.350513 10.145714,13.655311 C 8.672038,13.960108 7.679611,15.763118 6.576793,15.467351 C 5.533046,15.187426 5.97581,12.875008 4.993877,11.752816 C 4.011943,10.630623 1.856722,11.086519 1.53363,9.8796283 C 1.222627,8.717898 3.160306,8.296024 3.579057,6.8499667 C 3.997807,5.4039096 3.099704,4.6027814 4.043906,3.657722 C 4.929148,2.7716765 5.801933,3.4103999 7.26471,3.1239801 C 8.767879,2.8296511 9.394272,1.5378379 10.434626,1.552396 C 11.554161,1.5680622 11.303856,4.04553 12.292599,5.1396738 C 13.281341,6.2338186 15.167825,5.5104962 15.455015,6.5832737 C 15.797749,7.8635376 14.080864,8.6231009 13.729627,10.039586 C 13.378392,11.456071 14.526545,12.364899 13.715233,13.176946 z "
       id="path2216"
       sodipodi:nodetypes="csssssssssssc" />
    <path
       sodipodi:type="arc"
       style="opacity:0.53246753;fill:url(#radialGradient2272);fill-opacity:1;stroke:none;stroke-width:1;stroke-linecap:round;stroke-linejoin:round;stroke-miterlimit:4;stroke-dasharray:none;stroke-dashoffset:0;stroke-opacity:0.27896992"
       id="path2264"
       sodipodi:cx="18"
       sodipodi:cy="18.375"
       sodipodi:rx="6.125"
       sodipodi:ry="6.125"
       d="M 24.125 18.375 A 6.125 6.125 0 1 1  11.875,18.375 A 6.125 6.125 0 1 1  24.125 18.375 z"
       transform="matrix(0.542225,0,0,0.54594,-1.431665,-1.672342)" />
    <path
       sodipodi:type="arc"
       style="opacity:0.68200839;fill:url(#linearGradient4845);fill-opacity:1;stroke:none;stroke-width:1;stroke-linecap:round;stroke-linejoin:round;stroke-miterlimit:4;stroke-dasharray:none;stroke-dashoffset:0;stroke-opacity:0.27896992"
       id="path3964"
       sodipodi:cx="18"
       sodipodi:cy="18.375"
       sodipodi:rx="6.125"
       sodipodi:ry="6.125"
       d="M 24.125 18.375 A 6.125 6.125 0 1 1  11.875,18.375 A 6.125 6.125 0 1 1  24.125 18.375 z"
       transform="matrix(0.408163,0,0,0.326531,1.153061,1.99999)" />
    <path
       style="opacity:0.80334728;fill:url(#linearGradient7477);fill-opacity:1;stroke:none;stroke-width:1.00000036;stroke-linecap:round;stroke-linejoin:round;stroke-miterlimit:4;stroke-dashoffset:0;stroke-opacity:1"
       d="M 10.344862,0.94387946 C 9.314478,1.0100033 8.724675,2.2915457 7.402024,2.5894999 C 5.890421,2.9300184 4.969284,2.2474429 4.045998,3.1139865 C 3.061218,4.0382468 3.997004,4.8190746 3.560258,6.2333057 C 3.310511,7.0420099 2.55103,7.5237657 2,8 C 3.695688,7.1743204 5.795918,6.59245 8.108555,6.4127359 C 10.896182,6.1961113 13.482857,6.8372322 15.482981,7.6537252 C 15.848316,7.2055319 16.11001,6.7509302 15.954003,6.2044846 C 15.65447,5.1553162 13.688089,5.8667139 12.656854,4.7966499 C 11.62562,3.7265858 12.031061,1.3886888 10.713892,1.0574448 C 10.539856,1.0136776 10.492059,0.93443387 10.344862,0.94387946 z "
       id="path5720"
       sodipodi:nodetypes="cssscscsssc" />
  </g>
</svg>
