<?xml version="1.0" encoding="UTF-8" standalone="no"?>
<!-- Created with Inkscape (http://www.inkscape.org/) -->
<svg
   xmlns:dc="http://purl.org/dc/elements/1.1/"
   xmlns:cc="http://web.resource.org/cc/"
   xmlns:rdf="http://www.w3.org/1999/02/22-rdf-syntax-ns#"
   xmlns:svg="http://www.w3.org/2000/svg"
   xmlns="http://www.w3.org/2000/svg"
   xmlns:xlink="http://www.w3.org/1999/xlink"
   xmlns:sodipodi="http://inkscape.sourceforge.net/DTD/sodipodi-0.dtd"
   xmlns:inkscape="http://www.inkscape.org/namespaces/inkscape"
   width="22"
   height="22"
   id="svg2"
   sodipodi:version="0.32"
   inkscape:version="0.43+devel"
   sodipodi:docbase="/home/silvestre/Desktop/Neu/22x22/mimetypes"
   sodipodi:docname="font-x-generic.svg"
   version="1.0">
  <defs
     id="defs4">
    <linearGradient
       inkscape:collect="always"
       id="linearGradient4820">
      <stop
         style="stop-color:white;stop-opacity:1;"
         offset="0"
         id="stop4822" />
      <stop
         style="stop-color:white;stop-opacity:0.57939917"
         offset="1"
         id="stop4824" />
    </linearGradient>
    <linearGradient
       id="linearGradient4957">
      <stop
         id="stop4959"
         offset="0"
         style="stop-color:#ffffff;stop-opacity:1;" />
      <stop
         id="stop4961"
         offset="1.0000000"
         style="stop-color:#d0d0d0;stop-opacity:1" />
    </linearGradient>
    <linearGradient
       inkscape:collect="always"
       id="linearGradient5912">
      <stop
         style="stop-color:#000000;stop-opacity:1;"
         offset="0"
         id="stop5914" />
      <stop
         style="stop-color:#000000;stop-opacity:0;"
         offset="1"
         id="stop5916" />
    </linearGradient>
    <linearGradient
       id="linearGradient5904">
      <stop
         id="stop5906"
         offset="0.0000000"
         style="stop-color:#000000;stop-opacity:0.19791669;" />
      <stop
         id="stop5908"
         offset="1"
         style="stop-color:#000000;stop-opacity:0;" />
    </linearGradient>
    <linearGradient
       id="linearGradient2057">
      <stop
         style="stop-color:#f0f0f0;stop-opacity:1;"
         offset="0"
         id="stop2059" />
      <stop
         style="stop-color:#dddddd;stop-opacity:1.0000000;"
         offset="1.0000000"
         id="stop2061" />
    </linearGradient>
    <linearGradient
       inkscape:collect="always"
       id="linearGradient2049">
      <stop
         style="stop-color:#0a0a0a;stop-opacity:1;"
         offset="0"
         id="stop2051" />
      <stop
         style="stop-color:#0a0a0a;stop-opacity:0;"
         offset="1"
         id="stop2053" />
    </linearGradient>
    <radialGradient
       inkscape:collect="always"
       xlink:href="#linearGradient5904"
       id="radialGradient5902"
       cx="60.502419"
       cy="115.07005"
       fx="60.502419"
       fy="115.07005"
       r="56.111115"
       gradientTransform="matrix(1,0,0,0.213043,-3.616898e-16,90.55513)"
       gradientUnits="userSpaceOnUse" />
    <linearGradient
       inkscape:collect="always"
       xlink:href="#linearGradient5912"
       id="linearGradient5918"
       x1="71.236717"
       y1="152.15218"
       x2="88.314011"
       y2="99.212555"
       gradientUnits="userSpaceOnUse"
       gradientTransform="matrix(0.184455,0,0,0.18632,-1.49,-0.757886)" />
    <linearGradient
       inkscape:collect="always"
       xlink:href="#linearGradient4957"
       id="linearGradient4940"
       gradientUnits="userSpaceOnUse"
       x1="81.89402"
       y1="22.461552"
       x2="84.654594"
       y2="10.41062"
       gradientTransform="matrix(0.164579,0,0,0.181702,-0.542173,-0.342187)" />
    <linearGradient
       inkscape:collect="always"
       xlink:href="#linearGradient2049"
       id="linearGradient4943"
       gradientUnits="userSpaceOnUse"
       gradientTransform="matrix(0.178363,0,0,0.183242,-1.738234,-0.173499)"
       x1="69.606209"
       y1="-2.7867124"
       x2="82.63073"
       y2="34.12973" />
    <linearGradient
       inkscape:collect="always"
       xlink:href="#linearGradient2057"
       id="linearGradient4946"
       gradientUnits="userSpaceOnUse"
       x1="57.903072"
       y1="65.225105"
       x2="85.99958"
       y2="114.99323"
       gradientTransform="matrix(0.175902,0,0,0.176487,-1.908047,-0.511348)" />
    <linearGradient
       inkscape:collect="always"
       xlink:href="#linearGradient4820"
       id="linearGradient4826"
       x1="7.9148936"
       y1="3.8297873"
       x2="7.9148936"
       y2="41.371349"
       gradientUnits="userSpaceOnUse"
       gradientTransform="matrix(0.438081,0,0,0.44229,-0.480668,0.385043)" />
  </defs>
  <sodipodi:namedview
     id="base"
     pagecolor="#ffffff"
     bordercolor="#666666"
     borderopacity="1.0"
     inkscape:pageopacity="0.0"
     inkscape:pageshadow="2"
     inkscape:zoom="1"
     inkscape:cx="11"
     inkscape:cy="11"
     inkscape:document-units="px"
     inkscape:current-layer="layer1"
     inkscape:window-width="843"
     inkscape:window-height="556"
     inkscape:window-x="105"
     inkscape:window-y="129"
     showguides="true"
     inkscape:guide-bbox="true"
     width="22px"
     height="22px"
     showgrid="false"
     showborder="false"
     inkscape:showpageshadow="false" />
  <metadata
     id="metadata7">
    <rdf:RDF>
      <cc:Work
         rdf:about="">
        <dc:format>image/svg+xml</dc:format>
        <dc:type
           rdf:resource="http://purl.org/dc/dcmitype/StillImage" />
      </cc:Work>
    </rdf:RDF>
  </metadata>
  <g
     inkscape:label="Layer 1"
     inkscape:groupmode="layer"
     id="layer1">
    <path
       style="fill:url(#linearGradient5918);fill-opacity:1;fill-rule:evenodd;stroke:none;stroke-width:0.25pt;stroke-linecap:butt;stroke-linejoin:miter;stroke-opacity:1"
       d="M 16.24,22 L 22,18.727271 L 13,17 L 16.24,22 z "
       id="path5910" />
    <path
       sodipodi:type="arc"
       style="opacity:1;color:black;fill:url(#radialGradient5902);fill-opacity:1;fill-rule:evenodd;stroke:none;stroke-width:2;stroke-linecap:round;stroke-linejoin:round;marker:none;marker-start:none;marker-mid:none;marker-end:none;stroke-miterlimit:4;stroke-dasharray:none;stroke-dashoffset:0;stroke-opacity:1;visibility:visible;display:inline;overflow:visible"
       id="path5894"
       sodipodi:cx="60.502419"
       sodipodi:cy="115.07005"
       sodipodi:rx="56.111115"
       sodipodi:ry="11.954107"
       d="M 116.61353 115.07005 A 56.111115 11.954107 0 1 1  4.391304,115.07005 A 56.111115 11.954107 0 1 1  116.61353 115.07005 z"
       transform="matrix(0.167254,0,0,0.167708,-0.734463,0.697032)" />
    <path
       style="fill:url(#linearGradient4946);fill-opacity:1;fill-rule:evenodd;stroke:#a0a0a0;stroke-width:1.01816618;stroke-linecap:round;stroke-linejoin:round;stroke-miterlimit:4;stroke-dasharray:none;stroke-opacity:1"
       d="M 0.56977164,19.481532 C 0.91367327,14.20438 1.257575,7.7094235 0.50908303,1.4580282 L 9.7337433,0.51422933 C 11.352103,0.40259804 16.045353,2.1278212 16.045353,3.6500763 C 16.733154,10.084143 16.571319,16.031088 15.923974,21.490909 L 0.56977164,19.481532 z "
       id="path1306"
       sodipodi:nodetypes="cccccc" />
    <path
       style="font-size:32.30165482px;font-style:italic;font-variant:normal;font-weight:bold;font-stretch:normal;text-align:start;line-height:125%;writing-mode:lr-tb;text-anchor:start;fill:#4b4b4b;fill-opacity:1;stroke:none;stroke-width:1px;stroke-linecap:butt;stroke-linejoin:miter;stroke-opacity:1;font-family:Georgia"
       d="M 9.3604906,11.377605 L 8.2293233,6.9426349 L 6.6690992,11.201021 L 9.3604906,11.377605 M 8.9977216,16.6739 L 9.0297669,16.060267 C 9.473626,16.044404 9.8138233,15.996437 10.050359,15.916361 C 10.290527,15.830903 10.403012,15.728631 10.387814,15.609546 C 10.374777,15.507477 10.359188,15.419295 10.341051,15.345003 C 10.322902,15.270711 10.301129,15.184936 10.27573,15.087675 L 9.5804446,12.184901 L 6.3782793,11.974805 C 6.3002902,12.177749 6.202615,12.446874 6.0852531,12.782182 C 5.9715304,13.112113 5.8756649,13.395415 5.7976581,13.632091 C 5.6809955,14.006813 5.6164354,14.264051 5.6039779,14.403813 C 5.5958824,14.543861 5.5943696,14.633733 5.5994386,14.673425 C 5.6211574,14.843547 5.741848,14.992043 5.9615131,15.118918 C 6.1804496,15.240123 6.5049079,15.340135 6.9348898,15.418954 L 6.9028444,16.032587 L 3,15.776518 L 3.0320456,15.162886 C 3.157201,15.159852 3.3129252,15.141953 3.4992187,15.10919 C 3.6855134,15.076428 3.8383524,15.018978 3.957736,14.93684 C 4.1251638,14.824117 4.2769708,14.673819 4.4131585,14.485941 C 4.5493447,14.298067 4.6691883,14.066948 4.7726882,13.792578 C 5.4330181,12.081486 6.0386897,10.501756 6.5897108,9.0533917 C 7.1400001,7.5993703 7.777756,5.9149079 8.5029803,4 L 9.7995637,4.0850704 C 10.460057,6.647587 11.005511,8.7667509 11.435928,10.442567 C 11.870696,12.118679 12.307217,14.028856 12.615743,15.156857 C 12.659283,15.32841 12.720666,15.487073 12.799894,15.63285 C 12.882744,15.773242 13.001986,15.910399 13.157623,16.044318 C 13.273972,16.141922 13.409262,16.218276 13.563495,16.273381 C 13.722073,16.328771 13.867575,16.366433 14,16.386368 L 13.967954,17 L 8.9977216,16.6739"
       id="text3944"
       sodipodi:nodetypes="ccccccssscccsssssccccsssccccccsssccc" />
    <path
       style="fill:url(#linearGradient4943);fill-opacity:1;fill-rule:evenodd;stroke:none;stroke-width:0.25pt;stroke-linecap:butt;stroke-linejoin:miter;stroke-opacity:1"
       d="M 10.646237,2.0371313 C 9.5898427,3.6703476 9.9180429,6.1254396 10.984693,7 C 12.76928,5.0822888 13.969262,4.0812854 16,4.4395397 C 14.917965,2.922229 12.551335,1.7763429 10.646237,2.0371313 z "
       id="path2039"
       sodipodi:nodetypes="cccc" />
    <path
       style="fill:none;fill-opacity:1;fill-rule:evenodd;stroke:url(#linearGradient4826);stroke-width:0.96689123;stroke-linecap:round;stroke-linejoin:round;stroke-miterlimit:4;stroke-dasharray:none;stroke-opacity:1"
       d="M 1.5367344,18.693791 C 1.8387027,13.906765 2.1406711,8.0150408 1.4834459,2.3442561 L 9.5833045,1.4881146 C 11.228349,1.3868505 15.297551,2.9518399 15.125313,4.3327127 C 15.72925,10.169203 15.587146,15.563814 15.018737,20.516544 L 1.5367344,18.693791 z "
       id="path3945"
       sodipodi:nodetypes="cccccc" />
    <path
       style="fill:url(#linearGradient4940);fill-opacity:1;fill-rule:evenodd;stroke:none;stroke-width:1;stroke-linecap:butt;stroke-linejoin:miter;stroke-miterlimit:4;stroke-dasharray:none;stroke-opacity:1"
       d="M 9.9811218,1.027151 C 9.0063666,2.6466368 9.3092031,5.0810911 10.293423,5.9483001 C 11.940096,4.0467093 14.126198,3.4929496 16,3.8481912 C 15.569404,2.4063263 11.738994,0.76855505 9.9811218,1.027151 z "
       id="path2037"
       sodipodi:nodetypes="cccc" />
  </g>
</svg>
