<?xml version="1.0" encoding="UTF-8" standalone="no"?>
<!-- Created with Inkscape (http://www.inkscape.org/) -->
<svg
   xmlns:dc="http://purl.org/dc/elements/1.1/"
   xmlns:cc="http://web.resource.org/cc/"
   xmlns:rdf="http://www.w3.org/1999/02/22-rdf-syntax-ns#"
   xmlns:svg="http://www.w3.org/2000/svg"
   xmlns="http://www.w3.org/2000/svg"
   xmlns:xlink="http://www.w3.org/1999/xlink"
   xmlns:sodipodi="http://inkscape.sourceforge.net/DTD/sodipodi-0.dtd"
   xmlns:inkscape="http://www.inkscape.org/namespaces/inkscape"
   width="22"
   height="22"
   id="svg2"
   sodipodi:version="0.32"
   inkscape:version="0.43+devel"
   sodipodi:docbase="/home/silvestre/Desktop/Neu/22x22/mimetypes"
   sodipodi:docname="misc-cd-image.svg"
   version="1.0">
  <defs
     id="defs4">
    <linearGradient
       id="linearGradient5974"
       inkscape:collect="always">
      <stop
         id="stop5976"
         offset="0"
         style="stop-color:#7f7f7f;stop-opacity:0.627451" />
      <stop
         id="stop5978"
         offset="1"
         style="stop-color:#7f7f7f;stop-opacity:0" />
    </linearGradient>
    <linearGradient
       id="linearGradient5968"
       inkscape:collect="always">
      <stop
         id="stop5970"
         offset="0"
         style="stop-color:#8e8e8e;stop-opacity:1" />
      <stop
         id="stop5972"
         offset="1"
         style="stop-color:#a0a0a0;stop-opacity:1" />
    </linearGradient>
    <linearGradient
       inkscape:collect="always"
       id="linearGradient4836">
      <stop
         style="stop-color:white;stop-opacity:1;"
         offset="0"
         id="stop4838" />
      <stop
         style="stop-color:white;stop-opacity:0.58823532"
         offset="1"
         id="stop4840" />
    </linearGradient>
    <linearGradient
       id="linearGradient8655">
      <stop
         style="stop-color:#000000;stop-opacity:0.30208334;"
         offset="0.0000000"
         id="stop8657" />
      <stop
         style="stop-color:#000000;stop-opacity:0;"
         offset="1"
         id="stop8659" />
    </linearGradient>
    <linearGradient
       id="linearGradient7917">
      <stop
         style="stop-color:#000000;stop-opacity:0.16666669;"
         offset="0.0000000"
         id="stop7919" />
      <stop
         style="stop-color:#000000;stop-opacity:0;"
         offset="1"
         id="stop7921" />
    </linearGradient>
    <linearGradient
       id="linearGradient6455">
      <stop
         style="stop-color:#f1f1f1;stop-opacity:1"
         offset="0"
         id="stop6457" />
      <stop
         style="stop-color:#cecece;stop-opacity:1"
         offset="1"
         id="stop6459" />
    </linearGradient>
    <linearGradient
       id="linearGradient5703">
      <stop
         id="stop5705"
         offset="0.0000000"
         style="stop-color:#ffffff;stop-opacity:0.83333325;" />
      <stop
         id="stop5707"
         offset="1"
         style="stop-color:#ffffff;stop-opacity:0.0000000" />
    </linearGradient>
    <linearGradient
       id="linearGradient5691">
      <stop
         style="stop-color:#ffffff;stop-opacity:0.83333325;"
         offset="0.0000000"
         id="stop5693" />
      <stop
         style="stop-color:#ffffff;stop-opacity:0.0000000"
         offset="1"
         id="stop5695" />
    </linearGradient>
    <linearGradient
       inkscape:collect="always"
       xlink:href="#linearGradient5691"
       id="linearGradient5697"
       x1="31.114616"
       y1="33.89996"
       x2="48.388142"
       y2="61.223637"
       gradientUnits="userSpaceOnUse"
       gradientTransform="matrix(0.197024,0,0,0.208264,-0.534119,-2.462173)" />
    <linearGradient
       inkscape:collect="always"
       xlink:href="#linearGradient5703"
       id="linearGradient5723"
       gradientUnits="userSpaceOnUse"
       x1="59.902058"
       y1="95.622185"
       x2="33.750458"
       y2="78.300934"
       gradientTransform="matrix(0.174014,0,0,0.197851,0.87862,-1.289063)" />
    <linearGradient
       inkscape:collect="always"
       xlink:href="#linearGradient6455"
       id="linearGradient6461"
       x1="21.100939"
       y1="33.477123"
       x2="54.294334"
       y2="75.682442"
       gradientUnits="userSpaceOnUse"
       gradientTransform="matrix(0.218472,0,0,0.213131,-0.596189,-2.790199)" />
    <radialGradient
       inkscape:collect="always"
       xlink:href="#linearGradient7917"
       id="radialGradient7923"
       cx="51.231888"
       cy="110.19082"
       fx="51.231888"
       fy="110.19082"
       r="48.06039"
       gradientTransform="matrix(1,0,0,0.228426,-5.31258e-17,85.02033)"
       gradientUnits="userSpaceOnUse" />
    <linearGradient
       inkscape:collect="always"
       xlink:href="#linearGradient8655"
       id="linearGradient8661"
       x1="59.867424"
       y1="177.41431"
       x2="86.77282"
       y2="84.96209"
       gradientUnits="userSpaceOnUse"
       gradientTransform="matrix(0.171513,0,0,0.235334,1.42677,-4.994431)" />
    <linearGradient
       inkscape:collect="always"
       xlink:href="#linearGradient5974"
       id="linearGradient4834"
       x1="100.05664"
       y1="65.067497"
       x2="24.326601"
       y2="65.067497"
       gradientUnits="userSpaceOnUse"
       gradientTransform="matrix(0.205574,0,0,0.204584,-1.688626e-2,-2.237213)" />
    <linearGradient
       inkscape:collect="always"
       xlink:href="#linearGradient4836"
       id="linearGradient4842"
       x1="38.183765"
       y1="21.226875"
       x2="59.657269"
       y2="101.36707"
       gradientUnits="userSpaceOnUse"
       gradientTransform="matrix(0.207902,0,0,0.206635,-0.531591,-2.473192)" />
    <linearGradient
       inkscape:collect="always"
       xlink:href="#linearGradient5968"
       id="linearGradient5724"
       x1="99.25"
       y1="65.5"
       x2="43.49057"
       y2="65.5"
       gradientUnits="userSpaceOnUse"
       gradientTransform="matrix(0.218472,0,0,0.213131,-1.033133,-2.790199)" />
  </defs>
  <sodipodi:namedview
     id="base"
     pagecolor="#ffffff"
     bordercolor="#666666"
     borderopacity="1.0"
     inkscape:pageopacity="0.0"
     inkscape:pageshadow="2"
     inkscape:zoom="1"
     inkscape:cx="11"
     inkscape:cy="10.462817"
     inkscape:document-units="px"
     inkscape:current-layer="layer1"
     showguides="true"
     inkscape:guide-bbox="true"
     inkscape:window-width="843"
     inkscape:window-height="556"
     inkscape:window-x="49"
     inkscape:window-y="143"
     showborder="false"
     width="22px"
     height="22px"
     inkscape:showpageshadow="false"
     showgrid="false" />
  <metadata
     id="metadata7">
    <rdf:RDF>
      <cc:Work
         rdf:about="">
        <dc:format>image/svg+xml</dc:format>
        <dc:type
           rdf:resource="http://purl.org/dc/dcmitype/StillImage" />
      </cc:Work>
    </rdf:RDF>
  </metadata>
  <g
     inkscape:label="Layer 1"
     inkscape:groupmode="layer"
     id="layer1">
    <path
       sodipodi:nodetypes="csssccsssc"
       style="opacity:1;color:black;fill:url(#linearGradient8661);fill-opacity:1;fill-rule:evenodd;stroke:none;stroke-width:1.66170299;stroke-linecap:round;stroke-linejoin:round;marker:none;marker-start:none;marker-mid:none;marker-end:none;stroke-miterlimit:4;stroke-dasharray:none;stroke-dashoffset:0;stroke-opacity:1;visibility:visible;display:inline;overflow:visible"
       d="M 16.788378,15.002927 C 12.462317,14.924618 7.4791415,16.427176 5.663846,18.357265 C 3.8485505,20.287355 5.8841442,21.918773 10.210206,21.997076 C 14.536267,22.075387 19.521117,20.57105 21.336412,18.64096 C 23.151707,16.71087 21.11444,15.081236 16.788378,15.002927 z M 13.23745,18.036552 C 13.796432,18.046667 14.061571,18.255638 13.827011,18.505028 C 13.592452,18.754423 12.948014,18.948736 12.389031,18.938621 C 11.830047,18.928501 11.566584,18.717751 11.801143,18.468362 C 12.035703,18.218965 12.678467,18.026431 13.23745,18.036552 z "
       id="path7925" />
    <path
       sodipodi:type="arc"
       style="opacity:1;color:black;fill:url(#radialGradient7923);fill-opacity:1;fill-rule:evenodd;stroke:none;stroke-width:3;stroke-linecap:round;stroke-linejoin:round;marker:none;marker-start:none;marker-mid:none;marker-end:none;stroke-miterlimit:4;stroke-dasharray:none;stroke-dashoffset:0;stroke-opacity:0.78400005;visibility:visible;display:inline;overflow:visible"
       id="path7189"
       sodipodi:cx="51.231888"
       sodipodi:cy="110.19082"
       sodipodi:rx="48.06039"
       sodipodi:ry="10.978262"
       d="M 99.292278 110.19082 A 48.06039 10.978262 0 1 1  3.1714973,110.19082 A 48.06039 10.978262 0 1 1  99.292278 110.19082 z"
       transform="matrix(0.208072,0,0,0.227723,-0.659898,-5.592955)" />
    <path
       style="opacity:1;color:black;fill:url(#linearGradient6461);fill-opacity:1;fill-rule:evenodd;stroke:url(#linearGradient5724);stroke-width:0.99999976;stroke-linecap:round;stroke-linejoin:round;marker:none;marker-start:none;marker-mid:none;marker-end:none;stroke-miterlimit:4;stroke-dasharray:none;stroke-dashoffset:0;stroke-opacity:1;visibility:visible;display:inline;overflow:visible"
       d="M 10.51857,0.50000026 C 5.0080597,0.50000026 0.53713389,5.2023099 0.53713389,10.996672 C 0.53713389,16.791032 5.0080601,21.500002 10.51857,21.500002 C 16.029077,21.500002 20.500004,16.791037 20.500004,10.996672 C 20.500004,5.2023087 16.029077,0.50000026 10.51857,0.50000026 z M 9.6515088,7.333494 C 11.578578,7.333494 13.147059,8.9855035 13.147059,11.023312 C 13.14706,13.061124 11.578578,14.713132 9.6515088,14.713132 C 7.7244402,14.713132 6.1627857,13.061124 6.1627857,11.023312 C 6.1627853,8.9855035 7.7244406,7.333494 9.6515088,7.333494 z "
       id="path1308" />
    <path
       style="fill:url(#linearGradient5697);fill-opacity:1;fill-rule:evenodd;stroke:none;stroke-width:0.25pt;stroke-linecap:butt;stroke-linejoin:miter;stroke-opacity:1"
       d="M 9.551052,1.0002096 C 9.1680645,0.99701499 8.7712338,1.0303708 8.368907,1.0978327 C 8.4836863,4.0202233 8.59892,6.9420265 8.7136994,9.8644168 C 8.9443069,9.8695529 9.1491776,9.9710234 9.3170857,10.124746 C 11.211173,7.8446939 13.105912,5.5646503 15,3.2845983 C 14.37073,2.6009424 12.231963,1.0225645 9.551052,1.0002096 z M 7.9502307,11.771328 C 6.300849,13.756811 4.6493819,15.740874 3,17.726356 C 4.9544766,19.933921 6.9079733,20.926382 9.1508466,21 C 9.0347878,18.045028 8.9159561,15.090755 8.7998972,12.135791 C 8.7637054,12.140285 8.7324612,12.16182 8.6952285,12.16182 C 8.3952159,12.16182 8.135168,12.009149 7.9502307,11.771328 z "
       id="path4955" />
    <path
       style="fill:url(#linearGradient5723);fill-opacity:1;fill-rule:evenodd;stroke:none;stroke-width:0.25pt;stroke-linecap:butt;stroke-linejoin:miter;stroke-opacity:1"
       d="M 9.78598,2.0001991 C 9.447721,1.9971651 9.097234,2.0288522 8.741894,2.0929416 C 8.843269,4.8692124 8.945045,7.6449259 9.046419,10.421197 C 9.250095,10.426076 9.43104,10.522473 9.579339,10.668509 C 11.252223,8.5024594 12.925684,6.3364182 14.598567,4.1703674 C 14.042788,3.5208957 12.153799,2.0214358 9.78598,2.0001991 z M 8.372113,12.232759 C 6.915356,14.11897 5.456758,16.003834 4,17.890039 C 5.726221,19.987227 7.451576,20.93006 9.432513,21 C 9.330009,18.192781 9.225055,15.386222 9.12255,12.579002 C 9.090585,12.583275 9.06299,12.603731 9.030105,12.603731 C 8.76513,12.603731 8.535452,12.458694 8.372113,12.232759 z "
       id="path5701" />
    <path
       sodipodi:nodetypes="csssccsssc"
       style="opacity:1;color:black;fill:#f2f2f2;fill-opacity:0.41199999;fill-rule:evenodd;stroke:#e3e3e3;stroke-width:0.53548664;stroke-linecap:round;stroke-linejoin:round;marker:none;marker-start:none;marker-mid:none;marker-end:none;stroke-miterlimit:4;stroke-dasharray:none;stroke-dashoffset:0;stroke-opacity:0.64800002;visibility:visible;display:inline;overflow:visible"
       d="M 9.49748,7.2677448 C 7.7137037,7.2677448 6.2677459,8.9373789 6.2677459,10.997089 C 6.2677459,13.056799 7.7137037,14.732255 9.49748,14.732255 C 11.281254,14.732255 12.732259,13.056799 12.73226,10.997089 C 12.73226,8.9373789 11.281254,7.2677448 9.49748,7.2677448 z M 9.49748,9.3888088 C 10.266346,9.3888088 10.890302,10.109287 10.890302,10.997089 C 10.890302,11.884891 10.266346,12.605369 9.49748,12.605369 C 8.7286141,12.605369 8.104657,11.884891 8.104657,10.997089 C 8.1046566,10.109287 8.7286147,9.3888088 9.49748,9.3888088 z "
       id="path2055" />
    <path
       style="opacity:1;color:black;fill:none;fill-opacity:1;fill-rule:evenodd;stroke:url(#linearGradient4834);stroke-width:1.00000024;stroke-linecap:round;stroke-linejoin:round;marker:none;marker-start:none;marker-mid:none;marker-end:none;stroke-miterlimit:4;stroke-dasharray:none;stroke-dashoffset:0;stroke-opacity:1;visibility:visible;display:inline;overflow:visible"
       d="M 10.750004,1.5 C 5.9193381,1.5 2.0000004,5.7544681 2.0000004,10.996984 C 2.0000004,16.239499 5.9193385,20.499994 10.750004,20.499994 C 15.580669,20.499994 19.500007,16.239499 19.500007,10.996984 C 19.500008,5.7544681 15.58067,1.5 10.750004,1.5 z "
       id="path4818"
       sodipodi:nodetypes="csssc" />
    <path
       style="opacity:1;color:black;fill:none;fill-opacity:1;fill-rule:evenodd;stroke:url(#linearGradient4842);stroke-width:1;stroke-linecap:round;stroke-linejoin:round;marker:none;marker-start:none;marker-mid:none;marker-end:none;stroke-miterlimit:4;stroke-dasharray:none;stroke-dashoffset:0;stroke-opacity:1;visibility:visible;display:inline;overflow:visible"
       d="M 9.9999939,1.5000012 C 5.3073524,1.5000012 1.5,5.7544714 1.5,10.996991 C 1.5,16.239508 5.3073524,20.500008 9.9999939,20.500008 C 14.692635,20.500008 18.499988,16.239508 18.499988,10.996991 C 18.499989,5.7544714 14.692635,1.5000012 9.9999939,1.5000012 z "
       id="path3330"
       sodipodi:nodetypes="csssc" />
  </g>
</svg>
