<?xml version="1.0" encoding="UTF-8" standalone="no"?>
<!-- Created with Inkscape (http://www.inkscape.org/) -->
<svg
   xmlns:dc="http://purl.org/dc/elements/1.1/"
   xmlns:cc="http://web.resource.org/cc/"
   xmlns:rdf="http://www.w3.org/1999/02/22-rdf-syntax-ns#"
   xmlns:svg="http://www.w3.org/2000/svg"
   xmlns="http://www.w3.org/2000/svg"
   xmlns:xlink="http://www.w3.org/1999/xlink"
   xmlns:sodipodi="http://inkscape.sourceforge.net/DTD/sodipodi-0.dtd"
   xmlns:inkscape="http://www.inkscape.org/namespaces/inkscape"
   width="22"
   height="22"
   id="svg2"
   sodipodi:version="0.32"
   inkscape:version="0.43+devel"
   sodipodi:docbase="/home/silvestre/Desktop/Neu/22x22/mimetypes"
   sodipodi:docname="text-x-source.svg"
   version="1.0">
  <defs
     id="defs4">
    <linearGradient
       id="linearGradient4870"
       inkscape:collect="always">
      <stop
         id="stop4872"
         offset="0"
         style="stop-color:white;stop-opacity:0.33905581" />
      <stop
         id="stop4874"
         offset="1"
         style="stop-color:white;stop-opacity:0" />
    </linearGradient>
    <linearGradient
       inkscape:collect="always"
       id="linearGradient4820">
      <stop
         style="stop-color:white;stop-opacity:1;"
         offset="0"
         id="stop4822" />
      <stop
         style="stop-color:white;stop-opacity:0.57939917"
         offset="1"
         id="stop4824" />
    </linearGradient>
    <linearGradient
       id="linearGradient4957">
      <stop
         id="stop4959"
         offset="0"
         style="stop-color:#ffffff;stop-opacity:1;" />
      <stop
         id="stop4961"
         offset="1.0000000"
         style="stop-color:#d0d0d0;stop-opacity:1" />
    </linearGradient>
    <linearGradient
       inkscape:collect="always"
       id="linearGradient5912">
      <stop
         style="stop-color:#000000;stop-opacity:1;"
         offset="0"
         id="stop5914" />
      <stop
         style="stop-color:#000000;stop-opacity:0;"
         offset="1"
         id="stop5916" />
    </linearGradient>
    <linearGradient
       id="linearGradient5904">
      <stop
         id="stop5906"
         offset="0.0000000"
         style="stop-color:#000000;stop-opacity:0.19791669;" />
      <stop
         id="stop5908"
         offset="1"
         style="stop-color:#000000;stop-opacity:0;" />
    </linearGradient>
    <linearGradient
       id="linearGradient2065">
      <stop
         style="stop-color:#ffffff;stop-opacity:1;"
         offset="0"
         id="stop2067" />
      <stop
         style="stop-color:#bfbfbf;stop-opacity:1.0000000;"
         offset="1.0000000"
         id="stop2069" />
    </linearGradient>
    <linearGradient
       id="linearGradient2057">
      <stop
         style="stop-color:#f0f0f0;stop-opacity:1;"
         offset="0"
         id="stop2059" />
      <stop
         style="stop-color:#dddddd;stop-opacity:1.0000000;"
         offset="1.0000000"
         id="stop2061" />
    </linearGradient>
    <linearGradient
       inkscape:collect="always"
       id="linearGradient2049">
      <stop
         style="stop-color:#0a0a0a;stop-opacity:1;"
         offset="0"
         id="stop2051" />
      <stop
         style="stop-color:#0a0a0a;stop-opacity:0;"
         offset="1"
         id="stop2053" />
    </linearGradient>
    <linearGradient
       inkscape:collect="always"
       xlink:href="#linearGradient2057"
       id="linearGradient5888"
       gradientUnits="userSpaceOnUse"
       x1="57.903072"
       y1="65.225105"
       x2="85.99958"
       y2="114.99323" />
    <linearGradient
       inkscape:collect="always"
       xlink:href="#linearGradient2049"
       id="linearGradient5890"
       gradientUnits="userSpaceOnUse"
       gradientTransform="translate(0.975845,-1.951691)"
       x1="69.606209"
       y1="-2.7867124"
       x2="82.63073"
       y2="34.12973" />
    <linearGradient
       inkscape:collect="always"
       xlink:href="#linearGradient2065"
       id="linearGradient5892"
       gradientUnits="userSpaceOnUse"
       x1="80.507256"
       y1="19.19323"
       x2="84.654594"
       y2="10.41062" />
    <radialGradient
       inkscape:collect="always"
       xlink:href="#linearGradient5904"
       id="radialGradient5902"
       cx="60.502419"
       cy="115.07005"
       fx="60.502419"
       fy="115.07005"
       r="56.111115"
       gradientTransform="matrix(1,0,0,0.213043,-3.616898e-16,90.55513)"
       gradientUnits="userSpaceOnUse" />
    <linearGradient
       inkscape:collect="always"
       xlink:href="#linearGradient5912"
       id="linearGradient5918"
       x1="71.236717"
       y1="152.15218"
       x2="88.314011"
       y2="99.212555"
       gradientUnits="userSpaceOnUse"
       gradientTransform="matrix(0.164865,0,0,0.183082,0.455835,-0.809088)" />
    <linearGradient
       inkscape:collect="always"
       xlink:href="#linearGradient4957"
       id="linearGradient4940"
       gradientUnits="userSpaceOnUse"
       x1="81.89402"
       y1="22.461552"
       x2="84.654594"
       y2="10.41062"
       gradientTransform="matrix(0.174153,0,0,0.1836,-1.504486,-0.35621)" />
    <linearGradient
       inkscape:collect="always"
       xlink:href="#linearGradient2049"
       id="linearGradient4943"
       gradientUnits="userSpaceOnUse"
       gradientTransform="matrix(0.168935,0,0,0.16369,-0.712394,-4.069789e-2)"
       x1="69.606209"
       y1="-2.7867124"
       x2="82.63073"
       y2="34.12973" />
    <linearGradient
       inkscape:collect="always"
       xlink:href="#linearGradient2057"
       id="linearGradient4946"
       gradientUnits="userSpaceOnUse"
       x1="57.903072"
       y1="65.225105"
       x2="85.99958"
       y2="114.99323"
       gradientTransform="matrix(0.175902,0,0,0.176487,-1.908047,-0.511348)" />
    <linearGradient
       inkscape:collect="always"
       xlink:href="#linearGradient4820"
       id="linearGradient4826"
       x1="7.9148936"
       y1="3.8297873"
       x2="7.9148936"
       y2="41.371349"
       gradientUnits="userSpaceOnUse"
       gradientTransform="matrix(0.438081,0,0,0.44229,-0.480668,0.385043)" />
    <linearGradient
       gradientTransform="matrix(0.570117,0,0,0.573017,-7.05008,-5.992318)"
       gradientUnits="userSpaceOnUse"
       y2="26.680838"
       x2="26.017185"
       y1="29.974993"
       x1="38.311138"
       id="linearGradient6653"
       xlink:href="#linearGradient6647"
       inkscape:collect="always" />
    <linearGradient
       gradientTransform="matrix(0.278906,0,0,0.271194,-1.046994,-0.956207)"
       y2="50.46096"
       x2="34.81287"
       y1="16.950554"
       x1="34.81287"
       gradientUnits="userSpaceOnUse"
       id="linearGradient4021"
       xlink:href="#linearGradient4234"
       inkscape:collect="always" />
    <linearGradient
       gradientTransform="matrix(0.218217,0,0,0.216613,-6.686769,-5.897457)"
       y2="75.248329"
       x2="72.151817"
       y1="38.213421"
       x1="72.151817"
       gradientUnits="userSpaceOnUse"
       id="linearGradient4018"
       xlink:href="#linearGradient4870"
       inkscape:collect="always" />
    <linearGradient
       inkscape:collect="always"
       id="linearGradient4234">
      <stop
         style="stop-color:#e0e0e0;stop-opacity:1.0000000"
         offset="0"
         id="stop4236" />
      <stop
         style="stop-color:#c4c4c4;stop-opacity:1.0000000"
         offset="1"
         id="stop4238" />
    </linearGradient>
    <linearGradient
       id="linearGradient6647"
       inkscape:collect="always">
      <stop
         id="stop6649"
         offset="0"
         style="stop-color:white;stop-opacity:1;" />
      <stop
         id="stop6651"
         offset="1"
         style="stop-color:white;stop-opacity:0.45064378" />
    </linearGradient>
  </defs>
  <sodipodi:namedview
     id="base"
     pagecolor="#ffffff"
     bordercolor="#666666"
     borderopacity="1.0"
     inkscape:pageopacity="0.0"
     inkscape:pageshadow="2"
     inkscape:zoom="1"
     inkscape:cx="11"
     inkscape:cy="11"
     inkscape:document-units="px"
     inkscape:current-layer="layer1"
     inkscape:window-width="843"
     inkscape:window-height="556"
     inkscape:window-x="45"
     inkscape:window-y="24"
     showguides="true"
     inkscape:guide-bbox="true"
     width="22px"
     height="22px"
     showgrid="false"
     showborder="false"
     inkscape:showpageshadow="false" />
  <metadata
     id="metadata7">
    <rdf:RDF>
      <cc:Work
         rdf:about="">
        <dc:format>image/svg+xml</dc:format>
        <dc:type
           rdf:resource="http://purl.org/dc/dcmitype/StillImage" />
      </cc:Work>
    </rdf:RDF>
  </metadata>
  <g
     inkscape:label="Layer 1"
     inkscape:groupmode="layer"
     id="layer1">
    <path
       style="fill:url(#linearGradient5918);fill-opacity:1;fill-rule:evenodd;stroke:none;stroke-width:0.25pt;stroke-linecap:butt;stroke-linejoin:miter;stroke-opacity:1"
       d="M 16.302783,21.553384 L 21.45103,18.337518 L 13.406894,16.640258 L 16.302783,21.553384 z "
       id="path5910" />
    <path
       sodipodi:type="arc"
       style="opacity:1;color:black;fill:url(#radialGradient5902);fill-opacity:1;fill-rule:evenodd;stroke:none;stroke-width:2;stroke-linecap:round;stroke-linejoin:round;marker:none;marker-start:none;marker-mid:none;marker-end:none;stroke-miterlimit:4;stroke-dasharray:none;stroke-dashoffset:0;stroke-opacity:1;visibility:visible;display:inline;overflow:visible"
       id="path5894"
       sodipodi:cx="60.502419"
       sodipodi:cy="115.07005"
       sodipodi:rx="56.111115"
       sodipodi:ry="11.954107"
       d="M 116.61353 115.07005 A 56.111115 11.954107 0 1 1  4.391304,115.07005 A 56.111115 11.954107 0 1 1  116.61353 115.07005 z"
       transform="matrix(0.167254,0,0,0.167708,-0.734463,0.697032)" />
    <path
       style="fill:url(#linearGradient4946);fill-opacity:1;fill-rule:evenodd;stroke:#a0a0a0;stroke-width:1.01816607;stroke-linecap:round;stroke-linejoin:round;stroke-miterlimit:4;stroke-dasharray:none;stroke-opacity:1"
       d="M 0.56977101,19.481532 C 0.91367254,14.20438 1.2575743,7.7094235 0.5090824,1.4580282 L 9.7337405,0.51422933 C 11.3521,0.40259803 16.045349,2.1278212 16.045349,3.6500763 C 16.733151,10.084143 16.571315,16.031088 15.923971,21.490909 L 0.56977101,19.481532 z "
       id="path1306"
       sodipodi:nodetypes="cccccc" />
    <path
       style="fill:url(#linearGradient4943);fill-opacity:1;fill-rule:evenodd;stroke:none;stroke-width:0.25pt;stroke-linecap:butt;stroke-linejoin:miter;stroke-opacity:1"
       d="M 11.017487,1.9340491 C 10.016929,3.3929941 10.327782,5.5861171 11.338054,6.3673581 C 13.028315,4.6542751 14.164871,3.7600831 16.088273,4.0801101 C 15.06343,2.7247031 12.82189,1.7010881 11.017487,1.9340491 z "
       id="path2039"
       sodipodi:nodetypes="cccc" />
    <path
       sodipodi:nodetypes="ccccc"
       id="path4826"
       d="M 3.0833333,4.5991249 L 13.75,4.0644239 L 13.75,5.6939873 L 3.0833333,5.6939873 L 3.0833333,4.5991249 z "
       style="opacity:0.40167362;fill:black;fill-opacity:1;stroke:none;stroke-width:1;stroke-linecap:round;stroke-linejoin:round;stroke-miterlimit:4;stroke-dashoffset:0;stroke-opacity:1" />
    <path
       sodipodi:nodetypes="ccccc"
       id="path4830"
       d="M 3.3333333,7.4853627 L 12.222222,7.1597268 L 12.222222,8.7059569 L 3.3333333,8.5242356 L 3.3333333,7.4853627 z "
       style="opacity:0.40167362;fill:black;fill-opacity:1;stroke:none;stroke-width:1;stroke-linecap:round;stroke-linejoin:round;stroke-miterlimit:4;stroke-dashoffset:0;stroke-opacity:1" />
    <path
       sodipodi:nodetypes="ccccc"
       id="path4834"
       d="M 3.3333333,10.308437 L 9.791667,10.177927 L 9.791667,11.66452 L 3.3333333,11.307243 L 3.3333333,10.308437 z "
       style="opacity:0.40167362;fill:black;fill-opacity:1;stroke:none;stroke-width:1;stroke-linecap:round;stroke-linejoin:round;stroke-miterlimit:4;stroke-dashoffset:0;stroke-opacity:1" />
    <path
       sodipodi:nodetypes="ccccc"
       id="path4836"
       d="M 3.3333333,13.163488 L 14,13.379643 L 14,14.91674 L 3.3333333,14.196226 L 3.3333333,13.163488 z "
       style="opacity:0.40167362;fill:black;fill-opacity:1;stroke:none;stroke-width:1;stroke-linecap:round;stroke-linejoin:round;stroke-miterlimit:4;stroke-dashoffset:0;stroke-opacity:1" />
    <path
       style="opacity:0.40167362;fill:black;fill-opacity:1;stroke:none;stroke-width:1;stroke-linecap:round;stroke-linejoin:round;stroke-miterlimit:4;stroke-dashoffset:0;stroke-opacity:1"
       d="M 3.1458333,16.1875 L 9.590278,16.528735 L 9.590278,18.000001 L 3.1458333,17.176006 L 3.1458333,16.1875 z "
       id="rect3950"
       sodipodi:nodetypes="ccccc" />
    <path
       style="fill:none;fill-opacity:1;fill-rule:evenodd;stroke:url(#linearGradient4826);stroke-width:0.96689123;stroke-linecap:round;stroke-linejoin:round;stroke-miterlimit:4;stroke-dasharray:none;stroke-opacity:1"
       d="M 1.5367344,18.693791 C 1.8387027,13.906765 2.1406711,8.0150408 1.4834459,2.3442561 L 9.5833045,1.4881146 C 11.228349,1.3868505 15.297551,2.9518399 15.125313,4.3327127 C 15.72925,10.169203 15.587146,15.563814 15.018737,20.516544 L 1.5367344,18.693791 z "
       id="path3945"
       sodipodi:nodetypes="cccccc" />
    <path
       style="fill:url(#linearGradient4940);fill-opacity:1;fill-rule:evenodd;stroke:none;stroke-width:1;stroke-linecap:butt;stroke-linejoin:miter;stroke-miterlimit:4;stroke-dasharray:none;stroke-opacity:1"
       d="M 9.6309837,1.0274347 C 8.5995237,2.6638409 8.9199772,5.1237304 9.9614525,6 C 11.703918,4.0785414 14.017193,3.518996 16,3.8779491 C 15.544355,2.4210196 11.491117,0.76613691 9.6309837,1.0274347 z "
       id="path2037"
       sodipodi:nodetypes="cccc" />
    <g
       id="g3991"
       inkscape:label="Layer 1"
       transform="matrix(0.722675,0,0,0.714529,4.68205,6.140182)">
      <path
         sodipodi:nodetypes="ccccccccccccccccccccccccccccccccccsscsc"
         id="path2041"
         d="M 12.069886,0.51124161 L 9.7778381,3.0956854 L 8.026937,2.0309321 L 8.6318131,2.500642 L 6.9568543,1.2039787 L 4.6207283,2.6693851 L 4.9469035,6.6215427 L 1.6146181,7.483024 L 1.1473922,10.094113 L 4.0212694,12.261138 L 1.923163,15.405101 L 3.6774619,17.714227 L 3.6922222,17.703074 L 5.5639947,18.877671 L 7.5915761,18.096122 L 8.3849774,20.041116 L 8.4138853,20.033267 L 10.280325,21.204559 L 13.515641,21.488759 L 14.696926,17.767515 L 18.038029,18.664522 L 19.589571,16.168889 L 17.808826,12.776251 L 20.488759,10.316144 L 19.774697,7.349806 L 17.885885,6.1664336 L 17.888165,6.1863617 L 16.389517,5.9643307 L 16.407149,2.8736544 L 14.511801,1.7167955 L 14.511801,1.7102111 L 12.069886,0.51124161 z M 11.770157,8.5842997 C 11.823623,8.5842997 11.867347,8.6161675 11.920022,8.6198259 C 12.273608,9.1429016 12.519481,9.7785296 12.519481,10.493769 C 12.51948,12.186596 11.333286,13.557803 9.8748099,13.557803 C 9.8183616,13.557803 9.7717162,13.526324 9.7161295,13.522276 C 9.3609661,13.001031 9.1166699,12.372453 9.1166699,11.657213 C 9.1166709,9.9643858 10.311678,8.5842997 11.770157,8.5842997 z "
         style="color:black;fill:#8f8f8f;fill-opacity:1;fill-rule:evenodd;stroke:#595959;stroke-width:1.42290115;stroke-linecap:round;stroke-linejoin:round;marker:none;marker-start:none;marker-mid:none;marker-end:none;stroke-miterlimit:4;stroke-dasharray:none;stroke-dashoffset:0;stroke-opacity:1;visibility:visible;display:inline;overflow:visible" />
      <path
         sodipodi:nodetypes="cccccccccccccccccccccccssss"
         id="path2043"
         d="M 12.21911,1.2033353 L 9.8823281,3.73954 L 7.3489961,1.8445451 L 5.1286906,3.1901199 L 5.4417174,6.8190949 L 2.2677722,7.6101308 L 1.8237105,10.002578 L 4.5535947,11.992399 L 2.5618665,14.882303 L 4.2289157,17.002604 L 7.3155048,15.852748 L 8.7132055,19.139214 L 11.796887,19.397139 L 12.91796,15.980194 L 16.091905,16.80385 L 17.569681,14.512294 L 15.880793,11.397085 L 18.428685,9.1381498 L 17.751674,6.4143791 L 14.526771,5.9495449 L 14.541331,2.3042594 L 12.21911,1.2033353 z M 10.129837,7.5479242 C 11.957695,7.5479242 12.898172,8.8151553 12.898172,10.369555 C 12.898172,11.923953 11.517397,13.39709 10.129837,13.39709 C 8.7422793,13.39709 7.6110646,11.923953 7.6110646,10.369555 C 7.6110654,8.8151553 8.7422793,7.5479242 10.129837,7.5479242 z "
         style="color:black;fill:url(#linearGradient4021);fill-opacity:1;fill-rule:evenodd;stroke:none;stroke-width:1.86331141;stroke-linecap:round;stroke-linejoin:round;marker:none;marker-start:none;marker-mid:none;marker-end:none;stroke-miterlimit:4;stroke-dashoffset:0;stroke-opacity:1;visibility:visible;display:inline;overflow:visible" />
      <path
         style="color:black;fill:url(#linearGradient4018);fill-opacity:1;fill-rule:evenodd;stroke:none;stroke-width:1.86331141;stroke-linecap:round;stroke-linejoin:round;marker:none;marker-start:none;marker-mid:none;marker-end:none;stroke-miterlimit:4;stroke-dashoffset:0;stroke-opacity:1;visibility:visible;display:inline;overflow:visible"
         d="M 12.216311,1.2033353 L 9.8772937,3.7959021 L 7.3473365,1.8599377 L 5.1242474,3.2340663 L 5.4379347,6.9367654 L 2.2669651,7.7490573 L 1.8237105,10.185934 L 2.1033017,10.395776 C 3.7378018,9.4313379 5.9038075,8.7942231 8.3156755,8.5884257 C 8.7750264,8.0362325 9.4130619,7.6813665 10.129608,7.6813665 C 11.104098,7.6813665 11.802031,8.0655632 12.264047,8.6493488 C 14.229265,8.9010714 15.984251,9.4651012 17.398972,10.240088 L 18.428685,9.3059511 L 17.746756,6.5238494 L 14.521231,6.0500132 L 14.541688,2.3270061 L 12.216311,1.2033353 z "
         id="path1317" />
      <path
         sodipodi:nodetypes="cccccccccccccccccccccccssss"
         id="path5772"
         d="M 12.044436,1.8804253 L 9.9241144,4.4080031 L 7.3787628,2.5071255 L 5.5606274,3.6271811 L 5.9967196,7.2228 L 2.808275,8.191002 L 2.4931675,10.187939 L 5.123904,12.327798 L 3.1297547,15.201071 L 4.5799553,17.224621 L 7.347678,16.003254 L 8.7419707,19.264113 L 11.604037,19.516201 L 12.644542,16.176581 L 15.590384,16.981599 L 16.961956,14.741901 L 15.394443,11.697188 L 17.759226,9.4893724 L 17.17939,6.973544 L 14.186253,6.5192281 L 14.199764,2.9076698 L 12.044436,1.8804253 z M 10.056794,7.9351349 C 11.753288,7.9351349 12.626176,9.1736892 12.626176,10.692911 C 12.626176,12.212132 11.344633,13.651935 10.056794,13.651935 C 8.7689554,13.651934 7.7190393,12.212132 7.7190393,10.692911 C 7.7190397,9.1736882 8.7689554,7.9351349 10.056794,7.9351349 z "
         style="color:black;fill:none;fill-opacity:1;fill-rule:evenodd;stroke:url(#linearGradient6653);stroke-width:1.34652543;stroke-linecap:round;stroke-linejoin:round;marker:none;marker-start:none;marker-mid:none;marker-end:none;stroke-miterlimit:4;stroke-dasharray:none;stroke-dashoffset:0;stroke-opacity:1;visibility:visible;display:inline;overflow:visible" />
    </g>
  </g>
</svg>
