<?xml version="1.0" encoding="UTF-8" standalone="no"?>
<!-- Created with Inkscape (http://www.inkscape.org/) -->
<svg
   xmlns:dc="http://purl.org/dc/elements/1.1/"
   xmlns:cc="http://web.resource.org/cc/"
   xmlns:rdf="http://www.w3.org/1999/02/22-rdf-syntax-ns#"
   xmlns:svg="http://www.w3.org/2000/svg"
   xmlns="http://www.w3.org/2000/svg"
   xmlns:xlink="http://www.w3.org/1999/xlink"
   xmlns:sodipodi="http://inkscape.sourceforge.net/DTD/sodipodi-0.dtd"
   xmlns:inkscape="http://www.inkscape.org/namespaces/inkscape"
   width="22"
   height="22"
   id="svg2"
   sodipodi:version="0.32"
   inkscape:version="0.43+devel"
   sodipodi:docbase="/home/silvestre/Desktop/Neu/22x22/mimetypes"
   sodipodi:docname="x-office-spreadsheet.svg"
   version="1.0">
  <defs
     id="defs4">
    <linearGradient
       inkscape:collect="always"
       id="linearGradient3962">
      <stop
         style="stop-color:#8f2f2f;stop-opacity:1;"
         offset="0"
         id="stop3964" />
      <stop
         style="stop-color:#85b00e;stop-opacity:1"
         offset="1"
         id="stop3966" />
    </linearGradient>
    <linearGradient
       inkscape:collect="always"
       id="linearGradient4820">
      <stop
         style="stop-color:white;stop-opacity:1;"
         offset="0"
         id="stop4822" />
      <stop
         style="stop-color:white;stop-opacity:0.57939917"
         offset="1"
         id="stop4824" />
    </linearGradient>
    <linearGradient
       id="linearGradient4957">
      <stop
         id="stop4959"
         offset="0"
         style="stop-color:#ffffff;stop-opacity:1;" />
      <stop
         id="stop4961"
         offset="1.0000000"
         style="stop-color:#d0d0d0;stop-opacity:1" />
    </linearGradient>
    <linearGradient
       inkscape:collect="always"
       id="linearGradient5912">
      <stop
         style="stop-color:#000000;stop-opacity:1;"
         offset="0"
         id="stop5914" />
      <stop
         style="stop-color:#000000;stop-opacity:0;"
         offset="1"
         id="stop5916" />
    </linearGradient>
    <linearGradient
       id="linearGradient5904">
      <stop
         id="stop5906"
         offset="0.0000000"
         style="stop-color:#000000;stop-opacity:0.19791669;" />
      <stop
         id="stop5908"
         offset="1"
         style="stop-color:#000000;stop-opacity:0;" />
    </linearGradient>
    <linearGradient
       id="linearGradient2057">
      <stop
         style="stop-color:#f0f0f0;stop-opacity:1;"
         offset="0"
         id="stop2059" />
      <stop
         style="stop-color:#dddddd;stop-opacity:1.0000000;"
         offset="1.0000000"
         id="stop2061" />
    </linearGradient>
    <linearGradient
       inkscape:collect="always"
       id="linearGradient2049">
      <stop
         style="stop-color:#0a0a0a;stop-opacity:1;"
         offset="0"
         id="stop2051" />
      <stop
         style="stop-color:#0a0a0a;stop-opacity:0;"
         offset="1"
         id="stop2053" />
    </linearGradient>
    <radialGradient
       inkscape:collect="always"
       xlink:href="#linearGradient5904"
       id="radialGradient5902"
       cx="60.502419"
       cy="115.07005"
       fx="60.502419"
       fy="115.07005"
       r="56.111115"
       gradientTransform="matrix(1,0,0,0.213043,-3.616898e-16,90.55513)"
       gradientUnits="userSpaceOnUse" />
    <linearGradient
       inkscape:collect="always"
       xlink:href="#linearGradient5912"
       id="linearGradient5918"
       x1="71.236717"
       y1="152.15218"
       x2="88.314011"
       y2="99.212555"
       gradientUnits="userSpaceOnUse"
       gradientTransform="matrix(0.164865,0,0,0.183082,0.455835,-0.809088)" />
    <linearGradient
       inkscape:collect="always"
       xlink:href="#linearGradient4957"
       id="linearGradient4940"
       gradientUnits="userSpaceOnUse"
       x1="81.89402"
       y1="22.461552"
       x2="84.654594"
       y2="10.41062"
       gradientTransform="matrix(0.176349,0,0,0.1836,-1.636952,-0.35621)" />
    <linearGradient
       inkscape:collect="always"
       xlink:href="#linearGradient2049"
       id="linearGradient4943"
       gradientUnits="userSpaceOnUse"
       gradientTransform="matrix(0.168935,0,0,0.183242,-0.712394,-0.173499)"
       x1="69.606209"
       y1="-2.7867124"
       x2="82.63073"
       y2="34.12973" />
    <linearGradient
       inkscape:collect="always"
       xlink:href="#linearGradient2057"
       id="linearGradient4946"
       gradientUnits="userSpaceOnUse"
       x1="57.903072"
       y1="65.225105"
       x2="85.99958"
       y2="114.99323"
       gradientTransform="matrix(0.175902,0,0,0.176487,-1.908054,-0.511347)" />
    <linearGradient
       inkscape:collect="always"
       xlink:href="#linearGradient4820"
       id="linearGradient4826"
       x1="7.9148936"
       y1="3.8297873"
       x2="7.9148936"
       y2="41.371349"
       gradientUnits="userSpaceOnUse"
       gradientTransform="matrix(0.438081,0,0,0.44229,-0.480668,0.385043)" />
    <linearGradient
       inkscape:collect="always"
       id="linearGradient9284">
      <stop
         style="stop-color:white;stop-opacity:1;"
         offset="0"
         id="stop9286" />
      <stop
         style="stop-color:white;stop-opacity:0.26666668"
         offset="1"
         id="stop9288" />
    </linearGradient>
    <linearGradient
       id="linearGradient9292"
       inkscape:collect="always">
      <stop
         id="stop9294"
         offset="0"
         style="stop-color:white;stop-opacity:0.68669528" />
      <stop
         id="stop9296"
         offset="1"
         style="stop-color:white;stop-opacity:0;" />
    </linearGradient>
    <linearGradient
       inkscape:collect="always"
       xlink:href="#linearGradient9284"
       id="linearGradient5974"
       gradientUnits="userSpaceOnUse"
       gradientTransform="matrix(0.969652,0,0,1.001013,21.2126,2.992407)"
       x1="9.3277912"
       y1="6.2957444"
       x2="-3.6651816"
       y2="23.701391" />
    <radialGradient
       inkscape:collect="always"
       xlink:href="#linearGradient9292"
       id="radialGradient5976"
       gradientUnits="userSpaceOnUse"
       gradientTransform="matrix(1,0,0,1.125464,-8.894254e-16,-2.760206)"
       cx="18.93944"
       cy="17.668877"
       fx="18.93944"
       fy="17.668877"
       r="9.7737474" />
    <linearGradient
       inkscape:collect="always"
       xlink:href="#linearGradient3962"
       id="linearGradient3968"
       x1="35.28125"
       y1="18.87501"
       x2="24.256372"
       y2="33.163246"
       gradientUnits="userSpaceOnUse" />
  </defs>
  <sodipodi:namedview
     id="base"
     pagecolor="#ffffff"
     bordercolor="#666666"
     borderopacity="1.0"
     inkscape:pageopacity="0.0"
     inkscape:pageshadow="2"
     inkscape:zoom="1"
     inkscape:cx="11"
     inkscape:cy="11"
     inkscape:document-units="px"
     inkscape:current-layer="layer1"
     inkscape:window-width="843"
     inkscape:window-height="556"
     inkscape:window-x="45"
     inkscape:window-y="24"
     showguides="true"
     inkscape:guide-bbox="true"
     width="22px"
     height="22px"
     showgrid="false"
     showborder="false"
     inkscape:showpageshadow="false" />
  <metadata
     id="metadata7">
    <rdf:RDF>
      <cc:Work
         rdf:about="">
        <dc:format>image/svg+xml</dc:format>
        <dc:type
           rdf:resource="http://purl.org/dc/dcmitype/StillImage" />
      </cc:Work>
    </rdf:RDF>
  </metadata>
  <g
     inkscape:label="Layer 1"
     inkscape:groupmode="layer"
     id="layer1">
    <path
       style="fill:url(#linearGradient5918);fill-opacity:1;fill-rule:evenodd;stroke:none;stroke-width:0.25pt;stroke-linecap:butt;stroke-linejoin:miter;stroke-opacity:1"
       d="M 16.302783,21.553384 L 21.45103,18.337518 L 13.406894,16.640258 L 16.302783,21.553384 z "
       id="path5910" />
    <path
       sodipodi:type="arc"
       style="opacity:1;color:black;fill:url(#radialGradient5902);fill-opacity:1;fill-rule:evenodd;stroke:none;stroke-width:2;stroke-linecap:round;stroke-linejoin:round;marker:none;marker-start:none;marker-mid:none;marker-end:none;stroke-miterlimit:4;stroke-dasharray:none;stroke-dashoffset:0;stroke-opacity:1;visibility:visible;display:inline;overflow:visible"
       id="path5894"
       sodipodi:cx="60.502419"
       sodipodi:cy="115.07005"
       sodipodi:rx="56.111115"
       sodipodi:ry="11.954107"
       d="M 116.61353 115.07005 A 56.111115 11.954107 0 1 1  4.391304,115.07005 A 56.111115 11.954107 0 1 1  116.61353 115.07005 z"
       transform="matrix(0.167254,0,0,0.167708,-0.734463,0.697032)" />
    <path
       style="fill:url(#linearGradient4946);fill-opacity:1;fill-rule:evenodd;stroke:#a0a0a0;stroke-width:1.01816607;stroke-linecap:round;stroke-linejoin:round;stroke-miterlimit:4;stroke-dasharray:none;stroke-opacity:1"
       d="M 0.5697642,19.481533 C 0.91366591,14.204381 1.2575677,7.7094241 0.50907563,1.4580288 L 9.7337369,0.5142299 C 11.352097,0.4025986 16.045348,2.1278218 16.045348,3.6500769 C 16.73315,10.084144 16.571313,16.031089 15.923969,21.49091 L 0.5697642,19.481533 z "
       id="path1306"
       sodipodi:nodetypes="cccccc" />
    <path
       style="fill:url(#linearGradient4943);fill-opacity:1;fill-rule:evenodd;stroke:none;stroke-width:0.25pt;stroke-linecap:butt;stroke-linejoin:miter;stroke-opacity:1"
       d="M 11.017487,2.0371313 C 10.016929,3.6703476 10.327782,6.1254396 11.338054,7 C 13.028315,5.0822888 14.164871,4.0812854 16.088273,4.4395397 C 15.06343,2.922229 12.82189,1.7763429 11.017487,2.0371313 z "
       id="path2039"
       sodipodi:nodetypes="cccc" />
    <path
       style="opacity:0.68200839;fill:black;fill-opacity:0.41630901;stroke:none;stroke-width:1;stroke-linecap:round;stroke-linejoin:round;stroke-miterlimit:4;stroke-dashoffset:0;stroke-opacity:0.26666667"
       d="M 14.622817,3 L 12.471479,3.1620253 C 12.524433,3.7309468 12.57113,4.2598604 12.611176,4.7957805 L 14.790454,4.741772 C 14.741613,4.1635959 14.692788,3.5883043 14.622817,3 z M 11.605355,3.2160338 L 9.0768332,3.4050639 C 9.1245592,3.9191682 9.1521275,4.4037769 9.188591,4.8902951 L 11.745053,4.8227852 C 11.704719,4.28909 11.659162,3.7542291 11.605355,3.2160338 z M 8.2107098,3.4725737 L 5.7380673,3.6481015 C 5.7898711,4.1176455 5.8233882,4.5534259 5.8637949,4.998312 L 8.3364374,4.9172998 C 8.3003602,4.4352653 8.258472,3.9584681 8.2107098,3.4725737 z M 4.8160651,3.7156123 L 3,3.850633 C 3.0518172,4.262391 3.0869963,4.6624972 3.1257276,5.0658228 L 4.9557624,5.0118144 C 4.915961,4.5801143 4.8674871,4.1503934 4.8160651,3.7156123 z M 14.846332,5.4303797 L 12.653084,5.4978905 C 12.690026,6.0541357 12.72685,6.5904079 12.750872,7.1181432 L 14.94412,7.1046418 C 14.920936,6.5529983 14.88638,5.9901189 14.846332,5.4303797 z M 11.800931,5.5248942 L 9.24447,5.6059074 C 9.2793634,6.1352059 9.3197666,6.6420173 9.3422581,7.1451479 L 11.870781,7.1316456 C 11.847806,6.599708 11.836139,6.0631592 11.800931,5.5248942 z M 8.3923164,5.6329111 L 5.9336436,5.7004219 C 5.973889,6.2018858 6.0047288,6.682657 6.0314317,7.1586503 L 8.4621651,7.1451479 C 8.4413656,6.6455057 8.4245688,6.138373 8.3923164,5.6329111 z M 5.0116414,5.7274267 L 3.1955763,5.7814351 C 3.2332168,6.2563586 3.2712121,6.7207108 3.2933644,7.1856541 L 5.1094295,7.1721517 C 5.0843997,6.6918091 5.049791,6.2132223 5.0116414,5.7274267 z M 14.95809,7.8202532 L 12.778812,7.8337555 C 12.797896,8.3655537 12.813429,8.901974 12.820721,9.4135022 L 15,9.4270045 C 14.996905,8.8954453 14.974322,8.3581332 14.95809,7.8202532 z M 11.898719,7.8337555 L 9.3701976,7.8472579 C 9.3884283,8.3735673 9.3920628,8.8934545 9.398137,9.3999998 L 11.940628,9.4135022 C 11.933358,8.8908223 11.916695,8.3645525 11.898719,7.8337555 z M 8.4901045,7.8607593 L 6.0733409,7.8742616 C 6.0955284,8.3811204 6.1068606,8.8863598 6.1152501,9.3729961 L 8.5180439,9.3864975 C 8.5123819,8.8827023 8.5062656,8.372421 8.4901045,7.8607593 z M 5.1373689,7.8742616 L 3.3073341,7.887764 C 3.3235851,8.3818459 3.3329987,8.874416 3.3352736,9.3594938 L 5.1792781,9.3729961 C 5.171726,8.8785021 5.1574179,8.3765729 5.1373689,7.8742616 z M 3.3352736,10.061603 C 3.3319347,10.517627 3.3197048,10.975113 3.3073341,11.425316 L 5.1653084,11.492828 C 5.173152,11.025266 5.1812893,10.551761 5.1792781,10.075105 L 3.3352736,10.061603 z M 6.1152501,10.088608 C 6.1173762,10.574719 6.1108702,11.057106 6.1012804,11.533333 L 8.5040742,11.614345 C 8.5121158,11.115924 8.5191029,10.610466 8.5180439,10.10211 L 6.1152501,10.088608 z M 9.398137,10.10211 C 9.3990289,10.61943 9.394056,11.133811 9.3841673,11.641351 L 11.940628,11.735865 C 11.947687,11.201476 11.943563,10.660957 11.940628,10.115612 L 9.398137,10.10211 z M 12.820721,10.129114 C 12.823062,10.679404 12.816059,11.224144 12.806752,11.762869 L 14.97206,11.843882 C 14.985916,11.279898 14.997707,10.712187 15,10.142616 L 12.820721,10.129114 z M 3.2933644,12.140928 C 3.276771,12.598028 3.2598202,13.051241 3.2374854,13.504642 L 5.1094295,13.62616 C 5.1306308,13.160066 5.1385321,12.686086 5.1513386,12.208438 L 3.2933644,12.140928 z M 6.0873107,12.235443 C 6.0723409,12.717119 6.0559081,13.197309 6.0314317,13.680169 L 8.4481952,13.842194 C 8.4684176,13.344203 8.4776935,12.840564 8.4901045,12.329958 L 6.0873107,12.235443 z M 9.3701976,12.356961 C 9.3556073,12.868084 9.3375612,13.38309 9.3143186,13.896202 L 11.884749,14.058227 C 11.904627,13.529605 11.915265,12.993774 11.926659,12.451477 L 9.3701976,12.356961 z M 12.792781,12.478481 C 12.778662,13.022925 12.760462,13.56624 12.736902,14.112236 L 14.888241,14.247257 C 14.914153,13.686381 14.940042,13.124198 14.95809,12.559494 L 12.792781,12.478481 z M 3.1955763,14.220253 C 3.1720068,14.657279 3.1512335,15.09418 3.1257276,15.529958 L 4.9837019,15.718988 C 5.0155783,15.264616 5.0420976,14.81011 5.0675203,14.341772 L 3.1955763,14.220253 z M 5.9895225,14.39578 C 5.9627535,14.851785 5.9246006,15.346509 5.8917344,15.813501 L 8.3364374,16.043038 C 8.366916,15.550186 8.3959962,15.052824 8.4202558,14.544303 L 5.9895225,14.39578 z M 9.2863792,14.611815 C 9.2609976,15.103009 9.2196888,15.633903 9.188591,16.137553 L 11.772991,16.394092 C 11.804488,15.863302 11.832373,15.3222 11.85681,14.77384 L 9.2863792,14.611815 z M 12.708963,14.827848 C 12.682802,15.357727 12.643741,15.931338 12.611176,16.475105 L 14.762514,16.677637 C 14.795864,16.106189 14.831157,15.53641 14.860302,14.962869 L 12.708963,14.827848 z M 3.0838184,16.245569 C 3.0557868,16.721963 3.0261651,17.199197 3,17.676793 L 4.8160651,17.879325 C 4.8592488,17.405908 4.90358,16.914052 4.9417926,16.421096 L 3.0838184,16.245569 z M 5.8498252,16.515612 C 5.8132146,17.007407 5.7788742,17.473439 5.7380673,17.987341 L 8.1827704,18.270886 C 8.2220399,17.77862 8.2596937,17.270962 8.2945283,16.75865 L 5.8498252,16.515612 z M 9.1466818,16.839663 C 9.1134893,17.350385 9.0857658,17.832052 9.0488937,18.365401 L 11.619325,18.662447 C 11.658886,18.151298 11.696374,17.62821 11.731082,17.096203 L 9.1466818,16.839663 z M 12.569266,17.177215 C 12.535989,17.705248 12.508552,18.205404 12.471479,18.756961 L 14.622817,19 C 14.655376,18.460244 14.688231,17.919676 14.720604,17.379747 L 12.569266,17.177215 z "
       id="rect3957" />
    <path
       style="fill:none;fill-opacity:1;fill-rule:evenodd;stroke:url(#linearGradient4826);stroke-width:0.96689123;stroke-linecap:round;stroke-linejoin:round;stroke-miterlimit:4;stroke-dasharray:none;stroke-opacity:1"
       d="M 1.5367344,18.693791 C 1.8387027,13.906765 2.1406711,8.0150408 1.4834459,2.3442561 L 9.5833045,1.4881146 C 11.228349,1.3868505 15.297551,2.9518399 15.125313,4.3327127 C 15.72925,10.169203 15.587146,15.563814 15.018737,20.516544 L 1.5367344,18.693791 z "
       id="path3945"
       sodipodi:nodetypes="cccccc" />
    <path
       style="opacity:0.68200839;fill:black;fill-opacity:0.41630901;stroke:none;stroke-width:1;stroke-linecap:round;stroke-linejoin:round;stroke-miterlimit:4;stroke-dashoffset:0;stroke-opacity:0.26666667"
       d="M 14.829384,3 L 12.63981,3.1633394 C 12.693705,3.736875 12.741233,4.2700782 12.781991,4.8103448 L 15,4.7558983 C 14.950292,4.173033 14.900598,3.5930757 14.829384,3 z M 11.758294,3.217786 L 9.1848339,3.4083491 C 9.2334081,3.9266229 9.2614666,4.4151619 9.298578,4.9056259 L 11.900474,4.8375685 C 11.859424,4.2995449 11.813058,3.7603461 11.758294,3.217786 z M 8.3033173,3.4764064 L 5.7867298,3.6533578 C 5.8394542,4.1267099 5.873567,4.5660246 5.9146918,5.0145188 L 8.4312794,4.9328496 C 8.3945611,4.4469056 8.3519285,3.9662415 8.3033173,3.4764064 z M 4.8483411,3.7214161 L 3,3.8575318 C 3.0527382,4.2726293 3.0885424,4.6759805 3.1279621,5.0825772 L 4.9905213,5.0281307 C 4.9500125,4.5929294 4.9006771,4.1597234 4.8483411,3.7214161 z M 5.0473933,5.7495468 L 3.1990521,5.8039933 C 3.2373616,6.2827685 3.2760322,6.7508867 3.2985782,7.2196008 L 5.1469193,7.205989 C 5.1214447,6.7217506 5.0862209,6.2392823 5.0473933,5.7495468 z M 5.1753553,7.9137931 L 3.3127962,7.927405 C 3.329336,8.4254941 3.3389169,8.922059 3.3412322,9.4110709 L 5.2180095,9.4246828 C 5.210323,8.9261782 5.1957606,8.4201783 5.1753553,7.9137931 z M 3.3412322,10.118875 C 3.337834,10.578597 3.3253867,11.039793 3.3127962,11.493648 L 5.2037915,11.561706 C 5.2117744,11.090353 5.2200564,10.613008 5.2180095,10.132486 L 3.3412322,10.118875 z M 3.2985782,12.215063 C 3.2816899,12.675872 3.2644379,13.132759 3.2417062,13.589837 L 5.1469193,13.712341 C 5.1684976,13.242466 5.1765392,12.764643 5.1895734,12.283121 L 3.2985782,12.215063 z M 3.1990521,14.311252 C 3.1750639,14.751822 3.1539214,15.192268 3.1279621,15.631579 L 5.0189573,15.822141 C 5.0514003,15.364084 5.0783909,14.905893 5.1042654,14.433757 L 3.1990521,14.311252 z M 3.0853081,16.352995 C 3.0567783,16.833252 3.0266302,17.314356 3,17.795826 L 4.8483411,18 C 4.8922924,17.522744 4.9374115,17.026899 4.9763032,16.529945 L 3.0853081,16.352995 z "
       id="path5751"
       sodipodi:nodetypes="cccccccccccccccccccccccccccccccccccccccccccccccccc" />
    <path
       style="fill:url(#linearGradient4940);fill-opacity:1;fill-rule:evenodd;stroke:none;stroke-width:1;stroke-linecap:butt;stroke-linejoin:miter;stroke-miterlimit:4;stroke-dasharray:none;stroke-opacity:1"
       d="M 9.6389407,1.0274347 C 8.5944735,2.6638409 8.9189681,5.1237304 9.9735765,6 C 11.738016,4.0785414 14.080462,3.518996 16.088273,3.8779491 C 15.626882,2.4210196 11.522531,0.76613691 9.6389407,1.0274347 z "
       id="path2037"
       sodipodi:nodetypes="cccc" />
    <g
       id="g9274"
       transform="matrix(0.503334,0,0,0.520684,1.942392,4.04496)">
      <path
         id="path7500"
         d="M 34.89295,22.000002 C 34.89295,28.348005 29.54793,33.500006 22.9621,33.500006 C 16.376271,33.500006 11.031251,28.348005 11.031251,22.000002 C 11.031251,15.652 16.376271,10.499998 22.9621,10.499998 C 29.54793,10.499998 34.89295,15.652 34.89295,22.000002 z "
         style="fill:#b20a0a;fill-opacity:1;stroke:url(#linearGradient3968);stroke-width:1.95337164;stroke-linecap:round;stroke-linejoin:round;stroke-miterlimit:4;stroke-dashoffset:0;stroke-opacity:1" />
      <path
         sodipodi:nodetypes="ccsssscccc"
         id="path8375"
         d="M 21.515667,22.09375 L 19,32.624917 C 19.861491,32.884054 20.623786,32.999999 21.515667,33 C 21.70814,33 21.881746,32.983588 22.071454,32.971147 C 22.081314,32.971774 22.090829,32.970546 22.100707,32.971147 C 22.339409,32.985668 22.578233,33 22.832005,33 C 28.922546,33 33.889243,27.866065 33.889243,23.272406 L 31.198063,22.09375 L 22.832005,22.09375 L 21.515667,22.09375 z "
         style="fill:#d3ca0c;fill-opacity:1;stroke:none;stroke-width:1;stroke-linecap:round;stroke-linejoin:round;stroke-miterlimit:4;stroke-dashoffset:0;stroke-opacity:1" />
      <path
         id="path8382"
         d="M 31.53125,22 C 31.53125,28.072 27.05125,33 21.53125,33 C 16.01125,33 11.53125,28.072 11.53125,22 C 11.53125,15.928 16.01125,11 21.53125,11 C 27.05125,11 31.53125,15.928 31.53125,22 z "
         style="fill:#e70e0e;fill-opacity:1;stroke:none;stroke-width:1.00000024;stroke-linecap:round;stroke-linejoin:round;stroke-miterlimit:4;stroke-dashoffset:0;stroke-opacity:1" />
      <path
         id="path8384"
         d="M 31.489642,22.106382 C 31.489642,28.12605 27.042669,33.011577 21.563363,33.011577 C 20.650145,33.011577 19.876353,32.899659 18.994253,32.639991 L 21.563363,22.106382 L 31.489642,22.106382 z "
         style="opacity:1;fill:#f2e822;fill-opacity:1;stroke:none;stroke-width:1.00000024;stroke-linecap:round;stroke-linejoin:round;stroke-miterlimit:4;stroke-dashoffset:0;stroke-opacity:1" />
      <path
         id="path8386"
         d="M 19.049935,32.699103 C 13.642634,31.119157 10.430004,25.051361 11.878886,19.154916 C 12.603327,16.206694 14.179997,13.966064 16.604024,12.439952 L 21.674721,22.017139 L 19.049935,32.699103 z "
         style="opacity:1;fill:#7ad21f;fill-opacity:1;stroke:none;stroke-width:1.00000024;stroke-linecap:round;stroke-linejoin:round;stroke-miterlimit:4;stroke-dashoffset:0;stroke-opacity:1" />
      <path
         id="path8391"
         d="M 30.909121,22.011654 C 30.909121,28.366085 26.456479,33.523303 20.970188,33.523303 C 15.483897,33.523303 11.031256,28.366085 11.031256,22.011654 C 11.031256,15.657224 15.483897,10.500006 20.970188,10.500006 C 26.456479,10.500006 30.909121,15.657224 30.909121,22.011654 z "
         style="fill:none;fill-opacity:1;stroke:url(#linearGradient5974);stroke-width:1.95337355;stroke-linecap:round;stroke-linejoin:round;stroke-miterlimit:4;stroke-dashoffset:0;stroke-opacity:1" />
      <path
         id="path9290"
         d="M 31,22 C 31,28.072001 26.621361,33 21.226253,33 C 15.831144,33 11.452505,28.072001 11.452505,22 C 11.452505,15.927999 15.831144,11 21.226253,11 C 26.621361,11 31,15.927999 31,22 z "
         style="fill:url(#radialGradient5976);fill-opacity:1;stroke:none;stroke-width:1.00000036;stroke-linecap:round;stroke-linejoin:round;stroke-miterlimit:4;stroke-dashoffset:0;stroke-opacity:1" />
    </g>
  </g>
</svg>
