<?xml version="1.0" encoding="UTF-8" standalone="no"?>
<!-- Created with Inkscape (http://www.inkscape.org/) -->
<svg
   xmlns:dc="http://purl.org/dc/elements/1.1/"
   xmlns:cc="http://web.resource.org/cc/"
   xmlns:rdf="http://www.w3.org/1999/02/22-rdf-syntax-ns#"
   xmlns:svg="http://www.w3.org/2000/svg"
   xmlns="http://www.w3.org/2000/svg"
   xmlns:xlink="http://www.w3.org/1999/xlink"
   xmlns:sodipodi="http://inkscape.sourceforge.net/DTD/sodipodi-0.dtd"
   xmlns:inkscape="http://www.inkscape.org/namespaces/inkscape"
   width="22"
   height="22"
   id="svg2"
   sodipodi:version="0.32"
   inkscape:version="0.43+devel"
   version="1.0"
   sodipodi:docbase="/home/silvestre/Neu/22x22/status"
   sodipodi:docname="dialog-information.svg">
  <defs
     id="defs4">
    <linearGradient
       inkscape:collect="always"
       id="linearGradient7752">
      <stop
         style="stop-color:#000000;stop-opacity:0.36909872"
         offset="0"
         id="stop7754" />
      <stop
         style="stop-color:#000000;stop-opacity:0;"
         offset="1"
         id="stop7756" />
    </linearGradient>
    <linearGradient
       inkscape:collect="always"
       id="linearGradient5996">
      <stop
         style="stop-color:#000000;stop-opacity:0.19313304"
         offset="0"
         id="stop5998" />
      <stop
         style="stop-color:#000000;stop-opacity:0;"
         offset="1"
         id="stop6000" />
    </linearGradient>
    <linearGradient
       inkscape:collect="always"
       id="linearGradient5104">
      <stop
         style="stop-color:#000000;stop-opacity:1;"
         offset="0"
         id="stop5106" />
      <stop
         style="stop-color:#000000;stop-opacity:0;"
         offset="1"
         id="stop5108" />
    </linearGradient>
    <linearGradient
       inkscape:collect="always"
       id="linearGradient4197">
      <stop
         style="stop-color:#ffffff;stop-opacity:1;"
         offset="0"
         id="stop4199" />
      <stop
         style="stop-color:#ffffff;stop-opacity:0;"
         offset="1"
         id="stop4201" />
    </linearGradient>
    <linearGradient
       inkscape:collect="always"
       id="linearGradient4187">
      <stop
         style="stop-color:#ffffff;stop-opacity:1;"
         offset="0"
         id="stop4189" />
      <stop
         style="stop-color:#ffffff;stop-opacity:0.27843139"
         offset="1"
         id="stop4191" />
    </linearGradient>
    <linearGradient
       id="linearGradient4176">
      <stop
         style="stop-color:#51a0f8;stop-opacity:1;"
         offset="0"
         id="stop4178" />
      <stop
         style="stop-color:#0363d0;stop-opacity:1;"
         offset="1"
         id="stop4180" />
    </linearGradient>
    <linearGradient
       inkscape:collect="always"
       xlink:href="#linearGradient4187"
       id="linearGradient4193"
       x1="75.787148"
       y1="3.4719357"
       x2="57.994637"
       y2="98.832764"
       gradientUnits="userSpaceOnUse"
       gradientTransform="matrix(0.169322,0,0,0.189243,9.303181e-2,-2.150613)" />
    <radialGradient
       inkscape:collect="always"
       xlink:href="#linearGradient4197"
       id="radialGradient4203"
       cx="62.970509"
       cy="48.729244"
       fx="62.970509"
       fy="33.755856"
       r="32.085793"
       gradientTransform="matrix(0.186999,0,0,0.140249,-1.775401,-0.334221)"
       gradientUnits="userSpaceOnUse" />
    <radialGradient
       inkscape:collect="always"
       xlink:href="#linearGradient4176"
       id="radialGradient4227"
       gradientUnits="userSpaceOnUse"
       cx="67.655052"
       cy="76.752853"
       fx="67.655052"
       fy="76.752853"
       r="49.918098"
       gradientTransform="matrix(0.205941,0,0,0.216238,-1.125443,-2.097172)" />
    <radialGradient
       inkscape:collect="always"
       xlink:href="#linearGradient5104"
       id="radialGradient5113"
       gradientUnits="userSpaceOnUse"
       gradientTransform="matrix(0.182608,0,0,3.478262e-2,0.913043,16.03476)"
       cx="52.5"
       cy="114"
       fx="50.669872"
       fy="145.41862"
       r="57.5" />
    <linearGradient
       inkscape:collect="always"
       xlink:href="#linearGradient5996"
       id="linearGradient6002"
       x1="17.101027"
       y1="141.30928"
       x2="111.17001"
       y2="86.99852"
       gradientUnits="userSpaceOnUse"
       gradientTransform="matrix(0.170199,0,0,0.189837,0.318523,-1.570198)" />
    <linearGradient
       inkscape:collect="always"
       xlink:href="#linearGradient7752"
       id="linearGradient7758"
       x1="109.38406"
       y1="63.299728"
       x2="66.135506"
       y2="63.299728"
       gradientUnits="userSpaceOnUse"
       gradientTransform="matrix(0.179214,0,0,0.179283,0.55808,-1.458477)" />
  </defs>
  <sodipodi:namedview
     id="base"
     pagecolor="#ffffff"
     bordercolor="#666666"
     borderopacity="1.0"
     inkscape:pageopacity="0.0"
     inkscape:pageshadow="2"
     inkscape:zoom="1"
     inkscape:cx="11"
     inkscape:cy="11"
     inkscape:document-units="px"
     inkscape:current-layer="layer1"
     inkscape:window-width="843"
     inkscape:window-height="556"
     inkscape:window-x="89"
     inkscape:window-y="127"
     showborder="false"
     showgrid="false"
     inkscape:showpageshadow="false"
     width="22px"
     height="22px" />
  <metadata
     id="metadata7">
    <rdf:RDF>
      <cc:Work
         rdf:about="">
        <dc:format>image/svg+xml</dc:format>
        <dc:type
           rdf:resource="http://purl.org/dc/dcmitype/StillImage" />
      </cc:Work>
    </rdf:RDF>
  </metadata>
  <g
     inkscape:label="Capa 1"
     inkscape:groupmode="layer"
     id="layer1">
    <path
       style="fill:url(#linearGradient6002);fill-opacity:1;stroke:none;stroke-width:3.00000095;stroke-linecap:round;stroke-linejoin:miter;stroke-miterlimit:4;stroke-dashoffset:0;stroke-opacity:1"
       d="M 21.615018,19.5 C 20.181183,20.880003 15.157957,22 10.402467,22 C 5.6469768,22 2.951144,20.880003 4.3849806,19.5 C 5.8188192,18.120002 10.842041,17 15.597533,17 C 20.353023,17 23.048858,18.120002 21.615018,19.5 z "
       id="path5119" />
    <path
       style="opacity:0.43096236;fill:url(#radialGradient5113);fill-opacity:1;stroke:none;stroke-width:2;stroke-linecap:round;stroke-linejoin:miter;stroke-miterlimit:4;stroke-dashoffset:0;stroke-opacity:1"
       d="M 21,19.999999 C 21,21.104 16.296,22 10.5,22 C 4.7040002,22 -1.3956392e-16,21.104 -1.3956392e-16,19.999999 C -1.3956392e-16,18.896 4.7040002,18 10.5,18 C 16.296,18 21,18.896 21,19.999999 z "
       id="path4229" />
    <path
       style="fill:url(#radialGradient4227);fill-opacity:1;stroke:#04448c;stroke-width:0.99999994;stroke-linecap:round;stroke-linejoin:miter;stroke-miterlimit:4;stroke-dasharray:none;stroke-dashoffset:0;stroke-opacity:1"
       d="M 20.499999,11.000003 C 20.499999,16.796006 16.019997,21.500006 10.499999,21.500006 C 4.9799997,21.500006 0.49999983,16.796006 0.49999983,11.000003 C 0.49999983,5.2040026 4.9799997,0.50000047 10.499999,0.50000047 C 16.019997,0.50000047 20.499999,5.2040026 20.499999,11.000003 z "
       id="path3305" />
    <path
       style="fill:none;fill-opacity:1;stroke:url(#linearGradient7758);stroke-width:1.99999917;stroke-linecap:round;stroke-linejoin:miter;stroke-miterlimit:4;stroke-dasharray:none;stroke-dashoffset:0;stroke-opacity:1"
       d="M 19.000011,11.000001 C 19.000011,15.968002 15.192009,20.000002 10.500005,20.000002 C 5.8080024,20.000002 1.9999997,15.968002 1.9999997,11.000001 C 1.9999997,6.0319997 5.8080024,1.9999987 10.500005,1.9999987 C 15.192009,1.9999987 19.000011,6.0319997 19.000011,11.000001 z "
       id="path6877" />
    <path
       style="fill:none;fill-opacity:1;stroke:url(#linearGradient4193);stroke-width:0.99999863;stroke-linecap:round;stroke-linejoin:miter;stroke-miterlimit:4;stroke-dasharray:none;stroke-dashoffset:0;stroke-opacity:1"
       d="M 18.499993,10.999998 C 18.499993,16.243996 14.691995,20.499994 9.9999963,20.499994 C 5.3079974,20.499994 1.499999,16.243996 1.499999,10.999998 C 1.499999,5.7559974 5.3079974,1.4999986 9.9999963,1.4999986 C 14.691995,1.4999986 18.499993,5.7559974 18.499993,10.999998 z "
       id="path4185" />
    <path
       style="opacity:0.5690377;fill:url(#radialGradient4203);fill-opacity:1;stroke:none;stroke-width:2;stroke-linecap:round;stroke-linejoin:miter;stroke-miterlimit:4;stroke-dashoffset:0;stroke-opacity:0.27843137"
       d="M 16,6.4999995 C 16,8.9839994 13.312,11 10,11 C 6.6880002,11 4,8.9839994 4,6.4999995 C 4,4.0159996 6.6880002,2 10,2 C 13.312,2 16,4.0159996 16,6.4999995 z "
       id="path4195" />
    <path
       style="font-size:95.01869965px;font-style:italic;font-variant:normal;font-weight:bold;font-stretch:normal;text-align:start;line-height:125%;writing-mode:lr-tb;text-anchor:start;fill:white;fill-opacity:1;stroke:none;stroke-width:1px;stroke-linecap:butt;stroke-linejoin:miter;stroke-opacity:1;font-family:Georgia"
       d="M 10.849139,15.596826 L 10.691092,16.339684 C 10.216949,16.554286 9.8385982,16.716614 9.5560359,16.826667 C 9.2734645,16.942222 8.9454004,17 8.5718399,17 C 7.9971248,17 7.5493281,16.840424 7.2284489,16.521271 C 6.9123563,16.196616 6.7543093,15.786668 6.7543109,15.29143 C 6.7543093,15.098838 6.766283,14.903495 6.7902301,14.705398 C 6.8141755,14.501802 6.8524901,14.273442 6.9051726,14.020319 L 7.4942535,11.610159 C 7.5469343,11.379053 7.5900369,11.161699 7.6235639,10.958096 C 7.6618756,10.749001 7.6810327,10.55916 7.6810356,10.388571 C 7.6810327,10.08043 7.6259565,9.8658273 7.5158056,9.7447618 C 7.4056506,9.6237114 7.194923,9.5631821 6.8836222,9.563175 C 6.7303638,9.5631821 6.5723184,9.5906952 6.4094829,9.6457144 C 6.2514371,9.7007477 6.1149425,9.7530234 6,9.8025395 L 6.158047,9.0596825 C 6.5459763,8.8781039 6.9171446,8.7240303 7.2715526,8.5974607 C 7.6259565,8.4654053 7.9612057,8.3993741 8.2772995,8.3993659 C 8.8472195,8.3993741 9.2854383,8.5589497 9.5919555,8.8780958 C 9.9032532,9.1917542 10.058904,9.6017003 10.058909,10.107937 C 10.058904,10.212494 10.04693,10.396832 10.022988,10.660953 C 10.003827,10.925086 9.9655146,11.167202 9.908046,11.387302 L 9.3189654,13.789207 C 9.2710696,13.981803 9.2279667,14.201908 9.1896558,14.449524 C 9.1513383,14.697145 9.1321808,14.884235 9.1321841,15.010795 C 9.1321808,15.329949 9.1944408,15.547303 9.3189654,15.662858 C 9.4434834,15.778414 9.6589998,15.836192 9.9655175,15.836191 C 10.109192,15.836192 10.272026,15.808679 10.454023,15.753652 C 10.63601,15.693123 10.767716,15.640848 10.849139,15.596826 M 11,5.51873 C 10.999993,5.9369418 10.861105,6.2946132 10.583332,6.5917453 C 10.31034,6.8833966 9.9798806,7.0292156 9.5919555,7.0292065 C 9.2040195,7.0292156 8.8711666,6.8833966 8.5933916,6.5917453 C 8.3156103,6.2946132 8.1767224,5.9369418 8.1767253,5.51873 C 8.1767224,5.1005405 8.3156103,4.7428691 8.5933916,4.4457138 C 8.8711666,4.1485838 9.2040195,4.0000132 9.5919555,4 C 9.9798806,4.0000132 10.31034,4.1485838 10.583332,4.4457138 C 10.861105,4.7428691 10.999993,5.1005405 11,5.51873"
       id="text4205" />
  </g>
</svg>
