<?xml version="1.0" encoding="UTF-8" standalone="no"?>
<!-- Created with Inkscape (http://www.inkscape.org/) -->
<svg
   xmlns:dc="http://purl.org/dc/elements/1.1/"
   xmlns:cc="http://web.resource.org/cc/"
   xmlns:rdf="http://www.w3.org/1999/02/22-rdf-syntax-ns#"
   xmlns:svg="http://www.w3.org/2000/svg"
   xmlns="http://www.w3.org/2000/svg"
   xmlns:xlink="http://www.w3.org/1999/xlink"
   xmlns:sodipodi="http://inkscape.sourceforge.net/DTD/sodipodi-0.dtd"
   xmlns:inkscape="http://www.inkscape.org/namespaces/inkscape"
   width="22"
   height="22"
   id="svg2"
   sodipodi:version="0.32"
   inkscape:version="0.43+devel"
   sodipodi:docbase="/home/silvestre/Neu/22x22/status"
   sodipodi:docname="image-missing.svg"
   version="1.0">
  <defs
     id="defs4">
    <linearGradient
       inkscape:collect="always"
       id="linearGradient4857">
      <stop
         style="stop-color:white;stop-opacity:1;"
         offset="0"
         id="stop4859" />
      <stop
         style="stop-color:white;stop-opacity:0.55793989"
         offset="1"
         id="stop4861" />
    </linearGradient>
    <linearGradient
       inkscape:collect="always"
       id="linearGradient4820">
      <stop
         style="stop-color:white;stop-opacity:1;"
         offset="0"
         id="stop4822" />
      <stop
         style="stop-color:white;stop-opacity:0.57939917"
         offset="1"
         id="stop4824" />
    </linearGradient>
    <linearGradient
       id="linearGradient4957">
      <stop
         id="stop4959"
         offset="0"
         style="stop-color:#ffffff;stop-opacity:1;" />
      <stop
         id="stop4961"
         offset="1.0000000"
         style="stop-color:#d0d0d0;stop-opacity:1" />
    </linearGradient>
    <linearGradient
       inkscape:collect="always"
       id="linearGradient5912">
      <stop
         style="stop-color:#000000;stop-opacity:1;"
         offset="0"
         id="stop5914" />
      <stop
         style="stop-color:#000000;stop-opacity:0;"
         offset="1"
         id="stop5916" />
    </linearGradient>
    <linearGradient
       id="linearGradient5904">
      <stop
         id="stop5906"
         offset="0.0000000"
         style="stop-color:#000000;stop-opacity:0.19791669;" />
      <stop
         id="stop5908"
         offset="1"
         style="stop-color:#000000;stop-opacity:0;" />
    </linearGradient>
    <linearGradient
       id="linearGradient2057">
      <stop
         style="stop-color:#f0f0f0;stop-opacity:1;"
         offset="0"
         id="stop2059" />
      <stop
         style="stop-color:#dddddd;stop-opacity:1.0000000;"
         offset="1.0000000"
         id="stop2061" />
    </linearGradient>
    <linearGradient
       inkscape:collect="always"
       id="linearGradient2049">
      <stop
         style="stop-color:#0a0a0a;stop-opacity:1;"
         offset="0"
         id="stop2051" />
      <stop
         style="stop-color:#0a0a0a;stop-opacity:0;"
         offset="1"
         id="stop2053" />
    </linearGradient>
    <radialGradient
       inkscape:collect="always"
       xlink:href="#linearGradient5904"
       id="radialGradient5902"
       cx="60.502419"
       cy="115.07005"
       fx="60.502419"
       fy="115.07005"
       r="56.111115"
       gradientTransform="matrix(1,0,0,0.213043,2.33754e-16,90.55513)"
       gradientUnits="userSpaceOnUse" />
    <linearGradient
       inkscape:collect="always"
       xlink:href="#linearGradient5912"
       id="linearGradient5918"
       x1="71.236717"
       y1="152.15218"
       x2="88.314011"
       y2="99.212555"
       gradientUnits="userSpaceOnUse"
       gradientTransform="matrix(0.164846,0,0,0.18306,0.455783,-0.806385)" />
    <linearGradient
       inkscape:collect="always"
       xlink:href="#linearGradient4957"
       id="linearGradient4940"
       gradientUnits="userSpaceOnUse"
       x1="81.89402"
       y1="22.461552"
       x2="84.654594"
       y2="10.41062"
       gradientTransform="matrix(0.189485,0,0,0.181772,-2.045585,-0.342705)" />
    <linearGradient
       inkscape:collect="always"
       xlink:href="#linearGradient2049"
       id="linearGradient4943"
       gradientUnits="userSpaceOnUse"
       gradientTransform="matrix(0.178362,0,0,0.183243,-1.738233,-0.173498)"
       x1="69.606209"
       y1="-2.7867124"
       x2="82.63073"
       y2="34.12973" />
    <linearGradient
       inkscape:collect="always"
       xlink:href="#linearGradient2057"
       id="linearGradient4946"
       gradientUnits="userSpaceOnUse"
       x1="57.903072"
       y1="65.225105"
       x2="85.99958"
       y2="114.99323"
       gradientTransform="matrix(0.186908,0,0,0.176486,-2.059288,-0.511355)" />
    <linearGradient
       inkscape:collect="always"
       xlink:href="#linearGradient4820"
       id="linearGradient4826"
       x1="7.9148936"
       y1="3.8297873"
       x2="7.9148936"
       y2="41.371349"
       gradientUnits="userSpaceOnUse"
       gradientTransform="matrix(0.469299,0,0,0.44229,-0.620629,0.385039)" />
    <linearGradient
       id="linearGradient2910"
       inkscape:collect="always">
      <stop
         id="stop2912"
         offset="0"
         style="stop-color:#95a4b8;stop-opacity:1" />
      <stop
         id="stop2914"
         offset="1"
         style="stop-color:#9bb8dd;stop-opacity:1" />
    </linearGradient>
    <linearGradient
       id="linearGradient2922"
       inkscape:collect="always">
      <stop
         id="stop2924"
         offset="0"
         style="stop-color:#ffffff;stop-opacity:0.77999997" />
      <stop
         id="stop2926"
         offset="1"
         style="stop-color:#ffffff;stop-opacity:0;" />
    </linearGradient>
    <linearGradient
       id="linearGradient5114">
      <stop
         id="stop5116"
         offset="0.0000000"
         style="stop-color:#646f4e;stop-opacity:1" />
      <stop
         id="stop5118"
         offset="1.0000000"
         style="stop-color:#576340;stop-opacity:1" />
    </linearGradient>
    <linearGradient
       id="linearGradient2939"
       inkscape:collect="always">
      <stop
         id="stop2941"
         offset="0"
         style="stop-color:#ffffff;stop-opacity:1;" />
      <stop
         id="stop2943"
         offset="1"
         style="stop-color:#ffffff;stop-opacity:0;" />
    </linearGradient>
    <linearGradient
       id="linearGradient2947"
       inkscape:collect="always">
      <stop
         id="stop2949"
         offset="0"
         style="stop-color:#f00000;stop-opacity:1;" />
      <stop
         id="stop2951"
         offset="1"
         style="stop-color:#c50000;stop-opacity:1.0000000" />
    </linearGradient>
    <linearGradient
       id="linearGradient2971"
       inkscape:collect="always">
      <stop
         id="stop2973"
         offset="0"
         style="stop-color:#000000;stop-opacity:0.51599997" />
      <stop
         id="stop2975"
         offset="1"
         style="stop-color:#000000;stop-opacity:0;" />
    </linearGradient>
    <linearGradient
       id="linearGradient2981"
       inkscape:collect="always">
      <stop
         id="stop2983"
         offset="0"
         style="stop-color:#000000;stop-opacity:0.22000000" />
      <stop
         id="stop2985"
         offset="1"
         style="stop-color:#000000;stop-opacity:0;" />
    </linearGradient>
    <radialGradient
       inkscape:collect="always"
       xlink:href="#linearGradient2981"
       id="radialGradient4414"
       gradientUnits="userSpaceOnUse"
       gradientTransform="matrix(1,-3.868399e-17,2.797973e-18,0.140684,1.348067e-13,88.29468)"
       cx="-59.648556"
       cy="102.75"
       fx="-59.648556"
       fy="102.75"
       r="32.080921" />
    <linearGradient
       inkscape:collect="always"
       xlink:href="#linearGradient2922"
       id="linearGradient5305"
       gradientUnits="userSpaceOnUse"
       gradientTransform="matrix(0.162149,0,0,0.174971,0.647745,-0.551622)"
       x1="35.881401"
       y1="56.409702"
       x2="41.574123"
       y2="86.080856" />
    <linearGradient
       inkscape:collect="always"
       xlink:href="#linearGradient5114"
       id="linearGradient5308"
       gradientUnits="userSpaceOnUse"
       gradientTransform="matrix(0.163363,0,0,0.154709,0.712024,0.93546)"
       x1="41.961357"
       y1="69.449272"
       x2="44.40097"
       y2="94.333328" />
    <linearGradient
       inkscape:collect="always"
       xlink:href="#linearGradient2922"
       id="linearGradient5311"
       gradientUnits="userSpaceOnUse"
       gradientTransform="matrix(-0.153928,0,0,0.153842,17.65767,1.526275)"
       x1="35.881401"
       y1="56.409702"
       x2="41.574123"
       y2="86.080856" />
    <linearGradient
       inkscape:collect="always"
       xlink:href="#linearGradient2910"
       id="linearGradient5315"
       gradientUnits="userSpaceOnUse"
       gradientTransform="matrix(0.167547,0,0,0.170202,0.311753,-0.341095)"
       x1="48.792274"
       y1="41.149754"
       x2="49.524158"
       y2="66.033813" />
    <linearGradient
       inkscape:collect="always"
       xlink:href="#linearGradient2939"
       id="linearGradient6192"
       gradientUnits="userSpaceOnUse"
       gradientTransform="matrix(0.372469,0,0,0.363777,40.25229,12.4694)"
       x1="-36.921875"
       y1="9.6603756"
       x2="-39.676552"
       y2="64.862534" />
    <linearGradient
       inkscape:collect="always"
       xlink:href="#linearGradient2947"
       id="linearGradient6195"
       gradientUnits="userSpaceOnUse"
       gradientTransform="matrix(0.365702,0,0,0.356771,40.00244,12.88952)"
       x1="-36.921875"
       y1="53.132072"
       x2="-25.876013"
       y2="85.908356" />
    <linearGradient
       inkscape:collect="always"
       xlink:href="#linearGradient2971"
       id="linearGradient6198"
       gradientUnits="userSpaceOnUse"
       x1="-58.794689"
       y1="134.84071"
       x2="-58.794689"
       y2="86.242599"
       gradientTransform="matrix(0.454931,0,0,0.465251,55.16942,-1.827937)" />
    <linearGradient
       inkscape:collect="always"
       xlink:href="#linearGradient4857"
       id="linearGradient4863"
       x1="22.3867"
       y1="23.747742"
       x2="22.3867"
       y2="42.657837"
       gradientUnits="userSpaceOnUse" />
    <linearGradient
       inkscape:collect="always"
       xlink:href="#linearGradient2971"
       id="linearGradient3994"
       gradientUnits="userSpaceOnUse"
       gradientTransform="matrix(0.454931,0,0,0.465251,55.16942,-1.827937)"
       x1="-58.794689"
       y1="134.84071"
       x2="-58.794689"
       y2="86.242599" />
    <linearGradient
       inkscape:collect="always"
       xlink:href="#linearGradient2947"
       id="linearGradient3996"
       gradientUnits="userSpaceOnUse"
       gradientTransform="matrix(0.365702,0,0,0.356771,40.00244,12.88952)"
       x1="-36.921875"
       y1="53.132072"
       x2="-25.876013"
       y2="85.908356" />
    <linearGradient
       inkscape:collect="always"
       xlink:href="#linearGradient2939"
       id="linearGradient3998"
       gradientUnits="userSpaceOnUse"
       gradientTransform="matrix(0.372469,0,0,0.363777,40.25229,12.4694)"
       x1="-36.921875"
       y1="9.6603756"
       x2="-39.676552"
       y2="64.862534" />
    <radialGradient
       inkscape:collect="always"
       xlink:href="#linearGradient2981"
       id="radialGradient4000"
       gradientUnits="userSpaceOnUse"
       gradientTransform="matrix(1,-5.303951e-17,4.614987e-18,0.140684,1.526697e-13,88.29468)"
       cx="-59.648556"
       cy="102.75"
       fx="-59.648556"
       fy="102.75"
       r="32.080921" />
    <linearGradient
       inkscape:collect="always"
       xlink:href="#linearGradient4857"
       id="linearGradient4002"
       gradientUnits="userSpaceOnUse"
       x1="22.3867"
       y1="23.747742"
       x2="22.3867"
       y2="42.657837" />
    <linearGradient
       inkscape:collect="always"
       xlink:href="#linearGradient4857"
       id="linearGradient4005"
       gradientUnits="userSpaceOnUse"
       x1="22.3867"
       y1="23.747742"
       x2="22.3867"
       y2="42.657837"
       gradientTransform="matrix(0.36652,0,0,0.350504,3.796889,4.612965)" />
    <linearGradient
       inkscape:collect="always"
       xlink:href="#linearGradient2939"
       id="linearGradient4009"
       gradientUnits="userSpaceOnUse"
       gradientTransform="matrix(0.145749,0,0,0.12126,18.88134,8.823131)"
       x1="-36.921875"
       y1="9.6603756"
       x2="-39.676552"
       y2="64.862534" />
    <linearGradient
       inkscape:collect="always"
       xlink:href="#linearGradient2947"
       id="linearGradient4012"
       gradientUnits="userSpaceOnUse"
       gradientTransform="matrix(0.152375,0,0,0.142698,19.126,8.056855)"
       x1="-36.921875"
       y1="53.132072"
       x2="-25.876013"
       y2="85.908356" />
    <linearGradient
       inkscape:collect="always"
       xlink:href="#linearGradient2971"
       id="linearGradient4015"
       gradientUnits="userSpaceOnUse"
       gradientTransform="matrix(0.168435,0,0,0.169289,24.10291,3.869355)"
       x1="-58.794689"
       y1="134.84071"
       x2="-58.794689"
       y2="86.242599" />
    <radialGradient
       inkscape:collect="always"
       xlink:href="#linearGradient2981"
       id="radialGradient4017"
       gradientUnits="userSpaceOnUse"
       gradientTransform="matrix(1,-4.577875e-17,4.277991e-18,0.140684,1.516532e-13,88.29468)"
       cx="-59.648556"
       cy="102.75"
       fx="-59.648556"
       fy="102.75"
       r="32.080921" />
  </defs>
  <sodipodi:namedview
     id="base"
     pagecolor="#ffffff"
     bordercolor="#666666"
     borderopacity="1.0"
     inkscape:pageopacity="0.0"
     inkscape:pageshadow="2"
     inkscape:zoom="1"
     inkscape:cx="11"
     inkscape:cy="11"
     inkscape:document-units="px"
     inkscape:current-layer="layer1"
     inkscape:window-width="843"
     inkscape:window-height="556"
     inkscape:window-x="92"
     inkscape:window-y="69"
     showguides="true"
     inkscape:guide-bbox="true"
     width="22px"
     height="22px"
     showgrid="false"
     showborder="false"
     inkscape:showpageshadow="false" />
  <metadata
     id="metadata7">
    <rdf:RDF>
      <cc:Work
         rdf:about="">
        <dc:format>image/svg+xml</dc:format>
        <dc:type
           rdf:resource="http://purl.org/dc/dcmitype/StillImage" />
      </cc:Work>
    </rdf:RDF>
  </metadata>
  <g
     inkscape:label="Layer 1"
     inkscape:groupmode="layer"
     id="layer1">
    <path
       style="fill:url(#linearGradient5918);fill-opacity:1;fill-rule:evenodd;stroke:none;stroke-width:0.25pt;stroke-linecap:butt;stroke-linejoin:miter;stroke-opacity:1"
       d="M 16.300856,21.553385 L 21.448495,18.337907 L 13.40531,16.640853 L 16.300856,21.553385 z "
       id="path5910" />
    <path
       sodipodi:type="arc"
       style="opacity:1;color:black;fill:url(#radialGradient5902);fill-opacity:1;fill-rule:evenodd;stroke:none;stroke-width:2;stroke-linecap:round;stroke-linejoin:round;marker:none;marker-start:none;marker-mid:none;marker-end:none;stroke-miterlimit:4;stroke-dasharray:none;stroke-dashoffset:0;stroke-opacity:1;visibility:visible;display:inline;overflow:visible"
       id="path5894"
       sodipodi:cx="60.502419"
       sodipodi:cy="115.07005"
       sodipodi:rx="56.111115"
       sodipodi:ry="11.954107"
       d="M 116.61353 115.07005 A 56.111115 11.954107 0 1 1  4.391304,115.07005 A 56.111115 11.954107 0 1 1  116.61353 115.07005 z"
       transform="matrix(0.167234,0,0,0.167688,-0.734375,0.699555)" />
    <path
       style="fill:url(#linearGradient4946);fill-opacity:1;fill-rule:evenodd;stroke:#a0a0a0;stroke-width:1;stroke-linecap:round;stroke-linejoin:round;stroke-miterlimit:4;stroke-dasharray:none;stroke-opacity:1"
       d="M 0.57356922,19.481545 C 0.93898889,14.20439 1.3044086,7.7094294 0.5090834,1.4580303 L 10.310931,0.51423061 C 12.030554,0.40259933 17.017461,2.1278233 17.017461,3.6500797 C 17.748299,10.08415 17.576337,16.0311 16.888487,21.490925 L 0.57356922,19.481545 z "
       id="path1306"
       sodipodi:nodetypes="cccccc" />
    <path
       style="fill:url(#linearGradient5315);fill-opacity:1;fill-rule:evenodd;stroke:#5a7287;stroke-width:1.00000036;stroke-linecap:round;stroke-linejoin:round;stroke-miterlimit:4;stroke-dasharray:none;stroke-opacity:1"
       d="M 3.4999997,16.295842 C 3.8587794,13.25717 3.7554583,10.042951 3.6634986,5.9567475 L 13.963987,5.5000011 C 14.522611,9.1124556 14.835985,13.472314 13.923112,17.499993 L 3.4999997,16.295842 z "
       id="path1455"
       sodipodi:nodetypes="ccccc" />
    <path
       style="fill:#3f511d;fill-opacity:1;fill-rule:evenodd;stroke:none;stroke-width:0.25pt;stroke-linecap:butt;stroke-linejoin:miter;stroke-opacity:1"
       d="M 14.277947,13.148777 C 14.277947,13.148777 11.921526,11.178373 10.823116,11.572454 C 8.4915182,12.40897 4.9869213,15.320109 4.9869213,15.320109 L 5.112857,16.046479 L 13.883645,17.127118 C 14.074538,16.007428 14.312369,14.352914 14.277947,13.148777 z "
       id="path2930"
       sodipodi:nodetypes="cscccc" />
    <path
       style="fill:url(#linearGradient5311);fill-opacity:1;fill-rule:evenodd;stroke:none;stroke-width:0.25pt;stroke-linecap:butt;stroke-linejoin:miter;stroke-opacity:1"
       d="M 14.230777,13.25729 C 14.230777,13.25729 11.896482,11.319605 10.833445,11.743623 C 8.7530839,12.573427 6.9207808,14.86459 6.9207808,14.86459 C 6.9620606,15.097089 8.7418266,13.880432 10.363825,13.783989 C 11.985824,13.687545 12.462184,14.30385 14.071684,15.576946 C 14.171143,14.828298 14.301554,14.341484 14.230777,13.25729 z "
       id="path2932"
       sodipodi:nodetypes="csczcc" />
    <path
       style="fill:url(#linearGradient5308);fill-opacity:1;fill-rule:evenodd;stroke:none;stroke-width:0.25pt;stroke-linecap:butt;stroke-linejoin:miter;stroke-opacity:1"
       d="M 4.2496485,12.576257 C 4.2496485,12.576257 6.7997622,10.641931 7.9654994,11.038232 C 10.440009,11.87946 14,16.278973 14,16.278973 L 13.866347,17 L 4,15.925943 C 4.1560966,14.847124 4.17326,13.711691 4.2496485,12.576257 z "
       id="path2918"
       sodipodi:nodetypes="cscccc" />
    <path
       style="fill:url(#linearGradient5305);fill-opacity:1;fill-rule:evenodd;stroke:none;stroke-width:0.25pt;stroke-linecap:butt;stroke-linejoin:miter;stroke-opacity:1"
       d="M 4.2576593,12.790554 C 4.2576593,12.790554 6.7166209,10.586743 7.8364303,11.068997 C 10.027896,12.012768 11.958057,14.618603 11.958057,14.618603 C 11.914573,14.883034 10.039757,13.499279 8.331132,13.38959 C 6.6225096,13.2799 5.6954577,13.991522 4,15.439467 C 4.1523566,14.267853 4.1831017,14.023653 4.2576593,12.790554 z "
       id="path2920"
       sodipodi:nodetypes="csczcc" />
    <path
       style="fill:url(#linearGradient4943);fill-opacity:1;fill-rule:evenodd;stroke:none;stroke-width:0.25pt;stroke-linecap:butt;stroke-linejoin:miter;stroke-opacity:1"
       d="M 10.646237,2.0371313 C 9.5898427,3.6703469 9.9180433,6.1254391 10.984693,7 C 12.76928,5.0822887 13.969262,4.0812852 16,4.4395392 C 14.917965,2.9222286 12.551336,1.7763429 10.646237,2.0371313 z "
       id="path2039"
       sodipodi:nodetypes="cccc" />
    <path
       style="fill:none;fill-opacity:1;fill-rule:evenodd;stroke:url(#linearGradient4826);stroke-width:0.96689242;stroke-linecap:round;stroke-linejoin:round;stroke-miterlimit:4;stroke-dasharray:none;stroke-opacity:1"
       d="M 1.5405321,18.6938 C 1.8640186,13.90677 2.187505,8.0150418 1.4834462,2.3442527 L 10.1605,1.4881111 C 11.922769,1.3868476 16.28194,2.9518382 16.097429,4.3327115 C 16.744402,10.169206 16.592171,15.563819 15.983256,20.516554 L 1.5405321,18.6938 z "
       id="path3945"
       sodipodi:nodetypes="cccccc" />
    <path
       style="fill:url(#linearGradient4940);fill-opacity:1;fill-rule:evenodd;stroke:none;stroke-width:1;stroke-linecap:butt;stroke-linejoin:miter;stroke-miterlimit:4;stroke-dasharray:none;stroke-opacity:1"
       d="M 10.070254,1.0271615 C 8.9479837,2.6472648 9.2966501,5.0826482 10.429816,5.9501883 C 12.32569,4.0478712 14.842626,3.4939005 17,3.8492787 C 16.50424,2.4068634 12.094153,0.7684664 10.070254,1.0271615 z "
       id="path2037"
       sodipodi:nodetypes="cccc" />
    <path
       style="color:black;fill:url(#linearGradient4015);fill-opacity:1;fill-rule:evenodd;stroke:none;stroke-width:2.31897831;stroke-linecap:round;stroke-linejoin:round;marker:none;marker-start:none;marker-mid:none;marker-end:none;stroke-miterlimit:4;stroke-dasharray:none;stroke-dashoffset:0;stroke-opacity:1;visibility:visible;display:inline;overflow:visible"
       d="M 14.889585,18.470472 C 14.540658,18.47823 14.154871,18.522335 13.779857,18.604143 C 12.779818,18.822297 12.227538,19.226149 12.541143,19.509657 L 13.174488,20.081711 L 10.880452,20.652328 C 9.7427827,20.935834 9.1211959,21.339687 9.4871277,21.557842 C 9.8530607,21.775997 11.063691,21.723489 12.201361,21.439982 L 14.142213,20.955604 L 14.679203,21.439982 C 14.992808,21.723489 16.050814,21.775997 17.050853,21.557842 C 18.050893,21.339687 18.603172,20.935834 18.289567,20.652328 L 17.654133,20.081711 L 19.950258,19.509657 C 21.087926,19.226149 21.709516,18.822297 21.343582,18.604143 C 20.977648,18.385989 19.767018,18.438497 18.629349,18.722003 L 16.684427,19.206381 L 16.151507,18.722003 C 15.955503,18.544812 15.471128,18.457543 14.889585,18.470472 z "
       id="path2969" />
    <path
       style="color:black;fill:url(#linearGradient4012);fill-opacity:1;fill-rule:evenodd;stroke:#9f0000;stroke-width:1.0000006;stroke-linecap:round;stroke-linejoin:round;marker:none;marker-start:none;marker-mid:none;marker-end:none;stroke-miterlimit:4;stroke-dasharray:none;stroke-dashoffset:0;stroke-opacity:1;visibility:visible;display:inline;overflow:visible"
       d="M 10.145346,11.503884 C 9.7501796,11.527951 9.3736981,11.664789 9.0739514,11.918596 C 8.2746293,12.595418 8.3151872,13.848366 9.1644251,14.727944 L 10.878655,16.502737 L 9.1644251,18.27307 C 8.3151872,19.152647 8.2746287,20.405594 9.0739514,21.082417 C 9.8732746,21.759239 11.200806,21.59633 12.050045,20.716755 L 13.497617,19.213977 L 14.949951,20.716755 C 15.79919,21.59633 17.126721,21.759239 17.926045,21.082417 C 18.725367,20.405593 18.684809,19.152647 17.835572,18.27307 L 16.121341,16.502737 L 17.835572,14.727944 C 18.684809,13.848366 18.725367,12.595418 17.926045,11.918596 C 17.126721,11.241774 15.79919,11.404681 14.949951,12.284257 L 13.497617,13.787034 L 12.050045,12.284257 C 11.519271,11.734522 10.803955,11.463771 10.145346,11.503884 z "
       id="rect2206" />
    <path
       style="color:black;fill:url(#linearGradient4009);fill-opacity:1;fill-rule:evenodd;stroke:none;stroke-width:2.99999905;stroke-linecap:round;stroke-linejoin:round;marker:none;marker-start:none;marker-mid:none;marker-end:none;stroke-miterlimit:4;stroke-dasharray:none;stroke-dashoffset:0;stroke-opacity:1;visibility:visible;display:inline;overflow:visible"
       d="M 10.480811,12.003111 C 10.125162,12.022354 9.7863275,12.131765 9.5165547,12.334699 C 8.7971648,12.87586 8.8336658,13.877668 9.5979817,14.580944 L 11.140788,16 C 12.56274,14.66125 14.437261,14.535742 15.859211,16 L 17.402019,14.580944 C 18.166334,13.877668 18.202835,12.87586 17.483446,12.334699 C 16.764054,11.793539 15.569273,11.923792 14.804958,12.627068 L 13.497858,14.20794 L 12.195042,12.627068 C 11.717344,12.187521 11.073559,11.971039 10.480811,12.003111 z "
       id="path2937"
       sodipodi:nodetypes="csccccscccc" />
    <path
       sodipodi:type="arc"
       style="color:black;fill:url(#radialGradient4017);fill-opacity:1;fill-rule:evenodd;stroke:none;stroke-width:2.99999905;stroke-linecap:round;stroke-linejoin:round;marker:none;marker-start:none;marker-mid:none;marker-end:none;stroke-miterlimit:4;stroke-dasharray:none;stroke-dashoffset:0;stroke-opacity:1;visibility:visible;display:inline;overflow:visible"
       id="path2979"
       sodipodi:cx="-59.648556"
       sodipodi:cy="102.75"
       sodipodi:rx="32.080921"
       sodipodi:ry="4.5132852"
       d="M -27.567635 102.75 A 32.080921 4.5132852 0 1 1  -91.729477,102.75 A 32.080921 4.5132852 0 1 1  -27.567635 102.75 z"
       transform="matrix(0.168374,-4.519181e-3,4.496386e-3,0.169228,23.47294,3.564725)" />
    <path
       style="opacity:0.8033473;color:black;fill:none;fill-opacity:1;fill-rule:evenodd;stroke:url(#linearGradient4005);stroke-width:1.00000167;stroke-linecap:round;stroke-linejoin:round;marker:none;marker-start:none;marker-mid:none;marker-end:none;stroke-miterlimit:4;stroke-dasharray:none;stroke-dashoffset:0;stroke-opacity:1;visibility:visible;display:inline;overflow:visible"
       d="M 10.804667,12.502457 C 10.486028,12.52186 10.182453,12.632173 9.9407543,12.836783 C 9.2962239,13.382409 9.7456471,14.166087 10.72387,15.101566 L 12.106131,16.532333 L 10.72387,17.959506 C 9.6795027,18.958239 9.2962235,19.678661 9.9407543,20.224288 C 10.585283,20.769915 11.527173,19.953244 12.340513,19.175444 L 13.507754,17.963965 L 14.678838,19.175444 C 15.579618,20.036863 16.434066,20.769915 17.078596,20.224288 C 17.723125,19.67866 17.186178,18.8739 16.230003,17.959506 L 14.847741,16.532333 L 16.230003,15.101566 C 16.914782,14.392485 17.723125,13.38241 17.078596,12.836783 C 16.434065,12.291157 15.503793,13.020431 14.678838,13.80934 L 13.507754,15.020819 L 12.340513,13.80934 C 11.729343,13.224875 11.335734,12.47012 10.804667,12.502457 z "
       id="path3982"
       sodipodi:nodetypes="cscccscccscccscccc" />
  </g>
</svg>
