<?xml version="1.0" encoding="UTF-8" standalone="no"?>
<!-- Created with Inkscape (http://www.inkscape.org/) -->
<svg
   xmlns:dc="http://purl.org/dc/elements/1.1/"
   xmlns:cc="http://web.resource.org/cc/"
   xmlns:rdf="http://www.w3.org/1999/02/22-rdf-syntax-ns#"
   xmlns:svg="http://www.w3.org/2000/svg"
   xmlns="http://www.w3.org/2000/svg"
   xmlns:xlink="http://www.w3.org/1999/xlink"
   xmlns:sodipodi="http://inkscape.sourceforge.net/DTD/sodipodi-0.dtd"
   xmlns:inkscape="http://www.inkscape.org/namespaces/inkscape"
   width="48px"
   height="48px"
   id="svg3917"
   sodipodi:version="0.32"
   inkscape:version="0.43+devel"
   sodipodi:docbase="/home/silvestre/Desktop/Neu/scalable/apps"
   sodipodi:docname="evolution.svg"
   inkscape:export-filename="/home/silvestre/Desktop/Neu/scalable/apps/evolution.png"
   inkscape:export-xdpi="90"
   inkscape:export-ydpi="90">
  <defs
     id="defs3919">
    <linearGradient
       id="linearGradient4934">
      <stop
         id="stop4938"
         offset="0"
         style="stop-color:#f9f9f9;stop-opacity:1" />
      <stop
         style="stop-color:#c3c3c3;stop-opacity:1"
         offset="1"
         id="stop4940" />
    </linearGradient>
    <linearGradient
       inkscape:collect="always"
       id="linearGradient8448">
      <stop
         style="stop-color:white;stop-opacity:1;"
         offset="0"
         id="stop8450" />
      <stop
         style="stop-color:#cecece;stop-opacity:1"
         offset="1"
         id="stop8452" />
    </linearGradient>
    <linearGradient
       id="linearGradient7493"
       inkscape:collect="always">
      <stop
         id="stop7495"
         offset="0"
         style="stop-color:#9a9a9a;stop-opacity:0.81568629" />
      <stop
         id="stop7497"
         offset="1"
         style="stop-color:#686868;stop-opacity:0;" />
    </linearGradient>
    <linearGradient
       inkscape:collect="always"
       id="linearGradient7463">
      <stop
         style="stop-color:white;stop-opacity:1;"
         offset="0"
         id="stop7465" />
      <stop
         style="stop-color:white;stop-opacity:0;"
         offset="1"
         id="stop7467" />
    </linearGradient>
    <linearGradient
       inkscape:collect="always"
       id="linearGradient6569">
      <stop
         style="stop-color:#fcfcfc;stop-opacity:1;"
         offset="0"
         id="stop6571" />
      <stop
         style="stop-color:#c4c4c4;stop-opacity:1"
         offset="1"
         id="stop6573" />
    </linearGradient>
    <linearGradient
       inkscape:collect="always"
       id="linearGradient6557">
      <stop
         style="stop-color:#e6e6e6;stop-opacity:1;"
         offset="0"
         id="stop6559" />
      <stop
         style="stop-color:#cacaca;stop-opacity:1"
         offset="1"
         id="stop6561" />
    </linearGradient>
    <linearGradient
       inkscape:collect="always"
       id="linearGradient6549">
      <stop
         style="stop-color:#f5f5f5;stop-opacity:1;"
         offset="0"
         id="stop6551" />
      <stop
         style="stop-color:#e6e6e6;stop-opacity:1"
         offset="1"
         id="stop6553" />
    </linearGradient>
    <linearGradient
       inkscape:collect="always"
       xlink:href="#linearGradient7493"
       id="linearGradient7538"
       gradientUnits="userSpaceOnUse"
       x1="12.639534"
       y1="34.123028"
       x2="6.4523492"
       y2="39.603107" />
    <linearGradient
       inkscape:collect="always"
       xlink:href="#linearGradient7463"
       id="linearGradient7540"
       gradientUnits="userSpaceOnUse"
       x1="12.948893"
       y1="35.404659"
       x2="7.601398"
       y2="40.486992" />
    <linearGradient
       inkscape:collect="always"
       xlink:href="#linearGradient7493"
       id="linearGradient7542"
       gradientUnits="userSpaceOnUse"
       x1="12.639534"
       y1="34.123028"
       x2="6.4523492"
       y2="39.603107" />
    <linearGradient
       inkscape:collect="always"
       xlink:href="#linearGradient7463"
       id="linearGradient7544"
       gradientUnits="userSpaceOnUse"
       x1="12.948893"
       y1="35.404659"
       x2="7.601398"
       y2="40.486992" />
    <linearGradient
       inkscape:collect="always"
       xlink:href="#linearGradient6549"
       id="linearGradient7555"
       gradientUnits="userSpaceOnUse"
       x1="13.75"
       y1="33.625"
       x2="13.75"
       y2="44.502872"
       gradientTransform="matrix(0.953212,0,0,1,8.208847e-2,0)" />
    <linearGradient
       inkscape:collect="always"
       xlink:href="#linearGradient6557"
       id="linearGradient7561"
       gradientUnits="userSpaceOnUse"
       gradientTransform="matrix(1.02464,0,0,0.994048,-9.648473e-2,0.270811)"
       x1="21.655146"
       y1="7.9600782"
       x2="21.655146"
       y2="20.101498" />
    <linearGradient
       inkscape:collect="always"
       xlink:href="#linearGradient8448"
       id="linearGradient8454"
       x1="33.872341"
       y1="13.361703"
       x2="33.872341"
       y2="25.492441"
       gradientUnits="userSpaceOnUse" />
    <linearGradient
       inkscape:collect="always"
       xlink:href="#linearGradient6569"
       id="linearGradient8456"
       gradientUnits="userSpaceOnUse"
       gradientTransform="matrix(0.87501,-0.245431,0.246258,0.962063,0.236188,-5.708788e-8)"
       x1="16.202868"
       y1="30.872061"
       x2="14.022277"
       y2="38.620178" />
    <linearGradient
       gradientUnits="userSpaceOnUse"
       y2="21.705061"
       x2="83.525612"
       y1="367.82727"
       x1="29.183714"
       id="linearGradient6540"
       xlink:href="#linearGradient6534"
       inkscape:collect="always" />
    <radialGradient
       gradientUnits="userSpaceOnUse"
       gradientTransform="matrix(0.91358,2.206993e-7,-4.100829e-8,0.169753,4.848958,95.59596)"
       r="54.105412"
       fy="136.4689"
       fx="56.109314"
       cy="115.14162"
       cx="56.109314"
       id="radialGradient6525"
       xlink:href="#linearGradient6519"
       inkscape:collect="always" />
    <linearGradient
       id="linearGradient4308">
      <stop
         id="stop4310"
         offset="0.0000000"
         style="stop-color:#ffffff;stop-opacity:0.22916669;" />
      <stop
         id="stop4312"
         offset="1"
         style="stop-color:#ffffff;stop-opacity:0;" />
    </linearGradient>
    <linearGradient
       id="linearGradient5044"
       inkscape:collect="always">
      <stop
         id="stop5046"
         offset="0"
         style="stop-color:#ffffff;stop-opacity:1;" />
      <stop
         id="stop5048"
         offset="1"
         style="stop-color:#ffffff;stop-opacity:0;" />
    </linearGradient>
    <linearGradient
       id="linearGradient6519"
       inkscape:collect="always">
      <stop
         id="stop6521"
         offset="0"
         style="stop-color:black;stop-opacity:0.39215687" />
      <stop
         id="stop6523"
         offset="1"
         style="stop-color:#000000;stop-opacity:0;" />
    </linearGradient>
    <linearGradient
       id="linearGradient6534"
       inkscape:collect="always">
      <stop
         id="stop6536"
         offset="0"
         style="stop-color:#000000;stop-opacity:0.39600000" />
      <stop
         id="stop6538"
         offset="1"
         style="stop-color:#000000;stop-opacity:0;" />
    </linearGradient>
    <linearGradient
       id="linearGradient4206"
       inkscape:collect="always">
      <stop
         id="stop4208"
         offset="0"
         style="stop-color:#ffffff;stop-opacity:1;" />
      <stop
         id="stop4210"
         offset="1"
         style="stop-color:#ffffff;stop-opacity:0.36909872" />
    </linearGradient>
    <linearGradient
       inkscape:collect="always"
       xlink:href="#linearGradient4206"
       id="linearGradient5825"
       gradientUnits="userSpaceOnUse"
       x1="59.64286"
       y1="14.832381"
       x2="59.64286"
       y2="121.82737"
       gradientTransform="matrix(0.159453,0,0,0.159453,-0.232214,25.20293)" />
    <linearGradient
       inkscape:collect="always"
       xlink:href="#linearGradient5044"
       id="linearGradient5827"
       gradientUnits="userSpaceOnUse"
       gradientTransform="matrix(0.165836,0,0,0.190016,2.349941e-2,24.5319)"
       x1="70.848709"
       y1="-18.184502"
       x2="67.070114"
       y2="69.195572" />
    <radialGradient
       inkscape:collect="always"
       xlink:href="#linearGradient4308"
       id="radialGradient5829"
       gradientUnits="userSpaceOnUse"
       gradientTransform="matrix(0.173365,-4.413052e-2,4.637462e-2,0.164418,-6.740613,29.25584)"
       cx="83.842957"
       cy="105.0536"
       fx="83.842957"
       fy="105.0536"
       r="56.442806" />
    <radialGradient
       inkscape:collect="always"
       xlink:href="#linearGradient4934"
       id="radialGradient5831"
       gradientUnits="userSpaceOnUse"
       gradientTransform="matrix(0.196918,9.461918e-17,-9.903634e-17,0.198261,-2.514796,22.68263)"
       cx="77.420738"
       cy="82.518806"
       fx="77.420738"
       fy="82.518806"
       r="56.442806" />
  </defs>
  <sodipodi:namedview
     id="base"
     pagecolor="#ffffff"
     bordercolor="#666666"
     borderopacity="1.0"
     inkscape:pageopacity="0.0"
     inkscape:pageshadow="2"
     inkscape:zoom="1"
     inkscape:cx="24"
     inkscape:cy="24"
     inkscape:current-layer="layer1"
     showgrid="false"
     inkscape:grid-bbox="true"
     inkscape:document-units="px"
     inkscape:window-width="823"
     inkscape:window-height="536"
     inkscape:window-x="5"
     inkscape:window-y="66"
     inkscape:showpageshadow="false"
     showborder="false" />
  <metadata
     id="metadata3922">
    <rdf:RDF>
      <cc:Work
         rdf:about="">
        <dc:format>image/svg+xml</dc:format>
        <dc:type
           rdf:resource="http://purl.org/dc/dcmitype/StillImage" />
      </cc:Work>
    </rdf:RDF>
  </metadata>
  <g
     id="layer1"
     inkscape:label="Layer 1"
     inkscape:groupmode="layer">
    <path
       style="fill:url(#linearGradient7561);fill-opacity:1;stroke:#bebebe;stroke-width:1.00000036;stroke-linecap:round;stroke-linejoin:round;stroke-miterlimit:4;stroke-dashoffset:0;stroke-opacity:1"
       d="M 2.4651161,17.666656 C 2.4651161,17.666656 18.654739,1.5000001 23.982569,1.5000001 C 29.491431,1.5000001 45.50002,17.666656 45.50002,17.666656 L 45.50002,43.776608 L 42.520506,45.500012 L 2.4651161,42.308523 L 2.4651161,17.666656 z "
       id="path5674"
       sodipodi:nodetypes="czccccc" />
    <path
       style="fill:url(#linearGradient8456);fill-opacity:1;stroke:#c6c6c6;stroke-width:1;stroke-linecap:round;stroke-linejoin:round;stroke-miterlimit:4;stroke-dashoffset:0;stroke-opacity:1"
       d="M 3.3953316,20.935076 L 33.468134,12.499987 L 39.500025,36.064921 L 9.4272224,42.031924 L 3.3953316,20.935076 z "
       id="rect6567"
       sodipodi:nodetypes="ccccc" />
    <path
       style="fill:url(#linearGradient7555);fill-opacity:1;stroke:#bebebe;stroke-width:1.00000072;stroke-linecap:round;stroke-linejoin:round;stroke-miterlimit:4;stroke-dashoffset:0;stroke-opacity:1"
       d="M 2.4651177,18.171482 C 2.4651177,17.423073 4.1900548,17.192726 5.1118011,18.171482 C 9.0354466,22.341089 12.229746,30.055122 15.241463,31.879287 C 19.05685,34.190227 25.55437,33.991136 29.041056,31.879287 C 32.249139,29.936185 35.405099,22.876998 39.833041,18.171482 C 40.700603,17.250261 42.500017,17.302446 42.500017,18.171482 L 42.500017,45.500004 L 2.4651177,42.351068 L 2.4651177,18.171482 z "
       id="rect3925"
       sodipodi:nodetypes="ccssccccc" />
    <path
       style="fill:none;fill-opacity:1;stroke:white;stroke-width:1;stroke-linecap:round;stroke-linejoin:round;stroke-miterlimit:4;stroke-dasharray:none;stroke-dashoffset:0;stroke-opacity:1"
       d="M 3.395347,19.12352 C 3.395347,18.428568 4.0845015,18.464675 4.9618063,19.37352 C 8.6962763,23.245299 11.97472,31.283332 14.841228,32.9772 C 18.47266,35.123074 26.085832,34.938204 29.40441,32.9772 C 32.457817,31.172891 35.759308,24.180429 39.973761,19.81102 C 40.799493,18.9556 41.499994,18.316557 41.499994,19.12352 L 41.499994,44.500013 L 3.395347,41.436183 L 3.395347,19.12352 z "
       id="path6565"
       sodipodi:nodetypes="ccssccccc" />
    <path
       style="fill:none;fill-opacity:1;stroke:white;stroke-width:1.00000012;stroke-linecap:round;stroke-linejoin:round;stroke-miterlimit:4;stroke-dashoffset:0;stroke-opacity:1"
       d="M 3.3953466,17.931804 C 3.4162732,18.130607 17.963593,4.032047 23.154777,2.5441943 C 28.032521,2.5441943 41.499994,17.931804 41.499994,17.931804 L 41.499994,44.500002 L 3.3953466,41.436172 L 3.3953466,17.931804 z "
       id="path6582"
       sodipodi:nodetypes="cccccc" />
    <g
       id="g7479"
       transform="matrix(0.930232,0,0,1,0.139535,0)">
      <path
         id="path6586"
         d="M 6,41 L 15,32"
         style="fill:none;fill-opacity:1;fill-rule:evenodd;stroke:url(#linearGradient7538);stroke-width:1.0368222px;stroke-linecap:butt;stroke-linejoin:miter;stroke-opacity:1" />
      <path
         id="path6588"
         d="M 6.9419417,41.5 L 15.941942,32.5"
         style="fill:none;fill-opacity:1;fill-rule:evenodd;stroke:url(#linearGradient7540);stroke-width:1.0368222px;stroke-linecap:butt;stroke-linejoin:miter;stroke-opacity:1" />
    </g>
    <g
       id="g7483"
       transform="matrix(-0.930232,0,0,1,44.97047,0)">
      <path
         id="path7485"
         d="M 6,41 L 15,32"
         style="fill:none;fill-opacity:1;fill-rule:evenodd;stroke:url(#linearGradient7542);stroke-width:1.0368222px;stroke-linecap:butt;stroke-linejoin:miter;stroke-opacity:1" />
      <path
         id="path7487"
         d="M 6.9419417,41.5 L 15.941942,32.5"
         style="fill:none;fill-opacity:1;fill-rule:evenodd;stroke:url(#linearGradient7544);stroke-width:1.0368222px;stroke-linecap:butt;stroke-linejoin:miter;stroke-opacity:1" />
    </g>
    <path
       style="fill:url(#linearGradient8454);fill-opacity:1.0;stroke:none;stroke-width:1.00000036;stroke-linecap:round;stroke-linejoin:round;stroke-miterlimit:4;stroke-dashoffset:0;stroke-opacity:1;opacity:1"
       d="M 24,2 C 23.410136,2 22.66791,2.2019884 21.84375,2.5625 C 22.080153,2.5094367 22.296677,2.5 22.5,2.5 C 27.492357,2.4999999 42,18.09375 42,18.09375 L 42,44.957446 L 42.326738,45.055334 L 45,43.468085 L 45,17.8125 C 45,17.8125 29.376384,2 24,2 z "
       id="path7564"
       sodipodi:nodetypes="ccscccccc" />
    <path
       sodipodi:type="arc"
       style="color:black;fill:url(#linearGradient6540);fill-opacity:1;fill-rule:evenodd;stroke:none;stroke-width:3;stroke-linecap:round;stroke-linejoin:round;marker:none;marker-start:none;marker-mid:none;marker-end:none;stroke-miterlimit:4;stroke-dasharray:none;stroke-dashoffset:0;stroke-opacity:1;visibility:visible;display:inline;overflow:visible"
       id="path6532"
       sodipodi:cx="67.306274"
       sodipodi:cy="70.848709"
       sodipodi:rx="56.442806"
       sodipodi:ry="56.442806"
       d="M 123.74908 70.848709 A 56.442806 56.442806 0 1 1  10.863468,70.848709 A 56.442806 56.442806 0 1 1  123.74908 70.848709 z"
       transform="matrix(0.171571,0,-4.642352e-2,5.253137e-2,4.707049,39.83061)" />
    <path
       sodipodi:type="arc"
       style="color:black;fill:url(#radialGradient6525);fill-opacity:1;fill-rule:evenodd;stroke:none;stroke-width:3;stroke-linecap:round;stroke-linejoin:round;marker:none;marker-start:none;marker-mid:none;marker-end:none;stroke-miterlimit:4;stroke-dasharray:none;stroke-dashoffset:0;stroke-opacity:1;visibility:visible;display:inline;overflow:visible"
       id="path5065"
       sodipodi:cx="56.109314"
       sodipodi:cy="115.14162"
       sodipodi:rx="54.105412"
       sodipodi:ry="9.1845608"
       d="M 110.21473 115.14162 A 54.105412 9.1845608 0 1 1  2.0039024,115.14162 A 54.105412 9.1845608 0 1 1  110.21473 115.14162 z"
       transform="matrix(0.18598,0,0,0.269023,-0.372685,14.55339)" />
    <path
       style="color:black;fill:url(#radialGradient5831);fill-opacity:1;fill-rule:evenodd;stroke:#a4a4a4;stroke-width:0.99999928;stroke-linecap:round;stroke-linejoin:round;marker:none;marker-start:none;marker-mid:none;marker-end:none;stroke-miterlimit:4;stroke-dashoffset:0;stroke-opacity:1;visibility:visible;display:inline;overflow:visible"
       d="M 20.364595,36.500027 C 20.364595,42.020043 15.914926,46.500056 10.432298,46.500056 C 4.9496704,46.500056 0.50000133,42.020043 0.50000133,36.500027 C 0.50000133,30.980011 4.9496704,26.499998 10.432298,26.499998 C 15.914926,26.499998 20.364595,30.980011 20.364595,36.500027 z "
       id="path1359" />
    <path
       style="color:black;fill:url(#radialGradient5829);fill-opacity:1;fill-rule:evenodd;stroke:none;stroke-width:3;stroke-linecap:round;stroke-linejoin:round;marker:none;marker-start:none;marker-mid:none;marker-end:none;stroke-miterlimit:4;stroke-dashoffset:0;stroke-opacity:1;visibility:visible;display:inline;overflow:visible"
       d="M 19.999995,36.500028 C 19.999995,41.744043 15.734663,46.000056 10.479166,46.000056 C 5.223668,46.000056 0.95833665,41.744043 0.95833665,36.500028 C 0.95833665,31.256012 5.223668,27 10.479166,27 C 15.734663,27 19.999995,31.256012 19.999995,36.500028 z "
       id="path2854" />
    <path
       style="opacity:0.68619247;color:black;fill:url(#linearGradient5827);fill-opacity:1;fill-rule:evenodd;stroke:none;stroke-width:3;stroke-linecap:round;stroke-linejoin:round;marker:none;marker-start:none;marker-mid:none;marker-end:none;stroke-miterlimit:4;stroke-dashoffset:0;stroke-opacity:1;visibility:visible;display:inline;overflow:visible"
       d="M 18,32.699067 C 18,35.844953 14.64,38.398136 10.5,38.398136 C 6.3599996,38.398136 3,35.844953 3,32.699067 C 3,30.240305 6.675705,27 10.5,27 C 14.775417,27 18,30.382861 18,32.699067 z "
       id="path4316" />
    <path
       style="color:black;fill:none;fill-opacity:1;fill-rule:evenodd;stroke:url(#linearGradient5825);stroke-width:0.99999505;stroke-linecap:round;stroke-linejoin:round;marker:none;marker-start:none;marker-mid:none;marker-end:none;stroke-miterlimit:4;stroke-dashoffset:0;stroke-opacity:0.79399139;visibility:visible;display:inline;overflow:visible"
       d="M 19.499948,36.499969 C 19.499948,41.467956 15.467959,45.499945 10.499973,45.499945 C 5.5319872,45.499945 1.4999986,41.467956 1.4999986,36.499969 C 1.4999986,31.531983 5.5319872,27.499994 10.499973,27.499994 C 15.467959,27.499994 19.499948,31.531983 19.499948,36.499969 z "
       id="path3331" />
    <path
       style="opacity:0.68619247;fill:#696969;fill-opacity:0.63090128;stroke:none;stroke-width:1;stroke-linecap:round;stroke-linejoin:round;stroke-miterlimit:4;stroke-dasharray:none;stroke-dashoffset:0;stroke-opacity:1"
       d="M 10,29 L 10,31.125 L 11.0625,31.125 L 11.0625,29 L 10,29 z M 3,35.9375 L 3,37 L 5.0625,37 L 5.0625,35.9375 L 3,35.9375 z M 16,35.9375 L 16,37 L 18,37 L 18,35.9375 L 16,35.9375 z M 10,42 L 10,44 L 11.0625,44 L 11.0625,42 L 10,42 z "
       id="rect5821"
       sodipodi:nodetypes="cccccccccccccccccccc" />
    <path
       style="opacity:0.68619247;fill:#696969;fill-opacity:1;stroke:none;stroke-width:1;stroke-linecap:round;stroke-linejoin:round;stroke-miterlimit:4;stroke-dasharray:none;stroke-dashoffset:0;stroke-opacity:1"
       d="M 13.816987,29.754809 L 13.316987,30.620835 L 14.237139,31.152085 L 14.737139,30.286059 L 13.816987,29.754809 z M 4.2860595,32.262861 L 3.7548095,33.183013 L 4.6208349,33.683013 L 5.1520849,32.762861 L 4.2860595,32.262861 z M 16.410415,39.262861 L 15.879165,40.183013 L 16.745191,40.683013 L 17.276441,39.762861 L 16.410415,39.262861 z M 6.8169873,41.879165 L 6.3169873,42.745191 L 7.2371393,43.276441 L 7.7371393,42.410415 L 6.8169873,41.879165 z "
       id="rect5837" />
    <path
       style="opacity:0.68619247;fill:#696969;fill-opacity:1;stroke:none;stroke-width:1;stroke-linecap:round;stroke-linejoin:round;stroke-miterlimit:4;stroke-dasharray:none;stroke-dashoffset:0;stroke-opacity:1"
       d="M 6.3169873,30.254809 L 6.8169873,31.120835 L 7.7371393,30.589585 L 7.2371393,29.723559 L 6.3169873,30.254809 z M 3.7235595,39.762861 L 4.2548095,40.683013 L 5.1208349,40.183013 L 4.5895849,39.262861 L 3.7235595,39.762861 z M 15.847915,32.762861 L 16.379165,33.683013 L 17.245191,33.183013 L 16.713941,32.262861 L 15.847915,32.762861 z M 13.316987,42.379165 L 13.816987,43.245191 L 14.737139,42.713941 L 14.237139,41.847915 L 13.316987,42.379165 z "
       id="path5847" />
    <path
       style="opacity:0.96610879;fill:#414141;fill-opacity:1;stroke:none;stroke-width:1;stroke-linecap:round;stroke-linejoin:round;stroke-miterlimit:4;stroke-dashoffset:0;stroke-opacity:1"
       d="M 10,32 L 10,36.21875 L 7.625,40.34375 L 8.5,40.84375 L 10.71875,37 L 11,36.5 L 11,32 L 10,32 z "
       id="rect5849"
       sodipodi:nodetypes="cccccccc" />
  </g>
</svg>
