<?xml version="1.0" encoding="UTF-8" standalone="no"?>
<!-- Created with Inkscape (http://www.inkscape.org/) -->
<svg
   xmlns:dc="http://purl.org/dc/elements/1.1/"
   xmlns:cc="http://web.resource.org/cc/"
   xmlns:rdf="http://www.w3.org/1999/02/22-rdf-syntax-ns#"
   xmlns:svg="http://www.w3.org/2000/svg"
   xmlns="http://www.w3.org/2000/svg"
   xmlns:xlink="http://www.w3.org/1999/xlink"
   xmlns:sodipodi="http://inkscape.sourceforge.net/DTD/sodipodi-0.dtd"
   xmlns:inkscape="http://www.inkscape.org/namespaces/inkscape"
   width="48"
   height="48"
   id="svg2"
   sodipodi:version="0.32"
   inkscape:version="0.43+devel"
   version="1.0"
   sodipodi:docbase="/home/silvestre/Desktop/Neu/scalable/apps"
   sodipodi:docname="gthumb.svg">
  <defs
     id="defs4">
    <linearGradient
       inkscape:collect="always"
       id="linearGradient5717">
      <stop
         style="stop-color:white;stop-opacity:0.5965665"
         offset="0"
         id="stop5719" />
      <stop
         style="stop-color:white;stop-opacity:0;"
         offset="1"
         id="stop5721" />
    </linearGradient>
    <linearGradient
       inkscape:collect="always"
       id="linearGradient12774">
      <stop
         style="stop-color:black;stop-opacity:1;"
         offset="0"
         id="stop12776" />
      <stop
         style="stop-color:black;stop-opacity:0;"
         offset="1"
         id="stop12778" />
    </linearGradient>
    <linearGradient
       inkscape:collect="always"
       id="linearGradient9255">
      <stop
         style="stop-color:black;stop-opacity:1;"
         offset="0"
         id="stop9257" />
      <stop
         style="stop-color:black;stop-opacity:0;"
         offset="1"
         id="stop9259" />
    </linearGradient>
    <linearGradient
       inkscape:collect="always"
       id="linearGradient8370">
      <stop
         style="stop-color:black;stop-opacity:0.65665233"
         offset="0"
         id="stop8372" />
      <stop
         style="stop-color:black;stop-opacity:0;"
         offset="1"
         id="stop8374" />
    </linearGradient>
    <linearGradient
       inkscape:collect="always"
       id="linearGradient8357">
      <stop
         style="stop-color:#f2f2f2;stop-opacity:1"
         offset="0"
         id="stop8359" />
      <stop
         style="stop-color:#ddd;stop-opacity:1"
         offset="1"
         id="stop8361" />
    </linearGradient>
    <linearGradient
       inkscape:collect="always"
       xlink:href="#linearGradient8370"
       id="linearGradient8376"
       x1="45.377316"
       y1="17.625"
       x2="41.248108"
       y2="17.625"
       gradientUnits="userSpaceOnUse"
       gradientTransform="translate(-0.98099,1.000026)" />
    <linearGradient
       inkscape:collect="always"
       xlink:href="#linearGradient8357"
       id="linearGradient8378"
       gradientUnits="userSpaceOnUse"
       x1="28.637825"
       y1="11.584001"
       x2="40.128311"
       y2="39.072777"
       gradientTransform="translate(-0.98099,1.000026)" />
    <radialGradient
       inkscape:collect="always"
       xlink:href="#linearGradient9255"
       id="radialGradient11017"
       gradientUnits="userSpaceOnUse"
       gradientTransform="matrix(1,-3.996301e-18,-8.497435e-20,0.132,-1.138891e-17,36.74427)"
       cx="23.822878"
       cy="42.332104"
       fx="23.822878"
       fy="42.332104"
       r="22.140221" />
    <radialGradient
       inkscape:collect="always"
       xlink:href="#linearGradient9255"
       id="radialGradient11019"
       gradientUnits="userSpaceOnUse"
       gradientTransform="matrix(1,-2.500441e-18,-5.500971e-20,0.132,-1.661386e-17,36.74427)"
       cx="23.822878"
       cy="42.332104"
       fx="23.822878"
       fy="42.332104"
       r="22.140221" />
    <radialGradient
       inkscape:collect="always"
       xlink:href="#linearGradient9255"
       id="radialGradient11024"
       gradientUnits="userSpaceOnUse"
       gradientTransform="matrix(0.609739,3.230488e-2,-3.637986e-3,0.149264,18.12827,35.41174)"
       cx="23.822878"
       cy="42.332104"
       fx="16.153006"
       fy="43.9921"
       r="22.140221" />
    <linearGradient
       inkscape:collect="always"
       xlink:href="#linearGradient12774"
       id="linearGradient12780"
       x1="44.318668"
       y1="44.026615"
       x2="44.318668"
       y2="37.918137"
       gradientUnits="userSpaceOnUse" />
    <linearGradient
       inkscape:collect="always"
       xlink:href="#linearGradient5717"
       id="linearGradient5723"
       x1="19.660517"
       y1="6.463141"
       x2="19.660517"
       y2="26.035271"
       gradientUnits="userSpaceOnUse" />
    <linearGradient
       gradientUnits="userSpaceOnUse"
       y2="6.0857162"
       x2="-14.412678"
       y1="15.501576"
       x1="-14.412675"
       id="linearGradient7488"
       xlink:href="#linearGradient7482"
       inkscape:collect="always" />
    <linearGradient
       y2="14.346088"
       x2="7.3838892"
       y1="3.7911859"
       x1="2.939218"
       gradientTransform="matrix(0.730893,-0.763059,0.730893,0.763059,-3.468388,9.209588)"
       gradientUnits="userSpaceOnUse"
       id="linearGradient6605"
       xlink:href="#linearGradient2912"
       inkscape:collect="always" />
    <linearGradient
       y2="14.346088"
       x2="7.3838892"
       y1="3.7911859"
       x1="2.939218"
       gradientTransform="matrix(0.852598,-0.827227,0.852598,0.827227,-4.532128,9.571696)"
       gradientUnits="userSpaceOnUse"
       id="linearGradient5727"
       xlink:href="#linearGradient8363"
       inkscape:collect="always" />
    <radialGradient
       r="6.1843319"
       fy="10.198135"
       fx="-13.583885"
       cy="10.198135"
       cx="-13.583885"
       gradientTransform="matrix(1.227473,5.846235e-16,2.048754e-16,1.227473,3.136218,-2.253726)"
       gradientUnits="userSpaceOnUse"
       id="radialGradient3969"
       xlink:href="#linearGradient3839"
       inkscape:collect="always" />
    <radialGradient
       r="4.372983"
       fy="5.0098858"
       fx="-5.3766184"
       cy="5.0098858"
       cx="-5.3766184"
       gradientTransform="matrix(1,1.961866e-16,3.584479e-16,0.803279,-8.83405e-15,0.985551)"
       gradientUnits="userSpaceOnUse"
       id="radialGradient3967"
       xlink:href="#linearGradient3853"
       inkscape:collect="always" />
    <radialGradient
       r="4.372983"
       fy="5.0098858"
       fx="-5.3766184"
       cy="5.0098858"
       cx="-5.3766184"
       gradientTransform="matrix(1,-3.773699e-16,2.101957e-16,0.803279,9.303624e-15,0.985551)"
       gradientUnits="userSpaceOnUse"
       id="radialGradient3965"
       xlink:href="#linearGradient3853"
       inkscape:collect="always" />
    <linearGradient
       y2="20.073732"
       x2="10.793779"
       y1="20.073732"
       x1="6.6440091"
       gradientTransform="matrix(0.836336,-0.785794,0.836336,0.785794,-6.582601,8.85093)"
       gradientUnits="userSpaceOnUse"
       id="linearGradient3963"
       xlink:href="#linearGradient3821"
       inkscape:collect="always" />
    <linearGradient
       y2="17.483641"
       x2="10.358043"
       y1="17.483641"
       x1="6.9188247"
       gradientTransform="matrix(1.176616,-1.188767,0.763069,0.77095,-8.113206,12.69587)"
       gradientUnits="userSpaceOnUse"
       id="linearGradient3959"
       xlink:href="#linearGradient2912"
       inkscape:collect="always" />
    <linearGradient
       y2="13.879766"
       x2="7.7626853"
       y1="6.4781427"
       x1="14.607078"
       gradientTransform="matrix(0.757049,-0.757385,0.757049,0.757385,-3.522878,9.595433)"
       gradientUnits="userSpaceOnUse"
       id="linearGradient3953"
       xlink:href="#linearGradient3799"
       inkscape:collect="always" />
    <linearGradient
       id="linearGradient2912">
      <stop
         id="stop2914"
         offset="0"
         style="stop-color:#c9c9c9;stop-opacity:1;" />
      <stop
         style="stop-color:#ffffff;stop-opacity:1;"
         offset="0.5"
         id="stop2920" />
      <stop
         id="stop2922"
         offset="0.75"
         style="stop-color:#a5a5a5;stop-opacity:1;" />
      <stop
         id="stop2916"
         offset="1"
         style="stop-color:#d4d4d4;stop-opacity:1;" />
    </linearGradient>
    <linearGradient
       id="linearGradient3799"
       inkscape:collect="always">
      <stop
         id="stop3801"
         offset="0"
         style="stop-color:#ffffff;stop-opacity:1;" />
      <stop
         id="stop3803"
         offset="1"
         style="stop-color:white;stop-opacity:0.44313726" />
    </linearGradient>
    <linearGradient
       id="linearGradient3821"
       inkscape:collect="always">
      <stop
         id="stop3823"
         offset="0"
         style="stop-color:#d57e00;stop-opacity:1" />
      <stop
         id="stop3825"
         offset="1"
         style="stop-color:#bfb600;stop-opacity:1" />
    </linearGradient>
    <linearGradient
       id="linearGradient3839">
      <stop
         id="stop3841"
         offset="0"
         style="stop-color:#9ec4f0;stop-opacity:0.30653265" />
      <stop
         style="stop-color:#9ec4f0;stop-opacity:0.3137255;"
         offset="0.61764705"
         id="stop3847" />
      <stop
         id="stop3843"
         offset="1"
         style="stop-color:#9ec4f0;stop-opacity:1" />
    </linearGradient>
    <linearGradient
       id="linearGradient3853">
      <stop
         id="stop3855"
         offset="0"
         style="stop-color:#ffffff;stop-opacity:1;" />
      <stop
         style="stop-color:#ffffff;stop-opacity:1;"
         offset="0.61764705"
         id="stop3861" />
      <stop
         id="stop3857"
         offset="1"
         style="stop-color:#ffffff;stop-opacity:0;" />
    </linearGradient>
    <linearGradient
       id="linearGradient7482"
       inkscape:collect="always">
      <stop
         id="stop7484"
         offset="0"
         style="stop-color:white;stop-opacity:1;" />
      <stop
         id="stop7486"
         offset="1"
         style="stop-color:gray;stop-opacity:1" />
    </linearGradient>
    <linearGradient
       id="linearGradient8363">
      <stop
         style="stop-color:#aaa;stop-opacity:1;"
         offset="0"
         id="stop8365" />
      <stop
         id="stop8367"
         offset="0.5"
         style="stop-color:#dbdbdb;stop-opacity:1;" />
      <stop
         style="stop-color:#8e8e8e;stop-opacity:1;"
         offset="0.75"
         id="stop8369" />
      <stop
         style="stop-color:#a8a8a8;stop-opacity:1;"
         offset="1"
         id="stop8371" />
    </linearGradient>
  </defs>
  <sodipodi:namedview
     id="base"
     pagecolor="#ffffff"
     bordercolor="#666666"
     borderopacity="1.0"
     inkscape:pageopacity="0.0"
     inkscape:pageshadow="2"
     inkscape:zoom="1"
     inkscape:cx="24"
     inkscape:cy="24"
     inkscape:document-units="px"
     inkscape:current-layer="layer1"
     inkscape:showpageshadow="false"
     width="48px"
     height="48px"
     showgrid="false"
     showborder="false"
     inkscape:window-width="843"
     inkscape:window-height="556"
     inkscape:window-x="5"
     inkscape:window-y="46" />
  <metadata
     id="metadata7">
    <rdf:RDF>
      <cc:Work
         rdf:about="">
        <dc:format>image/svg+xml</dc:format>
        <dc:type
           rdf:resource="http://purl.org/dc/dcmitype/StillImage" />
      </cc:Work>
    </rdf:RDF>
  </metadata>
  <g
     inkscape:label="Capa 1"
     inkscape:groupmode="layer"
     id="layer1">
    <g
       id="g11013"
       transform="matrix(1,0,0,0.86962,0,5.100231)">
      <path
         transform="matrix(0.563507,3.230488e-2,-2.547077e-2,1.130789,0.177497,-6.138275)"
         d="M 45.963099 42.332104 A 22.140221 2.9225092 0 1 1  1.6826572,42.332104 A 22.140221 2.9225092 0 1 1  45.963099 42.332104 z"
         sodipodi:ry="2.9225092"
         sodipodi:rx="22.140221"
         sodipodi:cy="42.332104"
         sodipodi:cx="23.822878"
         id="path10136"
         style="opacity:0.13807529;fill:url(#radialGradient11017);fill-opacity:1;stroke:none;stroke-width:1;stroke-linecap:round;stroke-linejoin:round;stroke-miterlimit:4;stroke-dasharray:none;stroke-dashoffset:0;stroke-opacity:1"
         sodipodi:type="arc" />
      <path
         transform="matrix(1.037748,3.230488e-2,-4.690672e-2,1.130789,0.28713,-6.138275)"
         style="opacity:0.47698747;fill:url(#radialGradient11019);fill-opacity:1;stroke:none;stroke-width:1;stroke-linecap:round;stroke-linejoin:round;stroke-miterlimit:4;stroke-dashoffset:0;stroke-opacity:1"
         d="M 45.963099,42.332104 C 45.963099,43.945329 36.04428,45.254613 23.822878,45.254613 C 11.601476,45.254613 1.6826572,43.945329 1.6826572,42.332104 C 1.6826572,40.718879 11.601476,39.409595 23.822878,39.409595 C 36.04428,39.409595 45.963099,40.718879 45.963099,42.332104 z "
         id="path8380" />
      <path
         style="opacity:0.29707113;fill:url(#radialGradient11024);fill-opacity:1;stroke:none;stroke-width:1;stroke-linecap:round;stroke-linejoin:round;stroke-miterlimit:4;stroke-dashoffset:0;stroke-opacity:1"
         d="M 45.999756,43.215235 C 45.955295,45.039452 39.871319,46.19955 32.419454,45.804739 C 24.967589,45.409928 18.955784,43.608978 19.000245,41.784761 C 19.044706,39.960544 25.128681,38.800446 32.580546,39.195257 C 40.032411,39.590068 46.044217,41.391018 45.999756,43.215235 z "
         id="path11022" />
      <path
         style="fill:url(#linearGradient12780);fill-opacity:1.0;fill-rule:evenodd;stroke:none;stroke-width:1px;stroke-linecap:butt;stroke-linejoin:miter;stroke-opacity:1"
         d="M 40.915129,44 L 48,38 L 37.549815,38 L 40.915129,44 z "
         id="path11899"
         transform="matrix(1,0,0,1.149928,0,-5.864896)"
         sodipodi:nodetypes="cccc" />
    </g>
    <path
       style="fill:url(#linearGradient8378);fill-opacity:1;stroke:#b4b4b4;stroke-width:1.00000024;stroke-linecap:round;stroke-linejoin:round;stroke-miterlimit:4;stroke-dashoffset:0;stroke-opacity:1"
       d="M 1.5190113,7.562759 L 41.140781,6.5000284 L 43.519006,7.562759 L 43.519006,41.5517 L 41.140781,43.500039 L 1.5190113,41.64026 L 1.5190113,7.562759 z "
       id="rect3987"
       sodipodi:nodetypes="ccccccc" />
    <g
       id="g3937"
       transform="matrix(0.319832,0,0,0.324908,41.81503,17.05113)">
      <path
         style="fill:#faf8fc"
         d="M -115,21.785978 L -115,-15.714022 L -65,-15.714022 L -15,-15.714022 L -15,21.785978 L -15,59.285978 L -65,59.285978 L -115,59.285978 L -115,21.785978 z "
         id="path3985" />
      <path
         style="fill:#d7d7e7"
         d="M -115,21.785978 L -115,-15.714022 L -65,-15.714022 L -15,-15.714022 L -15,21.785978 L -15,59.285978 L -65,59.285978 L -115,59.285978 L -115,21.785978 z M -93.128383,29.94067 C -88.677223,24.577351 -92.93137,16.285978 -100.13435,16.285978 C -104.80875,16.285978 -109,19.777932 -109,23.672429 C -109,26.017217 -105.85139,29.117254 -102,30.564446 C -99.163873,31.630144 -94.243396,31.284178 -93.128383,29.94067 z "
         id="path3983" />
      <path
         style="fill:#c7cae2"
         d="M -114.9682,41.128329 C -114.93985,24.78171 -114.77665,22.997182 -113.4682,24.727108 C -112.66069,25.794729 -112,27.008548 -112,27.424483 C -112,29.20903 -101.6596,33.285978 -97.133446,33.285978 C -93.003656,33.285978 -92.22236,32.932415 -90.715608,30.381686 C -88.716218,26.99699 -88.580862,24.786764 -90.105184,20.414092 C -91.3046,16.973445 -93.507962,15.420728 -98.976474,14.162461 C -103.86216,13.038298 -114.2577,16.898673 -113.4234,19.527315 C -113.1164,20.49458 -113.34555,21.285978 -113.93261,21.285978 C -114.65066,21.285978 -115,15.231288 -115,2.785978 L -115,-15.714022 L -65,-15.714022 L -15,-15.714022 L -15,21.785978 L -15,59.285978 L -30.75,59.270665 C -42.149732,59.259582 -46.085689,58.96175 -45,58.192376 C -43.868743,57.390709 -44.237486,57.297589 -46.5,57.813574 C -48.15,58.189869 -64.2375,58.716657 -82.25,58.984213 L -115,59.470679 L -114.9682,41.128329 z M -65.140422,56.934642 C -64.23819,56.130004 -60.781739,54.585219 -57.459419,53.501788 C -50.438892,51.212344 -41.451109,46.824904 -40.444214,45.195714 C -39.77106,44.106528 -42.846778,44.312171 -51.244963,45.917855 C -53.499063,46.348826 -54.161089,45.99248 -54.947095,43.925129 C -55.473538,42.540478 -56.760123,40.94954 -57.806172,40.389711 C -59.354861,39.560878 -60.245912,39.945464 -62.60404,42.460512 C -64.528208,44.512723 -65.08054,45.700769 -64.25,46.000913 C -63.5625,46.249366 -63,47.03839 -63,47.754301 C -63,50.004231 -67.319567,52.010632 -73.776928,52.760088 C -77.201591,53.157562 -80.272844,53.918431 -80.601932,54.450908 C -82.522135,57.55786 -68.385563,59.828756 -65.140422,56.934642 z M -67.5,45.285978 C -67.839919,44.735978 -68.766476,44.285978 -69.559017,44.285978 C -70.351558,44.285978 -71,44.735978 -71,45.285978 C -71,45.835978 -70.073442,46.285978 -68.940983,46.285978 C -67.808524,46.285978 -67.160081,45.835978 -67.5,45.285978 z "
         id="path3981" />
      <path
         style="fill:#c5c8dc"
         d="M -115,43.88428 L -115,28.398439 L -110.25,30.492016 C -107.6375,31.643483 -104.6,33.137636 -103.5,33.812355 C -102.21201,34.60238 -99.770343,34.816053 -96.641513,34.412547 C -92.419341,33.86804 -91.515376,33.323329 -89.739417,30.253487 C -85.592047,23.08453 -89.959248,15.014472 -98.695112,13.704448 C -104.65164,12.811211 -113.72443,15.728293 -114.31943,18.727975 C -114.54394,19.859876 -114.78892,12.573478 -114.86382,2.535978 L -115,-15.714022 L -65,-15.714022 L -15,-15.714022 L -15,21.785978 L -15,59.285978 L -30.75,59.186298 C -40.816474,59.122588 -45.597853,58.779889 -44,58.236622 C -42.393901,57.69055 -44.002922,57.570075 -48.5,57.899686 C -52.35,58.181869 -68.8875,58.628156 -85.25,58.891434 L -115,59.370121 L -115,43.88428 z M -62,56.285978 C -59.843822,55.185978 -56.486749,54.285978 -54.539838,54.285978 C -52.592927,54.285978 -51,53.904412 -51,53.438053 C -51,52.536888 -38.493318,46.279265 -33.568476,44.716323 C -31.956137,44.204633 -30.831137,43.335978 -31.068476,42.785978 C -31.574567,41.613178 -42.004475,42.080342 -43.554042,43.345217 C -44.133765,43.818431 -46.591939,44.33619 -49.016651,44.495792 C -52.749382,44.741492 -53.487009,44.479377 -53.828291,42.785978 C -54.672523,38.597006 -59.622474,38.055753 -63.14504,41.767236 C -65.011661,43.733965 -66.150192,44.130074 -68.635479,43.677429 C -70.567746,43.325506 -72.055939,43.567472 -72.513595,44.307975 C -73.521435,45.938694 -71.187984,47.252111 -67.25,47.270665 C -65.4625,47.279087 -64,47.681384 -64,48.164658 C -64,50.793456 -78.007074,52.929945 -84.463748,51.285978 C -87.113529,50.611304 -87.727158,53.824996 -85.432665,56.360382 C -82.868098,59.194197 -67.605588,59.145736 -62,56.285978 z "
         id="path3979" />
      <path
         style="fill:#bbc2db"
         d="M -115,44.285978 C -115,36.035978 -114.8875,29.292753 -114.75,29.301034 C -113.83442,29.356176 -106.98139,32.135713 -104.5,33.458356 C -102.41066,34.57203 -99.982241,34.903469 -96.5,34.550224 C -92.14121,34.108061 -91.208225,33.59599 -89.224812,30.557221 C -86.369582,26.18275 -87.019261,21.472571 -91.122452,16.799294 C -95.264849,12.081365 -101.7926,11.334982 -109.41816,14.707363 L -115,17.17592 L -115,0.730949 L -115,-15.714022 L -65,-15.714022 L -15,-15.714022 L -15,21.785978 L -15,59.285978 L -28.059017,59.285978 C -35.438213,59.285978 -40.878704,58.898734 -40.567767,58.395627 C -40.26512,57.905935 -41.697635,57.190081 -43.751134,56.804843 C -48.743553,55.868259 -49.182541,55.495575 -47.967521,53.22529 C -47.375394,52.118892 -45.880701,51.285978 -44.487356,51.285978 C -41.732039,51.285978 -33.200456,46.910836 -26.782294,42.206519 C -22.647064,39.175521 -22.603027,39.087202 -25.5,39.634774 C -27.15,39.94665 -31.65,40.505703 -35.5,40.877116 C -39.35,41.248529 -43.387628,42.167465 -44.472506,42.919195 C -47.732731,45.17826 -52.50693,44.663564 -53.757817,41.918167 C -55.435129,38.236868 -59.576187,37.974968 -63.374535,41.309962 C -65.676288,43.330928 -67.262879,43.958382 -69.156193,43.596452 C -72.084955,43.036584 -74.025207,45.022523 -71.878115,46.382469 C -71.120152,46.862555 -69.2625,47.262243 -67.75,47.270665 C -64.309152,47.289825 -64.226323,48.533959 -67.54756,50.311431 C -69.933587,51.588394 -81.64022,52.198115 -84.976259,51.219176 C -87.173342,50.574457 -87.415774,54.603371 -85.29402,56.499977 C -84.307309,57.381985 -82.375,58.308375 -81,58.558621 C -79.625,58.808867 -86.7125,59.074896 -96.75,59.149796 L -115,59.285978 L -115,44.285978 z M -68.5,58.380228 C -65.75,57.952832 -61.9995,56.926449 -60.165555,56.099376 C -56.908362,54.630446 -52,54.748377 -52,56.295566 C -52,57.77853 -55.549629,58.497195 -64.5,58.82634 C -71.503333,59.083885 -72.390741,58.984914 -68.5,58.380228 z "
         id="path3977" />
      <path
         style="fill:#b4bbd8"
         d="M -115,44.785978 C -115,36.810978 -114.84215,30.285978 -114.64922,30.285978 C -113.22223,30.285978 -107.03452,32.97159 -104.95928,34.491642 C -102.87868,36.015617 -101.40178,36.23314 -96.804061,35.692769 C -91.661584,35.088371 -90.972366,34.701149 -88.606044,31.086894 C -86.338932,27.624168 -86.135015,26.640227 -86.941036,23.052892 C -88.942823,14.14359 -97.565763,10.016924 -107.25309,13.332186 C -109.86729,14.226835 -112.30479,15.257431 -112.66975,15.622399 C -114.59689,17.549536 -115,14.896491 -115,0.285978 L -115,-15.714022 L -65,-15.714022 L -15,-15.714022 L -15,21.785978 L -15,59.285978 L -27.559017,59.285978 C -35.043486,59.285978 -39.885881,58.910346 -39.543477,58.356325 C -39.227471,57.845016 -40.557487,56.852239 -42.49907,56.150154 C -46.828061,54.58477 -46.525762,52.986638 -41.753948,52.211002 C -37.734784,51.557705 -35.442686,50.224815 -25.75,42.904457 C -17.303745,36.525461 -16.617597,34.84588 -23.659958,37.788366 C -25.637604,38.614679 -30.62205,39.489189 -34.736506,39.73172 C -39.186109,39.994008 -42.882401,40.749017 -43.858667,41.595024 C -44.7614,42.377309 -46.744692,43.313178 -48.265982,43.674732 C -50.572495,44.222906 -51.183428,43.933725 -51.943768,41.93388 C -52.572594,40.279943 -53.922544,39.335489 -56.293543,38.890687 C -60.450061,38.11092 -62.703542,38.863524 -64.116298,41.503283 C -64.897287,42.962574 -65.876144,43.351647 -67.827874,42.97855 C -73.942315,41.8097 -75.590123,46.507653 -69.643381,48.154616 L -66.5,49.025182 L -69.3151,50.15558 C -72.798996,51.554532 -78.669538,51.629693 -79.5,50.285978 C -79.839919,49.735978 -81.677614,49.285978 -83.583768,49.285978 C -86.40938,49.285978 -87.23488,49.77356 -88.053172,51.925832 C -89.38588,55.43112 -87.060666,58.043087 -82.143919,58.563834 C -80.139764,58.7761 -86.7125,59.025418 -96.75,59.117875 L -115,59.285978 L -115,44.785978 z M -96,56.285978 C -96,55.735978 -96.675,55.285978 -97.5,55.285978 C -98.325,55.285978 -99,55.735978 -99,56.285978 C -99,56.835978 -98.325,57.285978 -97.5,57.285978 C -96.675,57.285978 -96,56.835978 -96,56.285978 z M -64.729167,58.681811 C -64.396875,58.34952 -63.534375,58.313993 -62.8125,58.602864 C -62.014767,58.92209 -62.251724,59.159047 -63.416667,59.207031 C -64.470833,59.250452 -65.061458,59.014103 -64.729167,58.681811 z "
         id="path3975" />
      <path
         style="fill:#a7b5d8"
         d="M -115,45.285978 C -115,37.585978 -114.7701,31.285978 -114.4891,31.285978 C -113.16162,31.285978 -104.96726,35.620498 -103.92846,36.872176 C -102.58385,38.492337 -97.423238,38.779809 -96.5,37.285978 C -96.160081,36.735978 -94.660855,36.285978 -93.168387,36.285978 C -91.092844,36.285978 -90.011623,35.463033 -88.569933,32.785978 C -87.533252,30.860978 -86.305921,29.285978 -85.842529,29.285978 C -84.318194,29.285978 -84.963177,23.27845 -86.89359,19.49614 C -91.145497,11.165266 -97.965947,9.108997 -108.75,12.906744 L -115,15.107763 L -115,-0.303129 L -115,-15.714022 L -65,-15.714022 L -15,-15.714022 L -15.013655,7.035978 C -15.021165,19.548478 -15.286337,30.751399 -15.602927,31.931358 C -16.663814,35.885379 -33,40.534176 -33,36.882052 C -33,35.751363 -34.021775,35.865617 -38.25,37.469103 C -41.1375,38.564141 -44.30503,40.320908 -45.288955,41.373029 C -47.557448,43.798752 -50.69022,43.837368 -51.448274,41.448952 C -52.109577,39.36537 -58.010252,37.214392 -60.953397,37.984042 C -62.027802,38.265005 -63.605472,39.561099 -64.45933,40.864251 C -65.664188,42.703097 -66.626225,43.113623 -68.755899,42.697705 C -70.447527,42.367336 -72.26708,42.762563 -73.5,43.728178 C -75.470139,45.271176 -75.455208,45.331752 -72.5,47.785304 L -69.5,50.276044 L -73.25,50.281011 C -75.840581,50.284442 -77,49.843045 -77,48.853366 C -77,48.065429 -77.952342,47.118492 -79.116315,46.749061 C -81.804073,45.896 -88.972915,49.226853 -88.988527,51.335978 C -88.994837,52.188478 -89.498312,53.38429 -90.107359,53.993337 C -91.296751,55.182729 -88.985548,56.842654 -84.058399,58.337751 C -82.588916,58.783651 -88.629203,59.150656 -98.25,59.200025 L -115,59.285978 L -115,45.285978 z M -96.008359,57.312306 C -94.891062,56.605927 -94.803059,56.082919 -95.657696,55.228282 C -97.22005,53.665928 -101.05364,54.982631 -100.34198,56.83717 C -99.703829,58.500171 -98.15571,58.669906 -96.008359,57.312306 z M -38.989483,57.896495 C -40.975314,55.910664 -39.918341,54.295199 -34.268552,50.681072 C -31.116255,48.664573 -26.503755,45.329631 -24.018552,43.270091 C -21.533348,41.210551 -18.4875,39.005754 -17.25,38.370542 L -15,37.21561 L -15,48.280285 L -15,59.344959 L -26.489483,59.125985 C -32.808699,59.005549 -38.433699,58.452279 -38.989483,57.896495 z M -24.8125,57.602864 C -25.534375,57.313993 -26.396875,57.34952 -26.729167,57.681811 C -27.061458,58.014103 -26.470833,58.250452 -25.416667,58.207031 C -24.251724,58.159047 -24.014767,57.92209 -24.8125,57.602864 z "
         id="path3973" />
      <path
         style="fill:#9bacd3"
         d="M -115,48.188761 C -115,40.141368 -114.67263,37.281968 -113.75,37.270665 C -112.91667,37.260457 -113,36.932228 -114,36.285978 C -115.13669,35.551395 -114.70542,35.312895 -112.21945,35.301291 C -109.72945,35.289668 -108.21899,36.105904 -105.95152,38.688416 C -103.22964,41.788465 -102.58801,42.044677 -98.732068,41.57127 C -96.404431,41.285499 -93.974381,40.393831 -93.331957,39.589786 C -92.419317,38.447542 -91.708679,38.371521 -90.081957,39.242116 C -88.164641,40.268233 -88,40.090569 -88,36.995476 C -88,34.703516 -87.204886,32.887635 -85.5,31.285978 C -84.125,29.994233 -83,28.101338 -83,27.079545 C -83,23.855127 -85.67431,18.65224 -89.519192,14.396414 C -92.94844,10.600648 -93.625724,10.285599 -98.366362,10.281032 C -103.55255,10.276035 -112.88048,12.91936 -114.23469,14.777759 C -114.63877,15.33228 -114.97627,8.698478 -114.98469,0.035978 L -115,-15.714022 L -65,-15.714022 L -15,-15.714022 L -15,7.357407 C -15,33.431623 -14.5171,31.802099 -23.457014,35.894929 C -29.056002,38.45823 -31.368912,38.410922 -30.349337,35.753953 C -30.001534,34.847592 -30.386469,34.285978 -31.355499,34.285978 C -34.250297,34.285978 -43.708959,38.3069 -45.518965,40.306935 C -47.773408,42.798066 -49.191408,42.810386 -50.726583,40.35218 C -51.521161,39.079859 -53.570295,38.195953 -56.71713,37.768121 C -59.347709,37.410477 -62.255659,36.910468 -63.179242,36.656989 C -64.395772,36.32311 -64.946869,36.921074 -65.179242,38.827076 C -65.474621,41.249864 -65.927518,41.487086 -70.903217,41.825223 C -73.874987,42.027177 -76.777487,42.663465 -77.353217,43.239195 C -77.928948,43.814926 -79.559872,44.285978 -80.977494,44.285978 C -82.395115,44.285978 -84.667587,45.065273 -86.027432,46.017745 C -87.387276,46.970217 -90.488925,47.982717 -92.919984,48.267745 C -97.751167,48.834174 -99.914688,51.285978 -95.583333,51.285978 C -94.1625,51.285978 -93,51.735978 -93,52.285978 C -93,52.835978 -94.488992,53.285978 -96.30887,53.285978 C -99.932627,53.285978 -103.992,55.630966 -102.65891,56.954217 C -102.19803,57.411686 -98.71124,57.680541 -94.910477,57.551672 C -90.717314,57.4095 -88,57.719311 -88,58.339562 C -88,58.992016 -92.883131,59.312888 -101.5,59.22665 L -115,59.091543 L -115,48.188761 z M -99.958347,47.73579 C -98.89648,46.456318 -98.956978,45.900428 -100.30478,44.552632 C -101.8154,43.042006 -102.08965,43.057138 -103.96534,44.754612 C -105.51331,46.155507 -105.72826,46.908478 -104.87402,47.93777 C -103.395,49.719881 -101.5418,49.643735 -99.958347,47.73579 z M -70,36.035978 C -70,34.86489 -71.456754,35.156241 -71.875,36.410978 C -72.08125,37.029728 -71.74375,37.367228 -71.125,37.160978 C -70.50625,36.954728 -70,36.448478 -70,36.035978 z M -25.322621,58.589761 C -23.178519,58.172387 -19.928135,55.275718 -21.627555,55.296802 C -22.1074,55.302756 -24.709019,55.977756 -27.408931,56.796802 C -30.108843,57.615849 -33.323198,58.285978 -34.551942,58.285978 C -37.522804,58.285978 -38.670899,55.221845 -36.304426,53.608801 C -35.311992,52.932334 -32.981344,51.345463 -31.125208,50.08242 C -29.269073,48.819377 -26.794073,46.859795 -25.625208,45.727794 C -22.829196,43.019961 -16.487206,38.285978 -15.655609,38.285978 C -15.295024,38.285978 -15,43.010978 -15,48.785978 L -15,59.285978 L -21.25,59.149796 C -24.6875,59.074896 -26.520179,58.82288 -25.322621,58.589761 z "
         id="path3971" />
      <path
         style="fill:#94a9d3"
         d="M -111.57026,58.399668 C -111.26899,57.912198 -111.91743,57.279327 -113.01125,56.993288 C -114.82191,56.519789 -115,55.614128 -115,46.879598 C -115,41.603107 -114.76592,37.285978 -114.47983,37.285978 C -114.19373,37.285978 -111.95616,40.383064 -109.50745,44.168391 C -107.05873,47.953719 -104.3484,51.322042 -103.48449,51.653555 C -102.21956,52.138956 -102.13261,52.665245 -103.0379,54.356788 C -104.56747,57.214816 -103.81383,57.691205 -96.667774,58.383491 C -91.44014,58.889926 -92.147594,59.004247 -101.30902,59.133491 C -107.378,59.219108 -111.87782,58.897308 -111.57026,58.399668 z M -23.060369,57.891006 C -21.168572,57.207458 -19.462053,56.172136 -19.268105,55.590292 C -18.616629,53.635864 -21.657803,53.453326 -25.595006,55.210539 C -32.104194,58.115654 -34.707624,58.490282 -35.423464,56.624832 C -35.849077,55.515703 -34.985133,54.061861 -32.777722,52.172588 C -30.974975,50.629657 -29.1475,49.348971 -28.716667,49.326619 C -28.285833,49.304266 -26.442404,47.823478 -24.620158,46.035978 C -20.465393,41.960436 -16.137705,38.285978 -15.492394,38.285978 C -15.221577,38.285978 -15,43.010978 -15,48.785978 L -15,59.285978 L -20.75,59.2099 L -26.5,59.133822 L -23.060369,57.891006 z M -93,45.485978 C -93,43.993134 -90.762851,42.43975 -89.378145,42.971112 C -87.010121,43.879808 -87.824445,46.285978 -90.5,46.285978 C -91.875,46.285978 -93,45.925978 -93,45.485978 z M -85.77138,39.535978 C -86.554818,37.239232 -86.262773,36.20911 -83.999472,33.285978 C -79.915593,28.011508 -79.628105,24.533307 -82.970934,20.842115 C -84.493174,19.16124 -87.28786,16.040549 -89.181347,13.907247 C -93.813858,8.688018 -99.642135,8.014408 -108.75,11.645578 L -115,14.13736 L -115,-0.788331 L -115,-15.714022 L -65,-15.714022 L -15,-15.714022 L -15,7.111664 C -15,29.53352 -15.039807,29.972135 -17.25,31.903486 C -19.919295,34.236019 -26.401092,37.285978 -28.688914,37.285978 C -30.120691,37.285978 -30.098632,37.052446 -28.5,35.285978 C -26.740955,33.342255 -26.753367,33.285978 -28.941105,33.285978 C -32.899399,33.285978 -41.568776,36.254501 -44.996972,38.783744 C -47.775185,40.833445 -48.495996,41.004695 -49.408864,39.831924 C -50.584174,38.321988 -56.356306,36.612194 -62,36.102235 C -64.93764,35.836792 -65.549129,36.130595 -65.805768,37.930797 C -66.047392,39.625681 -67.029535,40.213279 -70.487593,40.731847 C -73.264362,41.148249 -75.568783,40.947715 -76.79307,40.183135 C -78.355646,39.20729 -79.171438,39.29265 -81.08375,40.632086 C -84.244858,42.846211 -84.676676,42.745239 -85.77138,39.535978 z M -69.176676,35.953112 C -68.989607,34.988539 -69.491509,34.285978 -70.367659,34.285978 C -72.225395,34.285978 -73.346616,35.916125 -72.467376,37.338764 C -71.562845,38.802327 -69.566198,37.961576 -69.176676,35.953112 z "
         id="path3969" />
      <path
         style="fill:#97a7c9"
         d="M -23.060369,57.830107 C -21.168572,57.147125 -19.462053,56.112659 -19.268105,55.531297 C -18.582886,53.477342 -21.694694,53.455659 -26.379128,55.481746 C -30.490396,57.25993 -31.311304,57.34275 -32.550702,56.104377 C -33.7901,54.866005 -33.615774,54.314325 -31.240125,51.956854 C -25.494899,46.25559 -16.293165,38.2413 -15.492394,38.2413 C -15.221577,38.2413 -15,42.962391 -15,48.732613 L -15,64.476319 L -115.1074,59.071895 L -23.060369,57.830107 z M -114.33333,55.560292 C -114.7,55.193929 -114.96447,53.283012 -114.92105,51.313808 C -114.87763,49.344606 -114.61513,48.295475 -114.33772,48.982406 C -114.06031,49.669337 -112.55116,50.231372 -110.98405,50.231372 C -108.09873,50.231372 -106.14067,53.029614 -107.49447,55.218293 C -108.19006,56.342849 -113.29465,56.59812 -114.33333,55.560292 z M -114.96959,39.790018 C -114.99177,37.640471 -114.70121,37.141003 -113.89638,37.94517 C -113.10543,38.735461 -113.09681,39.570563 -113.86597,40.892729 C -114.8068,42.510012 -114.94293,42.373991 -114.96959,39.790018 z M -48.009821,39.751882 C -46.548261,37.992268 -47.18911,37.685021 -54,36.879968 C -56.475,36.58742 -60.369745,36.048965 -62.654988,35.683401 C -66.190336,35.11786 -66.881412,35.296283 -67.288987,36.879812 C -67.618938,38.161753 -67.804095,37.885843 -67.883999,35.993162 C -68.022202,32.719532 -71.297529,32.148648 -73.129053,35.078957 C -73.893754,36.302425 -75.072758,36.760112 -76.672568,36.454543 C -78.112311,36.179545 -79.857504,36.708624 -81.041172,37.778943 C -82.125271,38.759228 -83.270459,39.303295 -83.586034,38.987982 C -84.371412,38.203252 -81.217624,33.542679 -79.440008,32.861107 C -77.502685,32.118302 -77.610909,29.611732 -79.613454,28.843919 C -80.683136,28.433783 -81.038919,27.507017 -80.669117,26.094061 C -80.285732,24.629208 -80.99108,22.99283 -82.924984,20.860545 C -84.472497,19.154289 -87.28786,16.014276 -89.181347,13.882739 C -93.813858,8.6678285 -99.642135,7.9947758 -108.75,11.622941 L -115,14.112662 L -115,-0.80068008 L -115,-15.714022 L -65,-15.714022 L -15,-15.714022 L -15,7.0927787 C -15,29.496084 -15.039807,29.934336 -17.25,31.864089 C -19.919295,34.194692 -26.401092,37.242127 -28.688914,37.242127 C -30.120691,37.242127 -30.098632,37.008789 -28.5,35.243782 C -26.740955,33.301667 -26.753367,33.245437 -28.941105,33.245437 C -32.914931,33.245437 -41.574383,36.215637 -45.032388,38.764762 C -48.86286,41.588456 -49.790851,41.896117 -48.009821,39.751882 z "
         id="path3967"
         sodipodi:nodetypes="cssssscccccssssccssccssssssssssssscccccccsssssc" />
      <path
         style="fill:#8aa3cb"
         d="M -17,56.844995 C -17,56.602454 -16.55,56.125897 -16,55.785978 C -15.45,55.446059 -15,55.644502 -15,56.226961 C -15,56.80942 -15.45,57.285978 -16,57.285978 C -16.55,57.285978 -17,57.087536 -17,56.844995 z M -114.33333,55.619311 C -114.7,55.252645 -114.96447,53.340145 -114.92105,51.369311 C -114.87763,49.398478 -114.61513,48.348478 -114.33772,49.035978 C -114.06031,49.723478 -112.55116,50.285978 -110.98405,50.285978 C -108.09873,50.285978 -106.14067,53.086538 -107.49447,55.277029 C -108.19006,56.402516 -113.29465,56.657998 -114.33333,55.619311 z M -33.410163,55.431338 C -34.680347,53.376137 -19.144746,43.63272 -16.323686,44.715263 C -14.61457,45.371111 -14.54868,52.244401 -16.25,52.401132 C -16.9375,52.464467 -18.275684,52.438183 -19.223742,52.342723 C -20.171799,52.247262 -23.041503,53.095443 -25.60086,54.227568 C -30.647804,56.460072 -32.5894,56.75936 -33.410163,55.431338 z M -84,38.362901 C -84,37.855209 -82.65,36.089824 -81,34.439824 C -76.541975,29.981799 -76.793893,24.838725 -81.75,19.128066 C -90.660546,8.860918 -92.597997,7.294257 -96.632353,7.093907 C -102.64285,6.79542 -104.12426,6.964247 -109.75,8.588854 L -115,10.104953 L -115,-2.804534 L -115,-15.714022 L -65,-15.714022 L -15,-15.714022 L -15,7.10669 L -15,29.927401 L -22.749535,31.132195 C -30.743272,32.374953 -34.195202,33.297393 -42.107019,36.304989 C -46.290468,37.895284 -47.531659,37.932209 -55.607019,36.706605 C -66.987268,34.979417 -66.771653,34.973349 -67.310674,37.035978 C -67.592036,38.11264 -67.812631,37.727875 -67.883999,36.035978 C -68.021642,32.772928 -71.294783,32.183883 -73.112797,35.094986 C -73.876383,36.317682 -75.112967,36.776243 -76.928153,36.509831 C -78.562412,36.269972 -80.128776,36.736217 -80.929327,37.700822 C -82.381698,39.450823 -84,39.79975 -84,38.362901 z "
         id="path3965" />
      <path
         style="fill:#8599c7"
         d="M -29,51.827928 C -29,51.150502 -20.059614,47.335902 -17.298395,46.835198 C -15.206245,46.455819 -14.92001,46.737258 -15.188899,48.90935 C -15.480458,51.264577 -15.92401,51.449258 -22.25,51.849365 C -25.9625,52.084174 -29,52.074527 -29,51.827928 z M -59.163923,35.40304 C -61.179081,34.977207 -63.924611,33.910169 -65.265103,33.031846 C -66.605594,32.153522 -69.174664,31.288888 -70.974148,31.110436 C -73.767718,30.833402 -74.483751,30.18079 -75.872968,26.645514 C -76.767836,24.368259 -80.426848,19.300176 -84.004107,15.383108 C -90.17611,8.624818 -90.806395,8.212636 -96.347954,7.310724 C -100.77743,6.589808 -103.54398,6.713551 -107.80395,7.82313 C -110.89288,8.627696 -113.77565,9.285978 -114.2101,9.285978 C -114.64454,9.285978 -115,3.660978 -115,-3.214022 L -115,-15.714022 L -65,-15.714022 L -15,-15.714022 L -15,5.085978 C -15,20.341069 -15.333228,26.244985 -16.25,27.232682 C -17.25,28.310046 -17.25,28.438243 -16.25,27.873665 C -15.499687,27.450056 -15,27.748872 -15,28.621174 C -15,29.460962 -15.949777,30.075258 -17.25,30.076426 C -20.539794,30.079381 -30.60634,31.920871 -37.5,33.780792 C -44.780877,35.745184 -54.205175,36.450899 -59.163923,35.40304 z "
         id="path3963" />
      <path
         style="fill:#7b94c5"
         d="M -19.5,50.325826 C -21.358323,49.564302 -21.300582,49.427604 -18.6849,48.396111 C -15.012501,46.947902 -15,46.950921 -15,49.285978 C -15,51.396063 -16.207459,51.675079 -19.5,50.325826 z M -58.5,34.567582 C -62.548951,33.948667 -64.173157,32.487174 -63.097153,30.430973 C -61.002375,26.427934 -67.663046,19.661336 -72.502569,20.875979 C -74.762773,21.443254 -75.925948,20.670798 -81.303493,15.031349 C -84.711572,11.457287 -88.482916,8.027461 -89.684259,7.409516 C -90.910538,6.778743 -96.689609,6.285978 -102.86093,6.285978 C -112.48902,6.285978 -113.91011,6.503181 -114.31067,8.035978 C -114.5622,8.998478 -114.8202,4.048478 -114.884,-2.964022 L -115,-15.714022 L -65,-15.714022 L -15,-15.714022 L -15,4.585978 C -15,19.419755 -15.334339,25.220317 -16.241641,26.127619 C -17.230495,27.116473 -17.185494,27.553303 -16.020601,28.273246 C -15.216127,28.770438 -14.90686,29.526168 -15.333333,29.952645 C -15.75981,30.379122 -16.445004,30.183981 -16.855985,29.518999 C -17.38595,28.661498 -18.460526,28.578122 -20.551612,29.232258 C -26.508339,31.095646 -38.742786,33.366075 -45.033984,33.775616 C -48.590293,34.007123 -52.4,34.383202 -53.5,34.611347 C -54.6,34.839492 -56.85,34.819798 -58.5,34.567582 z "
         id="path3961" />
      <path
         style="fill:#8590bb"
         d="M -47.422252,30.829719 C -54.548283,29.890879 -55.429652,29.534717 -56.191711,27.285978 C -57.164568,24.4152 -65.946752,18.285978 -69.087256,18.285978 C -72.200964,18.285978 -77.712515,15.410949 -80.732278,12.211504 C -82.189653,10.667412 -83.719036,9.612333 -84.130907,9.866883 C -84.542778,10.121433 -86.369316,9.421546 -88.189882,8.311578 C -90.987371,6.605995 -93.230901,6.292875 -102.67668,6.289716 C -112.48211,6.286437 -113.90946,6.500681 -114.31067,8.035978 C -114.5622,8.998478 -114.8202,4.048478 -114.884,-2.964022 L -115,-15.714022 L -65,-15.714022 L -15,-15.714022 L -15,4.585978 C -15,19.419755 -15.334339,25.220317 -16.241641,26.127619 C -17.230495,27.116473 -17.185494,27.553303 -16.020601,28.273246 C -15.216127,28.770438 -14.90686,29.526168 -15.333333,29.952645 C -15.75981,30.379122 -16.47705,30.132129 -16.927199,29.403772 C -17.557391,28.3841 -18.226792,28.336986 -19.837378,29.198946 C -20.987828,29.814647 -23.651078,30.102047 -25.755712,29.837612 C -27.860346,29.573177 -31.813797,29.923065 -34.54116,30.615141 C -38.294288,31.567508 -41.426248,31.619681 -47.422252,30.829719 z "
         id="path3959" />
      <path
         style="fill:#7687b8"
         d="M -47.422252,30.827922 C -54.549062,29.890596 -55.429568,29.534963 -56.191711,27.285978 C -57.164568,24.4152 -65.946752,18.285978 -69.087256,18.285978 C -72.657133,18.285978 -77.242647,15.539847 -83.273517,9.790237 C -88.40104,4.901845 -89.519931,4.285241 -93.273517,4.279389 C -95.700525,4.275605 -98.696561,3.483854 -100.3104,2.419778 C -102.61523,0.9001 -103.94525,0.720781 -107.70383,1.422959 C -110.2245,1.893871 -112.89732,2.785796 -113.64343,3.405015 C -114.77033,4.340257 -115,2.817102 -115,-5.591577 L -115,-15.714022 L -65,-15.714022 L -15,-15.714022 L -15,4.750794 C -15,24.464559 -15.076452,25.256526 -17.083187,26.330498 C -18.745839,27.220323 -19.554561,27.094082 -21.089318,25.705146 C -23.451445,23.567451 -24.87197,24.660085 -23.203671,27.331456 C -22.106932,29.087615 -22.263008,29.297996 -24.741526,29.404399 C -26.258687,29.469531 -27.861104,29.461663 -28.302453,29.386915 C -28.743802,29.312167 -31.443802,29.840252 -34.302453,30.560438 C -38.294594,31.566186 -41.337315,31.62822 -47.422252,30.827922 z "
         id="path3957" />
      <path
         style="fill:#6783b9"
         d="M -51.692934,29.587723 C -53.128562,29.308909 -54.278953,27.97077 -55.024129,25.712866 C -56.480029,21.301447 -60.715094,18.114918 -69.5,14.820998 C -73.741142,13.230772 -78.07649,10.707266 -80.5,8.418153 C -86.25774,2.979709 -89.413936,1.285978 -93.790503,1.285978 C -96.607499,1.285978 -98.2813,0.61545 -99.981224,-1.194036 C -102.48291,-3.856957 -104.01946,-3.849166 -111.25,-1.136892 L -115,0.269784 L -115,-3.522119 C -115,-5.607666 -114.4375,-7.910272 -113.75,-8.639022 C -112.75,-9.699022 -112.75,-10.055689 -113.75,-10.422355 C -114.4375,-10.674439 -115,-11.968189 -115,-13.297355 L -115,-15.714022 L -65,-15.714022 L -15,-15.714022 L -15,4.317363 C -15,21.922964 -15.19769,24.424608 -16.632466,24.975183 C -17.530322,25.319723 -19.099216,25.0806 -20.118897,24.443799 C -22.858282,22.733024 -23.916808,23.009285 -25.171203,25.762382 C -25.886641,27.332598 -27.068064,28.196949 -28.399764,28.124455 C -29.554894,28.061574 -31.766795,28.522192 -33.3151,29.148052 C -35.995605,30.231572 -47.019707,30.495313 -51.692934,29.587723 z "
         id="path3955" />
      <path
         style="fill:#5b7cb3"
         d="M -37.5,25.257288 C -38.6,24.800381 -41.128236,24.39492 -43.118301,24.356263 C -45.844912,24.303299 -49.655936,22.41948 -58.582667,16.712107 C -73.399145,7.239079 -85.78656,1.278133 -92.568458,0.35781 C -95.444926,-0.032536 -98.903176,-1.075786 -100.25346,-1.960525 C -102.78349,-3.618266 -106.062,-3.31661 -112.25,-0.85672 C -114.95743,0.219552 -115,0.178031 -115,-3.538773 C -115,-5.61516 -114.4375,-7.910272 -113.75,-8.639022 C -112.75,-9.699022 -112.75,-10.055689 -113.75,-10.422355 C -114.4375,-10.674439 -115,-11.968189 -115,-13.297355 L -115,-15.714022 L -65,-15.714022 L -15,-15.714022 L -15,4.399522 L -15,24.513066 L -19.562428,23.828887 C -22.071763,23.452589 -24.659263,23.564327 -25.312428,24.077194 C -27.045054,25.437657 -35.171411,26.224513 -37.5,25.257288 z "
         id="path3953" />
      <path
         style="fill:#6579a9"
         d="M -32.627857,20.590218 C -39.707536,18.735773 -46.85,16.488675 -48.5,15.596666 C -50.15,14.704658 -53.525,12.886728 -56,11.556822 C -58.475,10.226916 -62.146956,7.833301 -64.159903,6.237676 C -66.172849,4.642051 -69.760336,2.900532 -72.132097,2.367633 C -74.503858,1.834734 -77.001201,0.637239 -77.68175,-0.293467 C -78.804564,-1.829006 -79.030289,-1.741651 -80.120071,0.650159 C -81.523013,3.729282 -81.642571,3.751095 -86.345757,1.785978 C -88.32026,0.960978 -91.412716,0.284296 -93.217881,0.28224 C -95.023047,0.280184 -97.913589,-0.583457 -99.641309,-1.636963 C -102.88629,-3.615644 -105.75657,-3.438027 -112.25,-0.85672 C -114.95743,0.219552 -115,0.178031 -115,-3.538773 C -115,-5.61516 -114.4375,-7.910272 -113.75,-8.639022 C -112.75,-9.699022 -112.75,-10.055689 -113.75,-10.422355 C -114.4375,-10.674439 -115,-11.968189 -115,-13.297355 L -115,-15.714022 L -65,-15.714022 L -15,-15.714022 L -15,3.669401 L -15,23.052824 L -17.377857,23.50738 C -18.685678,23.757386 -25.548178,22.444663 -32.627857,20.590218 z "
         id="path3951" />
      <path
         style="fill:#5372ac"
         d="M -23,22.577934 C -28.324089,21.987766 -45.112825,17.375138 -48.5,15.571926 C -58.686557,10.148965 -60.867464,8.847472 -64.213349,6.194725 C -66.255692,4.575477 -69.405692,2.970206 -71.213349,2.627456 C -76.324368,1.658356 -77.887933,0.499164 -78.786496,-2.987105 C -79.792505,-6.8902446 -83.44598,-8.0349451 -84.481747,-4.771531 C -85.072292,-2.910889 -85.682898,-2.770314 -90.817637,-3.312873 C -93.942937,-3.643106 -97.719278,-4.768459 -99.209507,-5.813659 C -100.90662,-7.0039564 -103.61556,-7.714022 -106.45951,-7.714022 C -111.40026,-7.714022 -111.93266,-8.5729446 -109.83948,-13.166969 L -108.67897,-15.714022 L -61.839485,-15.714022 L -15,-15.714022 L -15,3.785978 L -15,23.285978 L -17.25,23.125941 C -18.4875,23.037921 -21.075,22.791317 -23,22.577934 z M -115,-14.655005 C -115,-15.237464 -114.55,-15.714022 -114,-15.714022 C -113.45,-15.714022 -113,-15.51558 -113,-15.273039 C -113,-15.030498 -113.45,-14.553941 -114,-14.214022 C -114.55,-13.874103 -115,-14.072546 -115,-14.655005 z "
         id="path3949" />
      <path
         style="fill:#536ba3"
         d="M -24,17.672745 C -27.025,16.246213 -33.396227,13.813026 -38.158283,12.265663 C -42.920339,10.718299 -47.870339,8.771987 -49.158283,7.940525 C -53.581084,5.085285 -70.091001,-1.714022 -72.601227,-1.714022 C -74.146541,-1.714022 -76.227417,-2.934435 -78.010197,-4.886329 L -80.907652,-8.0586365 L -86.853867,-6.2582676 C -92.419553,-4.573114 -93.105856,-4.562087 -97.57818,-6.0859603 C -100.20613,-6.9813942 -104.30111,-7.714022 -106.67814,-7.714022 C -111.38584,-7.714022 -111.91116,-8.6201362 -109.83948,-13.166969 L -108.67897,-15.714022 L -61.839485,-15.714022 L -15,-15.714022 L -15,2.285978 C -15,22.907502 -14.54588,22.131126 -24,17.672745 z M -115,-14.655005 C -115,-15.237464 -114.55,-15.714022 -114,-15.714022 C -113.45,-15.714022 -113,-15.51558 -113,-15.273039 C -113,-15.030498 -113.45,-14.553941 -114,-14.214022 C -114.55,-13.874103 -115,-14.072546 -115,-14.655005 z "
         id="path3947" />
      <path
         style="fill:#4a64a2"
         d="M -22.095006,17.122907 C -24.517753,16.033166 -29.65,13.997348 -33.5,12.598868 C -37.35,11.200388 -42.27073,9.406422 -44.434954,8.612278 C -46.599179,7.818133 -49.914101,5.81256 -51.801446,4.155448 C -53.688792,2.498337 -56.868062,0.423969 -58.866492,-0.454259 C -60.864921,-1.332487 -64.3,-2.836537 -66.5,-3.796592 C -68.7,-4.756648 -72.721259,-6.5302231 -75.43613,-7.7378706 C -79.004382,-9.3251243 -82.745442,-10.010027 -88.93613,-10.209412 C -97.042971,-10.470512 -102.94531,-12.19848 -104.53914,-14.777346 C -104.89571,-15.354287 -87.812903,-15.714022 -60.059017,-15.714022 L -15,-15.714022 L -15,1.178989 C -15,20.283067 -15.011547,20.309017 -22.095006,17.122907 z M -108,-14.155005 C -108,-14.397546 -107.55,-14.874103 -107,-15.214022 C -106.45,-15.553941 -106,-15.355498 -106,-14.773039 C -106,-14.19058 -106.45,-13.714022 -107,-13.714022 C -107.55,-13.714022 -108,-13.912464 -108,-14.155005 z "
         id="path3945" />
      <path
         style="fill:#4b629c"
         d="M -19.483941,11.311961 C -19.815028,10.776252 -22.204086,9.707824 -24.792958,8.937678 C -27.381831,8.167531 -31.946719,6.355839 -34.937153,4.911695 C -37.927588,3.467551 -40.860627,2.285978 -41.455019,2.285978 C -42.049411,2.285978 -44.174306,1.172537 -46.177009,-0.188334 C -48.179712,-1.549206 -52.671672,-3.310081 -56.159143,-4.101389 C -59.646615,-4.892697 -64.075,-6.0000283 -66,-6.5621258 C -76.444507,-9.6119078 -82.256451,-10.646311 -89.127876,-10.6784 C -96.444168,-10.712567 -103.10416,-12.455502 -104.49064,-14.698871 C -104.9116,-15.380002 -90.292063,-15.714022 -60.059017,-15.714022 L -15,-15.714022 L -15,-1.714022 C -15,11.477418 -15.1121,12.285978 -16.940983,12.285978 C -18.008524,12.285978 -19.152855,11.84767 -19.483941,11.311961 z M -108,-14.155005 C -108,-14.397546 -107.55,-14.874103 -107,-15.214022 C -106.45,-15.553941 -106,-15.355498 -106,-14.773039 C -106,-14.19058 -106.45,-13.714022 -107,-13.714022 C -107.55,-13.714022 -108,-13.912464 -108,-14.155005 z "
         id="path3943" />
      <path
         style="fill:#435c9c"
         d="M -19.483941,11.311961 C -19.815028,10.776252 -22.204086,9.694013 -24.792958,8.906986 C -30.70263,7.110425 -48.567651,-1.20545 -49.395635,-2.545157 C -49.735488,-3.09505 -53.048001,-4.516123 -56.756775,-5.703096 C -60.465549,-6.8900687 -64.865555,-8.6557314 -66.534566,-9.6267908 C -69.939689,-11.607949 -78.945015,-14.483896 -83.5,-15.044882 C -85.15,-15.248094 -70.4125,-15.481782 -50.75,-15.56419 L -15,-15.714022 L -15,-1.714022 C -15,11.477418 -15.1121,12.285978 -16.940983,12.285978 C -18.008524,12.285978 -19.152855,11.84767 -19.483941,11.311961 z "
         id="path3941" />
      <path
         style="fill:#395595"
         d="M -20.739071,3.750241 C -29.885583,-0.233129 -37.953476,-3.617598 -41,-4.749189 C -42.925,-5.464205 -45.073316,-6.4878756 -45.774036,-7.024013 C -46.474756,-7.5601504 -52.099756,-9.6960548 -58.274036,-11.770467 L -115.04768,-15.542126 L -15,-18.624012 L -15,-5.380689 C -15,5.878857 -15.182968,6.169962 -20.739071,3.750241 z "
         id="path3939"
         sodipodi:nodetypes="cssccccc" />
    </g>
    <path
       style="fill:none;fill-opacity:1;stroke:white;stroke-width:1.0000006;stroke-linecap:round;stroke-linejoin:round;stroke-miterlimit:4;stroke-dashoffset:0;stroke-opacity:1"
       d="M 2.5190103,8.5053123 L 40.918265,7.5000268 L 42.519037,8.1953492 L 42.519037,41.055531 L 40.918265,42.50003 L 2.5190103,40.740779 L 2.5190103,8.5053123 z "
       id="path5736"
       sodipodi:nodetypes="ccccccc" />
    <path
       style="fill:url(#linearGradient8376);fill-opacity:1;stroke:none;stroke-width:1;stroke-linecap:round;stroke-linejoin:round;stroke-miterlimit:4;stroke-dashoffset:0;stroke-opacity:1"
       d="M 41.01901,7.0000262 L 43.01901,7.8618126 L 43.01901,41.312526 L 41.01901,43.000026 L 41.01901,7.0000262 z "
       id="rect8367"
       sodipodi:nodetypes="ccccc" />
    <path
       style="fill:url(#linearGradient5723);fill-opacity:1.0;stroke:none;stroke-width:1.0000006;stroke-linecap:round;stroke-linejoin:round;stroke-miterlimit:4;stroke-dashoffset:0;stroke-opacity:1"
       d="M 40.90625,7 L 2,8.0794686 L 2,26 C 13.172936,16.800527 30.446071,17.642447 41,26 L 41,7.0327112 L 40.90625,7 z "
       id="path3966"
       sodipodi:nodetypes="cccccc" />
    <g
       id="g4057"
       inkscape:label="Capa 1"
       transform="matrix(1.428091,0,0,1.41902,13.78933,13.98754)">
      <path
         id="path5725"
         d="M 9.2247224,0.36117235 C 6.9951246,0.35471003 4.7622988,1.2352866 3.0604252,3.0240521 C 3.0072418,3.0799504 2.9453443,3.1528629 2.8938226,3.2098346 C 1.4737598,4.7800839 0.68650561,6.7502568 0.53109433,8.767821 C 0.50704345,9.0560443 0.49693524,9.3458011 0.50080294,9.6348044 C 0.52936547,11.946832 1.3851438,14.252514 3.0604252,16.013329 C 4.8512825,17.895623 7.2378944,18.774627 9.588219,18.676209 C 12.133861,18.774249 14.706441,17.895281 16.646112,16.013329 C 20.333369,12.4358 20.318226,6.6325448 16.630967,3.0550152 C 14.787337,1.2662508 12.367026,0.36763468 9.9517157,0.36117235 C 9.8259813,0.36083548 9.6987453,0.37217988 9.5730733,0.37665387 C 9.4566551,0.37144767 9.3411993,0.36151029 9.2247224,0.36117235 z M 9.3155965,2.3738142 C 10.999027,2.4547116 12.665832,3.1355311 13.950179,4.448382 C 16.690117,7.2491331 16.690116,11.80373 13.950179,14.60448 C 12.665833,15.917333 11.000504,16.612478 9.3155965,16.694532 C 7.492896,16.61092 5.691806,15.91555 4.302372,14.60448 C 1.3342149,11.80373 1.334215,7.2491331 4.302372,4.448382 C 5.6918055,3.1373144 7.4944837,2.4562494 9.3155965,2.3738142 z "
         style="color:black;fill:url(#linearGradient5727);fill-opacity:1;fill-rule:nonzero;stroke:#505050;stroke-width:0.70247024;stroke-linecap:round;stroke-linejoin:round;marker:none;marker-start:none;marker-mid:none;marker-end:none;stroke-miterlimit:4;stroke-dasharray:none;stroke-dashoffset:0;stroke-opacity:1;visibility:visible;display:inline;overflow:visible" />
      <path
         sodipodi:nodetypes="ccccc"
         id="rect3819"
         d="M 14.02134,17.37517 L 17.073776,14.507202 L 20.97411,18.171827 C 22.754697,19.844807 19.577249,22.595316 17.921672,21.039794 L 14.02134,17.37517 z "
         style="color:black;fill:url(#linearGradient3963);fill-opacity:1;fill-rule:nonzero;stroke:#994700;stroke-width:0.70247048;stroke-linecap:round;stroke-linejoin:round;marker:none;marker-start:none;marker-mid:none;marker-end:none;stroke-miterlimit:4;stroke-dasharray:none;stroke-dashoffset:0;stroke-opacity:1;visibility:visible;display:inline;overflow:visible" />
      <path
         style="color:black;fill:none;fill-opacity:1;fill-rule:nonzero;stroke:white;stroke-width:0.70247108;stroke-linecap:round;stroke-linejoin:round;marker:none;marker-start:none;marker-mid:none;marker-end:none;stroke-miterlimit:4;stroke-dasharray:none;stroke-dashoffset:0;stroke-opacity:0.35678394;visibility:visible;display:inline;overflow:visible"
         d="M 15.500007,17.470247 L 17.461125,15.499996 L 20.162144,18.213597 C 21.306129,19.362911 19.264694,21.252468 18.201026,20.183849 L 15.500007,17.470247 z "
         id="path3892"
         sodipodi:nodetypes="ccccc" />
      <path
         sodipodi:nodetypes="cccccc"
         id="rect3807"
         d="M 12.504655,16.939941 C 14.095393,16.157036 14.882198,15.284153 15.734988,14.179889 C 15.938695,13.83048 16.556243,12.777594 17.250324,13.506941 C 17.831333,14.213103 19.249844,15.444342 18.398571,15.744454 C 16.800587,15.744454 15.00477,18.141522 15.277282,19.15915 C 14.603562,19.708513 13.314103,17.904371 12.504655,16.939941 z "
         style="color:black;fill:url(#linearGradient3959);fill-opacity:1;fill-rule:nonzero;stroke:#505050;stroke-width:0.70247084;stroke-linecap:round;stroke-linejoin:round;marker:none;marker-start:none;marker-mid:none;marker-end:none;stroke-miterlimit:4;stroke-dasharray:none;stroke-dashoffset:0;stroke-opacity:1;visibility:visible;display:inline;overflow:visible" />
      <path
         id="path2034"
         d="M 8.947498,0.71352555 C 6.8769665,0.70756359 4.8034375,1.5198349 3.2229808,3.1698467 C 3.1735917,3.2214092 3.1161103,3.2886668 3.0682642,3.3412179 C 0.053975928,6.6519531 0.11145762,11.903094 3.2229808,15.151555 C 6.3838927,18.45158 11.525169,18.45158 14.68608,15.151555 C 17.846993,11.851532 17.832928,6.4984316 14.672015,3.1984089 C 13.091559,1.548398 11.01803,0.71948651 8.947498,0.71352555 z M 8.7224556,2.5557664 C 10.391105,2.5557664 12.063595,3.1919441 13.335826,4.4836928 C 15.880288,7.0671915 15.880287,11.268493 13.335826,13.85199 C 10.791365,16.435487 6.6535461,16.435487 4.1090854,13.85199 C 1.5646244,11.268492 1.5646243,7.0671915 4.1090854,4.4836928 C 5.3813163,3.1919441 7.0538057,2.5557664 8.7224556,2.5557664 z "
         style="color:black;fill:url(#linearGradient6605);fill-opacity:1;fill-rule:nonzero;stroke:none;stroke-width:0.99999982;stroke-linecap:round;stroke-linejoin:round;marker:none;marker-start:none;marker-mid:none;marker-end:none;stroke-miterlimit:4;stroke-dasharray:none;stroke-dashoffset:0;stroke-opacity:1;visibility:visible;display:inline;overflow:visible" />
      <path
         sodipodi:nodetypes="cssssc"
         id="path3797"
         d="M 3.7304091,4.0268547 C 0.77449298,7.1379973 0.83592738,12.066208 3.8871949,15.118828 C 6.9868948,18.219904 12.031333,18.219904 15.131034,15.118828 C 18.230735,12.017752 18.208336,6.9934826 15.108635,3.8924071 C 12.008935,0.79133061 6.9868966,0.76892137 3.8871947,3.8699998 C 3.8387626,3.9184534 3.7773285,3.9774712 3.7304091,4.0268547 z "
         style="color:black;fill:none;fill-opacity:1;fill-rule:nonzero;stroke:url(#linearGradient3953);stroke-width:0.78025419;stroke-linecap:round;stroke-linejoin:round;marker:none;marker-start:none;marker-mid:none;marker-end:none;stroke-miterlimit:4;stroke-dasharray:none;stroke-dashoffset:0;stroke-opacity:1;visibility:visible;display:inline;overflow:visible" />
      <path
         transform="matrix(0.720683,-0.765584,0.720683,0.765584,12.75768,-8.484701)"
         d="M -8.0092163 9.3271885 A 6.1843319 6.1843319 0 1 1  -20.37788,9.3271885 A 6.1843319 6.1843319 0 1 1  -8.0092163 9.3271885 z"
         sodipodi:ry="6.1843319"
         sodipodi:rx="6.1843319"
         sodipodi:cy="9.3271885"
         sodipodi:cx="-14.193548"
         id="path3837"
         style="color:black;fill:url(#radialGradient3969);fill-opacity:1;fill-rule:nonzero;stroke:none;stroke-width:0.5;stroke-linecap:round;stroke-linejoin:round;marker:none;marker-start:none;marker-mid:none;marker-end:none;stroke-miterlimit:4;stroke-dasharray:none;stroke-dashoffset:0;stroke-opacity:1;visibility:visible;display:inline;overflow:visible"
         sodipodi:type="arc" />
      <path
         transform="matrix(0.467307,-0.877037,0.809399,0.506358,4.907171,0.508321)"
         d="M -1.0036354 5.0098858 A 4.372983 3.5127239 0 1 1  -9.7496014,5.0098858 A 4.372983 3.5127239 0 1 1  -1.0036354 5.0098858 z"
         sodipodi:ry="3.5127239"
         sodipodi:rx="4.372983"
         sodipodi:cy="5.0098858"
         sodipodi:cx="-5.3766184"
         id="path3851"
         style="opacity:0.57213931;color:black;fill:url(#radialGradient3967);fill-opacity:1;fill-rule:nonzero;stroke:none;stroke-width:0.5;stroke-linecap:round;stroke-linejoin:round;marker:none;marker-start:none;marker-mid:none;marker-end:none;stroke-miterlimit:4;stroke-dasharray:none;stroke-dashoffset:0;stroke-opacity:1;visibility:visible;display:inline;overflow:visible"
         sodipodi:type="arc" />
      <path
         transform="matrix(0.280384,-0.511605,0.48564,0.295376,11.12604,6.701309)"
         d="M -1.0036354 5.0098858 A 4.372983 3.5127239 0 1 1  -9.7496014,5.0098858 A 4.372983 3.5127239 0 1 1  -1.0036354 5.0098858 z"
         sodipodi:ry="3.5127239"
         sodipodi:rx="4.372983"
         sodipodi:cy="5.0098858"
         sodipodi:cx="-5.3766184"
         id="path3865"
         style="opacity:0.38308459;color:black;fill:url(#radialGradient3965);fill-opacity:1;fill-rule:nonzero;stroke:none;stroke-width:0.5;stroke-linecap:round;stroke-linejoin:round;marker:none;marker-start:none;marker-mid:none;marker-end:none;stroke-miterlimit:4;stroke-dasharray:none;stroke-dashoffset:0;stroke-opacity:1;visibility:visible;display:inline;overflow:visible"
         sodipodi:type="arc" />
      <path
         transform="matrix(0.755433,-0.800557,0.755433,0.800557,12.92679,-9.307296)"
         d="M -8.0092163 9.3271885 A 6.1843319 6.1843319 0 1 1  -20.37788,9.3271885 A 6.1843319 6.1843319 0 1 1  -8.0092163 9.3271885 z"
         sodipodi:ry="6.1843319"
         sodipodi:rx="6.1843319"
         sodipodi:cy="9.3271885"
         sodipodi:cx="-14.193548"
         id="path6607"
         style="color:black;fill:none;fill-opacity:1;fill-rule:nonzero;stroke:url(#linearGradient7488);stroke-width:0.7230863;stroke-linecap:round;stroke-linejoin:round;marker:none;marker-start:none;marker-mid:none;marker-end:none;stroke-miterlimit:4;stroke-dasharray:none;stroke-dashoffset:0;stroke-opacity:1;visibility:visible;display:inline;overflow:visible"
         sodipodi:type="arc" />
    </g>
  </g>
</svg>
