<?xml version="1.0" encoding="UTF-8" standalone="no"?>
<!-- Created with Inkscape (http://www.inkscape.org/) -->
<svg
   xmlns:dc="http://purl.org/dc/elements/1.1/"
   xmlns:cc="http://web.resource.org/cc/"
   xmlns:rdf="http://www.w3.org/1999/02/22-rdf-syntax-ns#"
   xmlns:svg="http://www.w3.org/2000/svg"
   xmlns="http://www.w3.org/2000/svg"
   xmlns:xlink="http://www.w3.org/1999/xlink"
   xmlns:sodipodi="http://inkscape.sourceforge.net/DTD/sodipodi-0.dtd"
   xmlns:inkscape="http://www.inkscape.org/namespaces/inkscape"
   width="48"
   height="48"
   id="svg6492"
   sodipodi:version="0.32"
   inkscape:version="0.43+devel"
   sodipodi:docbase="/home/silvestre/Desktop/Neu/scalable/apps"
   sodipodi:docname="inkscape.svg"
   version="1.0">
  <defs
     id="defs6494">
    <linearGradient
       id="linearGradient5702">
      <stop
         id="stop5704"
         offset="0"
         style="stop-color:#a53114;stop-opacity:1;" />
      <stop
         id="stop5706"
         offset="1"
         style="stop-color:#87250e;stop-opacity:1;" />
    </linearGradient>
    <linearGradient
       inkscape:collect="always"
       id="linearGradient5726">
      <stop
         style="stop-color:black;stop-opacity:0.34334764"
         offset="0"
         id="stop5728" />
      <stop
         style="stop-color:black;stop-opacity:0;"
         offset="1"
         id="stop5730" />
    </linearGradient>
    <linearGradient
       inkscape:collect="always"
       id="linearGradient4831">
      <stop
         style="stop-color:white;stop-opacity:1;"
         offset="0"
         id="stop4833" />
      <stop
         style="stop-color:white;stop-opacity:0.47639486"
         offset="1"
         id="stop4835" />
    </linearGradient>
    <linearGradient
       id="linearGradient12367">
      <stop
         style="stop-color:#000000;stop-opacity:0.30208334;"
         offset="0.0000000"
         id="stop12369" />
      <stop
         style="stop-color:#000000;stop-opacity:0;"
         offset="1"
         id="stop12371" />
    </linearGradient>
    <linearGradient
       inkscape:collect="always"
       id="linearGradient11631">
      <stop
         style="stop-color:#000000;stop-opacity:0.31600001"
         offset="0"
         id="stop11633" />
      <stop
         style="stop-color:#000000;stop-opacity:0;"
         offset="1"
         id="stop11635" />
    </linearGradient>
    <linearGradient
       id="linearGradient8691">
      <stop
         style="stop-color:#e52d00;stop-opacity:1;"
         offset="0"
         id="stop8693" />
      <stop
         style="stop-color:#bf2500;stop-opacity:1.0000000;"
         offset="1.0000000"
         id="stop8695" />
    </linearGradient>
    <linearGradient
       inkscape:collect="always"
       id="linearGradient7957">
      <stop
         style="stop-color:#ffffff;stop-opacity:1;"
         offset="0"
         id="stop7959" />
      <stop
         style="stop-color:#ffffff;stop-opacity:0;"
         offset="1"
         id="stop7961" />
    </linearGradient>
    <linearGradient
       inkscape:collect="always"
       xlink:href="#linearGradient7957"
       id="linearGradient7963"
       x1="37.406208"
       y1="3.1771064"
       x2="44.75386"
       y2="49.288692"
       gradientUnits="userSpaceOnUse" />
    <linearGradient
       inkscape:collect="always"
       xlink:href="#linearGradient8691"
       id="linearGradient8697"
       x1="44.419872"
       y1="47.50985"
       x2="53.103458"
       y2="101.61526"
       gradientUnits="userSpaceOnUse"
       gradientTransform="matrix(0.415327,0,0,0.414176,-3.158893,-4.863743)" />
    <linearGradient
       inkscape:collect="always"
       xlink:href="#linearGradient11631"
       id="linearGradient11637"
       x1="76.482338"
       y1="158.39255"
       x2="77.484291"
       y2="83.702858"
       gradientUnits="userSpaceOnUse"
       gradientTransform="matrix(0.41855,1.710793e-2,-1.710793e-2,0.41855,-1.176734,-5.829958)" />
    <radialGradient
       inkscape:collect="always"
       xlink:href="#linearGradient12367"
       id="radialGradient12373"
       cx="55.608337"
       cy="112.13576"
       fx="55.608337"
       fy="112.13576"
       r="46.590771"
       gradientTransform="matrix(1,0,0,0.247312,1.882178e-16,84.40326)"
       gradientUnits="userSpaceOnUse" />
    <linearGradient
       inkscape:collect="always"
       xlink:href="#linearGradient4831"
       id="linearGradient4837"
       x1="13.693345"
       y1="2.9121568"
       x2="24.474291"
       y2="43.147198"
       gradientUnits="userSpaceOnUse" />
    <linearGradient
       inkscape:collect="always"
       xlink:href="#linearGradient5726"
       id="linearGradient5732"
       x1="20.938927"
       y1="44.018185"
       x2="20.938927"
       y2="38.781044"
       gradientUnits="userSpaceOnUse" />
    <linearGradient
       inkscape:collect="always"
       xlink:href="#linearGradient5702"
       id="linearGradient4827"
       gradientUnits="userSpaceOnUse"
       gradientTransform="matrix(0.471669,0,0,0.424037,-4.494399,-5.527163)"
       x1="44.419872"
       y1="47.50985"
       x2="53.103458"
       y2="101.61526" />
  </defs>
  <sodipodi:namedview
     id="base"
     pagecolor="#ffffff"
     bordercolor="#666666"
     borderopacity="1.0"
     inkscape:pageopacity="0.0"
     inkscape:pageshadow="2"
     inkscape:zoom="1"
     inkscape:cx="24"
     inkscape:cy="24"
     inkscape:document-units="px"
     inkscape:current-layer="layer1"
     showguides="true"
     inkscape:guide-bbox="true"
     inkscape:window-width="823"
     inkscape:window-height="536"
     inkscape:window-x="143"
     inkscape:window-y="95"
     showgrid="false"
     inkscape:showpageshadow="false"
     width="48px"
     height="48px"
     showborder="false" />
  <metadata
     id="metadata6497">
    <rdf:RDF>
      <cc:Work
         rdf:about="">
        <dc:format>image/svg+xml</dc:format>
        <dc:type
           rdf:resource="http://purl.org/dc/dcmitype/StillImage" />
      </cc:Work>
    </rdf:RDF>
  </metadata>
  <g
     inkscape:label="Layer 1"
     inkscape:groupmode="layer"
     id="layer1">
    <path
       style="color:black;fill:url(#linearGradient11637);fill-opacity:1;fill-rule:evenodd;stroke:none;stroke-width:2.79169869;stroke-linecap:round;stroke-linejoin:round;marker:none;marker-start:none;marker-mid:none;marker-end:none;stroke-miterlimit:4;stroke-dashoffset:0;stroke-opacity:1;visibility:visible;display:inline;overflow:visible"
       d="M 19.911285,32.761482 C 24.756286,31.336662 31.655164,30.604392 38.571102,30.887082 C 45.487042,31.169762 49.335954,32.359532 47.575038,33.892212 C 45.814127,35.424892 37.437778,36.150892 32.604457,37.700892 C 27.825605,39.233442 36.672653,41.680132 33.055885,42.973162 C 29.439126,44.266182 21.231329,45.108402 14.315392,44.825712 C 7.3994547,44.543032 4.8594627,43.243302 5.3921367,41.842422 C 5.9248167,40.441542 16.650873,38.485582 18.814683,37.210052 C 20.877347,35.994142 15.066285,34.186302 19.911285,32.761482 z "
       id="path10903"
       sodipodi:nodetypes="czzzzzzzz" />
    <path
       style="color:black;fill:url(#linearGradient4827);fill-opacity:1;fill-rule:evenodd;stroke:#a80000;stroke-width:0.99999958;stroke-linecap:round;stroke-linejoin:round;marker:none;marker-start:none;marker-mid:none;marker-end:none;stroke-miterlimit:4;stroke-dasharray:none;stroke-dashoffset:0;stroke-opacity:1;visibility:visible;display:inline;overflow:visible"
       d="M 17.28125 1.5 C 10.189821 1.5 4.9080975 4.4197742 2.8125 9.09375 C 2.6815252 9.3858735 2.6135709 9.6779615 2.5625 9.96875 C 2.4685118 10.455684 2.4805048 10.955457 2.59375 11.4375 C 3.4149062 15.272966 9.5011192 18.912851 9.65625 22.03125 C 9.8516729 25.95962 3.0906942 32.871373 5.0625 36.96875 C 7.0343068 41.066119 11.75232 44.500002 18.84375 44.5 C 19.10767 44.5 19.363413 44.47801 19.625 44.46875 C 19.903967 44.477889 20.182747 44.5 20.46875 44.5 C 28.2624 44.5 36.032405 40.855235 36.5 35.34375 C 36.967009 29.839185 23.725715 26.788937 25.75 21.8125 C 27.797355 16.779336 35.248774 14.906795 34.03125 9.09375 C 32.86845 3.5419907 26.543652 1.5 18.75 1.5 C 18.485165 1.5 18.228925 1.5245498 17.96875 1.53125 C 17.739418 1.524916 17.513529 1.5 17.28125 1.5 z "
       id="path3952" />
    <path
       sodipodi:type="arc"
       style="opacity:1;color:black;fill:url(#radialGradient12373);fill-opacity:1;fill-rule:evenodd;stroke:none;stroke-width:1;stroke-linecap:round;stroke-linejoin:round;marker:none;marker-start:none;marker-mid:none;marker-end:none;stroke-miterlimit:4;stroke-dasharray:none;stroke-dashoffset:0;stroke-opacity:1;visibility:visible;display:inline;overflow:visible"
       id="path11639"
       sodipodi:cx="55.608337"
       sodipodi:cy="112.13576"
       sodipodi:rx="46.590771"
       sodipodi:ry="11.522449"
       d="M 102.19911 112.13576 A 46.590771 11.522449 0 1 1  9.0175667,112.13576 A 46.590771 11.522449 0 1 1  102.19911 112.13576 z"
       transform="matrix(0.4189,0,0,0.4189,-3.777459,-3.817438)" />
    <path
       style="color:black;fill:url(#linearGradient8697);fill-opacity:1;fill-rule:evenodd;stroke:none;stroke-width:0.99999976;stroke-linecap:round;stroke-linejoin:round;marker:none;marker-start:none;marker-mid:none;marker-end:none;stroke-miterlimit:4;stroke-dasharray:none;stroke-dashoffset:0;stroke-opacity:1;visibility:visible;display:inline;overflow:visible"
       d="M 3.3138742,9.4184842 C 5.3418712,4.8532036 10.45037,2 17.313042,2 C 24.175714,2 29.763402,4.9044025 30.764564,9.4184842 C 31.765729,13.932565 25.283838,16.938009 23.481045,21.854125 C 21.698569,26.714833 34.048878,32.580401 32.927915,36.633689 C 31.806955,40.686968 25.679598,44 18.816925,44 C 11.954252,44 7.3854256,40.635772 5.4772259,36.633689 C 3.5690271,32.631596 10.111292,25.895934 9.9221728,22.058919 C 9.7418929,18.401265 1.2858772,13.983765 3.3138742,9.4184842 z "
       id="rect6500"
       sodipodi:nodetypes="czzzzzzzz" />
    <path
       style="color:black;fill:none;fill-opacity:1.0;fill-rule:evenodd;stroke:url(#linearGradient4837);stroke-width:1.00000036;stroke-linecap:round;stroke-linejoin:round;marker:none;marker-start:none;marker-mid:none;marker-end:none;stroke-miterlimit:4;stroke-dasharray:none;stroke-dashoffset:0;stroke-opacity:0.84549356;visibility:visible;display:inline;overflow:visible"
       d="M 3.5917125,9.7418519 C 4.7911673,5.3334798 10.541676,2.4999991 17.224972,2.4999991 C 23.90827,2.4999991 29.349908,5.3352489 30.324901,9.7418519 C 31.299898,14.148453 24.390879,16.529958 22.901221,21.881404 C 21.417687,27.210853 33.271018,32.853267 32.179355,36.810048 C 31.087694,40.76682 25.372845,43.499993 18.689548,43.499993 C 12.006249,43.499993 7.3561812,39.565268 5.6985189,36.309072 C 4.0071882,32.98674 10.616107,27.176897 10.616107,22.421748 C 10.616107,17.670568 2.3983177,14.127952 3.5917125,9.7418519 z "
       id="path4821"
       sodipodi:nodetypes="czzzzzzzz" />
    <path
       sodipodi:type="arc"
       style="opacity:1;color:black;fill:url(#linearGradient7963);fill-opacity:1;fill-rule:evenodd;stroke:none;stroke-width:4;stroke-linecap:round;stroke-linejoin:round;marker:none;marker-start:none;marker-mid:none;marker-end:none;stroke-miterlimit:4;stroke-dasharray:none;stroke-dashoffset:0;stroke-opacity:1;visibility:visible;display:inline;overflow:visible"
       id="path7229"
       sodipodi:cx="47.425732"
       sodipodi:cy="36.655373"
       sodipodi:rx="29.724577"
       sodipodi:ry="14.528305"
       d="M 77.150309 36.655373 A 29.724577 14.528305 0 1 1  17.701155,36.655373 A 29.724577 14.528305 0 1 1  77.150309 36.655373 z"
       transform="matrix(0.4189,0,0,0.442974,-2.798119,-7.008348)" />
    <path
       style="fill:none;fill-opacity:0.75;fill-rule:evenodd;stroke:#005bff;stroke-width:1;stroke-linecap:round;stroke-linejoin:miter;stroke-miterlimit:4;stroke-dasharray:none;stroke-opacity:1"
       d="M 30.628337,1.6674011 L 32.880324,21.371644"
       id="path9439" />
    <path
       style="fill:none;fill-opacity:0.75;fill-rule:evenodd;stroke:#005bff;stroke-width:1;stroke-linecap:round;stroke-linejoin:miter;stroke-miterlimit:4;stroke-dasharray:none;stroke-opacity:1"
       d="M 3.2730007,25.377042 L 6.2405857,45.685602"
       id="path10167" />
    <rect
       style="opacity:1;color:black;fill:#499aff;fill-opacity:1;fill-rule:evenodd;stroke:#004dae;stroke-width:1.00000012;stroke-linecap:round;stroke-linejoin:round;marker:none;marker-start:none;marker-mid:none;marker-end:none;stroke-miterlimit:4;stroke-dasharray:none;stroke-dashoffset:0;stroke-opacity:1;visibility:visible;display:inline;overflow:visible"
       id="rect9437"
       width="4.0000005"
       height="4.0599566"
       x="2.5000012"
       y="33.499996" />
    <path
       sodipodi:type="arc"
       style="opacity:1;color:black;fill:#499aff;fill-opacity:1;fill-rule:evenodd;stroke:#005bff;stroke-width:2.09562063;stroke-linecap:round;stroke-linejoin:round;marker:none;marker-start:none;marker-mid:none;marker-end:none;stroke-miterlimit:4;stroke-dasharray:none;stroke-dashoffset:0;stroke-opacity:1;visibility:visible;display:inline;overflow:visible"
       id="path10899"
       sodipodi:cx="73.60173"
       sodipodi:cy="12.065799"
       sodipodi:rx="4.216548"
       sodipodi:ry="4.216548"
       d="M 77.818278 12.065799 A 4.216548 4.216548 0 1 1  69.385182,12.065799 A 4.216548 4.216548 0 1 1  77.818278 12.065799 z"
       transform="matrix(0.480067,0,0,0.474322,-31.85795,19.77693)" />
    <path
       sodipodi:type="arc"
       style="opacity:1;color:black;fill:#499aff;fill-opacity:1;fill-rule:evenodd;stroke:#005bff;stroke-width:2.09562063;stroke-linecap:round;stroke-linejoin:round;marker:none;marker-start:none;marker-mid:none;marker-end:none;stroke-miterlimit:4;stroke-dasharray:none;stroke-dashoffset:0;stroke-opacity:1;visibility:visible;display:inline;overflow:visible"
       id="path4815"
       sodipodi:cx="73.60173"
       sodipodi:cy="12.065799"
       sodipodi:rx="4.216548"
       sodipodi:ry="4.216548"
       d="M 77.818278 12.065799 A 4.216548 4.216548 0 1 1  69.385182,12.065799 A 4.216548 4.216548 0 1 1  77.818278 12.065799 z"
       transform="matrix(0.480067,0,0,0.474322,-28.85799,39.77693)"
       inkscape:transform-center-y="0.58447204" />
    <path
       sodipodi:type="arc"
       style="opacity:1;color:black;fill:#499aff;fill-opacity:1;fill-rule:evenodd;stroke:#005bff;stroke-width:2.09562063;stroke-linecap:round;stroke-linejoin:round;marker:none;marker-start:none;marker-mid:none;marker-end:none;stroke-miterlimit:4;stroke-dasharray:none;stroke-dashoffset:0;stroke-opacity:1;visibility:visible;display:inline;overflow:visible"
       id="path4817"
       sodipodi:cx="73.60173"
       sodipodi:cy="12.065799"
       sodipodi:rx="4.216548"
       sodipodi:ry="4.216548"
       d="M 77.818278 12.065799 A 4.216548 4.216548 0 1 1  69.385182,12.065799 A 4.216548 4.216548 0 1 1  77.818278 12.065799 z"
       transform="matrix(0.480067,0,0,0.474322,-2.809536,13.77692)" />
    <path
       sodipodi:type="arc"
       style="opacity:1;color:black;fill:#499aff;fill-opacity:1;fill-rule:evenodd;stroke:#005bff;stroke-width:2.09562063;stroke-linecap:round;stroke-linejoin:round;marker:none;marker-start:none;marker-mid:none;marker-end:none;stroke-miterlimit:4;stroke-dasharray:none;stroke-dashoffset:0;stroke-opacity:1;visibility:visible;display:inline;overflow:visible"
       id="path4819"
       sodipodi:cx="73.60173"
       sodipodi:cy="12.065799"
       sodipodi:rx="4.216548"
       sodipodi:ry="4.216548"
       d="M 77.818278 12.065799 A 4.216548 4.216548 0 1 1  69.385182,12.065799 A 4.216548 4.216548 0 1 1  77.818278 12.065799 z"
       transform="matrix(0.480067,0,0,0.474322,-4.809536,-3.223076)" />
    <path
       style="opacity:0.5;fill:url(#linearGradient5732);fill-opacity:1.0;stroke:none;stroke-width:1;stroke-linecap:round;stroke-linejoin:round;stroke-miterlimit:4;stroke-dashoffset:0;stroke-opacity:0.47639483"
       d="M 30.46875 33.53125 C 28.336701 35.868684 24.211588 38.145404 19.5 38.8125 C 13.524056 39.658612 7.9096708 37.345781 5.84375 34.6875 C 5.6181592 35.1423 5.5 35.635507 5.5 36.15625 C 5.5 39.436792 11.657009 43.999999 19 44 C 26.175999 44 32.593748 40.187455 32.59375 37.15625 C 32.59375 35.832952 31.796543 34.579071 30.46875 33.53125 z "
       id="path4839" />
    <rect
       style="opacity:1;color:black;fill:#499aff;fill-opacity:1;fill-rule:evenodd;stroke:#004dae;stroke-width:1.00000012;stroke-linecap:round;stroke-linejoin:round;marker:none;marker-start:none;marker-mid:none;marker-end:none;stroke-miterlimit:4;stroke-dasharray:none;stroke-dashoffset:0;stroke-opacity:1;visibility:visible;display:inline;overflow:visible"
       id="rect4825"
       width="4.0000005"
       height="4.0599566"
       x="29.5"
       y="8.5" />
  </g>
</svg>
