<?xml version="1.0" encoding="UTF-8" standalone="no"?>
<!-- Created with Inkscape (http://www.inkscape.org/) -->
<svg
   xmlns:dc="http://purl.org/dc/elements/1.1/"
   xmlns:cc="http://web.resource.org/cc/"
   xmlns:rdf="http://www.w3.org/1999/02/22-rdf-syntax-ns#"
   xmlns:svg="http://www.w3.org/2000/svg"
   xmlns="http://www.w3.org/2000/svg"
   xmlns:xlink="http://www.w3.org/1999/xlink"
   xmlns:sodipodi="http://inkscape.sourceforge.net/DTD/sodipodi-0.dtd"
   xmlns:inkscape="http://www.inkscape.org/namespaces/inkscape"
   width="48"
   height="48"
   id="svg2"
   sodipodi:version="0.32"
   inkscape:version="0.43+devel"
   version="1.0"
   sodipodi:docbase="/home/silvestre/Neu/scalable/apps"
   sodipodi:docname="help-browser.svg">
  <defs
     id="defs4">
    <linearGradient
       inkscape:collect="always"
       id="linearGradient7752">
      <stop
         style="stop-color:#000000;stop-opacity:0.36909872"
         offset="0"
         id="stop7754" />
      <stop
         style="stop-color:#000000;stop-opacity:0;"
         offset="1"
         id="stop7756" />
    </linearGradient>
    <linearGradient
       inkscape:collect="always"
       id="linearGradient5996">
      <stop
         style="stop-color:#000000;stop-opacity:0.19313304"
         offset="0"
         id="stop5998" />
      <stop
         style="stop-color:#000000;stop-opacity:0;"
         offset="1"
         id="stop6000" />
    </linearGradient>
    <linearGradient
       inkscape:collect="always"
       id="linearGradient5104">
      <stop
         style="stop-color:#000000;stop-opacity:1;"
         offset="0"
         id="stop5106" />
      <stop
         style="stop-color:#000000;stop-opacity:0;"
         offset="1"
         id="stop5108" />
    </linearGradient>
    <linearGradient
       inkscape:collect="always"
       id="linearGradient4197">
      <stop
         style="stop-color:#ffffff;stop-opacity:1;"
         offset="0"
         id="stop4199" />
      <stop
         style="stop-color:#ffffff;stop-opacity:0;"
         offset="1"
         id="stop4201" />
    </linearGradient>
    <linearGradient
       inkscape:collect="always"
       id="linearGradient4187">
      <stop
         style="stop-color:#ffffff;stop-opacity:1;"
         offset="0"
         id="stop4189" />
      <stop
         style="stop-color:#ffffff;stop-opacity:0.27843139"
         offset="1"
         id="stop4191" />
    </linearGradient>
    <linearGradient
       id="linearGradient4176">
      <stop
         style="stop-color:#51a0f8;stop-opacity:1;"
         offset="0"
         id="stop4178" />
      <stop
         style="stop-color:#0263d0;stop-opacity:1;"
         offset="1"
         id="stop4180" />
    </linearGradient>
    <linearGradient
       inkscape:collect="always"
       xlink:href="#linearGradient4187"
       id="linearGradient4193"
       x1="75.787148"
       y1="3.4719357"
       x2="57.994637"
       y2="98.832764"
       gradientUnits="userSpaceOnUse"
       gradientTransform="matrix(0.378486,0,0,0.418327,-0.644987,-4.569779)" />
    <radialGradient
       inkscape:collect="always"
       xlink:href="#linearGradient4197"
       id="radialGradient4203"
       cx="62.970509"
       cy="48.729244"
       fx="62.970509"
       fy="33.755856"
       r="32.085793"
       gradientTransform="matrix(0.430263,0,0,0.325036,-5.125817,-0.134742)"
       gradientUnits="userSpaceOnUse" />
    <radialGradient
       inkscape:collect="always"
       xlink:href="#linearGradient4176"
       id="radialGradient4227"
       gradientUnits="userSpaceOnUse"
       cx="67.655052"
       cy="76.752853"
       fx="67.655052"
       fy="76.752853"
       r="49.918098"
       gradientTransform="matrix(0.432475,0,0,0.452376,-1.91343,-2.865935)" />
    <radialGradient
       inkscape:collect="always"
       xlink:href="#linearGradient5104"
       id="radialGradient5113"
       gradientUnits="userSpaceOnUse"
       gradientTransform="matrix(0.34868,0,0,7.72303e-2,1.743401,34.75497)"
       cx="52.5"
       cy="114"
       fx="50.669872"
       fy="145.41862"
       r="57.5" />
    <linearGradient
       inkscape:collect="always"
       xlink:href="#linearGradient5996"
       id="linearGradient6002"
       x1="17.101027"
       y1="141.30928"
       x2="111.17001"
       y2="86.99852"
       gradientUnits="userSpaceOnUse"
       gradientTransform="matrix(0.378285,0,0,0.378285,-0.189143,-0.32181)" />
    <linearGradient
       inkscape:collect="always"
       xlink:href="#linearGradient7752"
       id="linearGradient7758"
       x1="113.84499"
       y1="63.299728"
       x2="36.392986"
       y2="63.299728"
       gradientUnits="userSpaceOnUse"
       gradientTransform="matrix(0.411136,0,0,0.408366,-0.30793,-3.877643)" />
  </defs>
  <sodipodi:namedview
     id="base"
     pagecolor="#ffffff"
     bordercolor="#666666"
     borderopacity="1.0"
     inkscape:pageopacity="0.0"
     inkscape:pageshadow="2"
     inkscape:zoom="1"
     inkscape:cx="24"
     inkscape:cy="24"
     inkscape:document-units="px"
     inkscape:current-layer="layer1"
     inkscape:window-width="823"
     inkscape:window-height="536"
     inkscape:window-x="70"
     inkscape:window-y="123"
     inkscape:showpageshadow="false"
     width="48px"
     height="48px"
     showgrid="false"
     showborder="false" />
  <metadata
     id="metadata7">
    <rdf:RDF>
      <cc:Work
         rdf:about="">
        <dc:format>image/svg+xml</dc:format>
        <dc:type
           rdf:resource="http://purl.org/dc/dcmitype/StillImage" />
      </cc:Work>
    </rdf:RDF>
  </metadata>
  <g
     inkscape:label="Capa 1"
     inkscape:groupmode="layer"
     id="layer1">
    <path
       style="fill:url(#linearGradient6002);fill-opacity:1;stroke:none;stroke-width:3.00000095;stroke-linecap:round;stroke-linejoin:miter;stroke-miterlimit:4;stroke-dashoffset:0;stroke-opacity:1"
       d="M 47.144342,41.66428 C 43.957506,44.41418 32.792911,46.64597 22.22338,46.64597 C 11.65385,46.64597 5.6621049,44.41418 8.8489433,41.66428 C 12.035786,38.91439 23.200376,36.68259 33.769906,36.68259 C 44.339437,36.68259 50.331186,38.91439 47.144342,41.66428 z "
       id="path5119" />
    <path
       style="opacity:0.43096236;fill:url(#radialGradient5113);fill-opacity:1;stroke:none;stroke-width:2;stroke-linecap:round;stroke-linejoin:miter;stroke-miterlimit:4;stroke-dashoffset:0;stroke-opacity:1"
       d="M 40.098219,43.55926 C 40.098219,46.01055 31.116218,48 20.049109,48 C 8.9820009,48 0,46.01055 0,43.55926 C 0,41.10797 8.9820009,39.11852 20.049109,39.11852 C 31.116218,39.11852 40.098219,41.10797 40.098219,43.55926 z "
       id="path4229" />
    <path
       style="fill:url(#radialGradient4227);fill-opacity:1;stroke:#04448c;stroke-width:1.00000048;stroke-linecap:round;stroke-linejoin:miter;stroke-miterlimit:4;stroke-dasharray:none;stroke-dashoffset:0;stroke-opacity:1"
       d="M 43.50002,24.533728 C 43.50002,36.659125 34.092016,46.500022 22.50001,46.500022 C 10.908004,46.500022 1.5000001,36.659125 1.5000001,24.533728 C 1.5000001,12.408329 10.908004,2.5674271 22.50001,2.5674271 C 34.092016,2.5674271 43.50002,12.408329 43.50002,24.533728 z "
       id="path3305" />
    <path
       style="fill:none;fill-opacity:1;stroke:url(#linearGradient7758);stroke-width:2;stroke-linecap:round;stroke-linejoin:miter;stroke-miterlimit:4;stroke-dasharray:none;stroke-dashoffset:0;stroke-opacity:1"
       d="M 42.000006,24.500005 C 42.000006,35.816003 33.264006,45.000004 22.500002,45.000004 C 11.736002,45.000004 3.0000002,35.816003 3.0000002,24.500005 C 3.0000002,13.184001 11.736002,4.0000005 22.500002,4.0000005 C 33.264006,4.0000005 42.000006,13.184001 42.000006,24.500005 z "
       id="path6877" />
    <path
       style="fill:none;fill-opacity:1;stroke:url(#linearGradient4193);stroke-width:0.99999994;stroke-linecap:round;stroke-linejoin:miter;stroke-miterlimit:4;stroke-dasharray:none;stroke-dashoffset:0;stroke-opacity:1"
       d="M 40.500005,24.499999 C 40.500005,36.091995 31.988004,45.499992 21.500003,45.499992 C 11.012001,45.499992 2.5,36.091995 2.5,24.499999 C 2.5,12.907998 11.012001,3.5000005 21.500003,3.5000005 C 31.988004,3.5000005 40.500005,12.907998 40.500005,24.499999 z "
       id="path4185" />
    <path
       style="opacity:0.5690377;fill:url(#radialGradient4203);fill-opacity:1;stroke:none;stroke-width:2;stroke-linecap:round;stroke-linejoin:miter;stroke-miterlimit:4;stroke-dashoffset:0;stroke-opacity:0.27843137"
       d="M 35.773446,15.704015 C 35.773446,21.460849 29.588651,26.133063 21.968098,26.133063 C 14.347547,26.133063 8.162751,21.460849 8.162751,15.704015 C 8.162751,9.9471834 14.347547,5.2749729 21.968098,5.2749729 C 29.588651,5.2749729 35.773446,9.9471834 35.773446,15.704015 z "
       id="path4195" />
    <path
       style="font-size:8px;font-style:normal;font-variant:normal;font-weight:bold;font-stretch:normal;text-align:start;line-height:125%;writing-mode:lr-tb;text-anchor:start;fill:white;fill-opacity:1;stroke:none;stroke-width:1px;stroke-linecap:butt;stroke-linejoin:miter;stroke-opacity:1;font-family:Bitstream Vera Sans"
       d="M 22.70022,28.807258 L 17.170675,28.573034 L 17.170675,27.810668 C 17.170672,26.96016 17.339162,26.442397 17.676149,25.788943 C 18.013123,25.125141 18.722822,24.28498 19.805249,23.268492 L 20.785556,22.366111 C 21.367607,21.826773 21.791381,21.318528 22.056892,20.841401 C 22.332593,20.364294 22.470449,19.887166 22.47046,19.410027 C 22.470449,18.683993 22.225371,18.118708 21.735229,17.714174 C 21.245069,17.299303 20.560897,17.091857 19.682711,17.091841 C 18.855573,17.091857 17.962066,17.619533 17.002189,17.97217 C 16.0423,18.31447 15.041571,19.179244 14,19.863794 L 14,15.329826 C 15.23559,14.894215 16.363962,13.869981 17.38512,13.662514 C 18.406265,13.455092 19.391677,13.000023 20.341355,13 C 22.832958,13.000023 24.732302,13.518633 26.039386,14.555832 C 27.346449,15.582703 27.999985,17.086671 28,19.067741 C 27.999985,20.08424 27.800862,20.99699 27.402625,21.806014 C 27.004362,22.604691 26.325295,23.465578 25.365426,24.388696 L 24.38512,25.275514 C 23.690726,25.918611 23.236314,26.437214 23.021883,26.831351 C 22.80743,27.215132 22.700208,27.640396 22.70022,28.107135 L 22.70022,28.807258 M 17.170675,31.109898 L 22.70022,31.344131 L 22.70022,37 L 17.170675,35.945957 L 17.170675,31.109898"
       id="text5082"
       sodipodi:nodetypes="cccccccscscccsscsccccccccccc" />
    <path
       style="fill:none;fill-opacity:1;stroke:white;stroke-width:3.00000143;stroke-linecap:round;stroke-linejoin:miter;stroke-miterlimit:4;stroke-dasharray:none;stroke-dashoffset:0;stroke-opacity:0.91845494"
       d="M 36.499978,24.500015 C 36.499978,33.884031 29.555984,41.500043 20.999988,41.500043 C 12.443994,41.500043 5.4999991,33.884031 5.4999991,24.500015 C 5.4999991,15.116013 12.443994,7.5000044 20.999988,7.5000044 C 29.555984,7.5000044 36.499978,15.116013 36.499978,24.500015 z "
       id="path3333" />
  </g>
</svg>
