<?xml version="1.0" encoding="UTF-8" standalone="no"?>
<!-- Created with Inkscape (http://www.inkscape.org/) -->
<svg
   xmlns:dc="http://purl.org/dc/elements/1.1/"
   xmlns:cc="http://web.resource.org/cc/"
   xmlns:rdf="http://www.w3.org/1999/02/22-rdf-syntax-ns#"
   xmlns:svg="http://www.w3.org/2000/svg"
   xmlns="http://www.w3.org/2000/svg"
   xmlns:xlink="http://www.w3.org/1999/xlink"
   xmlns:sodipodi="http://inkscape.sourceforge.net/DTD/sodipodi-0.dtd"
   xmlns:inkscape="http://www.inkscape.org/namespaces/inkscape"
   sodipodi:docname="internet-ftp-client.svg"
   sodipodi:docbase="/home/silvestre/Desktop/Neu/scalable/apps"
   inkscape:version="0.43+devel"
   sodipodi:version="0.32"
   id="svg2"
   height="48"
   width="48"
   version="1.0"
   inkscape:export-filename="/home/silvestre/Neu/scalable/actions/document-open.png"
   inkscape:export-xdpi="90"
   inkscape:export-ydpi="90">
  <defs
     id="defs3">
    <linearGradient
       inkscape:collect="always"
       id="linearGradient2871">
      <stop
         style="stop-color:#ffa740;stop-opacity:1;"
         offset="0"
         id="stop2873" />
      <stop
         style="stop-color:#bf731a;stop-opacity:1"
         offset="1"
         id="stop2875" />
    </linearGradient>
    <linearGradient
       id="linearGradient2865">
      <stop
         style="stop-color:#ffa740;stop-opacity:1;"
         offset="0"
         id="stop2867" />
      <stop
         style="stop-color:#ca6b18;stop-opacity:1"
         offset="1"
         id="stop2869" />
    </linearGradient>
    <linearGradient
       inkscape:collect="always"
       id="linearGradient2857">
      <stop
         style="stop-color:white;stop-opacity:1;"
         offset="0"
         id="stop2859" />
      <stop
         style="stop-color:white;stop-opacity:0.21960784"
         offset="1"
         id="stop2861" />
    </linearGradient>
    <linearGradient
       id="linearGradient11317">
      <stop
         id="stop11319"
         offset="0.00000000"
         style="stop-color:#000000;stop-opacity:0.48958334;" />
      <stop
         id="stop11321"
         offset="1"
         style="stop-color:#000000;stop-opacity:0;" />
    </linearGradient>
    <linearGradient
       id="linearGradient10475"
       inkscape:collect="always">
      <stop
         id="stop10477"
         offset="0"
         style="stop-color:#ffffff;stop-opacity:1;" />
      <stop
         id="stop10479"
         offset="1"
         style="stop-color:#ffffff;stop-opacity:0;" />
    </linearGradient>
    <linearGradient
       id="linearGradient10465">
      <stop
         id="stop10467"
         offset="0"
         style="stop-color:#ffa740;stop-opacity:1;" />
      <stop
         id="stop10469"
         offset="1"
         style="stop-color:#d57827;stop-opacity:1;" />
    </linearGradient>
    <linearGradient
       id="linearGradient10457">
      <stop
         id="stop10459"
         offset="0.00000000"
         style="stop-color:#000000;stop-opacity:0.32291666;" />
      <stop
         id="stop10461"
         offset="1"
         style="stop-color:#000000;stop-opacity:0;" />
    </linearGradient>
    <linearGradient
       id="linearGradient8158">
      <stop
         id="stop8160"
         offset="0.00000000"
         style="stop-color:#000000;stop-opacity:0.73958331;" />
      <stop
         id="stop8162"
         offset="1"
         style="stop-color:#000000;stop-opacity:0;" />
    </linearGradient>
    <linearGradient
       id="linearGradient5866">
      <stop
         id="stop5868"
         offset="0.00000000"
         style="stop-color:#ffffff;stop-opacity:0.61458331;" />
      <stop
         id="stop5870"
         offset="1"
         style="stop-color:#ffffff;stop-opacity:0;" />
    </linearGradient>
    <linearGradient
       id="linearGradient5098"
       inkscape:collect="always">
      <stop
         id="stop5100"
         offset="0"
         style="stop-color:#ae5b00;stop-opacity:1;" />
      <stop
         id="stop5102"
         offset="1"
         style="stop-color:#ae5b00;stop-opacity:0;" />
    </linearGradient>
    <radialGradient
       inkscape:collect="always"
       xlink:href="#linearGradient10457"
       id="radialGradient1351"
       gradientUnits="userSpaceOnUse"
       gradientTransform="scale(2.110067,0.473919)"
       cx="24.734711"
       cy="210.29031"
       fx="24.734711"
       fy="210.29031"
       r="20.929369" />
    <linearGradient
       inkscape:collect="always"
       xlink:href="#linearGradient11317"
       id="linearGradient1353"
       gradientUnits="userSpaceOnUse"
       gradientTransform="matrix(1.306581,0,0,0.629477,15.21832,-1.158036e-15)"
       x1="42.721756"
       y1="178.63835"
       x2="62.504456"
       y2="157.02299" />
    <linearGradient
       inkscape:collect="always"
       xlink:href="#linearGradient8158"
       id="linearGradient1355"
       gradientUnits="userSpaceOnUse"
       gradientTransform="matrix(1.019804,0,0,0.980581,1.872959e-17,6)"
       x1="22.531561"
       y1="95.898132"
       x2="49.017395"
       y2="27.309816" />
    <linearGradient
       inkscape:collect="always"
       xlink:href="#linearGradient10465"
       id="linearGradient1357"
       gradientUnits="userSpaceOnUse"
       gradientTransform="matrix(1.095691,0,0,0.912666,1.872959e-17,4)"
       x1="39.661476"
       y1="113.42223"
       x2="41.862434"
       y2="43.16671" />
    <linearGradient
       inkscape:collect="always"
       xlink:href="#linearGradient5098"
       id="linearGradient1359"
       gradientUnits="userSpaceOnUse"
       gradientTransform="matrix(1.093489,0,0,0.914504,1.872959e-17,6)"
       x1="29.539867"
       y1="74.338982"
       x2="7.0335331"
       y2="73.219803" />
    <linearGradient
       inkscape:collect="always"
       xlink:href="#linearGradient5866"
       id="linearGradient1361"
       gradientUnits="userSpaceOnUse"
       gradientTransform="matrix(1.311889,0,0,0.76226,1.872959e-17,6)"
       x1="30.223124"
       y1="28.559177"
       x2="30.810305"
       y2="95.25663" />
    <linearGradient
       inkscape:collect="always"
       xlink:href="#linearGradient10475"
       id="linearGradient1363"
       gradientUnits="userSpaceOnUse"
       gradientTransform="matrix(1.830301,0,0,0.546358,1.872959e-17,4)"
       x1="34.211731"
       y1="28.907038"
       x2="37.014332"
       y2="52.198448" />
    <linearGradient
       inkscape:collect="always"
       xlink:href="#linearGradient10475"
       id="linearGradient2837"
       gradientUnits="userSpaceOnUse"
       gradientTransform="matrix(0.867558,0,0,0.289185,-2.059701,-6.499992)"
       x1="34.211731"
       y1="28.907038"
       x2="37.014332"
       y2="52.198448" />
    <linearGradient
       inkscape:collect="always"
       xlink:href="#linearGradient5866"
       id="linearGradient2840"
       gradientUnits="userSpaceOnUse"
       gradientTransform="matrix(0.624329,0,0,0.345144,-2.314271,-2.12809)"
       x1="30.223124"
       y1="28.559177"
       x2="30.810305"
       y2="95.25663" />
    <linearGradient
       inkscape:collect="always"
       xlink:href="#linearGradient2865"
       id="linearGradient2843"
       gradientUnits="userSpaceOnUse"
       gradientTransform="matrix(0.527789,0,0,0.427758,-1.911711,-4.317301)"
       x1="42.137558"
       y1="68.160683"
       x2="42.137558"
       y2="105.10196" />
    <linearGradient
       inkscape:collect="always"
       xlink:href="#linearGradient5098"
       id="linearGradient2845"
       gradientUnits="userSpaceOnUse"
       gradientTransform="matrix(0.526729,0,0,0.428621,-1.911711,-3.379913)"
       x1="29.539867"
       y1="74.338982"
       x2="7.0335331"
       y2="73.219803" />
    <linearGradient
       inkscape:collect="always"
       xlink:href="#linearGradient8158"
       id="linearGradient2849"
       gradientUnits="userSpaceOnUse"
       gradientTransform="matrix(0.483204,0,0,0.47061,-0.287594,-4.714333)"
       x1="22.531561"
       y1="95.898132"
       x2="49.017395"
       y2="27.309816" />
    <linearGradient
       inkscape:collect="always"
       xlink:href="#linearGradient2857"
       id="linearGradient2863"
       x1="17.033184"
       y1="38.662212"
       x2="56.610294"
       y2="108.22483"
       gradientUnits="userSpaceOnUse"
       gradientTransform="matrix(0.413232,0,0,0.404856,-4.298054,-2.76219)" />
    <linearGradient
       inkscape:collect="always"
       xlink:href="#linearGradient2871"
       id="linearGradient2877"
       x1="113.84419"
       y1="76.00531"
       x2="113.84419"
       y2="101.19212"
       gradientUnits="userSpaceOnUse"
       gradientTransform="matrix(0.417654,0,0,0.416925,-3.974064,-3.895857)" />
    <linearGradient
       gradientUnits="userSpaceOnUse"
       y2="194.2787"
       x2="134.90021"
       y1="53.314114"
       x1="134.90021"
       id="linearGradient5091"
       xlink:href="#linearGradient5085"
       inkscape:collect="always"
       gradientTransform="matrix(0.978618,0,0,0.978618,2.743695,2.790816)" />
    <linearGradient
       gradientTransform="matrix(1.44542,0,0,1.44542,-127.1499,-108.5803)"
       gradientUnits="userSpaceOnUse"
       y2="206.33525"
       x2="189.93413"
       y1="86.200233"
       x1="128.18875"
       id="linearGradient2799"
       xlink:href="#linearGradient2793"
       inkscape:collect="always" />
    <linearGradient
       gradientTransform="matrix(0.921905,0,0,0.921905,9.95315,9.779038)"
       y2="191.4617"
       x2="58.776798"
       y1="8.8970003"
       x1="183.60741"
       gradientUnits="userSpaceOnUse"
       id="linearGradient7"
       xlink:href="#XMLID_1_"
       inkscape:collect="always" />
    <radialGradient
       gradientTransform="matrix(0.921905,0,0,0.921905,9.95315,9.779038)"
       r="163.8273"
       fy="247.7744"
       fx="121.4478"
       cy="247.7744"
       cx="121.4478"
       gradientUnits="userSpaceOnUse"
       id="radialGradient6"
       xlink:href="#XMLID_2_"
       inkscape:collect="always" />
    <radialGradient
       gradientUnits="userSpaceOnUse"
       fy="247.7744"
       fx="121.4478"
       r="163.8273"
       cy="247.7744"
       cx="121.4478"
       id="XMLID_2_">
      <stop
         id="stop166"
         style="stop-color:#CA002D"
         offset="0" />
      <stop
         id="stop167"
         style="stop-color:#FF0000"
         offset="1" />
    </radialGradient>
    <linearGradient
       y2="191.4617"
       x2="58.776798"
       y1="8.8970003"
       x1="183.60741"
       gradientUnits="userSpaceOnUse"
       id="XMLID_1_">
      <stop
         id="stop159"
         style="stop-color:#FFFFFF"
         offset="0" />
      <stop
         id="stop160"
         style="stop-color:#FF0000"
         offset="1" />
    </linearGradient>
    <linearGradient
       id="linearGradient1726">
      <stop
         id="stop1727"
         offset="0.0000000"
         style="stop-color:#fffb00;stop-opacity:1.0000000;" />
      <stop
         id="stop1728"
         offset="1.0000000"
         style="stop-color:#ff9c00;stop-opacity:1.0000000;" />
    </linearGradient>
    <linearGradient
       id="linearGradient1733">
      <stop
         id="stop1734"
         offset="0.0000000"
         style="stop-color:#ffffff;stop-opacity:0.76991153;" />
      <stop
         id="stop1735"
         offset="1"
         style="stop-color:#ffffff;stop-opacity:0;" />
    </linearGradient>
    <linearGradient
       id="linearGradient2068">
      <stop
         id="stop2070"
         offset="0.0000000"
         style="stop-color:#000000;stop-opacity:0.25000000;" />
      <stop
         id="stop2072"
         offset="1"
         style="stop-color:#000000;stop-opacity:0;" />
    </linearGradient>
    <linearGradient
       id="linearGradient2793"
       inkscape:collect="always">
      <stop
         id="stop2795"
         offset="0"
         style="stop-color:#ffffff;stop-opacity:1;" />
      <stop
         id="stop2797"
         offset="1"
         style="stop-color:#ffffff;stop-opacity:0;" />
    </linearGradient>
    <linearGradient
       id="linearGradient5085"
       inkscape:collect="always">
      <stop
         id="stop5087"
         offset="0"
         style="stop-color:#ffffff;stop-opacity:1;" />
      <stop
         id="stop5089"
         offset="1"
         style="stop-color:#ffffff;stop-opacity:0.60085839" />
    </linearGradient>
    <radialGradient
       r="2.8510637"
       fy="14.425532"
       fx="25.148935"
       cy="14.425532"
       cx="25.148935"
       gradientUnits="userSpaceOnUse"
       id="radialGradient5985"
       xlink:href="#linearGradient5971"
       inkscape:collect="always" />
    <radialGradient
       r="2.8510637"
       fy="14.425532"
       fx="25.148935"
       cy="14.425532"
       cx="25.148935"
       gradientUnits="userSpaceOnUse"
       id="radialGradient5981"
       xlink:href="#linearGradient5971"
       inkscape:collect="always" />
    <radialGradient
       gradientUnits="userSpaceOnUse"
       r="2.8510637"
       fy="14.425532"
       fx="25.148935"
       cy="14.425532"
       cx="25.148935"
       id="radialGradient5977"
       xlink:href="#linearGradient5971"
       inkscape:collect="always" />
    <linearGradient
       y2="21.336346"
       x2="-21.962101"
       y1="15.649428"
       x1="-21.658581"
       gradientUnits="userSpaceOnUse"
       id="linearGradient5094"
       xlink:href="#linearGradient6001"
       inkscape:collect="always" />
    <linearGradient
       y2="22.661524"
       x2="-22.113543"
       y1="28.337734"
       x1="-22.822565"
       gradientUnits="userSpaceOnUse"
       id="linearGradient5092"
       xlink:href="#linearGradient6001"
       inkscape:collect="always" />
    <linearGradient
       y2="22.661524"
       x2="-22.113543"
       y1="30.057165"
       x1="-25.176178"
       gradientUnits="userSpaceOnUse"
       id="linearGradient5090"
       xlink:href="#linearGradient6001"
       inkscape:collect="always" />
    <linearGradient
       y2="21.041553"
       x2="-22.252472"
       y1="30.057165"
       x1="-25.176178"
       gradientUnits="userSpaceOnUse"
       id="linearGradient5088"
       xlink:href="#linearGradient6001"
       inkscape:collect="always" />
    <linearGradient
       inkscape:collect="always"
       id="linearGradient6001">
      <stop
         style="stop-color:#ffffff;stop-opacity:1;"
         offset="0"
         id="stop6003" />
      <stop
         style="stop-color:#ffffff;stop-opacity:0;"
         offset="1"
         id="stop6005" />
    </linearGradient>
    <radialGradient
       r="56.442806"
       fy="119.52609"
       fx="64.841805"
       cy="119.52609"
       cx="64.841805"
       gradientTransform="matrix(0.224024,2.512926e-17,-2.393278e-17,0.247884,5.94701,11.11514)"
       gradientUnits="userSpaceOnUse"
       id="radialGradient3949"
       xlink:href="#linearGradient4308"
       inkscape:collect="always" />
    <linearGradient
       gradientUnits="userSpaceOnUse"
       y2="121.82737"
       x2="59.64286"
       y1="14.832381"
       x1="59.64286"
       id="linearGradient4212"
       xlink:href="#linearGradient4206"
       inkscape:collect="always" />
    <linearGradient
       gradientUnits="userSpaceOnUse"
       y2="21.705061"
       x2="83.525612"
       y1="367.82727"
       x1="29.183714"
       id="linearGradient6540"
       xlink:href="#linearGradient6534"
       inkscape:collect="always" />
    <radialGradient
       gradientUnits="userSpaceOnUse"
       gradientTransform="matrix(0.91358,2.206993e-7,-4.100829e-8,0.169753,4.848958,95.59596)"
       r="54.105412"
       fy="136.4689"
       fx="56.109314"
       cy="115.14162"
       cx="56.109314"
       id="radialGradient6525"
       xlink:href="#linearGradient6519"
       inkscape:collect="always" />
    <linearGradient
       gradientTransform="matrix(0.337704,0,0,0.385252,-1.697598,-1.778514)"
       y2="69.195572"
       x2="67.070114"
       y1="-18.184502"
       x1="70.848709"
       gradientUnits="userSpaceOnUse"
       id="linearGradient5063"
       xlink:href="#linearGradient5044"
       inkscape:collect="always" />
    <radialGradient
       gradientTransform="matrix(1.119035,5.340557e-16,-5.627992e-16,1.119035,-6.268888,-7.140347)"
       r="56.442806"
       fy="59.985241"
       fx="52.664207"
       cy="59.985241"
       cx="52.664207"
       gradientUnits="userSpaceOnUse"
       id="radialGradient5059"
       xlink:href="#linearGradient2087"
       inkscape:collect="always" />
    <linearGradient
       id="linearGradient2087">
      <stop
         id="stop2089"
         offset="0"
         style="stop-color:#5ab9ff;stop-opacity:1;" />
      <stop
         style="stop-color:#007be4;stop-opacity:1;"
         offset="0.0000000"
         id="stop2816" />
      <stop
         id="stop2818"
         offset="0.75"
         style="stop-color:#005eb5;stop-opacity:1;" />
      <stop
         id="stop2091"
         offset="1"
         style="stop-color:#004d9b;stop-opacity:1;" />
    </linearGradient>
    <linearGradient
       id="linearGradient4308">
      <stop
         id="stop4310"
         offset="0.0000000"
         style="stop-color:#ffffff;stop-opacity:0.22916669;" />
      <stop
         id="stop4312"
         offset="1"
         style="stop-color:#ffffff;stop-opacity:0;" />
    </linearGradient>
    <linearGradient
       id="linearGradient5044"
       inkscape:collect="always">
      <stop
         id="stop5046"
         offset="0"
         style="stop-color:#ffffff;stop-opacity:1;" />
      <stop
         id="stop5048"
         offset="1"
         style="stop-color:#ffffff;stop-opacity:0;" />
    </linearGradient>
    <linearGradient
       id="linearGradient6519"
       inkscape:collect="always">
      <stop
         id="stop6521"
         offset="0"
         style="stop-color:black;stop-opacity:0.39215687" />
      <stop
         id="stop6523"
         offset="1"
         style="stop-color:#000000;stop-opacity:0;" />
    </linearGradient>
    <linearGradient
       id="linearGradient6534"
       inkscape:collect="always">
      <stop
         id="stop6536"
         offset="0"
         style="stop-color:#000000;stop-opacity:0.39600000" />
      <stop
         id="stop6538"
         offset="1"
         style="stop-color:#000000;stop-opacity:0;" />
    </linearGradient>
    <linearGradient
       id="linearGradient4206"
       inkscape:collect="always">
      <stop
         id="stop4208"
         offset="0"
         style="stop-color:#ffffff;stop-opacity:1;" />
      <stop
         id="stop4210"
         offset="1"
         style="stop-color:#ffffff;stop-opacity:0.36909872" />
    </linearGradient>
    <linearGradient
       id="linearGradient5971"
       inkscape:collect="always">
      <stop
         id="stop5973"
         offset="0"
         style="stop-color:white;stop-opacity:1;" />
      <stop
         id="stop5975"
         offset="1"
         style="stop-color:white;stop-opacity:0;" />
    </linearGradient>
    <linearGradient
       inkscape:collect="always"
       xlink:href="#linearGradient6534"
       id="linearGradient4706"
       gradientUnits="userSpaceOnUse"
       x1="29.183714"
       y1="367.82727"
       x2="83.525612"
       y2="21.705061" />
    <radialGradient
       inkscape:collect="always"
       xlink:href="#linearGradient6519"
       id="radialGradient4708"
       gradientUnits="userSpaceOnUse"
       gradientTransform="matrix(0.91358,2.206993e-7,-4.100829e-8,0.169753,4.848958,95.59596)"
       cx="56.109314"
       cy="115.14162"
       fx="56.109314"
       fy="136.4689"
       r="54.105412" />
    <radialGradient
       inkscape:collect="always"
       xlink:href="#linearGradient2087"
       id="radialGradient4710"
       gradientUnits="userSpaceOnUse"
       gradientTransform="matrix(1.119035,5.340557e-16,-5.627992e-16,1.119035,-6.268888,-7.140347)"
       cx="52.664207"
       cy="59.985241"
       fx="52.664207"
       fy="59.985241"
       r="56.442806" />
    <radialGradient
       inkscape:collect="always"
       xlink:href="#linearGradient4308"
       id="radialGradient4712"
       gradientUnits="userSpaceOnUse"
       gradientTransform="matrix(0.224024,2.512926e-17,-2.393278e-17,0.247884,5.94701,11.11514)"
       cx="64.841805"
       cy="119.52609"
       fx="64.841805"
       fy="119.52609"
       r="56.442806" />
    <linearGradient
       inkscape:collect="always"
       xlink:href="#linearGradient5044"
       id="linearGradient4714"
       gradientUnits="userSpaceOnUse"
       gradientTransform="matrix(0.337704,0,0,0.385252,-1.697598,-1.778514)"
       x1="70.848709"
       y1="-18.184502"
       x2="67.070114"
       y2="69.195572" />
    <linearGradient
       inkscape:collect="always"
       xlink:href="#linearGradient4206"
       id="linearGradient4716"
       gradientUnits="userSpaceOnUse"
       x1="59.64286"
       y1="14.832381"
       x2="59.64286"
       y2="121.82737" />
    <linearGradient
       inkscape:collect="always"
       xlink:href="#linearGradient6001"
       id="linearGradient4718"
       gradientUnits="userSpaceOnUse"
       x1="-25.176178"
       y1="30.057165"
       x2="-22.252472"
       y2="21.041553" />
    <linearGradient
       inkscape:collect="always"
       xlink:href="#linearGradient6001"
       id="linearGradient4720"
       gradientUnits="userSpaceOnUse"
       x1="-25.176178"
       y1="30.057165"
       x2="-22.113543"
       y2="22.661524" />
    <linearGradient
       inkscape:collect="always"
       xlink:href="#linearGradient6001"
       id="linearGradient4722"
       gradientUnits="userSpaceOnUse"
       x1="-22.822565"
       y1="28.337734"
       x2="-22.113543"
       y2="22.661524" />
    <linearGradient
       inkscape:collect="always"
       xlink:href="#linearGradient6001"
       id="linearGradient4724"
       gradientUnits="userSpaceOnUse"
       x1="-21.658581"
       y1="15.649428"
       x2="-21.962101"
       y2="21.336346" />
    <radialGradient
       inkscape:collect="always"
       xlink:href="#linearGradient5971"
       id="radialGradient4726"
       gradientUnits="userSpaceOnUse"
       cx="25.148935"
       cy="14.425532"
       fx="25.148935"
       fy="14.425532"
       r="2.8510637" />
    <radialGradient
       inkscape:collect="always"
       xlink:href="#linearGradient5971"
       id="radialGradient4728"
       gradientUnits="userSpaceOnUse"
       cx="25.148935"
       cy="14.425532"
       fx="25.148935"
       fy="14.425532"
       r="2.8510637" />
    <radialGradient
       inkscape:collect="always"
       xlink:href="#linearGradient5971"
       id="radialGradient4730"
       gradientUnits="userSpaceOnUse"
       cx="25.148935"
       cy="14.425532"
       fx="25.148935"
       fy="14.425532"
       r="2.8510637" />
  </defs>
  <sodipodi:namedview
     inkscape:window-y="55"
     inkscape:window-x="32"
     inkscape:window-height="588"
     inkscape:window-width="872"
     inkscape:current-layer="g4668"
     inkscape:document-units="px"
     inkscape:cy="24"
     inkscape:cx="24"
     inkscape:zoom="1"
     inkscape:pageshadow="2"
     inkscape:pageopacity="0.0"
     borderopacity="1.0"
     bordercolor="#666666"
     pagecolor="#ffffff"
     id="base"
     showborder="false"
     showgrid="false"
     width="48px"
     height="48px"
     inkscape:showpageshadow="false" />
  <metadata
     id="metadata4">
    <rdf:RDF>
      <cc:Work
         rdf:about="">
        <dc:format>image/svg+xml</dc:format>
        <dc:type
           rdf:resource="http://purl.org/dc/dcmitype/StillImage" />
      </cc:Work>
    </rdf:RDF>
  </metadata>
  <g
     id="layer1"
     inkscape:groupmode="layer"
     inkscape:label="Layer 1">
    <path
       transform="matrix(0.461536,7.970305e-2,-7.970305e-2,0.461536,6.234354,-8.204039)"
       d="M 96.354244 99.660515 A 44.162361 9.9188194 0 1 1  8.0295219,99.660515 A 44.162361 9.9188194 0 1 1  96.354244 99.660515 z"
       sodipodi:ry="9.9188194"
       sodipodi:rx="44.162361"
       sodipodi:cy="99.660515"
       sodipodi:cx="52.191883"
       id="path9697"
       style="opacity:0.60792954;fill:url(#radialGradient1351);fill-opacity:1;stroke:none;stroke-width:3;stroke-linecap:round;stroke-linejoin:round;stroke-miterlimit:4;stroke-opacity:1"
       sodipodi:type="arc" />
    <path
       id="path2055"
       d="M 34.731435,4.5023945 L 22.049612,5.6290212 L 20.520071,9.3350287 L 6.9027032,10.446832 L 6.6799553,13.248579 L 0.502393,13.574703 C 0.502393,33.441098 2.7775224,37.353035 4.541569,38.671781 L 39.438854,44.497624 L 39.438854,44.482808 L 39.557656,44.497624 C 42.223155,44.497624 45.497621,20.753077 45.497621,7.304136 L 36.602523,8.0305142 L 34.731435,4.5023945 z "
       style="fill:url(#linearGradient2877);fill-opacity:1;fill-rule:evenodd;stroke:#833800;stroke-width:1.00478613;stroke-linecap:round;stroke-linejoin:round;stroke-miterlimit:4;stroke-dasharray:none;stroke-opacity:1"
       sodipodi:nodetypes="ccccccccccccc" />
    <path
       sodipodi:nodetypes="ccccc"
       id="path3578"
       d="M 10.126456,11.837705 L 9.4915145,35.746469 L 37.958071,43.008486 C 39.647915,32.414659 42.233254,24.814663 42.508486,9.4915145 L 10.126456,11.837705 z "
       style="fill:white;fill-opacity:1;fill-rule:evenodd;stroke:#dcdcdc;stroke-width:0.983;stroke-linecap:butt;stroke-linejoin:miter;stroke-miterlimit:4;stroke-dasharray:none;stroke-opacity:1" />
    <path
       sodipodi:nodetypes="ccccc"
       id="path7390"
       d="M 9.6713914,11.380176 L 9,35.635265 L 38.289732,42.899791 C 40.068337,34.571881 42.980951,21.251458 43,9 L 9.6713914,11.380176 z "
       style="fill:url(#linearGradient2849);fill-opacity:1;fill-rule:evenodd;stroke:none;stroke-width:0.60000002;stroke-linecap:butt;stroke-linejoin:miter;stroke-miterlimit:4;stroke-opacity:1" />
    <path
       sodipodi:nodetypes="ccccc"
       id="path8166"
       d="M 38.748563,15 C 38.005755,24.252525 37.600205,36.288903 39,43.428228 L 33.646542,42.160758 L 30,15.238465 L 38.748563,15 z "
       style="fill:black;fill-opacity:0.15999995;fill-rule:evenodd;stroke:none;stroke-width:1px;stroke-linecap:butt;stroke-linejoin:miter;stroke-opacity:1" />
    <path
       sodipodi:nodetypes="ccccc"
       id="path1293"
       d="M 1.5037443,14.312633 L 34.878393,12.503744 C 35.688696,23.359513 35.581128,36.214574 39.496256,43.496256 L 5.3902843,38.005089 C 2.0283695,32.477141 1.89443,23.428626 1.5037443,14.312633 z "
       style="fill:url(#linearGradient2843);fill-opacity:1;fill-rule:evenodd;stroke:url(#linearGradient2845);stroke-width:1.00748861;stroke-linecap:round;stroke-linejoin:round;stroke-miterlimit:4;stroke-dasharray:none;stroke-opacity:1" />
    <path
       sodipodi:nodetypes="ccccc"
       id="path5106"
       d="M 1,14.911391 C 12.051681,14.448017 22.711228,13.947334 33.762909,13.48396 C 34.334326,21.549683 34.801174,27.227647 36,34 C 22.213497,24.946426 13.720031,21.147409 3.4176172,31.020782 C 2.4810337,25.638554 1.9365825,20.29362 1,14.911391 z "
       style="opacity:0.52719667;fill:url(#linearGradient2840);fill-opacity:1;fill-rule:evenodd;stroke:none;stroke-width:1px;stroke-linecap:butt;stroke-linejoin:miter;stroke-opacity:1" />
    <path
       id="path10473"
       d="M 21,10 L 22.567165,6.0000008 L 34.097014,5 L 36,8.5000001 L 21,10 z "
       style="fill:url(#linearGradient2837);fill-opacity:1;fill-rule:evenodd;stroke:none;stroke-width:1px;stroke-linecap:butt;stroke-linejoin:miter;stroke-opacity:1" />
    <path
       style="fill:none;fill-opacity:1;fill-rule:evenodd;stroke:url(#linearGradient2863);stroke-width:0.995363;stroke-linecap:butt;stroke-linejoin:miter;stroke-miterlimit:4;stroke-dasharray:none;stroke-opacity:0.89699557"
       d="M 5.4230791,37.858048 C 3.6641529,37.551773 1.7551373,33.084044 1.4976814,14.976992 L 33.659286,13.497683 C 33.903029,24.548965 34.904635,37.743157 37.502319,42.50232 L 5.4230791,37.858048 z "
       id="path1961"
       sodipodi:nodetypes="ccccc" />
    <g
       id="g4668"
       inkscape:label="Layer 1"
       transform="matrix(0.687501,0,0,0.692358,75,14.7668)">
      <g
         id="g4687"
         transform="matrix(1,0,0,0.999929,-87.27261,3.421895e-3)">
        <path
           style="color:black;fill:#12367e;fill-opacity:1;fill-rule:evenodd;stroke:#0d275a;stroke-width:1.44948483;stroke-linecap:round;stroke-linejoin:round;marker:none;marker-start:none;marker-mid:none;marker-end:none;stroke-miterlimit:4;stroke-dashoffset:0;stroke-opacity:1;visibility:visible;display:inline;overflow:visible"
           d="M 42.909046,23.444582 C 42.909046,35.00599 33.460328,44.389162 21.818158,44.389162 C 10.17599,44.389162 0.72727206,35.00599 0.72727206,23.444582 C 0.72727206,11.883175 10.17599,2.5000038 21.818158,2.5000038 C 33.460328,2.5000038 42.909046,11.883175 42.909046,23.444582 z "
           id="path3969" />
        <path
           sodipodi:type="arc"
           style="opacity:1;color:black;fill:url(#linearGradient4706);fill-opacity:1;fill-rule:evenodd;stroke:none;stroke-width:3;stroke-linecap:round;stroke-linejoin:round;marker:none;marker-start:none;marker-mid:none;marker-end:none;stroke-miterlimit:4;stroke-dasharray:none;stroke-dashoffset:0;stroke-opacity:1;visibility:visible;display:inline;overflow:visible"
           id="path6532"
           sodipodi:cx="67.306274"
           sodipodi:cy="70.848709"
           sodipodi:rx="56.442806"
           sodipodi:ry="56.442806"
           d="M 123.74908 70.848709 A 56.442806 56.442806 0 1 1  10.863468,70.848709 A 56.442806 56.442806 0 1 1  123.74908 70.848709 z"
           transform="matrix(0.360624,0,-9.757744e-2,0.102358,9.550077,32.08208)" />
        <path
           sodipodi:type="arc"
           style="opacity:1;color:black;fill:url(#radialGradient4708);fill-opacity:1;fill-rule:evenodd;stroke:none;stroke-width:3;stroke-linecap:round;stroke-linejoin:round;marker:none;marker-start:none;marker-mid:none;marker-end:none;stroke-miterlimit:4;stroke-dasharray:none;stroke-dashoffset:0;stroke-opacity:1;visibility:visible;display:inline;overflow:visible"
           id="path5065"
           sodipodi:cx="56.109314"
           sodipodi:cy="115.14162"
           sodipodi:rx="54.105412"
           sodipodi:ry="9.1845608"
           d="M 110.21473 115.14162 A 54.105412 9.1845608 0 1 1  2.0039024,115.14162 A 54.105412 9.1845608 0 1 1  110.21473 115.14162 z"
           transform="matrix(0.389811,0,0,0.550401,-0.781143,-20.42926)" />
        <path
           sodipodi:type="arc"
           style="opacity:1;color:black;fill:url(#radialGradient4710);fill-opacity:1;fill-rule:evenodd;stroke:#164196;stroke-width:4.34512424;stroke-linecap:round;stroke-linejoin:round;marker:none;marker-start:none;marker-mid:none;marker-end:none;stroke-miterlimit:4;stroke-dasharray:none;stroke-dashoffset:0;stroke-opacity:1;visibility:visible;display:inline;overflow:visible"
           id="path1359"
           sodipodi:cx="67.306274"
           sodipodi:cy="70.848709"
           sodipodi:rx="56.442806"
           sodipodi:ry="56.442806"
           d="M 123.74908 70.848709 A 56.442806 56.442806 0 1 1  10.863468,70.848709 A 56.442806 56.442806 0 1 1  123.74908 70.848709 z"
           transform="matrix(0.322128,0,0,0.345457,-1.317612,-1.028956)" />
        <g
           id="g2125"
           inkscape:label="Layer 1"
           transform="matrix(0.339461,0,0,0.376367,-3.78373,-2.260776)"
           style="fill:#dae7f5;fill-opacity:1">
          <path
             d="M 68.095711,15.455708 C 63.486211,16.461808 58.558011,16.712038 54.442411,19.236058 C 52.848311,19.366288 46.408311,21.892818 50.706411,22.331538 C 53.368611,21.575958 54.605811,18.807748 57.578111,19.039898 C 60.769111,18.090538 64.051011,16.960998 67.529711,16.296418 C 67.888811,16.129528 67.896111,15.733868 68.095711,15.455708 z M 74.881611,16.348898 C 72.579011,18.997088 67.269511,18.828728 66.952211,23.142298 C 68.037411,24.633818 73.377211,17.613778 74.947411,21.950378 C 75.256711,24.857868 73.319011,28.527882 69.962111,26.633232 C 68.333311,26.497262 66.304911,26.832062 66.372611,25.374442 C 65.527211,27.512782 58.792211,31.650712 61.157911,27.040162 C 62.386411,26.116862 59.438911,25.948982 61.463711,24.362918 C 63.255711,22.543288 57.568911,22.714808 59.722111,24.677648 C 58.474611,26.397732 57.912311,28.227272 55.460511,28.526582 C 57.553211,28.293062 59.728511,27.954602 58.123111,30.188332 C 59.334811,34.740872 51.727411,32.363842 50.793911,35.724322 C 48.027611,40.175402 54.936911,39.940022 56.909211,37.746942 C 56.576211,33.630832 60.812011,34.845712 63.034611,34.439362 C 65.369511,32.706172 67.834911,38.067852 68.990511,39.984502 C 70.505411,40.783952 72.167811,37.651162 69.860511,36.841012 C 70.134311,35.302352 65.179711,32.698312 68.315511,32.586112 C 70.411411,33.700802 71.590511,36.010122 71.985711,37.513862 C 76.163011,37.324662 70.268811,42.152312 74.278111,40.683952 C 76.818611,40.229202 74.004411,35.992172 77.376811,37.653782 C 81.639111,39.290502 75.913211,32.153982 80.779211,32.123812 C 83.039811,30.788912 81.826911,36.763032 83.218911,33.842812 C 84.009211,29.112122 90.337111,35.607102 87.453211,37.501232 C 83.786611,36.481532 80.093511,36.184062 78.505411,40.312932 C 78.283911,42.257242 83.845511,37.507732 83.196811,40.975752 C 84.369211,44.653572 78.594311,45.323392 76.415811,44.049152 C 74.413011,41.638192 72.547711,43.885102 71.057011,44.982102 C 68.733311,44.657332 61.002611,44.043202 64.270711,40.579652 C 65.135111,36.963522 59.756611,40.250492 57.799111,39.435832 C 55.327511,40.774802 51.519411,39.589012 49.543511,41.585652 C 49.261011,43.901002 45.557911,42.624462 44.951611,45.410672 C 43.552311,48.582382 38.914711,49.641612 38.797911,53.041372 C 38.664911,56.841112 36.875111,60.298752 38.862711,64.042252 C 39.340711,67.871032 42.967611,70.239762 46.678711,69.340392 C 48.827411,69.294192 50.843211,71.982782 52.354611,68.740642 C 54.790111,64.728422 57.280711,70.976962 60.333811,69.354492 C 62.848111,72.250542 58.230811,75.695642 62.172011,77.723172 C 65.476511,81.223952 64.494711,86.086302 63.051011,90.151212 C 63.073311,93.424482 67.370211,95.128412 67.291511,98.372682 C 66.963311,103.01599 71.142011,107.08971 75.701311,104.8457 C 78.656311,104.01268 79.852811,100.50346 82.882211,99.693132 C 85.181311,97.752552 84.181911,92.083342 88.379011,91.945372 C 94.106511,90.029932 89.997511,83.182612 91.558411,79.305892 C 93.847911,76.601452 94.819711,72.598872 98.326811,71.100952 C 101.03751,68.727402 99.248011,63.943472 101.99751,61.255132 C 99.668611,63.050432 95.749511,64.621072 93.200011,62.440412 C 89.254311,59.017572 86.009611,54.736032 83.997511,49.906762 C 83.055911,47.771592 83.115611,43.477702 85.449911,43.497812 C 85.817611,47.978652 88.987211,51.588012 91.198911,55.308192 C 93.315311,57.726022 94.791311,61.516902 98.718711,60.249612 C 102.03681,59.124782 106.58541,56.926032 106.65831,52.992012 C 106.34851,48.537072 98.404211,52.697512 96.837011,48.151762 C 93.702411,46.284232 98.970311,43.199692 99.920211,46.662362 C 101.95451,48.737762 105.60331,47.640872 107.09931,50.445202 C 110.12741,49.091592 112.55011,50.044282 113.79761,53.221172 C 116.46661,55.864162 117.18901,59.869312 117.08971,63.491172 C 120.59221,66.905742 119.51571,58.522802 120.44171,56.461582 C 120.58121,54.506582 120.77871,52.098812 121.60211,55.296412 C 124.16491,56.524612 122.37911,51.302992 121.79401,50.127442 C 117.29941,39.859142 115.85481,37.977962 110.92461,32.066622 C 102.78801,24.086108 96.176311,20.680428 87.168211,17.710448 C 86.513311,20.909408 82.513311,18.093478 80.605411,20.772388 C 78.603611,22.285428 78.593611,22.092358 79.997111,20.083158 C 78.977811,18.255358 76.663011,17.381328 74.881611,16.348898 z M 60.688911,19.921598 C 58.688211,18.974608 53.731811,22.100338 58.169911,21.889438 C 59.424811,22.150878 59.843611,20.521148 60.688911,19.921598 z M 57.856911,24.605318 C 56.259711,25.216078 52.466411,26.291502 55.819211,27.007762 C 56.779211,26.556982 57.404611,25.522522 57.856911,24.605318 z M 67.006411,38.220812 C 64.577611,39.439302 66.847411,41.861232 68.129411,39.556922 C 67.825011,39.051922 67.347611,38.695842 67.006411,38.220812 z M 121.79521,64.144722 C 118.22811,66.576012 126.02081,68.405742 121.79521,64.144722 z M 19.842411,70.353382 C 19.635411,74.810072 20.779511,79.508172 21.774611,84.314712 C 23.058611,86.588942 23.922211,91.246432 25.399911,91.904112 C 26.939611,88.372732 23.772911,84.422972 25.619511,80.769462 C 23.396511,79.020922 26.387711,75.145152 22.774111,74.088722 C 21.636811,72.976622 20.789611,71.620202 19.842411,70.353382 z M 98.049811,84.731342 C 97.681211,88.846072 92.078511,89.812412 93.123211,93.982862 C 94.121311,96.169162 92.634011,96.330502 92.404411,98.102602 C 94.464411,99.682972 96.215411,94.538442 97.794211,93.141772 C 98.162411,91.108522 102.96401,84.254842 98.049811,84.731342 z "
             style="fill:black;fill-opacity:0.4678112;fill-rule:evenodd;stroke:none;stroke-width:1pt;stroke-linecap:butt;stroke-linejoin:miter;stroke-opacity:1"
             id="path4290" />
        </g>
        <path
           style="color:black;fill:url(#radialGradient4712);fill-opacity:1;fill-rule:evenodd;stroke:none;stroke-width:3;stroke-linecap:round;stroke-linejoin:round;marker:none;marker-start:none;marker-mid:none;marker-end:none;stroke-miterlimit:4;stroke-dashoffset:0;stroke-opacity:1;visibility:visible;display:inline;overflow:visible"
           d="M 39,23.500034 C 39,34.81605 30.69997,44.000063 20.473148,44.000063 C 10.246326,44.000063 1.946298,34.81605 1.946298,23.500034 C 1.946298,12.184019 10.246326,3.000007 20.473148,3.000007 C 30.69997,3.000007 39,12.184019 39,23.500034 z "
           id="path2854"
           sodipodi:nodetypes="csssc" />
        <path
           style="color:black;fill:url(#linearGradient4714);fill-opacity:1;fill-rule:evenodd;stroke:none;stroke-width:3;stroke-linecap:round;stroke-linejoin:round;marker:none;marker-start:none;marker-mid:none;marker-end:none;stroke-miterlimit:4;stroke-dashoffset:0;stroke-opacity:1;visibility:visible;display:inline;overflow:visible"
           d="M 34.90904,14.780212 C 34.90904,21.158416 28.066868,26.334931 19.636336,26.334931 C 11.205801,26.334931 4.36363,21.158416 4.36363,14.780212 C 4.36363,9.795136 11.848691,3.2254989 19.636336,3.2254989 C 28.342625,3.2254989 34.90904,10.084165 34.90904,14.780212 z "
           id="path4316"
           sodipodi:nodetypes="csssc" />
        <path
           sodipodi:type="arc"
           style="opacity:1;color:black;fill:none;fill-opacity:1;fill-rule:evenodd;stroke:url(#linearGradient4716);stroke-width:4.34512997;stroke-linecap:round;stroke-linejoin:round;marker:none;marker-start:none;marker-mid:none;marker-end:none;stroke-miterlimit:4;stroke-dasharray:none;stroke-dashoffset:0;stroke-opacity:0.79399139;visibility:visible;display:inline;overflow:visible"
           id="path3331"
           sodipodi:cx="67.306274"
           sodipodi:cy="70.848709"
           sodipodi:rx="56.442806"
           sodipodi:ry="56.442806"
           d="M 123.74908 70.848709 A 56.442806 56.442806 0 1 1  10.863468,70.848709 A 56.442806 56.442806 0 1 1  123.74908 70.848709 z"
           transform="matrix(0.322128,0,0,0.345457,-1.317608,-1.028955)" />
        <g
           id="g5082"
           transform="matrix(0.897197,0,0,1.026555,-6.862757,7.896358)">
          <path
             transform="matrix(1.131034,0.613097,-0.476556,0.879144,60.9184,7.483504)"
             inkscape:r_cy="true"
             inkscape:r_cx="true"
             d="M -2.8284283 21.041553 A 15.733126 9.4575529 0 1 1  -34.29468,21.041553 A 15.733126 9.4575529 0 1 1  -2.8284283 21.041553 z"
             sodipodi:ry="9.4575529"
             sodipodi:rx="15.733126"
             sodipodi:cy="21.041553"
             sodipodi:cx="-18.561554"
             id="path5991"
             style="color:black;fill:none;fill-opacity:1;fill-rule:evenodd;stroke:url(#linearGradient4718);stroke-width:1.33159101;stroke-linecap:round;stroke-linejoin:round;marker:none;marker-start:none;marker-mid:none;marker-end:none;stroke-miterlimit:4;stroke-dasharray:none;stroke-dashoffset:0;stroke-opacity:1;visibility:visible;display:inline;overflow:visible"
             sodipodi:type="arc" />
          <path
             sodipodi:type="arc"
             style="color:black;fill:none;fill-opacity:1;fill-rule:evenodd;stroke:url(#linearGradient4720);stroke-width:1.33159101;stroke-linecap:round;stroke-linejoin:round;marker:none;marker-start:none;marker-mid:none;marker-end:none;stroke-miterlimit:4;stroke-dasharray:none;stroke-dashoffset:0;stroke-opacity:1;visibility:visible;display:inline;overflow:visible"
             id="path6009"
             sodipodi:cx="-18.561554"
             sodipodi:cy="21.041553"
             sodipodi:rx="15.733126"
             sodipodi:ry="9.4575529"
             d="M -2.8284283 21.041553 A 15.733126 9.4575529 0 1 1  -34.29468,21.041553 A 15.733126 9.4575529 0 1 1  -2.8284283 21.041553 z"
             inkscape:r_cx="true"
             inkscape:r_cy="true"
             transform="matrix(0.939326,-0.879086,0.683307,0.730131,39.1419,-13.01241)" />
          <path
             transform="matrix(-1.280316,-0.126159,9.806226e-2,-0.99518,4.42267,31.96302)"
             inkscape:r_cy="true"
             inkscape:r_cx="true"
             d="M -2.8284283 21.041553 A 15.733126 9.4575529 0 1 1  -34.29468,21.041553 A 15.733126 9.4575529 0 1 1  -2.8284283 21.041553 z"
             sodipodi:ry="9.4575529"
             sodipodi:rx="15.733126"
             sodipodi:cy="21.041553"
             sodipodi:cx="-18.561554"
             id="path6013"
             style="color:black;fill:none;fill-opacity:1;fill-rule:evenodd;stroke:url(#linearGradient4722);stroke-width:1.33159101;stroke-linecap:round;stroke-linejoin:round;marker:none;marker-start:none;marker-mid:none;marker-end:none;stroke-miterlimit:4;stroke-dasharray:none;stroke-dashoffset:0;stroke-opacity:1;visibility:visible;display:inline;overflow:visible"
             sodipodi:type="arc" />
          <path
             transform="matrix(0.917874,-0.858983,0.667701,0.713433,34.461,-15.46992)"
             inkscape:r_cy="true"
             inkscape:r_cx="true"
             d="M -2.8284283 21.041553 A 15.733126 9.4575529 0 1 1  -34.29468,21.041553 A 15.733126 9.4575529 0 1 1  -2.8284283 21.041553 z"
             sodipodi:ry="9.4575529"
             sodipodi:rx="15.733126"
             sodipodi:cy="21.041553"
             sodipodi:cx="-18.561554"
             id="path6017"
             style="color:black;fill:none;fill-opacity:1;fill-rule:evenodd;stroke:url(#linearGradient4724);stroke-width:1.3627336;stroke-linecap:round;stroke-linejoin:round;marker:none;marker-start:none;marker-mid:none;marker-end:none;stroke-miterlimit:4;stroke-dasharray:none;stroke-dashoffset:0;stroke-opacity:1;visibility:visible;display:inline;overflow:visible"
             sodipodi:type="arc" />
        </g>
        <path
           sodipodi:type="arc"
           style="opacity:1;fill:url(#radialGradient4726);fill-opacity:1;stroke:none;stroke-width:1;stroke-linecap:round;stroke-linejoin:round;stroke-miterlimit:4;stroke-dasharray:none;stroke-dashoffset:0;stroke-opacity:1"
           id="path5096"
           sodipodi:cx="25.148935"
           sodipodi:cy="14.425532"
           sodipodi:rx="2.8510637"
           sodipodi:ry="2.8510637"
           d="M 27.999999 14.425532 A 2.8510637 2.8510637 0 1 1  22.297872,14.425532 A 2.8510637 2.8510637 0 1 1  27.999999 14.425532 z"
           transform="matrix(1.58535,0,0,1.753731,-19.12217,-13.2985)" />
        <path
           sodipodi:type="arc"
           style="opacity:1;fill:url(#radialGradient4728);fill-opacity:1;stroke:none;stroke-width:1;stroke-linecap:round;stroke-linejoin:round;stroke-miterlimit:4;stroke-dasharray:none;stroke-dashoffset:0;stroke-opacity:1"
           id="path5979"
           sodipodi:cx="25.148935"
           sodipodi:cy="14.425532"
           sodipodi:rx="2.8510637"
           sodipodi:ry="2.8510637"
           d="M 27.999999 14.425532 A 2.8510637 2.8510637 0 1 1  22.297872,14.425532 A 2.8510637 2.8510637 0 1 1  27.999999 14.425532 z"
           transform="matrix(1.565367,0,0,1.753732,-11.53585,9.701483)" />
        <path
           sodipodi:type="arc"
           style="opacity:1;fill:url(#radialGradient4730);fill-opacity:1;stroke:none;stroke-width:1;stroke-linecap:round;stroke-linejoin:round;stroke-miterlimit:4;stroke-dasharray:none;stroke-dashoffset:0;stroke-opacity:1"
           id="path5983"
           sodipodi:cx="25.148935"
           sodipodi:cy="14.425532"
           sodipodi:rx="2.8510637"
           sodipodi:ry="2.8510637"
           d="M 27.999999 14.425532 A 2.8510637 2.8510637 0 1 1  22.297872,14.425532 A 2.8510637 2.8510637 0 1 1  27.999999 14.425532 z"
           transform="matrix(1.565367,0,0,1.701493,-30.28028,1.306123)" />
      </g>
    </g>
  </g>
</svg>
