<?xml version="1.0" encoding="UTF-8" standalone="no"?>
<!-- Created with Inkscape (http://www.inkscape.org/) -->
<svg
   xmlns:dc="http://purl.org/dc/elements/1.1/"
   xmlns:cc="http://web.resource.org/cc/"
   xmlns:rdf="http://www.w3.org/1999/02/22-rdf-syntax-ns#"
   xmlns:svg="http://www.w3.org/2000/svg"
   xmlns="http://www.w3.org/2000/svg"
   xmlns:xlink="http://www.w3.org/1999/xlink"
   xmlns:sodipodi="http://inkscape.sourceforge.net/DTD/sodipodi-0.dtd"
   xmlns:inkscape="http://www.inkscape.org/namespaces/inkscape"
   width="48"
   height="48"
   id="svg5055"
   sodipodi:version="0.32"
   inkscape:version="0.43+devel"
   sodipodi:docbase="/home/silvestre/Desktop/Neu/scalable/apps"
   sodipodi:docname="gnome-settings-font.svg"
   version="1.0">
  <defs
     id="defs3">
    <linearGradient
       inkscape:collect="always"
       id="linearGradient6553">
      <stop
         style="stop-color:black;stop-opacity:0.31330472"
         offset="0"
         id="stop6555" />
      <stop
         style="stop-color:black;stop-opacity:0;"
         offset="1"
         id="stop6557" />
    </linearGradient>
    <linearGradient
       id="linearGradient6766">
      <stop
         style="stop-color:#bfbfbf;stop-opacity:1;"
         offset="0"
         id="stop6768" />
      <stop
         id="stop6774"
         offset="0.5"
         style="stop-color:#575757;stop-opacity:1;" />
      <stop
         style="stop-color:black;stop-opacity:1"
         offset="1"
         id="stop6770" />
    </linearGradient>
    <linearGradient
       inkscape:collect="always"
       id="linearGradient5001">
      <stop
         style="stop-color:#f0f0f0;stop-opacity:1"
         offset="0"
         id="stop5003" />
      <stop
         style="stop-color:#dadada;stop-opacity:1"
         offset="1"
         id="stop5005" />
    </linearGradient>
    <linearGradient
       inkscape:collect="always"
       xlink:href="#linearGradient5001"
       id="linearGradient5007"
       x1="79.578094"
       y1="-0.63259059"
       x2="79.578094"
       y2="32.894043"
       gradientUnits="userSpaceOnUse" />
    <linearGradient
       inkscape:collect="always"
       xlink:href="#linearGradient6766"
       id="linearGradient6772"
       x1="66.174919"
       y1="-16.689276"
       x2="66.174919"
       y2="16.576611"
       gradientUnits="userSpaceOnUse"
       gradientTransform="matrix(0.868421,0,0,0.960033,6.663573,-0.666936)" />
    <linearGradient
       inkscape:collect="always"
       xlink:href="#linearGradient6553"
       id="linearGradient6559"
       x1="109.1167"
       y1="3.4664507"
       x2="100.93536"
       y2="3.4664507"
       gradientUnits="userSpaceOnUse" />
  </defs>
  <sodipodi:namedview
     id="base"
     pagecolor="#ffffff"
     bordercolor="#666666"
     borderopacity="1.0"
     inkscape:pageopacity="0.0"
     inkscape:pageshadow="2"
     inkscape:zoom="1"
     inkscape:cx="24"
     inkscape:cy="24"
     inkscape:document-units="px"
     inkscape:current-layer="g2106"
     inkscape:window-width="823"
     inkscape:window-height="536"
     inkscape:window-x="33"
     inkscape:window-y="45"
     inkscape:showpageshadow="false"
     width="48px"
     height="48px"
     showgrid="false"
     showborder="false" />
  <metadata
     id="metadata4">
    <rdf:RDF>
      <cc:Work
         rdf:about="">
        <dc:format>image/svg+xml</dc:format>
        <dc:type
           rdf:resource="http://purl.org/dc/dcmitype/StillImage" />
      </cc:Work>
    </rdf:RDF>
  </metadata>
  <g
     inkscape:label="Layer 1"
     inkscape:groupmode="layer"
     id="layer1">
    <g
       transform="matrix(0.684082,0,0,0.684082,-29.64407,24.41546)"
       id="g2106">
      <path
         style="fill:url(#linearGradient5007);fill-opacity:1;stroke:#b4b4b4;stroke-width:1.4519062;stroke-linecap:round;stroke-linejoin:round;stroke-miterlimit:4;stroke-dashoffset:0;stroke-opacity:1"
         d="M 48.983665,-28.931019 L 101.94935,-32.04126 L 107.85154,-29.428658 C 109.08875,-28.944131 109.85154,-28.536658 109.85154,-27.428658 L 109.85154,26.587238 C 109.85154,27.695238 109.02414,28.199616 107.85154,28.587238 L 101.56173,30.856161 L 48.983665,26.472274 C 47.875665,26.472274 46.983665,25.580274 46.983665,24.472274 L 46.983665,-26.931019 C 46.983665,-28.039019 47.875665,-28.931019 48.983665,-28.931019 z "
         id="rect4126"
         sodipodi:nodetypes="ccccccccccc" />
      <path
         style="fill:none;fill-opacity:1;stroke:white;stroke-width:1.38591039;stroke-linecap:round;stroke-linejoin:round;stroke-miterlimit:4;stroke-dashoffset:0;stroke-opacity:1"
         d="M 48.91404,-27.502201 L 101.81481,-30.57328 L 107.92116,-27.87543 C 108.19902,-27.87543 108.42272,-27.651736 108.42272,-27.373873 L 108.42272,26.532453 C 108.42272,26.810316 108.19902,27.03401 107.92116,27.03401 L 101.54024,29.430062 L 48.91404,24.919047 C 48.636177,24.919047 48.412483,24.695353 48.412483,24.41749 L 48.412483,-27.000644 C 48.412483,-27.278507 48.636177,-27.502201 48.91404,-27.502201 z "
         id="rect5016"
         sodipodi:nodetypes="ccccccccccc" />
      <path
         style="font-size:133.99008179px;font-style:normal;font-variant:normal;font-weight:bold;font-stretch:normal;line-height:100%;writing-mode:lr-tb;text-anchor:start;fill:url(#linearGradient6772);fill-opacity:1;stroke:none;stroke-width:1.28486145;stroke-linecap:round;stroke-linejoin:round;stroke-miterlimit:4;stroke-dasharray:none;stroke-opacity:1;font-family:Luxi Sans"
         d="M 50.643154,15.639272 L 61.514633,-16.687268 L 67.348109,-16.687268 L 78.181708,15.639272 L 72.215655,15.639272 L 69.355735,7.0115824 L 57.764542,7.0115824 L 54.904623,15.639272 L 50.643154,15.639272 M 59.203971,2.7086571 L 67.916307,2.7086571 L 63.560137,-10.178277 L 59.203971,2.7086571 M 98.750377,11.947935 L 98.882985,15.573751 C 97.65819,15.981473 96.603857,16.185327 95.720022,16.185327 C 93.510359,16.185327 92.039359,15.144184 91.307032,13.061891 L 91.060816,13.061891 C 89.634,15.144184 87.878907,16.185327 85.795533,16.185327 C 83.989927,16.185327 82.518934,15.537344 81.382545,14.241372 C 80.246151,12.959962 79.677958,11.278111 79.677961,9.195809 C 79.677958,3.7352556 82.97349,1.0049758 89.564565,1.0049614 L 91.060816,1.0049614 L 91.060816,-1.1792645 C 91.0608,-3.6692633 89.962291,-4.9142704 87.765277,-4.914291 C 85.909163,-4.9142704 83.825783,-4.2007572 81.515127,-2.7737495 L 81.515127,-7.2295701 C 83.876287,-8.3362212 86.281649,-8.8895577 88.731212,-8.8895818 C 93.870215,-8.8895577 96.439708,-6.3922614 96.439726,-1.3976874 L 96.439726,9.2176488 C 96.439708,11.096086 96.951087,12.035304 97.973852,12.035304 C 98.213736,12.035304 98.472578,12.006185 98.750377,11.947935 M 91.060816,9.5889704 L 91.060816,4.7181445 L 89.735024,4.7181445 C 86.616252,4.718156 85.056873,6.0141282 85.056879,8.6060674 C 85.056873,9.5234511 85.32203,10.280644 85.852354,10.877661 C 86.370036,11.489247 87.032928,11.795039 87.841038,11.795039 C 89.078433,11.795039 90.151688,11.059686 91.060816,9.5889704"
         id="text1538" />
      <path
         style="fill:none;fill-opacity:0.75;fill-rule:evenodd;stroke:white;stroke-width:1px;stroke-linecap:butt;stroke-linejoin:miter;stroke-opacity:0.80257511"
         d="M 40.526057,4 L 40.526057,44"
         id="path4802"
         transform="matrix(1.461813,0,0,1.461813,43.33409,-35.69084)" />
      <path
         style="opacity:0.87029269;fill:url(#linearGradient6559);fill-opacity:1.0;stroke:none;stroke-width:1;stroke-linecap:round;stroke-linejoin:miter;stroke-miterlimit:4;stroke-dashoffset:0;stroke-opacity:0.80257509"
         d="M 101.80661,-31.305399 L 109.11568,-28.139822 L 109.11568,27.377398 L 101.80661,30.09075 L 101.80661,-31.305399 z "
         id="rect5677"
         sodipodi:nodetypes="ccccc" />
    </g>
  </g>
</svg>
