<?xml version="1.0" encoding="UTF-8" standalone="no"?>
<!-- Created with Inkscape (http://www.inkscape.org/) -->
<svg
   xmlns:dc="http://purl.org/dc/elements/1.1/"
   xmlns:cc="http://web.resource.org/cc/"
   xmlns:rdf="http://www.w3.org/1999/02/22-rdf-syntax-ns#"
   xmlns:svg="http://www.w3.org/2000/svg"
   xmlns="http://www.w3.org/2000/svg"
   xmlns:xlink="http://www.w3.org/1999/xlink"
   xmlns:sodipodi="http://inkscape.sourceforge.net/DTD/sodipodi-0.dtd"
   xmlns:inkscape="http://www.inkscape.org/namespaces/inkscape"
   width="48"
   height="48"
   id="svg14"
   sodipodi:version="0.32"
   inkscape:version="0.43+devel"
   sodipodi:docbase="/home/silvestre/Desktop/Neu/scalable/apps"
   sodipodi:docname="preferences-desktop-assistive-technology.svg"
   version="1.0">
  <defs
     id="defs3">
    <linearGradient
       inkscape:collect="always"
       id="linearGradient2843">
      <stop
         style="stop-color:white;stop-opacity:0.79607844"
         offset="0"
         id="stop2845" />
      <stop
         style="stop-color:white;stop-opacity:0;"
         offset="1"
         id="stop2847" />
    </linearGradient>
    <linearGradient
       inkscape:collect="always"
       id="linearGradient2838">
      <stop
         style="stop-color:white;stop-opacity:1;"
         offset="0"
         id="stop2840" />
      <stop
         style="stop-color:white;stop-opacity:0;"
         offset="1"
         id="stop2842" />
    </linearGradient>
    <linearGradient
       id="linearGradient3579">
      <stop
         style="stop-color:#000000;stop-opacity:0.18750000;"
         offset="0.0000000"
         id="stop3581" />
      <stop
         style="stop-color:#000000;stop-opacity:0;"
         offset="1"
         id="stop3583" />
    </linearGradient>
    <linearGradient
       inkscape:collect="always"
       id="linearGradient3569">
      <stop
         style="stop-color:#000000;stop-opacity:1;"
         offset="0"
         id="stop3571" />
      <stop
         style="stop-color:#000000;stop-opacity:0;"
         offset="1"
         id="stop3573" />
    </linearGradient>
    <linearGradient
       inkscape:collect="always"
       id="linearGradient3549">
      <stop
         style="stop-color:#ffffff;stop-opacity:0.68674695"
         offset="0"
         id="stop3551" />
      <stop
         style="stop-color:#ffffff;stop-opacity:0;"
         offset="1"
         id="stop3553" />
    </linearGradient>
    <linearGradient
       inkscape:collect="always"
       id="linearGradient2813">
      <stop
         style="stop-color:#000000;stop-opacity:0.73092371"
         offset="0"
         id="stop2815" />
      <stop
         style="stop-color:#000000;stop-opacity:0;"
         offset="1"
         id="stop2817" />
    </linearGradient>
    <linearGradient
       inkscape:collect="always"
       xlink:href="#linearGradient3569"
       id="linearGradient3575"
       x1="90.686348"
       y1="164.369"
       x2="106.27306"
       y2="103.91144"
       gradientUnits="userSpaceOnUse"
       gradientTransform="matrix(0.377788,0,0,0.377788,-0.178436,0.892191)" />
    <radialGradient
       inkscape:collect="always"
       xlink:href="#linearGradient3579"
       id="radialGradient3585"
       cx="54.317345"
       cy="112.41328"
       fx="54.317345"
       fy="112.41328"
       r="47.704796"
       gradientTransform="matrix(1,0,0,0.29703,-2.740863e-16,79.02319)"
       gradientUnits="userSpaceOnUse" />
    <radialGradient
       inkscape:collect="always"
       xlink:href="#linearGradient3579"
       id="radialGradient3589"
       gradientUnits="userSpaceOnUse"
       gradientTransform="matrix(1,0,0,0.29703,-6.832645e-16,79.02319)"
       cx="54.317345"
       cy="112.41328"
       fx="54.317345"
       fy="112.41328"
       r="47.704796" />
    <linearGradient
       inkscape:collect="always"
       xlink:href="#linearGradient2843"
       id="linearGradient2849"
       x1="83.318726"
       y1="-0.056119706"
       x2="93.686676"
       y2="122.31063"
       gradientUnits="userSpaceOnUse"
       gradientTransform="matrix(0.392157,0,0,0.377878,-1.127537,1.059996)" />
    <linearGradient
       inkscape:collect="always"
       xlink:href="#linearGradient3549"
       id="linearGradient4825"
       gradientUnits="userSpaceOnUse"
       x1="47.7048"
       y1="5.1955714"
       x2="54.317345"
       y2="82.184502"
       gradientTransform="matrix(0.38246,0,0,0.380008,-5.393549,-0.230769)" />
    <linearGradient
       inkscape:collect="always"
       xlink:href="#linearGradient2813"
       id="linearGradient4828"
       gradientUnits="userSpaceOnUse"
       x1="145.00369"
       y1="70.376381"
       x2="89.741699"
       y2="69.431732"
       gradientTransform="matrix(0.397557,0,0,0.382532,-6.841419,-0.483282)" />
    <linearGradient
       inkscape:collect="always"
       xlink:href="#linearGradient2838"
       id="linearGradient4831"
       gradientUnits="userSpaceOnUse"
       gradientTransform="matrix(0.384943,0,0,0.383323,-0.409092,1.055781)"
       x1="33.654625"
       y1="11.391578"
       x2="71.740967"
       y2="141.5607" />
    <linearGradient
       inkscape:collect="always"
       id="linearGradient2049">
      <stop
         style="stop-color:#ffffff;stop-opacity:1;"
         offset="0"
         id="stop2051" />
      <stop
         style="stop-color:#ffffff;stop-opacity:0;"
         offset="1"
         id="stop2053" />
    </linearGradient>
    <linearGradient
       inkscape:collect="always"
       id="linearGradient4234">
      <stop
         style="stop-color:#e0e0e0;stop-opacity:1.0000000"
         offset="0"
         id="stop4236" />
      <stop
         style="stop-color:#c4c4c4;stop-opacity:1.0000000"
         offset="1"
         id="stop4238" />
    </linearGradient>
    <linearGradient
       id="linearGradient6647"
       inkscape:collect="always">
      <stop
         id="stop6649"
         offset="0"
         style="stop-color:white;stop-opacity:1;" />
      <stop
         id="stop6651"
         offset="1"
         style="stop-color:white;stop-opacity:0.45064378" />
    </linearGradient>
    <linearGradient
       inkscape:collect="always"
       xlink:href="#linearGradient6647"
       id="linearGradient4981"
       gradientUnits="userSpaceOnUse"
       x1="38.311138"
       y1="29.974993"
       x2="26.017185"
       y2="26.680838"
       gradientTransform="matrix(1.009535,0,0,1.008296,-0.414875,-0.369293)" />
    <linearGradient
       inkscape:collect="always"
       xlink:href="#linearGradient2049"
       id="linearGradient4984"
       gradientUnits="userSpaceOnUse"
       gradientTransform="matrix(0.367968,0,0,0.377025,1.649346,0.640652)"
       x1="72.151817"
       y1="38.213421"
       x2="72.151817"
       y2="75.248329" />
    <linearGradient
       inkscape:collect="always"
       xlink:href="#linearGradient4234"
       id="linearGradient4987"
       gradientUnits="userSpaceOnUse"
       gradientTransform="matrix(0.470304,0,0,0.476988,11.15935,9.20171)"
       x1="34.812870"
       y1="16.950554"
       x2="34.812870"
       y2="50.460960" />
  </defs>
  <sodipodi:namedview
     id="base"
     pagecolor="#ffffff"
     bordercolor="#666666"
     borderopacity="1.0"
     inkscape:pageopacity="0.0"
     inkscape:pageshadow="2"
     inkscape:zoom="1"
     inkscape:cx="24"
     inkscape:cy="24"
     inkscape:document-units="px"
     inkscape:current-layer="layer1"
     inkscape:window-width="823"
     inkscape:window-height="536"
     inkscape:window-x="0"
     inkscape:window-y="22"
     inkscape:showpageshadow="false"
     width="48px"
     height="48px"
     showgrid="false"
     showborder="false" />
  <metadata
     id="metadata4">
    <rdf:RDF>
      <cc:Work
         rdf:about="">
        <dc:format>image/svg+xml</dc:format>
        <dc:type
           rdf:resource="http://purl.org/dc/dcmitype/StillImage" />
      </cc:Work>
    </rdf:RDF>
  </metadata>
  <g
     inkscape:label="Layer 1"
     inkscape:groupmode="layer"
     id="layer1">
    <path
       sodipodi:type="arc"
       style="opacity:1;color:black;fill:url(#radialGradient3589);fill-opacity:1;fill-rule:evenodd;stroke:none;stroke-width:3;stroke-linecap:round;stroke-linejoin:round;marker:none;marker-start:none;marker-mid:none;marker-end:none;stroke-miterlimit:4;stroke-dasharray:none;stroke-dashoffset:0;stroke-opacity:1;visibility:visible;display:inline;overflow:visible"
       id="path3587"
       sodipodi:cx="54.317345"
       sodipodi:cy="112.41328"
       sodipodi:rx="47.704796"
       sodipodi:ry="14.169742"
       d="M 102.02214 112.41328 A 47.704796 14.169742 0 1 1  6.6125488,112.41328 A 47.704796 14.169742 0 1 1  102.02214 112.41328 z"
       transform="matrix(0.300688,0,0,0.245562,-1.988314,13.25797)" />
    <path
       sodipodi:type="arc"
       style="opacity:1;color:black;fill:url(#radialGradient3585);fill-opacity:1;fill-rule:evenodd;stroke:none;stroke-width:3;stroke-linecap:round;stroke-linejoin:round;marker:none;marker-start:none;marker-mid:none;marker-end:none;stroke-miterlimit:4;stroke-dasharray:none;stroke-dashoffset:0;stroke-opacity:1;visibility:visible;display:inline;overflow:visible"
       id="path3577"
       sodipodi:cx="54.317345"
       sodipodi:cy="112.41328"
       sodipodi:rx="47.704796"
       sodipodi:ry="14.169742"
       d="M 102.02214 112.41328 A 47.704796 14.169742 0 1 1  6.6125488,112.41328 A 47.704796 14.169742 0 1 1  102.02214 112.41328 z"
       transform="matrix(0.377788,0,0,0.308527,2.498144,8.945721)" />
    <path
       style="fill:url(#linearGradient3575);fill-opacity:1;fill-rule:evenodd;stroke:none;stroke-width:0.25pt;stroke-linecap:butt;stroke-linejoin:miter;stroke-opacity:1"
       d="M 37.650558,46.215611 L 48.000003,42.646841 L 36.579928,38.185871 L 37.650558,46.215611 z "
       id="path3567" />
    <path
       style="fill:#009ed3;fill-opacity:1;fill-rule:evenodd;stroke:#0075b8;stroke-width:1.00000012;stroke-linecap:round;stroke-linejoin:round;stroke-miterlimit:4;stroke-dasharray:none;stroke-opacity:1"
       d="M 38.499995,46.068581 L 38.499995,4.2892649 L 32.164595,2.5000008 L 3.5000012,9.5151874 L 3.5000012,39.753749 L 32.164595,47.499993 L 38.499995,46.068581 z "
       id="path2083"
       sodipodi:nodetypes="ccccccc" />
    <path
       style="fill:url(#linearGradient4828);fill-opacity:1;fill-rule:evenodd;stroke:none;stroke-width:0.25pt;stroke-linecap:butt;stroke-linejoin:miter;stroke-opacity:1"
       d="M 32,2.7259517 L 32.046944,47 L 37.998454,45.670149 L 38,4.3718266 L 32,2.7259517 z "
       id="path2811"
       sodipodi:nodetypes="ccccc" />
    <path
       style="fill:none;fill-opacity:1;fill-rule:evenodd;stroke:url(#linearGradient2849);stroke-width:0.99999988;stroke-linecap:butt;stroke-linejoin:miter;stroke-miterlimit:4;stroke-dasharray:none;stroke-opacity:1"
       d="M 32.499997,3.4999989 L 37.500011,4.9170421 L 37.500011,44.327031 L 32.499997,45.649606 L 32.499997,3.4999989 z "
       id="path1968"
       sodipodi:nodetypes="ccccc" />
    <path
       style="fill:url(#linearGradient4825);fill-opacity:1;fill-rule:evenodd;stroke:none;stroke-width:0.25pt;stroke-linecap:butt;stroke-linejoin:miter;stroke-opacity:1"
       d="M 4,9.9999998 L 4,27.589744 C 12.911828,19.482906 23.449462,18.555555 31.819355,31 L 32,3 L 4,9.9999998 z "
       id="path2821"
       sodipodi:nodetypes="ccccc" />
    <path
       id="path579"
       style="font-size:12px;fill:white;fill-opacity:1;stroke:white;stroke-width:1.56723571;stroke-miterlimit:4;stroke-opacity:1"
       d="M 24.216378,31.749435 C 24.216378,31.749435 23.126535,30.62837 22.152424,31.037524 C 22.152424,31.037524 20.723056,25.094653 20.240891,25.125726 L 15.454807,24.282946 L 15.279707,22.045335 L 19.267685,22.747577 L 19.304863,21.476235 L 14.838093,20.689684 L 14.941262,18.636649 C 15.658701,18.47939 16.209987,17.640958 16.242673,16.523197 C 16.281853,15.183366 15.563712,13.964638 14.6385,13.801717 C 13.713469,13.638829 12.931777,14.593452 12.892596,15.933283 C 12.863639,16.923539 13.24943,17.844104 13.825014,18.324902 C 13.78298,19.293529 13.748588,20.607195 13.783118,21.901491 C 12.101042,22.650426 10.869066,24.808408 10.787886,27.584494 C 10.678695,31.318428 12.679398,34.712134 15.256464,35.165928 C 17.833532,35.619725 20.011381,32.961817 20.120571,29.227884 C 20.131001,28.871191 20.119553,28.518853 20.092077,28.170844 C 20.705841,29.733693 21.606143,32.335993 21.506137,33.943411 L 24.216378,31.749435 z M 15.283852,34.241861 C 13.062466,33.850699 11.332241,30.91452 11.426325,27.697182 C 11.493222,25.409504 12.471017,23.605541 13.824945,22.883816 C 13.899049,24.137421 14.057955,25.278851 14.363684,25.949653 L 19.220866,26.804953 C 19.404354,27.537105 19.505578,28.313294 19.482106,29.115988 C 19.387851,32.33303 17.504688,34.632928 15.283852,34.241861 z " />
    <path
       style="fill:none;fill-opacity:1;fill-rule:evenodd;stroke:url(#linearGradient4831);stroke-width:1.00000012;stroke-linecap:butt;stroke-linejoin:miter;stroke-miterlimit:4;stroke-dasharray:none;stroke-opacity:1"
       d="M 4.5000022,38.943503 L 4.5000022,10.156899 L 31.500027,3.4999976 L 31.500027,46.499988 L 4.5000022,38.943503 z "
       id="path1963" />
    <path
       style="fill:none;fill-opacity:1;fill-rule:evenodd;stroke:white;stroke-width:2.00000095;stroke-linecap:butt;stroke-linejoin:miter;stroke-miterlimit:4;stroke-dasharray:none;stroke-opacity:1"
       d="M 7.0000048,36.673636 L 7.0000048,12.807265 L 28.000012,7.9361721 L 28.000012,41.97872 L 7.0000048,36.673636 z "
       id="path3948"
       sodipodi:nodetypes="ccccc" />
    <path
       style="color:black;fill:#8f8f8f;fill-opacity:1;fill-rule:evenodd;stroke:#595959;stroke-width:1.02248359;stroke-linecap:round;stroke-linejoin:round;marker:none;marker-start:none;marker-mid:none;marker-end:none;stroke-miterlimit:4;stroke-dasharray:none;stroke-dashoffset:0;stroke-opacity:1;visibility:visible;display:inline;overflow:visible"
       d="M 33.569644,12.511242 L 29.780141,16.820495 L 26.885341,15.045145 L 27.885391,15.828331 L 25.116152,13.666299 L 21.253782,16.109691 L 21.793052,22.699443 L 16.283712,24.135861 L 15.511232,28.489541 L 20.262682,32.1028 L 16.793832,37.34498 L 19.694252,41.19518 L 19.718662,41.17658 L 22.813302,43.13508 L 26.165551,41.83194 L 27.477291,45.07498 L 27.525091,45.0619 L 30.610921,47.01489 L 35.959944,47.48876 L 37.912984,41.28403 L 43.436904,42.77968 L 46.002104,38.61851 L 43.057954,32.96169 L 47.488754,28.85975 L 46.308184,23.913734 L 43.185364,21.940603 L 43.189134,21.97383 L 40.711384,21.60362 L 40.740534,16.450285 L 37.606914,14.521361 L 37.606914,14.510381 L 33.569644,12.511242 z M 33.074094,25.972107 C 33.162484,25.972107 33.234774,26.025243 33.321864,26.031341 C 33.906454,26.903508 34.312964,27.963343 34.312964,29.15592 C 34.312964,31.97851 32.351804,34.26483 29.940471,34.26483 C 29.847141,34.26483 29.770021,34.21234 29.678121,34.2056 C 29.090921,33.33648 28.687021,32.2884 28.687021,31.09583 C 28.687021,28.273235 30.662751,25.972107 33.074094,25.972107 z "
       id="path2041"
       sodipodi:nodetypes="ccccccccccccccccccccccccccccccccccsscsc" />
    <path
       style="color:black;fill:url(#linearGradient4987);fill-opacity:1;fill-rule:evenodd;stroke:none;stroke-width:1.86331141;stroke-linecap:round;stroke-linejoin:round;marker:none;marker-start:none;marker-mid:none;marker-end:none;stroke-miterlimit:4;stroke-dashoffset:0;stroke-opacity:1;visibility:visible;display:inline;overflow:visible"
       d="M 33.529154,13 L 29.588771,17.46078 L 25.316962,14.127787 L 21.572982,16.494438 L 22.100822,22.877227 L 16.748792,24.268531 L 15.999992,28.476468 L 20.603242,31.97624 L 17.244702,37.05912 L 20.055752,40.78839 L 25.260482,38.76598 L 27.617341,44.54635 L 32.817184,45 L 34.707574,38.99014 L 40.059614,40.43882 L 42.551504,36.40834 L 39.703634,30.92918 L 43.999994,26.956074 L 42.858394,22.165397 L 37.420424,21.347826 L 37.444974,14.936351 L 33.529154,13 z M 30.006131,24.159122 C 33.088344,24.159122 34.674214,26.387978 34.674214,29.121918 C 34.674214,31.85586 32.345894,34.44687 30.006131,34.44687 C 27.666371,34.44687 25.758871,31.85586 25.758871,29.121918 C 25.758871,26.387977 27.666371,24.159122 30.006131,24.159122 z "
       id="path2043"
       sodipodi:nodetypes="cccccccccccccccccccccccssss" />
    <path
       id="path1317"
       d="M 33.524424,13 L 29.580281,17.512519 L 25.314162,14.142856 L 21.565492,16.53461 L 22.094452,22.979382 L 16.747422,24.393225 L 15.999992,28.634757 L 16.471452,29 C 19.227612,27.321336 22.880022,26.212399 26.947011,25.854197 C 27.721591,24.893072 28.797471,24.275405 30.005741,24.275405 C 31.648974,24.275405 32.825854,24.944123 33.604924,25.960236 C 36.918754,26.398375 39.878084,27.380102 42.263644,28.729014 L 43.999994,27.103093 L 42.850094,22.260677 L 37.411084,21.435936 L 37.445574,14.955817 L 33.524424,13 z "
       style="color:black;fill:url(#linearGradient4984);fill-opacity:1;fill-rule:evenodd;stroke:none;stroke-width:1.86331141;stroke-linecap:round;stroke-linejoin:round;marker:none;marker-start:none;marker-mid:none;marker-end:none;stroke-miterlimit:4;stroke-dashoffset:0;stroke-opacity:1;visibility:visible;display:inline;overflow:visible" />
    <path
       style="color:black;fill:none;fill-opacity:1;fill-rule:evenodd;stroke:url(#linearGradient4981);stroke-width:0.96760046;stroke-linecap:round;stroke-linejoin:round;marker:none;marker-start:none;marker-mid:none;marker-end:none;stroke-miterlimit:4;stroke-dasharray:none;stroke-dashoffset:0;stroke-opacity:1;visibility:visible;display:inline;overflow:visible"
       d="M 33.396722,13.483804 L 29.642157,17.931401 L 25.134978,14.586563 L 21.915511,16.557444 L 22.687714,22.884395 L 17.041779,24.588072 L 16.483798,28.101938 L 21.142177,31.867299 L 17.611035,36.923188 L 20.178979,40.483884 L 25.079928,38.334732 L 27.548876,44.072632 L 32.616887,44.516211 L 34.459359,38.639721 L 39.675717,40.056256 L 42.104436,36.11522 L 39.32876,30.75766 L 43.5162,26.872722 L 42.489452,22.445799 L 37.189353,21.646372 L 37.213279,15.291371 L 33.396722,13.483804 z M 29.877106,24.137841 C 32.881173,24.137841 34.426841,26.317235 34.426841,28.990502 C 34.426841,31.663765 32.157548,34.19728 29.877106,34.19728 C 27.596658,34.19728 25.737518,31.663765 25.737518,28.990502 C 25.737518,26.317234 27.596658,24.137841 29.877106,24.137841 z "
       id="path5772"
       sodipodi:nodetypes="cccccccccccccccccccccccssss" />
  </g>
</svg>
