<?xml version="1.0" encoding="UTF-8" standalone="no"?>
<!-- Created with Inkscape (http://www.inkscape.org/) -->
<svg
   xmlns:dc="http://purl.org/dc/elements/1.1/"
   xmlns:cc="http://web.resource.org/cc/"
   xmlns:rdf="http://www.w3.org/1999/02/22-rdf-syntax-ns#"
   xmlns:svg="http://www.w3.org/2000/svg"
   xmlns="http://www.w3.org/2000/svg"
   xmlns:xlink="http://www.w3.org/1999/xlink"
   xmlns:sodipodi="http://inkscape.sourceforge.net/DTD/sodipodi-0.dtd"
   xmlns:inkscape="http://www.inkscape.org/namespaces/inkscape"
   width="48"
   height="48"
   id="svg2"
   sodipodi:version="0.32"
   inkscape:version="0.43+devel"
   version="1.0"
   sodipodi:docbase="/home/silvestre/Neu/scalable/apps"
   sodipodi:docname="preferences-system-windows.svg">
  <defs
     id="defs4">
    <linearGradient
       inkscape:collect="always"
       id="linearGradient5712">
      <stop
         style="stop-color:white;stop-opacity:0.64806867"
         offset="0"
         id="stop5714" />
      <stop
         style="stop-color:white;stop-opacity:0.24892704"
         offset="1"
         id="stop5716" />
    </linearGradient>
    <linearGradient
       inkscape:collect="always"
       id="linearGradient5702">
      <stop
         style="stop-color:white;stop-opacity:1;"
         offset="0"
         id="stop5704" />
      <stop
         style="stop-color:white;stop-opacity:0.39055794"
         offset="1"
         id="stop5706" />
    </linearGradient>
    <linearGradient
       inkscape:collect="always"
       id="linearGradient5692">
      <stop
         style="stop-color:white;stop-opacity:0.81960785"
         offset="0"
         id="stop5694" />
      <stop
         style="stop-color:white;stop-opacity:0.40784314"
         offset="1"
         id="stop5696" />
    </linearGradient>
    <linearGradient
       inkscape:collect="always"
       id="linearGradient4806">
      <stop
         style="stop-color:black;stop-opacity:0.49785408"
         offset="0"
         id="stop4808" />
      <stop
         style="stop-color:black;stop-opacity:0;"
         offset="1"
         id="stop4810" />
    </linearGradient>
    <linearGradient
       inkscape:collect="always"
       id="linearGradient4793">
      <stop
         style="stop-color:#f9f9f9;stop-opacity:1;"
         offset="0"
         id="stop4795" />
      <stop
         style="stop-color:#dcdcdc;stop-opacity:1"
         offset="1"
         id="stop4797" />
    </linearGradient>
    <linearGradient
       inkscape:collect="always"
       xlink:href="#linearGradient4793"
       id="linearGradient5745"
       gradientUnits="userSpaceOnUse"
       x1="17.324116"
       y1="12.28867"
       x2="17.324116"
       y2="37.926449" />
    <linearGradient
       inkscape:collect="always"
       xlink:href="#linearGradient4806"
       id="linearGradient5747"
       gradientUnits="userSpaceOnUse"
       x1="37.504166"
       y1="21.875"
       x2="27.997295"
       y2="21.875" />
    <linearGradient
       inkscape:collect="always"
       xlink:href="#linearGradient5692"
       id="linearGradient5749"
       gradientUnits="userSpaceOnUse"
       x1="33.625618"
       y1="33.649742"
       x2="33.625618"
       y2="4.2131443" />
    <linearGradient
       inkscape:collect="always"
       xlink:href="#linearGradient5702"
       id="linearGradient5751"
       gradientUnits="userSpaceOnUse"
       x1="12.125"
       y1="1.2498183"
       x2="12.125"
       y2="44.267635" />
    <linearGradient
       inkscape:collect="always"
       xlink:href="#linearGradient5712"
       id="linearGradient5753"
       gradientUnits="userSpaceOnUse"
       gradientTransform="matrix(1,0,0,1.052632,0,-0.263158)"
       x1="21.844343"
       y1="3.5399165"
       x2="21.844343"
       y2="22.083397" />
    <linearGradient
       inkscape:collect="always"
       xlink:href="#linearGradient4793"
       id="linearGradient5755"
       gradientUnits="userSpaceOnUse"
       x1="17.324116"
       y1="12.28867"
       x2="17.324116"
       y2="37.926449" />
    <linearGradient
       inkscape:collect="always"
       xlink:href="#linearGradient4806"
       id="linearGradient5757"
       gradientUnits="userSpaceOnUse"
       x1="37.504166"
       y1="21.875"
       x2="27.997295"
       y2="21.875" />
    <linearGradient
       inkscape:collect="always"
       xlink:href="#linearGradient5692"
       id="linearGradient5759"
       gradientUnits="userSpaceOnUse"
       x1="33.625618"
       y1="33.649742"
       x2="33.625618"
       y2="4.2131443" />
    <linearGradient
       inkscape:collect="always"
       xlink:href="#linearGradient5702"
       id="linearGradient5761"
       gradientUnits="userSpaceOnUse"
       x1="12.125"
       y1="1.2498183"
       x2="12.125"
       y2="44.267635" />
    <linearGradient
       inkscape:collect="always"
       xlink:href="#linearGradient5712"
       id="linearGradient5763"
       gradientUnits="userSpaceOnUse"
       gradientTransform="matrix(1,0,0,1.052632,0,-0.263158)"
       x1="21.844343"
       y1="3.5399165"
       x2="21.844343"
       y2="22.083397" />
  </defs>
  <sodipodi:namedview
     id="base"
     pagecolor="#ffffff"
     bordercolor="#666666"
     borderopacity="1.0"
     inkscape:pageopacity="0.0"
     inkscape:pageshadow="2"
     inkscape:zoom="1"
     inkscape:cx="24"
     inkscape:cy="24"
     inkscape:document-units="px"
     inkscape:current-layer="layer1"
     width="48px"
     height="48px"
     inkscape:showpageshadow="false"
     showgrid="false"
     inkscape:window-width="823"
     inkscape:window-height="536"
     inkscape:window-x="0"
     inkscape:window-y="22"
     showborder="false" />
  <metadata
     id="metadata7">
    <rdf:RDF>
      <cc:Work
         rdf:about="">
        <dc:format>image/svg+xml</dc:format>
        <dc:type
           rdf:resource="http://purl.org/dc/dcmitype/StillImage" />
      </cc:Work>
    </rdf:RDF>
  </metadata>
  <g
     inkscape:label="Capa 1"
     inkscape:groupmode="layer"
     id="layer1">
    <g
       id="g5723"
       transform="translate(0,-3.005335)">
      <path
         sodipodi:nodetypes="ccccccccccc"
         id="rect3917"
         d="M 3.0244681,9.5047192 L 30.005253,4.5053348 L 33.975528,5.4999995 C 34.266084,5.4999995 34.499996,5.6553675 34.499996,5.8483583 L 34.499996,40.15166 C 34.499996,40.344651 34.266084,40.500019 33.975528,40.500019 L 30.005253,41.51194 L 3.0244681,40.485936 C 2.7552106,40.416787 2.5000002,40.330568 2.5000002,40.137577 L 2.5000002,9.853078 C 2.5000002,9.6674571 2.7631274,9.54429 3.0244681,9.5047192 z "
         style="opacity:1;fill:url(#linearGradient5755);fill-opacity:1;stroke:#ababab;stroke-width:1;stroke-linecap:round;stroke-linejoin:round;stroke-miterlimit:4;stroke-dashoffset:0;stroke-opacity:1" />
      <path
         sodipodi:nodetypes="ccccccc"
         id="rect4814"
         d="M 3,9.9939417 L 29.918593,5 L 34,6.0312499 L 34,11 L 29.918593,10 L 3,14.027301 L 3,9.9939417 z "
         style="fill:#1882ba;fill-opacity:1;stroke:none;stroke-width:1;stroke-linecap:round;stroke-linejoin:round;stroke-miterlimit:4;stroke-dashoffset:0;stroke-opacity:1" />
      <path
         sodipodi:nodetypes="ccccc"
         id="rect4801"
         d="M 30,5 L 34,6 L 34,39.96875 L 30,41 L 30,5 z "
         style="opacity:1;fill:url(#linearGradient5757);fill-opacity:1;stroke:none;stroke-width:1;stroke-linecap:round;stroke-linejoin:round;stroke-miterlimit:4;stroke-dashoffset:0;stroke-opacity:1" />
      <path
         id="path4817"
         d="M 29.5,4.9375 L 29.5,41.0625"
         style="fill:none;fill-opacity:1;fill-rule:evenodd;stroke:url(#linearGradient5759);stroke-width:1px;stroke-linecap:butt;stroke-linejoin:miter;stroke-opacity:1" />
      <path
         sodipodi:nodetypes="ccccccccccc"
         id="path5700"
         d="M 3.9916886,10.228302 L 29.551802,5.4999995 L 33.00831,6.3157305 C 33.280706,6.3938555 33.499998,6.462674 33.499998,6.6452002 L 33.499998,39.213474 C 33.499998,39.396 33.280706,39.542944 33.00831,39.542944 L 29.286177,40.499995 L 3.9916886,39.516948 C 3.7392602,39.451548 3.4999999,39.370004 3.4999999,39.187478 L 3.4999999,10.557772 C 3.4999999,10.382216 3.7466815,10.265727 3.9916886,10.228302 z "
         style="opacity:1;fill:none;fill-opacity:1;stroke:url(#linearGradient5761);stroke-width:1;stroke-linecap:round;stroke-linejoin:miter;stroke-miterlimit:4;stroke-dasharray:none;stroke-dashoffset:0;stroke-opacity:1" />
      <path
         sodipodi:nodetypes="cccccc"
         id="path5710"
         d="M 3.5080784,10.153269 L 29.645717,5 L 29.645717,26.375 C 25.129805,17.632287 6.3515792,18.597093 3,26.375 L 3,10.512351 C 3,10.321017 3.2549045,10.194058 3.5080784,10.153269 z "
         style="opacity:0.78242678;fill:url(#linearGradient5763);fill-opacity:1;stroke:none;stroke-width:1;stroke-linecap:round;stroke-linejoin:round;stroke-miterlimit:4;stroke-dashoffset:0;stroke-opacity:1" />
    </g>
    <g
       id="g5731"
       transform="translate(10,5.98806)">
      <path
         sodipodi:nodetypes="ccccccccccc"
         id="path5733"
         d="M 3.0244681,9.5047192 L 30.005253,4.5053348 L 33.975528,5.4999995 C 34.266084,5.4999995 34.499996,5.6553675 34.499996,5.8483583 L 34.499996,40.15166 C 34.499996,40.344651 34.266084,40.500019 33.975528,40.500019 L 30.005253,41.51194 L 3.0244681,38.500019 C 2.7552106,38.43087 2.5000002,38.344651 2.5000002,38.15166 L 2.5000002,9.853078 C 2.5000002,9.6674571 2.7631274,9.54429 3.0244681,9.5047192 z "
         style="opacity:1;fill:url(#linearGradient5745);fill-opacity:1;stroke:#ababab;stroke-width:1;stroke-linecap:round;stroke-linejoin:round;stroke-miterlimit:4;stroke-dashoffset:0;stroke-opacity:1" />
      <path
         sodipodi:nodetypes="ccccccc"
         id="path5735"
         d="M 3,9.9939417 L 29.918593,5 L 34,6.0312499 L 34,11 L 29.918593,10 L 3,14.027301 L 3,9.9939417 z "
         style="fill:#1882ba;fill-opacity:1;stroke:none;stroke-width:1;stroke-linecap:round;stroke-linejoin:round;stroke-miterlimit:4;stroke-dashoffset:0;stroke-opacity:1" />
      <path
         sodipodi:nodetypes="ccccc"
         id="path5737"
         d="M 30,5 L 34,6 L 34,39.96875 L 30,41 L 30,5 z "
         style="opacity:1;fill:url(#linearGradient5747);fill-opacity:1;stroke:none;stroke-width:1;stroke-linecap:round;stroke-linejoin:round;stroke-miterlimit:4;stroke-dashoffset:0;stroke-opacity:1" />
      <path
         id="path5739"
         d="M 29.5,4.9375 L 29.5,41.0625"
         style="fill:none;fill-opacity:1;fill-rule:evenodd;stroke:url(#linearGradient5749);stroke-width:1px;stroke-linecap:butt;stroke-linejoin:miter;stroke-opacity:1" />
      <path
         sodipodi:nodetypes="ccccccccccc"
         id="path5741"
         d="M 3.9916886,10.228302 L 29.551802,5.4999995 L 33.00831,6.3157305 C 33.280706,6.3938555 33.499998,6.462674 33.499998,6.6452002 L 33.499998,39.213474 C 33.499998,39.396 33.280706,39.542944 33.00831,39.542944 L 29.286177,40.499995 L 3.9916886,37.65139 C 3.7392602,37.58599 3.4999999,37.504446 3.4999999,37.32192 L 3.4999999,10.557772 C 3.4999999,10.382216 3.7466815,10.265727 3.9916886,10.228302 z "
         style="opacity:1;fill:none;fill-opacity:1;stroke:url(#linearGradient5751);stroke-width:1;stroke-linecap:round;stroke-linejoin:miter;stroke-miterlimit:4;stroke-dasharray:none;stroke-dashoffset:0;stroke-opacity:1" />
      <path
         sodipodi:nodetypes="cccccc"
         id="path5743"
         d="M 3.5080784,10.153269 L 29.645717,5 L 29.645717,26.375 C 25.129805,17.632287 6.3515792,18.597093 3,26.375 L 3,10.512351 C 3,10.321017 3.2549045,10.194058 3.5080784,10.153269 z "
         style="opacity:0.78242678;fill:url(#linearGradient5753);fill-opacity:1;stroke:none;stroke-width:1;stroke-linecap:round;stroke-linejoin:round;stroke-miterlimit:4;stroke-dashoffset:0;stroke-opacity:1" />
    </g>
  </g>
</svg>
