<?xml version="1.0" encoding="UTF-8" standalone="no"?>
<!-- Created with Inkscape (http://www.inkscape.org/) -->
<svg
   xmlns:dc="http://purl.org/dc/elements/1.1/"
   xmlns:cc="http://web.resource.org/cc/"
   xmlns:rdf="http://www.w3.org/1999/02/22-rdf-syntax-ns#"
   xmlns:svg="http://www.w3.org/2000/svg"
   xmlns="http://www.w3.org/2000/svg"
   xmlns:xlink="http://www.w3.org/1999/xlink"
   xmlns:sodipodi="http://inkscape.sourceforge.net/DTD/sodipodi-0.dtd"
   xmlns:inkscape="http://www.inkscape.org/namespaces/inkscape"
   width="48"
   height="48"
   id="svg14"
   sodipodi:version="0.32"
   inkscape:version="0.43+devel"
   sodipodi:docbase="/home/silvestre/Desktop/Neu/scalable/apps"
   sodipodi:docname="preferences-user-information.svg"
   version="1.0">
  <defs
     id="defs3">
    <linearGradient
       id="linearGradient4925">
      <stop
         style="stop-color:white;stop-opacity:1"
         offset="0"
         id="stop4927" />
      <stop
         id="stop4933"
         offset="0.5"
         style="stop-color:#f3f3f3;stop-opacity:1;" />
      <stop
         style="stop-color:#bfbfbf;stop-opacity:1;"
         offset="1"
         id="stop4929" />
    </linearGradient>
    <linearGradient
       inkscape:collect="always"
       id="linearGradient26840">
      <stop
         style="stop-color:#dd1a1a;stop-opacity:1"
         offset="0"
         id="stop26842" />
      <stop
         style="stop-color:#810f0f;stop-opacity:1"
         offset="1"
         id="stop26844" />
    </linearGradient>
    <linearGradient
       inkscape:collect="always"
       id="linearGradient22429">
      <stop
         style="stop-color:black;stop-opacity:1;"
         offset="0"
         id="stop22431" />
      <stop
         style="stop-color:black;stop-opacity:0;"
         offset="1"
         id="stop22433" />
    </linearGradient>
    <linearGradient
       inkscape:collect="always"
       id="linearGradient21548">
      <stop
         style="stop-color:white;stop-opacity:1;"
         offset="0"
         id="stop21550" />
      <stop
         style="stop-color:white;stop-opacity:0;"
         offset="1"
         id="stop21552" />
    </linearGradient>
    <linearGradient
       inkscape:collect="always"
       id="linearGradient18874">
      <stop
         style="stop-color:#ddd;stop-opacity:1"
         offset="0"
         id="stop18876" />
      <stop
         style="stop-color:black;stop-opacity:1"
         offset="1"
         id="stop18878" />
    </linearGradient>
    <linearGradient
       inkscape:collect="always"
       id="linearGradient12737">
      <stop
         style="stop-color:white;stop-opacity:1;"
         offset="0"
         id="stop12739" />
      <stop
         style="stop-color:white;stop-opacity:0;"
         offset="1"
         id="stop12741" />
    </linearGradient>
    <linearGradient
       inkscape:collect="always"
       id="linearGradient10098">
      <stop
         style="stop-color:white;stop-opacity:1;"
         offset="0"
         id="stop10100" />
      <stop
         style="stop-color:white;stop-opacity:0.3004292"
         offset="1"
         id="stop10102" />
    </linearGradient>
    <linearGradient
       inkscape:collect="always"
       id="linearGradient8342">
      <stop
         style="stop-color:white;stop-opacity:1;"
         offset="0"
         id="stop8344" />
      <stop
         style="stop-color:white;stop-opacity:0;"
         offset="1"
         id="stop8346" />
    </linearGradient>
    <linearGradient
       id="linearGradient4832">
      <stop
         style="stop-color:#fffdf5;stop-opacity:1;"
         offset="0"
         id="stop4834" />
      <stop
         id="stop4840"
         offset="0.5"
         style="stop-color:#ffe16f;stop-opacity:1;" />
      <stop
         style="stop-color:#c4a600;stop-opacity:1;"
         offset="0.75"
         id="stop4842" />
      <stop
         style="stop-color:#aa9000;stop-opacity:1;"
         offset="1"
         id="stop4836" />
    </linearGradient>
    <radialGradient
       inkscape:collect="always"
       xlink:href="#linearGradient4832"
       id="radialGradient33236"
       gradientUnits="userSpaceOnUse"
       gradientTransform="matrix(1.166794,1.633432e-16,-1.633432e-16,1.166794,-14.1775,-2.918896)"
       cx="83.051956"
       cy="15.584253"
       fx="83.051956"
       fy="15.584253"
       r="21.75" />
    <linearGradient
       inkscape:collect="always"
       xlink:href="#linearGradient8342"
       id="linearGradient33238"
       gradientUnits="userSpaceOnUse"
       x1="85.622726"
       y1="-5.7974238"
       x2="85.622726"
       y2="45.035698" />
    <linearGradient
       inkscape:collect="always"
       xlink:href="#linearGradient10098"
       id="linearGradient33240"
       gradientUnits="userSpaceOnUse"
       x1="75.860703"
       y1="-0.11439113"
       x2="87.538048"
       y2="43.466064" />
    <linearGradient
       inkscape:collect="always"
       xlink:href="#linearGradient12737"
       id="linearGradient33242"
       gradientUnits="userSpaceOnUse"
       x1="82.341637"
       y1="22.807331"
       x2="75.412285"
       y2="18.754719" />
    <radialGradient
       inkscape:collect="always"
       xlink:href="#linearGradient18874"
       id="radialGradient33246"
       gradientUnits="userSpaceOnUse"
       gradientTransform="matrix(1,0,0,1.44898,7.63278e-15,-9.723214)"
       cx="97.03125"
       cy="21.656244"
       fx="97.03125"
       fy="20.5779"
       r="1.53125" />
    <linearGradient
       inkscape:collect="always"
       xlink:href="#linearGradient12737"
       id="linearGradient33248"
       gradientUnits="userSpaceOnUse"
       x1="82.341637"
       y1="22.807331"
       x2="75.412285"
       y2="18.754719" />
    <radialGradient
       inkscape:collect="always"
       xlink:href="#linearGradient4925"
       id="radialGradient33250"
       gradientUnits="userSpaceOnUse"
       gradientTransform="matrix(1.134321,-0.269128,0.271418,0.699749,-15.12345,27.06597)"
       cx="76.159027"
       cy="17.322357"
       fx="76.159027"
       fy="17.322357"
       r="6" />
    <radialGradient
       inkscape:collect="always"
       xlink:href="#linearGradient18874"
       id="radialGradient33252"
       gradientUnits="userSpaceOnUse"
       gradientTransform="matrix(1,-0.759933,0.680865,1.213188,-14.74497,69.12039)"
       cx="97.03125"
       cy="21.656244"
       fx="97.03125"
       fy="20.5779"
       r="1.53125" />
    <linearGradient
       inkscape:collect="always"
       xlink:href="#linearGradient22429"
       id="linearGradient33254"
       gradientUnits="userSpaceOnUse"
       gradientTransform="matrix(1.015559,0,0,1.034986,69.18036,-75.72993)"
       x1="89.283569"
       y1="30.661186"
       x2="89.283569"
       y2="42.931355" />
    <linearGradient
       inkscape:collect="always"
       xlink:href="#linearGradient21548"
       id="linearGradient33256"
       gradientUnits="userSpaceOnUse"
       gradientTransform="matrix(1.015559,0,0,1.034986,69.18036,-75.72993)"
       x1="91"
       y1="41.25"
       x2="88.553329"
       y2="32.118896" />
    <linearGradient
       inkscape:collect="always"
       xlink:href="#linearGradient26840"
       id="linearGradient33258"
       gradientUnits="userSpaceOnUse"
       gradientTransform="matrix(0.973765,0,0,0.978911,73.26829,-73.92407)"
       x1="88.379189"
       y1="41.421585"
       x2="88.379189"
       y2="36.394733" />
    <radialGradient
       inkscape:collect="always"
       xlink:href="#linearGradient4925"
       id="radialGradient4931"
       cx="76.34375"
       cy="18.108305"
       fx="76.34375"
       fy="18.108305"
       r="6"
       gradientTransform="matrix(1.25531,2.096951e-16,-4.959457e-16,0.640731,-19.4913,7.401295)"
       gradientUnits="userSpaceOnUse" />
    <linearGradient
       gradientTransform="matrix(0.389815,0,0,0.382452,0.794009,-1.303191)"
       gradientUnits="userSpaceOnUse"
       y2="63.299728"
       x2="66.135506"
       y1="63.299728"
       x1="109.38406"
       id="linearGradient7758"
       xlink:href="#linearGradient7752"
       inkscape:collect="always" />
    <linearGradient
       gradientTransform="matrix(0.378285,0,0,0.378285,-0.189143,-0.32181)"
       gradientUnits="userSpaceOnUse"
       y2="86.99852"
       x2="111.17001"
       y1="141.30928"
       x1="17.101027"
       id="linearGradient6002"
       xlink:href="#linearGradient5996"
       inkscape:collect="always" />
    <radialGradient
       r="57.5"
       fy="145.41862"
       fx="50.669872"
       cy="114"
       cx="52.5"
       gradientTransform="matrix(0.34868,0,0,7.72303e-2,1.743401,34.75497)"
       gradientUnits="userSpaceOnUse"
       id="radialGradient5113"
       xlink:href="#linearGradient5104"
       inkscape:collect="always" />
    <radialGradient
       gradientTransform="matrix(0.436271,0,0,0.449042,-2.145851,-1.924111)"
       r="49.918098"
       fy="76.752853"
       fx="67.655052"
       cy="76.752853"
       cx="67.655052"
       gradientUnits="userSpaceOnUse"
       id="radialGradient4227"
       xlink:href="#linearGradient4176"
       inkscape:collect="always" />
    <radialGradient
       gradientUnits="userSpaceOnUse"
       gradientTransform="matrix(0.433809,0,0,0.300491,-7.155256,0.300831)"
       r="32.085793"
       fy="33.755856"
       fx="62.970509"
       cy="48.729244"
       cx="62.970509"
       id="radialGradient4203"
       xlink:href="#linearGradient4197"
       inkscape:collect="always" />
    <linearGradient
       gradientTransform="matrix(0.35422,0,0,0.400817,5.540209e-2,-2.57936)"
       gradientUnits="userSpaceOnUse"
       y2="98.832764"
       x2="57.994637"
       y1="3.4719357"
       x1="75.787148"
       id="linearGradient4193"
       xlink:href="#linearGradient4187"
       inkscape:collect="always" />
    <linearGradient
       id="linearGradient4176">
      <stop
         id="stop4178"
         offset="0"
         style="stop-color:#51a0f8;stop-opacity:1;" />
      <stop
         id="stop4180"
         offset="1"
         style="stop-color:#0363d0;stop-opacity:1;" />
    </linearGradient>
    <linearGradient
       id="linearGradient4187"
       inkscape:collect="always">
      <stop
         id="stop4189"
         offset="0"
         style="stop-color:#ffffff;stop-opacity:1;" />
      <stop
         id="stop4191"
         offset="1"
         style="stop-color:#ffffff;stop-opacity:0.27843139" />
    </linearGradient>
    <linearGradient
       id="linearGradient4197"
       inkscape:collect="always">
      <stop
         id="stop4199"
         offset="0"
         style="stop-color:#ffffff;stop-opacity:1;" />
      <stop
         id="stop4201"
         offset="1"
         style="stop-color:#ffffff;stop-opacity:0;" />
    </linearGradient>
    <linearGradient
       id="linearGradient5104"
       inkscape:collect="always">
      <stop
         id="stop5106"
         offset="0"
         style="stop-color:#000000;stop-opacity:1;" />
      <stop
         id="stop5108"
         offset="1"
         style="stop-color:#000000;stop-opacity:0;" />
    </linearGradient>
    <linearGradient
       id="linearGradient5996"
       inkscape:collect="always">
      <stop
         id="stop5998"
         offset="0"
         style="stop-color:#000000;stop-opacity:0.19313304" />
      <stop
         id="stop6000"
         offset="1"
         style="stop-color:#000000;stop-opacity:0;" />
    </linearGradient>
    <linearGradient
       id="linearGradient7752"
       inkscape:collect="always">
      <stop
         id="stop7754"
         offset="0"
         style="stop-color:#000000;stop-opacity:0.36909872" />
      <stop
         id="stop7756"
         offset="1"
         style="stop-color:#000000;stop-opacity:0;" />
    </linearGradient>
  </defs>
  <sodipodi:namedview
     id="base"
     pagecolor="#ffffff"
     bordercolor="#666666"
     borderopacity="1.0"
     inkscape:pageopacity="0.0"
     inkscape:pageshadow="2"
     inkscape:zoom="1"
     inkscape:cx="29.407252"
     inkscape:cy="16.101795"
     inkscape:document-units="px"
     inkscape:current-layer="g28659"
     inkscape:window-width="843"
     inkscape:window-height="556"
     inkscape:window-x="58"
     inkscape:window-y="35"
     inkscape:showpageshadow="false"
     width="48px"
     height="48px"
     showgrid="false"
     showborder="false" />
  <metadata
     id="metadata4">
    <rdf:RDF>
      <cc:Work
         rdf:about="">
        <dc:format>image/svg+xml</dc:format>
        <dc:type
           rdf:resource="http://purl.org/dc/dcmitype/StillImage" />
      </cc:Work>
    </rdf:RDF>
  </metadata>
  <g
     inkscape:label="Layer 1"
     inkscape:groupmode="layer"
     id="layer1">
    <g
       transform="matrix(1.093438,0,0,1.097101,-152.7469,80.38981)"
       id="g28659">
      <path
         sodipodi:type="arc"
         style="opacity:1;fill:url(#radialGradient33236);fill-opacity:1;stroke:#8e7d00;stroke-width:0.9052462;stroke-linecap:round;stroke-linejoin:round;stroke-miterlimit:4;stroke-dasharray:none;stroke-dashoffset:0;stroke-opacity:1"
         id="path28661"
         sodipodi:cx="87.875"
         sodipodi:cy="23.625"
         sodipodi:rx="21.25"
         sodipodi:ry="21.25"
         d="M 109.125 23.625 A 21.25 21.25 0 1 1  66.625,23.625 A 21.25 21.25 0 1 1  109.125 23.625 z"
         transform="matrix(1.010391,0,0,1.006783,72.86611,-75.16977)" />
      <path
         sodipodi:type="arc"
         style="opacity:1;fill:url(#linearGradient33238);fill-opacity:1;stroke:none;stroke-width:1;stroke-linecap:round;stroke-linejoin:round;stroke-miterlimit:4;stroke-dasharray:none;stroke-dashoffset:0;stroke-opacity:1"
         id="path28663"
         sodipodi:cx="87.875"
         sodipodi:cy="23.625"
         sodipodi:rx="21.25"
         sodipodi:ry="21.25"
         d="M 109.125 23.625 A 21.25 21.25 0 1 1  66.625,23.625 A 21.25 21.25 0 1 1  109.125 23.625 z"
         transform="matrix(0.774675,0,0,0.502062,93.56871,-72.64417)" />
      <path
         sodipodi:type="arc"
         style="opacity:1;fill:none;fill-opacity:1;stroke:url(#linearGradient33240);stroke-width:0.94444394;stroke-linecap:round;stroke-linejoin:round;stroke-miterlimit:4;stroke-dasharray:none;stroke-dashoffset:0;stroke-opacity:1"
         id="path28665"
         sodipodi:cx="87.875"
         sodipodi:cy="23.625"
         sodipodi:rx="21.25"
         sodipodi:ry="21.25"
         d="M 109.125 23.625 A 21.25 21.25 0 1 1  66.625,23.625 A 21.25 21.25 0 1 1  109.125 23.625 z"
         transform="matrix(0.968344,0,0,0.96511,76.55007,-74.19966)" />
      <g
         id="g28667"
         transform="matrix(1.025552,0,0,0.992162,65.40017,-77.8893)">
        <path
           transform="matrix(1.185096,0,0,2.55102,3.773128,-29.67347)"
           d="M 83.875 19.9375 A 6 3.0625 0 1 1  71.875,19.9375 A 6 3.0625 0 1 1  83.875 19.9375 z"
           sodipodi:ry="3.0625"
           sodipodi:rx="6"
           sodipodi:cy="19.9375"
           sodipodi:cx="77.875"
           id="path28669"
           style="opacity:0.66527201;fill:black;fill-opacity:0.79399139;stroke:url(#linearGradient33242);stroke-width:0.52056599;stroke-linecap:round;stroke-linejoin:round;stroke-miterlimit:4;stroke-dasharray:none;stroke-dashoffset:0;stroke-opacity:1"
           sodipodi:type="arc" />
        <path
           transform="matrix(1.080929,0,0,2.326792,11.88511,-25.20293)"
           style="fill:url(#radialGradient4931);fill-opacity:1;stroke:none;stroke-width:0.57513034;stroke-linecap:round;stroke-linejoin:round;stroke-miterlimit:4;stroke-dashoffset:0;stroke-opacity:1"
           d="M 83.875,19.9375 C 83.875,21.628 81.187,23 77.875,23 C 74.563,23 71.875,21.628 71.875,19.9375 C 71.875,18.247 74.563,16.875 77.875,16.875 C 81.187,16.875 83.875,18.247 83.875,19.9375 z "
           id="path28671" />
        <path
           transform="matrix(1.747121,0,0,1.449207,-75.68016,-8.818866)"
           d="M 98.5625 21.65625 A 1.53125 2.21875 0 1 1  95.5,21.65625 A 1.53125 2.21875 0 1 1  98.5625 21.65625 z"
           sodipodi:ry="2.21875"
           sodipodi:rx="1.53125"
           sodipodi:cy="21.65625"
           sodipodi:cx="97.03125"
           id="path28673"
           style="opacity:1;fill:url(#radialGradient33246);fill-opacity:1;stroke:none;stroke-width:1;stroke-linecap:round;stroke-linejoin:round;stroke-miterlimit:4;stroke-dasharray:none;stroke-dashoffset:0;stroke-opacity:1"
           sodipodi:type="arc" />
      </g>
      <g
         id="g28675"
         transform="matrix(0.824707,0,0,1.473778,78.89392,-85.8107)">
        <path
           transform="matrix(1.185096,0,0,1.515268,-12.91437,-9.335655)"
           style="opacity:0.66527201;fill:black;fill-opacity:0.79399139;stroke:url(#linearGradient33248);stroke-width:0.61800539;stroke-linecap:round;stroke-linejoin:round;stroke-miterlimit:4;stroke-dasharray:none;stroke-dashoffset:0;stroke-opacity:1"
           d="M 83.875,19.9375 C 83.875,21.628 81.187,23 77.875,23 C 76.220509,23 73.617112,22.799384 73.60083,21.885817 C 73.598575,21.75926 73.598253,21.635046 73.599969,21.513043 C 74.130782,21.571138 75.22073,18.599435 74.696801,17.882889 C 74.839131,17.689249 74.997277,17.498679 75.172348,17.309778 C 75.622549,16.824012 76.89588,16.875 77.875,16.875 C 81.187,16.875 83.875,18.247 83.875,19.9375 z "
           id="path28677"
           sodipodi:nodetypes="cssccssc" />
        <path
           style="fill:url(#radialGradient33250);fill-opacity:1;stroke:none;stroke-width:0.57513034;stroke-linecap:round;stroke-linejoin:round;stroke-miterlimit:4;stroke-dashoffset:0;stroke-opacity:1"
           d="M 83.875,19.9375 C 83.875,21.628 81.187,23 77.875,23 C 76.144565,23 73.445601,22.712646 73.489089,21.764069 C 72.913112,20.085941 73.752281,18.315767 75.067938,17.35527 C 75.685082,16.904724 76.861096,16.875 77.875,16.875 C 81.187,16.875 83.875,18.247 83.875,19.9375 z "
           id="path28679"
           sodipodi:nodetypes="cscssc"
           transform="matrix(1.080929,0,0,1.38208,-4.80239,-6.680221)" />
        <path
           transform="matrix(1.810516,0,0,0.836246,-93.63618,2.765509)"
           d="M 98.5625 21.65625 A 1.53125 2.21875 0 1 1  95.5,21.65625 A 1.53125 2.21875 0 1 1  98.5625 21.65625 z"
           sodipodi:ry="2.21875"
           sodipodi:rx="1.53125"
           sodipodi:cy="21.65625"
           sodipodi:cx="97.03125"
           id="path28681"
           style="fill:url(#radialGradient33252);fill-opacity:1;stroke:none;stroke-width:1;stroke-linecap:round;stroke-linejoin:round;stroke-miterlimit:4;stroke-dasharray:none;stroke-dashoffset:0;stroke-opacity:1"
           sodipodi:type="arc" />
      </g>
      <path
         style="fill:url(#linearGradient33254);fill-opacity:1;stroke:url(#linearGradient33256);stroke-width:0.91301847;stroke-linecap:round;stroke-linejoin:round;stroke-miterlimit:4;stroke-dashoffset:0;stroke-opacity:1"
         d="M 170.35542,-39.602439 C 170.35542,-36.835146 165.02374,-32.713314 158.45434,-32.713314 C 151.88494,-32.713314 146.55326,-36.835146 146.55326,-39.602439 C 146.55326,-42.369733 151.88494,-42.739741 158.45434,-42.739741 C 165.02374,-42.739741 170.35542,-42.369733 170.35542,-39.602439 z "
         id="path28683"
         sodipodi:nodetypes="csssc" />
      <path
         style="opacity:1;fill:url(#linearGradient33258);fill-opacity:1;stroke:#811111;stroke-width:1.00000024;stroke-linecap:round;stroke-linejoin:round;stroke-miterlimit:4;stroke-dasharray:none;stroke-dashoffset:0;stroke-opacity:1"
         d="M 154.882,-39.050335 C 152.04348,-39.050335 151.16953,-37.763308 151.16953,-36.14419 C 151.16953,-28.076046 165.71514,-28.075622 165.71514,-35.593552 C 165.71514,-37.197151 164.66069,-39.050335 161.08976,-39.050335 C 159.17761,-39.050335 158.66579,-37.890217 157.95546,-37.520783 C 157.24511,-37.890217 156.7525,-39.050335 154.882,-39.050335 z "
         id="path28685"
         sodipodi:nodetypes="cssscc" />
      <g
         id="g5817"
         inkscape:label="Capa 1"
         transform="matrix(0.537582,0,0,0.541449,157.7884,-55.51264)">
        <path
           id="path5119"
           d="M 47.144342,41.66428 C 43.957506,44.41418 32.792911,46.64597 22.22338,46.64597 C 11.65385,46.64597 5.6621049,44.41418 8.8489433,41.66428 C 12.035786,38.91439 23.200376,36.68259 33.769906,36.68259 C 44.339437,36.68259 50.331186,38.91439 47.144342,41.66428 z "
           style="fill:url(#linearGradient6002);fill-opacity:1;stroke:none;stroke-width:3.00000095;stroke-linecap:round;stroke-linejoin:miter;stroke-miterlimit:4;stroke-dashoffset:0;stroke-opacity:1" />
        <path
           id="path4229"
           d="M 40.098219,43.55926 C 40.098219,46.01055 31.116218,48 20.049109,48 C 8.9820009,48 0,46.01055 0,43.55926 C 0,41.10797 8.9820009,39.11852 20.049109,39.11852 C 31.116218,39.11852 40.098219,41.10797 40.098219,43.55926 z "
           style="opacity:0.43096236;fill:url(#radialGradient5113);fill-opacity:1;stroke:none;stroke-width:2;stroke-linecap:round;stroke-linejoin:miter;stroke-miterlimit:4;stroke-dashoffset:0;stroke-opacity:1" />
        <path
           id="path3305"
           d="M 43.666007,25.273649 C 43.666007,37.309698 34.175467,47.078081 22.481767,47.078081 C 10.788066,47.078081 1.2975254,37.309698 1.2975254,25.273649 C 1.2975254,13.237602 10.788066,3.4692132 22.481767,3.4692132 C 34.175467,3.4692132 43.666007,13.237602 43.666007,25.273649 z "
           style="fill:url(#radialGradient4227);fill-opacity:1;stroke:#04448c;stroke-width:1.85352588;stroke-linecap:round;stroke-linejoin:miter;stroke-miterlimit:4;stroke-dasharray:none;stroke-dashoffset:0;stroke-opacity:1" />
        <path
           id="path6877"
           d="M 40.907885,25.273643 C 40.907885,35.871543 32.624928,44.472735 22.419139,44.472735 C 12.213351,44.472735 3.930392,35.871543 3.930392,25.273643 C 3.930392,14.675741 12.213351,6.0745457 22.419139,6.0745457 C 32.624928,6.0745457 40.907885,14.675741 40.907885,25.273643 z "
           style="fill:none;fill-opacity:1;stroke:url(#linearGradient7758);stroke-width:3.70704985;stroke-linecap:round;stroke-linejoin:miter;stroke-miterlimit:4;stroke-dasharray:none;stroke-dashoffset:0;stroke-opacity:1" />
        <path
           id="path4185"
           d="M 38.562358,25.273659 C 38.562358,36.380455 30.596109,45.394664 20.780553,45.394664 C 10.964996,45.394664 2.9987471,36.380455 2.9987471,25.273659 C 2.9987471,14.166857 10.964996,5.152646 20.780553,5.152646 C 30.596109,5.152646 38.562358,14.166857 38.562358,25.273659 z "
           style="fill:none;fill-opacity:1;stroke:url(#linearGradient4193);stroke-width:1.85352635;stroke-linecap:round;stroke-linejoin:miter;stroke-miterlimit:4;stroke-dasharray:none;stroke-dashoffset:0;stroke-opacity:1" />
        <path
           id="path4195"
           d="M 34.080965,14.943501 C 34.080965,20.265598 27.845215,24.584983 20.16188,24.584983 C 12.478543,24.584983 6.2427932,20.265598 6.2427932,14.943501 C 6.2427932,9.6214045 12.478543,5.302023 20.16188,5.302023 C 27.845215,5.302023 34.080965,9.6214045 34.080965,14.943501 z "
           style="opacity:0.5690377;fill:url(#radialGradient4203);fill-opacity:1;stroke:none;stroke-width:2;stroke-linecap:round;stroke-linejoin:miter;stroke-miterlimit:4;stroke-dashoffset:0;stroke-opacity:0.27843137" />
        <path
           id="text4205"
           d="M 25.35154,36.465211 L 24.955564,38.196745 C 23.767631,38.696962 22.819695,39.075335 22.111753,39.331858 C 21.403789,39.601205 20.581846,39.73588 19.645914,39.73588 C 18.206003,39.73588 17.084078,39.363924 16.280135,38.620008 C 15.488186,37.863265 15.092209,36.907716 15.092213,35.753361 C 15.092209,35.304448 15.122209,34.849121 15.182206,34.387375 C 15.242201,33.912812 15.338195,33.380527 15.470187,32.790518 L 16.946092,27.172662 C 17.07808,26.633976 17.186071,26.127342 17.270071,25.652762 C 17.366058,25.165382 17.414055,24.722879 17.414062,24.325253 C 17.414055,23.607005 17.276064,23.106786 17.000089,22.824594 C 16.724103,22.542434 16.196138,22.401347 15.416194,22.401331 C 15.032215,22.401347 14.636242,22.465478 14.22827,22.593723 C 13.832296,22.722 13.490317,22.84385 13.202336,22.959268 L 13.598313,21.227737 C 14.570244,20.804494 15.500182,20.445362 16.388129,20.150341 C 17.276064,19.842531 18.11601,19.688619 18.907962,19.688599 C 20.33586,19.688619 21.433789,20.060575 22.201748,20.804474 C 22.981683,21.535584 23.371658,22.49113 23.37167,23.671121 C 23.371658,23.914832 23.34166,24.344509 23.281672,24.960149 C 23.233668,25.575819 23.137674,26.140167 22.993691,26.653202 L 21.517789,32.251818 C 21.397789,32.700741 21.289797,33.213787 21.193812,33.790958 C 21.09781,34.368139 21.049813,34.804228 21.04982,35.099226 C 21.049813,35.843146 21.205801,36.349779 21.517789,36.619125 C 21.82976,36.888477 22.369724,37.023151 23.137682,37.023149 C 23.497651,37.023151 23.905621,36.959022 24.361602,36.830757 C 24.817562,36.689671 25.14754,36.567823 25.35154,36.465211 M 25.729514,12.974104 C 25.729498,13.948919 25.381522,14.782618 24.68558,15.475205 C 24.001614,16.155015 23.173668,16.494907 22.201748,16.494886 C 21.229799,16.494907 20.395858,16.155015 19.699911,15.475205 C 19.003948,14.782618 18.655972,13.948919 18.65598,12.974104 C 18.655972,11.999344 19.003948,11.165645 19.699911,10.473005 C 20.395858,9.780422 21.229799,9.4341164 22.201748,9.4340858 C 23.173668,9.4341164 24.001614,9.780422 24.68558,10.473005 C 25.381522,11.165645 25.729498,11.999344 25.729514,12.974104"
           style="font-size:95.01869965px;font-style:italic;font-variant:normal;font-weight:bold;font-stretch:normal;text-align:start;line-height:125%;writing-mode:lr-tb;text-anchor:start;fill:white;fill-opacity:1;stroke:none;stroke-width:1px;stroke-linecap:butt;stroke-linejoin:miter;stroke-opacity:1;font-family:Georgia" />
      </g>
    </g>
  </g>
</svg>
