<?xml version="1.0" encoding="UTF-8" standalone="no"?>
<!-- Created with Inkscape (http://www.inkscape.org/) -->
<svg
   xmlns:dc="http://purl.org/dc/elements/1.1/"
   xmlns:cc="http://web.resource.org/cc/"
   xmlns:rdf="http://www.w3.org/1999/02/22-rdf-syntax-ns#"
   xmlns:svg="http://www.w3.org/2000/svg"
   xmlns="http://www.w3.org/2000/svg"
   xmlns:xlink="http://www.w3.org/1999/xlink"
   xmlns:sodipodi="http://inkscape.sourceforge.net/DTD/sodipodi-0.dtd"
   xmlns:inkscape="http://www.inkscape.org/namespaces/inkscape"
   width="48"
   height="48"
   id="svg2"
   sodipodi:version="0.32"
   inkscape:version="0.43+devel"
   sodipodi:docbase="/home/silvestre/Desktop/Neu/scalable/apps"
   sodipodi:docname="system-installer.svg"
   version="1.0">
  <defs
     id="defs4">
    <linearGradient
       inkscape:collect="always"
       id="linearGradient6664">
      <stop
         style="stop-color:white;stop-opacity:1;"
         offset="0"
         id="stop6666" />
      <stop
         style="stop-color:white;stop-opacity:0;"
         offset="1"
         id="stop6668" />
    </linearGradient>
    <linearGradient
       inkscape:collect="always"
       id="linearGradient5756">
      <stop
         style="stop-color:white;stop-opacity:0.85490197"
         offset="0"
         id="stop5758" />
      <stop
         style="stop-color:white;stop-opacity:0.4509804"
         offset="1"
         id="stop5760" />
    </linearGradient>
    <linearGradient
       inkscape:collect="always"
       id="linearGradient5746">
      <stop
         style="stop-color:white;stop-opacity:0.90987122"
         offset="0"
         id="stop5748" />
      <stop
         style="stop-color:white;stop-opacity:0.60392159"
         offset="1"
         id="stop5750" />
    </linearGradient>
    <linearGradient
       inkscape:collect="always"
       id="linearGradient5736">
      <stop
         style="stop-color:black;stop-opacity:0.60085839"
         offset="0"
         id="stop5738" />
      <stop
         style="stop-color:black;stop-opacity:0;"
         offset="1"
         id="stop5740" />
    </linearGradient>
    <linearGradient
       inkscape:collect="always"
       id="linearGradient5717">
      <stop
         style="stop-color:#6981b3;stop-opacity:1"
         offset="0"
         id="stop5719" />
      <stop
         style="stop-color:#8195bf;stop-opacity:1"
         offset="1"
         id="stop5721" />
    </linearGradient>
    <linearGradient
       inkscape:collect="always"
       id="linearGradient4836">
      <stop
         style="stop-color:white;stop-opacity:1;"
         offset="0"
         id="stop4838" />
      <stop
         style="stop-color:white;stop-opacity:0.58823532"
         offset="1"
         id="stop4840" />
    </linearGradient>
    <linearGradient
       inkscape:collect="always"
       id="linearGradient4828">
      <stop
         style="stop-color:#5a72a4;stop-opacity:0.627451"
         offset="0"
         id="stop4830" />
      <stop
         style="stop-color:#5a72a4;stop-opacity:0;"
         offset="1"
         id="stop4832" />
    </linearGradient>
    <linearGradient
       id="linearGradient8655">
      <stop
         style="stop-color:#000000;stop-opacity:0.30208334;"
         offset="0.0000000"
         id="stop8657" />
      <stop
         style="stop-color:#000000;stop-opacity:0;"
         offset="1"
         id="stop8659" />
    </linearGradient>
    <linearGradient
       id="linearGradient7917">
      <stop
         style="stop-color:#000000;stop-opacity:0.16666669;"
         offset="0.0000000"
         id="stop7919" />
      <stop
         style="stop-color:#000000;stop-opacity:0;"
         offset="1"
         id="stop7921" />
    </linearGradient>
    <linearGradient
       id="linearGradient6455">
      <stop
         style="stop-color:#e2e5ff;stop-opacity:1.0000000;"
         offset="0.0000000"
         id="stop6457" />
      <stop
         style="stop-color:#b5c6e7;stop-opacity:1.0000000;"
         offset="1.0000000"
         id="stop6459" />
    </linearGradient>
    <linearGradient
       id="linearGradient5703">
      <stop
         id="stop5705"
         offset="0.0000000"
         style="stop-color:#ffffff;stop-opacity:0.83333325;" />
      <stop
         id="stop5707"
         offset="1"
         style="stop-color:#ffffff;stop-opacity:0.0000000" />
    </linearGradient>
    <linearGradient
       id="linearGradient5691">
      <stop
         style="stop-color:#ffffff;stop-opacity:0.83333325;"
         offset="0.0000000"
         id="stop5693" />
      <stop
         style="stop-color:#ffffff;stop-opacity:0.0000000"
         offset="1"
         id="stop5695" />
    </linearGradient>
    <radialGradient
       inkscape:collect="always"
       xlink:href="#linearGradient7917"
       id="radialGradient3966"
       gradientUnits="userSpaceOnUse"
       gradientTransform="matrix(1,0,0,0.228426,-1.9564e-14,85.02033)"
       cx="51.231888"
       cy="110.19082"
       fx="51.231888"
       fy="110.19082"
       r="48.06039" />
    <linearGradient
       inkscape:collect="always"
       xlink:href="#linearGradient5736"
       id="linearGradient5742"
       x1="46.266068"
       y1="23.75"
       x2="33.85746"
       y2="23.75"
       gradientUnits="userSpaceOnUse" />
    <linearGradient
       inkscape:collect="always"
       xlink:href="#linearGradient5746"
       id="linearGradient5752"
       x1="17.67767"
       y1="6.2806997"
       x2="17.67767"
       y2="46.009853"
       gradientUnits="userSpaceOnUse" />
    <linearGradient
       inkscape:collect="always"
       xlink:href="#linearGradient5756"
       id="linearGradient5762"
       x1="34.559845"
       y1="5.9246836"
       x2="34.559845"
       y2="45.264244"
       gradientUnits="userSpaceOnUse" />
    <linearGradient
       inkscape:collect="always"
       xlink:href="#linearGradient4836"
       id="linearGradient5765"
       gradientUnits="userSpaceOnUse"
       gradientTransform="matrix(0.305739,0,0,0.31539,12.51236,10.43566)"
       x1="38.183765"
       y1="21.226875"
       x2="59.657269"
       y2="101.36707" />
    <linearGradient
       inkscape:collect="always"
       xlink:href="#linearGradient4828"
       id="linearGradient5768"
       gradientUnits="userSpaceOnUse"
       gradientTransform="matrix(0.306163,0,0,0.296958,12.99622,11.57534)"
       x1="100.05664"
       y1="65.067497"
       x2="57.319603"
       y2="65.067497" />
    <linearGradient
       inkscape:collect="always"
       xlink:href="#linearGradient5703"
       id="linearGradient5772"
       gradientUnits="userSpaceOnUse"
       gradientTransform="matrix(0.296884,0,0,0.291154,13.77009,12.40365)"
       x1="59.902058"
       y1="95.622185"
       x2="33.750458"
       y2="78.300934" />
    <linearGradient
       inkscape:collect="always"
       xlink:href="#linearGradient5691"
       id="linearGradient5775"
       gradientUnits="userSpaceOnUse"
       gradientTransform="matrix(0.294465,0,0,0.305712,13.26295,11.46264)"
       x1="31.114616"
       y1="33.89996"
       x2="48.388142"
       y2="61.223637" />
    <linearGradient
       inkscape:collect="always"
       xlink:href="#linearGradient6455"
       id="linearGradient5778"
       gradientUnits="userSpaceOnUse"
       gradientTransform="matrix(0.317423,0,0,0.314659,12.84888,10.63873)"
       x1="21.100939"
       y1="33.477123"
       x2="54.294334"
       y2="75.682442" />
    <linearGradient
       inkscape:collect="always"
       xlink:href="#linearGradient5717"
       id="linearGradient5780"
       gradientUnits="userSpaceOnUse"
       gradientTransform="matrix(0.317423,0,0,0.314659,12.21402,10.63873)"
       x1="99.25"
       y1="65.5"
       x2="43.49057"
       y2="65.5" />
    <linearGradient
       inkscape:collect="always"
       xlink:href="#linearGradient8655"
       id="linearGradient5784"
       gradientUnits="userSpaceOnUse"
       gradientTransform="matrix(0.267567,0,0,0.328998,15.55128,8.863517)"
       x1="59.867424"
       y1="177.41431"
       x2="86.77282"
       y2="84.96209" />
    <linearGradient
       inkscape:collect="always"
       xlink:href="#linearGradient6664"
       id="linearGradient6670"
       x1="9.875"
       y1="9.6618271"
       x2="10.1875"
       y2="20.630049"
       gradientUnits="userSpaceOnUse" />
  </defs>
  <sodipodi:namedview
     id="base"
     pagecolor="#ffffff"
     bordercolor="#666666"
     borderopacity="1.0"
     inkscape:pageopacity="0.0"
     inkscape:pageshadow="2"
     inkscape:zoom="1"
     inkscape:cx="24"
     inkscape:cy="24"
     inkscape:document-units="px"
     inkscape:current-layer="layer1"
     showguides="true"
     inkscape:guide-bbox="true"
     inkscape:window-width="823"
     inkscape:window-height="536"
     inkscape:window-x="0"
     inkscape:window-y="22"
     showborder="false"
     width="48px"
     height="48px"
     inkscape:showpageshadow="false"
     showgrid="false" />
  <metadata
     id="metadata7">
    <rdf:RDF>
      <cc:Work
         rdf:about="">
        <dc:format>image/svg+xml</dc:format>
        <dc:type
           rdf:resource="http://purl.org/dc/dcmitype/StillImage" />
      </cc:Work>
    </rdf:RDF>
  </metadata>
  <g
     inkscape:label="Layer 1"
     inkscape:groupmode="layer"
     id="layer1">
    <path
       style="fill:#d9d3c1;fill-opacity:1;stroke:none;stroke-width:1;stroke-linecap:round;stroke-linejoin:round;stroke-miterlimit:4;stroke-dashoffset:0;stroke-opacity:0.57254902"
       d="M 3,6.9445437 L 35.008976,5 L 42,7.9886057 L 42,42.991035 L 35.008976,46 L 3,44.055456 L 3,6.9445437 z "
       id="rect3980"
       sodipodi:nodetypes="ccccccc" />
    <path
       style="fill:#b71f1f;fill-opacity:1;stroke:none;stroke-width:1;stroke-linecap:round;stroke-linejoin:round;stroke-miterlimit:4;stroke-dashoffset:0;stroke-opacity:0.57254902"
       d="M 3,6.9424218 L 34.993351,5 L 42,7.9899594 L 42,19.981339 L 34.993351,19.011178 L 3,20 L 3,6.9424218 z "
       id="path4856"
       sodipodi:nodetypes="ccccccc" />
    <path
       style="fill:none;fill-opacity:1;stroke:#796a43;stroke-width:0.99999982;stroke-linecap:round;stroke-linejoin:round;stroke-miterlimit:4;stroke-dashoffset:0;stroke-opacity:1"
       d="M 2.4999995,6.4919685 L 35.048477,4.4999975 L 42.500009,7.717745 L 42.500009,43.292631 L 35.079727,46.499984 L 2.4999995,44.508013 L 2.4999995,6.4919685 z "
       id="path5731"
       sodipodi:nodetypes="ccccccc" />
    <path
       style="fill:url(#linearGradient5742);fill-opacity:1.0;stroke:none;stroke-width:1;stroke-linecap:round;stroke-linejoin:round;stroke-miterlimit:4;stroke-dashoffset:0;stroke-opacity:1"
       d="M 35,5 L 42,8.03125 L 42,42.96875 L 35,46 L 35,5 z "
       id="rect5733"
       sodipodi:nodetypes="ccccc" />
    <path
       style="fill:none;fill-opacity:1.0;stroke:url(#linearGradient5752);stroke-width:1;stroke-linecap:round;stroke-linejoin:miter;stroke-miterlimit:4;stroke-dashoffset:0;stroke-opacity:1"
       d="M 3.4999983,7.3971206 L 34.889765,5.500004 L 41.499962,8.3145275 L 41.499962,42.664146 L 34.919453,45.500019 L 3.4999983,43.602904 L 3.4999983,7.3971206 z "
       id="path5744"
       sodipodi:nodetypes="ccccccc" />
    <path
       style="fill:none;fill-opacity:1.0;fill-rule:evenodd;stroke:url(#linearGradient5762);stroke-width:1px;stroke-linecap:butt;stroke-linejoin:miter;stroke-opacity:1;opacity:0.87029289"
       d="M 34.5,5.5 L 34.5,45.5"
       id="path5754" />
    <path
       sodipodi:nodetypes="csssccsssc"
       style="color:black;fill:url(#linearGradient5784);fill-opacity:1;fill-rule:evenodd;stroke:none;stroke-width:1.66170299;stroke-linecap:round;stroke-linejoin:round;marker:none;marker-start:none;marker-mid:none;marker-end:none;stroke-miterlimit:4;stroke-dasharray:none;stroke-dashoffset:0;stroke-opacity:1;visibility:visible;display:inline;overflow:visible"
       d="M 39.515948,36.81999 C 32.767135,36.710513 24.993201,38.811101 22.161274,41.509381 C 19.329347,44.207662 22.504947,46.488398 29.25376,46.597866 C 36.002572,46.707344 43.77912,44.60427 46.611046,41.905989 C 49.442973,39.207709 46.264762,36.929467 39.515948,36.81999 z M 33.976371,41.061021 C 34.848405,41.075162 35.26203,41.367305 34.896108,41.715954 C 34.530187,42.064611 33.524841,42.336263 32.652807,42.322122 C 31.780772,42.307972 31.369759,42.013344 31.73568,41.664694 C 32.101601,41.316038 33.104337,41.046873 33.976371,41.061021 z "
       id="path7925" />
    <path
       sodipodi:type="arc"
       style="color:black;fill:url(#radialGradient3966);fill-opacity:1;fill-rule:evenodd;stroke:none;stroke-width:3;stroke-linecap:round;stroke-linejoin:round;marker:none;marker-start:none;marker-mid:none;marker-end:none;stroke-miterlimit:4;stroke-dasharray:none;stroke-dashoffset:0;stroke-opacity:0.78400005;visibility:visible;display:inline;overflow:visible"
       id="path7189"
       sodipodi:cx="51.231888"
       sodipodi:cy="110.19082"
       sodipodi:rx="48.06039"
       sodipodi:ry="10.978262"
       d="M 99.292278 110.19082 A 48.06039 10.978262 0 1 1  3.1714973,110.19082 A 48.06039 10.978262 0 1 1  99.292278 110.19082 z"
       transform="matrix(0.290431,0,0,0.318359,13.22544,9.424788)" />
    <path
       style="color:black;fill:url(#linearGradient5778);fill-opacity:1;fill-rule:evenodd;stroke:url(#linearGradient5780);stroke-width:0.99999923;stroke-linecap:round;stroke-linejoin:round;marker:none;marker-start:none;marker-mid:none;marker-end:none;stroke-miterlimit:4;stroke-dasharray:none;stroke-dashoffset:0;stroke-opacity:1;visibility:visible;display:inline;overflow:visible"
       d="M 28.997762,15.496274 C 20.991414,15.496274 14.495502,22.438609 14.495502,30.993216 C 14.495502,39.547822 20.991414,46.499993 28.997762,46.499993 C 37.004108,46.499993 43.500021,39.547829 43.500021,30.993216 C 43.500022,22.438608 37.004108,15.496274 28.997762,15.496274 z M 27.737989,25.585019 C 30.537873,25.585019 32.816756,28.023993 32.816756,31.032549 C 32.816757,34.041107 30.537873,36.480078 27.737989,36.480078 C 24.938106,36.480078 22.669142,34.041107 22.669142,31.032549 C 22.669142,28.023994 24.938107,25.585019 27.737989,25.585019 z "
       id="path1308" />
    <path
       style="fill:url(#linearGradient5775);fill-opacity:1;fill-rule:evenodd;stroke:none;stroke-width:0.25pt;stroke-linecap:butt;stroke-linejoin:miter;stroke-opacity:1"
       d="M 28.33589,16.545089 C 27.763491,16.540401 27.170402,16.589364 26.569098,16.688392 C 26.740643,20.978194 26.912868,25.267134 27.084413,29.556935 C 27.42907,29.564473 27.735263,29.713423 27.986212,29.939074 C 30.817048,26.592166 33.648858,23.245271 36.479692,19.898363 C 35.539208,18.894819 32.342682,16.577905 28.33589,16.545089 z M 25.94336,32.356106 C 23.478253,35.270613 21.010029,38.183035 18.544922,41.097541 C 21.466013,44.338044 24.385639,45.794885 27.737757,45.90295 C 27.5643,41.565323 27.386698,37.228721 27.213241,32.891102 C 27.15915,32.897702 27.112453,32.929313 27.056807,32.929313 C 26.608419,32.929313 26.21976,32.705203 25.94336,32.356106 z "
       id="path4955" />
    <path
       style="fill:url(#linearGradient5772);fill-opacity:1;fill-rule:evenodd;stroke:none;stroke-width:0.25pt;stroke-linecap:butt;stroke-linejoin:miter;stroke-opacity:1"
       d="M 28.966881,17.244079 C 28.389778,17.239615 27.791816,17.286245 27.185572,17.380557 C 27.358527,21.466083 27.532167,25.550788 27.705121,29.636313 C 28.052611,29.643493 28.36132,29.78535 28.614331,30.000255 C 31.468428,26.812723 34.323508,23.625205 37.177603,20.437672 C 36.229392,19.481917 33.006599,17.275331 28.966881,17.244079 z M 26.554691,32.302187 C 24.069328,35.077909 21.580823,37.851652 19.095459,40.627367 C 22.040553,43.713563 24.98417,45.101023 28.363834,45.203946 C 28.188951,41.072878 28.00989,36.942781 27.835008,32.811713 C 27.780472,32.817999 27.733392,32.848103 27.677288,32.848103 C 27.225215,32.848103 26.833364,32.634667 26.554691,32.302187 z "
       id="path5701" />
    <path
       sodipodi:nodetypes="csssccsssc"
       style="color:black;fill:#f2f2f2;fill-opacity:0.41199999;fill-rule:evenodd;stroke:#e3e3e3;stroke-width:0.5354867;stroke-linecap:round;stroke-linejoin:round;marker:none;marker-start:none;marker-mid:none;marker-end:none;stroke-miterlimit:4;stroke-dasharray:none;stroke-dashoffset:0;stroke-opacity:0.64800002;visibility:visible;display:inline;overflow:visible"
       d="M 27.55575,25.717846 C 24.907947,25.717846 22.761595,28.024773 22.761595,30.870665 C 22.761595,33.71656 24.907947,36.031536 27.55575,36.031536 C 30.203552,36.031536 32.357394,33.71656 32.357396,30.870665 C 32.357396,28.024773 30.203552,25.717846 27.55575,25.717846 z M 27.55575,28.648512 C 28.697039,28.648512 29.623229,29.643993 29.623229,30.870665 C 29.623229,32.097339 28.697039,33.092822 27.55575,33.092822 C 26.41446,33.092822 25.48827,32.097339 25.48827,30.870665 C 25.488269,29.643993 26.414461,28.648512 27.55575,28.648512 z "
       id="path2055" />
    <path
       style="color:black;fill:none;fill-opacity:1;fill-rule:evenodd;stroke:url(#linearGradient5768);stroke-width:1.99999881;stroke-linecap:round;stroke-linejoin:round;marker:none;marker-start:none;marker-mid:none;marker-end:none;stroke-miterlimit:4;stroke-dasharray:none;stroke-dashoffset:0;stroke-opacity:1;visibility:visible;display:inline;overflow:visible"
       d="M 29.031484,16.999997 C 21.837115,16.999997 15.999998,23.17546 15.999998,30.785098 C 15.999998,38.394734 21.837116,44.578947 29.031484,44.578947 C 36.225852,44.578947 42.062972,38.394734 42.062972,30.785098 C 42.062973,23.17546 36.225854,16.999997 29.031484,16.999997 z "
       id="path4818"
       sodipodi:nodetypes="csssc" />
    <path
       style="color:black;fill:none;fill-opacity:1;fill-rule:evenodd;stroke:url(#linearGradient5765);stroke-width:0.99999994;stroke-linecap:round;stroke-linejoin:round;marker:none;marker-start:none;marker-mid:none;marker-end:none;stroke-miterlimit:4;stroke-dasharray:none;stroke-dashoffset:0;stroke-opacity:1;visibility:visible;display:inline;overflow:visible"
       d="M 27.999995,16.500007 C 21.099048,16.500007 15.499998,22.99367 15.499998,30.995407 C 15.499998,38.99714 21.099048,45.500006 27.999995,45.500006 C 34.900941,45.500006 40.499994,38.99714 40.499994,30.995407 C 40.499995,22.99367 34.900941,16.500007 27.999995,16.500007 z "
       id="path3330"
       sodipodi:nodetypes="csssc" />
    <path
       style="font-size:9.50416279px;font-style:normal;font-variant:normal;font-weight:bold;font-stretch:normal;text-align:start;line-height:125%;writing-mode:lr-tb;text-anchor:start;fill:url(#linearGradient6670);fill-opacity:1.0;stroke:none;stroke-width:1px;stroke-linecap:butt;stroke-linejoin:miter;stroke-opacity:1;font-family:Bitstream Vera Sans"
       d="M 9.8274367,16.27936 L 7.1465169,16.411561 L 6.7234482,17.915013 L 5,18 L 7.462705,9.7406556 L 9.5067948,9.6398589 L 11.969499,17.656323 L 10.246052,17.741308 L 9.8274367,16.27936 M 7.5740389,14.880633 L 9.395461,14.790816 L 8.4869766,11.597894 L 7.5740389,14.880633 M 12.846811,9.4751569 L 15.692504,9.3348309 C 16.538638,9.2931149 17.187342,9.4918724 17.63862,9.9311047 C 18.092857,10.366572 18.319977,11.009455 18.319984,11.859759 C 18.319977,12.713708 18.092857,13.382625 17.63862,13.866515 C 17.187342,14.34663 16.538638,14.607549 15.692504,14.64927 L 14.561352,14.70505 L 14.561352,17.528513 L 12.846811,17.61306 L 12.846811,9.4751569 M 14.561352,10.911357 L 14.561352,13.184301 L 15.509916,13.137526 C 15.84243,13.121134 16.09924,13.010357 16.280347,12.805197 C 16.461446,12.596412 16.551998,12.310326 16.552001,11.946942 C 16.551998,11.583567 16.461446,11.30823 16.280347,11.120928 C 16.09924,10.933641 15.84243,10.848191 15.509916,10.864582 L 14.561352,10.911357 M 19.526843,9.1457533 L 22.372536,9.0054275 C 23.218669,8.9637114 23.867373,9.162469 24.318652,9.6017011 C 24.772888,10.037168 25.000009,10.680052 25.000016,11.530356 C 25.000009,12.384304 24.772888,13.053222 24.318652,13.537111 C 23.867373,14.017227 23.218669,14.278145 22.372536,14.319867 L 21.241384,14.375646 L 21.241384,17.19911 L 19.526843,17.283657 L 19.526843,9.1457533 M 21.241384,10.581954 L 21.241384,12.854898 L 22.189948,12.808122 C 22.522462,12.79173 22.779272,12.680954 22.960379,12.475794 C 23.141477,12.267009 23.232029,11.980923 23.232034,11.617538 C 23.232029,11.254163 23.141477,10.978827 22.960379,10.791524 C 22.779272,10.604236 22.522462,10.518787 22.189948,10.535179 L 21.241384,10.581954"
       id="text5786" />
  </g>
</svg>
