<?xml version="1.0" encoding="UTF-8" standalone="no"?>
<!-- Created with Inkscape (http://www.inkscape.org/) -->
<svg
   xmlns:dc="http://purl.org/dc/elements/1.1/"
   xmlns:cc="http://web.resource.org/cc/"
   xmlns:rdf="http://www.w3.org/1999/02/22-rdf-syntax-ns#"
   xmlns:svg="http://www.w3.org/2000/svg"
   xmlns="http://www.w3.org/2000/svg"
   xmlns:xlink="http://www.w3.org/1999/xlink"
   xmlns:sodipodi="http://inkscape.sourceforge.net/DTD/sodipodi-0.dtd"
   xmlns:inkscape="http://www.inkscape.org/namespaces/inkscape"
   width="48"
   height="48"
   id="svg14"
   sodipodi:version="0.32"
   inkscape:version="0.43+devel"
   sodipodi:docbase="/home/silvestre/Desktop/Neu/scalable/apps"
   sodipodi:docname="system-users.svg"
   version="1.0">
  <defs
     id="defs3">
    <linearGradient
       id="linearGradient4925">
      <stop
         style="stop-color:white;stop-opacity:1"
         offset="0"
         id="stop4927" />
      <stop
         id="stop4933"
         offset="0.5"
         style="stop-color:#f3f3f3;stop-opacity:1;" />
      <stop
         style="stop-color:#bfbfbf;stop-opacity:1;"
         offset="1"
         id="stop4929" />
    </linearGradient>
    <linearGradient
       id="linearGradient28711">
      <stop
         id="stop28713"
         offset="0"
         style="stop-color:white;stop-opacity:1;" />
      <stop
         style="stop-color:#bcbcbc;stop-opacity:1;"
         offset="0.5"
         id="stop28715" />
      <stop
         id="stop28717"
         offset="0.75"
         style="stop-color:#9b9b9b;stop-opacity:1;" />
      <stop
         id="stop28719"
         offset="1"
         style="stop-color:#797979;stop-opacity:1;" />
    </linearGradient>
    <linearGradient
       inkscape:collect="always"
       id="linearGradient26840">
      <stop
         style="stop-color:#dd1a1a;stop-opacity:1"
         offset="0"
         id="stop26842" />
      <stop
         style="stop-color:#971212;stop-opacity:1"
         offset="1"
         id="stop26844" />
    </linearGradient>
    <linearGradient
       inkscape:collect="always"
       id="linearGradient22429">
      <stop
         style="stop-color:black;stop-opacity:1;"
         offset="0"
         id="stop22431" />
      <stop
         style="stop-color:black;stop-opacity:0;"
         offset="1"
         id="stop22433" />
    </linearGradient>
    <linearGradient
       inkscape:collect="always"
       id="linearGradient21548">
      <stop
         style="stop-color:white;stop-opacity:1;"
         offset="0"
         id="stop21550" />
      <stop
         style="stop-color:white;stop-opacity:0;"
         offset="1"
         id="stop21552" />
    </linearGradient>
    <linearGradient
       inkscape:collect="always"
       id="linearGradient18874">
      <stop
         style="stop-color:#ddd;stop-opacity:1"
         offset="0"
         id="stop18876" />
      <stop
         style="stop-color:black;stop-opacity:1"
         offset="1"
         id="stop18878" />
    </linearGradient>
    <linearGradient
       inkscape:collect="always"
       id="linearGradient12737">
      <stop
         style="stop-color:white;stop-opacity:1;"
         offset="0"
         id="stop12739" />
      <stop
         style="stop-color:white;stop-opacity:0;"
         offset="1"
         id="stop12741" />
    </linearGradient>
    <linearGradient
       inkscape:collect="always"
       id="linearGradient10098">
      <stop
         style="stop-color:white;stop-opacity:1;"
         offset="0"
         id="stop10100" />
      <stop
         style="stop-color:white;stop-opacity:0.3004292"
         offset="1"
         id="stop10102" />
    </linearGradient>
    <linearGradient
       inkscape:collect="always"
       id="linearGradient8342">
      <stop
         style="stop-color:white;stop-opacity:1;"
         offset="0"
         id="stop8344" />
      <stop
         style="stop-color:white;stop-opacity:0;"
         offset="1"
         id="stop8346" />
    </linearGradient>
    <linearGradient
       id="linearGradient4832">
      <stop
         style="stop-color:#fffdf5;stop-opacity:1;"
         offset="0"
         id="stop4834" />
      <stop
         id="stop4840"
         offset="0.5"
         style="stop-color:#ffe16f;stop-opacity:1;" />
      <stop
         style="stop-color:#c4a600;stop-opacity:1;"
         offset="0.75"
         id="stop4842" />
      <stop
         style="stop-color:#aa9000;stop-opacity:1;"
         offset="1"
         id="stop4836" />
    </linearGradient>
    <radialGradient
       inkscape:collect="always"
       xlink:href="#linearGradient28711"
       id="radialGradient33212"
       gradientUnits="userSpaceOnUse"
       gradientTransform="matrix(1.166794,1.633432e-16,-1.633432e-16,1.166794,-14.1775,-2.918896)"
       cx="83.051956"
       cy="15.584253"
       fx="83.051956"
       fy="15.584253"
       r="21.75" />
    <linearGradient
       inkscape:collect="always"
       xlink:href="#linearGradient8342"
       id="linearGradient33214"
       gradientUnits="userSpaceOnUse"
       x1="85.622726"
       y1="-5.7974238"
       x2="85.622726"
       y2="45.035698" />
    <linearGradient
       inkscape:collect="always"
       xlink:href="#linearGradient10098"
       id="linearGradient33216"
       gradientUnits="userSpaceOnUse"
       x1="75.860703"
       y1="-0.11439113"
       x2="87.538048"
       y2="43.466064" />
    <linearGradient
       inkscape:collect="always"
       xlink:href="#linearGradient12737"
       id="linearGradient33218"
       gradientUnits="userSpaceOnUse"
       x1="82.341637"
       y1="22.807331"
       x2="75.412285"
       y2="18.754719" />
    <radialGradient
       inkscape:collect="always"
       xlink:href="#linearGradient4925"
       id="radialGradient33220"
       gradientUnits="userSpaceOnUse"
       gradientTransform="matrix(1.144552,4.995918e-16,-1.181575e-15,0.584199,-11.08144,8.437594)"
       cx="76.660767"
       cy="17.937725"
       fx="76.660767"
       fy="17.937725"
       r="6" />
    <radialGradient
       inkscape:collect="always"
       xlink:href="#linearGradient18874"
       id="radialGradient33222"
       gradientUnits="userSpaceOnUse"
       gradientTransform="matrix(1,0,0,1.44898,-1.92277e-14,-9.723214)"
       cx="97.03125"
       cy="21.656244"
       fx="97.03125"
       fy="20.5779"
       r="1.53125" />
    <linearGradient
       inkscape:collect="always"
       xlink:href="#linearGradient12737"
       id="linearGradient33224"
       gradientUnits="userSpaceOnUse"
       x1="82.341637"
       y1="22.807331"
       x2="75.412285"
       y2="18.754719" />
    <radialGradient
       inkscape:collect="always"
       xlink:href="#linearGradient4925"
       id="radialGradient33226"
       gradientUnits="userSpaceOnUse"
       gradientTransform="matrix(1.134321,-0.269128,0.271418,0.699749,-15.12345,27.06597)"
       cx="76.159027"
       cy="17.322357"
       fx="76.159027"
       fy="17.322357"
       r="6" />
    <radialGradient
       inkscape:collect="always"
       xlink:href="#linearGradient18874"
       id="radialGradient33228"
       gradientUnits="userSpaceOnUse"
       gradientTransform="matrix(1,-0.759933,0.680865,1.213188,-14.74497,69.12039)"
       cx="97.03125"
       cy="21.656244"
       fx="97.03125"
       fy="20.5779"
       r="1.53125" />
    <linearGradient
       inkscape:collect="always"
       xlink:href="#linearGradient22429"
       id="linearGradient33230"
       gradientUnits="userSpaceOnUse"
       gradientTransform="translate(74,-75)"
       x1="90.093956"
       y1="31.230932"
       x2="89.283569"
       y2="42.931355" />
    <linearGradient
       inkscape:collect="always"
       xlink:href="#linearGradient21548"
       id="linearGradient33232"
       gradientUnits="userSpaceOnUse"
       gradientTransform="translate(74,-75)"
       x1="90.67585"
       y1="37.868645"
       x2="89.849945"
       y2="33.890083" />
    <linearGradient
       inkscape:collect="always"
       xlink:href="#linearGradient26840"
       id="linearGradient33234"
       gradientUnits="userSpaceOnUse"
       gradientTransform="translate(74,-75)"
       x1="88.379189"
       y1="39.938652"
       x2="88.379189"
       y2="36.394733" />
    <radialGradient
       inkscape:collect="always"
       xlink:href="#linearGradient4832"
       id="radialGradient33236"
       gradientUnits="userSpaceOnUse"
       gradientTransform="matrix(1.166794,1.633432e-16,-1.633432e-16,1.166794,-14.1775,-2.918896)"
       cx="83.051956"
       cy="15.584253"
       fx="83.051956"
       fy="15.584253"
       r="21.75" />
    <linearGradient
       inkscape:collect="always"
       xlink:href="#linearGradient8342"
       id="linearGradient33238"
       gradientUnits="userSpaceOnUse"
       x1="85.622726"
       y1="-5.7974238"
       x2="85.622726"
       y2="45.035698" />
    <linearGradient
       inkscape:collect="always"
       xlink:href="#linearGradient10098"
       id="linearGradient33240"
       gradientUnits="userSpaceOnUse"
       x1="75.860703"
       y1="-0.11439113"
       x2="87.538048"
       y2="43.466064" />
    <linearGradient
       inkscape:collect="always"
       xlink:href="#linearGradient12737"
       id="linearGradient33242"
       gradientUnits="userSpaceOnUse"
       x1="82.341637"
       y1="22.807331"
       x2="75.412285"
       y2="18.754719" />
    <radialGradient
       inkscape:collect="always"
       xlink:href="#linearGradient18874"
       id="radialGradient33246"
       gradientUnits="userSpaceOnUse"
       gradientTransform="matrix(1,0,0,1.44898,-1.976544e-14,-9.723214)"
       cx="97.03125"
       cy="21.656244"
       fx="97.03125"
       fy="20.5779"
       r="1.53125" />
    <linearGradient
       inkscape:collect="always"
       xlink:href="#linearGradient12737"
       id="linearGradient33248"
       gradientUnits="userSpaceOnUse"
       x1="82.341637"
       y1="22.807331"
       x2="75.412285"
       y2="18.754719" />
    <radialGradient
       inkscape:collect="always"
       xlink:href="#linearGradient4925"
       id="radialGradient33250"
       gradientUnits="userSpaceOnUse"
       gradientTransform="matrix(1.134321,-0.269128,0.271418,0.699749,-15.12345,27.06597)"
       cx="76.159027"
       cy="17.322357"
       fx="76.159027"
       fy="17.322357"
       r="6" />
    <radialGradient
       inkscape:collect="always"
       xlink:href="#linearGradient18874"
       id="radialGradient33252"
       gradientUnits="userSpaceOnUse"
       gradientTransform="matrix(1,-0.759933,0.680865,1.213188,-14.74497,69.12039)"
       cx="97.03125"
       cy="21.656244"
       fx="97.03125"
       fy="20.5779"
       r="1.53125" />
    <linearGradient
       inkscape:collect="always"
       xlink:href="#linearGradient22429"
       id="linearGradient33254"
       gradientUnits="userSpaceOnUse"
       gradientTransform="translate(74,-75)"
       x1="89.283569"
       y1="30.661186"
       x2="89.283569"
       y2="42.931355" />
    <linearGradient
       inkscape:collect="always"
       xlink:href="#linearGradient21548"
       id="linearGradient33256"
       gradientUnits="userSpaceOnUse"
       gradientTransform="translate(74,-75)"
       x1="91"
       y1="41.25"
       x2="88.553329"
       y2="32.118896" />
    <linearGradient
       inkscape:collect="always"
       xlink:href="#linearGradient26840"
       id="linearGradient33258"
       gradientUnits="userSpaceOnUse"
       gradientTransform="translate(74,-75)"
       x1="88.379189"
       y1="39.938652"
       x2="88.379189"
       y2="36.394733" />
    <radialGradient
       inkscape:collect="always"
       xlink:href="#linearGradient4925"
       id="radialGradient4931"
       cx="76.34375"
       cy="18.108305"
       fx="76.34375"
       fy="18.108305"
       r="6"
       gradientTransform="matrix(1.25531,2.096951e-16,-4.959457e-16,0.640731,-19.4913,7.401295)"
       gradientUnits="userSpaceOnUse" />
  </defs>
  <sodipodi:namedview
     id="base"
     pagecolor="#ffffff"
     bordercolor="#666666"
     borderopacity="1.0"
     inkscape:pageopacity="0.0"
     inkscape:pageshadow="2"
     inkscape:zoom="1"
     inkscape:cx="29.998586"
     inkscape:cy="5.2056508"
     inkscape:document-units="px"
     inkscape:current-layer="layer1"
     inkscape:window-width="823"
     inkscape:window-height="536"
     inkscape:window-x="0"
     inkscape:window-y="22"
     inkscape:showpageshadow="false"
     width="48px"
     height="48px"
     showgrid="false"
     showborder="false" />
  <metadata
     id="metadata4">
    <rdf:RDF>
      <cc:Work
         rdf:about="">
        <dc:format>image/svg+xml</dc:format>
        <dc:type
           rdf:resource="http://purl.org/dc/dcmitype/StillImage" />
      </cc:Work>
    </rdf:RDF>
  </metadata>
  <g
     inkscape:label="Layer 1"
     inkscape:groupmode="layer"
     id="layer1">
    <g
       transform="matrix(0.771239,0,0,0.771239,-105.6149,58.62974)"
       id="g28659">
      <path
         sodipodi:type="arc"
         style="opacity:1;fill:url(#radialGradient33236);fill-opacity:1;stroke:#8e7d00;stroke-width:1.28557706;stroke-linecap:round;stroke-linejoin:round;stroke-miterlimit:4;stroke-dasharray:none;stroke-dashoffset:0;stroke-opacity:1"
         id="path28661"
         sodipodi:cx="87.875"
         sodipodi:cy="23.625"
         sodipodi:rx="21.25"
         sodipodi:ry="21.25"
         d="M 109.125 23.625 A 21.25 21.25 0 1 1  66.625,23.625 A 21.25 21.25 0 1 1  109.125 23.625 z"
         transform="matrix(1.010391,0,0,1.006783,72.86611,-75.16977)" />
      <path
         sodipodi:type="arc"
         style="opacity:1;fill:url(#linearGradient33238);fill-opacity:1;stroke:none;stroke-width:1;stroke-linecap:round;stroke-linejoin:round;stroke-miterlimit:4;stroke-dasharray:none;stroke-dashoffset:0;stroke-opacity:1"
         id="path28663"
         sodipodi:cx="87.875"
         sodipodi:cy="23.625"
         sodipodi:rx="21.25"
         sodipodi:ry="21.25"
         d="M 109.125 23.625 A 21.25 21.25 0 1 1  66.625,23.625 A 21.25 21.25 0 1 1  109.125 23.625 z"
         transform="matrix(0.776982,0,0,0.503453,93.59768,-72.70658)" />
      <path
         sodipodi:type="arc"
         style="opacity:1;fill:none;fill-opacity:1;stroke:url(#linearGradient33240);stroke-width:1.37096775;stroke-linecap:round;stroke-linejoin:round;stroke-miterlimit:4;stroke-dasharray:none;stroke-dashoffset:0;stroke-opacity:1"
         id="path28665"
         sodipodi:cx="87.875"
         sodipodi:cy="23.625"
         sodipodi:rx="21.25"
         sodipodi:ry="21.25"
         d="M 109.125 23.625 A 21.25 21.25 0 1 1  66.625,23.625 A 21.25 21.25 0 1 1  109.125 23.625 z"
         transform="matrix(0.945766,0,0,0.945766,78.4684,-73.72824)" />
      <g
         id="g28667"
         transform="translate(68.1291,-78.37396)">
        <path
           transform="matrix(1.185096,0,0,2.55102,3.773128,-29.67347)"
           d="M 83.875 19.9375 A 6 3.0625 0 1 1  71.875,19.9375 A 6 3.0625 0 1 1  83.875 19.9375 z"
           sodipodi:ry="3.0625"
           sodipodi:rx="6"
           sodipodi:cy="19.9375"
           sodipodi:cx="77.875"
           id="path28669"
           style="opacity:0.66527201;fill:black;fill-opacity:0.79399139;stroke:url(#linearGradient33242);stroke-width:0.74572259;stroke-linecap:round;stroke-linejoin:round;stroke-miterlimit:4;stroke-dasharray:none;stroke-dashoffset:0;stroke-opacity:1"
           sodipodi:type="arc" />
        <path
           transform="matrix(1.080929,0,0,2.326792,11.88511,-25.20293)"
           style="fill:url(#radialGradient4931);fill-opacity:1;stroke:none;stroke-width:0.57513034;stroke-linecap:round;stroke-linejoin:round;stroke-miterlimit:4;stroke-dashoffset:0;stroke-opacity:1"
           d="M 83.875,19.9375 C 83.875,21.628 81.187,23 77.875,23 C 74.563,23 71.875,21.628 71.875,19.9375 C 71.875,18.247 74.563,16.875 77.875,16.875 C 81.187,16.875 83.875,18.247 83.875,19.9375 z "
           id="path28671" />
        <path
           transform="matrix(1.693537,0,0,1.460974,-69.58096,-9.187924)"
           d="M 98.5625 21.65625 A 1.53125 2.21875 0 1 1  95.5,21.65625 A 1.53125 2.21875 0 1 1  98.5625 21.65625 z"
           sodipodi:ry="2.21875"
           sodipodi:rx="1.53125"
           sodipodi:cy="21.65625"
           sodipodi:cx="97.03125"
           id="path28673"
           style="opacity:1;fill:url(#radialGradient33246);fill-opacity:1;stroke:none;stroke-width:1;stroke-linecap:round;stroke-linejoin:round;stroke-miterlimit:4;stroke-dasharray:none;stroke-dashoffset:0;stroke-opacity:1"
           sodipodi:type="arc" />
      </g>
      <g
         id="g28675"
         transform="matrix(0.838817,0,0,1.496679,77.85311,-86.3315)">
        <path
           transform="matrix(1.185096,0,0,1.515268,-12.91437,-9.335655)"
           style="opacity:0.66527201;fill:black;fill-opacity:0.79399139;stroke:url(#linearGradient33248);stroke-width:0.86355793;stroke-linecap:round;stroke-linejoin:round;stroke-miterlimit:4;stroke-dasharray:none;stroke-dashoffset:0;stroke-opacity:1"
           d="M 83.875,19.9375 C 83.875,21.628 81.187,23 77.875,23 C 76.220509,23 73.617112,22.799384 73.60083,21.885817 C 73.598575,21.75926 73.598253,21.635046 73.599969,21.513043 C 74.130782,21.571138 75.22073,18.599435 74.696801,17.882889 C 74.839131,17.689249 74.997277,17.498679 75.172348,17.309778 C 75.622549,16.824012 76.89588,16.875 77.875,16.875 C 81.187,16.875 83.875,18.247 83.875,19.9375 z "
           id="path28677"
           sodipodi:nodetypes="cssccssc" />
        <path
           style="fill:url(#radialGradient33250);fill-opacity:1;stroke:none;stroke-width:0.57513034;stroke-linecap:round;stroke-linejoin:round;stroke-miterlimit:4;stroke-dashoffset:0;stroke-opacity:1"
           d="M 83.875,19.9375 C 83.875,21.628 81.187,23 77.875,23 C 76.144565,23 73.445601,22.712646 73.489089,21.764069 C 72.913112,20.085941 73.752281,18.315767 75.067938,17.35527 C 75.685082,16.904724 76.861096,16.875 77.875,16.875 C 81.187,16.875 83.875,18.247 83.875,19.9375 z "
           id="path28679"
           sodipodi:nodetypes="cscssc"
           transform="matrix(1.080929,0,0,1.38208,-4.80239,-6.680221)" />
        <path
           transform="matrix(2.018976,0,0,0.97927,-116.1862,0.835945)"
           d="M 98.5625 21.65625 A 1.53125 2.21875 0 1 1  95.5,21.65625 A 1.53125 2.21875 0 1 1  98.5625 21.65625 z"
           sodipodi:ry="2.21875"
           sodipodi:rx="1.53125"
           sodipodi:cy="21.65625"
           sodipodi:cx="97.03125"
           id="path28681"
           style="fill:url(#radialGradient33252);fill-opacity:1;stroke:none;stroke-width:1;stroke-linecap:round;stroke-linejoin:round;stroke-miterlimit:4;stroke-dasharray:none;stroke-dashoffset:0;stroke-opacity:1"
           sodipodi:type="arc" />
      </g>
      <path
         style="fill:url(#linearGradient33254);fill-opacity:1;stroke:url(#linearGradient33256);stroke-width:1.29661441;stroke-linecap:round;stroke-linejoin:round;stroke-miterlimit:4;stroke-dashoffset:0;stroke-opacity:1"
         d="M 173.625,-40.09375 C 173.625,-37.42 168.375,-33.4375 161.90625,-33.4375 C 155.4375,-33.4375 150.1875,-37.42 150.1875,-40.09375 C 150.1875,-42.7675 155.4375,-43.125 161.90625,-43.125 C 168.375,-43.125 173.625,-42.7675 173.625,-40.09375 z "
         id="path28683"
         sodipodi:nodetypes="csssc" />
      <path
         style="opacity:1;fill:url(#linearGradient33258);fill-opacity:1;stroke:none;stroke-width:1;stroke-linecap:round;stroke-linejoin:round;stroke-miterlimit:4;stroke-dasharray:none;stroke-dashoffset:0;stroke-opacity:1"
         d="M 157.8125,-39.375 C 154.8975,-39.375 153.14895,-37.846903 154,-36.40625 C 156.06157,-32.916427 166.4898,-33.241043 168.9375,-35.84375 C 170.08381,-37.062657 167.85463,-39.375 164.1875,-39.375 C 163.20775,-39.375 161.69823,-38.189893 160.96875,-37.8125 C 160.23927,-38.189893 158.79225,-39.375 157.8125,-39.375 z "
         id="path28685"
         sodipodi:nodetypes="cssscc" />
    </g>
    <g
       id="g27727"
       transform="matrix(0.771239,0,0,0.776316,-93.76171,70.88323)">
      <path
         transform="translate(74,-75)"
         d="M 109.125 23.625 A 21.25 21.25 0 1 1  66.625,23.625 A 21.25 21.25 0 1 1  109.125 23.625 z"
         sodipodi:ry="21.25"
         sodipodi:rx="21.25"
         sodipodi:cy="23.625"
         sodipodi:cx="87.875"
         id="path3957"
         style="opacity:1;fill:url(#radialGradient33212);fill-opacity:1;stroke:#969696;stroke-width:1.29236782;stroke-linecap:round;stroke-linejoin:round;stroke-miterlimit:4;stroke-dasharray:none;stroke-dashoffset:0;stroke-opacity:1"
         sodipodi:type="arc" />
      <path
         transform="matrix(0.776982,0,0,0.503453,93.59768,-72.70658)"
         d="M 109.125 23.625 A 21.25 21.25 0 1 1  66.625,23.625 A 21.25 21.25 0 1 1  109.125 23.625 z"
         sodipodi:ry="21.25"
         sodipodi:rx="21.25"
         sodipodi:cy="23.625"
         sodipodi:cx="87.875"
         id="path5721"
         style="opacity:1;fill:url(#linearGradient33214);fill-opacity:1;stroke:none;stroke-width:1;stroke-linecap:round;stroke-linejoin:round;stroke-miterlimit:4;stroke-dasharray:none;stroke-dashoffset:0;stroke-opacity:1"
         sodipodi:type="arc" />
      <path
         transform="matrix(0.945766,0,0,0.939581,78.65873,-73.5726)"
         d="M 109.125 23.625 A 21.25 21.25 0 1 1  66.625,23.625 A 21.25 21.25 0 1 1  109.125 23.625 z"
         sodipodi:ry="21.25"
         sodipodi:rx="21.25"
         sodipodi:cy="23.625"
         sodipodi:cx="87.875"
         id="path8350"
         style="opacity:1;fill:none;fill-opacity:1;stroke:url(#linearGradient33216);stroke-width:1.37096822;stroke-linecap:round;stroke-linejoin:round;stroke-miterlimit:4;stroke-dasharray:none;stroke-dashoffset:0;stroke-opacity:1"
         sodipodi:type="arc" />
      <g
         transform="matrix(1,0,0,1.066266,69.61607,-76.54277)"
         id="g19763">
        <path
           sodipodi:type="arc"
           style="opacity:0.66527201;fill:black;fill-opacity:0.79399139;stroke:url(#linearGradient33218);stroke-width:0.71981293;stroke-linecap:round;stroke-linejoin:round;stroke-miterlimit:4;stroke-dasharray:none;stroke-dashoffset:0;stroke-opacity:1"
           id="path11854"
           sodipodi:cx="77.875"
           sodipodi:cy="19.9375"
           sodipodi:rx="6"
           sodipodi:ry="3.0625"
           d="M 83.875 19.9375 A 6 3.0625 0 1 1  71.875,19.9375 A 6 3.0625 0 1 1  83.875 19.9375 z"
           transform="matrix(1.185096,0,0,2.55102,3.773128,-29.67347)" />
        <path
           sodipodi:type="arc"
           style="opacity:1;fill:url(#radialGradient33220);fill-opacity:1;stroke:none;stroke-width:0.57513034;stroke-linecap:round;stroke-linejoin:round;stroke-miterlimit:4;stroke-dasharray:none;stroke-dashoffset:0;stroke-opacity:1"
           id="path13622"
           sodipodi:cx="77.875"
           sodipodi:cy="19.9375"
           sodipodi:rx="6"
           sodipodi:ry="3.0625"
           d="M 83.875 19.9375 A 6 3.0625 0 1 1  71.875,19.9375 A 6 3.0625 0 1 1  83.875 19.9375 z"
           transform="matrix(1.080929,0,0,2.326792,11.88511,-25.20293)" />
        <path
           sodipodi:type="arc"
           style="opacity:1;fill:url(#radialGradient33222);fill-opacity:1;stroke:none;stroke-width:1;stroke-linecap:round;stroke-linejoin:round;stroke-miterlimit:4;stroke-dasharray:none;stroke-dashoffset:0;stroke-opacity:1"
           id="path17124"
           sodipodi:cx="97.03125"
           sodipodi:cy="21.65625"
           sodipodi:rx="1.53125"
           sodipodi:ry="2.21875"
           d="M 98.5625 21.65625 A 1.53125 2.21875 0 1 1  95.5,21.65625 A 1.53125 2.21875 0 1 1  98.5625 21.65625 z"
           transform="matrix(1.704167,0,0,1.361216,-68.03547,-6.479224)" />
      </g>
      <g
         transform="matrix(0.846598,0,0,1.511123,77.52817,-85.56481)"
         id="g22441">
        <path
           sodipodi:nodetypes="cssccssc"
           id="path19770"
           d="M 83.875,19.9375 C 83.875,21.628 81.187,23 77.875,23 C 76.220509,23 73.617112,22.799384 73.60083,21.885817 C 73.598575,21.75926 73.598253,21.635046 73.599969,21.513043 C 74.130782,21.571138 75.22073,18.599435 74.696801,17.882889 C 74.839131,17.689249 74.997277,17.498679 75.172348,17.309778 C 75.622549,16.824012 76.89588,16.875 77.875,16.875 C 81.187,16.875 83.875,18.247 83.875,19.9375 z "
           style="opacity:0.66527201;fill:black;fill-opacity:0.79399139;stroke:url(#linearGradient33224);stroke-width:0.85266036;stroke-linecap:round;stroke-linejoin:round;stroke-miterlimit:4;stroke-dasharray:none;stroke-dashoffset:0;stroke-opacity:1"
           transform="matrix(1.185096,0,0,1.515268,-12.91437,-9.335655)" />
        <path
           transform="matrix(1.080929,0,0,1.38208,-4.80239,-6.680221)"
           sodipodi:nodetypes="cscssc"
           id="path19772"
           d="M 83.875,19.9375 C 83.875,21.628 81.187,23 77.875,23 C 76.144565,23 73.445601,22.712646 73.489089,21.764069 C 72.913112,20.085941 73.752281,18.315767 75.067938,17.35527 C 75.685082,16.904724 76.861096,16.875 77.875,16.875 C 81.187,16.875 83.875,18.247 83.875,19.9375 z "
           style="fill:url(#radialGradient33226);fill-opacity:1;stroke:none;stroke-width:0.57513034;stroke-linecap:round;stroke-linejoin:round;stroke-miterlimit:4;stroke-dashoffset:0;stroke-opacity:1" />
        <path
           sodipodi:type="arc"
           style="fill:url(#radialGradient33228);fill-opacity:1;stroke:none;stroke-width:1;stroke-linecap:round;stroke-linejoin:round;stroke-miterlimit:4;stroke-dasharray:none;stroke-dashoffset:0;stroke-opacity:1"
           id="path19774"
           sodipodi:cx="97.03125"
           sodipodi:cy="21.65625"
           sodipodi:rx="1.53125"
           sodipodi:ry="2.21875"
           d="M 98.5625 21.65625 A 1.53125 2.21875 0 1 1  95.5,21.65625 A 1.53125 2.21875 0 1 1  98.5625 21.65625 z"
           transform="matrix(1.70415,0,0,0.863603,-83.77707,3.281845)" />
      </g>
      <path
         sodipodi:nodetypes="csssc"
         id="path19791"
         d="M 173.625,-40.09375 C 173.625,-37.42 168.375,-33.4375 161.90625,-33.4375 C 155.4375,-33.4375 150.1875,-37.42 150.1875,-40.09375 C 150.1875,-42.7675 155.4375,-43.125 161.90625,-43.125 C 168.375,-43.125 173.625,-42.7675 173.625,-40.09375 z "
         style="fill:url(#linearGradient33230);fill-opacity:1;stroke:url(#linearGradient33232);stroke-width:1.29236782;stroke-linecap:round;stroke-linejoin:round;stroke-miterlimit:4;stroke-dashoffset:0;stroke-opacity:1" />
      <path
         sodipodi:nodetypes="csssscc"
         id="path25962"
         d="M 157.8125,-39.375 C 154.8975,-39.375 152.89174,-37.662477 154,-36.40625 C 154.92451,-35.358303 158.51374,-34.211713 161.26056,-34.112609 C 164.31105,-34.004148 167.85852,-34.788874 168.9375,-35.84375 C 170.13428,-37.013801 167.85463,-39.375 164.1875,-39.375 C 163.20775,-39.375 161.69823,-38.189893 160.96875,-37.8125 C 160.23927,-38.189893 158.79225,-39.375 157.8125,-39.375 z "
         style="opacity:1;fill:url(#linearGradient33234);fill-opacity:1;stroke:none;stroke-width:1;stroke-linecap:round;stroke-linejoin:round;stroke-miterlimit:4;stroke-dasharray:none;stroke-dashoffset:0;stroke-opacity:1" />
    </g>
  </g>
</svg>
