<?xml version="1.0" encoding="UTF-8" standalone="no"?>
<!-- Created with Inkscape (http://www.inkscape.org/) -->
<svg
   xmlns:dc="http://purl.org/dc/elements/1.1/"
   xmlns:cc="http://web.resource.org/cc/"
   xmlns:rdf="http://www.w3.org/1999/02/22-rdf-syntax-ns#"
   xmlns:svg="http://www.w3.org/2000/svg"
   xmlns="http://www.w3.org/2000/svg"
   xmlns:xlink="http://www.w3.org/1999/xlink"
   xmlns:sodipodi="http://inkscape.sourceforge.net/DTD/sodipodi-0.dtd"
   xmlns:inkscape="http://www.inkscape.org/namespaces/inkscape"
   width="22"
   height="22"
   id="svg14"
   sodipodi:version="0.32"
   inkscape:version="0.43+devel"
   sodipodi:docbase="/home/silvestre/Desktop/Neu/extra"
   sodipodi:docname="22x22kde-logo.svg"
   version="1.0">
  <defs
     id="defs3">
    <linearGradient
       inkscape:collect="always"
       id="linearGradient5716">
      <stop
         style="stop-color:white;stop-opacity:0.68669528"
         offset="0"
         id="stop5718" />
      <stop
         style="stop-color:white;stop-opacity:0;"
         offset="1"
         id="stop5720" />
    </linearGradient>
    <linearGradient
       inkscape:collect="always"
       id="linearGradient5703">
      <stop
         style="stop-color:white;stop-opacity:1;"
         offset="0"
         id="stop5705" />
      <stop
         style="stop-color:white;stop-opacity:0.26180258"
         offset="1"
         id="stop5707" />
    </linearGradient>
    <linearGradient
       inkscape:collect="always"
       id="linearGradient6647">
      <stop
         style="stop-color:white;stop-opacity:1;"
         offset="0"
         id="stop6649" />
      <stop
         style="stop-color:white;stop-opacity:0.45064378"
         offset="1"
         id="stop6651" />
    </linearGradient>
    <linearGradient
       id="linearGradient4234">
      <stop
         id="stop4236"
         offset="0"
         style="stop-color:#c1e3ff;stop-opacity:1;" />
      <stop
         id="stop4238"
         offset="1"
         style="stop-color:#56ace5;stop-opacity:1;" />
    </linearGradient>
    <linearGradient
       id="linearGradient2049"
       inkscape:collect="always">
      <stop
         id="stop2051"
         offset="0"
         style="stop-color:white;stop-opacity:0.527897" />
      <stop
         id="stop2053"
         offset="1"
         style="stop-color:#ffffff;stop-opacity:0;" />
    </linearGradient>
    <linearGradient
       inkscape:collect="always"
       xlink:href="#linearGradient2049"
       id="linearGradient4018"
       gradientUnits="userSpaceOnUse"
       x1="72.151817"
       y1="38.213421"
       x2="72.151817"
       y2="77.304459"
       gradientTransform="matrix(0.166978,0,0,0.206265,-5.512093,-3.384281)" />
    <linearGradient
       inkscape:collect="always"
       xlink:href="#linearGradient4234"
       id="linearGradient4021"
       gradientUnits="userSpaceOnUse"
       x1="34.81287"
       y1="16.950554"
       x2="34.81287"
       y2="50.46096"
       gradientTransform="matrix(0.242934,0,0,0.246831,-1.795466,1.370463)" />
    <linearGradient
       inkscape:collect="always"
       xlink:href="#linearGradient6647"
       id="linearGradient4818"
       gradientUnits="userSpaceOnUse"
       gradientTransform="matrix(0.513272,0,0,0.506278,-7.102021,-3.027379)"
       x1="38.311138"
       y1="29.974993"
       x2="26.017185"
       y2="26.680838" />
    <linearGradient
       inkscape:collect="always"
       xlink:href="#linearGradient5703"
       id="linearGradient5709"
       x1="34.703732"
       y1="5.3881531"
       x2="27.537374"
       y2="19.505774"
       gradientUnits="userSpaceOnUse"
       gradientTransform="matrix(0.533332,0,0,0.526315,-2.56664,0.184211)" />
    <linearGradient
       inkscape:collect="always"
       xlink:href="#linearGradient5716"
       id="linearGradient5722"
       x1="26.875"
       y1="4"
       x2="26.875"
       y2="12.906633"
       gradientUnits="userSpaceOnUse"
       gradientTransform="matrix(0.554914,0,0,0.519481,-3.31792,-3.895868e-2)" />
  </defs>
  <sodipodi:namedview
     id="base"
     pagecolor="#ffffff"
     bordercolor="#666666"
     borderopacity="1.0"
     inkscape:pageopacity="0.0"
     inkscape:pageshadow="2"
     inkscape:zoom="1"
     inkscape:cx="13.064148"
     inkscape:cy="14.761325"
     inkscape:document-units="px"
     inkscape:current-layer="layer1"
     inkscape:window-width="1024"
     inkscape:window-height="721"
     inkscape:window-x="0"
     inkscape:window-y="24"
     inkscape:showpageshadow="false"
     width="22px"
     height="22px"
     showgrid="false"
     showborder="false"
     showguides="true"
     inkscape:guide-bbox="true" />
  <metadata
     id="metadata4">
    <rdf:RDF>
      <cc:Work
         rdf:about="">
        <dc:format>image/svg+xml</dc:format>
        <dc:type
           rdf:resource="http://purl.org/dc/dcmitype/StillImage" />
      </cc:Work>
    </rdf:RDF>
  </metadata>
  <g
     inkscape:label="Layer 1"
     inkscape:groupmode="layer"
     id="layer1">
    <path
       style="color:black;fill:#2f82b8;fill-opacity:1;fill-rule:evenodd;stroke:#005188;stroke-width:1.02248204;stroke-linecap:round;stroke-linejoin:round;marker:none;marker-start:none;marker-mid:none;marker-end:none;stroke-miterlimit:4;stroke-dasharray:none;stroke-dashoffset:0;stroke-opacity:1;visibility:visible;display:inline;overflow:visible"
       d="M 5.7550501,3.511241 L 3.5186092,4.9472202 L 3.799736,8.315576 L 0.91180103,9.0775542 L 0.50288989,11.389318 L 2.994692,13.313635 L 1.1801491,16.090334 L 2.7007872,18.1438 L 2.7135657,18.130884 L 4.3364316,19.164076 L 6.0870822,18.479587 L 6.7771201,20.197266 L 6.8026771,20.197266 L 8.4255426,21.230457 L 11.224028,21.488754 L 12.246306,18.182545 L 15.134241,18.983267 L 16.488759,16.774823 L 14.199386,13.516279 L 10.291618,13.516279 C 9.7920431,15.38072 6.9875159,14.449251 7.2333874,12.690029 C 7.2946523,12.251676 7.3518294,11.914355 7.5113761,11.544297 L 7.5113761,5.1792991 L 5.7550501,3.511241 z "
       id="path2041"
       sodipodi:nodetypes="ccccccccccccccccccccsccc" />
    <path
       style="color:black;fill:url(#linearGradient4021);fill-opacity:1;fill-rule:evenodd;stroke:none;stroke-width:1.86331141;stroke-linecap:round;stroke-linejoin:round;marker:none;marker-start:none;marker-mid:none;marker-end:none;stroke-miterlimit:4;stroke-dashoffset:0;stroke-opacity:1;visibility:visible;display:inline;overflow:visible"
       d="M 5.6854031,4.1665818 L 4.0800655,5.2189858 L 4.3250245,8.7133028 L 1.3441849,9.4952258 L 1.0799814,11.209985 L 3.6872424,13.171101 L 1.814034,16.077609 L 3.0360335,17.743065 L 5.4884181,16.664235 L 6.7062488,19.655517 L 9.3930087,19.895324 L 10.372295,16.79045 L 13.134385,17.535115 L 14.41499,15.452577 L 12.958615,14.063835 L 10.435254,14.063835 C 10.057553,15.074484 9.1102057,14.897031 8.1801768,14.897031 C 6.9715822,14.89703 5.7520722,13.093524 5.7520722,11.678767 C 5.7520727,10.424832 6.0116218,9.3766758 7.0291098,9.1544788 L 7.0291098,5.4005118 L 5.6854031,4.1665818 z "
       id="path2043"
       sodipodi:nodetypes="ccccccccccccccccssccc" />
    <path
       style="color:black;fill:url(#linearGradient4018);fill-opacity:1;fill-rule:evenodd;stroke:none;stroke-width:1.86331141;stroke-linecap:round;stroke-linejoin:round;marker:none;marker-start:none;marker-mid:none;marker-end:none;stroke-miterlimit:4;stroke-dashoffset:0;stroke-opacity:1;visibility:visible;display:inline;overflow:visible"
       d="M 5.7086397,4.15625 L 4.1038604,5.2177938 L 4.3465074,8.74174 L 1.3887868,9.4788691 L 1.078125,11.154252 L 1.2876839,11.352971 C 2.5383794,10.434597 4.0395841,10.217335 5.8851103,10.021367 C 6.1586221,9.6122 6.5188987,9.3109204 6.921875,9.199995 L 7,5.4012357 L 5.7086397,4.15625 z "
       id="path1317"
       sodipodi:nodetypes="cccccccccc" />
    <path
       style="color:black;fill:none;fill-opacity:1;fill-rule:evenodd;stroke:url(#linearGradient4818);stroke-width:0.96759909;stroke-linecap:round;stroke-linejoin:round;marker:none;marker-start:none;marker-mid:none;marker-end:none;stroke-miterlimit:4;stroke-dasharray:none;stroke-dashoffset:0;stroke-opacity:1;visibility:visible;display:inline;overflow:visible"
       d="M 5.64178,4.7557095 L 4.6295655,5.4068266 L 4.8812614,9.0723318 L 1.6842904,9.8737588 L 1.5150499,10.988963 L 4.2975239,13.043455 L 2.4350211,16.042595 L 3.1950672,17.195511 L 5.7280467,16.034271 L 7.1111519,19.291652 L 9.6980172,19.516202 L 10.629779,16.559622 L 13.277945,17.270697 L 14.516207,15.703221 L 13.701617,14.514584 L 10.855519,14.514584 C 10.442113,15.260668 9.4852618,15.574662 8.3815555,15.39373 C 6.4763351,15.081404 5.4776851,13.32849 5.2632727,12.003446 C 5.0603212,10.749228 5.2551184,9.2042383 6.5037674,8.9404211 L 6.5037674,5.5966195 L 5.64178,4.7557095 z "
       id="path5772"
       sodipodi:nodetypes="ccccccccccccccccssccc" />
    <path
       style="font-size:31.31827736px;font-style:normal;font-variant:normal;font-weight:bold;font-stretch:normal;text-align:start;line-height:125%;writing-mode:lr-tb;text-anchor:start;fill:#2f82b8;fill-opacity:1;stroke:#12528b;stroke-width:0.99999791px;stroke-linecap:butt;stroke-linejoin:miter;stroke-opacity:1;font-family:Verdana"
       d="M 9.4999976,0.49256471 L 9.4999976,11.505647 L 12.186566,11.505647 L 14.085074,11.505647 L 14.085074,9.1570193 L 13.052413,7.698982 L 15.947762,11.954207 L 17.45224,12.499999 L 21.500003,12.499999 L 17.291045,5.7969848 L 20.357706,1.8433325 L 19.04627,0.49256471 L 17.434329,0.49256471 L 15.911941,0.49256471 L 14.072473,3.036924 L 14.072473,1.4573992 L 12.819796,0.49256471 L 9.4999976,0.49256471 z "
       id="text4820"
       sodipodi:nodetypes="cccccccccccccccccc" />
    <path
       style="font-size:31.31827736px;font-style:normal;font-variant:normal;font-weight:bold;font-stretch:normal;text-align:start;line-height:125%;writing-mode:lr-tb;text-anchor:start;fill:#56ace5;fill-opacity:1;stroke:url(#linearGradient5709);stroke-width:0.99999815px;stroke-linecap:butt;stroke-linejoin:miter;stroke-opacity:1;font-family:Verdana"
       d="M 18.499999,11.499996 L 16.86473,11.499996 L 13.708563,6.9325168 L 12.509137,8.1142136 L 12.509137,10.489788 L 10.500003,10.489788 L 10.500003,1.4999987 L 12.509137,1.4999987 L 12.509137,6.6844201 L 16.205275,1.4999987 L 18.333093,1.4999987 L 14.983454,6.1272639 L 18.499999,11.499996"
       id="path5698"
       sodipodi:nodetypes="ccccccccccccc" />
    <path
       style="font-size:31.31827736px;font-style:normal;font-variant:normal;font-weight:bold;font-stretch:normal;text-align:start;line-height:125%;writing-mode:lr-tb;text-anchor:start;fill:url(#linearGradient5722);fill-opacity:1;stroke:none;stroke-width:0.99999905px;stroke-linecap:butt;stroke-linejoin:miter;stroke-opacity:1;font-family:Verdana"
       d="M 10,1 L 10,6 C 10.815956,5.6116023 11.752123,5.2927792 12.757226,5.0584407 L 12.757226,1 L 10,1 z M 16.034683,1 L 13.17341,4.9610382 C 13.423587,4.9100534 13.677984,4.8707636 13.936416,4.8311687 C 14.709479,4.7127244 15.463265,4.6396566 16.190752,4.6363628 L 19,1 L 16.034683,1 z "
       id="path5713" />
  </g>
</svg>
