<?xml version="1.0" encoding="UTF-8" standalone="no"?>
<!-- Created with Inkscape (http://www.inkscape.org/) -->
<svg
   xmlns:dc="http://purl.org/dc/elements/1.1/"
   xmlns:cc="http://web.resource.org/cc/"
   xmlns:rdf="http://www.w3.org/1999/02/22-rdf-syntax-ns#"
   xmlns:svg="http://www.w3.org/2000/svg"
   xmlns="http://www.w3.org/2000/svg"
   xmlns:xlink="http://www.w3.org/1999/xlink"
   xmlns:sodipodi="http://inkscape.sourceforge.net/DTD/sodipodi-0.dtd"
   xmlns:inkscape="http://www.inkscape.org/namespaces/inkscape"
   width="48"
   height="48"
   id="svg2"
   sodipodi:version="0.32"
   inkscape:version="0.43+devel"
   version="1.0"
   sodipodi:docbase="/home/silvestre/Desktop/Neu/scalable/status"
   sodipodi:docname="dialog-warning.svg">
  <defs
     id="defs4">
    <linearGradient
       inkscape:collect="always"
       id="linearGradient6576">
      <stop
         style="stop-color:white;stop-opacity:1;"
         offset="0"
         id="stop6578" />
      <stop
         style="stop-color:#e3e3e3;stop-opacity:1"
         offset="1"
         id="stop6580" />
    </linearGradient>
    <linearGradient
       inkscape:collect="always"
       id="linearGradient7752">
      <stop
         style="stop-color:#000000;stop-opacity:0.36909872"
         offset="0"
         id="stop7754" />
      <stop
         style="stop-color:#000000;stop-opacity:0;"
         offset="1"
         id="stop7756" />
    </linearGradient>
    <linearGradient
       inkscape:collect="always"
       id="linearGradient5996">
      <stop
         style="stop-color:#000000;stop-opacity:0.19313304"
         offset="0"
         id="stop5998" />
      <stop
         style="stop-color:#000000;stop-opacity:0;"
         offset="1"
         id="stop6000" />
    </linearGradient>
    <linearGradient
       inkscape:collect="always"
       id="linearGradient5104">
      <stop
         style="stop-color:#000000;stop-opacity:1;"
         offset="0"
         id="stop5106" />
      <stop
         style="stop-color:#000000;stop-opacity:0;"
         offset="1"
         id="stop5108" />
    </linearGradient>
    <linearGradient
       inkscape:collect="always"
       id="linearGradient4197">
      <stop
         style="stop-color:#ffffff;stop-opacity:1;"
         offset="0"
         id="stop4199" />
      <stop
         style="stop-color:#ffffff;stop-opacity:0;"
         offset="1"
         id="stop4201" />
    </linearGradient>
    <linearGradient
       inkscape:collect="always"
       id="linearGradient4187">
      <stop
         style="stop-color:#ffffff;stop-opacity:1;"
         offset="0"
         id="stop4189" />
      <stop
         style="stop-color:#ffffff;stop-opacity:0.27843139"
         offset="1"
         id="stop4191" />
    </linearGradient>
    <linearGradient
       id="linearGradient4176">
      <stop
         style="stop-color:#f85151;stop-opacity:1;"
         offset="0"
         id="stop4178" />
      <stop
         style="stop-color:#d00303;stop-opacity:1;"
         offset="1"
         id="stop4180" />
    </linearGradient>
    <linearGradient
       inkscape:collect="always"
       xlink:href="#linearGradient4187"
       id="linearGradient4193"
       x1="75.787148"
       y1="3.4719357"
       x2="57.994637"
       y2="98.832764"
       gradientUnits="userSpaceOnUse"
       gradientTransform="matrix(0.368526,0,0,0.418326,-0.562224,-4.56978)" />
    <radialGradient
       inkscape:collect="always"
       xlink:href="#linearGradient4197"
       id="radialGradient4203"
       cx="62.970509"
       cy="48.729244"
       fx="62.970509"
       fy="33.755856"
       r="32.085793"
       gradientTransform="matrix(0.405164,0,0,0.303437,-5.513367,-5.0233e-2)"
       gradientUnits="userSpaceOnUse" />
    <radialGradient
       inkscape:collect="always"
       xlink:href="#linearGradient4176"
       id="radialGradient4227"
       gradientUnits="userSpaceOnUse"
       cx="67.655052"
       cy="76.752853"
       fx="67.655052"
       fy="76.752853"
       r="49.918098"
       gradientTransform="matrix(0.422179,0,0,0.453069,-1.832158,-2.941698)" />
    <radialGradient
       inkscape:collect="always"
       xlink:href="#linearGradient5104"
       id="radialGradient5113"
       gradientUnits="userSpaceOnUse"
       gradientTransform="matrix(0.34868,0,0,7.72303e-2,1.743401,34.75497)"
       cx="52.5"
       cy="114"
       fx="50.669872"
       fy="145.41862"
       r="57.5" />
    <linearGradient
       inkscape:collect="always"
       xlink:href="#linearGradient5996"
       id="linearGradient6002"
       x1="17.101027"
       y1="141.30928"
       x2="111.17001"
       y2="86.99852"
       gradientUnits="userSpaceOnUse"
       gradientTransform="matrix(0.378285,0,0,0.378285,-0.189143,-0.32181)" />
    <linearGradient
       inkscape:collect="always"
       xlink:href="#linearGradient7752"
       id="linearGradient7758"
       x1="109.38406"
       y1="63.299728"
       x2="66.135506"
       y2="63.299728"
       gradientUnits="userSpaceOnUse"
       gradientTransform="matrix(0.400595,0,0,0.408366,-0.22311,-3.877639)" />
    <radialGradient
       inkscape:collect="always"
       xlink:href="#linearGradient6576"
       id="radialGradient6582"
       cx="24.680851"
       cy="30.609259"
       fx="24.680851"
       fy="30.609259"
       r="16"
       gradientTransform="matrix(1,0,0,1.15625,0,-3.828125)"
       gradientUnits="userSpaceOnUse" />
  </defs>
  <sodipodi:namedview
     id="base"
     pagecolor="#ffffff"
     bordercolor="#666666"
     borderopacity="1.0"
     inkscape:pageopacity="0.0"
     inkscape:pageshadow="2"
     inkscape:zoom="1"
     inkscape:cx="24"
     inkscape:cy="24"
     inkscape:document-units="px"
     inkscape:current-layer="layer1"
     inkscape:window-width="823"
     inkscape:window-height="536"
     inkscape:window-x="89"
     inkscape:window-y="127"
     showborder="false"
     showgrid="false"
     inkscape:showpageshadow="false"
     width="48px"
     height="48px" />
  <metadata
     id="metadata7">
    <rdf:RDF>
      <cc:Work
         rdf:about="">
        <dc:format>image/svg+xml</dc:format>
        <dc:type
           rdf:resource="http://purl.org/dc/dcmitype/StillImage" />
      </cc:Work>
    </rdf:RDF>
  </metadata>
  <g
     inkscape:label="Capa 1"
     inkscape:groupmode="layer"
     id="layer1">
    <path
       style="fill:url(#linearGradient6002);fill-opacity:1;stroke:none;stroke-width:3.00000095;stroke-linecap:round;stroke-linejoin:miter;stroke-miterlimit:4;stroke-dashoffset:0;stroke-opacity:1"
       d="M 47.144342,41.66428 C 43.957506,44.41418 32.792911,46.64597 22.22338,46.64597 C 11.65385,46.64597 5.6621049,44.41418 8.8489433,41.66428 C 12.035786,38.91439 23.200376,36.68259 33.769906,36.68259 C 44.339437,36.68259 50.331186,38.91439 47.144342,41.66428 z "
       id="path5119" />
    <path
       style="opacity:0.43096236;fill:url(#radialGradient5113);fill-opacity:1;stroke:none;stroke-width:2;stroke-linecap:round;stroke-linejoin:miter;stroke-miterlimit:4;stroke-dashoffset:0;stroke-opacity:1"
       d="M 40.098219,43.55926 C 40.098219,46.01055 31.116218,48 20.049109,48 C 8.9820009,48 0,46.01055 0,43.55926 C 0,41.10797 8.9820009,39.11852 20.049109,39.11852 C 31.116218,39.11852 40.098219,41.10797 40.098219,43.55926 z "
       id="path4229" />
    <path
       style="fill:url(#radialGradient4227);fill-opacity:1;stroke:#8c0404;stroke-width:1;stroke-linecap:round;stroke-linejoin:miter;stroke-miterlimit:4;stroke-dasharray:none;stroke-dashoffset:0;stroke-opacity:1"
       d="M 42.500008,24.500001 C 42.500008,36.644001 33.316005,46.499998 22.000004,46.499998 C 10.684002,46.499998 1.4999996,36.644001 1.4999996,24.500001 C 1.4999996,12.356001 10.684002,2.4999995 22.000004,2.4999995 C 33.316005,2.4999995 42.500008,12.356001 42.500008,24.500001 z "
       id="path3305" />
    <path
       style="fill:none;fill-opacity:1;stroke:url(#linearGradient7758);stroke-width:1.99999976;stroke-linecap:round;stroke-linejoin:miter;stroke-miterlimit:4;stroke-dasharray:none;stroke-dashoffset:0;stroke-opacity:1"
       d="M 40.999991,24.499992 C 40.999991,35.815985 32.487994,44.999978 21.999996,44.999978 C 11.511999,44.999978 3.0000005,35.815985 3.0000005,24.499992 C 3.0000005,13.183996 11.511999,3.9999999 21.999996,3.9999999 C 32.487994,3.9999999 40.999991,13.183996 40.999991,24.499992 z "
       id="path6877" />
    <path
       style="fill:none;fill-opacity:1;stroke:url(#linearGradient4193);stroke-width:0.9999997;stroke-linecap:round;stroke-linejoin:miter;stroke-miterlimit:4;stroke-dasharray:none;stroke-dashoffset:0;stroke-opacity:1"
       d="M 39.499999,24.500001 C 39.499999,36.091998 31.212,45.499994 21,45.499994 C 10.787999,45.499994 2.5000001,36.091998 2.5000001,24.500001 C 2.5000001,12.907998 10.787999,3.4999994 21,3.4999994 C 31.212,3.4999994 39.499999,12.907998 39.499999,24.500001 z "
       id="path4185" />
    <path
       style="opacity:0.5690377;fill:url(#radialGradient4203);fill-opacity:1;stroke:none;stroke-width:2;stroke-linecap:round;stroke-linejoin:miter;stroke-miterlimit:4;stroke-dashoffset:0;stroke-opacity:0.27843137"
       d="M 33,14.736021 C 33,20.110307 27.176,24.472047 20,24.472047 C 12.824,24.472047 7,20.110307 7,14.736021 C 7,9.361737 12.824,5 20,5 C 27.176,5 33,9.361737 33,14.736021 z "
       id="path4195" />
    <path
       style="fill:url(#radialGradient6582);fill-opacity:1.0;stroke:none;stroke-width:3;stroke-linecap:round;stroke-linejoin:miter;stroke-miterlimit:4;stroke-dasharray:none;stroke-dashoffset:0;stroke-opacity:1"
       d="M 36,24.500003 C 36,34.712002 28.832,43 20.000001,43 C 11.168,43 4,34.712002 4,24.500003 C 4,14.288 11.168,6 20.000001,6 C 28.832,6 36,14.288 36,24.500003 z "
       id="path4818" />
    <path
       style="font-size:90.30408478px;font-style:normal;font-variant:normal;font-weight:bold;font-stretch:normal;text-align:start;line-height:125%;writing-mode:lr-tb;text-anchor:start;fill:black;fill-opacity:1;stroke:none;stroke-width:1px;stroke-linecap:butt;stroke-linejoin:miter;stroke-opacity:1;font-family:Bitstream Charter"
       d="M 19.499998,33.62084 C 17.611842,33.62084 16.046053,35.047755 16.046053,36.852389 C 16.046053,38.615046 17.657895,40 19.499998,40 C 21.388155,40 22.953947,38.615046 22.953947,36.852389 C 22.953947,35.047755 21.388155,33.62084 19.499998,33.62084 M 22.815788,16.413893 C 22.953947,15.532562 23,14.86107 23,14.441389 C 23,12.217078 21.664472,11 19.499998,11 C 17.335529,11 16,12.175111 16,14.315485 C 16,14.735166 16.092106,15.490595 16.230261,16.497828 L 18.302633,31.396526 L 20.74342,31.396526 L 22.815788,16.413893"
       id="text3333" />
  </g>
</svg>
