<?xml version="1.0" encoding="UTF-8" standalone="no"?>
<!-- Created with Inkscape (http://www.inkscape.org/) -->
<svg
   xmlns:dc="http://purl.org/dc/elements/1.1/"
   xmlns:cc="http://web.resource.org/cc/"
   xmlns:rdf="http://www.w3.org/1999/02/22-rdf-syntax-ns#"
   xmlns:svg="http://www.w3.org/2000/svg"
   xmlns="http://www.w3.org/2000/svg"
   xmlns:xlink="http://www.w3.org/1999/xlink"
   xmlns:sodipodi="http://inkscape.sourceforge.net/DTD/sodipodi-0.dtd"
   xmlns:inkscape="http://www.inkscape.org/namespaces/inkscape"
   sodipodi:docname="folder-visiting.svg"
   sodipodi:docbase="/home/silvestre/Desktop/Neu/scalable/status"
   inkscape:version="0.43+devel"
   sodipodi:version="0.32"
   id="svg2"
   height="48"
   width="48"
   version="1.0"
   inkscape:export-filename="/home/silvestre/Neu/scalable/actions/document-open.png"
   inkscape:export-xdpi="90"
   inkscape:export-ydpi="90">
  <defs
     id="defs3">
    <linearGradient
       inkscape:collect="always"
       id="linearGradient8420">
      <stop
         style="stop-color:black;stop-opacity:0.20600858"
         offset="0"
         id="stop8422" />
      <stop
         style="stop-color:black;stop-opacity:0;"
         offset="1"
         id="stop8424" />
    </linearGradient>
    <linearGradient
       inkscape:collect="always"
       id="linearGradient4875">
      <stop
         style="stop-color:white;stop-opacity:1;"
         offset="0"
         id="stop4877" />
      <stop
         style="stop-color:white;stop-opacity:0.30901289"
         offset="1"
         id="stop4879" />
    </linearGradient>
    <linearGradient
       inkscape:collect="always"
       id="linearGradient4865">
      <stop
         style="stop-color:#d0d0d0;stop-opacity:1"
         offset="0"
         id="stop4867" />
      <stop
         style="stop-color:#aeaeae;stop-opacity:1"
         offset="1"
         id="stop4869" />
    </linearGradient>
    <linearGradient
       id="linearGradient10457">
      <stop
         id="stop10459"
         offset="0.00000000"
         style="stop-color:#000000;stop-opacity:0.32291666;" />
      <stop
         id="stop10461"
         offset="1"
         style="stop-color:#000000;stop-opacity:0;" />
    </linearGradient>
    <radialGradient
       inkscape:collect="always"
       xlink:href="#linearGradient10457"
       id="radialGradient1351"
       gradientUnits="userSpaceOnUse"
       gradientTransform="scale(2.110067,0.473919)"
       cx="24.734711"
       cy="210.29031"
       fx="24.734711"
       fy="210.29031"
       r="20.929369" />
    <linearGradient
       inkscape:collect="always"
       xlink:href="#linearGradient4865"
       id="linearGradient4871"
       x1="27.5"
       y1="12"
       x2="27.5"
       y2="41.068882"
       gradientUnits="userSpaceOnUse"
       gradientTransform="matrix(1.00459,0,0,1.004511,-2.305834e-3,-2.030857e-2)" />
    <linearGradient
       inkscape:collect="always"
       xlink:href="#linearGradient4875"
       id="linearGradient4881"
       x1="23.625"
       y1="6.25"
       x2="23.625"
       y2="36.150879"
       gradientUnits="userSpaceOnUse" />
    <linearGradient
       inkscape:collect="always"
       xlink:href="#linearGradient8420"
       id="linearGradient8426"
       x1="26.25"
       y1="4.25"
       x2="26.25"
       y2="44.500927"
       gradientUnits="userSpaceOnUse" />
  </defs>
  <sodipodi:namedview
     inkscape:window-y="72"
     inkscape:window-x="123"
     inkscape:window-height="536"
     inkscape:window-width="823"
     inkscape:current-layer="layer1"
     inkscape:document-units="px"
     inkscape:cy="24"
     inkscape:cx="24"
     inkscape:zoom="1"
     inkscape:pageshadow="2"
     inkscape:pageopacity="0.0"
     borderopacity="1.0"
     bordercolor="#666666"
     pagecolor="#ffffff"
     id="base"
     showborder="false"
     showgrid="false"
     width="48px"
     height="48px" />
  <metadata
     id="metadata4">
    <rdf:RDF>
      <cc:Work
         rdf:about="">
        <dc:format>image/svg+xml</dc:format>
        <dc:type
           rdf:resource="http://purl.org/dc/dcmitype/StillImage" />
      </cc:Work>
    </rdf:RDF>
  </metadata>
  <g
     id="layer1"
     inkscape:groupmode="layer"
     inkscape:label="Layer 1">
    <path
       transform="matrix(0.461536,7.970305e-2,-7.970305e-2,0.461536,6.234354,-8.204039)"
       d="M 96.354244 99.660515 A 44.162361 9.9188194 0 1 1  8.0295219,99.660515 A 44.162361 9.9188194 0 1 1  96.354244 99.660515 z"
       sodipodi:ry="9.9188194"
       sodipodi:rx="44.162361"
       sodipodi:cy="99.660515"
       sodipodi:cx="52.191883"
       id="path9697"
       style="opacity:0.60792954;fill:url(#radialGradient1351);fill-opacity:1;stroke:none;stroke-width:3;stroke-linecap:round;stroke-linejoin:round;stroke-miterlimit:4;stroke-opacity:1"
       sodipodi:type="arc" />
    <path
       id="path2055"
       d="M 34.731435,4.5023945 L 22.049612,5.6290212 L 20.520071,9.3350287 L 6.9027032,10.446832 L 6.6799553,13.248579 L 0.502393,13.574703 C 0.502393,33.441098 2.7775224,37.353035 4.541569,38.671781 L 39.438854,44.497624 L 39.438854,44.482808 L 39.557656,44.497624 C 42.223155,44.497624 45.497621,20.753077 45.497621,7.304136 L 36.602523,8.0305142 L 34.731435,4.5023945 z "
       style="fill:url(#linearGradient4871);fill-opacity:1;fill-rule:evenodd;stroke:#6a6a6a;stroke-width:1.00478613;stroke-linecap:round;stroke-linejoin:round;stroke-miterlimit:4;stroke-dasharray:none;stroke-opacity:1"
       sodipodi:nodetypes="ccccccccccccc" />
    <path
       style="opacity:1;fill:url(#linearGradient8426);fill-opacity:1.0;stroke:none;stroke-width:1;stroke-linecap:round;stroke-linejoin:round;stroke-miterlimit:4;stroke-dasharray:none;stroke-dashoffset:0;stroke-opacity:1"
       d="M 22 7 L 22 8 L 35 8 L 35 7 L 22 7 z M 7 10 L 7 11 L 44 11 L 44 10 L 7 10 z M 1 13 L 1 14 L 44 14 L 44 13 L 1 13 z M 1 16 L 1 17 L 44 17 L 44 16 L 1 16 z M 1 19 L 1 20 L 44 20 L 44 19 L 1 19 z M 2 22 L 2 23 L 44 23 L 44 22 L 2 22 z M 2 25 L 2 26 L 44 26 L 44 25 L 2 25 z M 3 28 L 3 29 L 44 29 L 44 28 L 3 28 z M 3 31 L 3 32 L 44 32 L 44 31 L 3 31 z M 4 34 L 4 35 L 42 35 L 42 34 L 4 34 z M 6 37 L 6 38 L 41 38 L 41 37 L 6 37 z M 21 40 L 21 41 L 40 41 L 40 40 L 21 40 z "
       id="rect5756" />
    <path
       id="path4873"
       d="M 34.0896,5.5023901 L 22.693634,6.5726781 L 21.111723,10.334077 L 7.8589272,11.390283 L 7.6460805,14.172283 L 1.5023924,14.4821 C 1.5023924,33.355044 3.6763928,36.710283 5.3620277,37.963083 L 38.708135,43.497596 L 38.708135,43.483521 L 38.821656,43.497596 C 41.368675,43.497596 44.497591,21.181149 44.497591,8.4047434 L 35.877519,9.0947979 L 34.0896,5.5023901 z "
       style="fill:none;fill-opacity:1.0;fill-rule:evenodd;stroke:url(#linearGradient4881);stroke-width:1.00478518;stroke-linecap:round;stroke-linejoin:round;stroke-miterlimit:4;stroke-dasharray:none;stroke-opacity:1"
       sodipodi:nodetypes="ccccccccccccc" />
  </g>
</svg>
