<?xml version="1.0" encoding="UTF-8" standalone="no"?>
<!-- Created with Inkscape (http://www.inkscape.org/) -->
<svg
   xmlns:dc="http://purl.org/dc/elements/1.1/"
   xmlns:cc="http://web.resource.org/cc/"
   xmlns:rdf="http://www.w3.org/1999/02/22-rdf-syntax-ns#"
   xmlns:svg="http://www.w3.org/2000/svg"
   xmlns="http://www.w3.org/2000/svg"
   xmlns:xlink="http://www.w3.org/1999/xlink"
   xmlns:sodipodi="http://inkscape.sourceforge.net/DTD/sodipodi-0.dtd"
   xmlns:inkscape="http://www.inkscape.org/namespaces/inkscape"
   width="48"
   height="48"
   id="svg2"
   sodipodi:version="0.32"
   inkscape:version="0.43+devel"
   sodipodi:docbase="/home/silvestre/Desktop/Neu/scalable/status"
   sodipodi:docname="image-missing.svg"
   version="1.0">
  <defs
     id="defs4">
    <linearGradient
       inkscape:collect="always"
       id="linearGradient4857">
      <stop
         style="stop-color:white;stop-opacity:1;"
         offset="0"
         id="stop4859" />
      <stop
         style="stop-color:white;stop-opacity:0.55793989"
         offset="1"
         id="stop4861" />
    </linearGradient>
    <linearGradient
       inkscape:collect="always"
       id="linearGradient4820">
      <stop
         style="stop-color:white;stop-opacity:1;"
         offset="0"
         id="stop4822" />
      <stop
         style="stop-color:white;stop-opacity:0.57939917"
         offset="1"
         id="stop4824" />
    </linearGradient>
    <linearGradient
       id="linearGradient4957">
      <stop
         id="stop4959"
         offset="0"
         style="stop-color:#ffffff;stop-opacity:1;" />
      <stop
         id="stop4961"
         offset="1.0000000"
         style="stop-color:#d0d0d0;stop-opacity:1" />
    </linearGradient>
    <linearGradient
       inkscape:collect="always"
       id="linearGradient5912">
      <stop
         style="stop-color:#000000;stop-opacity:1;"
         offset="0"
         id="stop5914" />
      <stop
         style="stop-color:#000000;stop-opacity:0;"
         offset="1"
         id="stop5916" />
    </linearGradient>
    <linearGradient
       id="linearGradient5904">
      <stop
         id="stop5906"
         offset="0.0000000"
         style="stop-color:#000000;stop-opacity:0.19791669;" />
      <stop
         id="stop5908"
         offset="1"
         style="stop-color:#000000;stop-opacity:0;" />
    </linearGradient>
    <linearGradient
       id="linearGradient2057">
      <stop
         style="stop-color:#f0f0f0;stop-opacity:1;"
         offset="0"
         id="stop2059" />
      <stop
         style="stop-color:#dddddd;stop-opacity:1.0000000;"
         offset="1.0000000"
         id="stop2061" />
    </linearGradient>
    <linearGradient
       inkscape:collect="always"
       id="linearGradient2049">
      <stop
         style="stop-color:#0a0a0a;stop-opacity:1;"
         offset="0"
         id="stop2051" />
      <stop
         style="stop-color:#0a0a0a;stop-opacity:0;"
         offset="1"
         id="stop2053" />
    </linearGradient>
    <radialGradient
       inkscape:collect="always"
       xlink:href="#linearGradient5904"
       id="radialGradient5902"
       cx="60.502419"
       cy="115.07005"
       fx="60.502419"
       fy="115.07005"
       r="56.111115"
       gradientTransform="matrix(1,0,0,0.213043,-2.766884e-16,90.55513)"
       gradientUnits="userSpaceOnUse" />
    <linearGradient
       inkscape:collect="always"
       xlink:href="#linearGradient5912"
       id="linearGradient5918"
       x1="71.236717"
       y1="152.15218"
       x2="88.314011"
       y2="99.212555"
       gradientUnits="userSpaceOnUse"
       gradientTransform="matrix(0.368911,0,0,0.409902,1.02,-3.067345)" />
    <linearGradient
       inkscape:collect="always"
       xlink:href="#linearGradient4957"
       id="linearGradient4940"
       gradientUnits="userSpaceOnUse"
       x1="81.89402"
       y1="22.461552"
       x2="84.654594"
       y2="10.41062"
       gradientTransform="matrix(0.373185,0,0,0.36947,-1.509613,-0.729184)" />
    <linearGradient
       inkscape:collect="always"
       xlink:href="#linearGradient2049"
       id="linearGradient4943"
       gradientUnits="userSpaceOnUse"
       gradientTransform="matrix(0.378019,0,0,0.366486,-1.594096,-1.346996)"
       x1="69.606209"
       y1="-2.7867124"
       x2="82.63073"
       y2="34.12973" />
    <linearGradient
       inkscape:collect="always"
       xlink:href="#linearGradient2057"
       id="linearGradient4946"
       gradientUnits="userSpaceOnUse"
       x1="57.903072"
       y1="65.225105"
       x2="85.99958"
       y2="114.99323"
       gradientTransform="matrix(0.374016,0,0,0.37836,-1.630407,-0.678575)" />
    <linearGradient
       inkscape:collect="always"
       xlink:href="#linearGradient4820"
       id="linearGradient4826"
       x1="7.9148936"
       y1="3.8297873"
       x2="7.9148936"
       y2="41.371349"
       gradientUnits="userSpaceOnUse" />
    <linearGradient
       id="linearGradient2910"
       inkscape:collect="always">
      <stop
         id="stop2912"
         offset="0"
         style="stop-color:#95a4b8;stop-opacity:1" />
      <stop
         id="stop2914"
         offset="1"
         style="stop-color:#9bb8dd;stop-opacity:1" />
    </linearGradient>
    <linearGradient
       id="linearGradient2922"
       inkscape:collect="always">
      <stop
         id="stop2924"
         offset="0"
         style="stop-color:#ffffff;stop-opacity:0.77999997" />
      <stop
         id="stop2926"
         offset="1"
         style="stop-color:#ffffff;stop-opacity:0;" />
    </linearGradient>
    <linearGradient
       id="linearGradient5114">
      <stop
         id="stop5116"
         offset="0.0000000"
         style="stop-color:#646f4e;stop-opacity:1" />
      <stop
         id="stop5118"
         offset="1.0000000"
         style="stop-color:#576340;stop-opacity:1" />
    </linearGradient>
    <linearGradient
       id="linearGradient2939"
       inkscape:collect="always">
      <stop
         id="stop2941"
         offset="0"
         style="stop-color:#ffffff;stop-opacity:1;" />
      <stop
         id="stop2943"
         offset="1"
         style="stop-color:#ffffff;stop-opacity:0;" />
    </linearGradient>
    <linearGradient
       id="linearGradient2947"
       inkscape:collect="always">
      <stop
         id="stop2949"
         offset="0"
         style="stop-color:#f00000;stop-opacity:1;" />
      <stop
         id="stop2951"
         offset="1"
         style="stop-color:#c50000;stop-opacity:1.0000000" />
    </linearGradient>
    <linearGradient
       id="linearGradient2971"
       inkscape:collect="always">
      <stop
         id="stop2973"
         offset="0"
         style="stop-color:#000000;stop-opacity:0.51599997" />
      <stop
         id="stop2975"
         offset="1"
         style="stop-color:#000000;stop-opacity:0;" />
    </linearGradient>
    <linearGradient
       id="linearGradient2981"
       inkscape:collect="always">
      <stop
         id="stop2983"
         offset="0"
         style="stop-color:#000000;stop-opacity:0.22000000" />
      <stop
         id="stop2985"
         offset="1"
         style="stop-color:#000000;stop-opacity:0;" />
    </linearGradient>
    <radialGradient
       inkscape:collect="always"
       xlink:href="#linearGradient2981"
       id="radialGradient4414"
       gradientUnits="userSpaceOnUse"
       gradientTransform="matrix(1,-3.868399e-17,2.797973e-18,0.140684,1.348067e-13,88.29468)"
       cx="-59.648556"
       cy="102.75000"
       fx="-59.648556"
       fy="102.75000"
       r="32.080921" />
    <linearGradient
       inkscape:collect="always"
       xlink:href="#linearGradient2922"
       id="linearGradient5305"
       gradientUnits="userSpaceOnUse"
       gradientTransform="matrix(0.382267,0,0,0.377313,9.704168e-2,-1.173805)"
       x1="35.881401"
       y1="56.409702"
       x2="41.574123"
       y2="86.080856" />
    <linearGradient
       inkscape:collect="always"
       xlink:href="#linearGradient5114"
       id="linearGradient5308"
       gradientUnits="userSpaceOnUse"
       gradientTransform="matrix(0.377313,0,0,0.377313,0.442585,-1.173805)"
       x1="41.961357"
       y1="69.449272"
       x2="44.400970"
       y2="94.333328" />
    <linearGradient
       inkscape:collect="always"
       xlink:href="#linearGradient2922"
       id="linearGradient5311"
       gradientUnits="userSpaceOnUse"
       gradientTransform="matrix(-0.344479,0,0,0.344479,39.51644,2.155865)"
       x1="35.881401"
       y1="56.409702"
       x2="41.574123"
       y2="86.080856" />
    <linearGradient
       inkscape:collect="always"
       xlink:href="#linearGradient2910"
       id="linearGradient5315"
       gradientUnits="userSpaceOnUse"
       gradientTransform="matrix(0.377313,0,0,0.377313,0.442585,-1.173805)"
       x1="48.792274"
       y1="41.149754"
       x2="49.524158"
       y2="66.033813" />
    <linearGradient
       inkscape:collect="always"
       xlink:href="#linearGradient2939"
       id="linearGradient6192"
       gradientUnits="userSpaceOnUse"
       gradientTransform="matrix(0.372469,0,0,0.363777,40.25229,12.4694)"
       x1="-36.921875"
       y1="9.6603756"
       x2="-39.676552"
       y2="64.862534" />
    <linearGradient
       inkscape:collect="always"
       xlink:href="#linearGradient2947"
       id="linearGradient6195"
       gradientUnits="userSpaceOnUse"
       gradientTransform="matrix(0.365702,0,0,0.356771,40.00244,12.88952)"
       x1="-36.921875"
       y1="53.132072"
       x2="-25.876013"
       y2="85.908356" />
    <linearGradient
       inkscape:collect="always"
       xlink:href="#linearGradient2971"
       id="linearGradient6198"
       gradientUnits="userSpaceOnUse"
       x1="-58.794689"
       y1="134.84071"
       x2="-58.794689"
       y2="86.242599"
       gradientTransform="matrix(0.454931,0,0,0.465251,55.16942,-1.827937)" />
    <linearGradient
       inkscape:collect="always"
       xlink:href="#linearGradient4857"
       id="linearGradient4863"
       x1="22.3867"
       y1="23.747742"
       x2="22.3867"
       y2="42.657837"
       gradientUnits="userSpaceOnUse" />
    <linearGradient
       inkscape:collect="always"
       xlink:href="#linearGradient2971"
       id="linearGradient3994"
       gradientUnits="userSpaceOnUse"
       gradientTransform="matrix(0.454931,0,0,0.465251,55.16942,-1.827937)"
       x1="-58.794689"
       y1="134.84071"
       x2="-58.794689"
       y2="86.242599" />
    <linearGradient
       inkscape:collect="always"
       xlink:href="#linearGradient2947"
       id="linearGradient3996"
       gradientUnits="userSpaceOnUse"
       gradientTransform="matrix(0.365702,0,0,0.356771,40.00244,12.88952)"
       x1="-36.921875"
       y1="53.132072"
       x2="-25.876013"
       y2="85.908356" />
    <linearGradient
       inkscape:collect="always"
       xlink:href="#linearGradient2939"
       id="linearGradient3998"
       gradientUnits="userSpaceOnUse"
       gradientTransform="matrix(0.372469,0,0,0.363777,40.25229,12.4694)"
       x1="-36.921875"
       y1="9.6603756"
       x2="-39.676552"
       y2="64.862534" />
    <radialGradient
       inkscape:collect="always"
       xlink:href="#linearGradient2981"
       id="radialGradient4000"
       gradientUnits="userSpaceOnUse"
       gradientTransform="matrix(1,-5.303951e-17,4.614987e-18,0.140684,1.526697e-13,88.29468)"
       cx="-59.648556"
       cy="102.75000"
       fx="-59.648556"
       fy="102.75000"
       r="32.080921" />
    <linearGradient
       inkscape:collect="always"
       xlink:href="#linearGradient4857"
       id="linearGradient4002"
       gradientUnits="userSpaceOnUse"
       x1="22.3867"
       y1="23.747742"
       x2="22.3867"
       y2="42.657837" />
    <linearGradient
       inkscape:collect="always"
       xlink:href="#linearGradient4857"
       id="linearGradient4005"
       gradientUnits="userSpaceOnUse"
       x1="22.3867"
       y1="23.747742"
       x2="22.3867"
       y2="42.657837"
       gradientTransform="matrix(0.82467,0,0,0.80067,8.667997,9.208683)" />
    <linearGradient
       inkscape:collect="always"
       xlink:href="#linearGradient2939"
       id="linearGradient4009"
       gradientUnits="userSpaceOnUse"
       gradientTransform="matrix(0.307692,0,0,0.272833,41.86059,19.85205)"
       x1="-36.921875"
       y1="9.6603756"
       x2="-39.676552"
       y2="64.862534" />
    <linearGradient
       inkscape:collect="always"
       xlink:href="#linearGradient2947"
       id="linearGradient4012"
       gradientUnits="userSpaceOnUse"
       gradientTransform="matrix(0.304751,0,0,0.286716,41.75201,19.48921)"
       x1="-36.921875"
       y1="53.132072"
       x2="-25.876013"
       y2="85.908356" />
    <linearGradient
       inkscape:collect="always"
       xlink:href="#linearGradient2971"
       id="linearGradient4015"
       gradientUnits="userSpaceOnUse"
       gradientTransform="matrix(0.376943,0,0,0.379066,53.94038,7.402421)"
       x1="-58.794689"
       y1="134.84071"
       x2="-58.794689"
       y2="86.242599" />
    <radialGradient
       inkscape:collect="always"
       xlink:href="#linearGradient2981"
       id="radialGradient4017"
       gradientUnits="userSpaceOnUse"
       gradientTransform="matrix(1,-4.899747e-17,4.479855e-18,0.140684,1.565123e-13,88.29468)"
       cx="-59.648556"
       cy="102.75000"
       fx="-59.648556"
       fy="102.75000"
       r="32.080921" />
  </defs>
  <sodipodi:namedview
     id="base"
     pagecolor="#ffffff"
     bordercolor="#666666"
     borderopacity="1.0"
     inkscape:pageopacity="0.0"
     inkscape:pageshadow="2"
     inkscape:zoom="1"
     inkscape:cx="24"
     inkscape:cy="24"
     inkscape:document-units="px"
     inkscape:current-layer="layer1"
     inkscape:window-width="823"
     inkscape:window-height="536"
     inkscape:window-x="9"
     inkscape:window-y="51"
     showguides="true"
     inkscape:guide-bbox="true"
     width="48px"
     height="48px"
     showgrid="false"
     showborder="false"
     inkscape:showpageshadow="false" />
  <metadata
     id="metadata7">
    <rdf:RDF>
      <cc:Work
         rdf:about="">
        <dc:format>image/svg+xml</dc:format>
        <dc:type
           rdf:resource="http://purl.org/dc/dcmitype/StillImage" />
      </cc:Work>
    </rdf:RDF>
  </metadata>
  <g
     inkscape:label="Layer 1"
     inkscape:groupmode="layer"
     id="layer1">
    <path
       style="fill:url(#linearGradient5918);fill-opacity:1;fill-rule:evenodd;stroke:none;stroke-width:0.25pt;stroke-linecap:butt;stroke-linejoin:miter;stroke-opacity:1"
       d="M 36.479999,47 L 47.999999,39.799995 L 30,36 L 36.479999,47 z "
       id="path5910" />
    <path
       sodipodi:type="arc"
       style="opacity:1;color:black;fill:url(#radialGradient5902);fill-opacity:1;fill-rule:evenodd;stroke:none;stroke-width:2;stroke-linecap:round;stroke-linejoin:round;marker:none;marker-start:none;marker-mid:none;marker-end:none;stroke-miterlimit:4;stroke-dasharray:none;stroke-dashoffset:0;stroke-opacity:1;visibility:visible;display:inline;overflow:visible"
       id="path5894"
       sodipodi:cx="60.502419"
       sodipodi:cy="115.07005"
       sodipodi:rx="56.111115"
       sodipodi:ry="11.954107"
       d="M 116.61353 115.07005 A 56.111115 11.954107 0 1 1  4.391304,115.07005 A 56.111115 11.954107 0 1 1  116.61353 115.07005 z"
       transform="matrix(0.374257,0,0,0.375482,-1.643478,0.304713)" />
    <path
       style="fill:url(#linearGradient4946);fill-opacity:1;fill-rule:evenodd;stroke:#bababa;stroke-width:1.01816666;stroke-linecap:round;stroke-linejoin:round;stroke-miterlimit:4;stroke-dasharray:none;stroke-opacity:1"
       d="M 3.6381241,42.183118 C 4.3693547,30.869709 5.1005853,16.945515 3.5090833,3.543477 L 23.123274,1.5201175 C 26.564358,1.2807954 36.543511,4.9794104 36.543511,8.2428935 C 38.005971,22.03655 37.661861,34.785892 36.285427,46.490917 L 3.6381241,42.183118 z "
       id="path1306"
       sodipodi:nodetypes="cccccc" />
    <path
       style="fill:url(#linearGradient5315);fill-opacity:1;fill-rule:evenodd;stroke:#5a7287;stroke-width:0.99999982;stroke-linecap:round;stroke-linejoin:round;stroke-miterlimit:4;stroke-dasharray:none;stroke-opacity:1"
       d="M 7.6224707,35.708084 C 8.4304375,28.971753 8.1977598,21.846255 7.9906678,12.787685 L 31.187218,11.775137 C 32.445232,19.783469 33.150946,29.448698 31.095168,38.377528 L 7.6224707,35.708084 z "
       id="path1455"
       sodipodi:nodetypes="ccccc" />
    <path
       style="fill:#3f511d;fill-opacity:1;fill-rule:evenodd;stroke:none;stroke-width:0.25pt;stroke-linecap:butt;stroke-linejoin:miter;stroke-opacity:1"
       d="M 31.95289,28.180645 C 31.95289,28.180645 26.67941,23.768572 24.221256,24.650987 C 19.003329,26.524089 11.160323,33.042628 11.160323,33.042628 L 11.442157,34.669094 L 31.070474,37.088831 C 31.497677,34.581653 32.029925,30.876912 31.95289,28.180645 z "
       id="path2930"
       sodipodi:nodetypes="cscccc" />
    <path
       style="fill:url(#linearGradient5311);fill-opacity:1;fill-rule:evenodd;stroke:none;stroke-width:0.25pt;stroke-linecap:butt;stroke-linejoin:miter;stroke-opacity:1"
       d="M 31.847328,28.423624 C 31.847328,28.423624 26.623364,24.084815 24.244373,25.034265 C 19.588692,26.892338 15.488145,32.022644 15.488145,32.022644 C 15.580526,32.543249 19.563499,29.818946 23.193401,29.602992 C 26.823303,29.387038 27.889359,30.767051 31.49129,33.617731 C 31.713871,31.94138 32.005722,30.85132 31.847328,28.423624 z "
       id="path2932"
       sodipodi:nodetypes="csczcc" />
    <path
       style="fill:url(#linearGradient5308);fill-opacity:1;fill-rule:evenodd;stroke:none;stroke-width:0.25pt;stroke-linecap:butt;stroke-linejoin:miter;stroke-opacity:1"
       d="M 8.6132959,27.21649 C 8.6132959,27.21649 14.503192,22.498938 17.195649,23.465461 C 22.910926,25.5171 31.133296,36.246903 31.133296,36.246903 L 30.824602,38.005385 L 8.0366925,35.38591 C 8.3972226,32.75482 8.4368643,29.985655 8.6132959,27.21649 z "
       id="path2918"
       sodipodi:nodetypes="cscccc" />
    <path
       style="fill:url(#linearGradient5305);fill-opacity:1;fill-rule:evenodd;stroke:none;stroke-width:0.25pt;stroke-linecap:butt;stroke-linejoin:miter;stroke-opacity:1"
       d="M 8.6074334,27.597691 C 8.6074334,27.597691 14.404449,22.845324 17.044406,23.885272 C 22.2108,25.92045 26.761163,31.539755 26.761163,31.539755 C 26.658649,32.109982 22.23876,29.126009 18.210668,28.889471 C 14.182581,28.652933 11.997051,30.187496 8,33.309892 C 8.3591817,30.783384 8.4316633,30.256785 8.6074334,27.597691 z "
       id="path2920"
       sodipodi:nodetypes="csczcc" />
    <path
       style="fill:url(#linearGradient4943);fill-opacity:1;fill-rule:evenodd;stroke:none;stroke-width:0.25pt;stroke-linecap:butt;stroke-linejoin:miter;stroke-opacity:1"
       d="M 24.65333,3.0742622 C 22.414428,6.3406944 23.110009,11.250879 25.370648,13 C 29.152871,9.1645772 31.696091,7.1625709 36,7.8790784 C 33.706755,4.844458 28.690962,2.5526868 24.65333,3.0742622 z "
       id="path2039"
       sodipodi:nodetypes="cccc" />
    <path
       style="fill:none;fill-opacity:1.0;fill-rule:evenodd;stroke:url(#linearGradient4826);stroke-width:0.96689165;stroke-linecap:round;stroke-linejoin:round;stroke-miterlimit:4;stroke-dasharray:none;stroke-opacity:1"
       d="M 4.6050865,41.395379 C 5.2943839,30.572095 5.9836814,17.251132 4.4834458,4.4297046 L 22.97284,2.494002 C 26.727951,2.265048 36.016642,5.8034297 35.623479,8.9255306 C 37.002072,22.121611 36.677695,34.318619 35.380195,45.516554 L 4.6050865,41.395379 z "
       id="path3945"
       sodipodi:nodetypes="cccccc" />
    <path
       style="fill:url(#linearGradient4940);fill-opacity:1;fill-rule:evenodd;stroke:none;stroke-width:1;stroke-linecap:butt;stroke-linejoin:miter;stroke-miterlimit:4;stroke-dasharray:none;stroke-opacity:1"
       d="M 22.352108,2.0552082 C 20.141837,5.3482383 20.828523,10.298406 23.060254,12.061771 C 26.79411,8.1951158 31.751128,7.069112 36,7.791454 C 35.023618,4.8595954 26.338108,1.5293855 22.352108,2.0552082 z "
       id="path2037"
       sodipodi:nodetypes="cccc" />
    <path
       style="color:black;fill:url(#linearGradient4015);fill-opacity:1;fill-rule:evenodd;stroke:none;stroke-width:2.31897831;stroke-linecap:round;stroke-linejoin:round;marker:none;marker-start:none;marker-mid:none;marker-end:none;stroke-miterlimit:4;stroke-dasharray:none;stroke-dashoffset:0;stroke-opacity:1;visibility:visible;display:inline;overflow:visible"
       d="M 33.321686,40.09683 C 32.540817,40.114201 31.677456,40.21296 30.838204,40.396142 C 28.600198,40.884627 27.364239,41.788921 28.066062,42.423742 L 29.483437,43.704669 L 24.34957,44.982379 C 21.803559,45.617198 20.412497,46.521493 21.231423,47.009979 C 22.050351,47.498465 24.759643,47.380891 27.305657,46.74607 L 31.649129,45.661465 L 32.85087,46.74607 C 33.552691,47.380891 35.920424,47.498465 38.158432,47.009979 C 40.396441,46.521493 41.632396,45.617198 40.930573,44.982379 L 39.508524,43.704669 L 44.647065,42.423742 C 47.193076,41.788921 48.584143,40.884627 47.765213,40.396142 C 46.946282,39.907657 44.236989,40.025232 41.690977,40.660052 L 37.3384,41.744656 L 36.145766,40.660052 C 35.707126,40.263289 34.623134,40.067879 33.321686,40.09683 z "
       id="path2969" />
    <path
       style="color:black;fill:url(#linearGradient4012);fill-opacity:1;fill-rule:evenodd;stroke:#9f0000;stroke-width:1.00000048;stroke-linecap:round;stroke-linejoin:round;marker:none;marker-start:none;marker-mid:none;marker-end:none;stroke-miterlimit:4;stroke-dasharray:none;stroke-dashoffset:0;stroke-opacity:1;visibility:visible;display:inline;overflow:visible"
       d="M 23.790682,26.415187 C 23.00035,26.463545 22.247385,26.738488 21.647892,27.248454 C 20.049246,28.608367 20.130362,31.125869 21.828839,32.893171 L 25.257303,36.459197 L 21.828839,40.016263 C 20.130362,41.783565 20.049245,44.301065 21.647892,45.66098 C 23.24654,47.020893 25.901606,46.69357 27.600086,44.926269 L 30.495233,41.906795 L 33.399903,44.926269 C 35.098381,46.69357 37.753449,47.020893 39.352096,45.66098 C 40.950742,44.301064 40.869626,41.783564 39.17115,40.016263 L 35.742686,36.459197 L 39.17115,32.893171 C 40.869626,31.125868 40.950742,28.608368 39.352096,27.248454 C 37.753448,25.888541 35.098381,26.215862 33.399903,27.983163 L 30.495233,31.002638 L 27.600086,27.983163 C 26.538536,26.878601 25.107903,26.334591 23.790682,26.415187 z "
       id="rect2206" />
    <path
       style="color:black;fill:url(#linearGradient4009);fill-opacity:1;fill-rule:evenodd;stroke:none;stroke-width:2.99999905;stroke-linecap:round;stroke-linejoin:round;marker:none;marker-start:none;marker-mid:none;marker-end:none;stroke-miterlimit:4;stroke-dasharray:none;stroke-dashoffset:0;stroke-opacity:1;visibility:visible;display:inline;overflow:visible"
       d="M 24.126156,27.006999 C 23.37534,27.050296 22.660023,27.296469 22.090505,27.753073 C 20.571792,28.970685 20.64885,31.224753 22.262406,32.807123 L 25.519443,36 C 28.521339,32.987814 32.47866,32.705421 35.480556,36 L 38.737595,32.807123 C 40.35115,31.224752 40.428207,28.970685 38.909495,27.753073 C 37.39078,26.535462 34.868466,26.828532 33.254913,28.410902 L 30.495477,31.114417 L 27.745086,28.410902 C 26.736616,27.421921 25.377514,26.934837 24.126156,27.006999 z "
       id="path2937"
       sodipodi:nodetypes="csccccscccc" />
    <path
       sodipodi:type="arc"
       style="color:black;fill:url(#radialGradient4017);fill-opacity:1;fill-rule:evenodd;stroke:none;stroke-width:2.99999905;stroke-linecap:round;stroke-linejoin:round;marker:none;marker-start:none;marker-mid:none;marker-end:none;stroke-miterlimit:4;stroke-dasharray:none;stroke-dashoffset:0;stroke-opacity:1;visibility:visible;display:inline;overflow:visible"
       id="path2979"
       sodipodi:cx="-59.648556"
       sodipodi:cy="102.75"
       sodipodi:rx="32.080921"
       sodipodi:ry="4.5132852"
       d="M -27.567635 102.75 A 32.080921 4.5132852 0 1 1  -91.729477,102.75 A 32.080921 4.5132852 0 1 1  -27.567635 102.75 z"
       transform="matrix(0.376808,-1.011922e-2,1.006255e-2,0.37893,52.53056,6.720314)" />
    <path
       style="opacity:0.8033473;color:black;fill:none;fill-opacity:1;fill-rule:evenodd;stroke:url(#linearGradient4005);stroke-width:1.00000083;stroke-linecap:round;stroke-linejoin:round;marker:none;marker-start:none;marker-mid:none;marker-end:none;stroke-miterlimit:4;stroke-dasharray:none;stroke-dashoffset:0;stroke-opacity:1;visibility:visible;display:inline;overflow:visible"
       d="M 24.435489,27.230931 C 23.71855,27.275253 23.035508,27.527244 22.491686,27.994642 C 21.041494,29.241036 21.199248,31.031219 23.40025,33.168168 L 26.510337,36.436521 L 23.40025,39.696664 C 21.050423,41.978107 21.041493,43.623794 22.491686,44.87019 C 23.941877,46.116585 26.061127,45.250809 27.891141,43.474052 L 30.517436,40.706627 L 33.152371,43.474052 C 35.179125,45.441823 37.101634,46.116585 38.551826,44.87019 C 40.002017,43.623793 39.844283,41.785448 37.69289,39.696664 L 34.582803,36.436521 L 37.69289,33.168168 C 39.233642,31.54839 40.002017,29.241037 38.551826,27.994642 C 37.101633,26.748247 35.00852,27.347728 33.152371,29.14986 L 30.517436,31.917285 L 27.891141,29.14986 C 26.51601,27.814747 25.630389,27.157063 24.435489,27.230931 z "
       id="path3982"
       sodipodi:nodetypes="cscccscccscccscccc" />
  </g>
</svg>
